<svg xmlns="http://www.w3.org/2000/svg" width="1022" height="584" fill="none"><path fill="#335CFF" d="M212.614 315.905a49 49 0 0 1-1.065-.074c-2.766-.24-4.798-.904-7.474-1.474-6.652-1.414-15.361-3.349-22.078-5.035a919 919 0 0 1-15.255-3.98c-.253-.068-.395-.146-.51-.177-.555-.149-1.312-.342-2.078-.538a61 61 0 0 1-2.002-.545c-2.321-.66-6.303-2.015-8.342-2.863-.867-.351-1.757-.72-2.058-.943-.315-.134-.519-.13-.603-.16l-.003-.002c-.27-.096-.918-.434-1.065-.494-.023-.009.089.104-.26-.066-.032-.016.015-.039-.286-.171-.08-.033-1.104-.416-1.392-.543-.956-.41-3.183-1.51-4.294-2.06-.17-.084-.279-.111-.458-.199-.093-.046-.22-.137-.249-.151-.126-.061-.723-.229-.424-.338-.575-.272-.441-.12-.476-.082-.62-.304-.867-.553-1.079-.532-3.014-1.556-5.976-3.183-8.924-4.804l-.03.048c-.835-.54-1.194-.591-1.639-.956l-.953-.436-.756-.417c-7.844-4.455-14.421-10.224-20.799-16.074-.274-.255-.313-.346-.766-.77-.504-.473-1.232-1.097-1.887-1.724-.586-.56-1.38-1.378-2.021-2.011-.143-.141-.261-.22-.277-.236-.093-.093-.07-.126-.16-.215-.108-.108-.26-.215-.385-.34-.467-.467-.995-.975-1.049-1.029-.282-.284-.317-.375-.34-.398-.314-.318-.22-.175-.298-.255-.401-.415-.641-.778-1.251-1.271l.115-.024c-.413-.44-.194-.097-.292-.173a87 87 0 0 1-1.025-1.043c-.243-.254-.216-.289-.237-.311-.05-.053-.701-.644-.992-.996-.344-.416.162-.025.08-.132-.013-.018-.414-.415-.447-.489-.038-.081.303.269.307.255.002-.011-.517-.631-.38-.548.112.055.847.882 1.02 1.031.03.025.016-.062.04-.04.097.091 1.867 1.88 1.942 1.965l-.326-.228.362.374-.562-.486c.124.399 1.038 1.039 1.138 1.003.044-.019-.348-.573.14-.178l-.177-.226-.455-.377.252.303-.13-.074q-.412-.367-.825-.739c-.127-.143-.072-.142-.158-.241-1.075-1.225-.415-.382-1.148-1.152l-.274-.371c-.024.101-.32-.28-.743-.66l.202.086c-.58-.571-1.648-1.881-1.445-1.446l-.367-.438-.385-.289-.451-.482.028-.031.365.379-.183-.372-.285-.267c.349.421-.196-.052-.357-.14-.334-.319-.489-.586-.59-.696-.048-.053-.725-.579-.394-.435l-.945-.92-.333-.399c.303.226-.379-.611.185-.053.427.421.483.569.678.773.175.184.297.253.488.451a780 780 0 0 1 3.55 3.712c.24.252.471.46.635.632.184.193-.086-.01.16.224.259.246.343.271.409.337.04.042.143.2.262.321.486.495 1.23 1.195 1.301 1.267.082.086 1.436 1.493 1.507 1.571.034.038-.139.064.276.266l.294.282-.106.012c.645.491.404.336.96.873 1.337 1.295 3.287 3.217 4.764 4.596.335.313.485.408.877.773.36.335 1.251 1.297 1.137 1.002.737.845.995.798 1.327 1.276l.188.095c.394.466.578.537 1.07.965.217.189-.086.033.408.346l.231.235-.098-.004c.487.409.509.442.506.337q.327.317.664.64l.137.018c-.095-.109-5.319-4.741-6.013-5.401-.792-.821-2.487-2.346-3.136-2.998-.261-.26-.343-.421-.715-.793-.374-.375-.892-.811-1.098-1.011-.681-.653-3.844-3.842-1.639-1.734l-.129-.248c-.919-.785-.567-.516-1.271-1.239-.3-.308-1.047-.977-.917-1.027.559.535 1.133 1.172 1.612 1.651.049.049.654.573.944.885.257.277-.011.181.665.66.336.522.666.677.793.785.215.18.19.249.384.449.21.219.389.333.418.362.289.284 1.852 1.792 1.902 1.874l-.211-.155c.388.401.351.271.461.366l.238.229-.125-.061c.485.46.151.074.831.725.432.412.837.867.885.908.014.011-.1-.145.082.02.302.274.809.75.832.838.148.128.168.082.188.099.076.067 1.551 1.41 1.804 1.634.739.665 1.526 1.389 2.333 2.094.081.072.009.049.091.12.131.115.836.671.943.759.261.218.912.807 1.024.884.016.012-.175-.208.089.003.299.238.107.146.122.16.579.521.963.796 1.373 1.129.133.109.349.344.541.488.022.016.005-.049.027-.033.291.216.504.484.62.586.295.255.164.08.18.092.201.163.458.397.76.637a134 134 0 0 0 3.962 3.04c.183.134.386.327.415.349.09.064.091.011.349.198.538.388 1.054.746 1.597 1.116.109.074.133.139.215.196.289.201 1.312.74 1.26.861.648.275.954.582 1.438.871.49.292 1.128.655 1.765.994.804.428 1.627.871 2.247 1.218.235.131.33.222.46.295.234.131 1.591.848 1.659.891.134.085-.021.171.754.444.423.218.344.245.429.295.662.387 1.384.62 1.201.665.802.393 1.346.605 1.612.88.023-.053.41.115.847.371-.503-.158-.476-.073-1.574-.68-.017-.009.036-.028.019-.038-.157-.087-.496-.245-.763-.392-.268-.146-.105-.091-.213-.148-.099-.053-.114-.016-.257-.093-.462-.247-.876-.459-1.138-.601-.166-.089-.334-.22-.462-.29-.496-.269-1.558-.816-2.186-1.162-.13-.072-.057-.077-.342-.236-.034-.018-.175-.049-.431-.178-.255-.129-.44-.253-.604-.337-.136-.07-.097-.008-.375-.156-.086-.046-.499-.274-.992-.545a43 43 0 0 1-1.982-1.164c-.204-.132-.265-.23-.39-.3-.022-.012-.084.008-.16-.035-1.269-.699-3.86-2.569-5.165-3.56a139 139 0 0 1-7.817-6.299l-.156-.103q.396.346.787.684l-.04.057c.353.309.345.23.356.195l.373.375c.169.039 1.015.826 1.484 1.214.302.252.671.515.833.651.338.283.297.313.324.336.044.038.545.388.881.657.512.411.522.518 1.254 1.007.885.739 1.898 1.477 2.902 2.191-.23-.077.697.506 1.111.793 1.59 1.11 3.465 2.338 5.362 3.38a834 834 0 0 1 3.049 1.69c.342.19.581.368.774.471.104.056.173.037.314.122.024.014.02.064.285.216.66.38 2.365 1.216 2.747 1.52a243 243 0 0 0 6.966 3.577l.151.137c.486.137 2.227 1.046 3.1 1.445 1.531.71 3.513 1.553 4.882 2.115.297.123.532.249.813.363.121.049.285.078.412.128 1.419.572 3.348 1.334 4.809 1.835a99 99 0 0 0 6.793 2.082c1.05.28 2.055.547 3.128.83 11.477 3.011 22.916 5.892 34.465 8.295.153.032.137.07.255.094.72.149 2.306.428 3.104.579.65.125 1.653.37 1.879.347-2.26-.5-4.654-.967-7.006-1.489-.169-.038-.183-.08-.204-.085-.374-.093-.143.01-.695-.104-.193-.04-1.859-.527-1.689-.365-.385-.131-3.276-.803-3.814-.912-.17-.034-.059.029-.093.023-.147-.026-.202-.089-.333-.121-.352-.083-1.221-.243-1.395-.284-.401-.093-1.509-.395-2.035-.51-.458-.099-.384-.028-.784-.118-.318-.072.04-.032-.67-.215-.351-.091-1.564-.35-1.874-.426-.298-.072-.61-.18-1.02-.278-.601-.143-1.867-.436-2.479-.578-.036-.008-.135.009-.224-.014-.185-.047-.118-.082-.252-.121-.122-.034-2.525-.629-2.92-.73-.279-.071-.481-.091-.637-.131-.123-.031-.126-.075-.251-.107-.042-.011-.37-.056-.691-.139-.301-.077-1.466-.41-1.607-.446-.086-.022.001.031-.254-.035-.233-.061-.378-.138-.512-.173-.311-.081-.669-.139-1.005-.225-.971-.25-.89-.279-.951-.296-.156-.045-.23-.019-.282-.031-.219-.053-.761-.186-.96-.236-.247-.062-.341-.129-.606-.198-.19-.049-.584-.11-1.024-.223a421 421 0 0 1-3.157-.818c-.293-.078-.329-.127-.419-.152-.479-.132-.734-.155-.869-.192-.538-.145-1.321-.376-2.071-.597-.557-.164-1.077-.322-1.455-.432-.363-.102-1.942-.534-2.822-.822-.101-.033.003-.031-.111-.062-.271-.075-.265-.01-.4-.055-.066-.022-.203-.102-.394-.169-.985-.341-1.669-.552-2.116-.711-4.3-1.527-8.558-3.401-12.373-5.267-.427-.208-.968-.433-1.593-.785l-.034-.08-.092.016c-.727-.353-1.012-.471-1.736-.869-.062-.034-.216-.209-.385-.176-.69-.445-.328-.169-.87-.443s-1.053-.57-1.57-.85c-.267-.185.97.37 1.048.41.126.066.232.182.352.248.355.195.724.338.782.422.488.196-.102-.081-.023-.091l.907.53c.226-.053 1.863.996 1.796.83l.383.268c.669.167.979.435 1.772.865l-.151-.135c.02.001.75.317.459.266.779.255.677.399 1.391.592.4.168.132.126.84.448.418.19.958.39 1.428.594.109.047.139.107.236.149.097.043.161.025.278.075.244.104.545.265.699.327.136.056.346.106.676.238 1.155.46.791.362.966.454.188.097.354.091.742.255.039.016-.079.016.049.065.104.04.174.018.517.144.133.055 2.259.854 2.585.964.497.182 1.596.61 2.117.784.2.068.425.104.638.175.708.236 1.838.598 2.743.869.811.248 2.224.728 2.696.774l.07.018c1.108.288 1.354.417 1.44.44.233.065.351.052.643.128 3.803.983 8.858 2.326 12.474 3.235 8.422 2.114 16.91 4.154 25.456 5.839l.081-.042c-1.003-.205-2.191-.477-3.184-.69-1.327-.282-3.307-.629-4.255-.97.383.073 1.035.265 1.033.197-.719-.161-1.4-.316-2.116-.48l.042.103c-.721-.152-1.49-.333-2.218-.495-.129-.028-.044.02-.156-.006-.126-.029-.035-.037-.058-.042-.318-.073-.425-.069-.461-.077-.097-.024-.015-.033-.294-.105-.517-.134-.918-.153-.765-.241l-.517-.12-.152.065c-1.002-.37-1.559-.264-2.082-.578l-.593-.054-.304-.174-.084.067c-1.004-.262-2.118-.497-3.094-.74-.697-.172-.841-.219-1.447-.367-1.353-.329.004-.051-1.107-.388l.148.143-.557-.099-.364-.178c-.605-.001-.955-.21-1.034-.229-.068-.017-.294.017-.949-.225.25.187-.515-.129-.58-.146-.06-.016-.853-.189-1.156-.267-.244-.063-.764-.221-1.136-.315-.329-.083-.307-.035-.331-.041-.408-.101-.143-.066-.43-.141-.284-.074-.515-.098-.577-.117-.031-.009.083-.019-.059-.059-.378-.108-1.099-.259-1.537-.373-.154-.04-.341-.122-.513-.168-.265-.07-.401-.061-.556-.102-.054-.015-.382-.168-.819-.271-.084-.02-.361.052-.623-.22l-.093.062c-1.436-.304-1.815-.638-2.483-.606-1.028-.294-.299-.182-.409-.224-.071-.026-.416-.095-.454-.106-.065-.02-.047-.041-.12-.06-1.338-.349-.766-.149-1.188-.229-1.005-.193-1.741-.552-.03-.049l.011-.041c-.423-.097-1.508-.392-1.127-.365.296.022 2.87.74 1.417.275-.324-.104-.503-.097-1.05-.344-.377-.106-.464.003-.969-.184l.221.197a10 10 0 0 1-.884-.215c-.462-.131-.903-.276-1.233-.353-.185-.043-.904-.028-.691-.188-.31-.072-1.74-.544-2.01-.612-.065-.016-.187.068-1.097-.268l-.18-.103c.859.237-.623-.292-.183-.261.123.093.783.338.884.395.171.098-.395-.025.311.183.495-.03-.792-.353-.546-.454-.941-.222-1.008-.329-1.213-.4-.88-.312-1.438-.489-2.258-.808-.215-.039 1.269.547 1.46.594-.727-.123.456.297.978.392l.09.149a37 37 0 0 0-1.928-.665l-.111-.085.453.094c-.521-.221-.24-.004-.916-.35l-.109.095q-1.01-.392-2.017-.804c-.381-.055-1.664-.604-1.385-.61-.516-.218.103.096-.394-.077-.217-.076-.633-.245-.723-.315.083-.077.708.167.923.177-.111-.059-3-1.208-2.695-1.216-.222-.113-.143-.01-.559-.176-1.168-.465-2.876-1.399-3.853-1.7 1.033.592 1.392.657 2.219 1.035.523.254 3.778 1.656 3.009 1.439l.377.115.326.244q-.517-.21-1.031-.423l-.205-.195-.14.015-.436-.176.154-.024-.654-.304.132.181c-1.041-.454-.68-.319-1.223-.643-.424-.202.267.195-.644-.204-1.055-.469-.323-.249-1.683-.869l-.083.022q-.433-.239-.864-.48l.087.12c-.608-.305-1.464-.682-1.625-.865.596.347.662.201.514.095-.311-.201-5.178-2.654-6.104-3.163-1.193-.632-2.067-1.164-3.188-1.683.703.457 3.316 1.806 3.788 2.104.047.03-.035.152.355.173.997.56 2.229 1.154 3.5 1.807l-.174.053c-.742-.479-1.552-.68-1.376-.773l-.465-.242-.039.075-.7-.367.039-.075-.579-.306-.1.043c-.551-.356-2.587-1.273-1.645-.957l-.81-.436-.027.056-.352-.181.141.013c-.548-.258-1.005-.618-1.384-.75l.67.411c-.429-.262-1.267-.655-1.34-.695-.222-.12-.319-.22-.558-.353-.216-.119-.201-.075-.241-.098-1.153-.665-.625-.574-1.268-.691l-.134-.169-.266-.064-1.032-.568.295.279c-.525-.267-.732-.459-.782-.487-.14-.081-.226-.077-.27-.101l-.214-.116c-1.801-1.008-.635-.403-1.552-1.121-.404-.166-.062.115-.043.202-.48-.322-.639-.398-1.148-.72-.133-.085-.258-.207-.342-.261-.076-.049-.318-.159-.489-.271-.282-.183-.668-.465-1.047-.722-.321-.215-1.318-.873-1.998-1.368-.294-.213-.202-.185-.277-.24-.03-.022-.274-.153-.457-.289-1.496-1.104-2.987-2.306-4.43-3.487-1.011-.827-2.054-1.666-3.055-2.534-.209-.182-.08-.107-.171-.187-.032-.028-.101-.023-.415-.322-.114-.108.045-.015-.07-.118-.057-.05-.108-.038-.448-.323-.609-.511-.887-.835-.942-.882-.103-.087-.097-.035-.231-.152a163 163 0 0 1-3.969-3.605c-.213-.219.045-.078-.243-.345l-.28-.186.354.391c-.333-.345-.763-.704-1.016-.946-.047-.045-.461-.483-.688-.695l.314.242-.076-.122c-.459-.411-.94-.873-1.387-1.308-.163-.158-.088-.126-.253-.287-.967-.945-.807-.623-1.573-1.686.295.32 1.461 1.414 1.623 1.581.113.116.431.685.401.386.925.89.045.195.937 1.016l-.003-.101c.316.281.549.486.705.691.133-.031 1.144 1.017 1.716 1.537.845.773 1.8 1.612 2.643 2.366.288.258.419.436.454.468.051.045.231.153.337.247.4.359 1.557 1.468 1.938 1.651a222 222 0 0 1-6.99-6.368c.252.317-2.061-1.886-2.169-2.001-.106-.106.011-.045-.019-.078-.228-.242-.47-.401-.546-.476-.058-.056-.159-.19-.36-.385-.037-.036-.067-.027-.106-.066q-.394-.384-.793-.777c-.016-.016-.056-.111-.123-.177-.068-.067-.163-.105-.18-.122-.218-.214-.556-.585-.757-.785-.07-.069-.042-.001-.12-.078-.24-.239-.12-.201-.428-.487-.104-.096-.128-.059-.316-.254-.133-.139-.064-.179-.083-.203-.031-.035-.533-.451-.648-.639.425.237-.356-.368-.364-.295l-.522-.587-.22-.161c-.688-.79-1.163-1.219-1.877-1.978-.033-.036-.615-.679-.572-.664.388.349.745.714.938 1.002.473.309.411.386 1.042 1.004.211.207.25.198.273.222.828.817 2.134 2.106 2.624 2.729.174.136-.376-.426-.146-.224.121.114 2.995 2.895 2.006 2.08l.29.27c.167.016.621.493.496.517l.18.085c.102.074.214.169.366.308.56.527 3.943 3.781 4.13 3.92l.063-.043c-1.481-1.415-2.984-2.759-4.543-4.374l.093.188a346 346 0 0 1-1.857-1.955c.715.647 1.807 1.665 2.506 2.388.123.127.007.06.033.091.07.081.191.12.467.378.274.257.951.959 1.013 1.016.125.115.499.382.705.578.276.262.063.116.118.169.229.222.449.402.628.573.266.256.763.816 1.027.92l-.563-.544c1.062.941 1.786 1.786 2.895 2.651.319.119-.546-.639.211-.028l-.396-.351-.146-.025-.643-.662.146.228c-.801-.707-1.635-1.449-1.817-1.791l-.11.022c-.706-.707-1.895-1.659-1.572-1.585l-.121-.078c-.415-.442-.276-.214-.447-.366-.047-.041-.884-.893-.467-.563-.801-.823-.654-.463-.887-.678-.477-.569-1.51-1.413-1.025-1.113l-.224-.238c-.324-.181-.501-.508-.756-.81l-.28-.286-.26-.119c-.769-.979-.792-.403-.943-1.058l.234.142.468.422a377 377 0 0 1-1.78-1.817c-.686-.832-1.201-1.197-1.977-2.101l-.257-.221c.138.025.435.345-.107-.261-.008-.089.382.298.524.506.035.05-.354-.283.046.127.272.278-.172-.271.624.573l-.06-.121.264.27.171.312c.239.174.401.245.857.723-.141-.113-.015.106.215.336l.05-.05c.564.544.329.406.835.834l.101.18c.311.203 1.278 1.085 1.028 1 .346.185.868.769 1.011 1.034l.097-.004.338.311.153.209.267.2.094.19.438.307.193.264c.043-.025.809.697 1.008.931l.222.154.047.14.181.096.291.354c.524.34.47.425.575.524.194.182.895.742 1 .845.106.104.131.182.215.266 1.415 1.402.89.763 1.194 1.021.164.137.249.267.39.391.243.215 1.496 1.281 1.558 1.342.097.096-.264.014.1.278.076-.061.727.65.482.251q.43.408.854.804c.039-.118.36.263.762.605.561.48 1.897 1.52 1.772 1.565l.458.281c.921.822 1.869 1.549 2.814 2.299 2.811 2.232 5.953 4.558 8.998 6.354.145.085.103.105.211.168.217.126.565.32.949.523.651.344 1.419.751 1.915 1.027.257.143.365.245.447.291.275.156.233.077.36.148.201.112 1.247.734 1.613.938.181.102.415.184.623.311.017.011-.036.028-.02.037.386.215.169.058.299.13.932.521 1.934 1.063 2.95 1.615.252.137.626.369.843.487.082.044-.052-.061.233.093.098.052.113.105.223.166.474.262.693.233 1.057.539.798.411 2.201 1.093 2.933 1.458.173.086.246.149.412.231.117.058.339.128.522.218s.456.263.81.434c.371.18.843.383.927.424.101.048.13.11.231.158.306.145 1.149.494 1.547.672.43.192.678.328.824.394.135.06.309.098.371.125.097.043.102.093.225.147.201.089.417.156.718.287 4.835 2.114 9.714 3.877 14.672 5.223l1.831.497c.614.167.981.232 1.903.49.371.104.203.105.494.173.13.031.107-.012.269.029.705.178 1.57.438 1.878.518.124.032.276.031.529.096 1.907.494 4.146 1.083 6.203 1.6 1.075.27 2.724.666 3.98.977 3.441.852 7.157 1.763 10.3 2.49a420 420 0 0 0 14.285 3.037c-2.227-.507-5.25-1.113-7.732-1.662a691 691 0 0 1-22.042-5.257 596 596 0 0 1-8.488-2.23c-.127-.034-.397-.074-.673-.15-.064-.018-.748-.257-.99-.321.202.156-.716-.179-1.013-.256-.162-.042-.404-.095-.698-.165a18 18 0 0 1-1.3-.352c-.767-.244-.541-.221-.584-.235-.267-.093-.379-.062-.588-.117-.867-.202-5.191-1.668-6.375-2.143-.309-.116-.304-.156-.373-.183-.184-.069-.457-.132-.752-.246-.531-.204-1.124-.48-1.414-.597-.691-.277-2.021-.783-2.91-1.172-.252-.109-.22-.14-.333-.189-.499-.216-1.814-.756-2.428-1.043-.998-.462-2.006-.975-3.017-1.457l-.166-.143-.326-.098c-1.69-.854-3.421-1.705-5.087-2.591-.193-.102-1.126-.639-1.284-.724-.132-.071-.283-.101-.474-.212-.269-.155.028-.091-.43-.31-.123-.059-.024.036-.27-.084-.082-.039-1.634-.863-1.715-.911-.137-.079-.222-.215-.257-.236-.182-.108-.203-.051-.33-.114-.375-.185-.836-.482-.896-.514-.727-.384-2.101-1.077-2.848-1.513-.103-.06-.069-.093-.087-.104-.114-.073-.213-.068-.327-.128l-.156-.084a38 38 0 0 1-1.928-1.151c-.07-.043-.223-.108-.34-.182-.663-.428-.426-.329-.463-.354-.088-.06-.277-.128-.516-.279a58 58 0 0 1-2.433-1.648c-.478-.343-.444-.381-.475-.404-.065-.049-.284-.157-.599-.381-.606-.433-.516-.418-.766-.602-.021-.016-.007.043-.288-.163-.528-.383-1.69-1.33-2.247-1.773-.216-.171-.294-.186-.509-.357-.341-.27-1.102-.943-1.163-.993-.017-.014-.081-.012-.181-.094-.109-.091-.203-.197-.286-.265-.469-.386-1.323-1.011-1.001-.938l-.517-.291c-.978-.841-1.923-1.645-2.867-2.473-.214-.188-.373-.368-.556-.53-.185-.163-.993-.828-1.129-.95-.244-.218-1.561-1.42-1.727-1.581-.323-.308-.583-.636-.721-.749-.111-.09-.039.026-.244-.152-.353-.307-.917-.902-1.015-.994-.045-.042.02.058-.397-.335-.225-.212-.325-.35-.406-.428-.026-.024-.021.049-.464-.384-.308-.302-.405-.448-.438-.48-.048-.046-.191-.128-.383-.315-.448-.438-1.242-1.275-1.661-1.691-.082-.082-.087-.018-.413-.345-.234-.235-.166-.222-.253-.31-.14-.142-.378-.309-.681-.612-.384-.375-3.203-3.28-3.327-3.431-.092-.106-.205-.222-.238-.286l.168.084c.38.488.264.254.381.366.166.158.797.811.961.95.059.05-.035-.106.272.172.33.298.413.49.612.54.359.526.883.873.385.329-.276-.295-3.05-3.159-3.619-3.759-.45-.47-1.344-1.346-1.9-1.935-.325-.343-1.138-1.2-1.064-1.203-.29-.314-.018.052-.085-.008-.146-.128-1.025-1.105-1.2-1.288-.864-.898-1.968-1.977-2.748-2.914l.148.093c.208.181 1.038 1.122 1.186 1.174a569 569 0 0 1-3.75-4.017c-.019.072-1.573-1.614-1.617-1.704l.146.027c.787 1.021.822.84 1.348 1.525.237.258.201.147.325.267 1.233 1.194-.06.085.874 1.025-.22-.34.538.437.873.782.075.077 1.049 1.144 1.17 1.27.665.7 1.83 1.876 2.462 2.595.512.545.839.814 1.323 1.302.366.369.237.286.406.462.354.37.546.413.666.755l.77.715-.05.049.456.469.184.089c.457.515.216.348.258.487l.308.334.353.143c.47.484.924.953 1.397 1.436l.042.143.053-.047a363 363 0 0 0 2.411 2.395c.241.188-1.03-1.118-1.124-1.217-.522-.538-1.989-1.969-1.924-2.023-.372-.288-1.377-1.337-1.625-1.699.46.478.943.978 1.409 1.459l.014-.106c.506.676.596.758 1.284 1.302l-.078.08c.52.341 1.104 1.237 1.245 1.151l.658.711c.508.475-.183-.376 1.723 1.569.131.133.075.135.277.329.059.057.423.331 1.063.96.099.097.082.13.183.233.231.239.752.643.458.519.919.93.598.49.918.745.214.17.127.181.308.332.224.186.113-.011.936.81l-.295-.259.104.175c.519.428.427.431.728.57.323.367.612.642 1.11 1.092.959.863.54.327 1.522 1.429l.57.431c.258.292-.011.125.408.518-.264-.385.624.465.845.529l.002.096.291.257.038-.041.356.371.331.216.407.512.297.269-.04-.147.368.356c-.117-.162.002-.129.415.227.337.29-.104.041.644.625.056.042.175.057.878.632.836.679.401.381.548.505.03.025.296.201.541.395.138.109.252.238.27.252.084.067.134.057.25.149.297.237.669.56.968.795.133.104.272.184.331.23.091.072.185.191.277.263.333.26.938.577.996.827.418.131 1.008.8 1.018.681.853.703 3.357 2.283 3.19 2.361.606.229.498.282.717.423.243.155.133.05.324.175.467.302.877.571 1.346.854l-.255-.072c.484.3.345.155.839.432.922.508.517.322.622.453-.004-.035.242.088.504.224.307.161.642.347.7.383.067.042-.271-.055.436.301l-.081-.124c.303.2 1.182.632 1.324.718.066.04.334.401.733.448l.085.126 1.131.52.113.205.346.188-.176-.223c.704.402 1.601.821 1.688 1.011l.491.185.238.271c.711.37.736.352 1.24.57l-.103.057c.378.149 1.049.457 1.566.723.246.127.646.387.705.413.061.027.718.17.709.338.878.377 1.22.629 1.566.802.224.113.344.132.598.255.364.178.722.376.933.477.12.058.159.037.242.077.393.187.148.107.562.308.038.018.359.126.697.295.189.095.662.375.705.395.194.091.08-.07.694.344l-.034-.078c.839.34.934.473 1.098.555.021.01.235.072.353.131.199.098.262.175.306.198.156.077.697.298 1.029.491-.022-.146 1.219.345 1.438.59l.686.197.269.187.208.01q.448.268.899.531l.119-.119.263.123.164.197.345.11.116-.05c.617.2.204.349 1.447.549l.516.264c.242-.032.601.17.914.267.22.068.223.022.52.124s.273.139.296.147c.243.087.438.112.613.179.026.01.077.082.303.161.226.078.383.072.718.192.172.061.209.118.362.171.735.255 1.538.27 2.022.683.132.006 1.08.16 1.466.273.604.177.357.162.597.237.023.007.115.024.328.077q.162.04.422.11c.094.026.08-.008.093-.005.621.166 1.769.495 2.445.677.06.017.398.023.9.267.792.126 2.246.685 3.296.834.142.035.306.107.369.122.557.136.383.001 1.585.444-.089-.068.21-.032.611.075.613.163.156.131.657.253l.017-.068c1.135.357 1.351.309 2.515.605.413.106 1 .308 1.096.332.035.009.499.069.544.08.245.06.376.12.586.173.69.175 1.516.306 1.34.399l.595.062c.688.318 1.249.256 1.375.429l.41.014c3.075.775 6.129 1.526 9.215 2.255.125-.016 1.475.31 1.538.331.307.102-.047.121.599.244l.246-.074c.819.17.417.122.729.222.134.025.098-.017.277.02.996.211 3.007.647 4.078.869.221.045.181.068.249.083.189.039.555.076.927.153 2.303.48 5.55 1.125 7.87 1.54.157.029.17.068.275.087.141.026.486.052.636.079.144.026.232.069.391.097.344.062.755.118 1.159.178l.069.011c.442.066.876.148 1.243.249.066.019.826.288.841.298.095.07-.611.066.514.304-1.025-.07-.733.122.594.337a34 34 0 0 1-2.021-.229l-.01.045c.61.176 1.206.298 2.14.4l-.092.034c-.833-.01-1.825-.157-2.487-.169.93.229 1.836.439 2.767.595l-.144.02c-.451-.01-1.431-.121-1.807-.156-1.441-.121 1.234.266.787.256-.852-.112-1.7-.272-2.562-.401l-.068-.011c-.626-.094-1.271-.196-1.896-.299-.021.015.83.186 1.883.383l.069.013c1.653.346 3.752.69 3.713.752q-.722-.052-1.442-.138.312.098.628.189l-.182.012c-.816-.071-1.629-.188-2.428-.287 2.43.395 3.608.488 4.181.813l-.205.007c-.523-.18-3.065-.478-4.367-.667l-.028-.003.027.009c.3.086 1.404.235 1.644.302.07.019-.182.016-.021.06.415.13 2.271.402 1.996.425-.18.058-3.093-.341-3.67-.438l-.029-.004.027.005c1.263.262 2.684.541 4.051.726-.874.039-1.714.087-3.253-.167-.513-.009 2.847.578 2.939.576a32 32 0 0 1-1.791-.109c.499.065 1.006.119 1.509.159l.001.036a39 39 0 0 1-3.581-.367l-.071-.011-.218-.033c.011.021.093.046.212.072l.068.014c.279.057.715.125.981.169M94.496 254.572c.018-.056.37.327.57.538l-.07-.114c.418.453 1.218 1.317 1.319 1.278.318.313.118.231.211.341.036.044.475.428.75.802l.234.24.116-.021.238.417a478 478 0 0 1-3.366-3.48zm11.306 11.421c.413.428 1.036 1.07.968.88l-.81-.765zm48.053 31.711c.42.262.86.355 1.557.638l.017-.053c-.304-.068-1.045-.387-1.574-.585m-69.53-53.614-.205-.257c.372.262.373.368.716.731.02.022.03-.001.038.007.083.089.139.191.213.272.143.157.28.266.531.543.195.214.164.246.233.32.056.06.735.625 1.071 1.069.639.846-2.386-2.433-2.598-2.685m-2.04-2.382.213.234c-.262-.19.173.278.485.623-.057.033-.697-.719-1.01-1.038zm8.825 9.842c-.283-.293-.178-.299-.148-.303l.265.284zm-2.114-2.232c.128.057.74.682 1.036.994.012.013-.089-.052.117.166.062.066.742.635.52.578a526 526 0 0 1-1.672-1.738m-.585-.681.38.334.118.243-.401-.407zm106.334 60.689-.095-.107c-.139-.048-.885-.096-.662-.021zm3.001.729.442.14.543-.026c-.737-.192-1.518-.401-1.42-.238l-.511-.114c.156-.023.143-.045-.302-.182-.114.056-.554-.083-1.09-.186l1.141.27-.009.041c-.848-.195.192.129.763.198l.118.083zm-59.741-19.421.267.19c.456.036-.38-.213-.848-.629.125.192-.69-.252-.74-.271l.229.25zm2.654 1.548c-.291-.254 1.346.593 1.888.889.132.073.348.239.447.282l.201.04c.041.093 1.151.57 1.592.747l.089.122.479.203-.09.035.39.096c.476.195.135.172.5.304.406.146-.195-.227-.162-.265a50 50 0 0 1-1.359-.617c-.182-.09.063-.065-.765-.365l-.482-.322-.993-.378-.131-.177c-.031-.022-.79-.329-.762-.288-.265-.207-.861-.529-1.493-.866l-.207-.049c.63.289.186.119.353.246.096.072.4.275.505.363m49.367 16.12c1.143.189.444.092 1.659.377l-.225-.183c-.619-.065-1.603-.351-1.435-.194zm12.035 2.541c-.661-.11-.347.022-1.171-.128h-.001q.634.14 1.276.278zm-37.821-9.197c-.603-.186-.49-.12-1.025-.341-.842-.16-.146.03-.165.099l.582.1c.435.192-.004.104-.006.11l.001.001c-.006.02-.022.021.149.082zm-2.621-.667c.221.017.331-.013-.203-.208l-.001-.001c-.074.09-.571-.155-.811-.224l-.197-.026c.402.155.809.309 1.212.459m-9.011-3.131c.043-.11.49.062-.091-.295l-.365-.145-.267-.028c-1.442-.85-2.044-.701.594.263l.001.001zm2.724 1.069.125-.151c.287.269.784.304 1.42.646l.202.013c.238.14 2.726 1 2.217.725-.223-.118-.753-.239-.798-.256-.149-.056-.326-.174-.579-.259-.146-.049-.473-.098-.771-.205-.663-.237-1.808-.843-2.728-1.035l-.166-.125c-.643-.243-.453-.103-1.02-.408-.523.114 2.399.934 1.728.925h.001zm18.293 5.295c.028.062.823.183.609.259.264.022.522.043.795.068l.003-.035-.764-.169.011-.055c-.383-.029-1.969-.472-1.903-.523l-.269.017c-.723-.268-1.398-.36-2.206-.65l-.206.018-.108-.086-.889-.241c-.994-.185.875.409 1.097.456.031.006.037-.042.229 0 .36.081 2.217.617 2.822.74l-.009.098zm-24.371-7.948-.08-.143c-.7-.281-1.122-.509-.991-.329l.001.001q.535.238 1.07.471m-45.868-31.913c-.031.061.204.327.577.629l-.009-.088c-.216-.136-.363-.415-.906-.936l-.069.07zm46.458 32.192c.194.129.834.281.446.105-.295-.135-.55-.174-.446-.105m54.762 14.873-.498-.118-.281.03zm-38.248-9.209-1.458-.377-.249-.065-.031.048q.151.023.271.049c.387.082.55.176.659.209l-.002-.001c.424.128.825.245 1.217.372zm1.905.623c-.06-.149-.193-.199-1.079-.34l.09.072c.446.109.728.153.629.195zm-8.737-2.538c.09.074.905.295.868.261-.015-.012-1.04-.401-.868-.261m-60.724-40.519.395.444-.582-.536zm-1.634-1.419c-.087-.113.316.138-.25-.491q.645.663 1.281 1.312l-.636-.575.033.176zm-.398-.533c.164.297-1.033-.937-1.14-1.064-.022-.028-.093-.198-.126-.253l.543.566-.136-.232.65.644-.317-.238zm4.876 4.943-.456-.467.022.162.276.277zm-3.161-3.145c.335.118.702.985.078.165-.064-.084-.11-.176-.078-.165m-3.292-3.347c-.555-.415-.268-.481.127.04.02.026-.085-.008-.127-.04m-3.51-3.701c-.036-.04-.046-.17-.46-.499l-.157-.208c.16.115 1.378 1.38 1.152 1.257-.184-.193-.346-.346-.534-.55m.934 1.435.542.564-.123-.243.282.268.359.572c-.397-.407-.798-.821-1.187-1.224zm4.754 5.063c-.324-.381-.788-.811-1.342-1.395v-.001c-.028-.029-.053-.105-.142-.2-.075-.078-1.635-1.653-1.468-1.566.62.573.792.87 1.028.924l.026.148c.533.626.764.725 1.106 1.028l-.05.041.64.671-.06-.123.228.235c.14.235.362.485.034.238m-5.54-5.947c-.288-.072-1.804-1.852-2.569-2.629.459.353 1.007 1.039 1.424 1.487.805.863.291.227.447.355.076.063.468.631.699.787m6.84 7.24c-.41-.438-.664-.645-.978-1.053l.115.068c.11.13 1.09 1.181.863.985M88.23 249.314c.734.879.458.366.78.875l-.811-.847zm62.568 48.304c.439.193.925.43 1.213.484q-.447-.201-.892-.407zm-12.616-5.504c.091.065.496.232.537.254.075.039.045.047.043.053.496.258.071-.041.443.139.064.032.909.513 1.261.692.541.278 1.079.559 1.282.662.341.173 1 .453 1.563.732.233.115.296.191.531.307 1.501.748 4.512 2.103 5.866 2.715.334.154.637.341.816.414l.444.129c.369.341.572.263 1.047.444.302.114.423.218.464.234.266.108.406.139.617.219.236.091.568.247.653.276.053.017-.09-.107.826.249.934.361 1.858.71 2.819 1.052-.252-.302-.576-.272-.968-.406-.105-.037-.028-.043-.12-.074-.256-.09-.762-.244-.971-.331-.226-.094-.122-.134-.421-.219-.015-.004.021.042-.05.021-.706-.217-.907-.352-1.77-.7-.577-.215-4.021-1.664-4.125-1.747-.569-.362 3.035 1.215 3.463 1.381.149.064-.021.031.113.093.057.026.596.177 1.114.377.621.242 1.859.762 2.46.979a104 104 0 0 0 8.531 2.714c2.403.649 4.752 1.277 7.16 1.905.114.03.259.028.638.127 6.893 1.792 14.014 3.615 21.031 5.21 1.531.348 3.063.655 4.6 1.019l.592.042c-.488-.082-1.386-.345-1.461-.362-.029-.007-.22-.016-.522-.085-.429-.098-.602-.165-.636-.172-.106-.024-.043.02-.144-.003-.761-.171-1.354-.297-2.054-.457-.809-.185-1.168-.324-1.77-.403l-.183-.115c-.436.004-3.01-.615-4.034-.869-.325-.08-.259-.107-.369-.133-.069-.017-.058.042-.913-.177-.422-.108-.526-.173-.741-.225-.118-.028-.108.015-.277-.027-.994-.243-1.753-.443-2.72-.69-.263-.068-.258-.1-.318-.114-.218-.053-.611-.095-1.179-.237-.916-.229-2.766-.697-3.501-.912-.11-.032-.192-.093-.274-.113-.124-.031-.183-.004-.205-.009-.417-.106-.157-.079-.439-.141-.156-.035-.315-.028-.659-.111-.454-.109-.352-.14-.544-.183-.02-.004-.035.031-.224-.016-.724-.181-1.741-.435-2.417-.611-.194-.05-.333-.113-.606-.184-.534-.139-3.631-.934-3.871-1.013-.027-.009.262.009-.176-.104l-.4-.033-.615-.279c-.032.125-1.265-.181-1.222-.307l-.406-.124c-.309.013-.49-.07-1.062-.167l-.051-.032-.185-.119-.079.037c-.267-.176-.77-.21-.828-.226-.222-.059-.384-.133-.489-.161-.392-.109-1.243-.322-1.692-.477-.021-.007.013-.042-.114-.087-.23-.081-.268-.026-.558-.194l-.204-.006-.19-.091q-.587-.178-1.174-.365c.377.047-.018-.126-.42-.2-.135-.025-.035.056-.08.047-.063-.007-1.794-.634-1.898-.707l-.259-.049-.095-.125-.145-.022c-.434-.209-1.634-.544-1.842-.636-.11-.048.033-.12-.507-.319l-.091.07-.375-.134c-.23-.094-.542-.283-.538-.323l-.241-.023c-.166-.149-1.198-.548-1.628-.681l-.333-.218-.516-.132c-.376-.156.036-.026-.042-.064-.165-.08-1.049-.387-.954-.452l-.348-.158-.214-.004c-.158-.178-.518-.303-1.206-.662l-.205-.022q-.308-.195-.612-.392l-.181.036-.289-.12c-.156-.166-.538-.251-.698-.366-.232-.168-.01-.125.468.092-.011-.069-1.429-.728-1.752-.886l.048.063q.501.233 1.006.463c.212.271-.673-.205-1.092-.392-.038-.017-.278-.071-.69-.284-.16-.082-.747-.472-.864-.537-.944-.524-.292-.056-1.184-.633.159.173-.35-.164-.917-.443-.097-.047-.935-.413-.99-.441-.345-.17.058-.038-.442-.281l-.203-.045-.344-.182c-.615-.516-.833-.495-1.087-.613-.102-.048.046-.017-.216-.147-.099-.05-.223-.075-.485-.214-.821-.434-1.024-.719-1.851-.985l-.312-.249-.273-.053c-.555-.395-.38-.205-.594-.323-.565-.31-1.717-.955-1.787-1.069-.562-.132-1.066-.602-1.261-.701l-.371-.137-.379-.268q-.001.03-.029.033c-.122.017-.597-.375-.655-.411-.083-.046-1.14-.608-1.531-.853-.374-.229-1.03-.695-1.083-.73-.063-.04-.731-.425-1.229-.764-.44-.277-2.941-2.149-2.813-1.984.153.136.376.32.57.472.602.513 4.376 3.101 5.402 3.656.41.244.856.5 1.276.73 1.661.907 3.353 1.833 4.993 2.737.121.067.121.111.226.169.159.087.581.272.738.358.585.32 1.297.711 1.611.88.702.379 1.174.657 1.706.943.166.089 1.034.492 1.606.812l.3.193a58 58 0 0 1-1.47-.712c-.544-.28-.81-.458-1.01-.564-.168-.088-1.037-.511-1.425-.719-.12-.064-.125-.113-.228-.169-.559-.299-1.294-.696-1.797-.923.204.096-1.017-.596-1.081-.631-.111-.06-.25-.092-.476-.215-.434-.237-.341-.277-.922-.502l-.37-.282c-.06.089-1.691-.963-2.237-1.11-.019.006 2.171 1.242 2.352 1.344 1.087.606 2.718 1.465 3.772 2.055.317.178 1.293.777 1.37.816.124.064.031-.028.084-.001 1.098.556.522.332.656.428m-41.773-33.941.774.819-.108-.01-.338-.389-.307-.257zm-.705-.59c-.232-.225-.208-.271-.258-.327-.149-.166-.297-.292-.448-.45.259.101.588.522.706.777m4.64 4.816c-.046-.054-.309-.499-.775-.804l-.79-.964c.456.547 1.17 1.186 1.418 1.441.092.094.083.139.156.214.425.434.898.784.851.918-.374-.427-.799-.733-.86-.805m-2.521-2.632-.144-.262c.243.25.48.493.73.747l-.259-.147zm19.453 18.461-.498-.417c-.003.023.187.182.249.251l-.001-.001c.068.077.019.068.153.195zm81.628 32.984c.365.085 3.62.763 3.354.632-.127-.062-1.257-.263-1.581-.332-.459-.096-1.617-.422-1.773-.3m5.779 1.199c.068-.058-1.958-.469-2.173-.502.041.019.104.054.16.071.275.081 1.581.328 2.013.431M126.8 285.566c-.123-.121-.251-.245-.367-.363l.033.188zm14.294 7.776a160 160 0 0 0 7.533 3.679l-.695-.253c-2.187-1.01-4.48-2.166-6.563-3.207zm-40.344-30.235c.5.503.953.908 1.467 1.497-.562-.485-.776-.814-1.333-1.262l-.001-.001zm11.553 11.055-.547-.36.581.523zm51.267 28.527c.25.045.622.146 1.033.261.818.23 1.749.516 2.149.563.039.004-.298-.122.279-.042-.425-.098-.73-.164-.775-.119l-.366-.155-.647-.128c.037-.047.02-.048-.317-.099l-.299-.109-.139-.051-.206.017-.356-.199c-.505-.102-.22.042-.356.061m-2.514-.751c.107.061 3.463.982 1.972.442a99 99 0 0 1-1.183-.335c.273.272-.752-.206-.837-.238-.413-.146-.962-.276-1.263-.376-.258-.086-.405-.168-.588-.228-.623-.202-1.605-.541-1.763-.518q.72.257 1.475.506c.534.176.979.399 2.018.621.245.087.14.114.169.126m-49.781-28.582c.068-.038-.924-.921-.948-.903-.014.011.302.301.343.346l.001.001c.016.019-.098-.046.044.095zm82.538 36.897c.162.085 4.16.963 4.291.965.033.002-.008-.026.007-.034-.956-.146-2.25-.506-3.146-.714-.252-.058-.181-.012-.196-.014l-.001-.001c-.136-.03-.746-.244-.955-.202m-25.78-6.437-.502-.169-.148.033h.001zm5.819 1.6-.11-.079-1.276-.338.137.007c-.653-.196-.911-.203-1.253-.301h.001c-.036-.01-.072-.055-.208-.092-.31-.083-1.215-.334-1.336-.33-.248.011 1.586.456 1.912.544.15.04.323.116.414.141.103.027.255.025.505.091.074.02.87.276 1.214.357m7.514 1.863c-.123-.068-.416-.105-.509-.135-.024-.007.167.009-.053-.056l-.205.014zm-71.759-35.404c.023.033.55.515.578.533.359.24-.731-.756-.578-.533m-12.873-12.548c.153.304-2.475-2.564-2.737-2.837.056-.031.652.683.377.272.29.372 1.193 1.277 1.39 1.5.12.136.112.206.13.227.067.078.785.733.84.838m-4.915-5.196.732.827-.909-.933zm-.338-.319c-.034.053-.87-.905-1.1-1.13.323.195.687.724 1.1 1.13m14.578 14.929c.395.433.701.473.135.04-.018-.013-.151-.059-.135-.04m57.614 34.243c.056.017.488.157.851.265.252.075.468.136.499.131.171-.022-.171-.114-.48-.204a3 3 0 0 1-.326-.106c-.406-.17.222-.045-.808-.294l.14-.019c-.595-.173-.436.005-.548-.009-.035-.005-.406-.122-.476-.134-.872-.144 1.062.351 1.148.37m-47-24.638c.856.784.512.396 1.431 1.155.049-.011-1.288-1.08-1.431-1.155m36.401 20.965c1.112.429 2.007.829 3.077 1.144-.036-.116-3.355-1.274-3.077-1.144m54.096 14.078c-4.52-1.011-9.768-2.079-14.559-3.186-.523-.121-.566-.176-.76-.216-.127-.027-.114.013-.275-.025-5.948-1.385-11.652-2.768-17.323-4.254-.34-.089-2.082-.619-2.474-.603-.305.011.966.271 1.176.327.157.041.154.082.258.11.111.028.026-.022.155.01.544.139 1.121.3 1.626.427 4.821 1.217 9.545 2.408 14.363 3.559.581.138.452.141.482.148h.001c3.143.749 6.728 1.492 10.063 2.227 2.353.521 4.696 1.013 7.06 1.464zm-45.908-11.227c.249.205.354.111 1.368.459l.27.011a96 96 0 0 1-1.64-.47zm6.846 1.931c.133.208 2.492.707 3.522 1.007.214-.031-1.31-.389-1.677-.495-.193-.055-1.101-.383-1.851-.531zM99.4 262.405l.383.365-.883-.973c.473.498.967 1.014 1.448 1.515l-.349-.203zm1.609 1.594c-.864-.847.089-.024.283.229.113.148-.193-.141-.283-.229m2.221 2.287c-.456-.361-1.271-1.164-.896-.964.389.466.718.724 1.33 1.37l-.328-.224-.001-.001zm-2.664-2.627c-.515-.615 1.103 1.039.555.556a36 36 0 0 1-.555-.556m101.549 48.886c.102-.02-.497-.141-.702-.186-.863-.19-1.984-.409-2.889-.611l.193.082c1.145.248 2.254.481 3.398.715m-6.412-1.418-1.857-.42c-.057-.013-.338-.043-.137.012q.998.207 1.994.408m-38.329-9.988c.453.183-.911-.177-.81-.273q.406.14.81.273m-4.269-1.551q.434.155.866.305l-.014.04a76 76 0 0 1-.852-.345m51.453 13.471c-.302-.107-1.079-.252-1.536-.345.306.104 1.101.24 1.536.345m-40.211-9.713c-.005-.007.051.003.144.025.429.099 1.59.422 1.045.326l-1.049-.309zm3.8 1.059c-.404-.1-.717-.194-.62-.222l.642.176zm-63.432-36.531c.512.489 1.003.956 1.523 1.446l-.086-.023c-.502-.474-.974-.923-1.468-1.395zm100.212 45.384c.464.08.957.163 1.419.239a197 197 0 0 1-1.41-.294l-.01.055zM97.79 261.229c1.457 1.579-.518-.334-.834-.8l-.001-.001c-.029-.041.073.005.028-.065l.413.503.47.381.118.16zm-6.008-6.202c-1.316-1.408.104-.049.714.712-.018.008-.596-.586-.714-.712m3.525 3.664.657.641.056.109-.517-.485zm6.928 7.287c.345.358.879.701-.265-.381l-.028.032c.046.042.185.162.192.17.018.022-.039.032.101.179m-13.179-13.314c-.041-.037-.17.043-.45-.483l-.378-.365-.02-.167c.442.514.539.52.573.555.157.16.02.062.117.168.254.274.845.873.514.661-.12-.077-.314-.332-.356-.369m.832 1.014c-.047-.069.166.095.132.041-.032-.05-.547-.665-.345-.557l.264.295.048.141.307.246c.114.193.384.575-.022.201l.424.434.267.179-.191-.045zm-4.238-4.592.09.016c-.522-.518-1.314-1.364-.784-.958.686.735 1.365 1.459 2.058 2.196l.105.175c-.469-.587-.48-.26-.876-.787-.066-.088.207.089-.296-.382l.007.092zm-4.263-4.726c.827.956-.156-.03-.272-.244l.001.001c-.315-.581.554.495.61.555.077.083.33.197.619.758-.323-.359-.638-.711-.958-1.07m2.756 3.08c-.073-.076-.013-.052-.044-.085l-.001-.001c-.457-.491-1.563-1.672-1.615-1.865.35.376 1.865 2.012 1.917 2.158zm3.286 3.476c.239.345-.402-.336-.55-.537-.027-.038.303.18.55.537m22.42 22.826c.707.597-.167-.249.18-.007l-.394-.342zm34.938 23.102c.19.099.113.024.13.032.127.062.236.145.286.166.929.382.339.068.333.058-.005-.039.25.039-.063-.153l-.614-.256-.272-.194c-.413-.156.099.106.135.182.014.029-.37-.129.065.165m-33.789-21.908c.149.056.468.242.243-.04h-.001c-.041-.052-.237-.236-.288-.303-.491-.339-.377-.125.046.343m30.186 20.23q-.468-.263-.932-.527l.064-.085.496.288.2.048-.575-.433q-.39-.177-.779-.357l.323.232c-.628-.305-.453-.31-.948-.607l-.57-.19-.71-.489c-.431-.211-.48-.209-.212-.024-.231-.075-.43-.257-.691-.378-.022-.009-.001.047-.02.038-1.321-.678-1.2-.736-1.406-.852-.146-.082-.767-.337-.788-.321-.026.023 1.131.799-.78-.235.944.616 2.113 1.142 1.448.634.306.181 1.704.896 1.791.946.126.074.058.094.218.181.095.052.401.087 1.111.575l.316.103.251.185-.637-.15c.767.338 1.331.759 1.828.91.386.212.572.32.381.276l.354.182zm-28.108-18.496c.297.333.493.347.446.297-.266-.28-.601-.47-.446-.297m31.021 19.768q-.631-.36-1.26-.726l-.05.1q.654.316 1.31.626m-34.402-22.724-.041-.151c-.456-.279-.744-.745-.958-.903-.046-.034.005.081.078.163.046.053.847.837.921.891m-15.653-15.447.449.387-.09.042-.215-.198zm1.587 1.576.728.762c-.952-.94-.197-.141-.794-.698zm2.434 2.588-.13-.053q-.369-.374-.739-.753l.328.614.27.276zm55.41 38.384c.198.08.916.295.893.263l-.838-.407-.045.103-.101-.1-.507-.156-.211-.19-.289.005c.763.378.764.305.926.37.083.033.128.076.153.098zm-9.781-4.31c.904.455 1.468.615 2.093 1.003-.352-.352-3.153-1.519-4.034-2.139l-.334-.076c.528.242.863.475 1.111.609.199.107.191.07.206.078l.002.001c.466.246.6.344.956.524m-34.639-23.193c.169.216.519.531.566.486l-.541-.574c.028.049-.054.051-.025.088m-10.834-10.465c.13.163.495.505.383.312-.023-.036-.394-.357-.12-.223-.337-.34-.338-.182-.263-.089m30.355 25.483q-.24-.13-.482-.265l-.152.004q.32.135.634.261m-21.225-16.542c-.084-.255-.47-.447-.717-.826l-.352-.337-.001-.001-.082.067c.378.362.766.731 1.152 1.097m30.911 21.855-.267-.197-.543-.224.26.184zm-33.011-23.833c.407.412.64.48.107-.03-.226-.217-.529-.399-.107.03m58.714 34.43-.566-.184-.213.014zm-67.631-43.339h.098l.352.383-.14-.045zm66.351 42.969-.454-.144-.315-.056.417.157zm-61.309-37.855c.136.175.817.724.275.157-.346-.363-.295-.183-.275-.157m-.862-.818c.56.634.3-.008-.53-.59.726.693.499.554.53.59m-5.27-5.158c-.016-.015 0-.055-.116-.178-.42-.442-.956-1.021-1.257-1.338-.727-.763-2.97-3.027-3.138-3.373-.036-.073.138.008.12-.017-.057-.074-.447-.439-.342-.403l1.073 1.139-.344-.203c.912.936.615.625.932.842l.388.545 1.063.977-.279-.19c.474.558.354.391.67.639l-.05.05c.527.466.57.611.674.721.213.223.693.324 1.33 1.374.445.269.244.448.547.564.483.709-.6-.478-1.135-1.04v-.001c-.04-.042.005.042-.137-.108m3.16 3.04c-.453-.284.984 1.185.63.578l-.201-.228-.43-.35m13.848 13.333c1.461 1.217.69.448.165.077-.104-.074-.169-.107-.165-.077m32.7 20.809.095-.003c-.582-.263-1.664-.858-1.692-.763q.796.387 1.597.766m-4.54-2.197c.118.068.609.336.566.272l-.61-.402-.322-.112c.137.078.334.223.366.242m53.715 30.102c.458-1.284 1.358-1.704 2.223-2.429a29.3 29.3 0 0 1 4.853-3.26c.648-.346 1.28-.682 1.873-.982a74 74 0 0 1 4.843-2.258c.084-.035.15-.021.188-.037.361-.15.955-.432 1.32-.568.764-.295 2.111-.777 2.84-.963.308-.082.624-.17.768-.118.113-.028.152-.125.18-.138h.001c.089-.041.343-.053.395-.071.008-.003-.057-.047.076-.065.012-.002.012.04.119.011.027-.008.372-.166.474-.196.339-.104 1.173-.259 1.586-.351.064-.015.094-.046.16-.061.034-.008.091.006.102.004.046-.012.225-.17.2.072.21-.06.132-.122.126-.171l.037-.008.01-.002-.69 2.852c-.118-.104-.152-.241-.263-.192a69 69 0 0 1-2.612-2.235l-.038.042c-.198-.274-.376-.263-.447-.472l-.31-.182c-2.215-2.103-4.408-4.222-6.379-6.518-.083-.097-.073-.147-.21-.308-.154-.182-.394-.395-.59-.634-.173-.208-.394-.539-.576-.775-.041-.054-.092-.076-.096-.082-.028-.036.002-.063-.024-.098-.032-.041-.094-.072-.13-.12-.137-.183-.293-.366-.31-.389-.081-.11-.068-.158-.075-.167-.089-.123-.082-.056-.104-.088-.112-.162-.127-.327-.358-.491l.091-.042c-.108-.174-.096-.014-.134-.037-.015-.01-.272-.37-.291-.399-.067-.099-.034-.128-.04-.136-.013-.021-.233-.235-.292-.381-.07-.173.127-.053.114-.099-.003-.008-.121-.155-.113-.192.007-.041.103.092.111.083.006-.007-.103-.263-.039-.245.059.011.23.337.294.39.01.009.037-.041.045-.033.033.035.541.715.558.748l-.135-.063.1.145-.196-.166c-.079.215.303.396.389.35.039-.022-.009-.274.173-.144l-.031-.098-.166-.125.052.127-.061-.015-.275-.258c-.031-.057.009-.07-.011-.11-.251-.497-.135-.137-.336-.438l-.039-.162c-.061.066-.109-.094-.252-.227l.109.006c-.175-.215-.386-.761-.425-.546l-.079-.181-.155-.088-.12-.188.034-.024.101.146.028-.182-.091-.096c.071.174-.12.012-.199-.005-.105-.117-.101-.24-.128-.285-.013-.021-.281-.19-.101-.174l-.289-.34-.069-.163c.124.069-.011-.278.159-.069.127.155.104.23.156.308.048.071.107.085.161.162.362.516.644.933.977 1.43.066.097.144.172.188.237.049.074-.057.014.019.098.08.088.13.084.149.109.012.015.018.088.052.135.14.19.375.444.394.47.022.031.395.579.411.608.007.016-.125.073.083.099l.09.103-.08.034c.249.148.146.111.312.31.401.481.963 1.211 1.408 1.724.099.113.163.138.282.274.111.128.319.523.362.36.15.357.348.269.375.494l.087.014c.073.205.168.205.321.362.065.067-.071.043.127.121l.059.097-.064.022c.157.149.158.166.199.096l.177.257.082-.023c-.006-.065-1.603-1.759-1.827-2.005-.199-.323-.749-.877-.927-1.121-.073-.099-.062-.177-.169-.322-.107-.144-.29-.292-.35-.365-.202-.239-1.111-1.454-.43-.678l.013-.122c-.324-.268-.186-.183-.381-.459-.082-.115-.334-.351-.22-.411.176.199.311.447.45.627.013.017.225.2.298.321.065.108-.084.114.192.248.02.242.187.26.23.294.074.059.029.107.081.185.057.086.134.113.143.124.088.111.544.665.546.708l-.083-.046c.105.158.133.085.17.118l.07.087-.06-.008c.144.17.073.009.273.252.127.154.218.345.233.357.005.003-.008-.067.047-.009.093.098.245.278.225.33.048.046.081.01.087.016.03.029.467.51.551.601.224.244.453.517.699.778.025.027-.013.03.012.056.041.044.28.234.312.265.082.078.264.302.308.33.006.003-.031-.097.057-.021.097.083.01.071.014.076.162.203.301.294.426.415.04.04.08.143.144.192.008.006.023-.034.031-.028.099.075.126.207.159.248.081.101.071.013.076.018.06.061.126.156.218.247l1.181 1.175c.054.055.093.145.101.153.026.025.05-.013.123.06.158.157.311.303.468.454.031.03.017.073.04.096.075.076.438.273.35.372.246.07.277.238.416.365.32.295.83.726 1.141 1.022.067.063.076.117.112.151.063.061.465.387.482.409.032.042-.087.137.198.21.13.099.076.134.099.158.183.19.453.238.34.306.261.176.437.232.466.408.035-.045.169.022.28.14-.189-.03-.217.027-.528-.255-.005-.004.031-.028.026-.032-.043-.04-.151-.104-.231-.173-.079-.07-.016-.054-.049-.081-.031-.026-.053.007-.094-.027-.131-.108-.259-.203-.338-.27-.051-.043-.079-.113-.115-.145-.138-.118-.468-.37-.64-.527-.037-.034.005-.049-.076-.125-.01-.009-.072-.01-.151-.069-.081-.061-.118-.121-.167-.16-.04-.031-.048.01-.128-.058-.07-.059-.785-.749-.826-.797-.052-.06-.042-.121-.081-.148-.007-.005-.051.021-.074.004-.391-.284-1.111-1.07-1.497-1.454-.812-.806-1.565-1.546-2.356-2.391l-.06-.028.234.257-.049.048c.106.12.132.067.153.042l.09.158c.093-.018.321.303.457.446.091.096.222.188.268.239.098.109.059.141.066.15.013.014.185.13.285.234.148.156.114.23.368.395.235.295.555.585.848.863-.106-.005.204.205.324.322.721.707 1.615 1.574 2.366 2.271.094.088.14.183.199.233.031.026.077.001.115.043.006.007-.018.046.055.119.176.176.709.53.785.708.583.475 1.208.961 1.768 1.393l.382-1.58-.01.002-.34.079-.077-.041c-.141.128-.801.222-1.113.306-.551.143-1.244.362-1.721.506-.104.031-.197.03-.295.06-.042.013-.085.063-.128.076-.493.151-1.168.333-1.659.506-1.112.39-2.149.795-3.24 1.27-2.231.975-4.354 2.105-6.462 3.207-1.407.737-2.767 1.59-4.018 2.616-.043.035-.066.002-.099.029-.197.16-.597.562-.804.762-.166.156-.465.376-.474.477.629-.529 1.259-1.097 1.935-1.586.048-.034.077-.008.083-.012.115-.071.015-.062.17-.181.051-.042.61-.291.482-.349.143-.048.998-.581 1.158-.691.048-.035-.007-.044.002-.052.04-.033.085-.003.125-.025.104-.06.349-.251.4-.28.116-.068.489-.231.639-.322.139-.085.088-.117.209-.187.097-.055.011.039.235-.063l.023-.01c.129-.065.447-.261.533-.305.091-.047.205-.071.328-.137.178-.096.56-.312.739-.415.01-.006.018-.056.046-.069.056-.027.062.026.106.009.045-.017.773-.395.898-.457.086-.043.132-.099.18-.123.038-.019.06.017.098-.002.012-.006.096-.088.197-.138.095-.047.471-.194.513-.214.028-.014-.015-.025.066-.064.074-.036.139-.025.181-.045.098-.046.192-.129.296-.179.297-.144.303-.093.322-.1.051-.02.052-.069.068-.078.067-.036.233-.123.294-.153.076-.038.126-.016.208-.054.06-.028.166-.122.305-.188.312-.149.684-.325.997-.459.093-.04.122-.012.151-.023.152-.06.219-.135.262-.153.307-.128.879-.291 1.169-.399.116-.045.617-.273.911-.375.033-.012.013.027.048.009.084-.043.055-.097.101-.111.022-.007.083.007.148-.013.335-.103.553-.207.704-.257a46 46 0 0 1 4.356-1.202c.157-.036.34-.114.583-.131l.033.051.013-.06q.09-.022.162-.043l.009-.002-.288 1.191c-.106-.074-.208-.142-.358-.284-.016-.016-.017-.127-.121-.073-.171-.236-.093-.074-.26-.199-.17-.128-.3-.264-.452-.396-.062-.101.353.126.371.14.037.031.034.097.074.132.108.098.23.142.222.197.172.074-.02-.048.029-.067.078.086.166.18.237.261.08-.039.224.097.328.203l.241-.997-.01.001c-.151.016-.279.03-.247.078l-.166-.035c-.187.191-.343.121-.646.147l.076.04c-.004.009-.256.1-.181 0-.243.166-.273-.006-.479.175-.138.052-.071-.041-.324.025-.149.039-.325.126-.491.173-.038.011-.066-.025-.1-.016s-.04.054-.081.067c-.083.025-.203.028-.256.046-.047.016-.105.071-.218.109-.394.136-.289.052-.357.053-.073.002-.102.083-.239.116-.013.003.009-.048-.034-.033-.036.012-.04.062-.155.107-.047.016-.767.258-.875.297-.169.057-.555.148-.728.21-.067.024-.125.085-.196.11-.235.083-.61.219-.904.331-.266.1-.761.209-.876.337-.365.161-.478.14-.507.151-.076.03-.094.083-.187.125-1.213.54-2.796 1.267-3.909 1.833-.964.487-1.918.987-2.874 1.487-1.638.858-3.214 1.875-4.606 3.142l.021.058c.267-.232.601-.477.875-.688.363-.284.872-.752 1.224-.835-.107.086-.316.174-.275.226q.303-.206.611-.402l-.069-.064c.208-.148.432-.283.648-.42.037-.024-.004-.032.029-.052.037-.023.026.017.033.013.094-.057.107-.098.119-.105.03-.016.021.021.11-.024.164-.081.242-.208.265-.083l.153-.088-.009-.108c.38-.063.418-.346.681-.278l.137-.167.135.033.008.003-.019-.085c.322-.143.638-.345.937-.496.21-.105.264-.12.448-.217.408-.215.026.043.394-.078l-.1-.065.152-.12.157.015c.108-.219.275-.172.298-.184.02-.01.046-.122.287-.161-.14-.063.158-.08.178-.089s.244-.152.342-.2c.077-.037.251-.095.364-.152.099-.05.071-.082.078-.086.123-.064.059.003.149-.04.09-.042.145-.107.165-.114.011-.003-.005.047.041.028.124-.049.326-.184.464-.249.049-.023.124-.023.179-.048.084-.039.104-.096.153-.118.017-.007.153.002.283-.07.024-.014.041-.176.223-.043l-.012-.086c.423-.271.642-.121.761-.394.34-.126.145.046.186.041.026-.004.125-.071.137-.075.022-.007.029.018.052.007.419-.188.213-.149.335-.235.291-.202.602-.161.029.031l.016.039c.131-.071.48-.211.392-.097-.07.088-.902.408-.408.28.112-.029.146-.101.367-.088.123-.045.09-.17.274-.191l-.132-.09c.202-.147.508-.188.673-.28.055-.032.19-.313.218-.096.095-.052.577-.195.658-.245.02-.012.007-.129.326-.204l.078.017c-.265.14.243 0 .145.15-.062-.029-.293.024-.337.014-.075-.016.087-.134-.138-.035-.082.222.303-.009.299.175.274-.185.33-.124.399-.145.297-.092.475-.172.76-.247.056-.056-.462.066-.519.103.189-.197-.209-.065-.349.064l-.08-.091c.222-.058.439-.122.643-.224l.055.025-.124.109c.19-.028.047-.095.317-.085l-.018-.127q.351-.095.702-.184c.094-.119.549-.224.499-.095.181-.046-.057-.035.104-.111.07-.033.214-.079.257-.061.014.105-.198.18-.241.268.045.008 1.022-.347.965-.203.083-.007.03-.058.17-.112.392-.153 1.049-.189 1.342-.417-.406.007-.497.125-.791.203-.188.045-1.323.373-1.098.198l-.115.076-.153-.058.354-.116.112.071.021-.078.147-.055-.021.093.237-.049-.092-.092c.366-.107.246-.051.467-.036.154-.032-.122-.036.197-.136.368-.113.149.058.63-.083l.008-.06.334-.019-.059-.059c.226-.042.518-.152.612-.079-.234.006-.197.162-.133.178.032.007.157-.012.335-.046l.01-.002-.034.139c-.43-.355-1.314-1.027-1.524-1.202-.341-.278-.572-.541-.934-.75.172.237.943.817 1.069.977.011.014-.085.125.109.071.28.267.66.513 1.031.815l-.112.072c-.173-.252-.509-.27-.376-.373l-.139-.112-.053.066-.202-.164.054-.066-.174-.141-.07.051c-.126-.177-.8-.539-.441-.457l-.24-.201-.039.048-.103-.077.069-.015c-.17-.1-.259-.305-.401-.343l.175.206c-.116-.134-.379-.288-.401-.307-.064-.055-.07-.116-.139-.179-.063-.057-.075-.025-.086-.036-.308-.314-.067-.333-.359-.318l.006-.107-.114-.008-.287-.265.027.165c-.155-.118-.178-.234-.191-.248-.038-.039-.086-.024-.098-.035-.588-.542-.202-.242-.386-.637-.151-.051-.087.097-.117.159-.122-.156-.175-.179-.317-.318-.038-.036-.054-.101-.078-.124-.02-.02-.111-.053-.162-.101-.085-.08-.179-.201-.29-.307-.091-.086-.406-.352-.598-.541-.084-.082-.042-.086-.064-.107-.009-.009-.101-.047-.155-.1-.446-.439-.873-.907-1.302-1.353-.311-.324-.628-.615-.931-.948-.062-.068-.008-.051-.035-.081-.009-.011-.056.01-.139-.109-.03-.043.036-.022.002-.06-.016-.019-.054.002-.16-.099-.192-.185-.247-.331-.264-.348-.033-.031-.05.002-.091-.042a30 30 0 0 1-1.19-1.334c-.056-.087.062-.062-.026-.161l-.114-.049.082.162c-.088-.139-.23-.256-.305-.348-.014-.017-.118-.193-.186-.27l.116.075-.003-.059a6 6 0 0 1-.418-.483c-.047-.059-.008-.058-.056-.118-.277-.351-.299-.189-.395-.668.076.129.431.525.474.589.029.044.015.325.116.143.275.337-.047.114.229.411l.039-.064c.102.099.177.171.199.263.106-.053.362.356.539.551.254.279.556.584.809.861.087.095.101.179.112.191.016.017.089.04.121.075.117.13.433.577.602.598a66 66 0 0 1-2.074-2.366c.044.14-.643-.682-.67-.723-.029-.04.027-.032.019-.044-.056-.096-.158-.134-.18-.162-.017-.021-.03-.079-.09-.152-.011-.014-.035-.001-.047-.015l-.232-.292c-.004-.006.007-.056-.012-.081-.019-.024-.07-.024-.075-.03-.06-.078-.144-.227-.202-.302-.02-.026-.029.01-.051-.019-.069-.09-.001-.095-.098-.197-.033-.034-.065-.005-.116-.08-.035-.053.03-.095.027-.104-.006-.013-.19-.153-.191-.239.2.043-.097-.139-.133-.093l-.121-.233-.088-.046c-.157-.319-.316-.471-.5-.759-.009-.014-.152-.268-.128-.269.129.121.231.26.244.387.206.075.129.135.318.364.063.077.094.062.101.071.242.3.624.778.707 1.043.065.041-.086-.172-.009-.103.039.04.888 1.063.537.799l.09.098c.11-.031.228.155.131.202l.089.008c.04.02.078.052.125.101.177.191 1.146 1.404 1.215 1.455l.061-.044c-.428-.541-.9-1.011-1.312-1.635l-.013.094c-.161-.25-.324-.509-.481-.761.226.221.57.594.749.869.032.049-.02.036-.015.049.014.034.082.027.167.123.085.095.258.367.277.388.038.042.185.117.245.19.079.096-.005.058.01.077.063.082.14.142.191.206.076.097.187.335.321.332l-.159-.207c.333.333.475.697.86.977.163-.005-.103-.279.151-.073l-.121-.128-.086.021-.159-.266.005.112c-.253-.262-.502-.515-.489-.693l-.084.042c-.191-.28-.607-.577-.418-.615l-.051-.019c-.102-.176-.101-.065-.155-.118-.016-.015-.238-.342-.088-.239-.214-.321-.261-.129-.332-.206-.093-.237-.459-.507-.247-.44l-.057-.094c-.151-.033-.139-.194-.191-.32l-.075-.106-.131-.008c-.13-.42-.387-.057-.219-.425l.105.031.151.145a70 70 0 0 1-.49-.684c-.133-.342-.341-.439-.512-.806l-.088-.073c.087-.017.161.105.035-.131.033-.051.144.088.158.181.003.023-.133-.088-.022.067.076.104-.008-.125.202.201l.008-.06.074.102-.012.147c.095.048.179.052.299.233-.052-.035-.056.068.01.153l.056-.043c.171.201.062.17.237.31l-.004.086c.133.048.441.357.301.366.162.025.283.259.273.39l.068-.026.107.11.02.093.101.058-.014.094.174.082.023.117c.039-.029.272.238.309.334l.089.041-.026.077.084.015.053.15c.218.083.146.152.176.187.055.063.303.246.332.285.029.04.013.085.036.117.378.538.285.261.384.349.052.046.057.109.102.154.077.078.472.45.489.475.024.038-.18.079-.048.157.074-.061.212.238.213.038l.237.314c.074-.087.128.081.249.204.168.171.608.532.508.595l.179.073c.245.314.557.583.832.862.832.848 1.742 1.768 2.598 2.589.042.039.01.062.039.09.15.145.592.51.805.71.072.068.083.128.105.15.075.074.089.021.124.053.054.052.323.348.426.444.05.047.136.069.187.129.004.005-.031.028-.028.032.104.096.062.013.099.047.264.245.549.487.832.733.075.065.168.179.227.23.022.02.001-.037.078.029.029.025.014.065.046.094.138.126.25.053.313.236.2.155.551.4.781.576l1.241 1.135-1.573.24-.01.003-.107.024c-.063.014-.098-.003-.157.01-.042.01-.108.062-.173.076-.064.015-.176.004-.301.035-.133.031-.291.09-.321.097-.035.008-.063-.03-.099-.021-.109.027-.387.14-.526.18-.149.043-.244.045-.295.059-.047.013-.092.063-.113.069-.033.009-.053-.03-.095-.019-.07.02-.135.065-.239.094a51 51 0 0 0-5.434 1.852c-.197.08-.294.154-.586.267-.118.046-.087-.016-.174.031-.038.022-.014.049-.064.073-.221.107-.495.196-.592.241-.038.018-.066.074-.144.111-.584.275-1.279.597-1.901.914-.33.168-.821.437-1.199.633-.685.355-1.408.726-2.095 1.081a20.2 20.2 0 0 0-4.712 3.319c.568-.44 1.308-1.075 1.971-1.536a26 26 0 0 1 2.787-1.695c1.225-.645 2.452-1.3 3.668-1.895.774-.38 1.754-.845 2.622-1.199.039-.016.108-.079.193-.113.019-.007.263-.051.338-.082-.11-.061.219-.104.309-.144.113-.05.334-.195.615-.277.254-.073.2-.011.215-.014.092-.019.1-.088.164-.12.261-.135 1.684-.611 2.084-.732.103-.033.118.004.141-.004.061-.019.138-.085.236-.115.176-.056.394-.084.491-.113.234-.071.668-.243.976-.329.086-.024.091.017.13.006.173-.048.609-.212.826-.266.348-.088.715-.148 1.071-.242l.08.038.094-.079q.172-.034.346-.072l.01-.002 1.869-.285-1.474-1.348c-.42-.333-.816-.613-1.208-.939-.047-.039-.314-.305-.35-.336-.037-.03-.102-.026-.153-.078-.074-.073.057-.076-.09-.167-.039-.025-.031.03-.106-.018-.018-.009-.48-.385-.494-.401-.035-.036-.018-.125-.027-.135-.046-.052-.084-.005-.122-.031-.114-.077-.23-.232-.244-.243-.203-.163-.618-.469-.807-.679-.027-.029.007-.059.003-.065-.027-.037-.082-.018-.115-.046-.174-.15-.406-.41-.573-.578-.02-.02-.075-.038-.107-.071-.182-.189-.093-.16-.103-.172-.023-.027-.098-.038-.17-.102-.19-.169-.515-.489-.706-.68-.143-.143-.103-.173-.112-.183-.018-.021-.1-.045-.195-.132-.183-.168-.136-.177-.21-.248-.007-.006-.023.032-.107-.047-.164-.152-.479-.523-.649-.694-.065-.067-.104-.054-.169-.119-.102-.103-.303-.37-.322-.389-.005-.006-.047.012-.077-.02-.033-.034-.05-.083-.075-.109-.14-.146-.428-.345-.252-.379l-.214-.064c-.288-.319-.568-.602-.858-.912-.065-.069-.096-.147-.149-.204s-.32-.286-.36-.33a28 28 0 0 1-.509-.58c-.089-.112-.132-.26-.179-.296-.038-.03-.037.026-.103-.036-.115-.109-.25-.339-.28-.374-.013-.015-.01.031-.133-.112-.066-.078-.077-.14-.101-.168-.008-.009-.035.036-.159-.125-.085-.111-.094-.182-.103-.193-.014-.018-.08-.034-.134-.102-.126-.161-.326-.484-.446-.641-.023-.03-.053.011-.144-.112-.065-.087-.022-.096-.046-.128-.037-.052-.133-.097-.219-.21-.111-.14-.869-1.224-.897-1.29-.021-.042-.052-.086-.049-.117l.084.012c.063.205.08.091.116.131.053.059.219.299.276.345.021.016.021-.056.12.038.106.101.083.198.202.182.033.236.253.318.133.107-.07-.116-.818-1.188-.964-1.407-.121-.177-.383-.49-.528-.712-.085-.13-.298-.449-.243-.467-.072-.118-.036.034-.058.014-.048-.04-.261-.421-.307-.488-.228-.327-.562-.723-.712-1.09l.068.021c.069.058.259.425.344.423a57 57 0 0 1-.952-1.511c-.047.042-.425-.592-.418-.637l.097-.012c.115.417.224.308.3.588.058.098.082.043.119.086.371.428-.082.06.181.402-.008-.147.199.138.29.265.021.03.256.432.288.48.176.262.503.687.644.966.134.207.252.29.388.466.103.134.046.114.091.179.094.138.213.119.152.294l.242.245-.057.041.124.174.094.01c.105.201.005.158-.024.231l.074.126.19.001q.188.27.379.534l-.031.076.057-.041q.336.437.682.871c.089.055-.249-.43-.275-.468-.142-.205-.564-.709-.498-.761-.143-.088-.404-.472-.427-.632q.185.268.376.538l.054-.066c.072.287.102.316.355.476l-.09.068c.221.077.255.487.389.397l.161.273c.154.165.034-.185.541.537.035.049-.005.065.054.135.018.02.159.102.334.329.028.035.002.06.028.099.059.09.25.213.099.209.248.355.207.156.32.235.076.053.012.082.073.131.075.061.083-.035.301.273l-.092-.088-.002.084c.172.135.111.164.257.174.067.151.153.258.299.415.285.304.227.066.43.528l.202.132c.05.124-.06.085.058.233-.016-.182.216.138.337.125l-.038.063.086.095.042-.037.083.154.127.056.054.234.082.101.034-.087.093.142c-.011-.08.057-.086.176.045.098.107-.083.053.159.254.016.013.093-.004.3.2.25.245.098.156.14.203.009.009.109.064.182.134.042.039.06.098.065.103.026.025.061.005.096.039.089.087.188.216.275.303.04.04.093.061.111.078.027.028.036.088.064.115.101.102.336.172.266.333.199-.013.281.325.336.237.231.286 1.024.878.884.977.249.037.166.103.231.161.073.066.055.011.111.065.131.127.242.248.376.374l-.111-.008c.136.137.125.052.274.176.273.225.134.156.131.236.027-.055.332.236.359.27.016.021-.117.003.089.156l.016-.08c.063.1.325.28.362.323.017.019-.009.249.179.215l-.014.081c.113.062.242.137.36.203l-.034.137.095.083.01-.139c.177.175.475.351.429.477.058.019.11.033.172.054l.005.169c.211.163.219.134.393.22l-.08.061c.139.056.335.162.496.286.074.056.154.179.18.195.022.013.298.007.217.139.292.147.357.286.459.366.056.043.098.053.145.076l2.9 2.651-3.677.562-.01.004a.4.4 0 0 1-.056.02c-.128.032-.26.043-.333.062-.041.011-.041.047-.07.055-.135.036-.064-.018-.208.017-.013.004-.11.071-.229.093-.067.012-.25.005-.265.009-.068.017.009.099-.247.045l.033.05c-.269.115-.337.047-.395.056-.007.001-.068.05-.11.057-.072.01-.111-.025-.126-.023-.055.007-.235.075-.364.066.057.114-.345.272-.477.162l-.196.145-.119-.039-.041.085-.364-.051.025.154-.095.011-.106-.096-.105.057-.001.094c-.188.095-.174-.207-.477.153l-.198-.008c-.031.13-.178.107-.274.153-.067.033-.048.074-.144.109-.096.034-.107-.008-.115-.005-.079.025-.125.081-.185.095-.009.002-.048-.039-.122-.016s-.1.091-.212.121c-.058.015-.089-.019-.139-.005-.243.07-.4.364-.669.19-.029.046-.273.266-.398.309-.194.067-.14-.01-.219.012-.011.004-.062.043-.224.106-.028.011-.011.035-.015.037-.186.076-.555.208-.759.292-.019.008-.082.122-.286.095-.206.177-.726.224-.99.479-.042.022-.107.021-.126.031-.162.086-.064.135-.493.198.05.025-.021.103-.146.159-.188.085-.092-.053-.238.025l.03.063c-.372.111-.396.234-.74.405-.124.061-.331.106-.361.121-.011.006-.121.124-.134.131-.072.038-.125.036-.189.067-.208.105-.424.297-.439.155l-.134.163c-.281-.016-.355.242-.463.142l-.077.136q-.777.386-1.561.778c-.391.195-.78.402-1.157.617-.011.057-.381.263-.402.269-.101.026-.063-.112-.224.015l.012.144c-.206.148-.127.047-.226.078-.032.027-.003.047-.049.08-.25.179-.759.541-1.016.745-.052.041-.063.01-.079.023-.045.035-.109.134-.196.205a17 17 0 0 0-1.717 1.577c-.031.034-.063.014-.084.037-.029.031-.066.123-.096.155-.028.031-.066.035-.097.068-.138.152-.259.398-.445.531-.016.01-.262.121-.273.122-.065-.003-.034-.23-.282.019.096-.298-.067-.293-.325.031q.127-.28.279-.554l-.038-.026c-.168.117-.292.266-.439.516l-.024-.045c.062-.26.219-.534.253-.755a9 9 0 0 0-.65.653l-.008-.056c.043-.142.192-.425.235-.541.165-.45-.284.305-.259.152q.388-.64.868-1.219c-.055-.072-1.25 1.458-1.33 1.407q.103-.221.218-.436a7 7 0 0 0-.204.133l.001-.07q.176-.38.383-.748c-.462.715-.642 1.061-.992 1.122l.013-.074c.236-.095.629-.884.887-1.282-.1.047-.301.413-.373.472-.021.016-.004-.077-.051-.038-.127.098-.506.639-.508.53-.015-.079.505-1.016.642-1.173-.34.355-.628.774-.934 1.181.048-.332.066-.658.388-1.149.043-.193-.695.829-.725.854a12 12 0 0 1 .243-.627q-.137.246-.261.5l-.032-.016c.19-.453.347-.888.681-1.332-.061-.023-.252.252-.342.388m9.771-26.275c.037-.036.123.108.176.188v-.051c.105.174.303.497.393.451.092.112-.016.109.003.153.007.017.155.142.192.301l.063.088.092-.04-.01.192a54 54 0 0 1-.909-1.281zm3.128 4.181c.105.16.266.403.298.301l-.237-.27zm6.611 14.613c-.177-.038-.293.078-.529.137l.018.053c.081-.074.34-.124.511-.19m-12.484-22.663-.032-.102c.156.077.106.132.193.27.005.008.024-.006.025-.003.021.034.015.08.032.111.035.06.086.095.145.202.046.083.008.105.025.134.015.024.258.207.303.388.083.348-.653-.9-.691-1m-.405-.935.048.09c-.107-.059-.002.119.07.252-.06.026-.185-.27-.267-.389zm2.02 3.789c-.076-.109.004-.134.027-.142l.068.107zm-.551-.838c.069.007.239.24.315.355.003.005-.042-.011.011.07.016.025.261.209.122.222-.15-.214-.301-.432-.447-.646zm-.122-.266.128.113-.023.112-.112-.149zm-1.206 26.27.075.051c.048-.011.183-.234.109-.216zm-.846.488-.141.048-.053.21c.211-.114.441-.225.329-.316l.136-.093c-.006.074.009.085.148.036-.018-.083.128-.131.262-.237q-.16.094-.318.19l-.023-.035c.233-.147-.104-.033-.22.115l-.067-.022zm15.983-10.545.052.098c.224-.052-.099-.094-.159-.334-.019.128-.257-.079-.27-.08q.001.073.007.151.19.088.37.165m.698.736c-.037-.147.439.229.589.374.04.038.063.121.108.148q.047.002.09.001c-.004.015.01.035.032.057l1.766 1.615-2.239.342-.011.001c-.127.019-.369.122-.478.173l-.058-.059-.16.065.005-.073-.106.111c-.156.068-.085-.079-.198-.012-.125.075.114.096.121.145.106-.038.355-.124.465-.149.065-.015.009.087.267-.073l.174.026.012.002 2.561-.392-2.02-1.846-.007-.012-.355-.14q.002-.062.009-.118c0-.007-.264-.123-.268-.095-.035-.108-.217-.268-.388-.412l-.087-.002c.202.115.045.061.076.13.02.041.077.137.1.193m-14.545 8.491c-.288.247-.119.079-.468.274l.135.069c.132-.163.442-.272.333-.343m-3.15 2.24c.144-.149.021-.136.214-.315h.001q-.165.12-.327.243zm11.057-5.949c.199-.06.15-.076.348-.084.231-.176.015-.079-.012-.146l-.155.13c-.169-.005-.045-.092-.047-.098l-.001.001c-.008-.021-.005-.027-.065-.017zm.793-.406c-.049.07-.057.138.128.101-.024-.106.175-.088.248-.123l.048-.055zm2.928-1.093c.034.113-.113.168.129.211l.121-.042.059-.098c.58.058.636-.339-.207.045l-.001.001zm-.912.292.037.183c-.16-.105-.262.078-.518.052l-.043.074c-.097-.013-.915.263-.706.291.09.011.239-.101.254-.105.05-.013.132.015.213-.016.047-.018.127-.112.225-.145.22-.074.669-.044.909-.286l.079.035c.212-.078.123-.112.343-.105.053-.326-.799.262-.674-.027zm-5.742 2.403c-.035-.042-.238.146-.237.004l-.176.232.017.031.22-.136.025.05c.086-.117.58-.317.593-.249l.042-.112c.263-.038.428-.203.71-.248l.03-.09.061.034.279-.115c.269-.201-.353-.034-.419.009-.009.005.012.049-.043.082-.099.058-.7.281-.866.395l-.045-.085zm7.856-2.899.066.084c.229-.094.388-.104.3-.193h-.001zm-8.974-14.142c-.048.045.006.154.137.245l.031-.053c-.092-.028-.078-.165-.239-.352l-.078.06zm8.764 14.183c-.084-.017-.256.151-.121.12.104-.024.165-.11.121-.12m-16.419 8.089.131-.09.006-.118zm11.054-6.152q.258-.116.52-.228l-.015-.053c-.151.133-.249.096-.291.109-.137.041-.266.084-.399.117zm-.644.152c.081.105.125.101.357-.096l-.051-.03c-.135.068-.204.131-.207.059zm2.773-1.065c-.047-.026-.293.108-.272.122.008.005.363-.07.272-.122m-6.826-16.884.09.171-.184-.182zm-.56-.469c-.013-.047.167.009.033-.234q.175.245.354.485l-.209-.196-.053.098zm-.055-.225c-.011.138-.339-.321-.36-.371-.004-.011.019-.095.019-.12l.146.211.002-.106.189.233-.125-.069zm1.358 1.822-.124-.174-.052.093.077.102zm-.902-1.146c.188-.008.076.423-.015.08-.009-.034-.003-.079.015-.08m-.921-1.233c-.22-.12.018-.221.075-.005.003.011-.058.014-.075.005m-.925-1.392c-.009-.016.043-.086-.115-.189l-.022-.087c.067.036.393.502.283.48-.049-.073-.1-.127-.146-.204m.046.63.147.212.018-.114.087.094.009.254-.326-.456zm1.238 1.923c-.07-.153-.218-.303-.365-.524-.007-.011.008-.051-.015-.087-.021-.029-.463-.607-.381-.595.202.203.194.335.342.315l-.046.082c.113.249.237.256.352.359l-.053.035.171.253.009-.059.063.087c-.001.108.052.207-.077.134m-1.422-2.269c-.18.019-.5-.69-.714-.976.18.108.275.387.383.559.207.33.113.071.17.112.028.021.06.262.161.305m1.797 2.742c-.104-.165-.197-.232-.248-.403l.053.014c.025.054.273.453.195.389m-2.743-4.182c.144.351.173.117.181.34q-.11-.158-.217-.318zm12.579 19.19c-.155.039-.333.06-.406.145l.317-.062zm1.235-2.265c.02.035.158.093.169.102.021.018.002.029-.001.034.143.112.052-.047.171.032.026.019.241.235.356.324.151.117.321.258.37.296.083.064.225.14.351.223l.098.09-.125.019-.01.003a2 2 0 0 1-.145.04c-.085.019-.123-.013-.207.007-.545.122-1.596.437-2.078.545-.12.026-.244.008-.306.029l-.132.096c-.198-.12-.206.039-.364.102-.1.04-.162.006-.176.01-.092.028-.13.065-.2.09-.078.029-.202.043-.229.056-.017.008.058.054-.253.15-.318.1-.631.196-.952.303.172.154.218-.008.348-.059.034-.013.022.024.052.013.085-.033.24-.117.314-.133.08-.017.076.062.167.005.004-.003-.021-.027.001-.04.216-.121.309-.095.603-.183.195-.063 1.378-.426 1.428-.415.239.045-1.016.389-1.164.43-.052.012-.008-.036-.056-.029-.021.004-.179.118-.353.177-.21.071-.647.165-.846.233a50 50 0 0 0-5.038 1.991c-.035.016-.065.072-.179.126a140 140 0 0 0-4.96 2.467q-.732.377-1.43.806c-.44.27-.849.579-1.289.855q-.055.09-.108.181c.12-.115.403-.234.427-.249.008-.005.041-.066.125-.121.119-.077.186-.088.196-.094.029-.02-.006-.031.022-.05.216-.139.379-.251.58-.375.226-.138.37-.159.508-.308l.092.028c.059-.128.555-.416.916-.598l.24-.121c.1-.05.101-.004.135-.022.021-.011-.013-.054.252-.179.134-.063.186-.046.25-.081.036-.019.012-.05.063-.077.297-.152.544-.266.837-.407.082-.041.098-.012.116-.022.067-.036.159-.144.329-.231.283-.143.843-.425 1.087-.516.035-.013.081.008.105-.005.037-.019.034-.063.041-.067.126-.063.067.009.147-.041.044-.027.071-.092.175-.149.137-.075.134-.012.19-.045.006-.004-.009-.039.048-.069.217-.11.531-.27.739-.368.06-.028.115-.026.199-.065.167-.08 1.12-.53 1.206-.55.009-.002-.054.087.082.026l.091-.117.244.017c-.054-.118.331-.305.378-.18l.135-.04c.054-.121.127-.115.28-.236l.113.044-.001-.06c.131.056.245-.099.264-.107.07-.031.133-.028.166-.042.123-.052.383-.191.535-.231.007-.002.015.042.059.031.078-.02.063-.082.19-.05l.042-.075.074.003q.188-.078.377-.153c-.091.111.057.101.163.002.036-.034-.017-.063-.005-.074.016-.017.599-.194.646-.179l.069-.068.068.067.036-.043c.164-.003.522-.238.595-.251.04-.007.041.118.22.05l-.011-.101.122-.052c.079-.021.209-.001.224.036l.054-.09c.088.053.43-.075.56-.161l.144.031.144-.127c.127-.044.003.039.032.035.059-.009.338-.165.344-.065l.122-.031.041-.098c.094.076.207.011.464-.017l.046-.08.253.035.022-.119.098-.039c.087.064.188-.052.258-.033.103.027.045.101-.12.151.025.056.524-.087.637-.116l-.031-.029-.35.107c-.133-.124.201-.159.343-.21.013-.005.077-.078.229-.105a1 1 0 0 1 .151.005h.011l.813-.124-.641-.586a1 1 0 0 0-.11-.154c-.252-.25-.125.004-.332-.295.007.108-.106-.067-.281-.189-.039-.027-.299-.155-.321-.171-.108-.074.044-.041-.11-.144l-.085.003-.098-.081c-.101-.299-.22-.239-.3-.286-.033-.019.032-.021-.048-.076-.03-.021-.084-.02-.164-.083-.237-.191-.216-.375-.537-.44l-.051-.136-.12.007c-.116-.209-.11-.093-.171-.148-.163-.145-.473-.441-.461-.52-.242-.01-.284-.281-.343-.326l-.135-.047-.077-.146c-.086.126-.174-.155-.191-.174-.018-.02-.35-.265-.459-.368-.106-.1-.269-.31-.286-.326-.018-.017-.239-.17-.378-.303-.125-.118-.826-.885-.826-.792.036.061.093.14.146.204.161.202 1.239 1.279 1.522 1.549.557.543 1.164 1.081 1.75 1.605.034.031.012.063.043.091.047.042.19.113.234.152.161.141.37.326.458.4.189.161.336.312.475.431.058.05.316.198.486.36l.068.098a8 8 0 0 1-.45-.3c-.169-.131-.221-.215-.281-.264-.049-.039-.321-.218-.431-.31-.035-.029-.016-.066-.046-.091-.172-.144-.367-.308-.541-.405.061.036-.265-.279-.286-.297-.032-.028-.092-.029-.158-.087-.128-.112-.053-.153-.26-.228l-.068-.154c-.077.075-.452-.455-.678-.487-.01.012.577.596.632.646.292.276.783.667 1.074.938.081.076.344.382.361.394.036.028.029-.027.044-.015.335.242.13.168.158.22m-11.754-13.529.204.311-.073.019-.076-.155-.11-.083zm-.253-.192c-.071-.081-.033-.113-.045-.135-.036-.064-.088-.106-.128-.165.143.002.198.176.173.3m1.26 1.817c-.01-.022-.005-.226-.209-.304l-.155-.399c.092.223.333.447.399.539.025.035-.001.065.019.093.117.161.303.261.213.355-.083-.172-.254-.255-.267-.284m-.676-.997.009-.124.202.279-.121-.028zm5.601 6.879-.145-.154c-.011.016.044.075.055.105.012.034-.016.041.017.092zm-10.47 14.98c-.102.062-.959.741-.837.741.058-.003.327-.261.415-.328.116-.091.482-.268.422-.413m-1.503 1.215c.032.062.546-.38.592-.429-.018.001-.049-.002-.066.006-.088.04-.407.336-.526.423m14.664-13.227-.048-.194-.064.133zm4.107 3.503.543.435.356.327-.452.069-.01.002q-1.019.213-2.024.472l.222-.118c.583-.143 1.2-.274 1.791-.406l.01-.002.346-.053-.273-.249a15 15 0 0 0-.457-.348zm-11.735-12.019c.141.189.292.329.406.566-.192-.162-.202-.31-.41-.454v-.001zm3.363 4.107-.217-.096.173.194zm1.692 10.715c-.205.157-.843.282-.996.442-.009.011.115-.003-.036.138.129-.071.219-.125.208-.18l.142.001.184-.123c.014.054.018.049.106-.029l.156-.019.034-.089.158.042c.145-.097.025-.117.044-.183m.817-.304c-.043-.001-1.103.46-.575.369l.377-.158c-.171-.129.234-.111.264-.117.143-.035.301-.14.401-.174.086-.03.148-.018.209-.04.202-.077.529-.191.548-.277q-.24.08-.489.171c-.175.065-.354.054-.648.268-.085.021-.076-.043-.087-.042m-2.865-10.676c.063-.042-.244-.365-.267-.347-.014.01.081.119.09.139v.001c.004.008-.047-.006-.008.051zm-7.211 15.598c-.078-.014-1.207.746-1.22.794-.006.011.017.018.02.029.223-.233.637-.425.893-.58.071-.044.034-.056.038-.059v-.001c.041-.026.26-.076.269-.183m7.877-3.971.173-.037.013-.082h-.001zm-1.855.765.059.026.399-.18-.028.044c.209-.071.268-.162.378-.204.011-.004.04.021.083.002.099-.043.385-.159.404-.205.042-.1-.509.189-.615.235-.049.021-.118.02-.148.033-.031.015-.057.071-.135.106-.023.01-.292.085-.397.143m-2.285 1.185c.057.013.124-.062.158-.072.008-.002-.035.054.038.028l.03-.087zm2.961-14.112c.002.015.158.191.169.196.143.062-.181-.301-.169-.196m-3.752-4.653c-.02.146-.681-.968-.753-1.072.055-.03.177.26.156.079.048.154.31.489.356.577.027.054-.008.098-.004.106.016.033.251.259.245.31m-1.309-1.985.173.327-.257-.353zm-.108-.115c-.049.035-.236-.34-.306-.425.152.05.181.273.306.425m4.037 5.649c.093.175.286.122.076-.008-.007-.004-.079.001-.076.008m3.542 12.402c-.031.011-.433.111-.444.148-.033.115.201-.023.298-.023.155-.002-.025.122.291-.042l-.02.068c.195-.071.084-.166.112-.196.009-.009.133-.046.152-.062.234-.204-.361.096-.389.107m-.399-8.821c.221.313.169.142.438.429.04-.017-.382-.421-.438-.429m3.95 7.646c-.375.131-.704.179-1.031.364.055.095 1.137-.37 1.031-.364m-16.468 8.565c1.217-1 2.608-2.11 4.033-2.948.154-.091.192-.061.245-.097.036-.024.011-.051.06-.079q.456-.261.914-.503c1.472-.777 2.893-1.547 4.36-2.231.112-.053.684-.239.752-.397.051-.12-.31.124-.375.154-.049.022-.069-.014-.101.002-.035.016.006.028-.034.047-.169.082-.358.161-.51.237-1.401.702-2.753 1.4-4.133 2.109l-.255.133c-.177.093-.157.046-.166.05v.001c-.955.509-1.966 1.223-2.893 1.896-.656.471-1.284.987-1.866 1.558zm13.749-7.591c-.138-.08-.114.044-.466.127l-.058.092q.261-.111.524-.219m-2.206.856c-.123-.13-.809.305-1.148.429-.025.104.435-.15.552-.192.058-.022.395-.078.606-.223zm-4.189-15.364.117.131q-.11-.191-.217-.385.194.293.389.581l-.162-.041zm.469.592c-.259-.319.074-.034.104.072.017.064-.078-.04-.104-.072m.604.875c-.167-.112-.405-.411-.225-.379.081.197.198.27.36.526l-.137-.059v-.001zm-.776-.98c-.107-.255.345.377.16.211a4 4 0 0 1-.16-.211m-6.466 20.336c.001.051.161-.083.217-.124.241-.181.537-.428.794-.607l-.08.01q-.476.345-.931.721m1.815-1.283q.27-.177.544-.344c.017-.011.079-.089.015-.06q-.282.197-.559.404m11.926-5.713c-.161.032.245-.228.265-.105zm1.429-.515-.284.124-.013-.04zm-15.827 8.051c.113-.04.303-.221.428-.327-.113.042-.301.236-.428.327m12.094-6.72c.024.025-.578.266-.393.127zm-1.232.47c.124-.063.228-.095.222-.036l-.205.082zm-2.586-13.017q.225.267.455.535l-.049.007-.439-.516zm-8.462 19.267q-.171.18-.336.367.186-.167.375-.327l-.038-.04zm6.361-21.703c.371.618-.227-.08-.257-.291h-.001c-.003-.018.051-.014.049-.046l.082.21.173.12.016.069zm-1.678-2.36c-.35-.551.1-.047.21.265-.017.008-.177-.214-.21-.265m.975 1.399.2.235-.006.053-.166-.174zm1.862 2.822c.091.137.324.221-.028-.173l-.033.026c.014.016.063.056.064.059.003.01-.041.03-.003.088m-3.802-5.04c-.014-.013-.146.058-.118-.189l-.117-.136.059-.09c.098.207.168.193.177.206.046.061-.013.031.012.073.066.107.237.336.086.279-.054-.021-.085-.13-.099-.143m.166.421c-.005-.03.079.021.079-.003-.001-.021-.11-.275-.008-.252l.064.118-.027.071.117.079c-.003.088.029.255-.106.12l.122.166.117.051-.121.012zm-1.092-1.814.061-.006c-.158-.201-.362-.53-.151-.397q.267.432.541.862l-.001.079c-.084-.244-.242-.059-.297-.282-.01-.038.115.014-.049-.161l-.036.05zm-1.027-1.896c.179.392-.105.007-.092-.09h.001c.035-.265.188.184.202.208.02.033.159.058.114.315zm.651 1.243c-.021-.029.013-.026.005-.039-.119-.196-.407-.666-.354-.761.086.145.477.802.446.871zm.876 1.36c.022.151-.148-.116-.168-.201-.003-.017.145.045.168.201m6.277 8.773c.232.211-.011-.12.124-.05l-.128-.126zm9.054 7.15c-.072.01-.031.035-.037.037-.047.01-.097-.006-.114.001-.318.133-.091.108-.086.114.015.031-.063.089.067.098l.209-.086.121.029c.136-.072-.056-.039-.09-.086-.013-.018.118-.074-.07-.107m-8.77-6.658c.077-.002.214.04.178-.089v-.001c-.007-.023-.062-.095-.069-.126-.191-.097-.201.014-.109.216m8.807 8.489-.253-.255.071-.079c.037.042.094.099.136.145l.081.003c-.033-.078-.077-.164-.114-.246a10 10 0 0 1-.249-.146l.071.129c-.202-.136-.104-.168-.232-.314a6 6 0 0 1-.221-.054c-.053-.086-.101-.168-.156-.256-.136-.093-.165-.084-.102.017-.092-.02-.119-.13-.2-.176-.007-.004-.022.036-.027.032-.402-.301-.314-.367-.371-.42-.039-.037-.258-.13-.277-.115-.024.023.25.429-.313-.051.232.319.616.524.492.247.073.08.515.409.53.426.033.034-.01.063.038.105.028.024.181.003.333.257l.125.029.052.102a9 9 0 0 1-.275-.011c.266.14.375.372.565.403.103.097.163.159.08.154l.103.083c.039-.003.073-.009.113-.009m-8.135-7.869c.059.146.181.104.171.083-.06-.119-.201-.159-.171-.083m8.376 6.039q.25-.01.499-.017l-.023-.11zm-9.425-7.13.033-.09c-.194-.067-.197-.295-.278-.342-.017-.01-.029.052-.014.086.01.022.229.326.259.346m-4.553-5.865.16.132-.084.045-.071-.071zm.474.592.201.295c-.287-.352-.083-.041-.276-.242zm.651 1.011-.071-.002-.211-.288-.025.297.078.107zm9.412 12.104c-.07.021-.292.151-.276.168l.322-.021-.032-.107.059.04.16-.093.114.067.054-.133c-.293.02-.266.081-.324.098-.029.009-.054-.008-.068-.015zm3.5-.97c-.34.067-.504.207-.768.186.168.111.876-.164 1.33-.205l.01-.001-.56 2.316c-.03-.037-.086-.1-.109-.146a2 2 0 0 1-.134.002.7.7 0 0 1 .206.19l.585-2.419h-.01q-.063-.002-.111.003c-.076.01-.062.037-.068.038h-.001c-.178.026-.238.011-.37.036m-9.754-6.972c.026.097.135.215.185.174l-.132-.238c-.001.025-.057.047-.053.064m-3.221-3.943c.026.071.141.195.143.103 0-.016-.132-.128.008-.109-.099-.131-.166-.034-.151.006m9.03 9.809-.135-.116-.084.03zm-6.345-6.422c.046-.145-.138-.168-.152-.35l-.104-.128-.084.064zm9.126 8.918-.051-.105-.189-.082q.03.05.057.101zm-9.758-9.657c.112.16.244.145.086-.047-.066-.081-.202-.122-.086.047m3.921 10.541.196-.049.038-.091zm-6.505-13.939.07-.022.092.152-.082.004zm6.928 13.784.154-.046.088-.071-.153.023zm-5.482-11.827c.023.077.275.256.128.032-.093-.143-.132-.043-.128-.032m-.269-.301c.132.258.217-.076-.13-.24.228.259.123.225.13.24m-1.598-1.932c-.004-.006.024-.034-.008-.082-.115-.172-.256-.402-.338-.525-.199-.294-.859-1.158-.832-1.329.005-.035.098-.023.096-.034-.009-.032-.137-.166-.075-.166l.291.448-.164-.048c.26.359.178.237.315.298l.047.239.354.354-.12-.053c.103.228.088.156.211.234l-.057.041c.181.163.15.24.179.283.059.087.363.04.375.531.207.062-.014.216.156.217.048.322-.23-.155-.378-.373v-.001c-.011-.016-.013.024-.052-.034m.985 1.127c-.202-.068.204.494.207.205l-.048-.092-.159-.114zm4.067 5.071c.469.441.275.125.079.01q-.062-.036-.079-.01m8.374 5.762-.017.049c.207-.063.631-.1.603-.194-.193.046-.392.096-.586.145m-.136 2.091c.038.038.169.16.174.117a5 5 0 0 0-.142-.213c-.044-.015-.077-.02-.117-.031.035.035.075.117.085.127"/></svg>