<svg width="48" height="28" viewBox="0 0 48 28" fill="none" xmlns="http://www.w3.org/2000/svg">
<rect x="0.5" y="0.5" width="47" height="27" rx="7.5" stroke="#EBEBEB"/>
<path d="M15.041 18.5H13.823V10.562H11.807V9.736C12.087 9.71733 12.3437 9.694 12.577 9.666C12.8104 9.62867 13.025 9.568 13.221 9.484C13.417 9.4 13.5944 9.288 13.753 9.148C13.9117 9.008 14.0564 8.826 14.187 8.602H15.041V18.5Z" fill="#EBEBEB"/>
<path fill-rule="evenodd" clip-rule="evenodd" d="M25.6673 13.1667C25.4463 13.1667 25.2343 13.2545 25.0781 13.4108C24.9218 13.5671 24.834 13.7791 24.834 14.0001V19.3334C24.834 19.6096 24.6101 19.8334 24.334 19.8334C24.0578 19.8334 23.834 19.6096 23.834 19.3334V14.0001C23.834 13.5139 24.0271 13.0475 24.371 12.7037C24.7148 12.3599 25.1811 12.1667 25.6673 12.1667H36.334C36.8202 12.1667 37.2865 12.3599 37.6303 12.7037C37.9742 13.0475 38.1673 13.5139 38.1673 14.0001V19.3334C38.1673 19.6096 37.9435 19.8334 37.6673 19.8334C37.3912 19.8334 37.1673 19.6096 37.1673 19.3334V14.0001C37.1673 13.7791 37.0795 13.5671 36.9232 13.4108C36.767 13.2545 36.555 13.1667 36.334 13.1667H25.6673Z" fill="#EBEBEB"/>
<path fill-rule="evenodd" clip-rule="evenodd" d="M27.0007 9.16675C26.7796 9.16675 26.5677 9.25455 26.4114 9.41083C26.2551 9.56711 26.1673 9.77907 26.1673 10.0001V12.6667C26.1673 12.9429 25.9435 13.1667 25.6673 13.1667C25.3912 13.1667 25.1673 12.9429 25.1673 12.6667V10.0001C25.1673 9.51385 25.3605 9.04754 25.7043 8.70372C26.0481 8.3599 26.5144 8.16675 27.0007 8.16675H35.0007C35.4869 8.16675 35.9532 8.3599 36.297 8.70372C36.6408 9.04754 36.834 9.51385 36.834 10.0001V12.6667C36.834 12.9429 36.6101 13.1667 36.334 13.1667C36.0578 13.1667 35.834 12.9429 35.834 12.6667V10.0001C35.834 9.77907 35.7462 9.56711 35.5899 9.41083C35.4336 9.25455 35.2217 9.16675 35.0007 9.16675H27.0007Z" fill="#EBEBEB"/>
<path fill-rule="evenodd" clip-rule="evenodd" d="M31.0007 8.16675C31.2768 8.16675 31.5007 8.39061 31.5007 8.66675V12.6667C31.5007 12.9429 31.2768 13.1667 31.0007 13.1667C30.7245 13.1667 30.5007 12.9429 30.5007 12.6667V8.66675C30.5007 8.39061 30.7245 8.16675 31.0007 8.16675Z" fill="#EBEBEB"/>
<path fill-rule="evenodd" clip-rule="evenodd" d="M23.834 18.0001C23.834 17.7239 24.0578 17.5001 24.334 17.5001H37.6673C37.9435 17.5001 38.1673 17.7239 38.1673 18.0001C38.1673 18.2762 37.9435 18.5001 37.6673 18.5001H24.334C24.0578 18.5001 23.834 18.2762 23.834 18.0001Z" fill="#EBEBEB"/>
</svg>
