<svg width="160" height="28" viewBox="0 0 160 28" fill="none" xmlns="http://www.w3.org/2000/svg">
<rect x="1" y="0.5" width="158" height="27" rx="3.5" stroke="url(#paint0_linear_935_11363)"/>
<path d="M21.3539 9.85261L12.3539 18.8526C12.2601 18.9464 12.1328 18.9991 12.0001 18.9991C11.8675 18.9991 11.7402 18.9464 11.6464 18.8526C11.5526 18.7588 11.4999 18.6315 11.4999 18.4989C11.4999 18.3662 11.5526 18.2389 11.6464 18.1451L20.6464 9.14511C20.7401 9.05129 20.8673 8.99855 20.9999 8.99849C21.1325 8.99843 21.2598 9.05106 21.3536 9.14479C21.4474 9.23853 21.5001 9.3657 21.5002 9.49832C21.5003 9.63095 21.4476 9.75816 21.3539 9.85198V9.85261ZM11.6589 12.3401C11.237 11.9181 10.9999 11.3457 11 10.7489C11.0001 10.1522 11.2372 9.57986 11.6592 9.15792C12.0812 8.73598 12.6536 8.49896 13.2504 8.49902C13.8471 8.49908 14.4195 8.73621 14.8414 9.15823C15.2633 9.58026 15.5004 10.1526 15.5003 10.7494C15.5002 11.3462 15.2631 11.9185 14.8411 12.3404C14.4191 12.7624 13.8467 12.9994 13.2499 12.9993C12.6531 12.9993 12.0808 12.7621 11.6589 12.3401ZM12.0001 10.7501C12.0003 10.9556 12.0511 11.158 12.1482 11.3391C12.2452 11.5203 12.3854 11.6748 12.5563 11.7889C12.7273 11.903 12.9238 11.9731 13.1283 11.9932C13.3329 12.0132 13.5392 11.9825 13.729 11.9037C13.9189 11.825 14.0864 11.7007 14.2167 11.5417C14.347 11.3828 14.4362 11.1942 14.4762 10.9926C14.5162 10.791 14.5059 10.5827 14.4462 10.386C14.3865 10.1893 14.2792 10.0104 14.1339 9.86511C13.959 9.69027 13.7362 9.57124 13.4936 9.52307C13.2511 9.4749 12.9997 9.49976 12.7713 9.5945C12.5428 9.68924 12.3476 9.84961 12.2104 10.0553C12.0731 10.261 12 10.5028 12.0001 10.7501ZM22.0001 17.2501C22 17.7707 21.8194 18.275 21.4891 18.6774C21.1588 19.0797 20.6992 19.355 20.1886 19.4564C19.6781 19.5579 19.1481 19.4792 18.6891 19.2337C18.2301 18.9882 17.8704 18.5912 17.6712 18.1102C17.4721 17.6293 17.446 17.0941 17.5972 16.596C17.7484 16.0979 18.0676 15.6677 18.5005 15.3786C18.9333 15.0894 19.453 14.9593 19.9711 15.0105C20.4891 15.0616 20.9734 15.2907 21.3414 15.6589C21.551 15.8673 21.7171 16.1153 21.8302 16.3885C21.9433 16.6616 22.001 16.9545 22.0001 17.2501ZM21.0001 17.2501C21.0002 16.9609 20.9 16.6806 20.7166 16.457C20.5332 16.2335 20.2779 16.0804 19.9943 16.0239C19.7106 15.9674 19.4162 16.011 19.1611 16.1473C18.906 16.2836 18.7061 16.5041 18.5954 16.7713C18.4847 17.0384 18.47 17.3357 18.5539 17.6125C18.6378 17.8892 18.8151 18.1284 19.0555 18.2891C19.2959 18.4498 19.5847 18.5221 19.8725 18.4938C20.1603 18.4655 20.4294 18.3383 20.6339 18.1339C20.7503 18.0181 20.8427 17.8804 20.9055 17.7287C20.9684 17.577 21.0006 17.4143 21.0001 17.2501Z" fill="#335CFF"/>
<path d="M29.536 14.506H33.876V15.598H29.536V14.506ZM38.4961 19H37.2781V11.062H35.2621V10.236C35.5421 10.2173 35.7988 10.194 36.0321 10.166C36.2654 10.1287 36.4801 10.068 36.6761 9.984C36.8721 9.9 37.0494 9.788 37.2081 9.648C37.3668 9.508 37.5114 9.326 37.6421 9.102H38.4961V19ZM43.218 15.542C43.47 15.3273 43.7454 15.094 44.044 14.842C44.352 14.5807 44.6367 14.3007 44.898 14.002C45.1687 13.7033 45.3974 13.3907 45.584 13.064C45.7707 12.728 45.8687 12.364 45.878 11.972C45.8967 11.3747 45.724 10.9173 45.36 10.6C44.996 10.2733 44.5154 10.11 43.918 10.11C43.442 10.11 43.0267 10.208 42.672 10.404C42.3174 10.6 42.084 10.8847 41.972 11.258H40.67C40.7354 10.8753 40.8707 10.544 41.076 10.264C41.2907 9.97467 41.5474 9.73667 41.846 9.55C42.154 9.36333 42.49 9.22333 42.854 9.13C43.218 9.03667 43.5914 8.99 43.974 8.99C44.4314 8.99 44.8514 9.05533 45.234 9.186C45.6167 9.30733 45.948 9.48933 46.228 9.732C46.508 9.97467 46.7227 10.278 46.872 10.642C47.0307 10.9967 47.11 11.4027 47.11 11.86C47.11 12.3173 47.04 12.728 46.9 13.092C46.7694 13.456 46.5874 13.792 46.354 14.1C46.13 14.408 45.8734 14.6973 45.584 14.968C45.2947 15.2387 44.996 15.5093 44.688 15.78L42.182 17.894H47.222V19H40.418V17.992L43.218 15.542ZM50.7977 13.372C50.4617 13.372 50.1631 13.316 49.9017 13.204C49.6497 13.092 49.4397 12.938 49.2717 12.742C49.1037 12.5367 48.9731 12.3033 48.8797 12.042C48.7957 11.7713 48.7537 11.482 48.7537 11.174C48.7537 10.8567 48.7957 10.5673 48.8797 10.306C48.9731 10.0353 49.1037 9.802 49.2717 9.606C49.4491 9.41 49.6637 9.26067 49.9157 9.158C50.1677 9.046 50.4617 8.99 50.7977 8.99C51.4511 8.99 51.9504 9.19533 52.2957 9.606C52.6411 10.0073 52.8137 10.53 52.8137 11.174C52.8137 11.482 52.7671 11.7713 52.6737 12.042C52.5897 12.3033 52.4637 12.5367 52.2957 12.742C52.1277 12.938 51.9177 13.092 51.6657 13.204C51.4137 13.316 51.1244 13.372 50.7977 13.372ZM49.8737 19L55.9637 9.102H57.1957L51.1197 19H49.8737ZM50.7977 9.984C50.4244 9.984 50.1584 10.1053 49.9997 10.348C49.8411 10.5907 49.7617 10.866 49.7617 11.174C49.7617 11.5007 49.8411 11.7853 49.9997 12.028C50.1584 12.2613 50.4244 12.378 50.7977 12.378C51.1524 12.378 51.4044 12.2567 51.5537 12.014C51.7031 11.7713 51.7777 11.4913 51.7777 11.174C51.7777 10.866 51.7031 10.5907 51.5537 10.348C51.4044 10.1053 51.1524 9.984 50.7977 9.984ZM56.3417 19.084C56.0057 19.084 55.7071 19.028 55.4457 18.916C55.1937 18.804 54.9791 18.65 54.8017 18.454C54.6337 18.2487 54.5031 18.0153 54.4097 17.754C54.3257 17.4833 54.2837 17.194 54.2837 16.886C54.2837 16.5687 54.3257 16.2793 54.4097 16.018C54.5031 15.7473 54.6384 15.514 54.8157 15.318C54.9931 15.122 55.2077 14.9727 55.4597 14.87C55.7117 14.758 56.0057 14.702 56.3417 14.702C56.6591 14.702 56.9437 14.758 57.1957 14.87C57.4477 14.9727 57.6577 15.122 57.8257 15.318C58.0031 15.514 58.1337 15.7473 58.2177 16.018C58.3111 16.2793 58.3577 16.5687 58.3577 16.886C58.3577 17.194 58.3111 17.4833 58.2177 17.754C58.1337 18.0153 58.0031 18.2487 57.8257 18.454C57.6577 18.65 57.4477 18.804 57.1957 18.916C56.9437 19.028 56.6591 19.084 56.3417 19.084ZM56.3277 15.696C55.9544 15.696 55.6884 15.8173 55.5297 16.06C55.3804 16.3027 55.3057 16.578 55.3057 16.886C55.3057 17.2127 55.3851 17.4973 55.5437 17.74C55.7024 17.9733 55.9637 18.09 56.3277 18.09C56.6917 18.09 56.9437 17.9687 57.0837 17.726C57.2331 17.4833 57.3077 17.2033 57.3077 16.886C57.3077 16.578 57.2331 16.3027 57.0837 16.06C56.9437 15.8173 56.6917 15.696 56.3277 15.696ZM65.7531 11.622H68.0211V12.672H65.7531V16.508C65.7531 16.7227 65.7625 16.9233 65.7811 17.11C65.8091 17.2873 65.8558 17.446 65.9211 17.586C65.9958 17.7167 66.0985 17.824 66.2291 17.908C66.3691 17.9827 66.5558 18.0247 66.7891 18.034C67.0038 18.034 67.1905 17.9967 67.3491 17.922C67.5171 17.8473 67.6571 17.7587 67.7691 17.656L68.2871 18.524C68.0445 18.7293 67.7925 18.874 67.5311 18.958C67.2698 19.042 66.9805 19.084 66.6631 19.084C66.2618 19.084 65.9258 19.028 65.6551 18.916C65.3845 18.7947 65.1558 18.622 64.9691 18.398C64.8105 18.1833 64.7031 17.9313 64.6471 17.642C64.5911 17.3527 64.5631 17.026 64.5631 16.662V12.672H63.3591V11.622H64.5631V9.41H65.7531V11.622ZM72.6899 11.538C73.2779 11.538 73.7866 11.6313 74.2159 11.818C74.6452 12.0047 75.0046 12.266 75.2939 12.602C75.5926 12.938 75.8119 13.3393 75.9519 13.806C76.1012 14.2633 76.1759 14.7673 76.1759 15.318C76.1759 15.8687 76.1012 16.3773 75.9519 16.844C75.8119 17.3013 75.5926 17.698 75.2939 18.034C75.0046 18.3607 74.6406 18.6173 74.2019 18.804C73.7632 18.9907 73.2499 19.084 72.6619 19.084C72.0739 19.084 71.5606 18.9907 71.1219 18.804C70.6926 18.6173 70.3286 18.3607 70.0299 18.034C69.7406 17.698 69.5212 17.3013 69.3719 16.844C69.2319 16.3773 69.1619 15.8687 69.1619 15.318C69.1619 14.7673 69.2319 14.2633 69.3719 13.806C69.5212 13.3393 69.7406 12.938 70.0299 12.602C70.3286 12.266 70.7019 12.0047 71.1499 11.818C71.5979 11.6313 72.1112 11.538 72.6899 11.538ZM72.6619 18.034C73.0632 18.034 73.4086 17.964 73.6979 17.824C73.9966 17.684 74.2392 17.4927 74.4259 17.25C74.6219 16.998 74.7619 16.7087 74.8459 16.382C74.9392 16.0553 74.9859 15.7007 74.9859 15.318C74.9859 14.9447 74.9392 14.5947 74.8459 14.268C74.7619 13.932 74.6219 13.6427 74.4259 13.4C74.2392 13.148 73.9966 12.952 73.6979 12.812C73.4086 12.672 73.0632 12.602 72.6619 12.602C72.2606 12.602 71.9152 12.672 71.6259 12.812C71.3366 12.952 71.0939 13.148 70.8979 13.4C70.7112 13.6427 70.5712 13.932 70.4779 14.268C70.3939 14.5947 70.3519 14.9447 70.3519 15.318C70.3519 15.7007 70.3939 16.0553 70.4779 16.382C70.5712 16.7087 70.7112 16.998 70.8979 17.25C71.0939 17.4927 71.3366 17.684 71.6259 17.824C71.9152 17.964 72.2606 18.034 72.6619 18.034ZM83.4035 11.622H85.3775V12.672H83.4035V16.494C83.4035 16.998 83.5015 17.3713 83.6975 17.614C83.8935 17.8473 84.2575 17.964 84.7895 17.964H85.3355V19H84.5375C83.6975 19 83.1002 18.8087 82.7455 18.426C82.3908 18.0433 82.2135 17.4413 82.2135 16.62V12.672H81.0095V11.622H82.2135V9.424H83.4035V11.622ZM86.7232 19V9.102H87.9132V12.756C88.0345 12.5693 88.1885 12.3967 88.3752 12.238C88.5618 12.0793 88.7578 11.9487 88.9632 11.846C89.1685 11.7433 89.3925 11.6687 89.6352 11.622C89.8872 11.566 90.1298 11.538 90.3632 11.538C90.8952 11.538 91.3385 11.6267 91.6932 11.804C92.0572 11.972 92.3465 12.21 92.5612 12.518C92.7852 12.8167 92.9392 13.176 93.0232 13.596C93.1165 14.0067 93.1632 14.4547 93.1632 14.94V19H91.9732V15.304C91.9732 14.968 91.9545 14.6413 91.9172 14.324C91.8798 13.9973 91.7958 13.708 91.6652 13.456C91.5345 13.204 91.3478 12.9987 91.1052 12.84C90.8625 12.672 90.5312 12.588 90.1112 12.588C89.7658 12.588 89.4438 12.6767 89.1452 12.854C88.8558 13.022 88.6225 13.2367 88.4452 13.498C88.2305 13.7873 88.0858 14.1093 88.0112 14.464C87.9458 14.8187 87.9132 15.1827 87.9132 15.556V19H86.7232ZM95.9186 15.752C95.9466 16.0787 96.012 16.382 96.1146 16.662C96.2266 16.9327 96.376 17.1707 96.5626 17.376C96.7493 17.5813 96.978 17.7447 97.2486 17.866C97.5286 17.978 97.8506 18.034 98.2146 18.034C98.392 18.034 98.574 18.02 98.7606 17.992C98.9566 17.9547 99.1386 17.8987 99.3066 17.824C99.4746 17.74 99.624 17.6327 99.7546 17.502C99.8853 17.3713 99.9833 17.2127 100.049 17.026H101.267C101.183 17.3807 101.038 17.6887 100.833 17.95C100.637 18.2113 100.399 18.426 100.119 18.594C99.848 18.762 99.5446 18.888 99.2086 18.972C98.8726 19.0467 98.532 19.084 98.1866 19.084C97.5986 19.084 97.0853 18.9907 96.6466 18.804C96.2173 18.6173 95.858 18.3607 95.5686 18.034C95.2793 17.698 95.0646 17.3013 94.9246 16.844C94.7846 16.3773 94.7146 15.8687 94.7146 15.318C94.7146 14.7673 94.7893 14.2633 94.9386 13.806C95.0973 13.3393 95.3213 12.938 95.6106 12.602C95.9 12.266 96.2546 12.0047 96.6746 11.818C97.0946 11.6313 97.594 11.538 98.1726 11.538C98.7606 11.538 99.2693 11.6547 99.6986 11.888C100.128 12.1213 100.473 12.4293 100.735 12.812C100.996 13.1853 101.178 13.5913 101.281 14.03C101.393 14.4687 101.439 14.8747 101.421 15.248C101.421 15.332 101.416 15.416 101.407 15.5C101.407 15.584 101.402 15.668 101.393 15.752H95.9186ZM100.217 14.716C100.198 14.0907 100.002 13.582 99.6286 13.19C99.2553 12.798 98.756 12.602 98.1306 12.602C97.7853 12.602 97.482 12.658 97.2206 12.77C96.9593 12.882 96.74 13.036 96.5626 13.232C96.3853 13.428 96.2453 13.6567 96.1426 13.918C96.04 14.17 95.9746 14.436 95.9466 14.716H100.217ZM107.997 12.504C108.231 12.1773 108.515 11.9347 108.851 11.776C109.197 11.6173 109.579 11.538 109.999 11.538C110.513 11.5473 110.928 11.6593 111.245 11.874C111.563 12.0887 111.801 12.3733 111.959 12.728C112.211 12.3547 112.519 12.0653 112.883 11.86C113.257 11.6453 113.695 11.538 114.199 11.538C114.601 11.538 114.946 11.608 115.235 11.748C115.525 11.8787 115.758 12.0653 115.935 12.308C116.113 12.5413 116.243 12.8167 116.327 13.134C116.411 13.4513 116.453 13.7967 116.453 14.17V19H115.263V14.772C115.263 14.5293 115.249 14.282 115.221 14.03C115.203 13.7687 115.147 13.5353 115.053 13.33C114.96 13.1153 114.82 12.9427 114.633 12.812C114.447 12.672 114.195 12.602 113.877 12.602C113.569 12.602 113.308 12.6767 113.093 12.826C112.879 12.966 112.706 13.1527 112.575 13.386C112.454 13.6193 112.365 13.876 112.309 14.156C112.253 14.436 112.225 14.7113 112.225 14.982V19H111.035V14.758C111.035 14.5247 111.026 14.282 111.007 14.03C110.989 13.7687 110.933 13.5353 110.839 13.33C110.755 13.1153 110.625 12.9427 110.447 12.812C110.27 12.672 110.023 12.602 109.705 12.602C109.369 12.602 109.089 12.6767 108.865 12.826C108.651 12.9753 108.473 13.1667 108.333 13.4C108.203 13.6333 108.109 13.8947 108.053 14.184C108.007 14.464 107.983 14.7347 107.983 14.996V19H106.793V11.622H107.941L107.997 12.504ZM123.122 18.062C122.964 18.2767 122.782 18.4493 122.576 18.58C122.371 18.7107 122.156 18.8133 121.932 18.888C121.718 18.9627 121.498 19.014 121.274 19.042C121.06 19.07 120.845 19.084 120.63 19.084C120.285 19.084 119.958 19.042 119.65 18.958C119.342 18.874 119.062 18.7387 118.81 18.552C118.568 18.3653 118.372 18.132 118.222 17.852C118.082 17.572 118.012 17.2547 118.012 16.9C118.012 16.48 118.087 16.13 118.236 15.85C118.395 15.5607 118.605 15.3273 118.866 15.15C119.128 14.9727 119.426 14.8513 119.762 14.786C120.108 14.7113 120.472 14.674 120.854 14.674H123.024C123.024 14.0487 122.889 13.554 122.618 13.19C122.348 12.8167 121.89 12.6207 121.246 12.602C120.854 12.602 120.509 12.6673 120.21 12.798C119.912 12.9287 119.706 13.1433 119.594 13.442H118.32C118.386 13.106 118.516 12.8213 118.712 12.588C118.908 12.3453 119.142 12.1493 119.412 12C119.683 11.8413 119.977 11.7247 120.294 11.65C120.612 11.5753 120.929 11.538 121.246 11.538C121.797 11.538 122.259 11.6313 122.632 11.818C123.015 11.9953 123.323 12.2333 123.556 12.532C123.79 12.8213 123.953 13.176 124.046 13.596C124.14 14.016 124.186 14.4873 124.186 15.01V19H123.192L123.122 18.062ZM121.722 15.668C121.498 15.668 121.237 15.6727 120.938 15.682C120.649 15.682 120.369 15.71 120.098 15.766C119.828 15.822 119.608 15.9387 119.44 16.116C119.282 16.2933 119.202 16.5267 119.202 16.816C119.202 17.0307 119.244 17.2127 119.328 17.362C119.412 17.5113 119.524 17.6373 119.664 17.74C119.814 17.8427 119.982 17.9173 120.168 17.964C120.355 18.0107 120.546 18.034 120.742 18.034C121.442 18.034 121.993 17.866 122.394 17.53C122.805 17.1847 123.015 16.6853 123.024 16.032V15.668H121.722ZM126.03 19V11.622H127.178L127.234 12.77C127.504 12.3407 127.85 12.028 128.27 11.832C128.69 11.636 129.166 11.538 129.698 11.538H130.076V12.658H129.642C129.203 12.658 128.83 12.7327 128.522 12.882C128.214 13.022 127.962 13.218 127.766 13.47C127.579 13.7127 127.439 14.002 127.346 14.338C127.262 14.674 127.22 15.0287 127.22 15.402V19H126.03ZM131.252 19V9.102H132.442V14.8H133.73L135.942 11.622H137.286L134.822 15.136L137.496 19H136.096L133.87 15.836H132.442V19H131.252ZM139.45 15.752C139.478 16.0787 139.543 16.382 139.646 16.662C139.758 16.9327 139.907 17.1707 140.094 17.376C140.281 17.5813 140.509 17.7447 140.78 17.866C141.06 17.978 141.382 18.034 141.746 18.034C141.923 18.034 142.105 18.02 142.292 17.992C142.488 17.9547 142.67 17.8987 142.838 17.824C143.006 17.74 143.155 17.6327 143.286 17.502C143.417 17.3713 143.515 17.2127 143.58 17.026H144.798C144.714 17.3807 144.569 17.6887 144.364 17.95C144.168 18.2113 143.93 18.426 143.65 18.594C143.379 18.762 143.076 18.888 142.74 18.972C142.404 19.0467 142.063 19.084 141.718 19.084C141.13 19.084 140.617 18.9907 140.178 18.804C139.749 18.6173 139.389 18.3607 139.1 18.034C138.811 17.698 138.596 17.3013 138.456 16.844C138.316 16.3773 138.246 15.8687 138.246 15.318C138.246 14.7673 138.321 14.2633 138.47 13.806C138.629 13.3393 138.853 12.938 139.142 12.602C139.431 12.266 139.786 12.0047 140.206 11.818C140.626 11.6313 141.125 11.538 141.704 11.538C142.292 11.538 142.801 11.6547 143.23 11.888C143.659 12.1213 144.005 12.4293 144.266 12.812C144.527 13.1853 144.709 13.5913 144.812 14.03C144.924 14.4687 144.971 14.8747 144.952 15.248C144.952 15.332 144.947 15.416 144.938 15.5C144.938 15.584 144.933 15.668 144.924 15.752H139.45ZM143.748 14.716C143.729 14.0907 143.533 13.582 143.16 13.19C142.787 12.798 142.287 12.602 141.662 12.602C141.317 12.602 141.013 12.658 140.752 12.77C140.491 12.882 140.271 13.036 140.094 13.232C139.917 13.428 139.777 13.6567 139.674 13.918C139.571 14.17 139.506 14.436 139.478 14.716H143.748ZM148.413 11.622H150.387V12.672H148.413V16.494C148.413 16.998 148.511 17.3713 148.707 17.614C148.903 17.8473 149.267 17.964 149.799 17.964H150.345V19H149.547C148.707 19 148.11 18.8087 147.755 18.426C147.401 18.0433 147.223 17.4413 147.223 16.62V12.672H146.019V11.622H147.223V9.424H148.413V11.622Z" fill="white"/>
<defs>
<linearGradient id="paint0_linear_935_11363" x1="-42.1942" y1="-4.667" x2="-34.1404" y2="53.4275" gradientUnits="userSpaceOnUse">
<stop stop-color="#335CFF"/>
<stop offset="1" stop-color="#00EEA3"/>
</linearGradient>
</defs>
</svg>
