<svg width="168" height="28" viewBox="0 0 168 28" fill="none" xmlns="http://www.w3.org/2000/svg">
<rect x="0.5" y="0.5" width="167" height="27" rx="3.5" stroke="url(#paint0_linear_935_11336)"/>
<path fill-rule="evenodd" clip-rule="evenodd" d="M21.5007 11.0479C21.2273 11.0479 21.0007 10.8213 21.0007 10.5479V9.78525C19.8893 10.8719 17.026 13.2306 11.6527 15.0219C11.6025 15.0396 11.5498 15.0486 11.4967 15.0486C11.3785 15.0477 11.2645 15.005 11.1748 14.9281C11.0852 14.8512 11.0256 14.745 11.0068 14.6284C10.9879 14.5118 11.011 14.3922 11.0719 14.291C11.1327 14.1897 11.2275 14.1133 11.3393 14.0753C16.5373 12.3406 19.306 10.0339 20.3187 9.04858H19.5007C19.2273 9.04858 19.0007 8.82192 19.0007 8.54858C19.0007 8.27525 19.2273 8.04858 19.5007 8.04858H21.5007C21.774 8.04858 22.0007 8.27525 22.0007 8.54858V10.5486C22.0007 10.8219 21.774 11.0479 21.5007 11.0479ZM11.4967 15.0486H11.4993H11.4927H11.4967ZM21.1673 21.0486C20.814 21.0486 20.6007 21.0486 20.3873 20.9619C20.1007 20.8419 19.874 20.6153 19.754 20.3286C19.6673 20.1153 19.6673 19.9019 19.6673 19.5486V13.5486C19.6673 13.1953 19.6673 12.9819 19.754 12.7686C19.874 12.4819 20.1007 12.2553 20.3873 12.1353C20.6007 12.0486 20.814 12.0486 21.1673 12.0486C21.5206 12.0486 21.734 12.0486 21.9473 12.1353C22.234 12.2553 22.4607 12.4819 22.5807 12.7686C22.6673 12.9819 22.6673 13.1953 22.6673 13.5486V19.5486C22.6673 19.9019 22.6673 20.1153 22.5807 20.3286C22.4607 20.6153 22.234 20.8419 21.9473 20.9619C21.734 21.0486 21.5206 21.0486 21.1673 21.0486ZM21.1673 13.0486C20.994 13.0486 20.814 13.0486 20.7673 13.0619C20.7273 13.0753 20.7007 13.1086 20.6807 13.1486C20.6673 13.1886 20.6673 13.3686 20.6673 13.5486V19.5486C20.6673 19.7219 20.6673 19.9019 20.6807 19.9486C20.694 19.9886 20.7273 20.0219 20.7673 20.0353C20.854 20.0619 21.474 20.0619 21.5673 20.0353C21.6073 20.0219 21.634 19.9886 21.654 19.9486C21.6673 19.9086 21.6673 19.7286 21.6673 19.5486V13.5486C21.6673 13.3753 21.6673 13.1953 21.654 13.1486C21.6471 13.1285 21.6357 13.1103 21.6206 13.0953C21.6056 13.0802 21.5874 13.0688 21.5673 13.0619C21.5273 13.0486 21.3473 13.0486 21.1673 13.0486ZM16.5007 21.0486C16.1473 21.0486 15.934 21.0486 15.7207 20.9619C15.434 20.8419 15.2073 20.6153 15.0873 20.3286C15.0007 20.1153 15.0007 19.9019 15.0007 19.5486V15.8819C15.0007 15.5286 15.0007 15.3153 15.0873 15.1019C15.2073 14.8153 15.434 14.5886 15.7207 14.4686C15.934 14.3819 16.1473 14.3819 16.5007 14.3819C16.854 14.3819 17.0673 14.3819 17.2807 14.4686C17.5673 14.5886 17.794 14.8153 17.914 15.1019C18.0007 15.3153 18.0007 15.5286 18.0007 15.8819V19.5486C18.0007 19.9019 18.0007 20.1153 17.914 20.3286C17.794 20.6153 17.5673 20.8419 17.2807 20.9619C17.0673 21.0486 16.854 21.0486 16.5007 21.0486ZM16.5007 15.3819C16.3273 15.3819 16.1473 15.3819 16.1007 15.3953C16.0607 15.4086 16.034 15.4419 16.014 15.4819C16.0007 15.5219 16.0007 15.7019 16.0007 15.8819V19.5486C16.0007 19.7219 16.0007 19.9019 16.014 19.9486C16.0273 19.9886 16.0607 20.0219 16.1007 20.0353C16.1873 20.0619 16.8073 20.0619 16.9007 20.0353C16.9407 20.0219 16.9673 19.9886 16.9873 19.9486C17.0007 19.9086 17.0007 19.7286 17.0007 19.5486V15.8819C17.0007 15.7086 17.0007 15.5286 16.9873 15.4819C16.9804 15.4618 16.969 15.4436 16.954 15.4286C16.939 15.4136 16.9207 15.4022 16.9007 15.3953C16.8607 15.3819 16.6807 15.3819 16.5007 15.3819ZM11.054 20.9619C11.2673 21.0486 11.4807 21.0486 11.834 21.0486C12.1873 21.0486 12.4007 21.0486 12.614 20.9619C12.9007 20.8419 13.1273 20.6153 13.2473 20.3286C13.334 20.1153 13.334 19.9019 13.334 19.5486V17.5486C13.334 17.1953 13.334 16.9819 13.2473 16.7686C13.1273 16.4819 12.9007 16.2553 12.614 16.1353C12.4007 16.0486 12.1873 16.0486 11.834 16.0486C11.4807 16.0486 11.2673 16.0486 11.054 16.1353C10.7673 16.2553 10.5407 16.4819 10.4207 16.7686C10.334 16.9819 10.334 17.1953 10.334 17.5486V19.5486C10.334 19.9019 10.334 20.1153 10.4207 20.3286C10.5407 20.6153 10.7673 20.8419 11.054 20.9619ZM11.434 17.0619C11.4807 17.0486 11.6607 17.0486 11.834 17.0486C12.014 17.0486 12.194 17.0486 12.234 17.0619C12.274 17.0753 12.3073 17.1086 12.3207 17.1486C12.334 17.1953 12.334 17.3753 12.334 17.5486V19.5486C12.334 19.7286 12.334 19.9086 12.3207 19.9486C12.3007 19.9886 12.274 20.0219 12.234 20.0353C12.1407 20.0619 11.5207 20.0619 11.434 20.0353C11.4139 20.0283 11.3957 20.0169 11.3807 20.0019C11.3656 19.9869 11.3542 19.9687 11.3473 19.9486C11.334 19.9019 11.334 19.7219 11.334 19.5486V17.5486C11.334 17.3686 11.334 17.1886 11.3473 17.1486C11.3673 17.1086 11.394 17.0753 11.434 17.0619Z" fill="#335CFF"/>
<path d="M31.22 15.542C31.472 15.3273 31.7473 15.094 32.046 14.842C32.354 14.5807 32.6387 14.3007 32.9 14.002C33.1707 13.7033 33.3993 13.3907 33.586 13.064C33.7727 12.728 33.8707 12.364 33.88 11.972C33.8987 11.3747 33.726 10.9173 33.362 10.6C32.998 10.2733 32.5173 10.11 31.92 10.11C31.444 10.11 31.0287 10.208 30.674 10.404C30.3193 10.6 30.086 10.8847 29.974 11.258H28.672C28.7373 10.8753 28.8727 10.544 29.078 10.264C29.2927 9.97467 29.5493 9.73667 29.848 9.55C30.156 9.36333 30.492 9.22333 30.856 9.13C31.22 9.03667 31.5933 8.99 31.976 8.99C32.4333 8.99 32.8533 9.05533 33.236 9.186C33.6187 9.30733 33.95 9.48933 34.23 9.732C34.51 9.97467 34.7247 10.278 34.874 10.642C35.0327 10.9967 35.112 11.4027 35.112 11.86C35.112 12.3173 35.042 12.728 34.902 13.092C34.7713 13.456 34.5893 13.792 34.356 14.1C34.132 14.408 33.8753 14.6973 33.586 14.968C33.2967 15.2387 32.998 15.5093 32.69 15.78L30.184 17.894H35.224V19H28.42V17.992L31.22 15.542ZM43.8397 16.242C43.8397 16.774 43.737 17.2267 43.5317 17.6C43.3264 17.964 43.0557 18.258 42.7197 18.482C42.393 18.706 42.015 18.8693 41.5857 18.972C41.1657 19.0653 40.7317 19.112 40.2837 19.112C39.8357 19.112 39.397 19.0653 38.9677 18.972C38.5477 18.8693 38.1697 18.706 37.8337 18.482C37.4977 18.258 37.227 17.964 37.0217 17.6C36.8257 17.2267 36.7277 16.774 36.7277 16.242C36.7277 15.682 36.8724 15.2013 37.1617 14.8C37.451 14.3893 37.8524 14.086 38.3657 13.89C38.0857 13.7593 37.857 13.6007 37.6797 13.414C37.5024 13.2273 37.3624 13.0313 37.2597 12.826C37.1664 12.6113 37.101 12.4013 37.0637 12.196C37.0357 11.9813 37.0217 11.7853 37.0217 11.608C37.0217 11.1507 37.115 10.7587 37.3017 10.432C37.4884 10.096 37.731 9.82067 38.0297 9.606C38.3377 9.39133 38.6877 9.23733 39.0797 9.144C39.4717 9.04133 39.873 8.99 40.2837 8.99C40.6944 8.99 41.0957 9.04133 41.4877 9.144C41.8797 9.23733 42.225 9.39133 42.5237 9.606C42.8317 9.82067 43.079 10.096 43.2657 10.432C43.4524 10.7587 43.5457 11.1507 43.5457 11.608C43.5457 11.7853 43.527 11.9813 43.4897 12.196C43.4524 12.4013 43.3824 12.6067 43.2797 12.812C43.1864 13.008 43.051 13.1993 42.8737 13.386C42.6964 13.5633 42.4677 13.7173 42.1877 13.848C42.7197 14.044 43.1257 14.352 43.4057 14.772C43.695 15.192 43.8397 15.682 43.8397 16.242ZM40.2837 10.096C40.0037 10.096 39.7424 10.1287 39.4997 10.194C39.257 10.2593 39.0424 10.362 38.8557 10.502C38.6784 10.6327 38.5384 10.8053 38.4357 11.02C38.333 11.2253 38.2817 11.4773 38.2817 11.776C38.2817 12.084 38.3377 12.3407 38.4497 12.546C38.5617 12.7513 38.711 12.9193 38.8977 13.05C39.0844 13.1807 39.2944 13.2787 39.5277 13.344C39.7704 13.4093 40.0224 13.442 40.2837 13.442C40.545 13.442 40.7924 13.4093 41.0257 13.344C41.2684 13.2787 41.4784 13.1807 41.6557 13.05C41.8424 12.9193 41.9917 12.7513 42.1037 12.546C42.2157 12.3407 42.2764 12.1027 42.2857 11.832C42.2857 11.5147 42.2297 11.2487 42.1177 11.034C42.015 10.81 41.8704 10.628 41.6837 10.488C41.5064 10.348 41.2964 10.25 41.0537 10.194C40.811 10.1287 40.5544 10.096 40.2837 10.096ZM40.2837 14.52C39.9944 14.52 39.7097 14.5527 39.4297 14.618C39.159 14.674 38.9117 14.772 38.6877 14.912C38.473 15.052 38.3004 15.234 38.1697 15.458C38.039 15.6727 37.9737 15.9387 37.9737 16.256C37.9737 16.62 38.053 16.914 38.2117 17.138C38.3704 17.362 38.5664 17.5393 38.7997 17.67C39.033 17.8007 39.2804 17.8893 39.5417 17.936C39.8124 17.9827 40.0597 18.006 40.2837 18.006C40.5077 18.006 40.7504 17.9827 41.0117 17.936C41.2824 17.8893 41.5297 17.8007 41.7537 17.67C41.987 17.5393 42.183 17.362 42.3417 17.138C42.5004 16.914 42.5797 16.62 42.5797 16.256C42.5797 15.9387 42.5144 15.6727 42.3837 15.458C42.253 15.234 42.0804 15.052 41.8657 14.912C41.651 14.772 41.4037 14.674 41.1237 14.618C40.853 14.5527 40.573 14.52 40.2837 14.52ZM47.5087 13.372C47.1727 13.372 46.874 13.316 46.6127 13.204C46.3607 13.092 46.1507 12.938 45.9827 12.742C45.8147 12.5367 45.684 12.3033 45.5907 12.042C45.5067 11.7713 45.4647 11.482 45.4647 11.174C45.4647 10.8567 45.5067 10.5673 45.5907 10.306C45.684 10.0353 45.8147 9.802 45.9827 9.606C46.16 9.41 46.3747 9.26067 46.6267 9.158C46.8787 9.046 47.1727 8.99 47.5087 8.99C48.162 8.99 48.6613 9.19533 49.0067 9.606C49.352 10.0073 49.5247 10.53 49.5247 11.174C49.5247 11.482 49.478 11.7713 49.3847 12.042C49.3007 12.3033 49.1747 12.5367 49.0067 12.742C48.8387 12.938 48.6287 13.092 48.3767 13.204C48.1247 13.316 47.8353 13.372 47.5087 13.372ZM46.5847 19L52.6747 9.102H53.9067L47.8307 19H46.5847ZM47.5087 9.984C47.1353 9.984 46.8693 10.1053 46.7107 10.348C46.552 10.5907 46.4727 10.866 46.4727 11.174C46.4727 11.5007 46.552 11.7853 46.7107 12.028C46.8693 12.2613 47.1353 12.378 47.5087 12.378C47.8633 12.378 48.1153 12.2567 48.2647 12.014C48.414 11.7713 48.4887 11.4913 48.4887 11.174C48.4887 10.866 48.414 10.5907 48.2647 10.348C48.1153 10.1053 47.8633 9.984 47.5087 9.984ZM53.0527 19.084C52.7167 19.084 52.418 19.028 52.1567 18.916C51.9047 18.804 51.69 18.65 51.5127 18.454C51.3447 18.2487 51.214 18.0153 51.1207 17.754C51.0367 17.4833 50.9947 17.194 50.9947 16.886C50.9947 16.5687 51.0367 16.2793 51.1207 16.018C51.214 15.7473 51.3493 15.514 51.5267 15.318C51.704 15.122 51.9187 14.9727 52.1707 14.87C52.4227 14.758 52.7167 14.702 53.0527 14.702C53.37 14.702 53.6547 14.758 53.9067 14.87C54.1587 14.9727 54.3687 15.122 54.5367 15.318C54.714 15.514 54.8447 15.7473 54.9287 16.018C55.022 16.2793 55.0687 16.5687 55.0687 16.886C55.0687 17.194 55.022 17.4833 54.9287 17.754C54.8447 18.0153 54.714 18.2487 54.5367 18.454C54.3687 18.65 54.1587 18.804 53.9067 18.916C53.6547 19.028 53.37 19.084 53.0527 19.084ZM53.0387 15.696C52.6653 15.696 52.3993 15.8173 52.2407 16.06C52.0913 16.3027 52.0167 16.578 52.0167 16.886C52.0167 17.2127 52.096 17.4973 52.2547 17.74C52.4133 17.9733 52.6747 18.09 53.0387 18.09C53.4027 18.09 53.6547 17.9687 53.7947 17.726C53.944 17.4833 54.0187 17.2033 54.0187 16.886C54.0187 16.578 53.944 16.3027 53.7947 16.06C53.6547 15.8173 53.4027 15.696 53.0387 15.696ZM62.1001 15.29V19H60.8821V9.102H64.5921C65.1334 9.102 65.6234 9.158 66.0621 9.27C66.5007 9.382 66.8741 9.55933 67.1821 9.802C67.4901 10.0447 67.7234 10.3667 67.8821 10.768C68.0501 11.16 68.1341 11.636 68.1341 12.196C68.1341 12.6067 68.0734 12.9753 67.9521 13.302C67.8307 13.6193 67.6674 13.8993 67.4621 14.142C67.2661 14.3753 67.0327 14.5713 66.7621 14.73C66.4914 14.8793 66.2114 14.996 65.9221 15.08L67.9941 19H66.6641L64.6901 15.29H62.1001ZM64.2001 14.184C64.5641 14.184 64.9047 14.156 65.2221 14.1C65.5487 14.044 65.8334 13.9413 66.0761 13.792C66.3187 13.6427 66.5101 13.442 66.6501 13.19C66.7994 12.9287 66.8787 12.5833 66.8881 12.154C66.8881 11.4447 66.6781 10.9453 66.2581 10.656C65.8474 10.3573 65.2501 10.208 64.4661 10.208H62.1001V14.184H64.2001ZM74.2129 19.112C73.4382 19.112 72.7616 18.986 72.1829 18.734C71.6042 18.4727 71.1189 18.118 70.7269 17.67C70.3349 17.222 70.0409 16.69 69.8449 16.074C69.6489 15.458 69.5509 14.786 69.5509 14.058C69.5509 13.33 69.6489 12.658 69.8449 12.042C70.0409 11.4167 70.3349 10.88 70.7269 10.432C71.1189 9.984 71.6042 9.634 72.1829 9.382C72.7616 9.12067 73.4382 8.99 74.2129 8.99C74.9782 8.99 75.6502 9.12067 76.2289 9.382C76.8076 9.634 77.2929 9.984 77.6849 10.432C78.0769 10.88 78.3709 11.4167 78.5669 12.042C78.7629 12.658 78.8609 13.33 78.8609 14.058C78.8609 14.786 78.7629 15.458 78.5669 16.074C78.3709 16.69 78.0769 17.222 77.6849 17.67C77.2929 18.118 76.8076 18.4727 76.2289 18.734C75.6502 18.986 74.9782 19.112 74.2129 19.112ZM74.2129 10.096C73.6249 10.096 73.1162 10.2033 72.6869 10.418C72.2576 10.6233 71.9029 10.908 71.6229 11.272C71.3429 11.636 71.1329 12.0607 70.9929 12.546C70.8529 13.022 70.7829 13.526 70.7829 14.058C70.7829 14.59 70.8482 15.094 70.9789 15.57C71.1189 16.046 71.3289 16.466 71.6089 16.83C71.8889 17.194 72.2436 17.4833 72.6729 17.698C73.1116 17.9033 73.6249 18.006 74.2129 18.006C74.8009 18.006 75.3096 17.9033 75.7389 17.698C76.1682 17.4833 76.5182 17.1987 76.7889 16.844C77.0689 16.48 77.2742 16.06 77.4049 15.584C77.5449 15.108 77.6149 14.5993 77.6149 14.058C77.6149 13.5167 77.5449 13.008 77.4049 12.532C77.2742 12.0467 77.0689 11.6267 76.7889 11.272C76.5089 10.908 76.1542 10.6233 75.7249 10.418C75.2956 10.2033 74.7916 10.096 74.2129 10.096ZM81.9653 19H80.7473V9.102H81.9653V19ZM87.8911 19V11.622H89.0391L89.0951 12.742C89.2165 12.5367 89.3658 12.3593 89.5431 12.21C89.7298 12.0607 89.9305 11.9347 90.1451 11.832C90.3598 11.7293 90.5838 11.6547 90.8171 11.608C91.0598 11.5613 91.2931 11.538 91.5171 11.538C92.0491 11.538 92.4971 11.6267 92.8611 11.804C93.2251 11.972 93.5145 12.21 93.7291 12.518C93.9438 12.8167 94.0978 13.176 94.1911 13.596C94.2845 14.0067 94.3311 14.45 94.3311 14.926V19H93.1411V15.248C93.1411 14.9027 93.1178 14.5713 93.0711 14.254C93.0338 13.9367 92.9498 13.6567 92.8191 13.414C92.6978 13.162 92.5205 12.9613 92.2871 12.812C92.0538 12.6627 91.7411 12.588 91.3491 12.588C90.9665 12.5973 90.6258 12.6907 90.3271 12.868C90.0378 13.0453 89.8045 13.2553 89.6271 13.498C89.4125 13.806 89.2678 14.1467 89.1931 14.52C89.1185 14.884 89.0811 15.2527 89.0811 15.626V19H87.8911ZM97.0866 15.752C97.1146 16.0787 97.1799 16.382 97.2826 16.662C97.3946 16.9327 97.5439 17.1707 97.7306 17.376C97.9173 17.5813 98.1459 17.7447 98.4166 17.866C98.6966 17.978 99.0186 18.034 99.3826 18.034C99.5599 18.034 99.7419 18.02 99.9286 17.992C100.125 17.9547 100.307 17.8987 100.475 17.824C100.643 17.74 100.792 17.6327 100.923 17.502C101.053 17.3713 101.151 17.2127 101.217 17.026H102.435C102.351 17.3807 102.206 17.6887 102.001 17.95C101.805 18.2113 101.567 18.426 101.287 18.594C101.016 18.762 100.713 18.888 100.377 18.972C100.041 19.0467 99.6999 19.084 99.3546 19.084C98.7666 19.084 98.2533 18.9907 97.8146 18.804C97.3853 18.6173 97.0259 18.3607 96.7366 18.034C96.4473 17.698 96.2326 17.3013 96.0926 16.844C95.9526 16.3773 95.8826 15.8687 95.8826 15.318C95.8826 14.7673 95.9573 14.2633 96.1066 13.806C96.2653 13.3393 96.4893 12.938 96.7786 12.602C97.0679 12.266 97.4226 12.0047 97.8426 11.818C98.2626 11.6313 98.7619 11.538 99.3406 11.538C99.9286 11.538 100.437 11.6547 100.867 11.888C101.296 12.1213 101.641 12.4293 101.903 12.812C102.164 13.1853 102.346 13.5913 102.449 14.03C102.561 14.4687 102.607 14.8747 102.589 15.248C102.589 15.332 102.584 15.416 102.575 15.5C102.575 15.584 102.57 15.668 102.561 15.752H97.0866ZM101.385 14.716C101.366 14.0907 101.17 13.582 100.797 13.19C100.423 12.798 99.9239 12.602 99.2986 12.602C98.9533 12.602 98.6499 12.658 98.3886 12.77C98.1273 12.882 97.9079 13.036 97.7306 13.232C97.5533 13.428 97.4133 13.6567 97.3106 13.918C97.2079 14.17 97.1426 14.436 97.1146 14.716H101.385ZM106.05 11.622H108.318V12.672H106.05V16.508C106.05 16.7227 106.059 16.9233 106.078 17.11C106.106 17.2873 106.153 17.446 106.218 17.586C106.293 17.7167 106.395 17.824 106.526 17.908C106.666 17.9827 106.853 18.0247 107.086 18.034C107.301 18.034 107.487 17.9967 107.646 17.922C107.814 17.8473 107.954 17.7587 108.066 17.656L108.584 18.524C108.341 18.7293 108.089 18.874 107.828 18.958C107.567 19.042 107.277 19.084 106.96 19.084C106.559 19.084 106.223 19.028 105.952 18.916C105.681 18.7947 105.453 18.622 105.266 18.398C105.107 18.1833 105 17.9313 104.944 17.642C104.888 17.3527 104.86 17.026 104.86 16.662V12.672H103.656V11.622H104.86V9.41H106.05V11.622ZM116.76 11.538C117.348 11.538 117.857 11.6313 118.286 11.818C118.716 12.0047 119.075 12.266 119.364 12.602C119.663 12.938 119.882 13.3393 120.022 13.806C120.172 14.2633 120.246 14.7673 120.246 15.318C120.246 15.8687 120.172 16.3773 120.022 16.844C119.882 17.3013 119.663 17.698 119.364 18.034C119.075 18.3607 118.711 18.6173 118.272 18.804C117.834 18.9907 117.32 19.084 116.732 19.084C116.144 19.084 115.631 18.9907 115.192 18.804C114.763 18.6173 114.399 18.3607 114.1 18.034C113.811 17.698 113.592 17.3013 113.442 16.844C113.302 16.3773 113.232 15.8687 113.232 15.318C113.232 14.7673 113.302 14.2633 113.442 13.806C113.592 13.3393 113.811 12.938 114.1 12.602C114.399 12.266 114.772 12.0047 115.22 11.818C115.668 11.6313 116.182 11.538 116.76 11.538ZM116.732 18.034C117.134 18.034 117.479 17.964 117.768 17.824C118.067 17.684 118.31 17.4927 118.496 17.25C118.692 16.998 118.832 16.7087 118.916 16.382C119.01 16.0553 119.056 15.7007 119.056 15.318C119.056 14.9447 119.01 14.5947 118.916 14.268C118.832 13.932 118.692 13.6427 118.496 13.4C118.31 13.148 118.067 12.952 117.768 12.812C117.479 12.672 117.134 12.602 116.732 12.602C116.331 12.602 115.986 12.672 115.696 12.812C115.407 12.952 115.164 13.148 114.968 13.4C114.782 13.6427 114.642 13.932 114.548 14.268C114.464 14.5947 114.422 14.9447 114.422 15.318C114.422 15.7007 114.464 16.0553 114.548 16.382C114.642 16.7087 114.782 16.998 114.968 17.25C115.164 17.4927 115.407 17.684 115.696 17.824C115.986 17.964 116.331 18.034 116.732 18.034ZM122.416 19V12.672H121.212V11.622H122.416V10.838C122.416 10.0167 122.593 9.41467 122.948 9.032C123.302 8.64933 123.9 8.458 124.74 8.458H125.58V9.508H124.866C124.362 9.508 124.026 9.634 123.858 9.886C123.69 10.138 123.606 10.502 123.606 10.978V11.622H125.58V12.672H123.606V19H122.416ZM131.316 19V12.672H130.112V11.622H131.316V10.838C131.316 10.0167 131.493 9.41467 131.848 9.032C132.203 8.64933 132.8 8.458 133.64 8.458H134.48V9.508H133.766C133.262 9.508 132.926 9.634 132.758 9.886C132.59 10.138 132.506 10.502 132.506 10.978V11.622H134.48V12.672H132.506V19H131.316ZM136.516 15.752C136.544 16.0787 136.61 16.382 136.712 16.662C136.824 16.9327 136.974 17.1707 137.16 17.376C137.347 17.5813 137.576 17.7447 137.846 17.866C138.126 17.978 138.448 18.034 138.812 18.034C138.99 18.034 139.172 18.02 139.358 17.992C139.554 17.9547 139.736 17.8987 139.904 17.824C140.072 17.74 140.222 17.6327 140.352 17.502C140.483 17.3713 140.581 17.2127 140.646 17.026H141.864C141.78 17.3807 141.636 17.6887 141.43 17.95C141.234 18.2113 140.996 18.426 140.716 18.594C140.446 18.762 140.142 18.888 139.806 18.972C139.47 19.0467 139.13 19.084 138.784 19.084C138.196 19.084 137.683 18.9907 137.244 18.804C136.815 18.6173 136.456 18.3607 136.166 18.034C135.877 17.698 135.662 17.3013 135.522 16.844C135.382 16.3773 135.312 15.8687 135.312 15.318C135.312 14.7673 135.387 14.2633 135.536 13.806C135.695 13.3393 135.919 12.938 136.208 12.602C136.498 12.266 136.852 12.0047 137.272 11.818C137.692 11.6313 138.192 11.538 138.77 11.538C139.358 11.538 139.867 11.6547 140.296 11.888C140.726 12.1213 141.071 12.4293 141.332 12.812C141.594 13.1853 141.776 13.5913 141.878 14.03C141.99 14.4687 142.037 14.8747 142.018 15.248C142.018 15.332 142.014 15.416 142.004 15.5C142.004 15.584 142 15.668 141.99 15.752H136.516ZM140.814 14.716C140.796 14.0907 140.6 13.582 140.226 13.19C139.853 12.798 139.354 12.602 138.728 12.602C138.383 12.602 138.08 12.658 137.818 12.77C137.557 12.882 137.338 13.036 137.16 13.232C136.983 13.428 136.843 13.6567 136.74 13.918C136.638 14.17 136.572 14.436 136.544 14.716H140.814ZM144.542 15.752C144.57 16.0787 144.635 16.382 144.738 16.662C144.85 16.9327 144.999 17.1707 145.186 17.376C145.372 17.5813 145.601 17.7447 145.872 17.866C146.152 17.978 146.474 18.034 146.838 18.034C147.015 18.034 147.197 18.02 147.384 17.992C147.58 17.9547 147.762 17.8987 147.93 17.824C148.098 17.74 148.247 17.6327 148.378 17.502C148.508 17.3713 148.606 17.2127 148.672 17.026H149.89C149.806 17.3807 149.661 17.6887 149.456 17.95C149.26 18.2113 149.022 18.426 148.742 18.594C148.471 18.762 148.168 18.888 147.832 18.972C147.496 19.0467 147.155 19.084 146.81 19.084C146.222 19.084 145.708 18.9907 145.27 18.804C144.84 18.6173 144.481 18.3607 144.192 18.034C143.902 17.698 143.688 17.3013 143.548 16.844C143.408 16.3773 143.338 15.8687 143.338 15.318C143.338 14.7673 143.412 14.2633 143.562 13.806C143.72 13.3393 143.944 12.938 144.234 12.602C144.523 12.266 144.878 12.0047 145.298 11.818C145.718 11.6313 146.217 11.538 146.796 11.538C147.384 11.538 147.892 11.6547 148.322 11.888C148.751 12.1213 149.096 12.4293 149.358 12.812C149.619 13.1853 149.801 13.5913 149.904 14.03C150.016 14.4687 150.062 14.8747 150.044 15.248C150.044 15.332 150.039 15.416 150.03 15.5C150.03 15.584 150.025 15.668 150.016 15.752H144.542ZM148.84 14.716C148.821 14.0907 148.625 13.582 148.252 13.19C147.878 12.798 147.379 12.602 146.754 12.602C146.408 12.602 146.105 12.658 145.844 12.77C145.582 12.882 145.363 13.036 145.186 13.232C145.008 13.428 144.868 13.6567 144.766 13.918C144.663 14.17 144.598 14.436 144.57 14.716H148.84ZM154.275 12.602C154.107 12.602 153.934 12.616 153.757 12.644C153.589 12.6627 153.421 12.7093 153.253 12.784C153.094 12.8493 152.954 12.952 152.833 13.092C152.721 13.2227 152.66 13.4 152.651 13.624C152.651 13.9413 152.768 14.1793 153.001 14.338C153.244 14.4967 153.556 14.6133 153.939 14.688C154.098 14.7253 154.27 14.7627 154.457 14.8C154.644 14.828 154.826 14.8607 155.003 14.898C155.19 14.926 155.362 14.9587 155.521 14.996C155.689 15.0333 155.829 15.0707 155.941 15.108C156.837 15.388 157.285 15.99 157.285 16.914C157.276 17.362 157.178 17.726 156.991 18.006C156.814 18.2767 156.585 18.4913 156.305 18.65C156.034 18.8087 155.722 18.9207 155.367 18.986C155.022 19.0513 154.676 19.084 154.331 19.084C153.995 19.084 153.654 19.0513 153.309 18.986C152.964 18.9207 152.646 18.8087 152.357 18.65C152.077 18.482 151.834 18.2673 151.629 18.006C151.433 17.7353 151.307 17.3993 151.251 16.998H152.455C152.53 17.222 152.646 17.3993 152.805 17.53C152.964 17.6607 153.132 17.7633 153.309 17.838C153.496 17.9127 153.668 17.964 153.827 17.992C153.995 18.02 154.182 18.034 154.387 18.034C154.536 18.034 154.709 18.0247 154.905 18.006C155.101 17.9873 155.288 17.9453 155.465 17.88C155.642 17.8053 155.792 17.698 155.913 17.558C156.034 17.418 156.095 17.222 156.095 16.97C156.095 16.69 156.002 16.48 155.815 16.34C155.638 16.2 155.39 16.0973 155.073 16.032C154.849 15.9853 154.616 15.9433 154.373 15.906C154.14 15.8593 153.902 15.8127 153.659 15.766C153.426 15.71 153.197 15.6493 152.973 15.584C152.749 15.5093 152.539 15.4113 152.343 15.29C152.082 15.1313 151.872 14.9167 151.713 14.646C151.554 14.3753 151.475 14.044 151.475 13.652C151.494 13.2413 151.587 12.9053 151.755 12.644C151.923 12.3733 152.138 12.154 152.399 11.986C152.679 11.818 152.978 11.7013 153.295 11.636C153.612 11.5707 153.948 11.538 154.303 11.538C155.059 11.538 155.661 11.7013 156.109 12.028C156.38 12.2147 156.59 12.4387 156.739 12.7C156.888 12.9613 156.982 13.2367 157.019 13.526H155.913C155.848 13.2553 155.67 13.036 155.381 12.868C155.092 12.7 154.723 12.6113 154.275 12.602Z" fill="white"/>
<defs>
<linearGradient id="paint0_linear_935_11336" x1="-45.1108" y1="-4.667" x2="-37.4735" y2="53.542" gradientUnits="userSpaceOnUse">
<stop stop-color="#335CFF"/>
<stop offset="1" stop-color="#00EEA3"/>
</linearGradient>
</defs>
</svg>
