<svg width="96" height="28" viewBox="0 0 96 28" fill="none" xmlns="http://www.w3.org/2000/svg">
<rect x="0.5" y="0.5" width="95" height="27" rx="3.5" stroke="url(#paint0_linear_933_10033)"/>
<path d="M13.2598 9.52614C13.1882 9.4969 13.1231 9.45374 13.0682 9.39915C13.0134 9.34457 12.9699 9.27965 12.9403 9.20814L12.4648 8.12864C12.3758 7.95714 12.1198 7.95714 12.0358 8.12864L11.5598 9.20864C11.4955 9.34961 11.3821 9.46242 11.2408 9.52614L10.6338 9.78814C10.5939 9.80669 10.5601 9.83627 10.5364 9.87339C10.5127 9.9105 10.5002 9.95362 10.5002 9.99764C10.5002 10.0417 10.5127 10.0848 10.5364 10.1219C10.5601 10.159 10.5939 10.1886 10.6338 10.2071L11.2408 10.4691C11.3873 10.5296 11.5023 10.6456 11.5598 10.7871L12.0358 11.8716C12.1248 12.0431 12.3808 12.0431 12.4648 11.8716L12.9408 10.7866C13.0038 10.6456 13.1188 10.5346 13.2598 10.4691L13.8668 10.2071C13.9068 10.1886 13.9406 10.159 13.9643 10.1219C13.9879 10.0848 14.0005 10.0417 14.0005 9.99764C14.0005 9.95362 13.9879 9.9105 13.9643 9.87339C13.9406 9.83627 13.9068 9.80669 13.8668 9.78814L13.2598 9.52614ZM20.7868 12.7776C20.352 12.583 20.0082 12.2293 19.8258 11.7891L18.3948 8.40514C18.3363 8.28377 18.2448 8.18136 18.1307 8.10969C18.0166 8.03802 17.8846 8 17.7498 8C17.6151 8 17.4831 8.03802 17.369 8.10969C17.2549 8.18136 17.1633 8.28377 17.1048 8.40514L15.6733 11.7891C15.4882 12.2273 15.1455 12.58 14.7128 12.7776L12.9018 13.5976C12.3658 13.8626 12.3658 14.6376 12.9018 14.9026L14.7128 15.7226C15.1474 15.9177 15.4911 16.2713 15.6738 16.7111L17.1048 20.0951C17.1633 20.2165 17.2549 20.3189 17.369 20.3906C17.4831 20.4623 17.6151 20.5003 17.7498 20.5003C17.8846 20.5003 18.0166 20.4623 18.1307 20.3906C18.2448 20.3189 18.3363 20.2165 18.3948 20.0951L19.8263 16.7111C20.0115 16.273 20.3542 15.9203 20.7868 15.7226L22.5978 14.9026C23.1338 14.6376 23.1338 13.8626 22.5978 13.5976L20.7868 12.7776ZM12.1403 16.1651C12.2203 16.3611 12.3673 16.5131 12.5513 16.6011L13.3263 16.9636C13.3788 16.9909 13.4227 17.0321 13.4533 17.0826C13.484 17.1331 13.5002 17.1911 13.5002 17.2501C13.5002 17.3092 13.484 17.3672 13.4533 17.4177C13.4227 17.4682 13.3788 17.5094 13.3263 17.5366L12.5513 17.8991C12.3673 17.9871 12.2208 18.1441 12.1403 18.3351L11.5263 19.8236C11.5018 19.8763 11.4628 19.9209 11.4138 19.9521C11.3648 19.9833 11.3079 19.9999 11.2498 19.9999C11.1918 19.9999 11.1349 19.9833 11.0859 19.9521C11.0369 19.9209 10.9979 19.8763 10.9733 19.8236L10.3598 18.3351C10.2819 18.1437 10.1354 17.9882 9.94885 17.8991L9.17385 17.5366C9.12144 17.5094 9.07751 17.4682 9.04686 17.4177C9.01621 17.3672 9 17.3092 9 17.2501C9 17.1911 9.01621 17.1331 9.04686 17.0826C9.07751 17.0321 9.12144 16.9909 9.17385 16.9636L9.94885 16.6011C10.1328 16.5131 10.2793 16.3561 10.3598 16.1651L10.9738 14.6766C10.9984 14.624 11.0374 14.5794 11.0864 14.5482C11.1354 14.517 11.1923 14.5004 11.2503 14.5004C11.3084 14.5004 11.3653 14.517 11.4143 14.5482C11.4633 14.5794 11.5023 14.624 11.5268 14.6766L12.1403 16.1651Z" fill="#335CFF"/>
<path d="M35.924 19L35.14 16.872H30.24L29.456 19H28.14L31.822 9.102H33.572L37.24 19H35.924ZM32.69 10.166L30.646 15.766H34.734L32.69 10.166ZM39.8149 19H38.5969V9.102H39.8149V19ZM42.0653 13.722H46.4053V14.814H42.0653V13.722ZM48.3794 19V9.102H49.5694V12.714C49.8121 12.3407 50.1574 12.0513 50.6054 11.846C51.0627 11.6313 51.5294 11.5287 52.0054 11.538C52.5654 11.538 53.0461 11.636 53.4474 11.832C53.8581 12.028 54.1941 12.294 54.4554 12.63C54.7261 12.966 54.9221 13.3673 55.0434 13.834C55.1741 14.2913 55.2394 14.786 55.2394 15.318C55.2394 15.85 55.1741 16.3447 55.0434 16.802C54.9221 17.25 54.7261 17.642 54.4554 17.978C54.1847 18.314 53.8394 18.58 53.4194 18.776C53.0087 18.972 52.5187 19.0747 51.9494 19.084H51.7954C51.2914 19.084 50.8527 18.9953 50.4794 18.818C50.1154 18.6407 49.8121 18.4027 49.5694 18.104L49.5134 19H48.3794ZM51.8514 18.034C52.2527 18.034 52.5887 17.964 52.8594 17.824C53.1394 17.6747 53.3634 17.4787 53.5314 17.236C53.7087 16.984 53.8347 16.6947 53.9094 16.368C53.9934 16.0413 54.0401 15.6913 54.0494 15.318C54.0494 14.9447 54.0074 14.5947 53.9234 14.268C53.8487 13.932 53.7227 13.6427 53.5454 13.4C53.3681 13.1573 53.1347 12.966 52.8454 12.826C52.5654 12.6767 52.2247 12.602 51.8234 12.602C51.5994 12.602 51.3801 12.6393 51.1654 12.714C50.9507 12.7887 50.7594 12.8913 50.5914 13.022C50.4234 13.1433 50.2741 13.2833 50.1434 13.442C50.0221 13.6007 49.9194 13.7687 49.8354 13.946C49.7327 14.1607 49.6581 14.3893 49.6114 14.632C49.5647 14.8747 49.5414 15.108 49.5414 15.332C49.5414 15.5747 49.5554 15.8267 49.5834 16.088C49.6207 16.34 49.6954 16.5733 49.8074 16.788C49.9754 17.1427 50.2321 17.4413 50.5774 17.684C50.9227 17.9173 51.3474 18.034 51.8514 18.034ZM61.6866 18.062C61.528 18.2767 61.346 18.4493 61.1406 18.58C60.9353 18.7107 60.7206 18.8133 60.4966 18.888C60.282 18.9627 60.0626 19.014 59.8386 19.042C59.624 19.07 59.4093 19.084 59.1946 19.084C58.8493 19.084 58.5226 19.042 58.2146 18.958C57.9066 18.874 57.6266 18.7387 57.3746 18.552C57.132 18.3653 56.936 18.132 56.7866 17.852C56.6466 17.572 56.5766 17.2547 56.5766 16.9C56.5766 16.48 56.6513 16.13 56.8006 15.85C56.9593 15.5607 57.1693 15.3273 57.4306 15.15C57.692 14.9727 57.9906 14.8513 58.3266 14.786C58.672 14.7113 59.036 14.674 59.4186 14.674H61.5886C61.5886 14.0487 61.4533 13.554 61.1826 13.19C60.912 12.8167 60.4546 12.6207 59.8106 12.602C59.4186 12.602 59.0733 12.6673 58.7746 12.798C58.476 12.9287 58.2706 13.1433 58.1586 13.442H56.8846C56.95 13.106 57.0806 12.8213 57.2766 12.588C57.4726 12.3453 57.706 12.1493 57.9766 12C58.2473 11.8413 58.5413 11.7247 58.8586 11.65C59.176 11.5753 59.4933 11.538 59.8106 11.538C60.3613 11.538 60.8233 11.6313 61.1966 11.818C61.5793 11.9953 61.8873 12.2333 62.1206 12.532C62.354 12.8213 62.5173 13.176 62.6106 13.596C62.704 14.016 62.7506 14.4873 62.7506 15.01V19H61.7566L61.6866 18.062ZM60.2866 15.668C60.0626 15.668 59.8013 15.6727 59.5026 15.682C59.2133 15.682 58.9333 15.71 58.6626 15.766C58.392 15.822 58.1726 15.9387 58.0046 16.116C57.846 16.2933 57.7666 16.5267 57.7666 16.816C57.7666 17.0307 57.8086 17.2127 57.8926 17.362C57.9766 17.5113 58.0886 17.6373 58.2286 17.74C58.378 17.8427 58.546 17.9173 58.7326 17.964C58.9193 18.0107 59.1106 18.034 59.3066 18.034C60.0066 18.034 60.5573 17.866 60.9586 17.53C61.3693 17.1847 61.5793 16.6853 61.5886 16.032V15.668H60.2866ZM67.2263 12.602C67.0583 12.602 66.8856 12.616 66.7083 12.644C66.5403 12.6627 66.3723 12.7093 66.2043 12.784C66.0456 12.8493 65.9056 12.952 65.7843 13.092C65.6723 13.2227 65.6116 13.4 65.6023 13.624C65.6023 13.9413 65.7189 14.1793 65.9523 14.338C66.1949 14.4967 66.5076 14.6133 66.8903 14.688C67.0489 14.7253 67.2216 14.7627 67.4083 14.8C67.5949 14.828 67.7769 14.8607 67.9543 14.898C68.1409 14.926 68.3136 14.9587 68.4723 14.996C68.6403 15.0333 68.7803 15.0707 68.8923 15.108C69.7883 15.388 70.2363 15.99 70.2363 16.914C70.2269 17.362 70.1289 17.726 69.9423 18.006C69.7649 18.2767 69.5363 18.4913 69.2563 18.65C68.9856 18.8087 68.6729 18.9207 68.3183 18.986C67.9729 19.0513 67.6276 19.084 67.2823 19.084C66.9463 19.084 66.6056 19.0513 66.2603 18.986C65.9149 18.9207 65.5976 18.8087 65.3083 18.65C65.0283 18.482 64.7856 18.2673 64.5802 18.006C64.3843 17.7353 64.2583 17.3993 64.2023 16.998H65.4062C65.4809 17.222 65.5976 17.3993 65.7563 17.53C65.9149 17.6607 66.0829 17.7633 66.2603 17.838C66.4469 17.9127 66.6196 17.964 66.7783 17.992C66.9463 18.02 67.1329 18.034 67.3383 18.034C67.4876 18.034 67.6603 18.0247 67.8563 18.006C68.0523 17.9873 68.2389 17.9453 68.4163 17.88C68.5936 17.8053 68.7429 17.698 68.8643 17.558C68.9856 17.418 69.0463 17.222 69.0463 16.97C69.0463 16.69 68.9529 16.48 68.7663 16.34C68.5889 16.2 68.3416 16.0973 68.0243 16.032C67.8003 15.9853 67.5669 15.9433 67.3243 15.906C67.0909 15.8593 66.8529 15.8127 66.6103 15.766C66.3769 15.71 66.1483 15.6493 65.9243 15.584C65.7003 15.5093 65.4903 15.4113 65.2943 15.29C65.0329 15.1313 64.8229 14.9167 64.6643 14.646C64.5056 14.3753 64.4263 14.044 64.4263 13.652C64.4449 13.2413 64.5383 12.9053 64.7063 12.644C64.8743 12.3733 65.0889 12.154 65.3503 11.986C65.6303 11.818 65.9289 11.7013 66.2463 11.636C66.5636 11.5707 66.8996 11.538 67.2542 11.538C68.0103 11.538 68.6123 11.7013 69.0603 12.028C69.3309 12.2147 69.5409 12.4387 69.6903 12.7C69.8396 12.9613 69.9329 13.2367 69.9703 13.526H68.8643C68.7989 13.2553 68.6216 13.036 68.3323 12.868C68.0429 12.7 67.6743 12.6113 67.2263 12.602ZM72.6413 15.752C72.6693 16.0787 72.7346 16.382 72.8373 16.662C72.9493 16.9327 73.0986 17.1707 73.2853 17.376C73.472 17.5813 73.7006 17.7447 73.9713 17.866C74.2513 17.978 74.5733 18.034 74.9373 18.034C75.1146 18.034 75.2966 18.02 75.4833 17.992C75.6793 17.9547 75.8613 17.8987 76.0293 17.824C76.1973 17.74 76.3466 17.6327 76.4773 17.502C76.608 17.3713 76.706 17.2127 76.7713 17.026H77.9893C77.9053 17.3807 77.7606 17.6887 77.5553 17.95C77.3593 18.2113 77.1213 18.426 76.8413 18.594C76.5706 18.762 76.2673 18.888 75.9313 18.972C75.5953 19.0467 75.2546 19.084 74.9093 19.084C74.3213 19.084 73.808 18.9907 73.3693 18.804C72.94 18.6173 72.5806 18.3607 72.2913 18.034C72.002 17.698 71.7873 17.3013 71.6473 16.844C71.5073 16.3773 71.4373 15.8687 71.4373 15.318C71.4373 14.7673 71.512 14.2633 71.6613 13.806C71.82 13.3393 72.044 12.938 72.3333 12.602C72.6226 12.266 72.9773 12.0047 73.3973 11.818C73.8173 11.6313 74.3166 11.538 74.8953 11.538C75.4833 11.538 75.992 11.6547 76.4213 11.888C76.8506 12.1213 77.196 12.4293 77.4573 12.812C77.7186 13.1853 77.9006 13.5913 78.0033 14.03C78.1153 14.4687 78.162 14.8747 78.1433 15.248C78.1433 15.332 78.1386 15.416 78.1293 15.5C78.1293 15.584 78.1246 15.668 78.1153 15.752H72.6413ZM76.9393 14.716C76.9206 14.0907 76.7246 13.582 76.3513 13.19C75.978 12.798 75.4786 12.602 74.8533 12.602C74.508 12.602 74.2046 12.658 73.9433 12.77C73.682 12.882 73.4626 13.036 73.2853 13.232C73.108 13.428 72.968 13.6567 72.8653 13.918C72.7626 14.17 72.6973 14.436 72.6693 14.716H76.9393ZM86.3227 19H85.1887L85.1327 17.894C84.8807 18.314 84.5307 18.6173 84.0827 18.804C83.644 18.9907 83.182 19.084 82.6967 19.084C82.1367 19.0747 81.6514 18.9767 81.2407 18.79C80.83 18.594 80.494 18.328 80.2327 17.992C79.9714 17.656 79.7754 17.264 79.6447 16.816C79.5234 16.3587 79.4627 15.864 79.4627 15.332C79.4627 14.8 79.528 14.3053 79.6587 13.848C79.7894 13.3813 79.99 12.98 80.2607 12.644C80.5314 12.2987 80.872 12.028 81.2827 11.832C81.6934 11.636 82.1834 11.538 82.7527 11.538C83.182 11.538 83.616 11.6173 84.0547 11.776C84.4934 11.9347 84.8527 12.1913 85.1327 12.546V9.102H86.3227V19ZM82.8507 12.602C82.4494 12.602 82.1087 12.6767 81.8287 12.826C81.5487 12.966 81.32 13.1573 81.1427 13.4C80.9747 13.6427 80.8487 13.932 80.7647 14.268C80.69 14.5947 80.6527 14.954 80.6527 15.346C80.6527 15.738 80.69 16.0927 80.7647 16.41C80.8394 16.718 80.9654 16.9933 81.1427 17.236C81.32 17.4787 81.5487 17.6747 81.8287 17.824C82.1087 17.964 82.454 18.034 82.8647 18.034C83.3407 18.034 83.7327 17.922 84.0407 17.698C84.3487 17.474 84.596 17.194 84.7827 16.858C84.9134 16.6247 85.0067 16.3727 85.0627 16.102C85.1187 15.822 85.1467 15.5467 85.1467 15.276C85.1467 14.94 85.114 14.632 85.0487 14.352C84.9927 14.072 84.8854 13.8107 84.7267 13.568C84.54 13.2973 84.2927 13.0687 83.9847 12.882C83.6767 12.6953 83.2987 12.602 82.8507 12.602Z" fill="#262626"/>
<defs>
<linearGradient id="paint0_linear_933_10033" x1="-25.7776" y1="-4.667" x2="-12.8631" y2="51.5787" gradientUnits="userSpaceOnUse">
<stop stop-color="#335CFF"/>
<stop offset="1" stop-color="#00EEA3"/>
</linearGradient>
</defs>
</svg>
