<svg width="48" height="48" viewBox="0 0 48 48" fill="none" xmlns="http://www.w3.org/2000/svg">
<circle cx="24" cy="24" r="24" fill="#335CFF"/>
<path d="M36.1334 15.2717C36.3675 15.5061 36.499 15.8238 36.499 16.155C36.499 16.4863 36.3675 16.804 36.1334 17.0383L20.4384 32.7333C20.204 32.9674 19.8863 33.0989 19.5551 33.0989C19.2238 33.0989 18.9061 32.9674 18.6717 32.7333L11.8667 25.9283C11.6459 25.6914 11.5257 25.378 11.5314 25.0541C11.5372 24.7303 11.6683 24.4213 11.8974 24.1923C12.1264 23.9633 12.4354 23.8321 12.7592 23.8264C13.083 23.8207 13.3964 23.9409 13.6334 24.1617L19.5551 30.0817L34.3667 15.2717C34.6011 15.0376 34.9188 14.9061 35.2501 14.9061C35.5813 14.9061 35.899 15.0376 36.1334 15.2717Z" fill="white"/>
</svg>
