<svg width="30" height="30" viewBox="0 0 30 30" fill="none" xmlns="http://www.w3.org/2000/svg">
<circle cx="15" cy="15" r="15" fill="#335CFF" fill-opacity="0.18"/>
<path d="M22.2798 9.7628C22.4203 9.90342 22.4992 10.094 22.4992 10.2928C22.4992 10.4915 22.4203 10.6822 22.2798 10.8228L12.8628 20.2398C12.7222 20.3802 12.5316 20.4591 12.3328 20.4591C12.1341 20.4591 11.9435 20.3802 11.8028 20.2398L7.71985 16.1568C7.58737 16.0146 7.51524 15.8266 7.51867 15.6323C7.5221 15.438 7.60081 15.2526 7.73822 15.1152C7.87564 14.9778 8.06102 14.8991 8.25532 14.8956C8.44963 14.8922 8.63767 14.9643 8.77985 15.0968L12.3328 18.6488L21.2198 9.7628C21.3605 9.62235 21.5511 9.54346 21.7498 9.54346C21.9486 9.54346 22.1392 9.62235 22.2798 9.7628Z" fill="#335CFF"/>
</svg>
