<svg width="40" height="40" viewBox="0 0 40 40" fill="none" xmlns="http://www.w3.org/2000/svg">
<path d="M16.8 14.4C16.7212 14.2949 16.6225 14.2064 16.5095 14.1395C16.3965 14.0726 16.2714 14.0286 16.1414 14.01C16.0114 13.9915 15.879 13.9987 15.7518 14.0313C15.6246 14.0639 15.5051 14.1212 15.4 14.2C15.2949 14.2788 15.2064 14.3775 15.1395 14.4905C15.0726 14.6035 15.0286 14.7286 15.0101 14.8586C14.9915 14.9886 14.9987 15.121 15.0313 15.2482C15.0639 15.3754 15.1212 15.4949 15.2 15.6L18.5 20L15.2 24.4C15.1212 24.5051 15.0639 24.6246 15.0313 24.7518C14.9987 24.879 14.9915 25.0114 15.0101 25.1414C15.0286 25.2714 15.0726 25.3965 15.1395 25.5095C15.2064 25.6225 15.2949 25.7212 15.4 25.8C15.5051 25.8788 15.6246 25.9361 15.7518 25.9687C15.879 26.0013 16.0114 26.0085 16.1414 25.9899C16.2714 25.9714 16.3965 25.9274 16.5095 25.8605C16.6225 25.7936 16.7212 25.7051 16.8 25.6L19.75 21.667L22.7 25.6C22.7788 25.7051 22.8775 25.7936 22.9905 25.8605C23.1035 25.9274 23.2286 25.9714 23.3586 25.9899C23.4886 26.0085 23.621 26.0013 23.7482 25.9687C23.8754 25.9361 23.9949 25.8788 24.1 25.8C24.2051 25.7212 24.2936 25.6225 24.3605 25.5095C24.4274 25.3965 24.4714 25.2714 24.49 25.1414C24.5085 25.0114 24.5013 24.879 24.4687 24.7518C24.4361 24.6246 24.3788 24.5051 24.3 24.4L21 20L24.3 15.6C24.4591 15.3878 24.5275 15.1211 24.49 14.8586C24.4524 14.596 24.3122 14.3591 24.1 14.2C23.8878 14.0409 23.6211 13.9725 23.3586 14.01C23.096 14.0476 22.8591 14.1878 22.7 14.4L19.75 18.333L16.8 14.4Z" fill="black"/>
</svg>
