<svg width="36" height="36" viewBox="0 0 36 36" fill="none" xmlns="http://www.w3.org/2000/svg">
<path d="M13.3163 23.0563C13.6335 23.2803 14.0125 23.4001 14.4007 23.3991C14.789 23.3981 15.1674 23.2765 15.4835 23.0509C15.8039 22.8169 16.0469 22.4929 16.1801 22.1185L16.9847 19.6471C17.1912 19.0277 17.5388 18.4647 18.0002 18.0027C18.4616 17.5406 19.0241 17.1922 19.6433 16.9849L22.1471 16.1749C22.5173 16.0409 22.8361 15.7941 23.0586 15.4693C23.281 15.1445 23.396 14.7581 23.3873 14.3645C23.3785 13.9709 23.2465 13.5899 23.0098 13.2753C22.7731 12.9607 22.4437 12.7284 22.0679 12.6109L19.5929 11.8045C18.9731 11.5983 18.4098 11.2507 17.9474 10.7893C17.4851 10.3279 17.1364 9.76527 16.9289 9.1459L16.1153 6.6475C15.9843 6.27943 15.7418 5.96134 15.4216 5.73748C15.1014 5.51363 14.7194 5.39514 14.3287 5.39851C13.938 5.40187 13.5581 5.52692 13.2418 5.75626C12.9255 5.9856 12.6885 6.30783 12.5639 6.6781L11.7413 9.1981C11.5348 9.80086 11.1942 10.3489 10.7453 10.801C10.2963 11.2531 9.7506 11.5974 9.14928 11.8081L6.64728 12.6127C6.27936 12.744 5.96143 12.9866 5.73765 13.3068C5.51387 13.627 5.39533 14.0089 5.3985 14.3995C5.40167 14.7902 5.52638 15.1701 5.75532 15.4867C5.98426 15.8032 6.30608 16.0406 6.67608 16.1659L9.14928 16.9669C9.77221 17.1736 10.3379 17.5237 10.8009 17.9888C11.2639 18.454 11.6113 19.0214 11.8151 19.6453L12.6287 22.1491C12.7583 22.5163 12.9995 22.8331 13.3163 23.0563ZM13.4693 9.7093L14.4179 7.2307L15.2099 9.7093C15.5042 10.5968 16.0021 11.4032 16.6638 12.0639C17.3255 12.7247 18.1325 13.2214 19.0205 13.5145L21.5513 14.4685L19.0637 15.2731C18.1765 15.5685 17.3704 16.0667 16.7095 16.7282C16.0487 17.3897 15.5512 18.1962 15.2567 19.0837L14.3153 21.5641L13.5071 19.0819C13.2167 18.1948 12.7236 17.3875 12.0671 16.7239C11.4023 16.0622 10.5943 15.5621 9.70548 15.2623L7.22508 14.3227L9.71988 13.5127C10.5958 13.2093 11.3903 12.7086 12.0419 12.0493C12.6885 11.3873 13.1765 10.5872 13.4693 9.7093ZM24.3629 30.3319C24.547 30.4614 24.7587 30.5462 24.9813 30.5797C25.2039 30.6132 25.4312 30.5945 25.6452 30.525C25.8593 30.4555 26.0543 30.3371 26.2147 30.1793C26.3752 30.0214 26.4967 29.8284 26.5697 29.6155L27.0161 28.2439C27.1128 27.9597 27.2728 27.7012 27.4841 27.4879C27.6965 27.2719 27.9557 27.1135 28.2401 27.0199L29.6297 26.5663C29.9164 26.4673 30.1646 26.2803 30.3388 26.032C30.513 25.7836 30.6043 25.4866 30.5997 25.1833C30.5951 24.88 30.4949 24.5859 30.3132 24.3429C30.1316 24.1 29.8779 23.9206 29.5883 23.8303L28.2131 23.3803C27.9288 23.2851 27.6703 23.1253 27.458 22.9136C27.2456 22.7019 27.0852 22.4439 26.9891 22.1599L26.5355 20.7685C26.4381 20.4823 26.2531 20.2341 26.0067 20.0589C25.7603 19.8837 25.4651 19.7905 25.1628 19.7925C24.8605 19.7945 24.5665 19.8916 24.3225 20.07C24.0784 20.2484 23.8967 20.4991 23.8031 20.7865L23.3585 22.1581C23.2666 22.4403 23.1108 22.6974 22.9031 22.9094C22.6955 23.1214 22.4417 23.2826 22.1615 23.3803L20.7701 23.8339C20.4838 23.9309 20.2353 24.1156 20.0598 24.3617C19.8843 24.6079 19.7907 24.903 19.7923 25.2053C19.7939 25.5076 19.8906 25.8017 20.0687 26.046C20.2467 26.2903 20.4972 26.4723 20.7845 26.5663L22.1579 27.0109C22.4459 27.1081 22.7051 27.2683 22.9175 27.4807C23.1317 27.6949 23.2901 27.9541 23.3819 28.2403L23.8373 29.6335C23.9359 29.9151 24.1196 30.1592 24.3629 30.3319ZM22.7195 25.3045L22.3973 25.2001L22.7285 25.0849C23.273 24.8935 23.7668 24.5806 24.1722 24.1698C24.5777 23.7591 24.8842 23.2613 25.0685 22.7143L25.1729 22.3939L25.2809 22.7197C25.4647 23.2714 25.7744 23.7727 26.1856 24.1838C26.5967 24.595 27.098 24.9047 27.6497 25.0885L28.0007 25.2019L27.6767 25.3099C27.1239 25.4942 26.6218 25.8049 26.2102 26.2174C25.7987 26.6299 25.4891 27.1327 25.3061 27.6859L25.1999 28.0117L25.0955 27.6877C24.9127 27.1329 24.6026 26.6286 24.19 26.2151C23.7774 25.8016 23.2738 25.4904 22.7195 25.3063" fill="#424242"/>
</svg>
