<svg width="25" height="24" viewBox="0 0 25 24" fill="none" xmlns="http://www.w3.org/2000/svg">
<path fill-rule="evenodd" clip-rule="evenodd" d="M20.584 7.57224C20.174 7.57224 19.834 7.23224 19.834 6.82224V5.67824C18.167 7.30824 13.872 10.8462 5.81198 13.5332C5.73683 13.5598 5.65769 13.5733 5.57798 13.5732C5.40078 13.5719 5.22978 13.5079 5.09528 13.3925C4.96078 13.2771 4.87147 13.1179 4.84319 12.9429C4.81492 12.768 4.84949 12.5887 4.9408 12.4368C5.0321 12.285 5.17423 12.1703 5.34198 12.1132C13.139 9.51124 17.292 6.05124 18.811 4.57324H17.584C17.174 4.57324 16.834 4.23324 16.834 3.82324C16.834 3.41324 17.174 3.07324 17.584 3.07324H20.584C20.994 3.07324 21.334 3.41324 21.334 3.82324V6.82324C21.334 7.23324 20.994 7.57224 20.584 7.57224ZM5.57798 13.5732H5.58198H5.57198H5.57798ZM20.084 22.5732C19.554 22.5732 19.234 22.5732 18.914 22.4432C18.484 22.2632 18.144 21.9232 17.964 21.4932C17.834 21.1732 17.834 20.8532 17.834 20.3232V11.3232C17.834 10.7932 17.834 10.4732 17.964 10.1532C18.144 9.72324 18.484 9.38324 18.914 9.20324C19.234 9.07324 19.554 9.07324 20.084 9.07324C20.614 9.07324 20.934 9.07324 21.254 9.20324C21.684 9.38324 22.024 9.72324 22.204 10.1532C22.334 10.4732 22.334 10.7932 22.334 11.3232V20.3232C22.334 20.8532 22.334 21.1732 22.204 21.4932C22.024 21.9232 21.684 22.2632 21.254 22.4432C20.934 22.5732 20.614 22.5732 20.084 22.5732ZM20.084 10.5732C19.824 10.5732 19.554 10.5732 19.484 10.5932C19.424 10.6132 19.384 10.6632 19.354 10.7232C19.334 10.7832 19.334 11.0532 19.334 11.3232V20.3232C19.334 20.5832 19.334 20.8532 19.354 20.9232C19.374 20.9832 19.424 21.0332 19.484 21.0532C19.614 21.0932 20.544 21.0932 20.684 21.0532C20.744 21.0332 20.784 20.9832 20.814 20.9232C20.834 20.8632 20.834 20.5932 20.834 20.3232V11.3232C20.834 11.0632 20.834 10.7932 20.814 10.7232C20.8036 10.6931 20.7865 10.6658 20.764 10.6433C20.7414 10.6207 20.7141 10.6036 20.684 10.5932C20.624 10.5732 20.354 10.5732 20.084 10.5732ZM13.084 22.5732C12.554 22.5732 12.234 22.5732 11.914 22.4432C11.484 22.2632 11.144 21.9232 10.964 21.4932C10.834 21.1732 10.834 20.8532 10.834 20.3232V14.8232C10.834 14.2932 10.834 13.9732 10.964 13.6532C11.144 13.2232 11.484 12.8832 11.914 12.7032C12.234 12.5732 12.554 12.5732 13.084 12.5732C13.614 12.5732 13.934 12.5732 14.254 12.7032C14.684 12.8832 15.024 13.2232 15.204 13.6532C15.334 13.9732 15.334 14.2932 15.334 14.8232V20.3232C15.334 20.8532 15.334 21.1732 15.204 21.4932C15.024 21.9232 14.684 22.2632 14.254 22.4432C13.934 22.5732 13.614 22.5732 13.084 22.5732ZM13.084 14.0732C12.824 14.0732 12.554 14.0732 12.484 14.0932C12.424 14.1132 12.384 14.1632 12.354 14.2232C12.334 14.2832 12.334 14.5532 12.334 14.8232V20.3232C12.334 20.5832 12.334 20.8532 12.354 20.9232C12.374 20.9832 12.424 21.0332 12.484 21.0532C12.614 21.0932 13.544 21.0932 13.684 21.0532C13.744 21.0332 13.784 20.9832 13.814 20.9232C13.834 20.8632 13.834 20.5932 13.834 20.3232V14.8232C13.834 14.5632 13.834 14.2932 13.814 14.2232C13.8036 14.1931 13.7865 14.1658 13.764 14.1433C13.7414 14.1207 13.7141 14.1036 13.684 14.0932C13.624 14.0732 13.354 14.0732 13.084 14.0732ZM4.91398 22.4432C5.23398 22.5732 5.55398 22.5732 6.08398 22.5732C6.61398 22.5732 6.93398 22.5732 7.25398 22.4432C7.68398 22.2632 8.02398 21.9232 8.20398 21.4932C8.33398 21.1732 8.33398 20.8532 8.33398 20.3232V17.3232C8.33398 16.7932 8.33398 16.4732 8.20398 16.1532C8.02398 15.7232 7.68398 15.3832 7.25398 15.2032C6.93398 15.0732 6.61398 15.0732 6.08398 15.0732C5.55398 15.0732 5.23398 15.0732 4.91398 15.2032C4.48398 15.3832 4.14398 15.7232 3.96398 16.1532C3.83398 16.4732 3.83398 16.7932 3.83398 17.3232V20.3232C3.83398 20.8532 3.83398 21.1732 3.96398 21.4932C4.14398 21.9232 4.48398 22.2632 4.91398 22.4432ZM5.48398 16.5932C5.55398 16.5732 5.82398 16.5732 6.08398 16.5732C6.35398 16.5732 6.62398 16.5732 6.68398 16.5932C6.74398 16.6132 6.79398 16.6632 6.81398 16.7232C6.83398 16.7932 6.83398 17.0632 6.83398 17.3232V20.3232C6.83398 20.5932 6.83398 20.8632 6.81398 20.9232C6.78398 20.9832 6.74398 21.0332 6.68398 21.0532C6.54398 21.0932 5.61398 21.0932 5.48398 21.0532C5.45388 21.0429 5.42652 21.0257 5.404 21.0032C5.38148 20.9807 5.36438 20.9534 5.35398 20.9232C5.33398 20.8532 5.33398 20.5832 5.33398 20.3232V17.3232C5.33398 17.0532 5.33398 16.7832 5.35398 16.7232C5.38398 16.6632 5.42398 16.6132 5.48398 16.5932Z" fill="#262626"/>
</svg>
