<svg width="28" height="28" viewBox="0 0 28 28" fill="none" xmlns="http://www.w3.org/2000/svg">
<path fill-rule="evenodd" clip-rule="evenodd" d="M23.5941 8.8225C23.1164 8.8225 22.7203 8.42636 22.7203 7.94865V6.61574C20.778 8.51491 15.7737 12.6372 6.38276 15.7679C6.2952 15.7988 6.20299 15.8146 6.11012 15.8145C5.90366 15.8129 5.70441 15.7383 5.5477 15.6039C5.39099 15.4695 5.28694 15.2839 5.25399 15.0801C5.22104 14.8763 5.26133 14.6674 5.36771 14.4904C5.47409 14.3135 5.63969 14.1799 5.83515 14.1134C14.9197 11.0817 19.7585 7.05034 21.5283 5.32827H20.0987C19.621 5.32827 19.2249 4.93212 19.2249 4.45442C19.2249 3.97671 19.621 3.58057 20.0987 3.58057L23.5941 3.58057C24.0718 3.58057 24.468 3.97671 24.468 4.45442V7.94982C24.468 8.42752 24.0718 8.8225 23.5941 8.8225ZM6.11012 15.8145H6.11478H6.10313H6.11012ZM23.0116 26.3007C22.394 26.3007 22.0212 26.3007 21.6483 26.1492C21.1473 25.9395 20.7512 25.5433 20.5415 25.0423C20.39 24.6695 20.39 24.2967 20.39 23.6791L20.39 13.1929C20.39 12.5754 20.39 12.2026 20.5415 11.8297C20.7512 11.3287 21.1473 10.9326 21.6483 10.7228C22.0212 10.5714 22.394 10.5714 23.0116 10.5714C23.6291 10.5714 24.0019 10.5714 24.3748 10.7228C24.8758 10.9326 25.2719 11.3287 25.4816 11.8297C25.6331 12.2026 25.6331 12.5754 25.6331 13.1929L25.6331 23.6791C25.6331 24.2967 25.6331 24.6695 25.4816 25.0423C25.2719 25.5433 24.8758 25.9395 24.3748 26.1492C24.0019 26.3007 23.6291 26.3007 23.0116 26.3007ZM23.0116 12.3191C22.7086 12.3191 22.394 12.3191 22.3125 12.3424C22.2426 12.3657 22.196 12.4239 22.161 12.4938C22.1377 12.5638 22.1377 12.8783 22.1377 13.1929L22.1377 23.6791C22.1377 23.9821 22.1377 24.2967 22.161 24.3782C22.1843 24.4481 22.2426 24.5064 22.3125 24.5297C22.4639 24.5763 23.5475 24.5763 23.7106 24.5297C23.7805 24.5064 23.8271 24.4481 23.8621 24.3782C23.8854 24.3083 23.8854 23.9937 23.8854 23.6791L23.8854 13.1929C23.8854 12.89 23.8854 12.5754 23.8621 12.4938C23.85 12.4588 23.8301 12.4269 23.8038 12.4007C23.7776 12.3744 23.7457 12.3545 23.7106 12.3424C23.6407 12.3191 23.3261 12.3191 23.0116 12.3191ZM14.8556 26.3007C14.2381 26.3007 13.8653 26.3007 13.4924 26.1492C12.9914 25.9395 12.5953 25.5433 12.3855 25.0423C12.2341 24.6695 12.2341 24.2967 12.2341 23.6791V17.2709C12.2341 16.6534 12.2341 16.2805 12.3855 15.9077C12.5953 15.4067 12.9914 15.0105 13.4924 14.8008C13.8653 14.6493 14.2381 14.6493 14.8556 14.6493C15.4731 14.6493 15.846 14.6493 16.2188 14.8008C16.7198 15.0105 17.116 15.4067 17.3257 15.9077C17.4772 16.2805 17.4772 16.6534 17.4772 17.2709V23.6791C17.4772 24.2967 17.4772 24.6695 17.3257 25.0423C17.116 25.5433 16.7198 25.9395 16.2188 26.1492C15.846 26.3007 15.4731 26.3007 14.8556 26.3007ZM14.8556 16.397C14.5527 16.397 14.2381 16.397 14.1565 16.4203C14.0866 16.4436 14.04 16.5019 14.0051 16.5718C13.9818 16.6417 13.9818 16.9563 13.9818 17.2709V23.6791C13.9818 23.9821 13.9818 24.2967 14.0051 24.3782C14.0284 24.4481 14.0866 24.5064 14.1565 24.5297C14.308 24.5763 15.3916 24.5763 15.5547 24.5297C15.6246 24.5064 15.6712 24.4481 15.7062 24.3782C15.7295 24.3083 15.7295 23.9937 15.7295 23.6791V17.2709C15.7295 16.968 15.7295 16.6534 15.7062 16.5718C15.6941 16.5367 15.6741 16.5049 15.6479 16.4786C15.6216 16.4524 15.5898 16.4325 15.5547 16.4203C15.4848 16.397 15.1702 16.397 14.8556 16.397ZM5.33647 26.1492C5.70931 26.3007 6.08216 26.3007 6.69968 26.3007C7.3172 26.3007 7.69004 26.3007 8.06288 26.1492C8.56389 25.9395 8.96004 25.5433 9.16976 25.0423C9.32123 24.6695 9.32123 24.2967 9.32123 23.6791V20.1837C9.32123 19.5662 9.32123 19.1934 9.16976 18.8205C8.96004 18.3195 8.56389 17.9234 8.06288 17.7136C7.69004 17.5622 7.3172 17.5622 6.69968 17.5622C6.08216 17.5622 5.70931 17.5622 5.33647 17.7136C4.83546 17.9234 4.43932 18.3195 4.22959 18.8205C4.07813 19.1934 4.07813 19.5662 4.07813 20.1837V23.6791C4.07813 24.2967 4.07813 24.6695 4.22959 25.0423C4.43932 25.5433 4.83546 25.9395 5.33647 26.1492ZM6.0006 19.3332C6.08216 19.3099 6.39674 19.3099 6.69968 19.3099C7.01426 19.3099 7.32885 19.3099 7.39876 19.3332C7.46867 19.3565 7.52692 19.4147 7.55023 19.4846C7.57353 19.5662 7.57353 19.8808 7.57353 20.1837V23.6791C7.57353 23.9937 7.57353 24.3083 7.55023 24.3782C7.51527 24.4481 7.46867 24.5064 7.39876 24.5297C7.23564 24.5763 6.15206 24.5763 6.0006 24.5297C5.96552 24.5176 5.93365 24.4976 5.90741 24.4714C5.88116 24.4452 5.86124 24.4133 5.84913 24.3782C5.82583 24.2967 5.82583 23.9821 5.82583 23.6791V20.1837C5.82583 19.8691 5.82583 19.5546 5.84913 19.4846C5.88408 19.4147 5.93069 19.3565 6.0006 19.3332Z" fill="white"/>
</svg>
