<svg width="16" height="17" viewBox="0 0 16 17" fill="none" xmlns="http://www.w3.org/2000/svg">
<path d="M12.8539 4.83332L3.8539 13.8333C3.76008 13.9271 3.63283 13.9798 3.50015 13.9798C3.36746 13.9798 3.24022 13.9271 3.1464 13.8333C3.05258 13.7395 2.99987 13.6123 2.99987 13.4796C2.99987 13.3469 3.05258 13.2196 3.1464 13.1258L12.1464 4.12582C12.2401 4.032 12.3673 3.97926 12.4999 3.9792C12.6325 3.97914 12.7598 4.03177 12.8536 4.12551C12.9474 4.21925 13.0001 4.34641 13.0002 4.47904C13.0003 4.61166 12.9476 4.73887 12.8539 4.8327V4.83332ZM3.1589 7.32082C2.73695 6.89879 2.49994 6.32644 2.5 5.72966C2.50006 5.13289 2.73718 4.56058 3.15921 4.13863C3.58123 3.71669 4.15359 3.47968 4.75037 3.47974C5.34714 3.47979 5.91945 3.71692 6.3414 4.13895C6.76334 4.56097 7.00035 5.13333 7.00029 5.7301C7.00023 6.32688 6.76311 6.89919 6.34108 7.32113C5.91906 7.74308 5.3467 7.98009 4.74993 7.98003C4.15315 7.97997 3.58084 7.74285 3.1589 7.32082ZM3.50015 5.73082C3.50031 5.93635 3.55115 6.13867 3.64816 6.31986C3.74518 6.50106 3.88537 6.65553 4.05634 6.76961C4.2273 6.88369 4.42375 6.95385 4.62831 6.97388C4.83286 6.99392 5.03919 6.9632 5.22904 6.88446C5.41889 6.80572 5.58639 6.68138 5.71672 6.52245C5.84704 6.36352 5.93617 6.17491 5.9762 5.97332C6.01624 5.77173 6.00595 5.56337 5.94624 5.36671C5.88653 5.17004 5.77925 4.99113 5.6339 4.84582C5.45901 4.67098 5.23619 4.55195 4.99363 4.50378C4.75107 4.45561 4.49968 4.48047 4.27125 4.57521C4.04282 4.66995 3.84763 4.83032 3.71037 5.03603C3.57311 5.24173 3.49995 5.48353 3.50015 5.73082ZM13.5001 12.2308C13.5 12.7514 13.3194 13.2558 12.9891 13.6581C12.6588 14.0604 12.1992 14.3357 11.6886 14.4372C11.1781 14.5386 10.6481 14.4599 10.1891 14.2144C9.73007 13.9689 9.37036 13.5719 9.17125 13.0909C8.97214 12.61 8.94595 12.0749 9.09715 11.5768C9.24835 11.0787 9.56758 10.6484 10.0005 10.3593C10.4333 10.0701 10.953 9.94006 11.4711 9.99117C11.9891 10.0423 12.4734 10.2714 12.8414 10.6396C13.051 10.8481 13.2171 11.0961 13.3302 11.3692C13.4433 11.6423 13.501 11.9352 13.5001 12.2308ZM12.5001 12.2308C12.5002 11.9416 12.4 11.6614 12.2166 11.4378C12.0332 11.2142 11.7779 11.0611 11.4943 11.0046C11.2106 10.9481 10.9162 10.9918 10.6611 11.128C10.406 11.2643 10.2061 11.4848 10.0954 11.752C9.98466 12.0192 9.97001 12.3164 10.0539 12.5932C10.1378 12.87 10.3151 13.1091 10.5555 13.2698C10.7959 13.4305 11.0847 13.5029 11.3725 13.4746C11.6603 13.4463 11.9294 13.319 12.1339 13.1146C12.2503 12.9988 12.3427 12.8611 12.4055 12.7094C12.4684 12.5577 12.5006 12.395 12.5001 12.2308Z" fill="#EBEBEB"/>
</svg>
