<svg width="20" height="20" viewBox="0 0 20 20" fill="none" xmlns="http://www.w3.org/2000/svg">
<path d="M16.0674 4.81551L4.81737 16.0655C4.7001 16.1828 4.54104 16.2487 4.37518 16.2487C4.20933 16.2487 4.05027 16.1828 3.933 16.0655C3.81572 15.9482 3.74984 15.7892 3.74984 15.6233C3.74984 15.4575 3.81572 15.2984 3.933 15.1811L15.183 3.93114C15.3002 3.81386 15.4591 3.74794 15.6249 3.74787C15.7907 3.74779 15.9497 3.81358 16.067 3.93075C16.1843 4.04792 16.2502 4.20688 16.2503 4.37266C16.2503 4.53844 16.1845 4.69746 16.0674 4.81473V4.81551ZM3.94862 7.92489C3.42119 7.39736 3.12493 6.68191 3.125 5.93594C3.12507 5.18997 3.42148 4.47458 3.94901 3.94716C4.47654 3.41973 5.19199 3.12346 5.93796 3.12354C6.68393 3.12361 7.39932 3.42001 7.92675 3.94755C8.45417 4.47508 8.75044 5.19052 8.75037 5.93649C8.75029 6.68246 8.45389 7.39785 7.92635 7.92528C7.39882 8.45271 6.68338 8.74897 5.93741 8.7489C5.19144 8.74883 4.47605 8.45242 3.94862 7.92489ZM4.37518 5.93739C4.37539 6.1943 4.43893 6.4472 4.5602 6.67369C4.68147 6.90018 4.85672 7.09328 5.07042 7.23588C5.28412 7.37848 5.52969 7.46618 5.78538 7.49122C6.04107 7.51626 6.29899 7.47787 6.5363 7.37944C6.77361 7.28101 6.98299 7.12559 7.1459 6.92693C7.3088 6.72827 7.42021 6.49251 7.47025 6.24051C7.5203 5.98852 7.50743 5.72808 7.4328 5.48225C7.35816 5.23641 7.22406 5.01278 7.04237 4.83114C6.82376 4.61259 6.54523 4.4638 6.24204 4.40359C5.93884 4.34338 5.6246 4.37445 5.33906 4.49288C5.05353 4.61131 4.80954 4.81177 4.63797 5.0689C4.46639 5.32603 4.37494 5.62827 4.37518 5.93739ZM16.8752 14.0624C16.875 14.7131 16.6493 15.3436 16.2364 15.8465C15.8235 16.3493 15.249 16.6935 14.6108 16.8203C13.9726 16.9471 13.3102 16.8487 12.7364 16.5419C12.1626 16.235 11.7129 15.7387 11.4641 15.1375C11.2152 14.5363 11.1824 13.8674 11.3714 13.2448C11.5604 12.6222 11.9595 12.0844 12.5006 11.723C13.0416 11.3616 13.6913 11.1989 14.3388 11.2628C14.9864 11.3267 15.5917 11.6132 16.0517 12.0733C16.3137 12.3339 16.5214 12.6439 16.6627 12.9854C16.8041 13.3268 16.8763 13.6929 16.8752 14.0624ZM15.6252 14.0624C15.6253 13.7009 15.5 13.3506 15.2707 13.0711C15.0414 12.7916 14.7224 12.6002 14.3678 12.5296C14.0133 12.459 13.6452 12.5136 13.3264 12.6839C13.0075 12.8543 12.7576 13.1299 12.6192 13.4639C12.4808 13.7978 12.4625 14.1694 12.5674 14.5154C12.6723 14.8613 12.8938 15.1602 13.1944 15.3611C13.4949 15.562 13.8558 15.6524 14.2156 15.6171C14.5754 15.5817 14.9117 15.4227 15.1674 15.1671C15.3129 15.0224 15.4283 14.8502 15.5069 14.6606C15.5855 14.471 15.6257 14.2676 15.6252 14.0624Z" fill="#335CFF"/>
</svg>
