<svg width="20" height="20" viewBox="0 0 20 20" fill="none" xmlns="http://www.w3.org/2000/svg">
<path fill-rule="evenodd" clip-rule="evenodd" d="M9.95797 1.04175H10.0446C10.7938 1.04175 11.418 1.04175 11.913 1.10841C12.4363 1.17841 12.9088 1.33341 13.288 1.71258C13.668 2.09258 13.823 2.56508 13.893 3.08758C13.943 3.45425 13.9555 3.89091 13.9588 4.39591C14.4988 4.41341 14.9805 4.44591 15.4088 4.50258C16.3855 4.63425 17.1763 4.91091 17.8005 5.53425C18.4238 6.15841 18.7005 6.94925 18.8321 7.92591C18.9596 8.87591 18.9596 10.0884 18.9596 11.6201V11.7134C18.9596 13.2451 18.9596 14.4584 18.8321 15.4076C18.7005 16.3842 18.4238 17.1751 17.8005 17.7992C17.1763 18.4226 16.3855 18.6992 15.4088 18.8309C14.4588 18.9584 13.2463 18.9584 11.7146 18.9584H8.28797C6.7563 18.9584 5.54297 18.9584 4.5938 18.8309C3.61714 18.6992 2.8263 18.4226 2.20214 17.7992C1.5788 17.1751 1.30214 16.3842 1.17047 15.4076C1.04297 14.4576 1.04297 13.2451 1.04297 11.7134V11.6201C1.04297 10.0884 1.04297 8.87508 1.17047 7.92591C1.30214 6.94925 1.5788 6.15841 2.20214 5.53425C2.8263 4.91091 3.61714 4.63425 4.5938 4.50258C5.07513 4.44361 5.55903 4.40801 6.0438 4.39591C6.04714 3.89091 6.06047 3.45425 6.10964 3.08758C6.17964 2.56508 6.33464 2.09258 6.7138 1.71258C7.0938 1.33341 7.5663 1.17925 8.0888 1.10841C8.58464 1.04175 9.20963 1.04175 9.95797 1.04175ZM7.29464 4.37675C7.60964 4.37508 7.94075 4.37453 8.28797 4.37508H11.7146C12.0619 4.37508 12.393 4.37564 12.708 4.37675C12.7046 3.90175 12.693 3.54341 12.6546 3.25425C12.6021 2.87008 12.513 2.70508 12.4046 2.59675C12.2963 2.48841 12.1313 2.39925 11.7463 2.34675C11.3446 2.29341 10.8046 2.29175 10.0013 2.29175C9.19797 2.29175 8.65797 2.29341 8.25547 2.34758C7.8713 2.39925 7.7063 2.48841 7.59797 2.59758C7.48964 2.70675 7.40047 2.87008 7.34797 3.25425C7.30964 3.54258 7.29797 3.90091 7.29464 4.37675ZM4.75964 5.74175C3.9213 5.85425 3.43797 6.06591 3.08464 6.41841C2.73297 6.77091 2.5213 7.25425 2.4088 8.09258C2.2938 8.94841 2.29214 10.0776 2.29214 11.6667C2.29214 13.2559 2.2938 14.3851 2.4088 15.2417C2.5213 16.0792 2.73297 16.5626 3.08547 16.9151C3.43797 17.2676 3.9213 17.4792 4.75964 17.5917C5.6163 17.7067 6.74464 17.7084 8.3338 17.7084H11.6671C13.2563 17.7084 14.3855 17.7067 15.2421 17.5917C16.0796 17.4792 16.563 17.2676 16.9155 16.9151C17.268 16.5626 17.4796 16.0792 17.5921 15.2409C17.7071 14.3851 17.7088 13.2559 17.7088 11.6667C17.7088 10.0776 17.7071 8.94925 17.5921 8.09175C17.4796 7.25425 17.268 6.77091 16.9155 6.41841C16.563 6.06591 16.0796 5.85425 15.2413 5.74175C14.3855 5.62675 13.2563 5.62508 11.6671 5.62508H8.3338C6.74464 5.62508 5.61714 5.62675 4.75964 5.74175ZM10.0013 7.70841C10.1671 7.70841 10.326 7.77426 10.4432 7.89147C10.5605 8.00868 10.6263 8.16765 10.6263 8.33341V8.34175C11.5338 8.57008 12.293 9.28591 12.293 10.2776C12.293 10.4433 12.2271 10.6023 12.1099 10.7195C11.9927 10.8367 11.8337 10.9026 11.668 10.9026C11.5022 10.9026 11.3432 10.8367 11.226 10.7195C11.1088 10.6023 11.043 10.4433 11.043 10.2776C11.043 9.95758 10.688 9.51425 10.0013 9.51425C9.31464 9.51425 8.95964 9.95758 8.95964 10.2776C8.95964 10.5976 9.31464 11.0417 10.0013 11.0417C11.1555 11.0417 12.293 11.8417 12.293 13.0559C12.293 14.0476 11.5338 14.7626 10.6263 14.9917V15.0001C10.6263 15.1658 10.5605 15.3248 10.4432 15.442C10.326 15.5592 10.1671 15.6251 10.0013 15.6251C9.83554 15.6251 9.67657 15.5592 9.55936 15.442C9.44215 15.3248 9.3763 15.1658 9.3763 15.0001V14.9917C8.4688 14.7634 7.70964 14.0476 7.70964 13.0559C7.70964 12.8902 7.77548 12.7312 7.89269 12.614C8.0099 12.4968 8.16887 12.4309 8.33464 12.4309C8.5004 12.4309 8.65937 12.4968 8.77658 12.614C8.89379 12.7312 8.95964 12.8902 8.95964 13.0559C8.95964 13.3759 9.31464 13.8192 10.0013 13.8192C10.688 13.8192 11.043 13.3759 11.043 13.0559C11.043 12.7359 10.688 12.2917 10.0013 12.2917C8.84714 12.2917 7.70964 11.4917 7.70964 10.2776C7.70964 9.28591 8.4688 8.57008 9.3763 8.34175V8.33341C9.3763 8.16765 9.44215 8.00868 9.55936 7.89147C9.67657 7.77426 9.83554 7.70841 10.0013 7.70841Z" fill="#335CFF"/>
</svg>
