<svg width="24" height="24" viewBox="0 0 24 24" fill="none" xmlns="http://www.w3.org/2000/svg">
<path d="M20.8656 10.45C20.5628 8.71768 19.7592 7.11203 18.554 5.83141C17.3488 4.55079 15.7948 3.65132 14.084 3.24411C12.3732 2.83691 10.5806 2.93983 8.92771 3.54014C7.27478 4.14045 5.83394 5.21186 4.78319 6.622C3.73245 8.03213 3.11784 9.71921 3.01531 11.4748C2.91278 13.2303 3.32682 14.9775 4.20626 16.5004C5.08571 18.0232 6.39204 19.2551 7.96384 20.0437C9.53565 20.8324 11.3041 21.1433 13.0506 20.938" stroke="#EBEBEB" stroke-width="1.5" stroke-linecap="round" stroke-linejoin="round"/>
<path d="M12 7V12L13.5 13.5M21 15H18.5C18.1022 15 17.7206 15.158 17.4393 15.4393C17.158 15.7206 17 16.1022 17 16.5C17 16.8978 17.158 17.2794 17.4393 17.5607C17.7206 17.842 18.1022 18 18.5 18H19.5C19.8978 18 20.2794 18.158 20.5607 18.4393C20.842 18.7206 21 19.1022 21 19.5C21 19.8978 20.842 20.2794 20.5607 20.5607C20.2794 20.842 19.8978 21 19.5 21H17M19 21V22M19 14V15" stroke="#EBEBEB" stroke-width="1.5" stroke-linecap="round" stroke-linejoin="round"/>
</svg>
