<svg width="20" height="20" viewBox="0 0 20 20" fill="none" xmlns="http://www.w3.org/2000/svg">
<path d="M17.388 8.70824C17.1357 7.26465 16.466 5.92661 15.4616 4.85943C14.4573 3.79225 13.1623 3.04268 11.7367 2.70335C10.311 2.36401 8.8172 2.44977 7.43976 2.95004C6.06232 3.4503 4.86162 4.34314 3.98599 5.51825C3.11037 6.69336 2.5982 8.09926 2.51276 9.56223C2.42732 11.0252 2.77235 12.4812 3.50522 13.7502C4.23809 15.0193 5.3267 16.0458 6.63654 16.703C7.94638 17.3602 9.42006 17.6193 10.8755 17.4482" stroke="#335CFF" stroke-width="1.5" stroke-linecap="round" stroke-linejoin="round"/>
<path d="M10 5.83325V9.99992L11.25 11.2499M17.5 12.4999H15.4167C15.0851 12.4999 14.7672 12.6316 14.5328 12.866C14.2984 13.1005 14.1667 13.4184 14.1667 13.7499C14.1667 14.0814 14.2984 14.3994 14.5328 14.6338C14.7672 14.8682 15.0851 14.9999 15.4167 14.9999H16.25C16.5815 14.9999 16.8995 15.1316 17.1339 15.366C17.3683 15.6005 17.5 15.9184 17.5 16.2499C17.5 16.5814 17.3683 16.8994 17.1339 17.1338C16.8995 17.3682 16.5815 17.4999 16.25 17.4999H14.1667M15.8333 17.4999V18.3333M15.8333 11.6666V12.4999" stroke="#335CFF" stroke-width="1.5" stroke-linecap="round" stroke-linejoin="round"/>
</svg>
