<svg width="303" height="118" viewBox="0 0 303 118" fill="none" xmlns="http://www.w3.org/2000/svg">
<rect x="0.49924" y="0.812411" width="147.165" height="26.8251" rx="13.4125" stroke="#335CFF" stroke-opacity="0.59" stroke-width="0.570746"/>
<path d="M17.9249 11.6513C17.4209 11.1473 16.534 10.7974 15.7188 10.7751M15.7188 10.7751C14.749 10.749 13.8807 11.1882 13.8807 12.3863C13.8807 14.5924 17.9249 13.4894 17.9249 15.6955C17.9249 16.9541 16.8484 17.4947 15.7188 17.4538M15.7188 10.7751V9.44525M13.5127 16.431C13.9869 17.063 14.868 17.423 15.7188 17.4538M15.7188 17.4538V19.0046" stroke="#335CFF" stroke-width="1.06215" stroke-linecap="round" stroke-linejoin="round"/>
<path d="M25.2537 14.9693C25.418 14.8293 25.5976 14.6771 25.7924 14.5127C25.9934 14.3423 26.179 14.1596 26.3495 13.9648C26.526 13.77 26.6752 13.5661 26.797 13.353C26.9187 13.1338 26.9826 12.8964 26.9887 12.6407C27.0009 12.2511 26.8883 11.9527 26.6509 11.7458C26.4134 11.5327 26.0999 11.4261 25.7103 11.4261C25.3998 11.4261 25.1289 11.4901 24.8975 11.6179C24.6662 11.7458 24.514 11.9314 24.4409 12.175H23.5917C23.6343 11.9253 23.7225 11.7092 23.8565 11.5266C23.9965 11.3379 24.1639 11.1826 24.3587 11.0609C24.5596 10.9391 24.7788 10.8478 25.0162 10.7869C25.2537 10.726 25.4972 10.6956 25.7468 10.6956C26.0451 10.6956 26.3191 10.7382 26.5687 10.8234C26.8183 10.9026 27.0344 11.0213 27.217 11.1796C27.3997 11.3379 27.5397 11.5357 27.6371 11.7732C27.7406 12.0045 27.7923 12.2693 27.7923 12.5676C27.7923 12.8659 27.7467 13.1338 27.6554 13.3712C27.5701 13.6087 27.4514 13.8278 27.2992 14.0287C27.1531 14.2296 26.9857 14.4184 26.797 14.5949C26.6082 14.7715 26.4134 14.948 26.2125 15.1246L24.5779 16.5035H27.8654V17.2249H23.4273V16.5674L25.2537 14.9693ZM33.7957 14.0013C33.7957 14.4153 33.7531 14.8202 33.6679 15.2159C33.5887 15.6116 33.4518 15.9647 33.2569 16.2752C33.0621 16.5796 32.8034 16.8262 32.4807 17.0149C32.1581 17.2036 31.7563 17.298 31.2753 17.298C30.7883 17.298 30.3834 17.2036 30.0608 17.0149C29.7381 16.8262 29.4794 16.5796 29.2846 16.2752C29.0897 15.9647 28.9528 15.6177 28.8736 15.2342C28.7945 14.8506 28.7549 14.4397 28.7549 14.0013C28.7549 13.563 28.7945 13.1521 28.8736 12.7685C28.9528 12.3789 29.0897 12.0319 29.2846 11.7275C29.4794 11.4231 29.7381 11.1765 30.0608 10.9878C30.3834 10.793 30.7883 10.6956 31.2753 10.6956C31.7563 10.6956 32.1581 10.7899 32.4807 10.9787C32.8034 11.1674 33.0621 11.417 33.2569 11.7275C33.4518 12.038 33.5887 12.3911 33.6679 12.7868C33.7531 13.1825 33.7957 13.5874 33.7957 14.0013ZM29.5676 14.0013C29.5676 14.2936 29.589 14.5919 29.6316 14.8963C29.6742 15.2007 29.7564 15.4777 29.8781 15.7273C29.9999 15.9769 30.1704 16.1808 30.3895 16.3391C30.6148 16.4974 30.91 16.5765 31.2753 16.5765C31.6345 16.5765 31.9237 16.4974 32.1429 16.3391C32.3681 16.1808 32.5416 15.9769 32.6634 15.7273C32.7851 15.4777 32.8673 15.2007 32.9099 14.8963C32.9526 14.5919 32.9739 14.2936 32.9739 14.0013C32.9739 13.7152 32.9526 13.4199 32.9099 13.1155C32.8673 12.8111 32.7851 12.5341 32.6634 12.2845C32.5416 12.0288 32.3681 11.8219 32.1429 11.6636C31.9237 11.4992 31.6345 11.417 31.2753 11.417C30.91 11.417 30.6148 11.4992 30.3895 11.6636C30.1704 11.8219 29.9999 12.0288 29.8781 12.2845C29.7564 12.5341 29.6742 12.8111 29.6316 13.1155C29.589 13.4199 29.5676 13.7152 29.5676 14.0013ZM39.7775 14.0013C39.7775 14.4153 39.7349 14.8202 39.6497 15.2159C39.5705 15.6116 39.4335 15.9647 39.2387 16.2752C39.0439 16.5796 38.7852 16.8262 38.4625 17.0149C38.1398 17.2036 37.738 17.298 37.2571 17.298C36.7701 17.298 36.3652 17.2036 36.0425 17.0149C35.7199 16.8262 35.4611 16.5796 35.2663 16.2752C35.0715 15.9647 34.9345 15.6177 34.8554 15.2342C34.7762 14.8506 34.7367 14.4397 34.7367 14.0013C34.7367 13.563 34.7762 13.1521 34.8554 12.7685C34.9345 12.3789 35.0715 12.0319 35.2663 11.7275C35.4611 11.4231 35.7199 11.1765 36.0425 10.9878C36.3652 10.793 36.7701 10.6956 37.2571 10.6956C37.738 10.6956 38.1398 10.7899 38.4625 10.9787C38.7852 11.1674 39.0439 11.417 39.2387 11.7275C39.4335 12.038 39.5705 12.3911 39.6497 12.7868C39.7349 13.1825 39.7775 13.5874 39.7775 14.0013ZM35.5494 14.0013C35.5494 14.2936 35.5707 14.5919 35.6133 14.8963C35.656 15.2007 35.7381 15.4777 35.8599 15.7273C35.9817 15.9769 36.1521 16.1808 36.3713 16.3391C36.5965 16.4974 36.8918 16.5765 37.2571 16.5765C37.6163 16.5765 37.9055 16.4974 38.1246 16.3391C38.3499 16.1808 38.5234 15.9769 38.6451 15.7273C38.7669 15.4777 38.8491 15.2007 38.8917 14.8963C38.9343 14.5919 38.9556 14.2936 38.9556 14.0013C38.9556 13.7152 38.9343 13.4199 38.8917 13.1155C38.8491 12.8111 38.7669 12.5341 38.6451 12.2845C38.5234 12.0288 38.3499 11.8219 38.1246 11.6636C37.9055 11.4992 37.6163 11.417 37.2571 11.417C36.8918 11.417 36.5965 11.4992 36.3713 11.6636C36.1521 11.8219 35.9817 12.0288 35.8599 12.2845C35.7381 12.5341 35.656 12.8111 35.6133 13.1155C35.5707 13.4199 35.5494 13.7152 35.5494 14.0013ZM41.3668 17.2432C41.2085 17.231 41.0807 17.1793 40.9833 17.0879C40.8859 16.9966 40.8372 16.8749 40.8372 16.7227C40.8433 16.5644 40.898 16.4396 41.0015 16.3482C41.1111 16.2508 41.2359 16.2021 41.376 16.2021C41.5525 16.2021 41.6925 16.2661 41.796 16.3939C41.9056 16.5218 41.9604 16.7014 41.9604 16.9327C41.9604 17.0605 41.933 17.2006 41.8782 17.3528C41.8295 17.511 41.7625 17.6541 41.6773 17.782C41.5921 17.9098 41.4916 18.0224 41.376 18.1198C41.2664 18.2173 41.1507 18.2873 41.0289 18.3299L40.8098 18.0285C40.9315 17.9433 41.0442 17.8276 41.1477 17.6815C41.2572 17.5354 41.3303 17.3893 41.3668 17.2432ZM48.049 14.0013C48.049 14.4153 48.0064 14.8202 47.9212 15.2159C47.842 15.6116 47.7051 15.9647 47.5103 16.2752C47.3154 16.5796 47.0567 16.8262 46.734 17.0149C46.4114 17.2036 46.0096 17.298 45.5286 17.298C45.0416 17.298 44.6367 17.2036 44.3141 17.0149C43.9914 16.8262 43.7327 16.5796 43.5379 16.2752C43.343 15.9647 43.2061 15.6177 43.1269 15.2342C43.0478 14.8506 43.0082 14.4397 43.0082 14.0013C43.0082 13.563 43.0478 13.1521 43.1269 12.7685C43.2061 12.3789 43.343 12.0319 43.5379 11.7275C43.7327 11.4231 43.9914 11.1765 44.3141 10.9878C44.6367 10.793 45.0416 10.6956 45.5286 10.6956C46.0096 10.6956 46.4114 10.7899 46.734 10.9787C47.0567 11.1674 47.3154 11.417 47.5103 11.7275C47.7051 12.038 47.842 12.3911 47.9212 12.7868C48.0064 13.1825 48.049 13.5874 48.049 14.0013ZM43.821 14.0013C43.821 14.2936 43.8423 14.5919 43.8849 14.8963C43.9275 15.2007 44.0097 15.4777 44.1314 15.7273C44.2532 15.9769 44.4237 16.1808 44.6428 16.3391C44.8681 16.4974 45.1633 16.5765 45.5286 16.5765C45.8878 16.5765 46.177 16.4974 46.3962 16.3391C46.6214 16.1808 46.7949 15.9769 46.9167 15.7273C47.0384 15.4777 47.1206 15.2007 47.1632 14.8963C47.2059 14.5919 47.2272 14.2936 47.2272 14.0013C47.2272 13.7152 47.2059 13.4199 47.1632 13.1155C47.1206 12.8111 47.0384 12.5341 46.9167 12.2845C46.7949 12.0288 46.6214 11.8219 46.3962 11.6636C46.177 11.4992 45.8878 11.417 45.5286 11.417C45.1633 11.417 44.8681 11.4992 44.6428 11.6636C44.4237 11.8219 44.2532 12.0288 44.1314 12.2845C44.0097 12.5341 43.9275 12.8111 43.8849 13.1155C43.8423 13.4199 43.821 13.7152 43.821 14.0013ZM54.0308 14.0013C54.0308 14.4153 53.9882 14.8202 53.903 15.2159C53.8238 15.6116 53.6868 15.9647 53.492 16.2752C53.2972 16.5796 53.0385 16.8262 52.7158 17.0149C52.3932 17.2036 51.9913 17.298 51.5104 17.298C51.0234 17.298 50.6185 17.2036 50.2959 17.0149C49.9732 16.8262 49.7145 16.5796 49.5196 16.2752C49.3248 15.9647 49.1878 15.6177 49.1087 15.2342C49.0296 14.8506 48.99 14.4397 48.99 14.0013C48.99 13.563 49.0296 13.1521 49.1087 12.7685C49.1878 12.3789 49.3248 12.0319 49.5196 11.7275C49.7145 11.4231 49.9732 11.1765 50.2959 10.9878C50.6185 10.793 51.0234 10.6956 51.5104 10.6956C51.9913 10.6956 52.3932 10.7899 52.7158 10.9787C53.0385 11.1674 53.2972 11.417 53.492 11.7275C53.6868 12.038 53.8238 12.3911 53.903 12.7868C53.9882 13.1825 54.0308 13.5874 54.0308 14.0013ZM49.8027 14.0013C49.8027 14.2936 49.824 14.5919 49.8667 14.8963C49.9093 15.2007 49.9915 15.4777 50.1132 15.7273C50.235 15.9769 50.4054 16.1808 50.6246 16.3391C50.8499 16.4974 51.1451 16.5765 51.5104 16.5765C51.8696 16.5765 52.1588 16.4974 52.3779 16.3391C52.6032 16.1808 52.7767 15.9769 52.8985 15.7273C53.0202 15.4777 53.1024 15.2007 53.145 14.8963C53.1876 14.5919 53.2089 14.2936 53.2089 14.0013C53.2089 13.7152 53.1876 13.4199 53.145 13.1155C53.1024 12.8111 53.0202 12.5341 52.8985 12.2845C52.7767 12.0288 52.6032 11.8219 52.3779 11.6636C52.1588 11.4992 51.8696 11.417 51.5104 11.417C51.1451 11.417 50.8499 11.4992 50.6246 11.6636C50.4054 11.8219 50.235 12.0288 50.1132 12.2845C49.9915 12.5341 49.9093 12.8111 49.8667 13.1155C49.824 13.4199 49.8027 13.7152 49.8027 14.0013ZM60.0126 14.0013C60.0126 14.4153 59.97 14.8202 59.8847 15.2159C59.8056 15.6116 59.6686 15.9647 59.4738 16.2752C59.279 16.5796 59.0202 16.8262 58.6976 17.0149C58.3749 17.2036 57.9731 17.298 57.4922 17.298C57.0051 17.298 56.6003 17.2036 56.2776 17.0149C55.955 16.8262 55.6962 16.5796 55.5014 16.2752C55.3066 15.9647 55.1696 15.6177 55.0905 15.2342C55.0113 14.8506 54.9718 14.4397 54.9718 14.0013C54.9718 13.563 55.0113 13.1521 55.0905 12.7685C55.1696 12.3789 55.3066 12.0319 55.5014 11.7275C55.6962 11.4231 55.955 11.1765 56.2776 10.9878C56.6003 10.793 57.0051 10.6956 57.4922 10.6956C57.9731 10.6956 58.3749 10.7899 58.6976 10.9787C59.0202 11.1674 59.279 11.417 59.4738 11.7275C59.6686 12.038 59.8056 12.3911 59.8847 12.7868C59.97 13.1825 60.0126 13.5874 60.0126 14.0013ZM55.7845 14.0013C55.7845 14.2936 55.8058 14.5919 55.8484 14.8963C55.891 15.2007 55.9732 15.4777 56.095 15.7273C56.2167 15.9769 56.3872 16.1808 56.6064 16.3391C56.8316 16.4974 57.1269 16.5765 57.4922 16.5765C57.8514 16.5765 58.1405 16.4974 58.3597 16.3391C58.585 16.1808 58.7585 15.9769 58.8802 15.7273C59.002 15.4777 59.0842 15.2007 59.1268 14.8963C59.1694 14.5919 59.1907 14.2936 59.1907 14.0013C59.1907 13.7152 59.1694 13.4199 59.1268 13.1155C59.0842 12.8111 59.002 12.5341 58.8802 12.2845C58.7585 12.0288 58.585 11.8219 58.3597 11.6636C58.1405 11.4992 57.8514 11.417 57.4922 11.417C57.1269 11.417 56.8316 11.4992 56.6064 11.6636C56.3872 11.8219 56.2167 12.0288 56.095 12.2845C55.9732 12.5341 55.891 12.8111 55.8484 13.1155C55.8058 13.4199 55.7845 13.7152 55.7845 14.0013ZM61.1088 13.7822H63.9397V14.4945H61.1088V13.7822ZM67.1816 17.298C66.9259 17.298 66.6671 17.2736 66.4054 17.2249C66.1497 17.1762 65.9092 17.094 65.6839 16.9784C65.4648 16.8566 65.2761 16.6983 65.1178 16.5035C64.9656 16.3087 64.8682 16.0682 64.8255 15.7821H65.6474C65.7022 15.9404 65.7844 16.0712 65.894 16.1747C66.0097 16.2721 66.1375 16.3513 66.2775 16.4122C66.4236 16.4731 66.5758 16.5157 66.7341 16.54C66.8924 16.5644 67.0446 16.5765 67.1907 16.5765C67.3246 16.5765 67.4768 16.5644 67.6473 16.54C67.8178 16.5157 67.9761 16.4639 68.1222 16.3848C68.2744 16.3056 68.3992 16.19 68.4966 16.0378C68.6001 15.8795 68.6518 15.6725 68.6518 15.4168C68.6518 15.1733 68.6031 14.9785 68.5057 14.8323C68.4144 14.6862 68.2926 14.5736 68.1404 14.4945C67.9943 14.4153 67.8269 14.3636 67.6382 14.3392C67.4555 14.3149 67.2699 14.3027 67.0811 14.3027H66.4602V13.5904H66.8346C66.9989 13.5904 67.1511 13.5874 67.2912 13.5813C67.4312 13.5691 67.5864 13.5265 67.7569 13.4534C67.9517 13.3621 68.107 13.2343 68.2226 13.0699C68.3383 12.8994 68.3992 12.7046 68.4053 12.4854C68.4053 12.2663 68.3687 12.0867 68.2957 11.9467C68.2226 11.8066 68.1252 11.6971 68.0035 11.6179C67.8817 11.5388 67.7447 11.487 67.5925 11.4627C67.4403 11.4322 67.2851 11.417 67.1268 11.417C66.9989 11.417 66.865 11.4322 66.725 11.4627C66.591 11.487 66.4632 11.5296 66.3414 11.5905C66.2258 11.6514 66.1223 11.7336 66.031 11.8371C65.9396 11.9345 65.8757 12.0532 65.8392 12.1932H65.0447C65.0812 11.9253 65.1665 11.6971 65.3004 11.5083C65.4343 11.3196 65.5987 11.1644 65.7935 11.0426C65.9944 10.9208 66.2136 10.8326 66.451 10.7778C66.6945 10.723 66.9411 10.6956 67.1907 10.6956C67.4647 10.6956 67.7204 10.726 67.9578 10.7869C68.2013 10.8417 68.4144 10.9361 68.597 11.07C68.7797 11.1978 68.9227 11.3683 69.0262 11.5814C69.1358 11.7945 69.1906 12.0532 69.1906 12.3576C69.1906 12.4733 69.1784 12.5981 69.1541 12.732C69.1297 12.8599 69.0841 12.9877 69.0171 13.1155C68.9501 13.2434 68.8527 13.3712 68.7249 13.4991C68.597 13.6269 68.4296 13.7335 68.2226 13.8187C68.6305 13.8978 68.941 14.0774 69.1541 14.3575C69.3672 14.6314 69.4737 14.9632 69.4737 15.3529V15.3894C69.4737 15.7242 69.4128 16.0134 69.2911 16.2569C69.1754 16.4944 69.0141 16.6922 68.8071 16.8505C68.6001 17.0027 68.3566 17.1153 68.0765 17.1884C67.7965 17.2614 67.4982 17.298 67.1816 17.298ZM75.4609 14.0013C75.4609 14.4153 75.4183 14.8202 75.333 15.2159C75.2539 15.6116 75.1169 15.9647 74.9221 16.2752C74.7273 16.5796 74.4686 16.8262 74.1459 17.0149C73.8232 17.2036 73.4214 17.298 72.9405 17.298C72.4534 17.298 72.0486 17.2036 71.7259 17.0149C71.4033 16.8262 71.1445 16.5796 70.9497 16.2752C70.7549 15.9647 70.6179 15.6177 70.5388 15.2342C70.4596 14.8506 70.4201 14.4397 70.4201 14.0013C70.4201 13.563 70.4596 13.1521 70.5388 12.7685C70.6179 12.3789 70.7549 12.0319 70.9497 11.7275C71.1445 11.4231 71.4033 11.1765 71.7259 10.9878C72.0486 10.793 72.4534 10.6956 72.9405 10.6956C73.4214 10.6956 73.8232 10.7899 74.1459 10.9787C74.4686 11.1674 74.7273 11.417 74.9221 11.7275C75.1169 12.038 75.2539 12.3911 75.333 12.7868C75.4183 13.1825 75.4609 13.5874 75.4609 14.0013ZM71.2328 14.0013C71.2328 14.2936 71.2541 14.5919 71.2967 14.8963C71.3393 15.2007 71.4215 15.4777 71.5433 15.7273C71.6651 15.9769 71.8355 16.1808 72.0547 16.3391C72.2799 16.4974 72.5752 16.5765 72.9405 16.5765C73.2997 16.5765 73.5888 16.4974 73.808 16.3391C74.0333 16.1808 74.2068 15.9769 74.3285 15.7273C74.4503 15.4777 74.5325 15.2007 74.5751 14.8963C74.6177 14.5919 74.639 14.2936 74.639 14.0013C74.639 13.7152 74.6177 13.4199 74.5751 13.1155C74.5325 12.8111 74.4503 12.5341 74.3285 12.2845C74.2068 12.0288 74.0333 11.8219 73.808 11.6636C73.5888 11.4992 73.2997 11.417 72.9405 11.417C72.5752 11.417 72.2799 11.4992 72.0547 11.6636C71.8355 11.8219 71.6651 12.0288 71.5433 12.2845C71.4215 12.5341 71.3393 12.8111 71.2967 13.1155C71.2541 13.4199 71.2328 13.7152 71.2328 14.0013ZM81.4427 14.0013C81.4427 14.4153 81.4 14.8202 81.3148 15.2159C81.2357 15.6116 81.0987 15.9647 80.9039 16.2752C80.7091 16.5796 80.4503 16.8262 80.1277 17.0149C79.805 17.2036 79.4032 17.298 78.9223 17.298C78.4352 17.298 78.0304 17.2036 77.7077 17.0149C77.385 16.8262 77.1263 16.5796 76.9315 16.2752C76.7367 15.9647 76.5997 15.6177 76.5206 15.2342C76.4414 14.8506 76.4018 14.4397 76.4018 14.0013C76.4018 13.563 76.4414 13.1521 76.5206 12.7685C76.5997 12.3789 76.7367 12.0319 76.9315 11.7275C77.1263 11.4231 77.385 11.1765 77.7077 10.9878C78.0304 10.793 78.4352 10.6956 78.9223 10.6956C79.4032 10.6956 79.805 10.7899 80.1277 10.9787C80.4503 11.1674 80.7091 11.417 80.9039 11.7275C81.0987 12.038 81.2357 12.3911 81.3148 12.7868C81.4 13.1825 81.4427 13.5874 81.4427 14.0013ZM77.2146 14.0013C77.2146 14.2936 77.2359 14.5919 77.2785 14.8963C77.3211 15.2007 77.4033 15.4777 77.5251 15.7273C77.6468 15.9769 77.8173 16.1808 78.0365 16.3391C78.2617 16.4974 78.557 16.5765 78.9223 16.5765C79.2814 16.5765 79.5706 16.4974 79.7898 16.3391C80.015 16.1808 80.1885 15.9769 80.3103 15.7273C80.4321 15.4777 80.5143 15.2007 80.5569 14.8963C80.5995 14.5919 80.6208 14.2936 80.6208 14.0013C80.6208 13.7152 80.5995 13.4199 80.5569 13.1155C80.5143 12.8111 80.4321 12.5341 80.3103 12.2845C80.1885 12.0288 80.015 11.8219 79.7898 11.6636C79.5706 11.4992 79.2814 11.417 78.9223 11.417C78.557 11.417 78.2617 11.4992 78.0365 11.6636C77.8173 11.8219 77.6468 12.0288 77.5251 12.2845C77.4033 12.5341 77.3211 12.8111 77.2785 13.1155C77.2359 13.4199 77.2146 13.7152 77.2146 14.0013ZM83.032 17.2432C82.8737 17.231 82.7458 17.1793 82.6484 17.0879C82.551 16.9966 82.5023 16.8749 82.5023 16.7227C82.5084 16.5644 82.5632 16.4396 82.6667 16.3482C82.7763 16.2508 82.9011 16.2021 83.0411 16.2021C83.2177 16.2021 83.3577 16.2661 83.4612 16.3939C83.5708 16.5218 83.6256 16.7014 83.6256 16.9327C83.6256 17.0605 83.5982 17.2006 83.5434 17.3528C83.4947 17.511 83.4277 17.6541 83.3425 17.782C83.2572 17.9098 83.1568 18.0224 83.0411 18.1198C82.9315 18.2173 82.8159 18.2873 82.6941 18.3299L82.4749 18.0285C82.5967 17.9433 82.7093 17.8276 82.8128 17.6815C82.9224 17.5354 82.9955 17.3893 83.032 17.2432ZM89.7142 14.0013C89.7142 14.4153 89.6716 14.8202 89.5864 15.2159C89.5072 15.6116 89.3702 15.9647 89.1754 16.2752C88.9806 16.5796 88.7219 16.8262 88.3992 17.0149C88.0765 17.2036 87.6747 17.298 87.1938 17.298C86.7067 17.298 86.3019 17.2036 85.9792 17.0149C85.6566 16.8262 85.3978 16.5796 85.203 16.2752C85.0082 15.9647 84.8712 15.6177 84.7921 15.2342C84.7129 14.8506 84.6734 14.4397 84.6734 14.0013C84.6734 13.563 84.7129 13.1521 84.7921 12.7685C84.8712 12.3789 85.0082 12.0319 85.203 11.7275C85.3978 11.4231 85.6566 11.1765 85.9792 10.9878C86.3019 10.793 86.7067 10.6956 87.1938 10.6956C87.6747 10.6956 88.0765 10.7899 88.3992 10.9787C88.7219 11.1674 88.9806 11.417 89.1754 11.7275C89.3702 12.038 89.5072 12.3911 89.5864 12.7868C89.6716 13.1825 89.7142 13.5874 89.7142 14.0013ZM85.4861 14.0013C85.4861 14.2936 85.5074 14.5919 85.55 14.8963C85.5927 15.2007 85.6748 15.4777 85.7966 15.7273C85.9184 15.9769 86.0888 16.1808 86.308 16.3391C86.5332 16.4974 86.8285 16.5765 87.1938 16.5765C87.553 16.5765 87.8422 16.4974 88.0613 16.3391C88.2866 16.1808 88.4601 15.9769 88.5818 15.7273C88.7036 15.4777 88.7858 15.2007 88.8284 14.8963C88.871 14.5919 88.8923 14.2936 88.8923 14.0013C88.8923 13.7152 88.871 13.4199 88.8284 13.1155C88.7858 12.8111 88.7036 12.5341 88.5818 12.2845C88.4601 12.0288 88.2866 11.8219 88.0613 11.6636C87.8422 11.4992 87.553 11.417 87.1938 11.417C86.8285 11.417 86.5332 11.4992 86.308 11.6636C86.0888 11.8219 85.9184 12.0288 85.7966 12.2845C85.6748 12.5341 85.5927 12.8111 85.55 13.1155C85.5074 13.4199 85.4861 13.7152 85.4861 14.0013ZM95.696 14.0013C95.696 14.4153 95.6534 14.8202 95.5681 15.2159C95.489 15.6116 95.352 15.9647 95.1572 16.2752C94.9624 16.5796 94.7036 16.8262 94.381 17.0149C94.0583 17.2036 93.6565 17.298 93.1756 17.298C92.6885 17.298 92.2837 17.2036 91.961 17.0149C91.6384 16.8262 91.3796 16.5796 91.1848 16.2752C90.99 15.9647 90.853 15.6177 90.7739 15.2342C90.6947 14.8506 90.6551 14.4397 90.6551 14.0013C90.6551 13.563 90.6947 13.1521 90.7739 12.7685C90.853 12.3789 90.99 12.0319 91.1848 11.7275C91.3796 11.4231 91.6384 11.1765 91.961 10.9878C92.2837 10.793 92.6885 10.6956 93.1756 10.6956C93.6565 10.6956 94.0583 10.7899 94.381 10.9787C94.7036 11.1674 94.9624 11.417 95.1572 11.7275C95.352 12.038 95.489 12.3911 95.5681 12.7868C95.6534 13.1825 95.696 13.5874 95.696 14.0013ZM91.4679 14.0013C91.4679 14.2936 91.4892 14.5919 91.5318 14.8963C91.5744 15.2007 91.6566 15.4777 91.7784 15.7273C91.9001 15.9769 92.0706 16.1808 92.2898 16.3391C92.515 16.4974 92.8103 16.5765 93.1756 16.5765C93.5348 16.5765 93.8239 16.4974 94.0431 16.3391C94.2684 16.1808 94.4419 15.9769 94.5636 15.7273C94.6854 15.4777 94.7676 15.2007 94.8102 14.8963C94.8528 14.5919 94.8741 14.2936 94.8741 14.0013C94.8741 13.7152 94.8528 13.4199 94.8102 13.1155C94.7676 12.8111 94.6854 12.5341 94.5636 12.2845C94.4419 12.0288 94.2684 11.8219 94.0431 11.6636C93.8239 11.4992 93.5348 11.417 93.1756 11.417C92.8103 11.417 92.515 11.4992 92.2898 11.6636C92.0706 11.8219 91.9001 12.0288 91.7784 12.2845C91.6566 12.5341 91.5744 12.8111 91.5318 13.1155C91.4892 13.4199 91.4679 13.7152 91.4679 14.0013ZM101.678 14.0013C101.678 14.4153 101.635 14.8202 101.55 15.2159C101.471 15.6116 101.334 15.9647 101.139 16.2752C100.944 16.5796 100.685 16.8262 100.363 17.0149C100.04 17.2036 99.6383 17.298 99.1573 17.298C98.6703 17.298 98.2654 17.2036 97.9428 17.0149C97.6201 16.8262 97.3614 16.5796 97.1666 16.2752C96.9718 15.9647 96.8348 15.6177 96.7556 15.2342C96.6765 14.8506 96.6369 14.4397 96.6369 14.0013C96.6369 13.563 96.6765 13.1521 96.7556 12.7685C96.8348 12.3789 96.9718 12.0319 97.1666 11.7275C97.3614 11.4231 97.6201 11.1765 97.9428 10.9878C98.2654 10.793 98.6703 10.6956 99.1573 10.6956C99.6383 10.6956 100.04 10.7899 100.363 10.9787C100.685 11.1674 100.944 11.417 101.139 11.7275C101.334 12.038 101.471 12.3911 101.55 12.7868C101.635 13.1825 101.678 13.5874 101.678 14.0013ZM97.4497 14.0013C97.4497 14.2936 97.471 14.5919 97.5136 14.8963C97.5562 15.2007 97.6384 15.4777 97.7601 15.7273C97.8819 15.9769 98.0524 16.1808 98.2715 16.3391C98.4968 16.4974 98.7921 16.5765 99.1573 16.5765C99.5165 16.5765 99.8057 16.4974 100.025 16.3391C100.25 16.1808 100.424 15.9769 100.545 15.7273C100.667 15.4777 100.749 15.2007 100.792 14.8963C100.835 14.5919 100.856 14.2936 100.856 14.0013C100.856 13.7152 100.835 13.4199 100.792 13.1155C100.749 12.8111 100.667 12.5341 100.545 12.2845C100.424 12.0288 100.25 11.8219 100.025 11.6636C99.8057 11.4992 99.5165 11.417 99.1573 11.417C98.7921 11.417 98.4968 11.4992 98.2715 11.6636C98.0524 11.8219 97.8819 12.0288 97.7601 12.2845C97.6384 12.5341 97.5562 12.8111 97.5136 13.1155C97.471 13.4199 97.4497 13.7152 97.4497 14.0013ZM109.637 17.2249L109.125 15.8369H105.929L105.418 17.2249H104.56L106.961 10.7686H108.103L110.495 17.2249H109.637ZM107.527 11.4627L106.194 15.1154H108.861L107.527 11.4627ZM111.289 10.7686H115.627V11.4901H112.084V13.6635H115.271V14.394H112.084V16.5035H115.627V17.2249H111.289V10.7686ZM116.771 10.7686H119.064C119.563 10.7686 120.001 10.8478 120.379 11.0061C120.762 11.1583 121.082 11.3774 121.337 11.6636C121.593 11.9436 121.785 12.2845 121.913 12.6863C122.041 13.0821 122.104 13.5204 122.104 14.0013C122.098 14.4823 122.031 14.9206 121.904 15.3163C121.776 15.7121 121.584 16.053 121.328 16.3391C121.079 16.6192 120.765 16.8383 120.388 16.9966C120.01 17.1488 119.569 17.2249 119.064 17.2249H116.771V10.7686ZM117.566 11.4901V16.5035H119.009C119.337 16.5035 119.651 16.4548 119.949 16.3574C120.254 16.2539 120.512 16.0743 120.726 15.8186C120.92 15.5933 121.063 15.3285 121.155 15.0241C121.246 14.7136 121.292 14.3727 121.292 14.0013C121.292 13.6178 121.246 13.2769 121.155 12.9786C121.063 12.6803 120.926 12.4215 120.744 12.2024C120.561 11.9832 120.33 11.8097 120.05 11.6818C119.77 11.554 119.438 11.4901 119.054 11.4901H117.566Z" fill="#03030A"/>
<path d="M130.256 12.798L133.11 15.6518L135.963 12.798" stroke="#82808E" stroke-width="0.856119" stroke-linecap="round" stroke-linejoin="round"/>
<rect x="155.381" y="0.812411" width="103.227" height="26.8251" rx="13.4125" stroke="#335CFF" stroke-opacity="0.59" stroke-width="0.570746"/>
<g clip-path="url(#clip0_936_20468)">
<path d="M165.423 19.5357H175.779M166.352 19.5357V11.5579C166.352 10.6322 166.352 10.1696 166.526 9.81595C166.676 9.50819 166.92 9.25578 167.222 9.09475C167.563 8.91418 168.009 8.91418 168.901 8.91418H169.114C170.006 8.91418 170.452 8.91418 170.793 9.09475C171.095 9.25591 171.339 9.50852 171.489 9.81648C171.663 10.1696 171.663 10.6322 171.663 11.5579V19.5357M169.539 11.0385H168.477M169.539 13.1628H168.477M169.539 15.2871H168.477M174.743 19.5357V13.9296C174.743 12.7055 174.319 12.2578 173.19 12.2578H171.663" stroke="#335CFF" stroke-width="1.06215" stroke-linecap="round" stroke-linejoin="round"/>
</g>
<path d="M180.955 17.2249V10.7686H182.16L184.096 14.321L186.005 10.7686H187.183V17.2249H186.388V11.6088L184.26 15.5355H183.895L181.749 11.6088V17.2249H180.955ZM191.67 16.6131C191.567 16.7531 191.448 16.8657 191.314 16.951C191.18 17.0362 191.04 17.1032 190.894 17.1519C190.754 17.2006 190.611 17.234 190.465 17.2523C190.325 17.2706 190.185 17.2797 190.045 17.2797C189.82 17.2797 189.607 17.2523 189.406 17.1975C189.205 17.1427 189.022 17.0545 188.858 16.9327C188.7 16.8109 188.572 16.6587 188.474 16.4761C188.383 16.2935 188.337 16.0865 188.337 15.8551C188.337 15.5812 188.386 15.3529 188.483 15.1702C188.587 14.9815 188.724 14.8293 188.894 14.7136C189.065 14.598 189.26 14.5188 189.479 14.4762C189.704 14.4275 189.941 14.4031 190.191 14.4031H191.607C191.607 13.9953 191.518 13.6726 191.342 13.4352C191.165 13.1916 190.867 13.0638 190.447 13.0516C190.191 13.0516 189.966 13.0942 189.771 13.1795C189.576 13.2647 189.442 13.4047 189.369 13.5995H188.538C188.581 13.3804 188.666 13.1947 188.794 13.0425C188.922 12.8842 189.074 12.7564 189.25 12.6589C189.427 12.5555 189.619 12.4794 189.826 12.4306C190.033 12.3819 190.24 12.3576 190.447 12.3576C190.806 12.3576 191.107 12.4185 191.351 12.5402C191.6 12.6559 191.801 12.8111 191.954 13.006C192.106 13.1947 192.212 13.426 192.273 13.7C192.334 13.9739 192.364 14.2814 192.364 14.6223V17.2249H191.716L191.67 16.6131ZM190.757 15.0515C190.611 15.0515 190.441 15.0546 190.246 15.0606C190.057 15.0606 189.875 15.0789 189.698 15.1154C189.521 15.152 189.378 15.2281 189.269 15.3437C189.165 15.4594 189.114 15.6116 189.114 15.8003C189.114 15.9404 189.141 16.0591 189.196 16.1565C189.25 16.2539 189.324 16.3361 189.415 16.403C189.512 16.47 189.622 16.5187 189.744 16.5492C189.865 16.5796 189.99 16.5948 190.118 16.5948C190.575 16.5948 190.934 16.4852 191.196 16.2661C191.463 16.0408 191.6 15.7151 191.607 15.2889V15.0515H190.757ZM193.476 17.2249V12.4124H194.225L194.261 13.1612C194.438 12.8812 194.663 12.6772 194.937 12.5494C195.211 12.4215 195.521 12.3576 195.868 12.3576H196.115V13.0881H195.832C195.546 13.0881 195.302 13.1369 195.101 13.2343C194.9 13.3256 194.736 13.4534 194.608 13.6178C194.486 13.7761 194.395 13.9648 194.334 14.184C194.279 14.4031 194.252 14.6345 194.252 14.878V17.2249H193.476ZM197.239 10.6499C197.385 10.6499 197.509 10.6986 197.613 10.796C197.716 10.8874 197.768 11.0091 197.768 11.1613C197.768 11.3135 197.716 11.4383 197.613 11.5357C197.509 11.6331 197.385 11.6818 197.239 11.6818C197.086 11.6818 196.962 11.6331 196.864 11.5357C196.767 11.4383 196.718 11.3135 196.718 11.1613C196.718 11.0091 196.767 10.8874 196.864 10.796C196.962 10.6986 197.086 10.6499 197.239 10.6499ZM196.855 17.2249V12.4124H197.631V17.2249H196.855ZM198.831 17.2249V12.4124H199.58L199.616 13.1429C199.696 13.009 199.793 12.8933 199.909 12.7959C200.03 12.6985 200.161 12.6163 200.301 12.5494C200.441 12.4824 200.587 12.4337 200.74 12.4033C200.898 12.3728 201.05 12.3576 201.196 12.3576C201.543 12.3576 201.836 12.4154 202.073 12.5311C202.31 12.6407 202.499 12.7959 202.639 12.9968C202.779 13.1916 202.88 13.426 202.94 13.7C203.001 13.9679 203.032 14.257 203.032 14.5675V17.2249H202.256V14.7776C202.256 14.5523 202.24 14.3362 202.21 14.1292C202.186 13.9222 202.131 13.7396 202.046 13.5813C201.966 13.4169 201.851 13.286 201.699 13.1886C201.546 13.0912 201.342 13.0425 201.087 13.0425C200.837 13.0486 200.615 13.1095 200.42 13.2251C200.231 13.3408 200.079 13.4778 199.963 13.6361C199.823 13.837 199.729 14.0592 199.68 14.3027C199.632 14.5401 199.607 14.7806 199.607 15.0241V17.2249H198.831ZM207.304 16.6131C207.2 16.7531 207.082 16.8657 206.948 16.951C206.814 17.0362 206.674 17.1032 206.528 17.1519C206.388 17.2006 206.245 17.234 206.098 17.2523C205.958 17.2706 205.818 17.2797 205.678 17.2797C205.453 17.2797 205.24 17.2523 205.039 17.1975C204.838 17.1427 204.656 17.0545 204.491 16.9327C204.333 16.8109 204.205 16.6587 204.108 16.4761C204.016 16.2935 203.971 16.0865 203.971 15.8551C203.971 15.5812 204.019 15.3529 204.117 15.1702C204.22 14.9815 204.357 14.8293 204.528 14.7136C204.698 14.598 204.893 14.5188 205.112 14.4762C205.337 14.4275 205.575 14.4031 205.825 14.4031H207.24C207.24 13.9953 207.152 13.6726 206.975 13.4352C206.799 13.1916 206.5 13.0638 206.08 13.0516C205.825 13.0516 205.599 13.0942 205.404 13.1795C205.21 13.2647 205.076 13.4047 205.003 13.5995H204.172C204.214 13.3804 204.299 13.1947 204.427 13.0425C204.555 12.8842 204.707 12.7564 204.884 12.6589C205.06 12.5555 205.252 12.4794 205.459 12.4306C205.666 12.3819 205.873 12.3576 206.08 12.3576C206.439 12.3576 206.741 12.4185 206.984 12.5402C207.234 12.6559 207.435 12.8111 207.587 13.006C207.739 13.1947 207.846 13.426 207.907 13.7C207.967 13.9739 207.998 14.2814 207.998 14.6223V17.2249H207.35L207.304 16.6131ZM206.391 15.0515C206.245 15.0515 206.074 15.0546 205.879 15.0606C205.691 15.0606 205.508 15.0789 205.331 15.1154C205.155 15.152 205.012 15.2281 204.902 15.3437C204.799 15.4594 204.747 15.6116 204.747 15.8003C204.747 15.9404 204.774 16.0591 204.829 16.1565C204.884 16.2539 204.957 16.3361 205.048 16.403C205.146 16.47 205.255 16.5187 205.377 16.5492C205.499 16.5796 205.624 16.5948 205.751 16.5948C206.208 16.5948 206.567 16.4852 206.829 16.2661C207.097 16.0408 207.234 15.7151 207.24 15.2889V15.0515H206.391ZM211.662 10.7686H213.954C214.453 10.7686 214.891 10.8478 215.269 11.0061C215.652 11.1583 215.972 11.3774 216.228 11.6636C216.483 11.9436 216.675 12.2845 216.803 12.6863C216.931 13.0821 216.995 13.5204 216.995 14.0013C216.989 14.4823 216.922 14.9206 216.794 15.3163C216.666 15.7121 216.474 16.053 216.219 16.3391C215.969 16.6192 215.656 16.8383 215.278 16.9966C214.901 17.1488 214.459 17.2249 213.954 17.2249H211.662V10.7686ZM212.456 11.4901V16.5035H213.899C214.228 16.5035 214.541 16.4548 214.84 16.3574C215.144 16.2539 215.403 16.0743 215.616 15.8186C215.811 15.5933 215.954 15.3285 216.045 15.0241C216.136 14.7136 216.182 14.3727 216.182 14.0013C216.182 13.6178 216.136 13.2769 216.045 12.9786C215.954 12.6803 215.817 12.4215 215.634 12.2024C215.452 11.9832 215.22 11.8097 214.94 11.6818C214.66 11.554 214.328 11.4901 213.945 11.4901H212.456ZM219.969 16.5948C220.408 16.5948 220.727 16.4639 220.928 16.2021C221.135 15.9343 221.239 15.5629 221.239 15.088V12.4124H222.015V15.1246C222.015 15.8551 221.838 16.397 221.485 16.7501C221.138 17.1032 220.633 17.2797 219.969 17.2797C219.306 17.2797 218.801 17.1032 218.453 16.7501C218.113 16.397 217.942 15.8551 217.942 15.1246V12.4124H218.718V15.088C218.718 15.5629 218.822 15.9343 219.029 16.2021C219.236 16.4639 219.549 16.5948 219.969 16.5948ZM223.131 17.2249V10.7686H223.907V13.1247C224.065 12.8812 224.29 12.6924 224.583 12.5585C224.881 12.4185 225.185 12.3515 225.496 12.3576C225.861 12.3576 226.175 12.4215 226.436 12.5494C226.704 12.6772 226.923 12.8507 227.094 13.0699C227.27 13.2891 227.398 13.5508 227.477 13.8552C227.563 14.1535 227.605 14.4762 227.605 14.8232C227.605 15.1702 227.563 15.4929 227.477 15.7912C227.398 16.0834 227.27 16.3391 227.094 16.5583C226.917 16.7774 226.692 16.951 226.418 17.0788C226.15 17.2067 225.831 17.2736 225.459 17.2797H225.359C225.03 17.2797 224.744 17.2219 224.5 17.1062C224.263 16.9905 224.065 16.8353 223.907 16.6405L223.87 17.2249H223.131ZM225.395 16.5948C225.657 16.5948 225.876 16.5492 226.053 16.4578C226.235 16.3604 226.382 16.2326 226.491 16.0743C226.607 15.9099 226.689 15.7212 226.738 15.5081C226.793 15.295 226.823 15.0667 226.829 14.8232C226.829 14.5797 226.802 14.3514 226.747 14.1383C226.698 13.9192 226.616 13.7304 226.5 13.5721C226.385 13.4139 226.232 13.2891 226.044 13.1977C225.861 13.1003 225.639 13.0516 225.377 13.0516C225.231 13.0516 225.088 13.076 224.948 13.1247C224.808 13.1734 224.683 13.2403 224.573 13.3256C224.464 13.4047 224.366 13.496 224.281 13.5995C224.202 13.703 224.135 13.8126 224.08 13.9283C224.013 14.0683 223.965 14.2175 223.934 14.3758C223.904 14.534 223.889 14.6862 223.889 14.8323C223.889 14.9906 223.898 15.155 223.916 15.3255C223.94 15.4898 223.989 15.642 224.062 15.7821C224.172 16.0134 224.339 16.2082 224.564 16.3665C224.79 16.5187 225.067 16.5948 225.395 16.5948ZM231.719 16.6131C231.616 16.7531 231.497 16.8657 231.363 16.951C231.229 17.0362 231.089 17.1032 230.943 17.1519C230.803 17.2006 230.66 17.234 230.514 17.2523C230.374 17.2706 230.234 17.2797 230.094 17.2797C229.869 17.2797 229.656 17.2523 229.455 17.1975C229.254 17.1427 229.071 17.0545 228.907 16.9327C228.748 16.8109 228.621 16.6587 228.523 16.4761C228.432 16.2935 228.386 16.0865 228.386 15.8551C228.386 15.5812 228.435 15.3529 228.532 15.1702C228.636 14.9815 228.773 14.8293 228.943 14.7136C229.114 14.598 229.309 14.5188 229.528 14.4762C229.753 14.4275 229.99 14.4031 230.24 14.4031H231.655C231.655 13.9953 231.567 13.6726 231.391 13.4352C231.214 13.1916 230.916 13.0638 230.496 13.0516C230.24 13.0516 230.015 13.0942 229.82 13.1795C229.625 13.2647 229.491 13.4047 229.418 13.5995H228.587C228.63 13.3804 228.715 13.1947 228.843 13.0425C228.971 12.8842 229.123 12.7564 229.299 12.6589C229.476 12.5555 229.668 12.4794 229.875 12.4306C230.082 12.3819 230.289 12.3576 230.496 12.3576C230.855 12.3576 231.156 12.4185 231.4 12.5402C231.649 12.6559 231.85 12.8111 232.002 13.006C232.155 13.1947 232.261 13.426 232.322 13.7C232.383 13.9739 232.413 14.2814 232.413 14.6223V17.2249H231.765L231.719 16.6131ZM230.806 15.0515C230.66 15.0515 230.49 15.0546 230.295 15.0606C230.106 15.0606 229.923 15.0789 229.747 15.1154C229.57 15.152 229.427 15.2281 229.318 15.3437C229.214 15.4594 229.162 15.6116 229.162 15.8003C229.162 15.9404 229.19 16.0591 229.245 16.1565C229.299 16.2539 229.372 16.3361 229.464 16.403C229.561 16.47 229.671 16.5187 229.792 16.5492C229.914 16.5796 230.039 16.5948 230.167 16.5948C230.624 16.5948 230.983 16.4852 231.244 16.2661C231.512 16.0408 231.649 15.7151 231.655 15.2889V15.0515H230.806ZM233.972 10.6499C234.118 10.6499 234.243 10.6986 234.346 10.796C234.45 10.8874 234.502 11.0091 234.502 11.1613C234.502 11.3135 234.45 11.4383 234.346 11.5357C234.243 11.6331 234.118 11.6818 233.972 11.6818C233.82 11.6818 233.695 11.6331 233.598 11.5357C233.5 11.4383 233.452 11.3135 233.452 11.1613C233.452 11.0091 233.5 10.8874 233.598 10.796C233.695 10.6986 233.82 10.6499 233.972 10.6499ZM233.589 17.2249V12.4124H234.365V17.2249H233.589Z" fill="#03030A"/>
<path d="M241.199 12.798L244.053 15.6518L246.907 12.798" stroke="#82808E" stroke-width="0.856119" stroke-linecap="round" stroke-linejoin="round"/>
<rect x="0.213867" y="34.2957" width="302.712" height="37.6129" rx="18.8064" fill="white" fill-opacity="0.25"/>
<rect x="0.605668" y="34.6875" width="301.928" height="36.8293" rx="18.4146" stroke="#335CFF" stroke-opacity="0.55" stroke-width="0.783601"/>
<path d="M16.6309 49.1713C16.4128 49.1713 16.1908 49.1908 15.9649 49.2297C15.7469 49.2687 15.5482 49.3388 15.3691 49.4401C15.1899 49.5335 15.0419 49.6659 14.9251 49.8373C14.8161 50.0009 14.7615 50.2112 14.7615 50.4682C14.7615 50.7798 14.8433 51.0329 15.0069 51.2276C15.1705 51.4146 15.3691 51.5587 15.6028 51.6599C15.7897 51.7378 15.9883 51.804 16.1986 51.8586C16.4089 51.9131 16.6231 51.9637 16.8412 52.0105C17.0671 52.0572 17.2852 52.1039 17.4955 52.1507C17.7136 52.1974 17.9239 52.2558 18.1264 52.3259C18.6016 52.4895 18.9793 52.7232 19.2597 53.0269C19.5479 53.3307 19.692 53.7318 19.692 54.2303C19.692 54.6977 19.6102 55.0832 19.4467 55.387C19.2909 55.6908 19.0767 55.94 18.8041 56.1348C18.5392 56.3295 18.2277 56.4736 17.8694 56.5671C17.5189 56.6527 17.145 56.6956 16.7477 56.6956C16.3505 56.6956 15.9688 56.6566 15.6028 56.5787C15.2445 56.5009 14.9173 56.3723 14.6213 56.1932C14.3253 56.014 14.0722 55.7804 13.8619 55.4922C13.6516 55.204 13.5036 54.8535 13.4179 54.4406H14.4811C14.559 54.7055 14.6797 54.9236 14.8433 55.0949C15.0069 55.2663 15.1938 55.4026 15.4041 55.5039C15.6144 55.6051 15.8403 55.6752 16.0818 55.7142C16.331 55.7531 16.5764 55.7726 16.8179 55.7726C17.0515 55.7726 17.2774 55.7492 17.4955 55.7025C17.7214 55.6479 17.92 55.5662 18.0914 55.4571C18.2627 55.3481 18.399 55.2079 18.5003 55.0365C18.6016 54.8651 18.6522 54.6587 18.6522 54.4173C18.6522 54.0512 18.5548 53.7786 18.3601 53.5994C18.1654 53.4203 17.9044 53.284 17.5773 53.1905C17.3592 53.1204 17.1294 53.062 16.888 53.0152C16.6465 52.9685 16.405 52.9179 16.1636 52.8634C15.9221 52.8088 15.6845 52.7465 15.4509 52.6764C15.2172 52.5985 15.003 52.509 14.8083 52.4077C14.4967 52.2597 14.2358 52.0338 14.0255 51.73C13.8152 51.4185 13.71 51.029 13.71 50.5617C13.71 50.1255 13.7957 49.7594 13.967 49.4634C14.1384 49.1674 14.3604 48.9299 14.633 48.7507C14.9056 48.5716 15.2094 48.4431 15.5443 48.3652C15.8871 48.2873 16.2492 48.2483 16.6309 48.2483C16.9425 48.2561 17.2229 48.2834 17.4721 48.3301C17.7292 48.3691 17.9706 48.4431 18.1965 48.5521C18.547 48.7079 18.8391 48.9416 19.0728 49.2531C19.3065 49.5647 19.435 49.9658 19.4583 50.4565H18.4652C18.4341 50.2151 18.3601 50.0126 18.2433 49.849C18.1342 49.6854 17.9979 49.553 17.8343 49.4517C17.6708 49.3505 17.4838 49.2804 17.2735 49.2414C17.071 49.1947 16.8568 49.1713 16.6309 49.1713ZM21.8108 53.8915C21.8341 54.1641 21.8887 54.4173 21.9743 54.6509C22.0678 54.8768 22.1924 55.0755 22.3482 55.2468C22.504 55.4182 22.6948 55.5545 22.9207 55.6557C23.1544 55.7492 23.4231 55.7959 23.7269 55.7959C23.8749 55.7959 24.0268 55.7843 24.1825 55.7609C24.3461 55.7297 24.498 55.683 24.6382 55.6207C24.7784 55.5506 24.903 55.461 25.0121 55.352C25.1211 55.2429 25.2029 55.1105 25.2574 54.9547H26.2739C26.2038 55.2507 26.0831 55.5077 25.9117 55.7258C25.7482 55.9439 25.5495 56.1231 25.3159 56.2633C25.09 56.4035 24.8368 56.5086 24.5564 56.5787C24.276 56.6411 23.9917 56.6722 23.7035 56.6722C23.2128 56.6722 22.7844 56.5943 22.4183 56.4385C22.06 56.2828 21.7601 56.0686 21.5187 55.7959C21.2772 55.5155 21.0981 55.1845 20.9812 54.8028C20.8644 54.4134 20.806 53.9889 20.806 53.5293C20.806 53.0698 20.8683 52.6492 20.9929 52.2675C21.1253 51.878 21.3123 51.5431 21.5537 51.2627C21.7952 50.9823 22.0912 50.7642 22.4417 50.6084C22.7922 50.4526 23.2089 50.3747 23.6918 50.3747C24.1825 50.3747 24.6071 50.4721 24.9653 50.6668C25.3236 50.8616 25.6118 51.1186 25.8299 51.438C26.048 51.7495 26.1999 52.0883 26.2856 52.4544C26.3791 52.8205 26.418 53.1593 26.4024 53.4709C26.4024 53.541 26.3985 53.6111 26.3907 53.6812C26.3907 53.7513 26.3869 53.8214 26.3791 53.8915H21.8108ZM25.3976 53.0269C25.3821 52.5051 25.2185 52.0806 24.9069 51.7534C24.5954 51.4263 24.1787 51.2627 23.6568 51.2627C23.3686 51.2627 23.1154 51.3094 22.8973 51.4029C22.6793 51.4964 22.4962 51.6249 22.3482 51.7885C22.2002 51.952 22.0834 52.1429 21.9977 52.361C21.912 52.5713 21.8575 52.7933 21.8341 53.0269H25.3976ZM31.6746 55.8193C31.5422 55.9985 31.3903 56.1426 31.2189 56.2516C31.0476 56.3607 30.8684 56.4463 30.6815 56.5086C30.5023 56.571 30.3193 56.6138 30.1323 56.6372C29.9532 56.6605 29.774 56.6722 29.5949 56.6722C29.3067 56.6722 29.0341 56.6372 28.777 56.5671C28.52 56.497 28.2863 56.384 28.076 56.2282C27.8735 56.0725 27.7099 55.8777 27.5853 55.6441C27.4685 55.4104 27.4101 55.1456 27.4101 54.8496C27.4101 54.4991 27.4724 54.207 27.597 53.9733C27.7294 53.7318 27.9047 53.5371 28.1228 53.3891C28.3408 53.2411 28.5901 53.1399 28.8705 53.0853C29.1587 53.023 29.4625 52.9919 29.7818 52.9919H31.5928C31.5928 52.47 31.4798 52.0572 31.254 51.7534C31.0281 51.4418 30.6464 51.2783 30.109 51.2627C29.7818 51.2627 29.4936 51.3172 29.2444 51.4263C28.9951 51.5353 28.8238 51.7145 28.7303 51.9637H27.6671C27.7216 51.6833 27.8307 51.4457 27.9942 51.251C28.1578 51.0485 28.3525 50.8849 28.5784 50.7603C28.8043 50.6279 29.0497 50.5305 29.3145 50.4682C29.5793 50.4059 29.8441 50.3747 30.109 50.3747C30.5685 50.3747 30.9541 50.4526 31.2656 50.6084C31.585 50.7564 31.842 50.955 32.0368 51.2043C32.2315 51.4457 32.3678 51.7417 32.4457 52.0922C32.5236 52.4427 32.5625 52.8361 32.5625 53.2723V56.6021H31.733L31.6746 55.8193ZM30.5062 53.8214C30.3193 53.8214 30.1012 53.8253 29.8519 53.8331C29.6105 53.8331 29.3768 53.8565 29.1509 53.9032C28.925 53.9499 28.742 54.0473 28.6018 54.1953C28.4694 54.3433 28.4032 54.538 28.4032 54.7795C28.4032 54.9586 28.4382 55.1105 28.5083 55.2351C28.5784 55.3598 28.6719 55.4649 28.7887 55.5506C28.9133 55.6363 29.0535 55.6986 29.2093 55.7375C29.3651 55.7765 29.5248 55.7959 29.6884 55.7959C30.2725 55.7959 30.7321 55.6557 31.067 55.3753C31.4097 55.0871 31.585 54.6704 31.5928 54.1252V53.8214H30.5062ZM33.9843 56.6021V50.4448H34.9423L34.9891 51.4029C35.215 51.0446 35.5031 50.7837 35.8537 50.6201C36.2042 50.4565 36.6014 50.3747 37.0454 50.3747H37.3608V51.3094H36.9987C36.6326 51.3094 36.321 51.3717 36.064 51.4964C35.8069 51.6132 35.5966 51.7768 35.433 51.9871C35.2773 52.1896 35.1604 52.4311 35.0825 52.7115C35.0124 52.9919 34.9774 53.2879 34.9774 53.5994V56.6021H33.9843ZM40.7407 56.6722C40.25 56.6722 39.8255 56.5943 39.4672 56.4385C39.1089 56.2828 38.8129 56.0647 38.5792 55.7843C38.3456 55.5039 38.1703 55.1728 38.0535 54.7912C37.9366 54.4095 37.8782 53.9928 37.8782 53.541C37.8782 53.1048 37.9405 52.6959 38.0651 52.3142C38.1898 51.9248 38.3728 51.5898 38.6143 51.3094C38.8557 51.0212 39.1595 50.7954 39.5256 50.6318C39.8917 50.4604 40.3357 50.3747 40.8575 50.3747C41.1691 50.3747 41.4456 50.4098 41.6871 50.4799C41.9285 50.5422 42.1544 50.6474 42.3647 50.7954C42.5828 50.9356 42.7697 51.1225 42.9255 51.3562C43.0813 51.5898 43.1943 51.8741 43.2644 52.2091H42.2479C42.131 51.8664 41.9441 51.621 41.6871 51.473C41.4378 51.325 41.1418 51.2549 40.7991 51.2627C40.4642 51.2627 40.1682 51.3289 39.9112 51.4613C39.6619 51.5859 39.4594 51.7534 39.3036 51.9637C39.1556 52.174 39.0466 52.4194 38.9765 52.6998C38.9064 52.9724 38.8713 53.2528 38.8713 53.541C38.8713 53.8448 38.9064 54.133 38.9765 54.4056C39.0544 54.6782 39.1673 54.9197 39.3153 55.13C39.4711 55.3325 39.6697 55.4961 39.9112 55.6207C40.1526 55.7375 40.4408 55.7959 40.7757 55.7959C40.9393 55.7959 41.099 55.7804 41.2548 55.7492C41.4183 55.7181 41.5663 55.6674 41.6988 55.5973C41.839 55.5194 41.9597 55.4182 42.0609 55.2935C42.1622 55.1689 42.2362 55.017 42.2829 54.8379H43.3111C43.2488 55.1572 43.1358 55.4338 42.9723 55.6674C42.8165 55.8933 42.6218 56.0841 42.3881 56.2399C42.1544 56.3879 41.8974 56.497 41.617 56.5671C41.3366 56.6372 41.0445 56.6722 40.7407 56.6722ZM44.453 56.6021V48.3418H45.4461V51.3912C45.5473 51.2354 45.6759 51.0913 45.8316 50.9589C45.9874 50.8265 46.151 50.7175 46.3224 50.6318C46.4937 50.5461 46.6807 50.4838 46.8832 50.4448C47.0935 50.3981 47.296 50.3747 47.4907 50.3747C47.9347 50.3747 48.3047 50.4487 48.6007 50.5967C48.9044 50.7369 49.1459 50.9356 49.325 51.1926C49.512 51.4418 49.6405 51.7417 49.7106 52.0922C49.7885 52.435 49.8274 52.8088 49.8274 53.2139V56.6021H48.8343V53.5176C48.8343 53.2372 48.8188 52.9646 48.7876 52.6998C48.7564 52.4272 48.6863 52.1857 48.5773 51.9754C48.4682 51.7651 48.3125 51.5937 48.11 51.4613C47.9074 51.3211 47.6309 51.251 47.2804 51.251C46.9922 51.251 46.7235 51.325 46.4742 51.473C46.2328 51.6132 46.0381 51.7924 45.8901 52.0105C45.7109 52.2519 45.5902 52.5206 45.5279 52.8166C45.4733 53.1126 45.4461 53.4164 45.4461 53.7279V56.6021H44.453ZM54.2713 56.6021V48.3418H55.2644V51.3562C55.4669 51.0446 55.7551 50.8031 56.129 50.6318C56.5107 50.4526 56.9001 50.367 57.2974 50.3747C57.7647 50.3747 58.1659 50.4565 58.5008 50.6201C58.8435 50.7837 59.1239 51.0057 59.342 51.2861C59.5679 51.5665 59.7315 51.9014 59.8327 52.2909C59.9418 52.6725 59.9963 53.0853 59.9963 53.5293C59.9963 53.9733 59.9418 54.3861 59.8327 54.7678C59.7315 55.1417 59.5679 55.4688 59.342 55.7492C59.1161 56.0296 58.8279 56.2516 58.4774 56.4152C58.1347 56.5787 57.7258 56.6644 57.2506 56.6722H57.1221C56.7015 56.6722 56.3354 56.5982 56.0239 56.4502C55.7201 56.3022 55.4669 56.1036 55.2644 55.8544L55.2177 56.6021H54.2713ZM57.1689 55.7959C57.5038 55.7959 57.7842 55.7375 58.0101 55.6207C58.2438 55.4961 58.4307 55.3325 58.5709 55.13C58.7189 54.9197 58.824 54.6782 58.8864 54.4056C58.9565 54.133 58.9954 53.8409 59.0032 53.5293C59.0032 53.2178 58.9681 52.9257 58.898 52.653C58.8357 52.3726 58.7306 52.1312 58.5826 51.9287C58.4346 51.7261 58.2399 51.5665 57.9984 51.4496C57.7647 51.325 57.4804 51.2627 57.1455 51.2627C56.9586 51.2627 56.7755 51.2939 56.5964 51.3562C56.4172 51.4185 56.2575 51.5042 56.1173 51.6132C55.9771 51.7145 55.8525 51.8313 55.7435 51.9637C55.6422 52.0961 55.5565 52.2363 55.4864 52.3843C55.4007 52.5635 55.3384 52.7543 55.2995 52.9568C55.2605 53.1593 55.2411 53.3541 55.2411 53.541C55.2411 53.7435 55.2527 53.9538 55.2761 54.1719C55.3073 54.3822 55.3696 54.577 55.4631 54.7561C55.6033 55.0521 55.8175 55.3013 56.1057 55.5039C56.3938 55.6986 56.7483 55.7959 57.1689 55.7959ZM66.6152 50.4448V56.6021C66.6152 57.4979 66.3816 58.1794 65.9142 58.6467C65.4469 59.1219 64.7809 59.3594 63.9163 59.3594C63.3945 59.3517 62.9232 59.2816 62.5026 59.1491C62.0898 59.0245 61.7081 58.7986 61.3576 58.4715L61.7899 57.6887C62.0937 57.9301 62.4169 58.121 62.7597 58.2612C63.1102 58.4014 63.4762 58.4715 63.8579 58.4715C64.1773 58.4715 64.4499 58.4209 64.6758 58.3196C64.9017 58.2261 65.0847 58.0898 65.2249 57.9107C65.3729 57.7393 65.478 57.5329 65.5404 57.2914C65.6105 57.05 65.6455 56.789 65.6455 56.5086V55.7726C65.5443 55.9284 65.4157 56.0686 65.2599 56.1932C65.112 56.31 64.9484 56.4074 64.7692 56.4853C64.5979 56.5554 64.4109 56.606 64.2084 56.6372C64.0137 56.6761 63.8151 56.6956 63.6126 56.6956C63.1452 56.6878 62.7558 56.6138 62.4442 56.4736C62.1404 56.3334 61.8951 56.1387 61.7081 55.8894C61.529 55.6402 61.4005 55.3442 61.3226 55.0015C61.2447 54.6509 61.2057 54.2654 61.2057 53.8448V50.4448H62.1988V53.5644C62.1988 53.8448 62.2144 54.1213 62.2456 54.3939C62.2845 54.6665 62.3585 54.908 62.4676 55.1183C62.5766 55.3286 62.7363 55.5 62.9466 55.6324C63.1569 55.757 63.4373 55.8193 63.7878 55.8193C64.1383 55.8193 64.4343 55.7453 64.6758 55.5973C64.925 55.4493 65.1159 55.2624 65.2483 55.0365C65.3963 54.8028 65.4936 54.5458 65.5404 54.2654C65.5949 53.985 65.6221 53.6968 65.6221 53.4008V50.4448H66.6152ZM75.1468 55.8193C75.0143 55.9985 74.8625 56.1426 74.6911 56.2516C74.5197 56.3607 74.3406 56.4463 74.1536 56.5086C73.9745 56.571 73.7915 56.6138 73.6045 56.6372C73.4254 56.6605 73.2462 56.6722 73.0671 56.6722C72.7789 56.6722 72.5063 56.6372 72.2492 56.5671C71.9922 56.497 71.7585 56.384 71.5482 56.2282C71.3457 56.0725 71.1821 55.8777 71.0575 55.6441C70.9406 55.4104 70.8822 55.1456 70.8822 54.8496C70.8822 54.4991 70.9445 54.207 71.0692 53.9733C71.2016 53.7318 71.3768 53.5371 71.5949 53.3891C71.813 53.2411 72.0623 53.1399 72.3427 53.0853C72.6309 53.023 72.9347 52.9919 73.254 52.9919H75.065C75.065 52.47 74.952 52.0572 74.7261 51.7534C74.5003 51.4418 74.1186 51.2783 73.5811 51.2627C73.254 51.2627 72.9658 51.3172 72.7166 51.4263C72.4673 51.5353 72.2959 51.7145 72.2025 51.9637H71.1393C71.1938 51.6833 71.3028 51.4457 71.4664 51.251C71.63 51.0485 71.8247 50.8849 72.0506 50.7603C72.2765 50.6279 72.5218 50.5305 72.7867 50.4682C73.0515 50.4059 73.3163 50.3747 73.5811 50.3747C74.0407 50.3747 74.4263 50.4526 74.7378 50.6084C75.0572 50.7564 75.3142 50.955 75.5089 51.2043C75.7037 51.4457 75.84 51.7417 75.9179 52.0922C75.9958 52.4427 76.0347 52.8361 76.0347 53.2723V56.6021H75.2052L75.1468 55.8193ZM73.9784 53.8214C73.7915 53.8214 73.5734 53.8253 73.3241 53.8331C73.0826 53.8331 72.849 53.8565 72.6231 53.9032C72.3972 53.9499 72.2142 54.0473 72.074 54.1953C71.9415 54.3433 71.8753 54.538 71.8753 54.7795C71.8753 54.9586 71.9104 55.1105 71.9805 55.2351C72.0506 55.3598 72.1441 55.4649 72.2609 55.5506C72.3855 55.6363 72.5257 55.6986 72.6815 55.7375C72.8373 55.7765 72.997 55.7959 73.1605 55.7959C73.7447 55.7959 74.2043 55.6557 74.5392 55.3753C74.8819 55.0871 75.0572 54.6704 75.065 54.1252V53.8214H73.9784ZM77.4565 56.6021V50.4448H78.4145L78.4612 51.4029C78.6871 51.0446 78.9753 50.7837 79.3258 50.6201C79.6763 50.4565 80.0736 50.3747 80.5176 50.3747H80.833V51.3094H80.4708C80.1047 51.3094 79.7932 51.3717 79.5361 51.4964C79.2791 51.6132 79.0688 51.7768 78.9052 51.9871C78.7494 52.1896 78.6326 52.4311 78.5547 52.7115C78.4846 52.9919 78.4496 53.2879 78.4496 53.5994V56.6021H77.4565ZM82.3552 53.8915C82.3785 54.1641 82.4331 54.4173 82.5187 54.6509C82.6122 54.8768 82.7368 55.0755 82.8926 55.2468C83.0484 55.4182 83.2392 55.5545 83.4651 55.6557C83.6988 55.7492 83.9675 55.7959 84.2713 55.7959C84.4193 55.7959 84.5712 55.7843 84.7269 55.7609C84.8905 55.7297 85.0424 55.683 85.1826 55.6207C85.3228 55.5506 85.4474 55.461 85.5565 55.352C85.6655 55.2429 85.7473 55.1105 85.8018 54.9547H86.8183C86.7482 55.2507 86.6275 55.5077 86.4561 55.7258C86.2926 55.9439 86.0939 56.1231 85.8603 56.2633C85.6344 56.4035 85.3812 56.5086 85.1008 56.5787C84.8204 56.6411 84.5361 56.6722 84.2479 56.6722C83.7572 56.6722 83.3288 56.5943 82.9627 56.4385C82.6044 56.2828 82.3045 56.0686 82.0631 55.7959C81.8216 55.5155 81.6425 55.1845 81.5256 54.8028C81.4088 54.4134 81.3504 53.9889 81.3504 53.5293C81.3504 53.0698 81.4127 52.6492 81.5373 52.2675C81.6697 51.878 81.8567 51.5431 82.0981 51.2627C82.3396 50.9823 82.6356 50.7642 82.9861 50.6084C83.3366 50.4526 83.7533 50.3747 84.2362 50.3747C84.7269 50.3747 85.1515 50.4721 85.5098 50.6668C85.868 50.8616 86.1562 51.1186 86.3743 51.438C86.5924 51.7495 86.7443 52.0883 86.83 52.4544C86.9235 52.8205 86.9624 53.1593 86.9468 53.4709C86.9468 53.541 86.9429 53.6111 86.9352 53.6812C86.9352 53.7513 86.9313 53.8214 86.9235 53.8915H82.3552ZM85.942 53.0269C85.9265 52.5051 85.7629 52.0806 85.4513 51.7534C85.1398 51.4263 84.7231 51.2627 84.2012 51.2627C83.913 51.2627 83.6598 51.3094 83.4418 51.4029C83.2237 51.4964 83.0406 51.6249 82.8926 51.7885C82.7446 51.952 82.6278 52.1429 82.5421 52.361C82.4564 52.5713 82.4019 52.7933 82.3785 53.0269H85.942ZM92.219 55.8193C92.0866 55.9985 91.9347 56.1426 91.7633 56.2516C91.592 56.3607 91.4128 56.4463 91.2259 56.5086C91.0467 56.571 90.8637 56.6138 90.6767 56.6372C90.4976 56.6605 90.3184 56.6722 90.1393 56.6722C89.8511 56.6722 89.5785 56.6372 89.3214 56.5671C89.0644 56.497 88.8307 56.384 88.6204 56.2282C88.4179 56.0725 88.2543 55.8777 88.1297 55.6441C88.0129 55.4104 87.9545 55.1456 87.9545 54.8496C87.9545 54.4991 88.0168 54.207 88.1414 53.9733C88.2738 53.7318 88.4491 53.5371 88.6672 53.3891C88.8853 53.2411 89.1345 53.1399 89.4149 53.0853C89.7031 53.023 90.0069 52.9919 90.3262 52.9919H92.1372C92.1372 52.47 92.0242 52.0572 91.7984 51.7534C91.5725 51.4418 91.1908 51.2783 90.6534 51.2627C90.3262 51.2627 90.038 51.3172 89.7888 51.4263C89.5395 51.5353 89.3682 51.7145 89.2747 51.9637H88.2115C88.266 51.6833 88.3751 51.4457 88.5386 51.251C88.7022 51.0485 88.8969 50.8849 89.1228 50.7603C89.3487 50.6279 89.5941 50.5305 89.8589 50.4682C90.1237 50.4059 90.3885 50.3747 90.6534 50.3747C91.1129 50.3747 91.4985 50.4526 91.81 50.6084C92.1294 50.7564 92.3864 50.955 92.5812 51.2043C92.7759 51.4457 92.9122 51.7417 92.9901 52.0922C93.068 52.4427 93.1069 52.8361 93.1069 53.2723V56.6021H92.2774L92.219 55.8193ZM91.0506 53.8214C90.8637 53.8214 90.6456 53.8253 90.3963 53.8331C90.1549 53.8331 89.9212 53.8565 89.6953 53.9032C89.4694 53.9499 89.2864 54.0473 89.1462 54.1953C89.0138 54.3433 88.9476 54.538 88.9476 54.7795C88.9476 54.9586 88.9826 55.1105 89.0527 55.2351C89.1228 55.3598 89.2163 55.4649 89.3331 55.5506C89.4577 55.6363 89.598 55.6986 89.7537 55.7375C89.9095 55.7765 90.0692 55.7959 90.2328 55.7959C90.8169 55.7959 91.2765 55.6557 91.6114 55.3753C91.9541 55.0871 92.1294 54.6704 92.1372 54.1252V53.8214H91.0506ZM95.2414 56.6255C95.0389 56.6099 94.8753 56.5437 94.7507 56.4269C94.626 56.31 94.5637 56.1542 94.5637 55.9595C94.5715 55.757 94.6416 55.5973 94.774 55.4805C94.9142 55.3559 95.0739 55.2935 95.2531 55.2935C95.4789 55.2935 95.6581 55.3753 95.7905 55.5389C95.9307 55.7025 96.0008 55.9323 96.0008 56.2282C96.0008 56.3918 95.9658 56.571 95.8957 56.7657C95.8334 56.9682 95.7477 57.1512 95.6386 57.3148C95.5296 57.4784 95.4011 57.6225 95.2531 57.7471C95.1129 57.8717 94.9649 57.9613 94.8091 58.0158L94.5287 57.6303C94.6845 57.5212 94.8286 57.3732 94.961 57.1863C95.1012 56.9994 95.1946 56.8124 95.2414 56.6255ZM100.137 58.822V50.4448H101.083L101.13 51.3679C101.34 51.0485 101.625 50.807 101.983 50.6435C102.349 50.4721 102.742 50.3825 103.163 50.3747C103.638 50.3747 104.039 50.4565 104.366 50.6201C104.701 50.7759 104.978 50.9979 105.196 51.2861C105.422 51.5665 105.589 51.9014 105.698 52.2909C105.807 52.6725 105.862 53.0853 105.862 53.5293C105.862 53.9811 105.807 54.3978 105.698 54.7795C105.589 55.1611 105.422 55.4922 105.196 55.7726C104.97 56.053 104.686 56.275 104.343 56.4385C104 56.5943 103.591 56.6722 103.116 56.6722C102.649 56.6722 102.252 56.5982 101.924 56.4502C101.597 56.3022 101.332 56.0958 101.13 55.831V58.822H100.137ZM103.034 55.7959C103.369 55.7959 103.65 55.7375 103.876 55.6207C104.109 55.4961 104.296 55.3325 104.436 55.13C104.584 54.9197 104.69 54.6782 104.752 54.4056C104.822 54.133 104.861 53.8409 104.869 53.5293C104.869 53.2178 104.834 52.9257 104.764 52.653C104.701 52.3726 104.596 52.1312 104.448 51.9287C104.3 51.7261 104.105 51.5665 103.864 51.4496C103.63 51.325 103.346 51.2627 103.011 51.2627C102.614 51.2627 102.271 51.3717 101.983 51.5898C101.695 51.8001 101.477 52.0689 101.329 52.396C101.243 52.5752 101.184 52.7621 101.153 52.9568C101.122 53.1438 101.107 53.3385 101.107 53.541C101.107 53.7747 101.122 53.9928 101.153 54.1953C101.184 54.39 101.243 54.577 101.329 54.7561C101.477 55.0521 101.691 55.3013 101.971 55.5039C102.259 55.6986 102.614 55.7959 103.034 55.7959ZM107.071 56.6021V50.4448H108.029L108.076 51.4029C108.302 51.0446 108.59 50.7837 108.941 50.6201C109.291 50.4565 109.688 50.3747 110.132 50.3747H110.448V51.3094H110.086C109.72 51.3094 109.408 51.3717 109.151 51.4964C108.894 51.6132 108.684 51.7768 108.52 51.9871C108.364 52.1896 108.247 52.4311 108.169 52.7115C108.099 52.9919 108.064 53.2879 108.064 53.5994V56.6021H107.071ZM113.909 50.3747C114.4 50.3747 114.825 50.4526 115.183 50.6084C115.541 50.7642 115.841 50.9823 116.083 51.2627C116.332 51.5431 116.515 51.878 116.632 52.2675C116.756 52.6492 116.819 53.0698 116.819 53.5293C116.819 53.9889 116.756 54.4134 116.632 54.8028C116.515 55.1845 116.332 55.5155 116.083 55.7959C115.841 56.0686 115.537 56.2828 115.171 56.4385C114.805 56.5943 114.377 56.6722 113.886 56.6722C113.395 56.6722 112.967 56.5943 112.601 56.4385C112.243 56.2828 111.939 56.0686 111.69 55.7959C111.448 55.5155 111.265 55.1845 111.14 54.8028C111.024 54.4134 110.965 53.9889 110.965 53.5293C110.965 53.0698 111.024 52.6492 111.14 52.2675C111.265 51.878 111.448 51.5431 111.69 51.2627C111.939 50.9823 112.25 50.7642 112.624 50.6084C112.998 50.4526 113.427 50.3747 113.909 50.3747ZM113.886 55.7959C114.221 55.7959 114.509 55.7375 114.751 55.6207C115 55.5039 115.202 55.3442 115.358 55.1417C115.522 54.9314 115.639 54.6899 115.709 54.4173C115.787 54.1447 115.826 53.8487 115.826 53.5293C115.826 53.2178 115.787 52.9257 115.709 52.653C115.639 52.3726 115.522 52.1312 115.358 51.9287C115.202 51.7184 115 51.5548 114.751 51.438C114.509 51.3211 114.221 51.2627 113.886 51.2627C113.551 51.2627 113.263 51.3211 113.021 51.438C112.78 51.5548 112.577 51.7184 112.414 51.9287C112.258 52.1312 112.141 52.3726 112.063 52.653C111.993 52.9257 111.958 53.2178 111.958 53.5293C111.958 53.8487 111.993 54.1447 112.063 54.4173C112.141 54.6899 112.258 54.9314 112.414 55.1417C112.577 55.3442 112.78 55.5039 113.021 55.6207C113.263 55.7375 113.551 55.7959 113.886 55.7959ZM118.848 48.1899C119.035 48.1899 119.195 48.2522 119.327 48.3768C119.46 48.4937 119.526 48.6495 119.526 48.8442C119.526 49.0389 119.46 49.1986 119.327 49.3232C119.195 49.4478 119.035 49.5102 118.848 49.5102C118.654 49.5102 118.494 49.4478 118.369 49.3232C118.245 49.1986 118.182 49.0389 118.182 48.8442C118.182 48.6495 118.245 48.4937 118.369 48.3768C118.494 48.2522 118.654 48.1899 118.848 48.1899ZM119.351 50.4448V56.7189C119.351 57.4044 119.203 57.9068 118.907 58.2261C118.611 58.5455 118.116 58.7052 117.423 58.7052H116.886V57.8406H117.306C117.727 57.8406 118.007 57.7354 118.147 57.5251C118.288 57.3148 118.358 57.011 118.358 56.6138V50.4448H119.351ZM121.651 53.8915C121.675 54.1641 121.729 54.4173 121.815 54.6509C121.908 54.8768 122.033 55.0755 122.189 55.2468C122.345 55.4182 122.535 55.5545 122.761 55.6557C122.995 55.7492 123.264 55.7959 123.567 55.7959C123.715 55.7959 123.867 55.7843 124.023 55.7609C124.187 55.7297 124.339 55.683 124.479 55.6207C124.619 55.5506 124.744 55.461 124.853 55.352C124.962 55.2429 125.044 55.1105 125.098 54.9547H126.115C126.044 55.2507 125.924 55.5077 125.752 55.7258C125.589 55.9439 125.39 56.1231 125.156 56.2633C124.931 56.4035 124.677 56.5086 124.397 56.5787C124.117 56.6411 123.832 56.6722 123.544 56.6722C123.053 56.6722 122.625 56.5943 122.259 56.4385C121.901 56.2828 121.601 56.0686 121.359 55.7959C121.118 55.5155 120.939 55.1845 120.822 54.8028C120.705 54.4134 120.647 53.9889 120.647 53.5293C120.647 53.0698 120.709 52.6492 120.834 52.2675C120.966 51.878 121.153 51.5431 121.394 51.2627C121.636 50.9823 121.932 50.7642 122.282 50.6084C122.633 50.4526 123.05 50.3747 123.532 50.3747C124.023 50.3747 124.448 50.4721 124.806 50.6668C125.164 50.8616 125.452 51.1186 125.671 51.438C125.889 51.7495 126.041 52.0883 126.126 52.4544C126.22 52.8205 126.259 53.1593 126.243 53.4709C126.243 53.541 126.239 53.6111 126.231 53.6812C126.231 53.7513 126.227 53.8214 126.22 53.8915H121.651ZM125.238 53.0269C125.223 52.5051 125.059 52.0806 124.748 51.7534C124.436 51.4263 124.019 51.2627 123.497 51.2627C123.209 51.2627 122.956 51.3094 122.738 51.4029C122.52 51.4964 122.337 51.6249 122.189 51.7885C122.041 51.952 121.924 52.1429 121.838 52.361C121.753 52.5713 121.698 52.7933 121.675 53.0269H125.238ZM130.204 56.6722C129.713 56.6722 129.289 56.5943 128.93 56.4385C128.572 56.2828 128.276 56.0647 128.042 55.7843C127.809 55.5039 127.633 55.1728 127.517 54.7912C127.4 54.4095 127.341 53.9928 127.341 53.541C127.341 53.1048 127.404 52.6959 127.528 52.3142C127.653 51.9248 127.836 51.5898 128.077 51.3094C128.319 51.0212 128.623 50.7954 128.989 50.6318C129.355 50.4604 129.799 50.3747 130.321 50.3747C130.632 50.3747 130.909 50.4098 131.15 50.4799C131.392 50.5422 131.618 50.6474 131.828 50.7954C132.046 50.9356 132.233 51.1225 132.389 51.3562C132.544 51.5898 132.657 51.8741 132.728 52.2091H131.711C131.594 51.8664 131.407 51.621 131.15 51.473C130.901 51.325 130.605 51.2549 130.262 51.2627C129.927 51.2627 129.631 51.3289 129.374 51.4613C129.125 51.5859 128.923 51.7534 128.767 51.9637C128.619 52.174 128.51 52.4194 128.44 52.6998C128.37 52.9724 128.334 53.2528 128.334 53.541C128.334 53.8448 128.37 54.133 128.44 54.4056C128.518 54.6782 128.63 54.9197 128.778 55.13C128.934 55.3325 129.133 55.4961 129.374 55.6207C129.616 55.7375 129.904 55.7959 130.239 55.7959C130.402 55.7959 130.562 55.7804 130.718 55.7492C130.882 55.7181 131.03 55.6674 131.162 55.5973C131.302 55.5194 131.423 55.4182 131.524 55.2935C131.625 55.1689 131.699 55.017 131.746 54.8379H132.774C132.712 55.1572 132.599 55.4338 132.435 55.6674C132.28 55.8933 132.085 56.0841 131.851 56.2399C131.618 56.3879 131.361 56.497 131.08 56.5671C130.8 56.6372 130.508 56.6722 130.204 56.6722ZM135.47 50.4448H137.363V51.3211H135.47V54.5224C135.47 54.7016 135.478 54.869 135.493 55.0248C135.517 55.1728 135.556 55.3052 135.61 55.4221C135.673 55.5311 135.758 55.6207 135.867 55.6908C135.984 55.7531 136.14 55.7882 136.335 55.7959C136.514 55.7959 136.67 55.7648 136.802 55.7025C136.942 55.6402 137.059 55.5662 137.153 55.4805L137.585 56.2049C137.382 56.3762 137.172 56.497 136.954 56.5671C136.736 56.6372 136.494 56.6722 136.23 56.6722C135.895 56.6722 135.614 56.6255 135.388 56.532C135.162 56.4308 134.972 56.2867 134.816 56.0997C134.683 55.9206 134.594 55.7103 134.547 55.4688C134.5 55.2273 134.477 54.9547 134.477 54.6509V51.3211H133.472V50.4448H134.477V48.5988H135.47V50.4448ZM144.175 50.3747C144.665 50.3747 145.09 50.4526 145.448 50.6084C145.806 50.7642 146.106 50.9823 146.348 51.2627C146.597 51.5431 146.78 51.878 146.897 52.2675C147.021 52.6492 147.084 53.0698 147.084 53.5293C147.084 53.9889 147.021 54.4134 146.897 54.8028C146.78 55.1845 146.597 55.5155 146.348 55.7959C146.106 56.0686 145.802 56.2828 145.436 56.4385C145.07 56.5943 144.642 56.6722 144.151 56.6722C143.66 56.6722 143.232 56.5943 142.866 56.4385C142.508 56.2828 142.204 56.0686 141.955 55.7959C141.713 55.5155 141.53 55.1845 141.406 54.8028C141.289 54.4134 141.23 53.9889 141.23 53.5293C141.23 53.0698 141.289 52.6492 141.406 52.2675C141.53 51.878 141.713 51.5431 141.955 51.2627C142.204 50.9823 142.515 50.7642 142.889 50.6084C143.263 50.4526 143.692 50.3747 144.175 50.3747ZM144.151 55.7959C144.486 55.7959 144.774 55.7375 145.016 55.6207C145.265 55.5039 145.468 55.3442 145.623 55.1417C145.787 54.9314 145.904 54.6899 145.974 54.4173C146.052 54.1447 146.091 53.8487 146.091 53.5293C146.091 53.2178 146.052 52.9257 145.974 52.653C145.904 52.3726 145.787 52.1312 145.623 51.9287C145.468 51.7184 145.265 51.5548 145.016 51.438C144.774 51.3211 144.486 51.2627 144.151 51.2627C143.816 51.2627 143.528 51.3211 143.287 51.438C143.045 51.5548 142.843 51.7184 142.679 51.9287C142.523 52.1312 142.406 52.3726 142.329 52.653C142.258 52.9257 142.223 53.2178 142.223 53.5293C142.223 53.8487 142.258 54.1447 142.329 54.4173C142.406 54.6899 142.523 54.9314 142.679 55.1417C142.843 55.3442 143.045 55.5039 143.287 55.6207C143.528 55.7375 143.816 55.7959 144.151 55.7959ZM148.296 56.6021V50.4448H149.254L149.3 51.4029C149.526 51.0446 149.815 50.7837 150.165 50.6201C150.516 50.4565 150.913 50.3747 151.357 50.3747H151.672V51.3094H151.31C150.944 51.3094 150.632 51.3717 150.375 51.4964C150.118 51.6132 149.908 51.7768 149.744 51.9871C149.589 52.1896 149.472 52.4311 149.394 52.7115C149.324 52.9919 149.289 53.2879 149.289 53.5994V56.6021H148.296ZM155.57 56.6021V48.3418H156.563V51.3562C156.765 51.0446 157.053 50.8031 157.427 50.6318C157.809 50.4526 158.198 50.367 158.596 50.3747C159.063 50.3747 159.464 50.4565 159.799 50.6201C160.142 50.7837 160.422 51.0057 160.64 51.2861C160.866 51.5665 161.03 51.9014 161.131 52.2909C161.24 52.6725 161.295 53.0853 161.295 53.5293C161.295 53.9733 161.24 54.3861 161.131 54.7678C161.03 55.1417 160.866 55.4688 160.64 55.7492C160.414 56.0296 160.126 56.2516 159.776 56.4152C159.433 56.5787 159.024 56.6644 158.549 56.6722H158.42C158 56.6722 157.634 56.5982 157.322 56.4502C157.018 56.3022 156.765 56.1036 156.563 55.8544L156.516 56.6021H155.57ZM158.467 55.7959C158.802 55.7959 159.083 55.7375 159.308 55.6207C159.542 55.4961 159.729 55.3325 159.869 55.13C160.017 54.9197 160.122 54.6782 160.185 54.4056C160.255 54.133 160.294 53.8409 160.302 53.5293C160.302 53.2178 160.266 52.9257 160.196 52.653C160.134 52.3726 160.029 52.1312 159.881 51.9287C159.733 51.7261 159.538 51.5665 159.297 51.4496C159.063 51.325 158.779 51.2627 158.444 51.2627C158.257 51.2627 158.074 51.2939 157.895 51.3562C157.716 51.4185 157.556 51.5042 157.416 51.6132C157.275 51.7145 157.151 51.8313 157.042 51.9637C156.941 52.0961 156.855 52.2363 156.785 52.3843C156.699 52.5635 156.637 52.7543 156.598 52.9568C156.559 53.1593 156.539 53.3541 156.539 53.541C156.539 53.7435 156.551 53.9538 156.574 54.1719C156.606 54.3822 156.668 54.577 156.761 54.7561C156.902 55.0521 157.116 55.3013 157.404 55.5039C157.692 55.6986 158.047 55.7959 158.467 55.7959ZM165.074 55.7959C165.635 55.7959 166.044 55.6285 166.301 55.2935C166.566 54.9508 166.698 54.4757 166.698 53.8681V50.4448H167.692V53.9149C167.692 54.8496 167.466 55.5428 167.014 55.9946C166.57 56.4463 165.923 56.6722 165.074 56.6722C164.225 56.6722 163.579 56.4463 163.135 55.9946C162.699 55.5428 162.481 54.8496 162.481 53.9149V50.4448H163.474V53.8681C163.474 54.4757 163.606 54.9508 163.871 55.2935C164.136 55.6285 164.537 55.7959 165.074 55.7959ZM169.691 48.1899C169.878 48.1899 170.038 48.2522 170.171 48.3768C170.303 48.4937 170.369 48.6495 170.369 48.8442C170.369 49.0389 170.303 49.1986 170.171 49.3232C170.038 49.4478 169.878 49.5102 169.691 49.5102C169.497 49.5102 169.337 49.4478 169.212 49.3232C169.088 49.1986 169.026 49.0389 169.026 48.8442C169.026 48.6495 169.088 48.4937 169.212 48.3768C169.337 48.2522 169.497 48.1899 169.691 48.1899ZM169.201 56.6021V50.4448H170.194V56.6021H169.201ZM171.729 56.6021V48.3418H172.722V56.6021H171.729ZM179.659 56.6021H178.713L178.666 55.6791C178.456 56.0296 178.164 56.2828 177.79 56.4385C177.424 56.5943 177.038 56.6722 176.633 56.6722C176.166 56.6644 175.761 56.5826 175.418 56.4269C175.075 56.2633 174.795 56.0413 174.577 55.7609C174.359 55.4805 174.195 55.1533 174.086 54.7795C173.985 54.3978 173.934 53.985 173.934 53.541C173.934 53.097 173.989 52.6842 174.098 52.3025C174.207 51.9131 174.374 51.5782 174.6 51.2977C174.826 51.0096 175.111 50.7837 175.453 50.6201C175.796 50.4565 176.205 50.3747 176.68 50.3747C177.038 50.3747 177.401 50.441 177.767 50.5734C178.133 50.7058 178.433 50.92 178.666 51.216V48.3418H179.659V56.6021ZM176.762 51.2627C176.427 51.2627 176.143 51.325 175.909 51.4496C175.675 51.5665 175.484 51.7261 175.336 51.9287C175.196 52.1312 175.091 52.3726 175.021 52.653C174.959 52.9257 174.927 53.2255 174.927 53.5527C174.927 53.8798 174.959 54.1758 175.021 54.4406C175.083 54.6977 175.188 54.9275 175.336 55.13C175.484 55.3325 175.675 55.4961 175.909 55.6207C176.143 55.7375 176.431 55.7959 176.773 55.7959C177.171 55.7959 177.498 55.7025 177.755 55.5155C178.012 55.3286 178.218 55.0949 178.374 54.8145C178.483 54.6198 178.561 54.4095 178.608 54.1836C178.655 53.9499 178.678 53.7202 178.678 53.4943C178.678 53.2139 178.651 52.9568 178.596 52.7232C178.549 52.4895 178.46 52.2714 178.327 52.0689C178.172 51.843 177.965 51.6522 177.708 51.4964C177.451 51.3406 177.136 51.2627 176.762 51.2627ZM181.675 48.1899C181.862 48.1899 182.022 48.2522 182.154 48.3768C182.286 48.4937 182.353 48.6495 182.353 48.8442C182.353 49.0389 182.286 49.1986 182.154 49.3232C182.022 49.4478 181.862 49.5102 181.675 49.5102C181.48 49.5102 181.321 49.4478 181.196 49.3232C181.071 49.1986 181.009 49.0389 181.009 48.8442C181.009 48.6495 181.071 48.4937 181.196 48.3768C181.321 48.2522 181.48 48.1899 181.675 48.1899ZM181.184 56.6021V50.4448H182.177V56.6021H181.184ZM183.713 56.6021V50.4448H184.671L184.717 51.3795C184.819 51.2082 184.943 51.0602 185.091 50.9356C185.247 50.8109 185.414 50.7058 185.594 50.6201C185.773 50.5344 185.96 50.4721 186.154 50.4332C186.357 50.3942 186.552 50.3747 186.739 50.3747C187.183 50.3747 187.556 50.4487 187.86 50.5967C188.164 50.7369 188.405 50.9356 188.585 51.1926C188.764 51.4418 188.892 51.7417 188.97 52.0922C189.048 52.435 189.087 52.8049 189.087 53.2022V56.6021H188.094V53.4709C188.094 53.1827 188.074 52.9062 188.035 52.6414C188.004 52.3765 187.934 52.1429 187.825 51.9403C187.724 51.73 187.576 51.5626 187.381 51.438C187.186 51.3133 186.926 51.251 186.598 51.251C186.279 51.2588 185.995 51.3367 185.746 51.4847C185.504 51.6327 185.309 51.8079 185.161 52.0105C184.982 52.2675 184.861 52.5518 184.799 52.8634C184.737 53.1671 184.706 53.4748 184.706 53.7864V56.6021H183.713ZM195.99 56.5554C195.99 57.4278 195.756 58.1132 195.289 58.6117C194.822 59.1102 194.117 59.3594 193.174 59.3594C192.863 59.3594 192.563 59.3244 192.275 59.2543C191.994 59.1842 191.737 59.0712 191.503 58.9155C191.278 58.7675 191.083 58.5766 190.919 58.343C190.763 58.1171 190.654 57.8445 190.592 57.5251H191.62C191.667 57.7043 191.745 57.8523 191.854 57.9691C191.971 58.0937 192.103 58.1911 192.251 58.2612C192.399 58.3391 192.559 58.3936 192.73 58.4248C192.902 58.4559 193.069 58.4715 193.233 58.4715C193.544 58.4715 193.813 58.4209 194.039 58.3196C194.265 58.2261 194.448 58.0937 194.588 57.9224C194.728 57.751 194.829 57.5446 194.892 57.3031C194.962 57.0695 194.997 56.8124 194.997 56.532V55.6791C194.794 56.0374 194.506 56.2944 194.132 56.4502C193.758 56.5982 193.369 56.6722 192.964 56.6722C192.497 56.6644 192.092 56.5826 191.749 56.4269C191.406 56.2633 191.126 56.0413 190.908 55.7609C190.689 55.4805 190.526 55.1533 190.417 54.7795C190.316 54.3978 190.265 53.985 190.265 53.541C190.265 53.097 190.319 52.6842 190.429 52.3025C190.538 51.9131 190.705 51.5782 190.931 51.2977C191.157 51.0096 191.441 50.7837 191.784 50.6201C192.127 50.4565 192.535 50.3747 193.011 50.3747C193.369 50.3747 193.731 50.441 194.097 50.5734C194.463 50.7058 194.763 50.92 194.997 51.216L195.044 50.4448H195.99V56.5554ZM193.092 51.2627C192.757 51.2627 192.473 51.325 192.239 51.4496C192.006 51.5665 191.815 51.7261 191.667 51.9287C191.527 52.1312 191.422 52.3726 191.352 52.653C191.289 52.9257 191.258 53.2178 191.258 53.5293C191.258 53.872 191.289 54.1758 191.352 54.4406C191.414 54.6977 191.519 54.9275 191.667 55.13C191.815 55.3325 192.006 55.4961 192.239 55.6207C192.473 55.7375 192.761 55.7959 193.104 55.7959C193.501 55.7959 193.828 55.7025 194.086 55.5155C194.343 55.3286 194.549 55.0949 194.705 54.8145C194.814 54.6198 194.892 54.4095 194.938 54.1836C194.985 53.9499 195.009 53.7202 195.009 53.4943C195.009 53.2139 194.981 52.9568 194.927 52.7232C194.88 52.4895 194.79 52.2714 194.658 52.0689C194.502 51.843 194.296 51.6522 194.039 51.4964C193.782 51.3406 193.466 51.2627 193.092 51.2627Z" fill="#424242"/>
<g clip-path="url(#clip1_936_20468)">
<path d="M235.449 49.3431C235.389 49.3185 235.334 49.2822 235.288 49.2364C235.242 49.1905 235.206 49.136 235.181 49.0759L234.781 48.1689C234.707 48.0248 234.491 48.0248 234.421 48.1689L234.021 49.0763C233.967 49.1947 233.872 49.2895 233.753 49.3431L233.243 49.5632C233.209 49.5788 233.181 49.6036 233.161 49.6348C233.141 49.666 233.131 49.7022 233.131 49.7392C233.131 49.7762 233.141 49.8125 233.161 49.8436C233.181 49.8748 233.209 49.8997 233.243 49.9153L233.753 50.1354C233.876 50.1862 233.973 50.2837 234.021 50.4026L234.421 51.3138C234.496 51.4579 234.711 51.4579 234.781 51.3138L235.181 50.4022C235.234 50.2837 235.331 50.1904 235.449 50.1354L235.959 49.9153C235.993 49.8997 236.021 49.8748 236.041 49.8436C236.061 49.8125 236.072 49.7762 236.072 49.7392C236.072 49.7022 236.061 49.666 236.041 49.6348C236.021 49.6036 235.993 49.5788 235.959 49.5632L235.449 49.3431ZM241.774 52.075C241.408 51.9115 241.119 51.6143 240.966 51.2445L239.764 48.4012C239.715 48.2992 239.638 48.2132 239.542 48.153C239.446 48.0927 239.335 48.0608 239.222 48.0608C239.109 48.0608 238.998 48.0927 238.902 48.153C238.806 48.2132 238.729 48.2992 238.68 48.4012L237.477 51.2445C237.322 51.6126 237.034 51.9089 236.67 52.075L235.148 52.764C234.698 52.9867 234.698 53.6378 235.148 53.8605L236.67 54.5494C237.035 54.7134 237.324 55.0104 237.478 55.38L238.68 58.2233C238.729 58.3253 238.806 58.4113 238.902 58.4715C238.998 58.5317 239.109 58.5637 239.222 58.5637C239.335 58.5637 239.446 58.5317 239.542 58.4715C239.638 58.4113 239.715 58.3253 239.764 58.2233L240.967 55.38C241.122 55.0119 241.41 54.7155 241.774 54.5494L243.295 53.8605C243.746 53.6378 243.746 52.9867 243.295 52.764L241.774 52.075ZM234.509 54.9212C234.576 55.0859 234.699 55.2136 234.854 55.2876L235.505 55.5922C235.549 55.6151 235.586 55.6496 235.612 55.6921C235.638 55.7345 235.651 55.7832 235.651 55.8329C235.651 55.8825 235.638 55.9312 235.612 55.9737C235.586 56.0161 235.549 56.0507 235.505 56.0736L234.854 56.3782C234.699 56.4521 234.576 56.584 234.509 56.7445L233.993 57.9952C233.972 58.0394 233.939 58.0768 233.898 58.1031C233.857 58.1293 233.809 58.1433 233.76 58.1433C233.712 58.1433 233.664 58.1293 233.623 58.1031C233.582 58.0768 233.549 58.0394 233.528 57.9952L233.013 56.7445C232.947 56.5837 232.824 56.453 232.667 56.3782L232.016 56.0736C231.972 56.0507 231.935 56.0161 231.909 55.9737C231.884 55.9312 231.87 55.8825 231.87 55.8329C231.87 55.7832 231.884 55.7345 231.909 55.6921C231.935 55.6496 231.972 55.6151 232.016 55.5922L232.667 55.2876C232.822 55.2136 232.945 55.0817 233.013 54.9212L233.529 53.6706C233.549 53.6263 233.582 53.5889 233.623 53.5627C233.664 53.5364 233.712 53.5225 233.761 53.5225C233.81 53.5225 233.857 53.5364 233.899 53.5627C233.94 53.5889 233.973 53.6263 233.993 53.6706L234.509 54.9212Z" fill="url(#paint0_linear_936_20468)"/>
</g>
<path d="M254.491 56.6021L253.832 54.8141H249.715L249.056 56.6021H247.951L251.044 48.2857H252.515L255.597 56.6021H254.491ZM251.774 49.1797L250.056 53.8849H253.491L251.774 49.1797ZM258.713 51.2264C258.572 51.2264 258.427 51.2382 258.278 51.2617C258.136 51.2774 257.995 51.3166 257.854 51.3794C257.721 51.4342 257.603 51.5205 257.501 51.6381C257.407 51.7479 257.356 51.8969 257.348 52.0851C257.348 52.3518 257.446 52.5517 257.642 52.685C257.846 52.8184 258.109 52.9164 258.431 52.9791C258.564 53.0105 258.709 53.0419 258.866 53.0732C259.023 53.0967 259.176 53.1242 259.325 53.1556C259.481 53.1791 259.626 53.2065 259.76 53.2379C259.901 53.2693 260.019 53.3006 260.113 53.332C260.865 53.5673 261.242 54.0731 261.242 54.8494C261.234 55.2258 261.152 55.5317 260.995 55.7669C260.846 55.9944 260.654 56.1747 260.418 56.308C260.191 56.4414 259.928 56.5355 259.63 56.5903C259.34 56.6452 259.05 56.6727 258.76 56.6727C258.478 56.6727 258.191 56.6452 257.901 56.5903C257.611 56.5355 257.344 56.4414 257.101 56.308C256.866 56.1669 256.662 55.9865 256.49 55.7669C256.325 55.5395 256.219 55.2572 256.172 54.92H257.184C257.246 55.1082 257.344 55.2572 257.478 55.367C257.611 55.4768 257.752 55.563 257.901 55.6258C258.058 55.6885 258.203 55.7317 258.336 55.7552C258.478 55.7787 258.634 55.7905 258.807 55.7905C258.932 55.7905 259.077 55.7826 259.242 55.7669C259.407 55.7513 259.564 55.716 259.713 55.6611C259.862 55.5983 259.987 55.5082 260.089 55.3905C260.191 55.2729 260.242 55.1082 260.242 54.8965C260.242 54.6612 260.164 54.4848 260.007 54.3671C259.858 54.2495 259.65 54.1633 259.383 54.1084C259.195 54.0692 258.999 54.0339 258.795 54.0025C258.599 53.9633 258.399 53.9241 258.195 53.8849C257.999 53.8378 257.807 53.7868 257.619 53.7319C257.431 53.6692 257.254 53.5869 257.09 53.4849C256.87 53.3516 256.694 53.1712 256.56 52.9438C256.427 52.7164 256.36 52.438 256.36 52.1087C256.376 51.7636 256.454 51.4813 256.595 51.2617C256.737 51.0343 256.917 50.85 257.137 50.7089C257.372 50.5677 257.623 50.4697 257.889 50.4148C258.156 50.3599 258.438 50.3325 258.736 50.3325C259.372 50.3325 259.877 50.4697 260.254 50.7442C260.481 50.901 260.658 51.0892 260.783 51.3088C260.909 51.5284 260.987 51.7597 261.018 52.0028H260.089C260.034 51.7754 259.885 51.5911 259.642 51.4499C259.399 51.3088 259.089 51.2343 258.713 51.2264ZM262.486 56.6021V48.2857H263.486V53.0732H264.568L266.427 50.403H267.556L265.486 53.3555L267.733 56.6021H266.556L264.686 53.9437H263.486V56.6021H262.486ZM277.638 56.6021L276.979 54.8141H272.862L272.203 56.6021H271.097L274.191 48.2857H275.662L278.743 56.6021H277.638ZM274.92 49.1797L273.203 53.8849H276.638L274.92 49.1797ZM280.907 56.6021H279.884V48.2857H280.907V56.6021Z" fill="#335CFF"/>
<rect x="0.213867" y="85.7164" width="166.17" height="31.8701" rx="15.935" fill="#335CFF"/>
<path d="M22.3626 98.3012C22.0057 98.3076 21.6998 98.3777 21.4449 98.5115C21.1899 98.6453 20.9796 98.8238 20.8139 99.0468C20.6546 99.2699 20.5367 99.5311 20.4603 99.8307C20.3838 100.124 20.3455 100.436 20.3455 100.767C20.3455 101.099 20.3838 101.414 20.4603 101.714C20.5431 102.007 20.6674 102.268 20.8331 102.498C21.0051 102.721 21.2218 102.899 21.4831 103.033C21.7444 103.161 22.0535 103.224 22.4104 103.224C22.9903 103.224 23.4396 103.074 23.7582 102.775C24.0832 102.469 24.2521 102.074 24.2649 101.59H22.2861V100.653H25.3259C25.3259 100.895 25.3196 101.14 25.3068 101.389C25.3005 101.631 25.2654 101.886 25.2017 102.154C25.1252 102.44 25.0137 102.711 24.8671 102.966C24.7205 103.215 24.5325 103.431 24.3031 103.616C24.0737 103.801 23.7996 103.948 23.481 104.056C23.1687 104.164 22.8087 104.218 22.4008 104.218C21.8718 104.218 21.4066 104.136 21.0051 103.97C20.61 103.798 20.2786 103.559 20.011 103.253C19.7433 102.947 19.5426 102.584 19.4087 102.163C19.2749 101.743 19.208 101.284 19.208 100.787C19.208 100.283 19.2749 99.8179 19.4087 99.3909C19.5426 98.964 19.7401 98.5975 20.0014 98.2916C20.2691 97.9794 20.6005 97.7372 20.9956 97.5651C21.3971 97.393 21.8623 97.307 22.3912 97.307C22.7609 97.307 23.1018 97.3548 23.4141 97.4504C23.7327 97.5396 24.0131 97.6735 24.2553 97.8519C24.4975 98.024 24.6982 98.2406 24.8575 98.5019C25.0169 98.7568 25.122 99.05 25.173 99.3814H24.0546C23.9717 99.0436 23.7773 98.7791 23.4714 98.588C23.1719 98.3968 22.8023 98.3012 22.3626 98.3012ZM26.4213 97.393H31.1149V98.3872H27.5302V100.309H30.7039V101.312H27.5302V103.167H31.1149V104.151H26.4213V97.393ZM33.6597 104.151V98.3872H31.5184V97.393H36.9195V98.3872H34.7686V104.151H33.6597ZM44.7155 104.151L44.2184 102.785H41.1498L40.6432 104.151H39.4387L42.0006 97.393H43.3772L45.9295 104.151H44.7155ZM43.8742 101.79L42.6889 98.4828L41.494 101.79H43.8742ZM47.7788 104.151H46.6699V97.393H47.7788V104.151ZM52.8434 101.676V104.151H51.7345V97.393H54.3633C54.7138 97.393 55.042 97.4281 55.3479 97.4982C55.6538 97.5683 55.9183 97.6862 56.1413 97.8519C56.3707 98.0176 56.5492 98.2375 56.6766 98.5115C56.8105 98.7855 56.8774 99.1233 56.8774 99.5248C56.8774 99.7988 56.836 100.051 56.7531 100.28C56.6766 100.503 56.5715 100.701 56.4377 100.873C56.3038 101.038 56.1477 101.179 55.9693 101.293C55.7908 101.402 55.5996 101.481 55.3957 101.532L56.8583 104.151H55.6251C55.4021 103.737 55.1758 103.326 54.9464 102.918C54.7234 102.504 54.4971 102.09 54.2677 101.676H52.8434ZM54.2103 100.71C54.427 100.71 54.6309 100.691 54.8221 100.653C55.0133 100.615 55.179 100.551 55.3192 100.462C55.4594 100.372 55.5678 100.251 55.6442 100.098C55.7271 99.939 55.7685 99.7383 55.7685 99.4961C55.7685 99.2794 55.7335 99.101 55.6634 98.9608C55.5996 98.8206 55.504 98.709 55.3766 98.6262C55.2491 98.537 55.0962 98.4764 54.9177 98.4446C54.7393 98.4063 54.5417 98.3872 54.325 98.3872H52.8434V100.71H54.2103ZM58.0242 97.393H62.7178V98.3872H59.1331V100.309H62.3068V101.312H59.1331V103.167H62.7178V104.151H58.0242V97.393ZM66.6296 98.3012C66.2727 98.3012 65.9636 98.3681 65.7024 98.5019C65.4474 98.6358 65.2371 98.8142 65.0714 99.0373C64.9057 99.2603 64.7815 99.5216 64.6986 99.8211C64.6222 100.114 64.5839 100.423 64.5839 100.748C64.5839 101.08 64.6253 101.395 64.7082 101.695C64.791 101.994 64.9153 102.259 65.081 102.488C65.2531 102.711 65.4697 102.89 65.731 103.023C65.9923 103.157 66.3014 103.224 66.6583 103.224C67.098 103.224 67.4645 103.129 67.7576 102.937C68.0571 102.746 68.2451 102.488 68.3216 102.163H69.4305C69.3795 102.488 69.2712 102.778 69.1055 103.033C68.9462 103.288 68.7454 103.505 68.5032 103.683C68.2611 103.855 67.9807 103.989 67.662 104.085C67.3434 104.174 67.0024 104.218 66.6392 104.218C66.1102 104.218 65.645 104.132 65.2435 103.96C64.8484 103.788 64.517 103.549 64.2493 103.243C63.9817 102.937 63.7809 102.574 63.6471 102.154C63.5133 101.733 63.4464 101.271 63.4464 100.767C63.4464 100.277 63.5133 99.8211 63.6471 99.4005C63.7873 98.9735 63.9912 98.6071 64.2589 98.3012C64.5266 97.9889 64.858 97.7467 65.2531 97.5747C65.6546 97.3962 66.1198 97.307 66.6487 97.307C67.3944 97.307 68.0093 97.4823 68.4937 97.8328C68.978 98.1833 69.2712 98.6995 69.3731 99.3814H68.2834C68.2005 99.05 68.0157 98.7887 67.7289 98.5975C67.4422 98.4 67.0757 98.3012 66.6296 98.3012ZM73.4346 104.218C72.9056 104.218 72.4372 104.132 72.0294 103.96C71.6279 103.782 71.2901 103.54 71.0161 103.234C70.742 102.928 70.5317 102.565 70.3852 102.144C70.245 101.723 70.1749 101.265 70.1749 100.767C70.1749 100.264 70.2481 99.802 70.3947 99.3814C70.5413 98.9544 70.7516 98.588 71.0256 98.2821C71.306 97.9762 71.647 97.7372 72.0485 97.5651C72.4563 97.393 72.9216 97.307 73.4441 97.307C73.9667 97.307 74.4288 97.393 74.8302 97.5651C75.2381 97.7308 75.5791 97.9666 75.8531 98.2725C76.1335 98.5784 76.3438 98.9448 76.484 99.3718C76.6306 99.7924 76.7039 100.254 76.7039 100.758C76.7039 101.255 76.6306 101.717 76.484 102.144C76.3438 102.565 76.1335 102.928 75.8531 103.234C75.5791 103.54 75.2381 103.782 74.8302 103.96C74.4224 104.132 73.9572 104.218 73.4346 104.218ZM73.4441 98.3012C73.0809 98.3012 72.7654 98.3681 72.4978 98.5019C72.2365 98.6358 72.0166 98.8142 71.8382 99.0373C71.6597 99.2603 71.5259 99.5216 71.4367 99.8211C71.3538 100.121 71.3124 100.433 71.3124 100.758C71.3124 101.083 71.3538 101.395 71.4367 101.695C71.5259 101.988 71.6565 102.249 71.8286 102.479C72.0071 102.708 72.2301 102.89 72.4978 103.023C72.7654 103.157 73.0809 103.224 73.4441 103.224C73.801 103.224 74.1133 103.161 74.381 103.033C74.6486 102.899 74.8685 102.721 75.0405 102.498C75.219 102.275 75.3496 102.017 75.4325 101.723C75.5217 101.424 75.5663 101.105 75.5663 100.767C75.5663 100.436 75.5217 100.124 75.4325 99.8307C75.3496 99.5311 75.219 99.2699 75.0405 99.0468C74.8685 98.8174 74.6486 98.6358 74.381 98.5019C74.1197 98.3681 73.8074 98.3012 73.4441 98.3012ZM77.7989 104.151V97.393H79.1946L81.2116 100.854L83.2095 97.393H84.5669V104.151H83.4676V98.8843L81.4315 102.393H80.9344L78.8983 98.8843V104.151H77.7989ZM86.0397 104.151V97.393H87.4354L89.4524 100.854L91.4503 97.393H92.8077V104.151H91.7084V98.8843L89.6723 102.393H89.1752L87.1391 98.8843V104.151H86.0397ZM94.2805 97.393H98.9742V98.3872H95.3894V100.309H98.5631V101.312H95.3894V103.167H98.9742V104.151H94.2805V97.393ZM100.076 104.151V97.393H101.27L104.635 102.469V97.393H105.735V104.151H104.549L101.165 99.0946V104.151H100.076ZM107.205 97.393H109.653C110.188 97.393 110.66 97.4727 111.067 97.632C111.482 97.785 111.826 98.008 112.1 98.3012C112.38 98.588 112.591 98.9417 112.731 99.3623C112.871 99.7829 112.941 100.254 112.941 100.777C112.941 101.306 112.871 101.778 112.731 102.192C112.591 102.606 112.383 102.96 112.109 103.253C111.842 103.546 111.504 103.769 111.096 103.922C110.695 104.075 110.226 104.151 109.691 104.151H107.205V97.393ZM108.314 98.3872V103.167H109.662C110.032 103.167 110.35 103.11 110.618 102.995C110.886 102.88 111.106 102.721 111.278 102.517C111.456 102.307 111.587 102.055 111.67 101.762C111.759 101.469 111.803 101.14 111.803 100.777C111.803 100.025 111.619 99.4387 111.249 99.0181C110.886 98.5975 110.354 98.3872 109.653 98.3872H108.314ZM118.4 104.151L117.903 102.785H114.834L114.328 104.151H113.123L115.685 97.393H117.062L119.614 104.151H118.4ZM117.559 101.79L116.373 98.4828L115.178 101.79H117.559ZM121.322 104.151V98.3872H119.18V97.393H124.581V98.3872H122.431V104.151H121.322ZM126.465 104.151H125.356V97.393H126.465V104.151ZM130.826 104.218C130.297 104.218 129.829 104.132 129.421 103.96C129.02 103.782 128.682 103.54 128.408 103.234C128.134 102.928 127.924 102.565 127.777 102.144C127.637 101.723 127.567 101.265 127.567 100.767C127.567 100.264 127.64 99.802 127.786 99.3814C127.933 98.9544 128.143 98.588 128.417 98.2821C128.698 97.9762 129.039 97.7372 129.44 97.5651C129.848 97.393 130.313 97.307 130.836 97.307C131.358 97.307 131.821 97.393 132.222 97.5651C132.63 97.7308 132.971 97.9666 133.245 98.2725C133.525 98.5784 133.736 98.9448 133.876 99.3718C134.022 99.7924 134.096 100.254 134.096 100.758C134.096 101.255 134.022 101.717 133.876 102.144C133.736 102.565 133.525 102.928 133.245 103.234C132.971 103.54 132.63 103.782 132.222 103.96C131.814 104.132 131.349 104.218 130.826 104.218ZM130.836 98.3012C130.473 98.3012 130.157 98.3681 129.89 98.5019C129.628 98.6358 129.408 98.8142 129.23 99.0373C129.052 99.2603 128.918 99.5216 128.828 99.8211C128.746 100.121 128.704 100.433 128.704 100.758C128.704 101.083 128.746 101.395 128.828 101.695C128.918 101.988 129.048 102.249 129.22 102.479C129.399 102.708 129.622 102.89 129.89 103.023C130.157 103.157 130.473 103.224 130.836 103.224C131.193 103.224 131.505 103.161 131.773 103.033C132.04 102.899 132.26 102.721 132.432 102.498C132.611 102.275 132.741 102.017 132.824 101.723C132.913 101.424 132.958 101.105 132.958 100.767C132.958 100.436 132.913 100.124 132.824 99.8307C132.741 99.5311 132.611 99.2699 132.432 99.0468C132.26 98.8174 132.04 98.6358 131.773 98.5019C131.511 98.3681 131.199 98.3012 130.836 98.3012ZM135.191 104.151V97.393H136.386L139.751 102.469V97.393H140.85V104.151H139.664L136.28 99.0946V104.151H135.191ZM144.682 98.2916C144.535 98.2916 144.385 98.3044 144.232 98.3299C144.08 98.3554 143.939 98.4031 143.812 98.4733C143.684 98.537 143.579 98.6294 143.496 98.7505C143.414 98.8652 143.372 99.0118 143.372 99.1902C143.372 99.4579 143.461 99.6618 143.64 99.802C143.818 99.9358 144.032 100.038 144.28 100.108C144.459 100.159 144.637 100.207 144.816 100.251C145 100.296 145.169 100.334 145.322 100.366C145.59 100.423 145.842 100.493 146.077 100.576C146.32 100.659 146.53 100.771 146.708 100.911C146.887 101.045 147.027 101.217 147.129 101.427C147.237 101.631 147.291 101.886 147.291 102.192C147.291 102.555 147.225 102.864 147.091 103.119C146.963 103.374 146.788 103.584 146.565 103.75C146.342 103.916 146.081 104.037 145.781 104.113C145.482 104.19 145.16 104.228 144.816 104.228C144.465 104.228 144.131 104.193 143.812 104.123C143.5 104.046 143.219 103.928 142.971 103.769C142.722 103.603 142.515 103.393 142.349 103.138C142.184 102.883 142.078 102.577 142.034 102.221H143.181C143.232 102.412 143.315 102.571 143.43 102.698C143.544 102.826 143.675 102.928 143.821 103.004C143.974 103.081 144.137 103.135 144.309 103.167C144.481 103.199 144.65 103.215 144.816 103.215C144.994 103.215 145.166 103.202 145.332 103.176C145.498 103.145 145.641 103.094 145.762 103.023C145.883 102.953 145.982 102.861 146.058 102.746C146.135 102.632 146.173 102.482 146.173 102.297C146.173 102.042 146.106 101.857 145.972 101.743C145.838 101.621 145.66 101.532 145.437 101.475C145.131 101.386 144.816 101.309 144.491 101.245C144.172 101.175 143.869 101.086 143.582 100.978C143.391 100.908 143.216 100.825 143.057 100.729C142.897 100.634 142.757 100.519 142.636 100.385C142.515 100.251 142.419 100.095 142.349 99.9167C142.286 99.7319 142.254 99.5184 142.254 99.2762C142.254 98.9066 142.324 98.5975 142.464 98.349C142.604 98.0941 142.786 97.8901 143.009 97.7372C143.238 97.5842 143.496 97.4759 143.783 97.4122C144.07 97.3421 144.363 97.307 144.663 97.307C144.981 97.307 145.284 97.3453 145.571 97.4217C145.858 97.4918 146.112 97.6034 146.336 97.7563C146.559 97.9093 146.737 98.1068 146.871 98.349C147.011 98.5911 147.094 98.8843 147.119 99.2284H146.03C146.004 99.0564 145.95 98.913 145.867 98.7983C145.791 98.6836 145.692 98.5911 145.571 98.521C145.456 98.4446 145.322 98.3904 145.169 98.3585C145.016 98.3203 144.854 98.298 144.682 98.2916Z" fill="white"/>
<defs>
<linearGradient id="paint0_linear_936_20468" x1="228.712" y1="46.3102" x2="239.161" y2="61.1756" gradientUnits="userSpaceOnUse">
<stop stop-color="#335CFF"/>
<stop offset="1" stop-color="#00EEA3"/>
</linearGradient>
<clipPath id="clip0_936_20468">
<rect width="12.7458" height="12.7458" fill="white" transform="translate(164.228 7.85205)"/>
</clipPath>
<clipPath id="clip1_936_20468">
<rect width="13.4434" height="13.4434" fill="white" transform="translate(231.029 46.3804)"/>
</clipPath>
</defs>
</svg>
