<svg xmlns="http://www.w3.org/2000/svg" width="303" height="118" fill="none"><rect width="147.165" height="26.825" x=".499" y=".812" stroke="#335CFF" stroke-opacity=".59" stroke-width=".571" rx="13.412"/><path stroke="#335CFF" stroke-linecap="round" stroke-linejoin="round" stroke-width="1.062" d="M17.925 11.651c-.504-.504-1.391-.854-2.206-.876m0 0c-.97-.026-1.838.413-1.838 1.611 0 2.206 4.044 1.103 4.044 3.31 0 1.258-1.077 1.799-2.206 1.758m0-6.679v-1.33m-2.206 6.986c.474.632 1.355.992 2.206 1.023m0 0v1.55"/><path fill="#03030A" d="m25.254 14.97.538-.457q.302-.255.557-.548.265-.293.448-.612a1.5 1.5 0 0 0 .192-.712q.019-.585-.338-.895-.357-.32-.94-.32-.466 0-.813.192a.92.92 0 0 0-.457.557h-.85q.064-.375.265-.648.21-.284.503-.466.3-.183.657-.274a3 3 0 0 1 .73-.091q.449 0 .823.127.374.12.648.357t.42.593q.155.347.155.795 0 .447-.137.803a2.5 2.5 0 0 1-.356.658q-.219.301-.502.566t-.585.53l-1.634 1.378h3.287v.722h-4.438v-.658zM33.796 14q0 .622-.128 1.215-.12.594-.411 1.06a2.26 2.26 0 0 1-.776.739q-.485.283-1.206.283-.73 0-1.214-.283a2.26 2.26 0 0 1-.776-.74 3.1 3.1 0 0 1-.411-1.04 6 6 0 0 1-.12-1.234q0-.657.12-1.232.119-.585.41-1.042a2.26 2.26 0 0 1 .777-.74q.483-.291 1.214-.291.722 0 1.206.283.483.282.776.749.293.465.41 1.059.129.593.129 1.214m-4.228 0q0 .438.064.895.063.457.246.831.182.375.512.612.337.237.885.238.54 0 .868-.238.338-.237.52-.612.183-.375.247-.83.064-.457.064-.896 0-.429-.064-.885a2.8 2.8 0 0 0-.247-.832 1.57 1.57 0 0 0-.52-.62q-.33-.247-.868-.247-.547 0-.885.247a1.6 1.6 0 0 0-.512.62q-.183.375-.246.832-.064.457-.064.885m10.21 0q0 .622-.128 1.215a3.1 3.1 0 0 1-.411 1.06 2.26 2.26 0 0 1-.776.739q-.485.283-1.206.283-.73 0-1.215-.283a2.26 2.26 0 0 1-.776-.74 3.1 3.1 0 0 1-.41-1.04 6 6 0 0 1-.12-1.234q0-.657.12-1.232.117-.585.41-1.042.293-.455.776-.74.485-.291 1.215-.291.721 0 1.206.283.482.282.776.749.293.465.41 1.059.129.593.129 1.214m-4.229 0q0 .438.064.895t.247.831.511.612q.337.237.886.238.54 0 .868-.238.337-.237.52-.612t.247-.83.064-.896q0-.429-.064-.885a2.8 2.8 0 0 0-.247-.832 1.57 1.57 0 0 0-.52-.62q-.33-.247-.868-.247-.547 0-.886.247-.329.237-.511.62-.183.375-.247.832T35.55 14m5.818 3.242a.6.6 0 0 1-.384-.155.48.48 0 0 1-.146-.365.5.5 0 0 1 .164-.375.55.55 0 0 1 .375-.146q.265 0 .42.192.164.191.164.539 0 .192-.082.42a1.6 1.6 0 0 1-.502.767q-.164.146-.347.21l-.22-.301q.184-.128.339-.348.164-.219.219-.438m6.682-3.242q0 .622-.128 1.215a3.1 3.1 0 0 1-.41 1.06 2.26 2.26 0 0 1-.777.739q-.484.283-1.205.283-.73 0-1.215-.283a2.26 2.26 0 0 1-.776-.74 3.1 3.1 0 0 1-.411-1.04A6 6 0 0 1 43.008 14q0-.657.119-1.232.12-.585.41-1.042a2.26 2.26 0 0 1 .777-.74q.485-.291 1.215-.291.72 0 1.205.283.484.282.776.749.293.465.411 1.059.128.593.128 1.214m-4.228 0q0 .438.064.895t.246.831.512.612q.337.237.886.238.538 0 .867-.238.338-.237.52-.612.183-.375.247-.83.064-.457.064-.896 0-.429-.064-.885a2.8 2.8 0 0 0-.246-.832 1.57 1.57 0 0 0-.52-.62q-.33-.247-.868-.247-.548 0-.886.247a1.6 1.6 0 0 0-.512.62q-.182.375-.246.832T43.82 14m10.21 0q0 .622-.128 1.215a3.1 3.1 0 0 1-.411 1.06 2.26 2.26 0 0 1-.776.739q-.484.283-1.206.283-.73 0-1.214-.283a2.26 2.26 0 0 1-.776-.74 3.1 3.1 0 0 1-.411-1.04A6 6 0 0 1 48.99 14q0-.657.119-1.232.119-.585.41-1.042.293-.455.777-.74.483-.291 1.214-.291.722 0 1.206.283.483.282.776.749.292.465.411 1.059.128.593.128 1.214m-4.228 0q0 .438.064.895t.246.831.512.612q.338.237.885.238.54 0 .868-.238.338-.237.52-.612.183-.375.247-.83.064-.457.064-.896 0-.429-.064-.885a2.8 2.8 0 0 0-.247-.832 1.57 1.57 0 0 0-.52-.62q-.329-.247-.868-.247-.548 0-.885.247-.33.237-.512.62-.182.375-.246.832t-.064.885m10.21 0q0 .622-.128 1.215-.12.594-.411 1.06a2.26 2.26 0 0 1-.776.739q-.484.283-1.206.283-.73 0-1.214-.283a2.26 2.26 0 0 1-.777-.74 3.1 3.1 0 0 1-.41-1.04A6 6 0 0 1 54.97 14q0-.657.12-1.232.119-.585.41-1.042.293-.455.777-.74.483-.291 1.214-.291.722 0 1.206.283.483.282.776.749.293.465.41 1.059.129.593.129 1.214m-4.228 0q0 .438.063.895.064.457.247.831.183.375.511.612.338.237.886.238.54 0 .868-.238.337-.237.52-.612t.247-.83.064-.896q0-.429-.064-.885a2.8 2.8 0 0 0-.247-.832 1.57 1.57 0 0 0-.52-.62q-.33-.247-.868-.247-.547 0-.886.247-.329.237-.511.62-.183.375-.247.832-.063.457-.063.885m5.324-.219h2.83v.713h-2.83zm6.073 3.516q-.384 0-.777-.073a2.7 2.7 0 0 1-.721-.247 1.9 1.9 0 0 1-.566-.475 1.5 1.5 0 0 1-.292-.72h.821q.082.236.247.392.174.145.383.237.22.092.457.128t.457.037q.201 0 .456-.037.256-.036.475-.155a1 1 0 0 0 .375-.347q.155-.239.155-.621 0-.365-.146-.585a.93.93 0 0 0-.366-.338 1.4 1.4 0 0 0-.502-.155 4 4 0 0 0-.557-.036h-.62v-.713h.374q.246 0 .456-.009.21-.017.466-.128.292-.136.466-.383.173-.255.182-.585 0-.328-.11-.538a.85.85 0 0 0-.291-.33 1.05 1.05 0 0 0-.412-.154 2.4 2.4 0 0 0-.465-.046q-.192 0-.402.046a1.4 1.4 0 0 0-.384.128 1.1 1.1 0 0 0-.31.246.8.8 0 0 0-.192.356h-.794q.054-.402.255-.685.202-.283.493-.465.301-.183.658-.265a3.36 3.36 0 0 1 1.507.009q.364.083.639.283.274.192.43.511.164.32.164.777 0 .173-.037.374-.036.192-.137.384a1.517 1.517 0 0 1-.794.703q.611.118.931.538.32.411.32.996v.036q0 .502-.183.868a1.64 1.64 0 0 1-.484.593q-.31.229-.73.338t-.895.11m8.279-3.297q0 .622-.128 1.215-.12.594-.41 1.06a2.26 2.26 0 0 1-.777.739q-.484.283-1.206.283-.73 0-1.214-.283a2.26 2.26 0 0 1-.776-.74 3.1 3.1 0 0 1-.411-1.04A6 6 0 0 1 70.42 14q0-.657.119-1.232.119-.585.41-1.042.292-.455.777-.74.484-.291 1.215-.291.72 0 1.205.283.484.282.776.749.292.465.411 1.059.128.593.128 1.214m-4.228 0q0 .438.064.895.063.457.246.831.183.375.512.612.337.237.885.238.54 0 .868-.238.338-.237.52-.612.183-.375.247-.83.064-.457.064-.896 0-.429-.064-.885a2.8 2.8 0 0 0-.246-.832 1.57 1.57 0 0 0-.521-.62q-.329-.247-.868-.247-.547 0-.885.247-.33.237-.512.62-.183.375-.246.832-.064.457-.064.885m10.21 0q0 .622-.128 1.215-.12.594-.411 1.06a2.26 2.26 0 0 1-.776.739q-.484.283-1.206.283-.73 0-1.214-.283a2.26 2.26 0 0 1-.776-.74 3.1 3.1 0 0 1-.411-1.04A6 6 0 0 1 76.4 14q0-.657.12-1.232.119-.585.41-1.042a2.26 2.26 0 0 1 .777-.74q.483-.291 1.214-.291.721 0 1.206.283.483.282.776.749.293.465.41 1.059.129.593.129 1.214m-4.228 0q0 .438.063.895.064.457.247.831.183.375.511.612.339.237.886.238.54 0 .868-.238.337-.237.52-.612t.247-.83.064-.896q0-.429-.064-.885a2.8 2.8 0 0 0-.247-.832 1.57 1.57 0 0 0-.52-.62q-.33-.247-.868-.247-.547 0-.885.247-.33.237-.512.62-.183.375-.247.832-.063.457-.063.885m5.817 3.242a.6.6 0 0 1-.384-.155.48.48 0 0 1-.146-.365.5.5 0 0 1 .165-.375.55.55 0 0 1 .374-.146q.266 0 .42.192.165.191.165.539 0 .192-.083.42a1.6 1.6 0 0 1-.502.767q-.165.146-.347.21l-.22-.301q.184-.128.339-.348.165-.219.219-.438m6.682-3.242q0 .622-.128 1.215a3.1 3.1 0 0 1-.41 1.06 2.26 2.26 0 0 1-.777.739q-.484.283-1.205.283-.73 0-1.215-.283a2.26 2.26 0 0 1-.776-.74 3.1 3.1 0 0 1-.41-1.04 6 6 0 0 1-.12-1.234q0-.657.12-1.232.117-.585.41-1.042.293-.455.776-.74.484-.291 1.215-.291.72 0 1.205.283.485.282.776.749.292.465.411 1.059.129.593.128 1.214m-4.228 0q0 .438.064.895t.247.831.511.612q.337.237.886.238.538 0 .867-.238.34-.237.52-.612.184-.375.247-.83.064-.457.064-.896 0-.429-.064-.885a2.8 2.8 0 0 0-.246-.832 1.57 1.57 0 0 0-.52-.62q-.33-.247-.868-.247-.547 0-.886.247-.33.237-.511.62-.183.375-.247.832t-.064.885m10.21 0q0 .622-.128 1.215-.119.594-.41 1.06a2.26 2.26 0 0 1-.777.739q-.485.283-1.205.283-.73 0-1.215-.283a2.26 2.26 0 0 1-.776-.74 3.1 3.1 0 0 1-.411-1.04A6 6 0 0 1 90.655 14q0-.657.119-1.232.119-.585.41-1.042.293-.455.777-.74.484-.291 1.215-.291.72 0 1.205.283.484.282.776.749.293.465.411 1.059.128.593.128 1.214m-4.228 0q0 .438.064.895t.246.831.512.612q.337.237.886.238.538 0 .867-.238.338-.237.52-.612.183-.375.247-.83.064-.457.064-.896 0-.429-.064-.885a2.8 2.8 0 0 0-.246-.832 1.57 1.57 0 0 0-.52-.62q-.33-.247-.868-.247-.549 0-.886.247-.33.237-.512.62-.182.375-.246.832t-.064.885m10.21 0q0 .622-.128 1.215a3.1 3.1 0 0 1-.411 1.06 2.3 2.3 0 0 1-.776.739q-.484.283-1.206.283-.73 0-1.214-.283a2.26 2.26 0 0 1-.776-.74 3.1 3.1 0 0 1-.411-1.04 6 6 0 0 1-.12-1.234q0-.657.12-1.232.119-.585.41-1.042a2.26 2.26 0 0 1 .777-.74q.483-.291 1.214-.291.721 0 1.206.283.483.282.776.749.292.465.411 1.059.128.593.128 1.214m-4.228 0q0 .438.064.895.063.457.246.831.183.375.511.612.339.237.886.238.54 0 .868-.238.338-.237.52-.612.183-.375.247-.83.064-.457.064-.896a6 6 0 0 0-.064-.885 2.8 2.8 0 0 0-.247-.832 1.56 1.56 0 0 0-.52-.62q-.33-.247-.868-.247-.547 0-.885.247a1.6 1.6 0 0 0-.512.62q-.183.375-.246.832-.064.457-.064.885m12.187 3.224-.512-1.388h-3.196l-.511 1.388h-.858l2.401-6.456h1.142l2.392 6.456zm-2.11-5.762-1.333 3.652h2.667zm3.762-.694h4.338v.721h-3.543v2.174h3.187v.73h-3.187v2.11h3.543v.72h-4.338zm5.482 0h2.293q.748 0 1.315.237.575.228.958.658.384.42.576 1.022.192.594.191 1.315-.01.722-.2 1.315-.192.594-.576 1.023-.374.42-.94.658-.567.228-1.324.228h-2.293zm.795.721v5.013h1.443q.492 0 .94-.146.457-.155.777-.538.291-.338.429-.795.137-.465.137-1.023 0-.575-.137-1.022a2.2 2.2 0 0 0-.411-.777 1.9 1.9 0 0 0-.694-.52 2.4 2.4 0 0 0-.996-.192z"/><path stroke="#82808E" stroke-linecap="round" stroke-linejoin="round" stroke-width=".856" d="m130.256 12.798 2.854 2.854 2.853-2.854"/><rect width="103.227" height="26.825" x="155.381" y=".812" stroke="#335CFF" stroke-opacity=".59" stroke-width=".571" rx="13.412"/><g clip-path="url(#a)"><path stroke="#335CFF" stroke-linecap="round" stroke-linejoin="round" stroke-width="1.062" d="M165.423 19.536h10.356m-9.427 0v-7.978c0-.926 0-1.388.174-1.742.15-.308.394-.56.696-.721.341-.18.787-.18 1.679-.18h.213c.892 0 1.338 0 1.679.18.302.16.546.414.696.721.174.354.174.816.174 1.742v7.978m-2.124-8.497h-1.062m1.062 2.124h-1.062m1.062 2.124h-1.062m6.266 4.249V13.93c0-1.224-.424-1.672-1.553-1.672h-1.527"/></g><path fill="#03030A" d="M180.955 17.225v-6.456h1.205l1.936 3.552 1.909-3.552h1.178v6.456h-.795v-5.616l-2.128 3.927h-.365l-2.146-3.927v5.616zm10.715-.612q-.155.21-.356.338a2.095 2.095 0 0 1-.849.301q-.21.028-.42.028a2.4 2.4 0 0 1-.639-.082 1.6 1.6 0 0 1-.548-.265 1.4 1.4 0 0 1-.384-.457 1.4 1.4 0 0 1-.137-.62q0-.412.146-.686.156-.282.411-.456.256-.174.585-.238.337-.073.712-.073h1.416q0-.611-.265-.968-.265-.365-.895-.383-.384 0-.676.128a.72.72 0 0 0-.402.42h-.831a1.2 1.2 0 0 1 .256-.557q.192-.239.456-.384.265-.156.576-.228.31-.074.621-.073.538 0 .904.182.373.174.603.466.228.283.319.694.091.41.091.922v2.603h-.648zm-.913-1.561q-.219 0-.511.009-.283 0-.548.054a.8.8 0 0 0-.429.229.66.66 0 0 0-.155.456q0 .21.082.357.082.146.219.246a1 1 0 0 0 .329.146q.182.046.374.046.685 0 1.078-.329.4-.337.411-.977v-.237zm2.719 2.173v-4.813h.749l.036.75a1.6 1.6 0 0 1 .676-.613q.41-.19.931-.191h.247v.73h-.283q-.43 0-.731.146-.301.138-.493.384a1.6 1.6 0 0 0-.274.566q-.082.329-.082.694v2.347zm3.763-6.575q.218 0 .374.146a.47.47 0 0 1 .155.365.5.5 0 0 1-.155.375.53.53 0 0 1-.374.146.5.5 0 0 1-.375-.146.5.5 0 0 1-.146-.375q0-.228.146-.365a.5.5 0 0 1 .375-.146m-.384 6.575v-4.813h.776v4.813zm1.976 0v-4.813h.749l.036.73q.12-.2.293-.346.182-.147.392-.247t.439-.146q.237-.045.456-.045.521 0 .877.173.356.165.566.466.21.292.301.703.092.402.092.868v2.657h-.776v-2.447q0-.339-.046-.649a1.5 1.5 0 0 0-.164-.548.95.95 0 0 0-.347-.392q-.23-.147-.612-.146-.375.01-.667.182a1.6 1.6 0 0 0-.457.411q-.21.301-.283.667a3.6 3.6 0 0 0-.073.721v2.2zm8.473-.612q-.156.21-.356.338a2.09 2.09 0 0 1-.85.301q-.21.028-.42.028a2.4 2.4 0 0 1-.639-.082 1.6 1.6 0 0 1-.548-.265 1.4 1.4 0 0 1-.383-.457 1.36 1.36 0 0 1-.137-.62q0-.412.146-.686.155-.282.411-.456.255-.174.584-.238.338-.073.713-.073h1.415q0-.611-.265-.968-.264-.365-.895-.383-.383 0-.676.128a.72.72 0 0 0-.401.42h-.831q.063-.33.255-.557.192-.239.457-.384.264-.156.575-.228.31-.074.621-.073.539 0 .904.182.375.174.603.466.228.283.32.694.09.41.091.922v2.603h-.648zm-.913-1.561q-.22 0-.512.009a2.7 2.7 0 0 0-.548.054.8.8 0 0 0-.429.229.66.66 0 0 0-.155.456q0 .21.082.357.082.146.219.246.147.1.329.146t.374.046q.685 0 1.078-.329.402-.337.411-.977v-.237zm5.271-4.283h2.292q.748 0 1.315.237.575.228.959.658.383.42.575 1.022.192.594.192 1.315-.009.722-.201 1.315a2.8 2.8 0 0 1-.575 1.023q-.375.42-.941.658-.566.228-1.324.228h-2.292zm.794.721v5.013h1.443q.493 0 .941-.146.456-.155.776-.538.292-.338.429-.795.137-.465.137-1.023 0-.575-.137-1.022a2.2 2.2 0 0 0-.411-.777 1.9 1.9 0 0 0-.694-.52 2.4 2.4 0 0 0-.995-.192zm7.513 5.105q.658 0 .959-.393.31-.402.311-1.114v-2.676h.776v2.713q0 1.095-.53 1.625-.52.53-1.516.53-.994 0-1.516-.53-.51-.53-.511-1.625v-2.713h.776v2.676q0 .712.311 1.114.31.393.94.393m3.162.63v-6.456h.776v2.356a1.55 1.55 0 0 1 .676-.566 2 2 0 0 1 .913-.201q.548 0 .94.191.402.193.658.52.264.33.383.786.129.447.128.968 0 .52-.128.968a2.1 2.1 0 0 1-.383.767q-.265.33-.676.52a2.3 2.3 0 0 1-.959.202h-.1q-.493 0-.859-.174a1.7 1.7 0 0 1-.593-.466l-.037.585zm2.264-.63q.393 0 .658-.137a1.2 1.2 0 0 0 .438-.384q.174-.246.247-.566.082-.32.091-.685 0-.365-.082-.685a1.5 1.5 0 0 0-.247-.566 1.2 1.2 0 0 0-.456-.374 1.4 1.4 0 0 0-.667-.146q-.219 0-.429.073-.21.072-.375.2-.164.12-.292.275a1.85 1.85 0 0 0-.347.776 2.5 2.5 0 0 0-.045.456q0 .238.027.493.036.247.146.457.165.347.502.584.339.23.831.229m6.324.018q-.155.21-.356.338a2.095 2.095 0 0 1-.849.301q-.21.028-.42.028a2.4 2.4 0 0 1-.639-.082 1.6 1.6 0 0 1-.548-.265 1.4 1.4 0 0 1-.384-.457 1.4 1.4 0 0 1-.137-.62q0-.412.146-.686.156-.282.411-.456.257-.174.585-.238.337-.073.712-.073h1.415q0-.611-.264-.968-.265-.365-.895-.383-.384 0-.676.128a.72.72 0 0 0-.402.42h-.831a1.2 1.2 0 0 1 .256-.557q.192-.239.456-.384.266-.156.576-.228.31-.074.621-.073.538 0 .904.182.374.174.602.466.229.283.32.694.091.41.091.922v2.603h-.648zm-.913-1.561q-.219 0-.511.009-.284 0-.548.054a.8.8 0 0 0-.429.229.66.66 0 0 0-.156.456.71.71 0 0 0 .302.603q.146.1.328.146t.375.046q.685 0 1.077-.329.402-.337.411-.977v-.237zm3.166-4.402q.22 0 .374.146a.46.46 0 0 1 .156.365.5.5 0 0 1-.156.375.53.53 0 0 1-.374.146.5.5 0 0 1-.374-.146.5.5 0 0 1-.146-.375q0-.228.146-.365a.5.5 0 0 1 .374-.146m-.383 6.575v-4.813h.776v4.813z"/><path stroke="#82808E" stroke-linecap="round" stroke-linejoin="round" stroke-width=".856" d="m241.199 12.798 2.854 2.854 2.854-2.854"/><rect width="302.712" height="37.613" x=".214" y="34.296" fill="#fff" fill-opacity=".25" rx="18.806"/><rect width="301.928" height="36.829" x=".606" y="34.688" stroke="#335CFF" stroke-opacity=".55" stroke-width=".784" rx="18.415"/><path fill="#424242" d="M16.63 49.171q-.326 0-.665.059-.327.059-.596.21-.27.14-.444.397-.164.246-.164.631 0 .468.246.76.245.28.596.432.28.117.596.199t.642.151q.339.07.654.14.328.07.631.176.713.245 1.134.7.432.457.432 1.204 0 .701-.245 1.157a2.06 2.06 0 0 1-.643.748 2.7 2.7 0 0 1-.935.432q-.525.129-1.121.129-.597 0-1.145-.117a3.2 3.2 0 0 1-.982-.386 2.6 2.6 0 0 1-.76-.7 2.7 2.7 0 0 1-.443-1.052h1.063q.117.397.362.654t.561.409.678.21q.373.06.736.059.35 0 .677-.07.34-.082.596-.246.258-.164.41-.42.15-.258.151-.62 0-.549-.292-.818-.293-.269-.783-.408a6 6 0 0 0-.689-.176 24 24 0 0 1-.724-.152 11 11 0 0 1-.713-.187 4.4 4.4 0 0 1-.643-.268 2 2 0 0 1-.783-.678q-.315-.467-.315-1.168 0-.654.257-1.099t.666-.712a2.8 2.8 0 0 1 .911-.386 5 5 0 0 1 1.087-.117q.467.012.841.082.386.06.724.222.526.234.877.701.35.468.385 1.203h-.993a1.3 1.3 0 0 0-.222-.607 1.3 1.3 0 0 0-.409-.397 1.6 1.6 0 0 0-.56-.21 3 3 0 0 0-.643-.07m5.18 4.72q.036.41.164.76.14.338.374.596.234.256.573.409.35.14.806.14.222 0 .456-.035.245-.047.455-.14.21-.105.374-.269t.245-.397h1.017a2 2 0 0 1-.362.77 2.1 2.1 0 0 1-.596.538q-.34.21-.76.316-.42.093-.853.093-.735 0-1.285-.233a2.5 2.5 0 0 1-.9-.643 2.7 2.7 0 0 1-.537-.993 4.4 4.4 0 0 1-.175-1.274q0-.69.187-1.262a3 3 0 0 1 .56-1.004 2.5 2.5 0 0 1 .889-.655q.525-.233 1.25-.233.736 0 1.273.292.538.292.865.771.327.467.456 1.016.14.55.116 1.017 0 .105-.011.21 0 .105-.012.21zm3.588-.864q-.024-.782-.491-1.274-.468-.49-1.25-.49-.433 0-.76.14a1.56 1.56 0 0 0-.549.386 1.9 1.9 0 0 0-.35.572q-.128.315-.164.666zm6.277 2.792q-.2.27-.456.433t-.538.257q-.268.093-.549.128-.268.035-.537.035-.431 0-.818-.105a2.1 2.1 0 0 1-.701-.339 1.8 1.8 0 0 1-.49-.584 1.75 1.75 0 0 1-.176-.794q0-.526.187-.877.199-.362.526-.584t.747-.304q.433-.093.912-.093h1.81q0-.783-.338-1.239-.34-.467-1.145-.49-.49 0-.865.163a.92.92 0 0 0-.514.538h-1.063q.082-.42.327-.713.246-.304.584-.49.34-.199.736-.293.398-.093.795-.093.69 0 1.157.233.479.222.77.596.293.363.41.888.117.526.117 1.18v3.33h-.83zm-1.169-1.998q-.28 0-.654.012-.363 0-.701.07a1 1 0 0 0-.55.292q-.198.222-.198.584 0 .27.105.456.105.187.28.316.187.128.421.186.234.06.48.059.876 0 1.378-.42.514-.434.526-1.25v-.305zm3.478 2.781v-6.157h.958l.047.958a2.03 2.03 0 0 1 .865-.783q.525-.245 1.191-.245h.316v.934h-.362q-.55 0-.935.187-.385.175-.631.491a2.1 2.1 0 0 0-.35.724 3.7 3.7 0 0 0-.106.888v3.003zm6.757.07q-.737 0-1.274-.233a2.36 2.36 0 0 1-.888-.655 2.8 2.8 0 0 1-.526-.993 4.3 4.3 0 0 1-.175-1.25q0-.654.187-1.227.187-.584.55-1.005.36-.432.91-.677.55-.257 1.333-.257.467 0 .83.105.36.093.677.315.327.21.56.561.234.35.34.853h-1.017q-.176-.514-.56-.736a1.63 1.63 0 0 0-.889-.21q-.502 0-.888.198-.375.187-.607.503-.222.315-.328.736-.105.408-.105.841 0 .456.105.865.117.409.34.724.233.304.595.49.363.176.865.176.245 0 .479-.047.245-.046.444-.152.21-.117.362-.303.151-.187.222-.456h1.028q-.093.48-.339.83-.233.338-.584.572-.35.222-.771.327a3.6 3.6 0 0 1-.876.105m3.712-.07v-8.26h.993v3.05q.152-.234.386-.433.233-.2.49-.327a2.2 2.2 0 0 1 .561-.187q.315-.07.608-.07.666 0 1.11.222.455.21.724.596.28.373.386.9.117.514.116 1.12v3.39h-.993v-3.085q0-.42-.046-.818a2.1 2.1 0 0 0-.21-.725 1.35 1.35 0 0 0-.468-.514q-.305-.21-.83-.21-.431 0-.806.222-.362.21-.584.538-.27.361-.362.806-.082.445-.082.91v2.875zm9.818 0v-8.26h.993v3.014q.304-.467.865-.724a2.6 2.6 0 0 1 1.168-.257q.702 0 1.204.245.514.246.841.666.34.42.49 1.005.165.572.164 1.238 0 .666-.163 1.239a2.65 2.65 0 0 1-.491.981q-.339.42-.865.666-.513.246-1.226.257h-.129q-.63 0-1.098-.222a2.2 2.2 0 0 1-.76-.596l-.046.748zm2.898-.806q.502 0 .841-.175.35-.187.56-.491.223-.316.316-.724.106-.41.117-.877a3.5 3.5 0 0 0-.105-.876 1.9 1.9 0 0 0-.315-.724 1.54 1.54 0 0 0-.585-.48q-.35-.186-.852-.186-.28 0-.55.093-.268.094-.479.257-.21.153-.373.35a2.34 2.34 0 0 0-.444.994 3 3 0 0 0-.059.584q0 .304.035.63.047.316.187.585.21.444.643.748.432.292 1.063.292m9.446-5.351v6.157q0 1.343-.7 2.045-.702.712-1.999.712a5 5 0 0 1-1.413-.21 2.9 2.9 0 0 1-1.145-.678l.432-.782q.456.362.97.572.525.21 1.098.21.48 0 .818-.151.339-.14.549-.41.222-.256.315-.619.105-.362.105-.782v-.736a1.8 1.8 0 0 1-.385.42 2.2 2.2 0 0 1-.49.292q-.258.105-.562.152a3 3 0 0 1-.595.059q-.702-.012-1.169-.222a1.9 1.9 0 0 1-.736-.585 2.4 2.4 0 0 1-.385-.888 5.3 5.3 0 0 1-.117-1.156v-3.4h.993v3.12q0 .42.047.829.057.41.222.724.163.315.479.514.315.187.84.187.526 0 .889-.222.374-.222.572-.56a2.1 2.1 0 0 0 .292-.772q.082-.42.082-.864v-2.956zm8.532 5.374q-.2.27-.456.433-.257.163-.537.257-.269.093-.55.128-.269.035-.537.035-.431 0-.818-.105a2.1 2.1 0 0 1-.7-.339 1.8 1.8 0 0 1-.492-.584 1.75 1.75 0 0 1-.175-.794q0-.526.187-.877.2-.362.526-.584.327-.222.748-.304.432-.093.911-.093h1.811q0-.783-.339-1.239-.338-.467-1.145-.49-.49 0-.864.163a.92.92 0 0 0-.514.538h-1.064q.083-.42.327-.713.246-.304.585-.49.337-.199.736-.293.397-.093.794-.093.69 0 1.157.233.48.222.77.596.293.363.41.888.117.526.117 1.18v3.33h-.83zm-1.169-1.998q-.28 0-.654.012-.362 0-.7.07a1 1 0 0 0-.55.292q-.199.222-.199.584 0 .27.106.456.105.187.28.316.187.128.42.186.234.06.48.059.876 0 1.378-.42.514-.434.526-1.25v-.305zm3.479 2.781v-6.157h.958l.046.958a2.03 2.03 0 0 1 .865-.783q.526-.245 1.192-.245h.315v.934h-.362q-.55 0-.935.187-.386.175-.63.491a2.1 2.1 0 0 0-.351.724 3.7 3.7 0 0 0-.105.888v3.003zm4.898-2.71q.035.408.164.759.14.338.374.596.233.256.572.409.35.14.806.14.222 0 .456-.035.244-.047.456-.14.21-.105.373-.269.164-.164.246-.397h1.016a2 2 0 0 1-.362.77 2.1 2.1 0 0 1-.596.538q-.339.21-.76.316-.42.093-.852.093-.736 0-1.285-.233a2.5 2.5 0 0 1-.9-.643 2.7 2.7 0 0 1-.537-.993 4.4 4.4 0 0 1-.176-1.274q0-.69.187-1.262a3 3 0 0 1 .561-1.004 2.5 2.5 0 0 1 .888-.655q.525-.233 1.25-.233.735 0 1.274.292.537.292.864.771.327.467.456 1.016.14.55.117 1.017 0 .105-.012.21 0 .105-.011.21zm3.587-.865q-.024-.782-.49-1.274-.468-.49-1.25-.49-.433 0-.76.14a1.56 1.56 0 0 0-.55.386 1.9 1.9 0 0 0-.35.572q-.129.315-.163.666zm6.277 2.792q-.198.27-.456.433-.257.163-.537.257-.269.093-.55.128-.268.035-.537.035-.431 0-.818-.105a2.1 2.1 0 0 1-.7-.339 1.8 1.8 0 0 1-.491-.584 1.75 1.75 0 0 1-.175-.794q0-.526.186-.877.2-.362.526-.584.328-.222.748-.304.432-.093.911-.093h1.811q0-.783-.339-1.239-.338-.467-1.145-.49-.49 0-.864.163a.92.92 0 0 0-.514.538H88.21q.082-.42.328-.713.245-.304.584-.49.339-.199.736-.293.398-.093.794-.093.69 0 1.157.233.48.222.771.596.292.363.41.888.116.526.116 1.18v3.33h-.83zm-1.168-1.998q-.28 0-.655.012-.362 0-.7.07a1 1 0 0 0-.55.292q-.198.222-.198.584 0 .27.105.456.105.187.28.316.188.128.42.186.234.06.48.059.876 0 1.378-.42.514-.434.526-1.25v-.305zm4.19 2.805a.78.78 0 0 1-.49-.2.6.6 0 0 1-.187-.467.64.64 0 0 1 .21-.479q.21-.186.48-.186.338 0 .536.245.21.245.21.69 0 .245-.104.537a2.041 2.041 0 0 1-.643.981 1.3 1.3 0 0 1-.444.269l-.28-.386q.234-.163.432-.444a1.6 1.6 0 0 0 .28-.56m4.896 2.196v-8.377h.946l.047.923q.316-.48.853-.724a2.9 2.9 0 0 1 1.18-.27q.713 0 1.203.246.503.234.83.666.339.42.502 1.005.164.572.164 1.238 0 .678-.164 1.25a2.8 2.8 0 0 1-.502.994q-.339.42-.853.665-.514.234-1.227.234-.7 0-1.192-.222a2 2 0 0 1-.794-.619v2.991zm2.897-3.026q.503 0 .842-.175.35-.187.56-.491.222-.316.316-.724a4 4 0 0 0 .117-.877q0-.467-.105-.876a1.9 1.9 0 0 0-.316-.724 1.54 1.54 0 0 0-.584-.48q-.35-.186-.853-.186-.596 0-1.028.327-.432.315-.654.806-.13.27-.176.56a3.6 3.6 0 0 0-.046.585q0 .351.046.654.047.292.176.561.222.444.642.748.432.292 1.063.292m4.037.806v-6.157h.958l.047.958a2.03 2.03 0 0 1 .865-.783 2.8 2.8 0 0 1 1.191-.245h.316v.934h-.362q-.55 0-.935.187-.385.175-.631.491a2.1 2.1 0 0 0-.351.724q-.105.42-.105.888v3.003zm6.838-6.227q.737 0 1.274.233.537.234.9.655.374.42.549 1.005.186.572.187 1.261 0 .69-.187 1.274-.175.573-.549.993a2.5 2.5 0 0 1-.912.642q-.549.234-1.285.234t-1.285-.233a2.64 2.64 0 0 1-.911-.643 2.9 2.9 0 0 1-.55-.993 4.4 4.4 0 0 1-.175-1.274q0-.69.175-1.262.187-.584.55-1.004.373-.42.934-.655a3.3 3.3 0 0 1 1.285-.233m-.023 5.42q.502 0 .865-.174.373-.176.607-.48.246-.315.351-.724.117-.408.117-.888 0-.467-.117-.876a1.84 1.84 0 0 0-.351-.724 1.6 1.6 0 0 0-.607-.491 2 2 0 0 0-.865-.175 2 2 0 0 0-.865.175 1.7 1.7 0 0 0-.607.49 2.1 2.1 0 0 0-.351.725q-.105.41-.105.876 0 .48.105.888.117.409.351.725.245.303.607.479.363.174.865.175m4.962-7.605q.28 0 .479.187a.6.6 0 0 1 .199.467.63.63 0 0 1-.199.48.67.67 0 0 1-.479.186.65.65 0 0 1-.479-.187.65.65 0 0 1-.187-.479q0-.291.187-.467a.65.65 0 0 1 .479-.187m.503 2.255v6.274q0 1.028-.444 1.507-.444.48-1.484.48h-.537v-.865h.42q.631 0 .841-.316.211-.315.211-.911v-6.17zm2.3 3.447q.035.408.164.759.14.338.374.596.234.256.572.409.351.14.806.14.222 0 .456-.035.246-.047.456-.14.21-.105.374-.269t.245-.397h1.017a2 2 0 0 1-.363.77 2.1 2.1 0 0 1-.596.538q-.338.21-.759.316-.42.093-.853.093-.736 0-1.285-.233a2.5 2.5 0 0 1-.9-.643 2.7 2.7 0 0 1-.537-.993 4.4 4.4 0 0 1-.175-1.274q0-.69.187-1.262a3 3 0 0 1 .56-1.004q.363-.42.888-.655.527-.233 1.25-.233.737 0 1.274.292t.865.771q.327.467.455 1.016.141.55.117 1.017 0 .105-.012.21 0 .105-.011.21zm3.587-.865q-.023-.782-.49-1.274-.468-.49-1.251-.49-.432 0-.759.14a1.56 1.56 0 0 0-.549.386 1.9 1.9 0 0 0-.351.572q-.128.315-.163.666zm4.966 3.645q-.736 0-1.274-.233a2.36 2.36 0 0 1-.888-.655 2.8 2.8 0 0 1-.525-.993 4.3 4.3 0 0 1-.176-1.25q0-.654.187-1.227.188-.584.549-1.005.363-.432.912-.677.549-.257 1.332-.257.467 0 .829.105.363.093.678.315.327.21.561.561.233.35.339.853h-1.017q-.175-.514-.561-.736a1.63 1.63 0 0 0-.888-.21q-.502 0-.888.198a1.7 1.7 0 0 0-.607.503q-.222.315-.327.736a3.464 3.464 0 0 0 0 1.706q.116.409.338.724.234.304.596.49.363.176.865.176.245 0 .479-.047a1.6 1.6 0 0 0 .444-.152q.21-.117.362-.303.151-.187.222-.456h1.028a2.13 2.13 0 0 1-.923 1.402q-.35.222-.771.327-.42.105-.876.105m5.266-6.227h1.893v.876h-1.893v3.201q0 .27.023.503.036.222.117.397a.8.8 0 0 0 .257.269q.175.093.468.105.269 0 .467-.093.21-.094.351-.223l.432.725a1.9 1.9 0 0 1-.631.362 2.4 2.4 0 0 1-.724.105q-.503 0-.842-.14a1.6 1.6 0 0 1-.572-.432 1.5 1.5 0 0 1-.269-.631 4.3 4.3 0 0 1-.07-.818v-3.33h-1.005v-.876h1.005v-1.846h.993zm8.705-.07q.736 0 1.273.233.537.234.9.655.373.42.549 1.005.187.572.187 1.261 0 .69-.187 1.274-.175.573-.549.993a2.5 2.5 0 0 1-.912.642q-.549.234-1.285.234t-1.285-.233a2.64 2.64 0 0 1-.911-.643 2.85 2.85 0 0 1-.549-.993 4.4 4.4 0 0 1-.176-1.274q0-.69.176-1.262.186-.584.549-1.004.373-.42.934-.655a3.3 3.3 0 0 1 1.286-.233m-.024 5.42q.502 0 .865-.174a1.6 1.6 0 0 0 .607-.48q.246-.315.351-.724.117-.408.117-.888 0-.467-.117-.876a1.84 1.84 0 0 0-.351-.724 1.57 1.57 0 0 0-.607-.491 2 2 0 0 0-.865-.175q-.502 0-.864.175t-.608.49a2.1 2.1 0 0 0-.35.725 3.5 3.5 0 0 0-.106.876q0 .48.106.888.116.409.35.725.246.303.608.479.362.174.864.175m4.145.807v-6.157h.958l.046.958q.34-.538.865-.783a2.8 2.8 0 0 1 1.192-.245h.315v.934h-.362q-.55 0-.935.187-.385.175-.631.491a2.1 2.1 0 0 0-.35.724q-.105.42-.105.888v3.003zm7.274 0v-8.26h.993v3.014q.303-.467.864-.724.572-.27 1.169-.257.7 0 1.203.245.514.246.841.666.34.42.491 1.005.164.572.164 1.238t-.164 1.239a2.6 2.6 0 0 1-.491.981q-.339.42-.864.666-.514.246-1.227.257h-.129q-.63 0-1.098-.222a2.2 2.2 0 0 1-.759-.596l-.047.748zm2.897-.806q.503 0 .841-.175.351-.187.561-.491.222-.316.316-.724a4 4 0 0 0 .117-.877q0-.467-.106-.876a1.9 1.9 0 0 0-.315-.724 1.54 1.54 0 0 0-.584-.48q-.35-.186-.853-.186-.28 0-.549.093a1.7 1.7 0 0 0-.479.257 2 2 0 0 0-.374.35 2.35 2.35 0 0 0-.444.994 3 3 0 0 0-.059.584q0 .304.035.63.048.316.187.585.211.444.643.748.433.292 1.063.292m6.607 0q.841 0 1.227-.502.397-.514.397-1.426v-3.423h.994v3.47q0 1.402-.678 2.08-.666.677-1.94.677-1.273 0-1.939-.677-.654-.678-.654-2.08v-3.47h.993v3.423q0 .912.397 1.425.398.503 1.203.503m4.617-7.606q.28 0 .48.187a.6.6 0 0 1 .198.467.63.63 0 0 1-.198.48.68.68 0 0 1-.48.186.65.65 0 0 1-.479-.187.65.65 0 0 1-.186-.479q0-.291.186-.467a.65.65 0 0 1 .479-.187m-.49 8.412v-6.157h.993v6.157zm2.528 0v-8.26h.993v8.26zm7.93 0h-.946l-.047-.923q-.315.526-.876.76a2.9 2.9 0 0 1-1.157.233q-.7-.012-1.215-.245a2.3 2.3 0 0 1-.841-.666 2.9 2.9 0 0 1-.491-.982 4.8 4.8 0 0 1-.152-1.238q0-.666.164-1.238.163-.585.502-1.005.34-.432.853-.678.514-.245 1.227-.245.537 0 1.087.198.55.2.899.643v-2.874h.993zm-2.897-5.34q-.502 0-.853.188a1.56 1.56 0 0 0-.573.479q-.21.304-.315.724a4 4 0 0 0-.094.9q0 .49.094.888.093.385.315.689t.573.49q.351.176.864.176.597 0 .982-.28t.619-.701a2.2 2.2 0 0 0 .234-.631q.07-.351.07-.69 0-.42-.082-.77a1.8 1.8 0 0 0-.269-.655 2 2 0 0 0-.619-.573q-.385-.233-.946-.233m4.913-3.072q.28 0 .479.187a.6.6 0 0 1 .199.467.63.63 0 0 1-.199.48.67.67 0 0 1-.479.186.65.65 0 0 1-.479-.187.65.65 0 0 1-.187-.479.6.6 0 0 1 .187-.467.65.65 0 0 1 .479-.187m-.491 8.412v-6.157h.993v6.157zm2.529 0v-6.157h.958l.046.934q.153-.256.374-.443.233-.187.503-.316.269-.129.56-.187.304-.058.585-.058.665 0 1.121.222.456.21.725.596.268.373.385.9.117.513.117 1.11v3.4h-.993V53.47q0-.432-.059-.83a1.9 1.9 0 0 0-.21-.7 1.2 1.2 0 0 0-.444-.503q-.292-.187-.783-.187a1.7 1.7 0 0 0-.852.234 2 2 0 0 0-.585.526q-.269.384-.362.852a4.6 4.6 0 0 0-.093.923v2.816zm12.277-.047q0 1.309-.701 2.057-.7.747-2.115.747a3.8 3.8 0 0 1-.899-.105 2.5 2.5 0 0 1-.772-.338 2.2 2.2 0 0 1-.584-.573 2.1 2.1 0 0 1-.327-.818h1.028q.07.27.234.444.175.187.397.292.222.117.479.164.257.046.503.047.467 0 .806-.152a1.4 1.4 0 0 0 .549-.398q.21-.256.304-.619.105-.35.105-.771v-.853a1.74 1.74 0 0 1-.865.771 3.2 3.2 0 0 1-1.168.222q-.7-.012-1.215-.245a2.3 2.3 0 0 1-.841-.666 2.9 2.9 0 0 1-.491-.982 4.8 4.8 0 0 1-.152-1.238q0-.666.164-1.238.163-.585.502-1.005.339-.432.853-.678.514-.245 1.227-.245.537 0 1.086.198.549.2.9.643l.047-.771h.946zm-2.898-5.292q-.502 0-.853.187a1.57 1.57 0 0 0-.572.479q-.21.304-.315.724a4 4 0 0 0-.094.876q0 .515.094.912.093.385.315.689t.572.49q.35.176.865.176.595 0 .982-.28.385-.28.619-.701a2.2 2.2 0 0 0 .233-.631 3.5 3.5 0 0 0-.011-1.46 1.9 1.9 0 0 0-.269-.655 2 2 0 0 0-.619-.573q-.386-.233-.947-.233"/><g clip-path="url(#b)"><path fill="url(#c)" d="M235.449 49.343a.5.5 0 0 1-.268-.267l-.4-.907c-.074-.144-.29-.144-.36 0l-.4.907a.54.54 0 0 1-.268.267l-.51.22a.19.19 0 0 0-.112.176.19.19 0 0 0 .112.176l.51.22a.5.5 0 0 1 .268.268l.4.91c.075.145.29.145.36 0l.4-.91a.54.54 0 0 1 .268-.268l.51-.22a.194.194 0 0 0 0-.352zm6.325 2.732a1.57 1.57 0 0 1-.808-.83l-1.202-2.844a.6.6 0 0 0-.862-.248.6.6 0 0 0-.222.248l-1.203 2.843a1.6 1.6 0 0 1-.807.831l-1.522.689a.614.614 0 0 0 0 1.096l1.522.69c.365.163.654.46.808.83l1.202 2.843a.6.6 0 0 0 .862.248.6.6 0 0 0 .222-.248l1.203-2.843c.155-.368.443-.665.807-.83l1.521-.69a.613.613 0 0 0 0-1.096zm-7.265 2.846c.067.165.19.293.345.367l.651.304a.27.27 0 0 1 .146.24.27.27 0 0 1-.146.242l-.651.304a.7.7 0 0 0-.345.367l-.516 1.25a.26.26 0 0 1-.233.148.26.26 0 0 1-.232-.148l-.515-1.25a.7.7 0 0 0-.346-.367l-.651-.304a.27.27 0 0 1-.146-.241q0-.077.039-.14a.3.3 0 0 1 .107-.1l.651-.305a.7.7 0 0 0 .346-.367l.516-1.25a.25.25 0 0 1 .232-.148.26.26 0 0 1 .232.148z"/></g><path fill="#335CFF" d="m254.491 56.602-.659-1.788h-4.117l-.659 1.788h-1.105l3.093-8.316h1.471l3.082 8.316zm-2.717-7.422-1.718 4.705h3.435zm6.939 2.046q-.212 0-.435.036a1.4 1.4 0 0 0-.424.117.94.94 0 0 0-.353.26.7.7 0 0 0-.153.446q0 .4.294.6.306.2.789.294.2.048.435.094.236.036.459.083a5.5 5.5 0 0 1 .788.176q1.129.353 1.129 1.517-.012.566-.247.918a1.65 1.65 0 0 1-.577.541 2.4 2.4 0 0 1-.788.282q-.435.083-.87.083-.424 0-.859-.083a2.7 2.7 0 0 1-.8-.282 2.2 2.2 0 0 1-.611-.541 1.85 1.85 0 0 1-.318-.847h1.012q.093.282.294.447a1.7 1.7 0 0 0 .423.259q.236.094.435.13.212.035.471.035.188 0 .435-.024.248-.024.471-.106.223-.095.376-.27.153-.177.153-.494 0-.353-.235-.53-.224-.176-.624-.259-.282-.058-.588-.105-.294-.06-.6-.118a12 12 0 0 1-.576-.153 2.5 2.5 0 0 1-.529-.247 1.5 1.5 0 0 1-.53-.541q-.2-.342-.2-.835.024-.518.235-.847.212-.342.542-.553.353-.212.752-.294.4-.082.847-.082.953 0 1.518.411.341.235.529.565.189.329.235.694h-.929q-.083-.342-.447-.553-.365-.212-.929-.224m3.773 5.376v-8.316h1v4.787h1.082l1.859-2.67h1.129l-2.07 2.953 2.247 3.246h-1.177l-1.87-2.658h-1.2v2.658zm15.152 0-.659-1.788h-4.117l-.659 1.788h-1.106l3.094-8.316h1.471l3.081 8.316zm-2.718-7.422-1.717 4.705h3.435zm5.987 7.422h-1.023v-8.316h1.023z"/><rect width="166.17" height="31.87" x=".214" y="85.716" fill="#335CFF" rx="15.935"/><path fill="#fff" d="M22.363 98.301a2 2 0 0 0-.918.21 1.84 1.84 0 0 0-.631.536q-.24.334-.354.784a3.7 3.7 0 0 0-.114.936q0 .498.114.947.124.44.373.784.258.334.65.535.392.192.927.191.87 0 1.348-.449.487-.459.507-1.185h-1.979v-.937h3.04q0 .363-.02.736a3.7 3.7 0 0 1-.104.765 3.4 3.4 0 0 1-.335.812 2.4 2.4 0 0 1-.564.65q-.344.278-.822.44a3.3 3.3 0 0 1-1.08.162q-.794 0-1.396-.248a2.8 2.8 0 0 1-.994-.717 3 3 0 0 1-.602-1.09q-.201-.63-.201-1.376 0-.757.2-1.396.202-.64.593-1.1.402-.468.995-.726.601-.258 1.395-.258.554 0 1.023.143.479.135.841.402.363.258.603.65.238.382.315.88h-1.118a1.26 1.26 0 0 0-.584-.794q-.45-.287-1.108-.287m4.058-.908h4.694v.994H27.53v1.922h3.174v1.003H27.53v1.855h3.585v.984H26.42zm7.239 6.758v-5.764h-2.142v-.994h5.401v.994h-2.15v5.764zm11.056 0-.498-1.366H41.15l-.507 1.366H39.44L42 97.393h1.376l2.552 6.758zm-.842-2.361-1.185-3.307-1.195 3.307zm3.905 2.361h-1.11v-6.758h1.11zm5.064-2.475v2.475h-1.109v-6.758h2.63q.525 0 .984.105t.793.354q.344.248.536.66.2.41.2 1.013 0 .411-.124.755a2 2 0 0 1-.315.593q-.2.248-.469.42-.268.163-.573.239l1.462 2.619h-1.233q-.335-.621-.679-1.233-.334-.621-.678-1.242zm1.367-.966q.325 0 .612-.057t.497-.191a.9.9 0 0 0 .325-.364q.125-.239.125-.602 0-.325-.106-.535a.77.77 0 0 0-.286-.335q-.191-.134-.46-.181a3 3 0 0 0-.592-.058h-1.482v2.323zm3.814-3.317h4.694v.994h-3.585v1.922h3.174v1.003h-3.174v1.855h3.585v.984h-4.694zm8.606.908a2 2 0 0 0-.928.2 1.84 1.84 0 0 0-.63.536q-.249.335-.373.784a3.7 3.7 0 0 0-.115.927q0 .498.124.947t.373.793q.258.335.65.535.391.201.927.201.66 0 1.1-.287.45-.287.564-.774h1.108q-.076.487-.325.87-.239.383-.602.65a2.9 2.9 0 0 1-.841.402q-.478.133-1.023.133-.794 0-1.395-.258a2.8 2.8 0 0 1-.995-.717 3 3 0 0 1-.602-1.089 4.6 4.6 0 0 1-.2-1.387q0-.735.2-1.367.21-.64.612-1.099.402-.468.994-.726.603-.268 1.396-.268 1.117 0 1.845.526.726.526.88 1.548h-1.09a1.3 1.3 0 0 0-.555-.784q-.43-.296-1.1-.296m6.805 5.917q-.794 0-1.406-.258a2.9 2.9 0 0 1-1.013-.726 3.2 3.2 0 0 1-.63-1.09 4.3 4.3 0 0 1-.211-1.377q0-.755.22-1.386.22-.64.63-1.099.422-.459 1.023-.717a3.6 3.6 0 0 1 1.396-.258q.784 0 1.386.258.613.25 1.023.707.42.46.631 1.1.22.63.22 1.386 0 .746-.22 1.386-.21.631-.63 1.09a2.9 2.9 0 0 1-1.024.726 3.6 3.6 0 0 1-1.395.258m.01-5.917q-.546 0-.947.2a2 2 0 0 0-.66.536 2.3 2.3 0 0 0-.401.784q-.125.45-.125.937t.125.937q.134.44.392.784.267.344.669.544.401.201.946.201.536 0 .937-.191.401-.2.66-.535.267-.334.392-.775a3.3 3.3 0 0 0 .133-.956 3.2 3.2 0 0 0-.133-.936 2.2 2.2 0 0 0-.393-.784 1.84 1.84 0 0 0-.659-.545q-.392-.2-.937-.2m4.354 5.85v-6.758h1.396l2.017 3.461 1.998-3.461h1.357v6.758h-1.1v-5.267l-2.035 3.509h-.498l-2.036-3.509v5.267zm8.24 0v-6.758h1.396l2.017 3.461 1.998-3.461h1.358v6.758h-1.1v-5.267l-2.036 3.509h-.497l-2.036-3.509v5.267zm8.242-6.758h4.693v.994H95.39v1.922h3.174v1.003H95.39v1.855h3.585v.984h-4.693zm5.795 6.758v-6.758h1.194l3.365 5.076v-5.076h1.1v6.758h-1.186l-3.384-5.056v5.056zm7.129-6.758h2.448q.803 0 1.414.239.622.23 1.033.67.42.43.631 1.06.21.63.21 1.415a4.4 4.4 0 0 1-.21 1.415q-.21.621-.622 1.061a2.56 2.56 0 0 1-1.013.669q-.602.23-1.405.229h-2.486zm1.109.994v4.78h1.348q.554 0 .956-.172t.66-.478a2 2 0 0 0 .392-.755q.133-.44.133-.985 0-1.128-.554-1.759-.544-.63-1.596-.63zm10.086 5.764-.497-1.366h-3.069l-.506 1.366h-1.205l2.562-6.758h1.377l2.552 6.758zm-.841-2.361-1.186-3.307-1.195 3.307zm3.763 2.361v-5.764h-2.142v-.994h5.401v.994h-2.15v5.764zm5.143 0h-1.109v-6.758h1.109zm4.361.067q-.793 0-1.405-.258a2.9 2.9 0 0 1-1.013-.726 3.2 3.2 0 0 1-.631-1.09 4.3 4.3 0 0 1-.21-1.377q0-.755.219-1.386.22-.64.631-1.099a2.95 2.95 0 0 1 1.023-.717 3.6 3.6 0 0 1 1.396-.258q.784 0 1.386.258.612.25 1.023.707.42.46.631 1.1.22.63.22 1.386 0 .746-.22 1.386a3 3 0 0 1-.631 1.09 2.9 2.9 0 0 1-1.023.726 3.6 3.6 0 0 1-1.396.258m.01-5.917a2.1 2.1 0 0 0-.946.2 2 2 0 0 0-.66.536 2.3 2.3 0 0 0-.402.784q-.123.45-.124.937 0 .487.124.937.135.44.392.784.268.344.67.544.401.201.946.201.535 0 .937-.191.4-.2.659-.535.268-.334.392-.775.134-.449.134-.956 0-.496-.134-.936-.124-.45-.392-.784a1.84 1.84 0 0 0-.659-.545q-.393-.2-.937-.2m4.355 5.85v-6.758h1.195l3.365 5.076v-5.076h1.099v6.758h-1.186l-3.384-5.056v5.056zm9.491-5.86q-.22 0-.45.039a1.3 1.3 0 0 0-.42.143.8.8 0 0 0-.316.278.74.74 0 0 0-.124.44q0 .4.268.611.267.201.64.306a15 15 0 0 0 1.042.258q.402.086.755.21.364.125.631.335.268.201.421.516.162.306.162.765 0 .544-.2.927a1.76 1.76 0 0 1-.526.631 2.2 2.2 0 0 1-.784.363 3.9 3.9 0 0 1-.965.115q-.526 0-1.004-.105a2.8 2.8 0 0 1-.841-.354 2.2 2.2 0 0 1-.622-.631 2.15 2.15 0 0 1-.315-.917h1.147q.076.286.249.477.172.192.391.306.23.115.488.163t.507.048q.267 0 .516-.039.249-.046.43-.153a.9.9 0 0 0 .296-.277.8.8 0 0 0 .115-.449q0-.383-.201-.554a1.23 1.23 0 0 0-.535-.268 11 11 0 0 0-.946-.23 6.6 6.6 0 0 1-.909-.267 3 3 0 0 1-.525-.249q-.24-.143-.421-.344a1.5 1.5 0 0 1-.287-.468 2 2 0 0 1-.095-.64q0-.556.21-.928.21-.382.545-.612a2.3 2.3 0 0 1 .774-.325 3.7 3.7 0 0 1 1.788.01q.43.105.765.334.334.229.535.593.21.363.248.88h-1.089a.97.97 0 0 0-.459-.708 1.1 1.1 0 0 0-.402-.162 2.4 2.4 0 0 0-.487-.067"/><defs><clipPath id="a"><path fill="#fff" d="M164.228 7.852h12.746v12.746h-12.746z"/></clipPath><clipPath id="b"><path fill="#fff" d="M231.029 46.38h13.443v13.443h-13.443z"/></clipPath><linearGradient id="c" x1="228.712" x2="239.161" y1="46.31" y2="61.176" gradientUnits="userSpaceOnUse"><stop stop-color="#335CFF"/><stop offset="1" stop-color="#00EEA3"/></linearGradient></defs></svg>