<svg xmlns="http://www.w3.org/2000/svg" width="23" height="23" fill="none"><path fill="url(#a)" d="M7.981 5.685a.8.8 0 0 1-.439-.437l-.654-1.485c-.122-.235-.474-.235-.59 0l-.654 1.485a.88.88 0 0 1-.439.437l-.834.36a.318.318 0 0 0 0 .576l.834.36c.202.084.36.243.439.438l.654 1.491c.123.236.475.236.59 0l.655-1.492a.88.88 0 0 1 .438-.436l.835-.36a.318.318 0 0 0 0-.577zm10.35 4.47a2.56 2.56 0 0 1-1.321-1.358l-1.968-4.653a.984.984 0 0 0-1.774 0L11.3 8.797a2.6 2.6 0 0 1-1.32 1.359l-2.49 1.127c-.738.365-.738 1.43 0 1.795l2.49 1.127c.597.268 1.07.755 1.32 1.36l1.968 4.652a.985.985 0 0 0 1.774 0l1.968-4.653a2.6 2.6 0 0 1 1.32-1.359l2.491-1.127c.737-.365.737-1.43 0-1.795zM6.442 14.815c.11.27.312.478.565.6l1.066.498a.444.444 0 0 1 0 .787l-1.066.499a1.17 1.17 0 0 0-.565.6l-.844 2.046a.42.42 0 0 1-.76 0l-.844-2.047a1.14 1.14 0 0 0-.565-.6L2.363 16.7a.444.444 0 0 1 0-.788l1.066-.498c.253-.12.454-.337.565-.6l.844-2.046a.42.42 0 0 1 .76 0z"/><defs><linearGradient id="a" x1="-3.045" x2="14.055" y1=".722" y2="25.049" gradientUnits="userSpaceOnUse"><stop stop-color="#335CFF"/><stop offset="1" stop-color="#00EEA3"/></linearGradient></defs></svg>