<svg xmlns="http://www.w3.org/2000/svg" width="347" height="177" fill="none"><rect width="347" height="220.919" fill="#fff" rx="12"/><path fill="#03030A" d="M10.34 13.09h3.036q.715 0 1.278.164.574.153.973.493.41.34.622.879.222.527.222 1.278 0 .69-.234 1.23a2.36 2.36 0 0 1-.645.903 2.8 2.8 0 0 1-.985.551 4.1 4.1 0 0 1-1.277.188H11.7v2.602h-1.36zm2.92 4.49q.785 0 1.3-.387.528-.399.551-1.23 0-.88-.457-1.267-.445-.387-1.313-.387h-1.64v3.271zm4.342 3.798V15.2h1.254l.07.88q.716-.985 1.946-.985.117 0 .223.012.117 0 .211.011v1.243q-.14 0-.281.012h-.258q-.516.012-.868.187-.34.165-.562.446a1.8 1.8 0 0 0-.305.668q-.094.375-.094.809v2.895zm5.212-8.745q.363 0 .598.223.246.222.246.61 0 .375-.246.597a.83.83 0 0 1-.598.223q-.387 0-.621-.223-.235-.222-.235-.598 0-.386.235-.61.234-.222.621-.222m-.68 8.745V15.2h1.337v6.178zm5.486.082q-.75 0-1.302-.222a2.6 2.6 0 0 1-.926-.645 2.9 2.9 0 0 1-.55-.997 4.5 4.5 0 0 1-.176-1.29q0-.702.187-1.289a2.8 2.8 0 0 1 .586-1.008 2.8 2.8 0 0 1 .938-.668q.55-.246 1.278-.246 1.067 0 1.77.492.703.48.891 1.536h-1.371a.98.98 0 0 0-.458-.621q-.352-.211-.855-.211-.447 0-.763.164-.316.165-.515.445-.199.282-.293.657a3.5 3.5 0 0 0-.082.762q0 .41.093.773.094.364.293.633.2.258.516.422.317.153.762.153.528 0 .868-.235.352-.234.445-.62h1.384q-.094.526-.352.913a2.1 2.1 0 0 1-.61.633 2.6 2.6 0 0 1-.809.364q-.445.105-.95.105m4.848-2.72q.023.34.14.634.117.293.317.516.21.21.504.34.304.128.703.128.423 0 .774-.152a.98.98 0 0 0 .516-.527h1.371a2.1 2.1 0 0 1-.387.808 2.3 2.3 0 0 1-.62.563q-.352.21-.786.317a4 4 0 0 1-.903.093q-.738 0-1.301-.222a2.44 2.44 0 0 1-.926-.645 2.8 2.8 0 0 1-.563-.997 4.6 4.6 0 0 1-.176-1.312q0-.704.2-1.278.198-.587.574-1.008.387-.422.926-.657.54-.246 1.23-.246.728 0 1.255.246.528.234.88.645.362.41.539.961.175.55.175 1.196 0 .304-.035.598zm3.141-1.007q-.023-.705-.445-1.09-.423-.388-1.09-.388-.376 0-.657.118a1.5 1.5 0 0 0-.48.316 1.6 1.6 0 0 0-.305.47q-.118.268-.153.574z"/><path stroke="#82808E" stroke-linecap="round" stroke-linejoin="round" stroke-width="1.172" d="m334.105 19.637-3.516-3.517-3.517 3.517"/><g filter="url(#a)"><rect width="159.432" height="83.203" x="9.379" y="31.068" fill="#fff" rx="6.673"/><path fill="#82808E" d="m23.403 49.446-.46-1.247H20.07l-.46 1.247h-.771l2.158-5.802h1.026l2.15 5.802zm-1.896-5.178-1.198 3.282h2.396zm2.475.853h.788l1.362 3.652 1.338-3.652h.796L26.6 49.446h-.952zm5.352 2.421q.024.288.114.533.1.24.263.419.165.18.402.287.246.099.567.099.155 0 .32-.025.171-.033.32-.098.147-.074.262-.19a.7.7 0 0 0 .172-.278h.714a1.4 1.4 0 0 1-.254.541 1.5 1.5 0 0 1-.418.378 1.9 1.9 0 0 1-.534.221 2.8 2.8 0 0 1-.599.066 2.3 2.3 0 0 1-.903-.164 1.8 1.8 0 0 1-.632-.451 1.9 1.9 0 0 1-.377-.698 3.1 3.1 0 0 1-.123-.894q0-.484.131-.886.14-.412.394-.706.255-.295.624-.46a2.15 2.15 0 0 1 .878-.164q.518 0 .894.205.377.205.608.542.23.328.32.714a2.4 2.4 0 0 1 .073.861q0 .075-.008.148zm2.519-.607q-.017-.55-.345-.895t-.878-.344q-.303 0-.533.098a1.1 1.1 0 0 0-.386.271 1.3 1.3 0 0 0-.246.402q-.09.222-.115.468zm1.561 2.51v-4.324h.673l.033.673q.237-.377.607-.55.369-.172.837-.172h.222v.657h-.255q-.386 0-.656.13-.27.124-.443.346a1.5 1.5 0 0 0-.247.508q-.073.295-.073.624v2.109zm5.827-.549q-.14.189-.32.304t-.378.18a2 2 0 0 1-.385.09 3 3 0 0 1-.378.025q-.303 0-.574-.074a1.5 1.5 0 0 1-.493-.238 1.3 1.3 0 0 1-.344-.41 1.2 1.2 0 0 1-.123-.558q0-.369.13-.615.14-.255.37-.41a1.4 1.4 0 0 1 .525-.214 3 3 0 0 1 .64-.066h1.272q0-.549-.238-.87-.237-.327-.804-.344-.345 0-.607.115a.65.65 0 0 0-.361.377h-.747q.057-.296.23-.5.173-.215.41-.345.238-.14.517-.205.279-.066.558-.066.484 0 .813.164.336.156.541.419.206.255.287.623.082.37.082.83v2.338h-.582zm-.82-1.403q-.198 0-.46.008-.255 0-.493.05a.7.7 0 0 0-.385.204.6.6 0 0 0-.14.41q0 .19.074.32.075.132.197.222.131.09.295.132.165.04.337.04.615 0 .968-.295.36-.303.37-.878v-.213zm6.299 1.92q0 .92-.492 1.444-.493.526-1.486.526-.329 0-.632-.074a1.7 1.7 0 0 1-.541-.238 1.5 1.5 0 0 1-.41-.402 1.5 1.5 0 0 1-.23-.575h.722a.7.7 0 0 0 .164.312.9.9 0 0 0 .279.205q.156.082.336.115t.353.033q.33 0 .566-.107a.96.96 0 0 0 .386-.279q.148-.18.214-.435a1.9 1.9 0 0 0 .073-.541v-.6a1.22 1.22 0 0 1-.607.542 2.2 2.2 0 0 1-.82.156 2.1 2.1 0 0 1-.854-.172 1.6 1.6 0 0 1-.59-.468 2 2 0 0 1-.345-.69 3.4 3.4 0 0 1-.107-.87q0-.465.115-.869.114-.41.353-.706.237-.302.599-.476.36-.172.861-.172.378 0 .764.14.385.14.631.45l.033-.54h.665zm-2.035-3.717a1.26 1.26 0 0 0-.6.131 1.1 1.1 0 0 0-.401.337 1.5 1.5 0 0 0-.222.508 2.8 2.8 0 0 0-.066.616q0 .36.066.64.066.27.222.484t.402.345q.246.123.607.123.419 0 .69-.197.27-.198.434-.493.116-.204.164-.443a2.5 2.5 0 0 0-.008-1.026 1.3 1.3 0 0 0-.189-.459 1.4 1.4 0 0 0-.434-.402 1.26 1.26 0 0 0-.665-.164m3.59 1.846q.025.288.115.533.099.24.263.419.163.18.402.287.245.099.566.099.155 0 .32-.025.172-.033.32-.098.148-.074.262-.19a.7.7 0 0 0 .173-.278h.714a1.4 1.4 0 0 1-.255.541 1.5 1.5 0 0 1-.418.378 1.9 1.9 0 0 1-.534.221 2.8 2.8 0 0 1-.599.066 2.3 2.3 0 0 1-.902-.164 1.8 1.8 0 0 1-.632-.451 1.9 1.9 0 0 1-.378-.698 3.1 3.1 0 0 1-.123-.894q0-.484.132-.886.14-.412.393-.706.255-.295.624-.46a2.15 2.15 0 0 1 .878-.164q.517 0 .895.205.377.205.607.542.23.328.32.714a2.4 2.4 0 0 1 .074.861q0 .075-.008.148zm2.52-.607q-.018-.55-.345-.895-.33-.345-.878-.344-.304 0-.534.098a1.1 1.1 0 0 0-.385.271 1.3 1.3 0 0 0-.247.402q-.09.222-.114.468zm3.69 4.07v-5.884h.665l.033.649q.22-.337.599-.51.385-.18.829-.188.5 0 .845.172.353.165.582.468.24.295.353.706.115.402.115.87 0 .476-.115.878-.114.402-.353.697a1.7 1.7 0 0 1-.599.468q-.36.165-.861.164-.493 0-.837-.156a1.4 1.4 0 0 1-.558-.435v2.101zm2.035-2.125q.352 0 .591-.123.246-.132.394-.345.156-.222.222-.509.073-.287.082-.615 0-.329-.074-.616a1.35 1.35 0 0 0-.222-.508 1.1 1.1 0 0 0-.41-.337 1.26 1.26 0 0 0-.6-.131q-.418 0-.721.23a1.4 1.4 0 0 0-.46.566q-.09.189-.123.394a2.5 2.5 0 0 0-.033.41q0 .246.033.46.033.204.123.393.157.312.451.526.305.205.747.205m2.836.566V45.12h.672l.033.673q.238-.377.608-.55.369-.172.837-.172h.221v.657h-.254q-.386 0-.657.13-.27.124-.443.346a1.5 1.5 0 0 0-.246.508q-.074.295-.074.624v2.109zm3.38-5.908q.198 0 .337.13.14.124.14.33a.44.44 0 0 1-.14.336.47.47 0 0 1-.336.13.46.46 0 0 1-.337-.13.46.46 0 0 1-.13-.337q0-.205.13-.328a.46.46 0 0 1 .337-.131m-.344 5.908V45.12h.698v4.325zm3.622.05a2.2 2.2 0 0 1-.894-.165 1.66 1.66 0 0 1-.624-.46 2 2 0 0 1-.369-.697 3 3 0 0 1-.123-.878q0-.46.131-.862.132-.41.386-.705.255-.304.64-.476.385-.18.936-.18.328 0 .582.073.255.066.476.221.23.148.394.394.165.246.238.6h-.714q-.123-.362-.394-.517a1.15 1.15 0 0 0-.624-.148q-.353 0-.623.14a1.2 1.2 0 0 0-.427.352q-.155.222-.23.517-.074.288-.074.59 0 .321.074.608.082.287.238.509.165.213.419.345.255.123.607.123.172 0 .337-.033.171-.033.311-.107a.833.833 0 0 0 .41-.533h.723a1.5 1.5 0 0 1-.238.582 1.5 1.5 0 0 1-.41.402q-.247.156-.542.23a2.5 2.5 0 0 1-.616.074m3.15-1.954q.024.288.114.533.099.24.263.419.164.18.402.287.246.099.566.099.155 0 .32-.025.173-.033.32-.098.148-.074.263-.19a.7.7 0 0 0 .172-.278h.714q-.075.312-.254.541a1.5 1.5 0 0 1-.419.378 1.9 1.9 0 0 1-.533.221 2.8 2.8 0 0 1-.6.066 2.3 2.3 0 0 1-.902-.164 1.8 1.8 0 0 1-.632-.451 1.9 1.9 0 0 1-.377-.698 3.1 3.1 0 0 1-.123-.894q0-.484.13-.886.14-.412.395-.706.254-.295.623-.46a2.15 2.15 0 0 1 .879-.164q.516 0 .894.205t.607.542q.23.328.32.714a2.4 2.4 0 0 1 .074.861q0 .075-.008.148zm2.519-.607q-.017-.55-.345-.895t-.878-.344q-.304 0-.533.098a1.1 1.1 0 0 0-.386.271 1.3 1.3 0 0 0-.246.402q-.09.222-.115.468z"/><g clip-path="url(#b)"><path stroke="#82808E" stroke-linecap="round" stroke-linejoin="round" stroke-miterlimit="10" stroke-width=".586" d="M154.744 44.945h.003m-.003 3.001v-1.875m3.751.375a3.752 3.752 0 1 1-7.503 0 3.752 3.752 0 0 1 7.503 0"/></g><path fill="#03030A" d="M21.534 70.73q.282-.247.622-.54a8 8 0 0 0 .656-.61q.316-.328.516-.703.21-.375.211-.809 0-.633-.375-1.02-.375-.386-1.079-.386-.562 0-.95.257a1.08 1.08 0 0 0-.48.692H19.32q.047-.54.293-.961a2.3 2.3 0 0 1 .645-.692q.387-.27.844-.387a4 4 0 0 1 1.067-.129q.562 0 1.055.153.492.152.855.457.376.305.586.774.223.457.223 1.078a3 3 0 0 1-.48 1.665q-.223.351-.516.656a7 7 0 0 1-.598.575q-.422.363-.75.633a328 328 0 0 0-1.442 1.184h3.786v1.207h-5.639v-1.113zm5.332 3.188a.94.94 0 0 1-.586-.234q-.223-.223-.223-.598 0-.41.258-.621a.86.86 0 0 1 .574-.223h.07q.529.034.727.375.2.34.2.715v.117q0 .34-.13.668a2.7 2.7 0 0 1-.34.633q-.21.294-.48.504-.27.223-.563.317l-.351-.48q.281-.2.516-.505a1.8 1.8 0 0 0 .328-.668m2.628-.094 3.2-7.069H28.58v-1.219h5.65v1.055l-3.224 7.233zm10.19-8.288v5.498h.95v1.196h-.95v1.594h-1.348V72.23h-4.279v-.973l3.88-5.72zm-4.056 5.498h2.708v-4.056zm12.367-1.36a7 7 0 0 1-.2 1.735 3.6 3.6 0 0 1-.597 1.325 2.74 2.74 0 0 1-1.009.856q-.61.305-1.441.305-.833 0-1.442-.293a2.8 2.8 0 0 1-1.009-.844 3.8 3.8 0 0 1-.597-1.302 6.7 6.7 0 0 1-.2-1.7q0-.96.188-1.758a4 4 0 0 1 .586-1.372 2.66 2.66 0 0 1 1.008-.879q.621-.315 1.466-.316.82 0 1.43.305.609.304 1.008.867.41.563.61 1.348.198.774.199 1.723m-5.147 0q0 .645.094 1.196t.317.961q.222.399.586.633.363.223.903.223.527 0 .89-.222a1.76 1.76 0 0 0 .587-.634q.222-.41.316-.96a7 7 0 0 0 .094-1.197q0-.633-.094-1.184a3 3 0 0 0-.316-.96 1.74 1.74 0 0 0-.587-.646q-.363-.234-.89-.234-.54 0-.903.234a1.74 1.74 0 0 0-.586.645 3 3 0 0 0-.317.961 7 7 0 0 0-.094 1.184m7.2 4.244a.94.94 0 0 1-.585-.234q-.223-.223-.223-.598 0-.41.258-.621a.86.86 0 0 1 .574-.223h.07q.529.034.727.375.2.34.2.715v.117q0 .34-.13.668a2.7 2.7 0 0 1-.34.633q-.21.294-.48.504-.27.223-.562.317l-.352-.48q.281-.2.516-.505a1.8 1.8 0 0 0 .328-.668m8.737-4.244a7 7 0 0 1-.2 1.735 3.6 3.6 0 0 1-.597 1.325 2.74 2.74 0 0 1-1.008.856q-.61.305-1.442.305-.833 0-1.442-.293a2.8 2.8 0 0 1-1.008-.844 3.8 3.8 0 0 1-.598-1.302 6.7 6.7 0 0 1-.2-1.7q0-.96.188-1.758.187-.797.586-1.372a2.66 2.66 0 0 1 1.008-.879q.621-.315 1.466-.316.82 0 1.43.305.609.304 1.008.867.41.563.61 1.348.2.774.199 1.723m-5.146 0q0 .645.093 1.196.094.551.317.961.223.399.586.633.363.223.903.223.527 0 .89-.222.364-.235.587-.634a3.1 3.1 0 0 0 .316-.96 7 7 0 0 0 .094-1.197q0-.633-.094-1.184a3 3 0 0 0-.316-.96 1.73 1.73 0 0 0-.586-.646q-.364-.234-.891-.234-.54 0-.903.234a1.74 1.74 0 0 0-.586.645 3 3 0 0 0-.317.961 7 7 0 0 0-.093 1.184m12.733 0a7 7 0 0 1-.199 1.735 3.6 3.6 0 0 1-.598 1.325 2.74 2.74 0 0 1-1.008.856q-.61.305-1.442.305t-1.442-.293a2.8 2.8 0 0 1-1.008-.844 3.8 3.8 0 0 1-.598-1.302 6.7 6.7 0 0 1-.2-1.7q0-.96.188-1.758a4 4 0 0 1 .587-1.372 2.66 2.66 0 0 1 1.008-.879q.62-.315 1.465-.316.82 0 1.43.305.61.304 1.008.867.41.563.61 1.348.2.774.2 1.723m-5.146 0q0 .645.094 1.196.093.551.316.961.223.399.586.633.364.223.903.223.528 0 .891-.222.364-.235.586-.634.223-.41.317-.96a7 7 0 0 0 .094-1.197q0-.633-.094-1.184a3 3 0 0 0-.317-.96 1.73 1.73 0 0 0-.586-.646q-.364-.234-.89-.234-.54 0-.904.234a1.74 1.74 0 0 0-.586.645 3 3 0 0 0-.316.961 7 7 0 0 0-.094 1.184m12.734 0a7 7 0 0 1-.2 1.735 3.6 3.6 0 0 1-.597 1.325 2.74 2.74 0 0 1-1.009.856q-.61.305-1.441.305-.833 0-1.442-.293a2.8 2.8 0 0 1-1.009-.844 3.8 3.8 0 0 1-.597-1.302 6.7 6.7 0 0 1-.2-1.7q0-.96.188-1.758a4 4 0 0 1 .586-1.372 2.66 2.66 0 0 1 1.008-.879q.621-.315 1.466-.316.82 0 1.43.305.609.304 1.008.867.41.563.61 1.348.198.774.199 1.723m-5.147 0q0 .645.094 1.196t.317.961q.222.399.586.633.363.223.903.223.527 0 .89-.222a1.76 1.76 0 0 0 .587-.634 3.1 3.1 0 0 0 .316-.96 7 7 0 0 0 .094-1.197q0-.633-.094-1.184a3 3 0 0 0-.316-.96 1.74 1.74 0 0 0-.587-.646q-.363-.234-.89-.234-.54 0-.903.234a1.73 1.73 0 0 0-.586.645 3 3 0 0 0-.317.961 7 7 0 0 0-.094 1.184"/><path fill="#82808E" d="m82.122 75.824-.46-1.247H78.79l-.459 1.247h-.771l2.158-5.801h1.026l2.15 5.801zm-1.895-5.178-1.199 3.283h2.397zm3.38-.623h3.898v.648H84.32v1.953h2.864v.657H84.32v1.895h3.184v.648h-3.898zm4.926 0h2.06q.674 0 1.182.213.517.206.861.59.346.379.517.92.173.534.173 1.182a4 4 0 0 1-.18 1.181 2.5 2.5 0 0 1-.518.92 2.3 2.3 0 0 1-.845.59q-.51.205-1.19.205h-2.06zm.714.648v4.505h1.297q.443 0 .845-.131a1.54 1.54 0 0 0 .698-.484 1.9 1.9 0 0 0 .385-.714q.123-.42.123-.92a3.1 3.1 0 0 0-.123-.919 2 2 0 0 0-.369-.697 1.7 1.7 0 0 0-.624-.468 2.1 2.1 0 0 0-.894-.172z"/><path fill="#16C552" d="M125.337 73.824h-1.088v-5.102h-1.35v-.74q.553-.019.975-.179.422-.168.666-.61h.797zm2.924-2.476.497-.431q.282-.234.526-.488.252-.262.412-.562.17-.3.169-.647 0-.507-.3-.816-.3-.31-.863-.31-.45 0-.759.207a.86.86 0 0 0-.385.553h-1.069q.037-.431.234-.77.207-.337.516-.553.31-.215.675-.309.375-.103.854-.103.45 0 .844.122t.685.365q.3.245.468.62.179.364.179.862 0 .395-.104.722a2.5 2.5 0 0 1-.281.61 3.3 3.3 0 0 1-.413.525q-.225.244-.478.46a35 35 0 0 1-.6.506l-.46.375-.375.31a7 7 0 0 0-.319.262h3.03v.966h-4.511v-.89zm4.266 2.551a.75.75 0 0 1-.469-.187.65.65 0 0 1-.179-.478q0-.33.207-.498a.68.68 0 0 1 .459-.178h.057q.422.03.581.3.159.273.159.572v.094q0 .272-.103.535-.103.272-.272.506-.168.235-.384.404a1.4 1.4 0 0 1-.45.253l-.282-.385q.225-.159.413-.403a1.5 1.5 0 0 0 .263-.535m1.99-2.991.356-3.714h3.995v.966h-3.085l-.188 1.725q.272-.177.582-.272.318-.102.759-.103.498 0 .901.15.403.141.694.413t.44.666q.16.394.16.89 0 .535-.188.957a2.05 2.05 0 0 1-.516.713 2.3 2.3 0 0 1-.769.45q-.44.15-.956.15-.44 0-.835-.103a2.3 2.3 0 0 1-.703-.319 1.9 1.9 0 0 1-.525-.553 2.15 2.15 0 0 1-.272-.816h1.078a1 1 0 0 0 .178.347q.132.15.3.253.17.104.366.16.197.047.394.047.282 0 .525-.066.244-.075.422-.225.188-.15.291-.375.103-.234.103-.563 0-.6-.356-.919-.348-.32-.919-.319-.357 0-.647.122a1.8 1.8 0 0 0-.526.338zm6.98-.732q-.366 0-.648-.122a1.5 1.5 0 0 1-.468-.328 1.34 1.34 0 0 1-.282-.488 2 2 0 0 1-.094-.61q0-.674.376-1.106.384-.44 1.116-.44.712 0 1.087.44.385.432.385 1.107 0 .328-.103.61-.094.281-.282.487a1.4 1.4 0 0 1-.459.328 1.5 1.5 0 0 1-.628.122m-.723 3.648 4.164-6.63h1.07l-4.164 6.63zm.723-5.927q-.357 0-.497.225a.9.9 0 0 0-.141.507q0 .3.141.515t.497.216q.337 0 .468-.216a1 1 0 0 0 .132-.515.95.95 0 0 0-.132-.507q-.13-.225-.468-.225m3.845 6.03q-.366 0-.647-.121a1.5 1.5 0 0 1-.469-.329 1.4 1.4 0 0 1-.282-.487 2 2 0 0 1-.093-.61q0-.675.375-1.107.384-.44 1.116-.44.713 0 1.097.44.384.432.384 1.107 0 .328-.103.61-.093.281-.281.487a1.34 1.34 0 0 1-.469.329 1.5 1.5 0 0 1-.628.121m-.01-2.278q-.337 0-.487.215a.92.92 0 0 0-.141.516q0 .3.141.516.15.216.487.216.347 0 .479-.216a1 1 0 0 0 .131-.516q0-.15-.028-.281a.54.54 0 0 0-.103-.225.43.43 0 0 0-.188-.16.6.6 0 0 0-.291-.065"/><path stroke="#16C552" stroke-linecap="round" stroke-linejoin="round" stroke-width=".879" d="M156.307 69.24h2.084v2.084"/><path stroke="#16C552" stroke-linecap="round" stroke-linejoin="round" stroke-width=".879" d="m158.39 69.24-2.943 2.944a.26.26 0 0 1-.365 0l-1.198-1.198a.263.263 0 0 0-.365 0l-1.902 1.901"/><path stroke="#E3E6E8" stroke-width=".586" d="M18.758 88.203h140.675"/><path fill="#82808E" d="M18.815 97.567h.788l1.362 3.652 1.338-3.652h.796l-1.666 4.325h-.952zm6.353.575q-.148 0-.304.024a1 1 0 0 0-.295.082.65.65 0 0 0-.246.18.5.5 0 0 0-.107.313q0 .279.205.418.213.14.55.205.14.033.303.066.165.025.32.057a4 4 0 0 1 .55.124q.788.246.788 1.058-.008.394-.172.64a1.15 1.15 0 0 1-.402.378 1.7 1.7 0 0 1-.55.197 3.3 3.3 0 0 1-1.206 0 1.9 1.9 0 0 1-.558-.197 1.6 1.6 0 0 1-.427-.378 1.3 1.3 0 0 1-.222-.591h.706a.66.66 0 0 0 .205.312q.14.115.296.181a1.5 1.5 0 0 0 .631.115q.133 0 .304-.017.172-.016.328-.074a.7.7 0 0 0 .263-.188.5.5 0 0 0 .107-.345q0-.246-.165-.369a1.04 1.04 0 0 0-.434-.181 9 9 0 0 0-.41-.074l-.42-.082a9 9 0 0 1-.401-.106 1.8 1.8 0 0 1-.37-.173 1.06 1.06 0 0 1-.369-.377 1.13 1.13 0 0 1-.14-.583q.017-.36.165-.59a1.2 1.2 0 0 1 .377-.386q.247-.148.525-.206.279-.057.591-.057.664 0 1.059.287.238.165.37.394.13.23.163.484h-.648a.61.61 0 0 0-.312-.385q-.255-.148-.648-.156m6.018 1.723q.221-.19.484-.41.27-.23.5-.493.239-.262.402-.55.165-.294.173-.64.016-.525-.304-.804-.32-.287-.845-.287-.42 0-.73.172a.83.83 0 0 0-.41.5h-.764q.057-.335.238-.582.189-.255.451-.418.27-.165.591-.246.32-.082.657-.082.402 0 .738.114.337.107.583.32t.377.534q.14.312.14.714t-.123.722q-.116.32-.32.59-.197.27-.452.51-.254.237-.525.476l-1.469 1.239h2.954v.648h-3.988v-.591zm3.728 2.043a.55.55 0 0 1-.344-.139.43.43 0 0 1-.132-.328.45.45 0 0 1 .148-.337.5.5 0 0 1 .337-.131.46.46 0 0 1 .377.172q.148.172.148.484 0 .172-.074.378a1.46 1.46 0 0 1-.451.689.9.9 0 0 1-.312.189l-.197-.271q.164-.115.303-.312a1.1 1.1 0 0 0 .197-.394m1.828-.016 2.347-5.145H36.02v-.657h3.857v.591l-2.347 5.211zm6.962-5.802v3.997h.68v.648h-.68v1.157h-.714v-1.157h-3.151v-.534l2.839-4.11zm-3.004 3.997h2.29v-3.349zm8.902-1.092q0 .558-.115 1.092a2.8 2.8 0 0 1-.369.951 2 2 0 0 1-.697.665q-.435.255-1.084.255-.656 0-1.091-.255a2 2 0 0 1-.698-.665 2.8 2.8 0 0 1-.369-.935 5.5 5.5 0 0 1-.107-1.108q0-.59.107-1.108.106-.525.37-.935.262-.41.697-.665.435-.262 1.091-.262.648 0 1.084.254.435.255.697.673t.37.952q.114.534.114 1.091m-3.8 0q0 .394.058.804t.222.747.46.55q.303.213.795.213.484 0 .78-.213.303-.213.468-.55.164-.336.221-.747.057-.41.058-.804 0-.385-.058-.796a2.5 2.5 0 0 0-.221-.747 1.4 1.4 0 0 0-.468-.558q-.295-.22-.78-.221-.492 0-.796.221-.295.215-.46.558-.163.337-.22.747a6 6 0 0 0-.058.796m7.26-3.011q.197 0 .336.13.14.124.14.33a.44.44 0 0 1-.14.335.47.47 0 0 1-.336.132.46.46 0 0 1-.337-.132.46.46 0 0 1-.131-.336q0-.205.131-.328a.46.46 0 0 1 .337-.131m-.345 5.908v-4.325h.697v4.325zm1.776 0v-4.325h.673l.033.657q.105-.18.262-.312.165-.131.353-.222.189-.09.394-.13.213-.042.41-.042.468 0 .788.156.32.147.509.418a1.7 1.7 0 0 1 .27.632q.083.36.083.78v2.388h-.698v-2.2q0-.303-.041-.582a1.4 1.4 0 0 0-.148-.492.85.85 0 0 0-.312-.353q-.205-.132-.55-.132a1.2 1.2 0 0 0-.598.165q-.255.156-.41.369-.19.27-.255.599-.066.32-.066.648v1.978zm7.06-5.802h2.06q.672 0 1.181.214.517.204.862.59.345.378.517.92.172.533.172 1.181a4 4 0 0 1-.18 1.182 2.5 2.5 0 0 1-.517.919 2.3 2.3 0 0 1-.846.591q-.508.205-1.19.205h-2.06zm.714.648v4.506h1.296q.444 0 .846-.132.41-.14.697-.484.263-.303.386-.714.123-.418.123-.919a3.1 3.1 0 0 0-.123-.919 2 2 0 0 0-.37-.697 1.7 1.7 0 0 0-.623-.468 2.1 2.1 0 0 0-.895-.172zm6.751 4.588q.59 0 .862-.353.279-.362.279-1.001v-2.405h.697v2.438q0 .984-.476 1.46-.467.476-1.362.476-.894 0-1.362-.476-.46-.476-.46-1.46v-2.438h.698v2.405q0 .64.279 1.001.28.353.845.353m2.84.566V96.09h.698v2.117q.214-.328.608-.508.402-.189.82-.18.493 0 .846.171.36.172.59.468.239.295.345.706.115.402.115.87t-.115.87a1.9 1.9 0 0 1-.345.689 1.7 1.7 0 0 1-.607.468 2.1 2.1 0 0 1-.862.18h-.09a1.8 1.8 0 0 1-.771-.156 1.55 1.55 0 0 1-.534-.418l-.032.525zm2.036-.566q.353 0 .59-.123.247-.132.395-.345.156-.221.221-.509.075-.287.082-.615a2.5 2.5 0 0 0-.073-.616 1.35 1.35 0 0 0-.222-.508 1.1 1.1 0 0 0-.41-.337 1.26 1.26 0 0 0-.6-.131q-.196 0-.385.065a1.2 1.2 0 0 0-.337.18 1.4 1.4 0 0 0-.262.247 1.65 1.65 0 0 0-.312.698 2 2 0 0 0-.041.41q0 .213.025.443.033.222.13.41.15.312.452.526.304.204.747.205m5.683.016q-.14.189-.32.304a1.905 1.905 0 0 1-.763.271 3 3 0 0 1-.378.024q-.303 0-.574-.074a1.5 1.5 0 0 1-.493-.238 1.25 1.25 0 0 1-.344-.41 1.2 1.2 0 0 1-.123-.558q0-.369.13-.615a1.16 1.16 0 0 1 .37-.41 1.4 1.4 0 0 1 .525-.214 3 3 0 0 1 .64-.066h1.272q0-.549-.238-.87-.237-.327-.804-.344-.345 0-.607.115a.65.65 0 0 0-.361.377h-.747q.057-.296.23-.5a1.4 1.4 0 0 1 .41-.345q.238-.14.517-.205.279-.066.558-.066.484 0 .813.164.336.156.541.419.206.254.287.623.083.37.083.83v2.338h-.583zm-.82-1.403q-.198 0-.46.008-.255 0-.493.05a.72.72 0 0 0-.385.204.6.6 0 0 0-.14.411q0 .189.074.32.075.13.197.221a.9.9 0 0 0 .295.132q.165.04.337.041.615 0 .968-.296.36-.303.37-.878v-.213zm2.844-3.955q.198 0 .337.13.14.124.14.33a.44.44 0 0 1-.14.335.47.47 0 0 1-.337.132.46.46 0 0 1-.336-.132.46.46 0 0 1-.132-.336q0-.205.132-.328a.46.46 0 0 1 .336-.131m-.344 5.908v-4.325h.697v4.325zM105.532 97.567h.788l1.034 3.652 1.067-3.652h.943l1.075 3.652 1.018-3.652h.796l-1.346 4.325h-.952l-1.067-3.504-1.066 3.504h-.944zm9.189-.049q.517 0 .894.164.378.165.632.46.263.295.386.706.131.401.131.886 0 .484-.131.894a1.757 1.757 0 0 1-1.026 1.149 2.3 2.3 0 0 1-.902.164 2.3 2.3 0 0 1-.903-.164 1.86 1.86 0 0 1-.64-.451 2 2 0 0 1-.386-.698 3.1 3.1 0 0 1-.123-.894q0-.484.123-.886.132-.411.386-.706a1.8 1.8 0 0 1 .656-.46q.394-.165.903-.164m-.016 3.808q.352 0 .607-.123.262-.123.427-.337.172-.221.246-.509.081-.287.082-.623 0-.329-.082-.616a1.3 1.3 0 0 0-.246-.508 1.1 1.1 0 0 0-.427-.345 1.4 1.4 0 0 0-.607-.123q-.353 0-.608.123a1.2 1.2 0 0 0-.426.344q-.165.214-.247.51a2.5 2.5 0 0 0-.073.615q0 .336.073.623.082.287.247.509.172.213.426.337.255.123.608.123m2.911.566v-4.325h.672l.033.673q.238-.377.607-.55.37-.171.838-.172h.221v.657h-.254q-.386 0-.657.13-.27.124-.443.345a1.5 1.5 0 0 0-.246.51 2.6 2.6 0 0 0-.074.623v2.109zm4.441-3.75q-.147 0-.303.024a1 1 0 0 0-.296.082.65.65 0 0 0-.246.18.5.5 0 0 0-.107.313q0 .279.206.418.213.14.549.205.14.033.304.066.164.025.32.057a4 4 0 0 1 .55.124q.788.246.788 1.058-.009.394-.173.64a1.16 1.16 0 0 1-.402.378 1.7 1.7 0 0 1-.55.197 3.3 3.3 0 0 1-1.206 0 1.9 1.9 0 0 1-.558-.197 1.6 1.6 0 0 1-.427-.378 1.3 1.3 0 0 1-.221-.591h.706a.65.65 0 0 0 .205.312q.14.115.295.181a1.5 1.5 0 0 0 .632.115q.131 0 .304-.017.172-.016.328-.074a.7.7 0 0 0 .262-.188.5.5 0 0 0 .107-.345q0-.246-.164-.369a1.04 1.04 0 0 0-.435-.181 8 8 0 0 0-.41-.074l-.419-.082a8 8 0 0 1-.402-.106 1.8 1.8 0 0 1-.369-.173 1.06 1.06 0 0 1-.369-.377 1.13 1.13 0 0 1-.14-.583q.017-.36.164-.59a1.2 1.2 0 0 1 .378-.386q.246-.148.525-.206t.591-.057q.665 0 1.058.287.238.165.37.394.13.23.164.484h-.649q-.057-.238-.311-.385-.255-.148-.649-.156m3.092 1.846q.025.287.115.533.099.239.263.419t.402.287q.246.099.566.099.156 0 .32-.025.173-.033.32-.098.148-.075.263-.189a.74.74 0 0 0 .172-.279h.714a1.4 1.4 0 0 1-.254.541 1.5 1.5 0 0 1-.419.378 1.9 1.9 0 0 1-.533.221 2.7 2.7 0 0 1-.599.066 2.3 2.3 0 0 1-.903-.164 1.8 1.8 0 0 1-.632-.451 1.9 1.9 0 0 1-.377-.698 3.1 3.1 0 0 1-.123-.894q0-.484.131-.886a2.1 2.1 0 0 1 .394-.706q.254-.295.623-.46.37-.165.878-.164.517 0 .895.205t.607.542q.23.329.32.714a2.4 2.4 0 0 1 .074.861q0 .075-.008.148zm2.52-.607q-.017-.55-.345-.895-.329-.344-.878-.344-.304 0-.534.098a1.1 1.1 0 0 0-.385.271 1.3 1.3 0 0 0-.246.402 1.6 1.6 0 0 0-.115.468zm3.69 2.511V96.09h.698v2.117q.213-.328.607-.508.402-.189.821-.18.492 0 .845.171.361.172.591.468.238.295.345.706.114.402.114.87t-.114.87a1.9 1.9 0 0 1-.345.689 1.7 1.7 0 0 1-.607.468 2.1 2.1 0 0 1-.862.18h-.09q-.444 0-.772-.156a1.55 1.55 0 0 1-.533-.418l-.033.525zm2.036-.566q.353 0 .59-.123.246-.132.394-.345.156-.221.222-.509.073-.287.082-.615 0-.329-.074-.616a1.35 1.35 0 0 0-.222-.508 1.1 1.1 0 0 0-.41-.337 1.26 1.26 0 0 0-.599-.131q-.197 0-.386.065a1.2 1.2 0 0 0-.336.18 1.4 1.4 0 0 0-.263.247 1.64 1.64 0 0 0-.311.698 2 2 0 0 0-.041.41q0 .213.024.443.033.222.131.41.148.312.452.526.303.204.747.205m6.634-3.759v4.325q0 .944-.492 1.436-.492.501-1.403.501a3.5 3.5 0 0 1-.993-.148 2.04 2.04 0 0 1-.804-.476l.303-.55q.321.255.681.402.37.148.772.148a1.4 1.4 0 0 0 .574-.107.9.9 0 0 0 .386-.287q.156-.18.221-.435.075-.255.074-.55v-.517q-.106.165-.271.296-.156.123-.344.205a1.8 1.8 0 0 1-.394.107 2 2 0 0 1-.419.041q-.492-.009-.82-.156a1.3 1.3 0 0 1-.517-.411 1.7 1.7 0 0 1-.271-.623 3.7 3.7 0 0 1-.082-.813v-2.388h.697v2.191q0 .295.033.583.042.287.156.509a.93.93 0 0 0 .337.361q.22.13.59.131.37 0 .624-.156a1.1 1.1 0 0 0 .402-.394q.156-.246.205-.541.058-.296.058-.608v-2.076zm4.983 4.391q-.345 0-.697-.066a2.4 2.4 0 0 1-.649-.222 1.7 1.7 0 0 1-.508-.426 1.36 1.36 0 0 1-.263-.649h.738q.075.214.222.353.156.132.345.214.197.082.41.114.213.033.41.033.18 0 .411-.033.23-.032.426-.139a.9.9 0 0 0 .337-.312q.14-.213.139-.558 0-.328-.131-.525a.83.83 0 0 0-.328-.304 1.3 1.3 0 0 0-.452-.14 4 4 0 0 0-.5-.032h-.558v-.64h.336q.222 0 .411-.008.188-.017.418-.115.263-.123.419-.345a.97.97 0 0 0 .164-.525q0-.295-.099-.484a.76.76 0 0 0-.262-.296.95.95 0 0 0-.37-.14 2 2 0 0 0-.418-.04q-.172 0-.361.04-.18.034-.345.116a1 1 0 0 0-.279.221.73.73 0 0 0-.172.32h-.714q.049-.36.23-.615.18-.255.443-.419.27-.163.591-.238a3 3 0 0 1 1.354.009q.327.074.574.254.246.172.386.46.147.287.147.697 0 .156-.032.337-.033.172-.123.344-.091.172-.263.345-.172.172-.451.287.549.107.837.484.287.369.287.895v.032q0 .452-.164.78a1.5 1.5 0 0 1-.435.533 1.9 1.9 0 0 1-.657.304 3.2 3.2 0 0 1-.804.099m7.44-2.963q0 .558-.115 1.092a2.8 2.8 0 0 1-.369.951 2 2 0 0 1-.698.665q-.435.255-1.083.255-.656 0-1.091-.255a2 2 0 0 1-.698-.665 2.8 2.8 0 0 1-.369-.935 5.5 5.5 0 0 1-.107-1.108q0-.59.107-1.108.106-.525.369-.935t.698-.665q.434-.262 1.091-.262.648 0 1.083.254.435.255.698.673t.369.952q.115.534.115 1.091m-3.799 0q0 .394.057.804t.222.747.459.55q.304.213.796.213.485 0 .78-.213.303-.213.467-.55.165-.336.222-.747.057-.41.057-.804 0-.385-.057-.796a2.5 2.5 0 0 0-.222-.747 1.4 1.4 0 0 0-.467-.558q-.295-.22-.78-.221-.492 0-.796.221a1.43 1.43 0 0 0-.459.558 2.5 2.5 0 0 0-.222.747 6 6 0 0 0-.057.796m5.859-.402q-.296 0-.525-.098a1 1 0 0 1-.369-.271 1.4 1.4 0 0 1-.23-.41 1.7 1.7 0 0 1-.074-.51q0-.278.074-.508.082-.239.23-.41.156-.173.377-.263.222-.098.517-.098.575 0 .878.36.304.354.304.92 0 .27-.082.508-.074.23-.222.41a1 1 0 0 1-.369.272 1.24 1.24 0 0 1-.509.098m-.542 3.299 3.57-5.802h.722l-3.561 5.802zm.542-5.285q-.329 0-.468.213a.87.87 0 0 0-.139.485q0 .287.139.5.14.205.468.205.312 0 .443-.213a.9.9 0 0 0 .131-.492.9.9 0 0 0-.131-.485q-.13-.213-.443-.213m3.25 5.334a1.3 1.3 0 0 1-.526-.098 1.1 1.1 0 0 1-.377-.271 1.4 1.4 0 0 1-.23-.41 1.7 1.7 0 0 1-.074-.509q0-.28.074-.509.082-.238.238-.41.156-.173.378-.263.221-.099.517-.098.28 0 .5.098.222.09.37.263.155.172.229.41.082.23.082.509 0 .27-.082.509-.074.23-.229.41a1 1 0 0 1-.37.271 1.2 1.2 0 0 1-.5.098m-.009-1.986q-.327 0-.467.214a.9.9 0 0 0-.132.484q0 .287.14.5.14.206.459.206.321 0 .444-.214a.9.9 0 0 0 .131-.492.9.9 0 0 0-.131-.484q-.123-.214-.444-.214"/></g><g filter="url(#c)"><rect width="159.432" height="83.203" x="178.189" y="31.068" fill="#fff" rx="6.673"/><path fill="#82808E" d="M188.282 49.446v-5.802h1.083l1.74 3.192 1.715-3.192h1.059v5.802h-.714v-5.047l-1.912 3.529h-.328l-1.929-3.529v5.047zm7.324-1.904q.024.288.115.533.098.24.262.419.165.18.402.287.246.099.567.099.156 0 .32-.025.171-.033.32-.098a1 1 0 0 0 .262-.19.7.7 0 0 0 .173-.278h.713a1.4 1.4 0 0 1-.254.541 1.5 1.5 0 0 1-.418.378 1.9 1.9 0 0 1-.534.221 2.8 2.8 0 0 1-.599.066q-.517 0-.903-.164a1.8 1.8 0 0 1-.631-.451 1.9 1.9 0 0 1-.378-.698 3.1 3.1 0 0 1-.123-.894q0-.484.131-.886.14-.412.394-.706.255-.295.624-.46a2.15 2.15 0 0 1 .878-.164q.518 0 .894.205.378.205.608.542.23.328.32.714a2.4 2.4 0 0 1 .074.861q0 .075-.009.148zm2.519-.607q-.017-.55-.345-.895t-.878-.344q-.303 0-.533.098a1.1 1.1 0 0 0-.386.271 1.3 1.3 0 0 0-.246.402q-.09.222-.115.468zm5.418 2.51h-.665l-.032-.647a1.27 1.27 0 0 1-.616.533q-.386.165-.812.164a2.1 2.1 0 0 1-.854-.172 1.6 1.6 0 0 1-.591-.468 2 2 0 0 1-.344-.69 3.4 3.4 0 0 1-.107-.87q0-.465.115-.869.115-.41.353-.706.237-.302.599-.476.362-.172.861-.172.378 0 .764.14.385.14.632.45v-2.018h.697zm-2.035-3.75a1.26 1.26 0 0 0-.599.132 1.1 1.1 0 0 0-.402.337 1.5 1.5 0 0 0-.222.508 2.8 2.8 0 0 0-.065.632q0 .345.065.624.066.27.222.484t.402.345q.246.123.607.123.419 0 .689-.197.272-.198.435-.493.116-.204.164-.443a2.45 2.45 0 0 0-.008-1.026 1.3 1.3 0 0 0-.188-.459 1.4 1.4 0 0 0-.435-.402 1.26 1.26 0 0 0-.665-.164m3.451-2.157q.196 0 .336.13.14.124.14.33a.44.44 0 0 1-.14.336.47.47 0 0 1-.336.13.46.46 0 0 1-.337-.13.46.46 0 0 1-.131-.337.43.43 0 0 1 .131-.328.46.46 0 0 1 .337-.131m-.345 5.908V45.12h.698v4.325zm4.623-.55a1.2 1.2 0 0 1-.32.304q-.18.114-.377.18a2 2 0 0 1-.386.09 3 3 0 0 1-.377.025 2.2 2.2 0 0 1-.575-.074 1.5 1.5 0 0 1-.492-.238 1.3 1.3 0 0 1-.345-.41 1.2 1.2 0 0 1-.123-.558q0-.369.131-.615.14-.255.37-.41.23-.157.525-.214.303-.066.64-.066h1.272q0-.549-.238-.87-.238-.327-.804-.344-.344 0-.608.115a.65.65 0 0 0-.361.377h-.746a1.1 1.1 0 0 1 .229-.5 1.4 1.4 0 0 1 .411-.345 1.9 1.9 0 0 1 .517-.205q.279-.066.558-.066.484 0 .812.164.336.156.542.419.205.255.287.623.082.37.082.83v2.338h-.583zm-.82-1.403q-.198 0-.46.008-.254 0-.492.05a.7.7 0 0 0-.386.204.6.6 0 0 0-.139.41.64.64 0 0 0 .27.542q.132.09.296.132.164.04.336.04.616 0 .969-.295.36-.303.369-.878v-.213zm2.443 1.953V45.12h.672l.033.657q.107-.18.263-.312.164-.131.353-.222.189-.09.394-.13.213-.042.41-.042.468 0 .788.156.32.148.509.419.188.262.27.631.082.36.082.78v2.388h-.697v-2.2q0-.303-.041-.582a1.4 1.4 0 0 0-.148-.492.85.85 0 0 0-.312-.353q-.204-.132-.55-.132-.335.008-.599.165a1.4 1.4 0 0 0-.41.369q-.189.27-.254.599a3.2 3.2 0 0 0-.066.648v1.978zm6.896 1.56V45.12h.664l.033.649q.222-.337.599-.51.386-.18.829-.188.5 0 .845.172.353.165.583.468.237.295.353.706.114.402.115.87 0 .476-.115.878a2 2 0 0 1-.353.697 1.7 1.7 0 0 1-.599.468 2.1 2.1 0 0 1-.862.164q-.492 0-.837-.156a1.4 1.4 0 0 1-.558-.435v2.101zm2.035-2.126q.352 0 .591-.123.246-.132.393-.345a1.4 1.4 0 0 0 .222-.509q.074-.287.082-.615 0-.329-.074-.616a1.35 1.35 0 0 0-.221-.508 1.1 1.1 0 0 0-.411-.337 1.26 1.26 0 0 0-.599-.131q-.418 0-.722.23a1.4 1.4 0 0 0-.459.566 1.4 1.4 0 0 0-.123.394 2.5 2.5 0 0 0-.033.41q0 .246.033.46.031.204.123.393.156.312.451.526.303.205.747.205m2.835.566V45.12h.673l.033.673q.237-.377.607-.55.369-.172.837-.172h.222v.657h-.255a1.5 1.5 0 0 0-.656.13 1.15 1.15 0 0 0-.443.346q-.165.213-.247.508a2.6 2.6 0 0 0-.073.624v2.109zm3.381-5.908q.198 0 .337.13a.42.42 0 0 1 .139.33.44.44 0 0 1-.139.336.47.47 0 0 1-.337.13.46.46 0 0 1-.336-.13.45.45 0 0 1-.131-.337q0-.205.131-.328a.46.46 0 0 1 .336-.131m-.344 5.908V45.12h.697v4.325zm3.622.05q-.517 0-.895-.165a1.66 1.66 0 0 1-.623-.46 2 2 0 0 1-.37-.697 3 3 0 0 1-.123-.878q0-.46.132-.862.131-.41.385-.705.255-.304.64-.476.386-.18.936-.18.328 0 .583.073.254.066.475.221.23.148.394.394.165.246.238.6h-.714q-.123-.362-.393-.517a1.15 1.15 0 0 0-.624-.148q-.353 0-.624.14a1.2 1.2 0 0 0-.427.352q-.155.222-.229.517-.075.288-.074.59 0 .321.074.608.082.287.238.509.164.213.418.345.255.123.607.123.172 0 .337-.033.173-.033.312-.107a.838.838 0 0 0 .41-.533h.722a1.5 1.5 0 0 1-.238.582 1.5 1.5 0 0 1-.41.402q-.246.156-.542.23-.295.075-.615.074m3.149-1.954q.024.288.115.533.098.24.262.419.165.18.402.287.246.099.567.099.156 0 .32-.025.171-.033.32-.098a1 1 0 0 0 .262-.19.7.7 0 0 0 .173-.278h.713a1.4 1.4 0 0 1-.254.541 1.5 1.5 0 0 1-.418.378 1.9 1.9 0 0 1-.534.221 2.8 2.8 0 0 1-.599.066q-.517 0-.903-.164a1.8 1.8 0 0 1-.631-.451 1.9 1.9 0 0 1-.378-.698 3.1 3.1 0 0 1-.123-.894q0-.484.131-.886.14-.412.394-.706.255-.295.624-.46a2.15 2.15 0 0 1 .878-.164q.517 0 .894.205t.608.542q.23.328.32.714a2.4 2.4 0 0 1 .074.861q0 .075-.009.148zm2.519-.607q-.016-.55-.345-.895-.327-.345-.878-.344-.303 0-.533.098a1.1 1.1 0 0 0-.386.271 1.3 1.3 0 0 0-.246.402q-.09.222-.115.468z"/><path stroke="#82808E" stroke-linecap="round" stroke-linejoin="round" stroke-miterlimit="10" stroke-width=".586" d="M323.554 44.945h.003m-.003 3.001v-1.875m3.751.375a3.75 3.75 0 1 1-7.502 0 3.75 3.75 0 0 1 7.502 0"/><path fill="#03030A" d="M190.345 70.73q.282-.247.621-.54a8 8 0 0 0 .657-.61 3.1 3.1 0 0 0 .516-.703q.21-.375.211-.809 0-.633-.376-1.02-.375-.386-1.078-.386-.563 0-.95.257a1.08 1.08 0 0 0-.48.692h-1.337q.047-.54.293-.961a2.3 2.3 0 0 1 .645-.692q.387-.27.844-.387a4 4 0 0 1 1.067-.129q.563 0 1.055.153.493.152.856.457.375.305.586.774.222.457.223 1.078a3 3 0 0 1-.481 1.665q-.222.351-.516.656a7 7 0 0 1-.598.575 41 41 0 0 1-.75.633l-.574.469q-.259.21-.469.387-.212.163-.399.328h3.787v1.207h-5.639v-1.113zm5.331 3.188a.94.94 0 0 1-.586-.234q-.222-.223-.223-.598 0-.41.258-.621a.86.86 0 0 1 .575-.223h.07q.528.034.727.375.2.34.199.715v.117q0 .34-.129.668a2.7 2.7 0 0 1-.34.633 2.5 2.5 0 0 1-.48.504q-.27.223-.563.317l-.352-.48q.282-.2.516-.505t.328-.668m2.629-.094 3.2-7.069h-4.115v-1.219h5.651v1.055l-3.224 7.233zm10.19-8.288v5.498h.95v1.196h-.95v1.594h-1.348V72.23h-4.279v-.973l3.88-5.72zm-4.056 5.498h2.708v-4.056zm12.366-1.36q0 .95-.199 1.735a3.6 3.6 0 0 1-.598 1.325 2.74 2.74 0 0 1-1.008.856q-.61.305-1.442.305-.833 0-1.442-.293a2.8 2.8 0 0 1-1.008-.844 3.8 3.8 0 0 1-.598-1.302 6.7 6.7 0 0 1-.199-1.7q0-.96.187-1.758.188-.797.586-1.372a2.66 2.66 0 0 1 1.009-.879q.62-.315 1.465-.316.82 0 1.43.305.61.304 1.008.867.41.563.61 1.348.2.774.199 1.723m-5.146 0q0 .645.094 1.196t.316.961q.223.399.586.633.364.223.903.223.528 0 .891-.222.363-.235.586-.634a3.1 3.1 0 0 0 .317-.96q.093-.552.093-1.197a7 7 0 0 0-.093-1.184 3 3 0 0 0-.317-.96 1.73 1.73 0 0 0-.586-.646q-.363-.234-.891-.234-.538 0-.903.234a1.74 1.74 0 0 0-.586.645 3 3 0 0 0-.316.961 7 7 0 0 0-.094 1.184m7.2 4.244a.94.94 0 0 1-.586-.234q-.222-.223-.222-.598 0-.41.257-.621a.86.86 0 0 1 .575-.223h.07q.528.034.727.375.2.34.199.715v.117q0 .34-.129.668a2.7 2.7 0 0 1-.34.633q-.21.294-.48.504-.27.223-.563.317l-.352-.48q.282-.2.516-.505a1.8 1.8 0 0 0 .328-.668m8.736-4.244q0 .95-.199 1.735a3.6 3.6 0 0 1-.598 1.325 2.7 2.7 0 0 1-1.008.856q-.61.305-1.442.305t-1.442-.293a2.8 2.8 0 0 1-1.008-.844 3.8 3.8 0 0 1-.598-1.302 6.7 6.7 0 0 1-.199-1.7q0-.96.187-1.758.189-.797.587-1.372a2.65 2.65 0 0 1 1.008-.879q.62-.315 1.465-.316.82 0 1.43.305.61.304 1.009.867.41.563.609 1.348.2.774.199 1.723m-5.146 0q0 .645.094 1.196t.316.961q.223.399.587.633.363.223.902.223.528 0 .891-.222.363-.235.586-.634a3.1 3.1 0 0 0 .317-.96q.094-.552.094-1.197 0-.633-.094-1.184a3 3 0 0 0-.317-.96 1.73 1.73 0 0 0-.586-.646q-.363-.234-.891-.234-.539 0-.902.234a1.74 1.74 0 0 0-.587.645 3 3 0 0 0-.316.961 7 7 0 0 0-.094 1.184m12.734 0q0 .95-.199 1.735a3.6 3.6 0 0 1-.598 1.325 2.74 2.74 0 0 1-1.008.856q-.61.305-1.442.305-.833 0-1.442-.293a2.8 2.8 0 0 1-1.009-.844 3.8 3.8 0 0 1-.597-1.302 6.7 6.7 0 0 1-.2-1.7q0-.96.188-1.758.187-.797.586-1.372a2.66 2.66 0 0 1 1.008-.879q.621-.315 1.466-.316.82 0 1.43.305.609.304 1.008.867.41.563.61 1.348.199.774.199 1.723m-5.147 0q0 .645.094 1.196t.317.961q.222.399.586.633.363.223.903.223.526 0 .891-.222.363-.235.586-.634.222-.41.316-.96.094-.552.094-1.197a7 7 0 0 0-.094-1.184 3 3 0 0 0-.316-.96 1.74 1.74 0 0 0-.586-.646q-.365-.234-.891-.234-.54 0-.903.234a1.73 1.73 0 0 0-.586.645 3 3 0 0 0-.317.961 7 7 0 0 0-.094 1.184m12.734 0q0 .95-.199 1.735a3.6 3.6 0 0 1-.598 1.325 2.74 2.74 0 0 1-1.008.856q-.61.305-1.442.305-.833 0-1.442-.293a2.8 2.8 0 0 1-1.008-.844 3.8 3.8 0 0 1-.598-1.302 6.7 6.7 0 0 1-.199-1.7q0-.96.187-1.758.188-.797.586-1.372a2.66 2.66 0 0 1 1.009-.879q.62-.315 1.465-.316.82 0 1.43.305.61.304 1.008.867.41.563.61 1.348.2.774.199 1.723m-5.146 0q0 .645.094 1.196t.316.961q.223.399.586.633.364.223.903.223.528 0 .891-.222.363-.235.586-.634a3.1 3.1 0 0 0 .317-.96q.093-.552.093-1.197a7 7 0 0 0-.093-1.184 3 3 0 0 0-.317-.96 1.73 1.73 0 0 0-.586-.646q-.363-.234-.891-.234-.539 0-.903.234a1.74 1.74 0 0 0-.586.645 3 3 0 0 0-.316.961 7 7 0 0 0-.094 1.184"/><path fill="#82808E" d="m250.933 75.824-.46-1.247h-2.872l-.459 1.247h-.772l2.158-5.801h1.026l2.15 5.801zm-1.896-5.178-1.198 3.283h2.396zm3.38-.623h3.898v.648h-3.184v1.953h2.864v.657h-2.864v1.895h3.184v.648h-3.898zm4.927 0h2.06q.672 0 1.181.213.517.206.862.59.345.379.517.92.172.534.172 1.182a4 4 0 0 1-.18 1.181 2.5 2.5 0 0 1-.517.92 2.3 2.3 0 0 1-.845.59q-.51.205-1.19.205h-2.06zm.714.648v4.505h1.296q.444 0 .846-.131.41-.14.697-.484a1.9 1.9 0 0 0 .386-.714 3.3 3.3 0 0 0 .123-.92q0-.516-.123-.919a2 2 0 0 0-.369-.697 1.74 1.74 0 0 0-.624-.468 2.14 2.14 0 0 0-.895-.172z"/><path fill="#16C552" d="M294.147 73.824h-1.087v-5.102h-1.351v-.74q.554-.019.975-.179.423-.168.666-.61h.797zm2.925-2.476.497-.431q.282-.234.525-.488a2.5 2.5 0 0 0 .413-.562q.169-.3.169-.647 0-.507-.3-.816-.301-.31-.863-.31-.45 0-.76.207a.87.87 0 0 0-.384.553h-1.07q.038-.431.235-.77a1.8 1.8 0 0 1 .516-.553q.309-.215.675-.309.376-.103.853-.103.45 0 .844.122t.685.365q.3.245.469.62.178.364.178.862a2.4 2.4 0 0 1-.384 1.332 3.4 3.4 0 0 1-.413.525q-.225.244-.478.46-.337.29-.601.506l-.459.375-.375.31a7 7 0 0 0-.319.262h3.029v.966h-4.511v-.89zm4.265 2.551a.75.75 0 0 1-.469-.187.65.65 0 0 1-.178-.478q0-.33.206-.498a.7.7 0 0 1 .46-.178h.056q.422.03.582.3.159.273.159.572v.094q0 .272-.103.535-.104.272-.272.506-.17.235-.385.404a1.4 1.4 0 0 1-.45.253l-.281-.385q.225-.159.412-.403.188-.243.263-.535m1.99-2.991.357-3.714h3.995v.966h-3.086l-.187 1.725q.272-.177.581-.272.32-.102.76-.103.497 0 .9.15.403.141.694.413t.441.666q.159.394.159.89 0 .535-.187.957a2.05 2.05 0 0 1-.516.713 2.4 2.4 0 0 1-.769.45q-.441.15-.957.15-.441 0-.834-.103a2.3 2.3 0 0 1-.704-.319 1.9 1.9 0 0 1-.525-.553 2.2 2.2 0 0 1-.272-.816h1.079a1 1 0 0 0 .178.347q.13.15.3.253.168.104.366.16.196.047.394.047.28 0 .525-.066.243-.075.422-.225.187-.15.291-.375.103-.234.103-.563 0-.6-.357-.919-.346-.32-.919-.319a1.66 1.66 0 0 0-1.172.46zm6.98-.732q-.365 0-.647-.122a1.5 1.5 0 0 1-.469-.328 1.3 1.3 0 0 1-.281-.488 1.9 1.9 0 0 1-.094-.61q0-.674.375-1.106.384-.44 1.116-.44.713 0 1.088.44.385.432.385 1.107 0 .328-.104.61-.093.281-.281.487a1.4 1.4 0 0 1-.46.328q-.271.122-.628.122m-.722 3.648 4.164-6.63h1.069l-4.164 6.63zm.722-5.927q-.356 0-.497.225a.9.9 0 0 0-.141.507q0 .3.141.515t.497.216q.337 0 .469-.216a1 1 0 0 0 .131-.515.95.95 0 0 0-.131-.507q-.132-.225-.469-.225m3.845 6.03q-.366 0-.647-.121a1.5 1.5 0 0 1-.469-.329 1.3 1.3 0 0 1-.281-.487 1.9 1.9 0 0 1-.094-.61q0-.675.375-1.107.386-.44 1.116-.44.713 0 1.098.44.384.432.384 1.107 0 .328-.103.61-.094.281-.281.487a1.4 1.4 0 0 1-.469.329 1.5 1.5 0 0 1-.629.121m-.009-2.278q-.338 0-.488.215a.9.9 0 0 0-.14.516q0 .3.14.516.15.216.488.216.347 0 .478-.216a1 1 0 0 0 .131-.516q0-.15-.028-.281a.5.5 0 0 0-.103-.225.43.43 0 0 0-.187-.16.6.6 0 0 0-.291-.065"/><path stroke="#16C552" stroke-linecap="round" stroke-linejoin="round" stroke-width=".879" d="M325.117 69.24h2.084v2.084"/><path stroke="#16C552" stroke-linecap="round" stroke-linejoin="round" stroke-width=".879" d="m327.201 69.24-2.944 2.944a.26.26 0 0 1-.364 0l-1.199-1.198a.26.26 0 0 0-.365 0l-1.901 1.901"/><path stroke="#E3E6E8" stroke-width=".586" d="M187.568 88.203h140.676"/><path fill="#82808E" d="M187.626 97.567h.788l1.362 3.652 1.337-3.652h.796l-1.665 4.325h-.952zm6.352.575q-.147 0-.303.024a1 1 0 0 0-.296.082.65.65 0 0 0-.246.18.5.5 0 0 0-.107.313q0 .279.206.418.213.14.549.205.14.033.304.066.164.025.32.057a4 4 0 0 1 .55.124q.788.246.788 1.058-.008.394-.173.64a1.16 1.16 0 0 1-.402.378 1.7 1.7 0 0 1-.55.197 3.3 3.3 0 0 1-1.206 0 1.9 1.9 0 0 1-.558-.197 1.6 1.6 0 0 1-.427-.378 1.3 1.3 0 0 1-.221-.591h.706a.65.65 0 0 0 .205.312q.14.115.295.181a1.5 1.5 0 0 0 .632.115q.132 0 .304-.017.172-.016.328-.074a.7.7 0 0 0 .263-.188.5.5 0 0 0 .106-.345q0-.246-.164-.369a1.04 1.04 0 0 0-.435-.181 8 8 0 0 0-.41-.074l-.419-.082a9 9 0 0 1-.402-.106 1.8 1.8 0 0 1-.369-.173 1.06 1.06 0 0 1-.369-.377 1.13 1.13 0 0 1-.14-.583q.017-.36.164-.59a1.2 1.2 0 0 1 .378-.386q.246-.148.525-.206t.591-.057q.665 0 1.058.287.238.165.37.394.13.23.164.484h-.648a.62.62 0 0 0-.312-.385q-.255-.148-.649-.156m6.018 1.723.484-.41q.272-.23.501-.493.237-.262.402-.55.164-.294.172-.64.016-.525-.303-.804-.32-.287-.846-.287-.418 0-.73.172a.82.82 0 0 0-.41.5h-.763q.057-.335.238-.582.188-.255.451-.418.27-.165.591-.246.32-.082.656-.082.402 0 .739.114.336.107.582.32.247.214.378.534.14.312.139.714a2 2 0 0 1-.123.722q-.114.32-.32.59-.196.27-.451.51-.255.237-.525.476l-1.469 1.239h2.954v.648h-3.988v-.591zm3.729 2.043a.55.55 0 0 1-.345-.139.43.43 0 0 1-.131-.328.45.45 0 0 1 .148-.337.5.5 0 0 1 .336-.131.46.46 0 0 1 .378.172q.147.172.147.484 0 .172-.073.378a1.45 1.45 0 0 1-.452.689.9.9 0 0 1-.312.189l-.197-.271q.165-.115.304-.312.148-.196.197-.394m1.828-.016 2.347-5.145h-3.069v-.657h3.857v.591l-2.347 5.211zm6.961-5.802v3.997h.681v.648h-.681v1.157h-.714v-1.157h-3.151v-.534l2.839-4.11zm-3.003 3.997h2.289v-3.349zm8.902-1.092q0 .558-.115 1.092a2.8 2.8 0 0 1-.369.951 2 2 0 0 1-.698.665q-.435.255-1.083.255-.657 0-1.092-.255a2 2 0 0 1-.697-.665 2.8 2.8 0 0 1-.369-.935 5.5 5.5 0 0 1-.107-1.108q0-.59.107-1.108.106-.525.369-.935t.697-.665q.435-.262 1.092-.262.648 0 1.083.254.435.255.698.673t.369.952q.114.534.115 1.091m-3.8 0q0 .394.058.804.057.411.221.747.165.337.46.55.304.213.796.213.485 0 .779-.213.304-.213.468-.55.164-.336.222-.747.057-.41.057-.804 0-.385-.057-.796a2.5 2.5 0 0 0-.222-.747 1.4 1.4 0 0 0-.468-.558q-.294-.22-.779-.221-.492 0-.796.221-.295.215-.46.558a2.5 2.5 0 0 0-.221.747 6 6 0 0 0-.058.796m7.259-3.011q.198 0 .337.13a.42.42 0 0 1 .139.33.44.44 0 0 1-.139.335.47.47 0 0 1-.337.132.45.45 0 0 1-.336-.132.45.45 0 0 1-.132-.336q0-.205.132-.328a.45.45 0 0 1 .336-.131m-.344 5.908v-4.325h.697v4.325zm1.775 0v-4.325h.673l.033.657q.107-.18.263-.312.164-.131.353-.222.188-.09.393-.13.214-.042.411-.042.468 0 .788.156.32.147.508.418.189.263.271.632.082.36.082.78v2.388h-.697v-2.2q0-.303-.041-.582a1.4 1.4 0 0 0-.148-.492.85.85 0 0 0-.312-.353q-.205-.132-.55-.132-.336.008-.599.165a1.4 1.4 0 0 0-.41.369q-.19.27-.254.599a3.2 3.2 0 0 0-.066.648v1.978zm7.06-5.802h2.06q.673 0 1.182.214.517.204.861.59.345.378.517.92.173.533.173 1.181a4 4 0 0 1-.181 1.182 2.5 2.5 0 0 1-.517.919 2.3 2.3 0 0 1-.845.591q-.509.205-1.19.205h-2.06zm.714.648v4.506h1.297q.443 0 .845-.132a1.54 1.54 0 0 0 .698-.484q.262-.303.385-.714a3.3 3.3 0 0 0 .123-.919q0-.516-.123-.919a2 2 0 0 0-.369-.697 1.7 1.7 0 0 0-.624-.468 2.1 2.1 0 0 0-.894-.172zm6.752 4.588q.591 0 .861-.353.279-.362.279-1.001v-2.405h.698v2.438q0 .984-.476 1.46-.468.476-1.362.476t-1.362-.476q-.46-.476-.46-1.46v-2.438h.698v2.405q0 .64.279 1.001.278.353.845.353m2.84.566V96.09h.698v2.117q.213-.328.607-.508.402-.189.821-.18.492 0 .845.171.362.172.591.468.238.295.345.706.114.402.114.87t-.114.87a1.9 1.9 0 0 1-.345.689 1.7 1.7 0 0 1-.607.468 2.1 2.1 0 0 1-.862.18h-.09q-.444 0-.772-.156a1.55 1.55 0 0 1-.533-.418l-.033.525zm2.036-.566q.353 0 .59-.123.247-.132.394-.345.156-.221.222-.509.073-.287.082-.615 0-.329-.074-.616a1.4 1.4 0 0 0-.221-.508 1.1 1.1 0 0 0-.411-.337 1.26 1.26 0 0 0-.599-.131q-.197 0-.386.065a1.2 1.2 0 0 0-.336.18 1.4 1.4 0 0 0-.263.247 1.64 1.64 0 0 0-.311.698 2 2 0 0 0-.041.41q0 .213.024.443.033.222.131.41.148.312.452.526.303.204.747.205m5.682.016a1.2 1.2 0 0 1-.32.304q-.18.114-.377.18a2 2 0 0 1-.386.091 3 3 0 0 1-.377.024q-.304 0-.575-.074a1.5 1.5 0 0 1-.492-.238 1.3 1.3 0 0 1-.345-.41 1.2 1.2 0 0 1-.123-.558q0-.369.131-.615.14-.255.37-.41.23-.157.525-.214.303-.066.64-.066h1.272q0-.549-.238-.87-.238-.327-.804-.344a1.5 1.5 0 0 0-.607.115.65.65 0 0 0-.362.377h-.746a1.1 1.1 0 0 1 .229-.5 1.4 1.4 0 0 1 .411-.345 1.9 1.9 0 0 1 .517-.205q.279-.066.558-.066.484 0 .812.164.336.156.542.419.205.254.287.623.082.37.082.83v2.338h-.583zm-.82-1.403q-.197 0-.46.008a2.4 2.4 0 0 0-.492.05.72.72 0 0 0-.386.204.6.6 0 0 0-.139.411.64.64 0 0 0 .271.541.9.9 0 0 0 .295.132q.164.04.336.041.616 0 .969-.296.36-.303.369-.878v-.213zm2.845-3.955q.196 0 .336.13.14.124.14.33a.44.44 0 0 1-.14.335.47.47 0 0 1-.336.132.46.46 0 0 1-.337-.132.46.46 0 0 1-.131-.336.43.43 0 0 1 .131-.328.46.46 0 0 1 .337-.131m-.345 5.908v-4.325h.698v4.325zM274.343 97.567h.787l1.034 3.652 1.067-3.652h.944l1.075 3.652 1.017-3.652h.796l-1.345 4.325h-.952l-1.067-3.504-1.067 3.504h-.944zm9.189-.049q.516 0 .894.164.377.165.632.46.263.295.386.706.13.401.131.886 0 .484-.131.894a1.765 1.765 0 0 1-1.026 1.149 2.3 2.3 0 0 1-.903.164q-.517 0-.903-.164a1.9 1.9 0 0 1-.64-.451 2 2 0 0 1-.385-.698 3.1 3.1 0 0 1-.123-.894q0-.484.123-.886.131-.411.385-.706.263-.295.657-.46.393-.165.903-.164m-.017 3.808q.353 0 .607-.123.263-.123.427-.337a1.4 1.4 0 0 0 .246-.509q.082-.287.082-.623a2.2 2.2 0 0 0-.082-.616 1.3 1.3 0 0 0-.246-.508 1.1 1.1 0 0 0-.427-.345 1.4 1.4 0 0 0-.607-.123 1.4 1.4 0 0 0-.607.123q-.255.123-.427.344a1.5 1.5 0 0 0-.246.51 2.5 2.5 0 0 0-.074.615q0 .336.074.623.082.287.246.509.172.213.427.337.254.123.607.123m2.911.566v-4.325h.673l.033.673q.238-.377.607-.55.369-.171.837-.172h.222v.657h-.255q-.386 0-.656.13a1.16 1.16 0 0 0-.443.345q-.165.214-.247.51a2.6 2.6 0 0 0-.073.623v2.109zm4.442-3.75q-.148 0-.304.024a1 1 0 0 0-.295.082.65.65 0 0 0-.246.18.5.5 0 0 0-.107.313q0 .279.205.418.214.14.55.205.14.033.304.066.164.025.32.057a4 4 0 0 1 .549.124q.788.246.788 1.058-.008.394-.172.64a1.16 1.16 0 0 1-.402.378 1.7 1.7 0 0 1-.55.197 3.3 3.3 0 0 1-1.206 0 1.9 1.9 0 0 1-.558-.197 1.6 1.6 0 0 1-.427-.378 1.3 1.3 0 0 1-.222-.591h.706a.66.66 0 0 0 .205.312q.14.115.296.181a1.5 1.5 0 0 0 .632.115q.13 0 .303-.017.172-.016.328-.074a.7.7 0 0 0 .263-.188.5.5 0 0 0 .107-.345q0-.246-.164-.369a1.04 1.04 0 0 0-.435-.181 9 9 0 0 0-.411-.074l-.418-.082a8 8 0 0 1-.402-.106 1.7 1.7 0 0 1-.37-.173 1.06 1.06 0 0 1-.369-.377 1.13 1.13 0 0 1-.139-.583q.016-.36.164-.59.147-.24.377-.386.246-.148.525-.206t.591-.057q.664 0 1.059.287.238.165.369.394.132.23.164.484h-.648q-.057-.238-.312-.385-.254-.148-.648-.156m3.092 1.846q.025.287.115.533.098.239.262.419.165.18.402.287.247.099.567.099.156 0 .32-.025.172-.033.32-.098a1 1 0 0 0 .262-.189.74.74 0 0 0 .173-.279h.714q-.074.312-.255.541a1.5 1.5 0 0 1-.418.378 1.9 1.9 0 0 1-.534.221 2.7 2.7 0 0 1-.599.066q-.516 0-.902-.164a1.8 1.8 0 0 1-.632-.451 1.9 1.9 0 0 1-.378-.698 3.1 3.1 0 0 1-.123-.894q0-.484.131-.886.14-.411.394-.706.255-.295.624-.46a2.15 2.15 0 0 1 .878-.164q.518 0 .894.205.378.205.608.542.23.329.32.714a2.4 2.4 0 0 1 .074.861q0 .075-.009.148zm2.519-.607q-.017-.55-.345-.895-.327-.344-.878-.344-.303 0-.533.098a1.1 1.1 0 0 0-.386.271 1.3 1.3 0 0 0-.246.402q-.09.222-.115.468zm3.691 2.511V96.09h.697v2.117q.214-.328.608-.508.402-.189.82-.18.493 0 .846.171.36.172.59.468.238.295.345.706.115.402.115.87t-.115.87a1.9 1.9 0 0 1-.345.689 1.7 1.7 0 0 1-.607.468 2.1 2.1 0 0 1-.861.18h-.091a1.8 1.8 0 0 1-.771-.156 1.6 1.6 0 0 1-.534-.418l-.032.525zm2.035-.566q.353 0 .591-.123a1.1 1.1 0 0 0 .394-.345 1.4 1.4 0 0 0 .221-.509q.075-.287.082-.615 0-.329-.073-.616a1.35 1.35 0 0 0-.222-.508 1.1 1.1 0 0 0-.41-.337 1.26 1.26 0 0 0-.599-.131q-.198 0-.386.065a1.2 1.2 0 0 0-.336.18 1.4 1.4 0 0 0-.263.247 1.642 1.642 0 0 0-.312.697 2 2 0 0 0-.041.41q0 .215.025.444.033.222.131.41.147.312.451.526.304.204.747.205m6.635-3.759v4.325q0 .944-.493 1.436-.492.501-1.403.501a3.5 3.5 0 0 1-.993-.148 2.04 2.04 0 0 1-.804-.476l.304-.55q.32.255.681.402.369.148.771.148.336 0 .575-.107a.9.9 0 0 0 .385-.287q.156-.18.222-.435.074-.255.074-.55v-.517a1.3 1.3 0 0 1-.271.296q-.156.123-.345.205-.18.074-.394.107a2 2 0 0 1-.418.041q-.492-.009-.821-.156a1.34 1.34 0 0 1-.517-.411 1.7 1.7 0 0 1-.271-.623 3.8 3.8 0 0 1-.082-.813v-2.388h.698v2.191q0 .295.033.583.04.287.156.509a.9.9 0 0 0 .336.361q.222.13.591.131.369 0 .624-.156a1.1 1.1 0 0 0 .402-.394q.156-.246.205-.541.057-.296.057-.608v-2.076zm4.983 4.391q-.345 0-.698-.066a2.4 2.4 0 0 1-.648-.222 1.7 1.7 0 0 1-.509-.426 1.36 1.36 0 0 1-.263-.649h.739q.074.214.222.353.156.132.344.214.197.082.411.114.213.033.41.033.18 0 .41-.033.23-.032.427-.139a.87.87 0 0 0 .336-.312q.14-.213.14-.558 0-.328-.131-.525a.84.84 0 0 0-.329-.304 1.3 1.3 0 0 0-.451-.14 4 4 0 0 0-.501-.032h-.558v-.64h.337q.221 0 .41-.008.188-.017.419-.115a1.04 1.04 0 0 0 .418-.345.96.96 0 0 0 .164-.525q0-.295-.098-.484a.77.77 0 0 0-.263-.296.9.9 0 0 0-.369-.14 2 2 0 0 0-.419-.04q-.172 0-.361.04a1.3 1.3 0 0 0-.344.116 1 1 0 0 0-.279.221.73.73 0 0 0-.173.32h-.714q.05-.36.23-.615.181-.255.443-.419.272-.163.591-.238a3 3 0 0 1 1.354.009q.328.074.575.254.246.172.385.46.148.287.148.697 0 .156-.033.337-.033.172-.123.344t-.263.345q-.171.172-.451.287.55.107.837.484.287.369.287.895v.032q0 .452-.164.78a1.5 1.5 0 0 1-.435.533 1.9 1.9 0 0 1-.656.304q-.378.099-.804.099m7.44-2.963q0 .558-.115 1.092a2.8 2.8 0 0 1-.37.951 2 2 0 0 1-.697.665q-.435.255-1.083.255-.657 0-1.092-.255a2 2 0 0 1-.697-.665 2.8 2.8 0 0 1-.37-.935 5.5 5.5 0 0 1-.106-1.108q0-.59.106-1.108.108-.525.37-.935t.697-.665q.435-.262 1.092-.262.648 0 1.083.254.435.255.697.673.263.418.37.952.115.534.115 1.091m-3.8 0q0 .394.058.804.057.411.221.747.165.337.46.55.303.213.796.213.483 0 .779-.213.304-.213.468-.55.163-.336.222-.747.057-.41.057-.804 0-.385-.057-.796a2.5 2.5 0 0 0-.222-.747 1.4 1.4 0 0 0-.468-.558q-.296-.22-.779-.221-.493 0-.796.221-.295.215-.46.558a2.5 2.5 0 0 0-.221.747 6 6 0 0 0-.058.796m5.86-.402a1.3 1.3 0 0 1-.526-.098 1 1 0 0 1-.369-.271 1.4 1.4 0 0 1-.23-.41 1.7 1.7 0 0 1-.073-.51q0-.278.073-.508.083-.239.23-.41.156-.173.378-.263.221-.098.517-.098.574 0 .878.36.303.354.303.92 0 .27-.082.508-.074.23-.221.41a1 1 0 0 1-.37.272 1.2 1.2 0 0 1-.508.098m-.542 3.299 3.57-5.802h.722l-3.562 5.802zm.542-5.285q-.328 0-.468.213a.87.87 0 0 0-.14.485q0 .287.14.5.14.205.468.205.31 0 .443-.213a.93.93 0 0 0 .131-.492.9.9 0 0 0-.131-.485q-.132-.213-.443-.213m3.249 5.334q-.296 0-.525-.098a1.1 1.1 0 0 1-.377-.271 1.3 1.3 0 0 1-.23-.41 1.7 1.7 0 0 1-.074-.509q0-.28.074-.509.081-.238.238-.41.156-.173.377-.263.222-.099.517-.098.279 0 .501.098a.95.95 0 0 1 .369.263q.156.172.23.41.082.23.082.509 0 .27-.082.509-.074.23-.23.41a1 1 0 0 1-.369.271 1.2 1.2 0 0 1-.501.098m-.008-1.986q-.329 0-.468.214a.9.9 0 0 0-.131.484q0 .287.139.5.14.206.46.206t.443-.214a.9.9 0 0 0 .131-.492.9.9 0 0 0-.131-.484q-.123-.214-.443-.214"/></g><g filter="url(#d)"><rect width="159.432" height="83.203" x="9.379" y="128.338" fill="#fff" rx="6.673"/><path fill="#82808E" d="m23.403 146.716-.46-1.247H20.07l-.46 1.247h-.771l2.158-5.802h1.026l2.15 5.802zm-1.896-5.178-1.198 3.283h2.396zm2.475.854h.788l1.362 3.651 1.338-3.651h.796l-1.666 4.324h-.952zm5.352 2.42q.024.288.114.534.1.237.263.418.165.181.402.287.246.099.567.099.155 0 .32-.025.171-.032.32-.098a1 1 0 0 0 .262-.189.7.7 0 0 0 .172-.279h.714a1.4 1.4 0 0 1-.254.542 1.5 1.5 0 0 1-.418.377 1.8 1.8 0 0 1-.534.222 2.7 2.7 0 0 1-.599.065q-.517 0-.903-.164a1.8 1.8 0 0 1-.632-.451 1.9 1.9 0 0 1-.377-.698 3.1 3.1 0 0 1-.123-.894q0-.484.131-.886.14-.41.394-.706.255-.295.624-.46.37-.164.878-.164.518 0 .894.205.377.206.608.542.23.328.32.714a2.4 2.4 0 0 1 .073.862q0 .073-.008.147zm2.519-.607q-.017-.55-.345-.894-.328-.345-.878-.345-.303 0-.533.098a1.1 1.1 0 0 0-.386.271 1.3 1.3 0 0 0-.246.402q-.09.222-.115.468zm1.561 2.511v-4.324h.673l.033.672q.237-.376.607-.549.369-.173.837-.173h.222v.657h-.255q-.386 0-.656.131-.27.123-.443.345-.165.213-.247.509-.073.295-.073.623v2.109zm5.827-.55q-.14.189-.32.304a1.7 1.7 0 0 1-.378.181 2 2 0 0 1-.385.09 3 3 0 0 1-.378.024q-.303 0-.574-.073a1.5 1.5 0 0 1-.493-.238 1.3 1.3 0 0 1-.344-.411 1.2 1.2 0 0 1-.123-.558q0-.369.13-.615a1.15 1.15 0 0 1 .37-.41q.23-.156.525-.214.304-.066.64-.065h1.272q0-.55-.238-.87-.237-.328-.804-.345-.345 0-.607.115a.64.64 0 0 0-.361.377h-.747q.057-.295.23-.5a1.4 1.4 0 0 1 .41-.345q.238-.14.517-.205.279-.066.558-.066.484 0 .813.164.336.156.541.419.206.254.287.624.082.369.082.828v2.339h-.582zm-.82-1.403q-.198 0-.46.008-.255 0-.493.05a.7.7 0 0 0-.385.205.6.6 0 0 0-.14.41q0 .19.074.32a.7.7 0 0 0 .197.222q.131.09.295.131.165.04.337.041.615 0 .968-.295.36-.304.37-.879v-.213zm6.299 1.92q0 .92-.492 1.445-.493.525-1.486.525-.329 0-.632-.074a1.7 1.7 0 0 1-.541-.238 1.5 1.5 0 0 1-.41-.402 1.5 1.5 0 0 1-.23-.575h.722a.7.7 0 0 0 .164.312.9.9 0 0 0 .279.205q.156.082.336.115t.353.033q.33 0 .566-.107a.95.95 0 0 0 .386-.279q.148-.18.214-.434.073-.247.073-.542v-.599a1.22 1.22 0 0 1-.607.542 2.2 2.2 0 0 1-.82.155 2.1 2.1 0 0 1-.854-.172 1.6 1.6 0 0 1-.59-.468 2 2 0 0 1-.345-.689 3.4 3.4 0 0 1-.107-.87q0-.468.115-.87.114-.41.353-.705a1.65 1.65 0 0 1 .599-.476q.36-.173.861-.173.378 0 .764.14.385.14.631.451l.033-.541h.665zm-2.035-3.717q-.353 0-.6.131a1.1 1.1 0 0 0-.401.337 1.5 1.5 0 0 0-.222.509 2.8 2.8 0 0 0-.066.615q0 .361.066.64.066.271.222.484t.402.345q.246.123.607.123.419 0 .69-.197a1.547 1.547 0 0 0 .599-.935 2.5 2.5 0 0 0-.009-1.026 1.3 1.3 0 0 0-.189-.46 1.4 1.4 0 0 0-.434-.402 1.26 1.26 0 0 0-.665-.164m3.59 1.846q.025.288.115.534.099.237.263.418.163.181.402.287.245.099.566.099.155 0 .32-.025a1.5 1.5 0 0 0 .32-.098 1 1 0 0 0 .262-.189.7.7 0 0 0 .173-.279h.714a1.4 1.4 0 0 1-.255.542 1.5 1.5 0 0 1-.418.377 1.8 1.8 0 0 1-.534.222 2.7 2.7 0 0 1-.599.065q-.516 0-.902-.164a1.8 1.8 0 0 1-.632-.451 1.9 1.9 0 0 1-.378-.698 3.1 3.1 0 0 1-.123-.894q0-.484.132-.886.14-.41.393-.706.255-.295.624-.46.37-.164.878-.164.517 0 .895.205.377.206.607.542.23.328.32.714a2.4 2.4 0 0 1 .074.862q0 .073-.008.147zm2.52-.607q-.018-.55-.345-.894-.33-.345-.878-.345-.304 0-.534.098a1.1 1.1 0 0 0-.385.271 1.3 1.3 0 0 0-.247.402q-.09.222-.114.468zm3.69 4.07v-5.883h.665l.033.648q.22-.336.599-.509.385-.18.829-.189.5 0 .845.173.353.164.582.467.24.296.353.706.115.402.115.87 0 .476-.115.878a2 2 0 0 1-.353.698 1.7 1.7 0 0 1-.599.467 2.1 2.1 0 0 1-.861.164 2 2 0 0 1-.837-.155 1.4 1.4 0 0 1-.558-.435v2.1zm2.035-2.125q.352 0 .591-.123.246-.132.394-.345.156-.22.222-.509.073-.286.082-.615 0-.329-.074-.615a1.34 1.34 0 0 0-.222-.509 1.1 1.1 0 0 0-.41-.337 1.26 1.26 0 0 0-.6-.131q-.418 0-.721.23a1.4 1.4 0 0 0-.46.566q-.09.189-.123.394a2.5 2.5 0 0 0-.033.41q0 .246.033.46.033.205.123.394.157.312.451.525.305.205.747.205m2.836.566v-4.324h.672l.033.672q.238-.376.608-.549.369-.173.837-.173h.221v.657h-.254q-.386 0-.657.131-.27.123-.443.345-.164.213-.246.509-.074.295-.074.623v2.109zm3.38-5.908q.198 0 .337.131.14.124.14.328a.44.44 0 0 1-.14.337.48.48 0 0 1-.336.131.46.46 0 0 1-.337-.131.46.46 0 0 1-.13-.337q0-.204.13-.328a.46.46 0 0 1 .337-.131m-.344 5.908v-4.324h.698v4.324zm3.622.049q-.516 0-.894-.164a1.65 1.65 0 0 1-.624-.459 2 2 0 0 1-.369-.698 3 3 0 0 1-.123-.878q0-.459.131-.861a2 2 0 0 1 .386-.706 1.75 1.75 0 0 1 .64-.476q.385-.18.936-.181.328 0 .582.074.255.066.476.222.23.148.394.394.165.245.238.599h-.714q-.123-.361-.394-.517a1.15 1.15 0 0 0-.624-.148q-.353 0-.623.14a1.2 1.2 0 0 0-.427.352q-.155.222-.23.517-.074.288-.074.591 0 .32.074.607.082.288.238.509.165.213.419.345.255.123.607.123.172 0 .337-.033.171-.032.311-.107a.828.828 0 0 0 .41-.533h.723a1.5 1.5 0 0 1-.238.583 1.5 1.5 0 0 1-.41.402q-.247.156-.542.23a2.5 2.5 0 0 1-.616.073m3.15-1.953q.024.288.114.534.099.237.263.418t.402.287q.246.099.566.099.155 0 .32-.025.173-.032.32-.098a1 1 0 0 0 .263-.189.7.7 0 0 0 .172-.279h.714q-.075.312-.254.542a1.5 1.5 0 0 1-.419.377 1.8 1.8 0 0 1-.533.222 2.7 2.7 0 0 1-.6.065q-.516 0-.902-.164a1.8 1.8 0 0 1-.632-.451 1.9 1.9 0 0 1-.377-.698 3.1 3.1 0 0 1-.123-.894q0-.484.13-.886.14-.41.395-.706.254-.295.623-.46.37-.164.879-.164.516 0 .894.205.378.206.607.542.23.328.32.714a2.4 2.4 0 0 1 .074.862q0 .073-.008.147zm2.519-.607q-.017-.55-.345-.894-.328-.345-.878-.345-.304 0-.533.098a1.1 1.1 0 0 0-.386.271 1.3 1.3 0 0 0-.246.402q-.09.222-.115.468zm3.69 4.07v-5.883h.665l.033.648q.221-.336.6-.509.384-.18.828-.189.5 0 .845.173.353.164.583.467.237.296.353.706.114.402.114.87 0 .476-.114.878a2 2 0 0 1-.353.698 1.7 1.7 0 0 1-.6.467 2.1 2.1 0 0 1-.86.164 2 2 0 0 1-.838-.155 1.4 1.4 0 0 1-.558-.435v2.1zm2.036-2.125q.353 0 .59-.123.247-.132.394-.345.156-.22.222-.509a2.454 2.454 0 0 0 .008-1.23 1.34 1.34 0 0 0-.221-.509 1.1 1.1 0 0 0-.41-.337 1.26 1.26 0 0 0-.6-.131q-.419 0-.722.23a1.4 1.4 0 0 0-.46.566q-.09.189-.123.394a2.5 2.5 0 0 0-.032.41q0 .246.032.46.033.205.123.394.157.312.452.525.303.205.747.205m3.377-1.338q.024.288.114.534.1.237.263.418.164.181.402.287.246.099.566.099.156 0 .32-.025.173-.032.32-.098a1 1 0 0 0 .263-.189.7.7 0 0 0 .172-.279h.714a1.4 1.4 0 0 1-.254.542 1.5 1.5 0 0 1-.419.377 1.8 1.8 0 0 1-.533.222 2.7 2.7 0 0 1-.6.065q-.516 0-.902-.164a1.8 1.8 0 0 1-.632-.451 1.9 1.9 0 0 1-.377-.698 3.1 3.1 0 0 1-.123-.894q0-.484.131-.886.14-.41.394-.706.254-.295.624-.46.368-.164.878-.164.516 0 .894.205.378.206.607.542.23.328.32.714a2.4 2.4 0 0 1 .074.862q0 .073-.008.147zm2.519-.607q-.017-.55-.345-.894-.328-.345-.878-.345-.303 0-.533.098a1.1 1.1 0 0 0-.386.271 1.3 1.3 0 0 0-.246.402q-.09.222-.115.468zm1.561 2.511v-4.324h.673l.033.672q.237-.376.607-.549.369-.173.837-.173h.221v.657h-.254q-.386 0-.656.131-.27.123-.444.345-.163.213-.246.509-.073.295-.073.623v2.109zm6.652-3.75q-.148 0-.304.025a1 1 0 0 0-.295.082.65.65 0 0 0-.247.18.5.5 0 0 0-.106.312q0 .28.205.419.213.14.55.205.14.032.303.065.164.025.32.058a3.6 3.6 0 0 1 .55.123q.788.246.788 1.058-.008.394-.172.641a1.16 1.16 0 0 1-.403.377 1.7 1.7 0 0 1-.55.197 3.3 3.3 0 0 1-1.206 0 1.9 1.9 0 0 1-.558-.197 1.6 1.6 0 0 1-.426-.377 1.3 1.3 0 0 1-.222-.591h.706a.67.67 0 0 0 .205.312q.14.114.295.18a1.5 1.5 0 0 0 .632.115q.132 0 .304-.016.172-.017.328-.074a.7.7 0 0 0 .263-.189.5.5 0 0 0 .106-.345q0-.246-.164-.369a1.04 1.04 0 0 0-.435-.181 9 9 0 0 0-.41-.073l-.418-.082a9 9 0 0 1-.403-.107 1.8 1.8 0 0 1-.369-.172 1.06 1.06 0 0 1-.37-.378 1.14 1.14 0 0 1-.139-.583q.017-.36.164-.59.148-.239.378-.386.247-.148.525-.205.279-.058.591-.058.665 0 1.059.288.237.163.369.393.13.23.164.485h-.648a.6.6 0 0 0-.312-.386q-.255-.149-.648-.156m6.407 5.309h-.698v-2.207a1.22 1.22 0 0 1-.607.542 2.2 2.2 0 0 1-.82.155 2.1 2.1 0 0 1-.854-.172 1.6 1.6 0 0 1-.59-.468 2 2 0 0 1-.345-.689 3.4 3.4 0 0 1-.107-.87q0-.468.115-.87.114-.41.353-.705a1.65 1.65 0 0 1 .599-.476q.36-.173.861-.173.377 0 .764.14.385.14.631.451l.033-.541h.665zm-2.035-5.309q-.353 0-.6.131a1.1 1.1 0 0 0-.401.337 1.5 1.5 0 0 0-.222.509 2.8 2.8 0 0 0-.066.615q0 .361.066.64.066.271.222.484t.402.345q.246.123.607.123.418 0 .69-.197a1.547 1.547 0 0 0 .599-.935q.048-.239.048-.485 0-.295-.057-.541a1.3 1.3 0 0 0-.189-.46 1.4 1.4 0 0 0-.435-.402 1.26 1.26 0 0 0-.664-.164m3.754-.057q.206-.288.5-.427.304-.14.674-.14.45.008.73.197t.418.501q.222-.329.542-.509a1.5 1.5 0 0 1 .771-.189q.354 0 .608.123.254.115.41.329.156.204.23.484.074.279.074.607v2.831h-.698v-2.478q0-.213-.025-.435a1.2 1.2 0 0 0-.098-.41.7.7 0 0 0-.246-.304q-.164-.123-.443-.123a.8.8 0 0 0-.46.131.9.9 0 0 0-.303.329 1.6 1.6 0 0 0-.156.451q-.05.246-.05.484v2.355h-.697v-2.486q0-.205-.016-.427a1.2 1.2 0 0 0-.099-.41.67.67 0 0 0-.23-.304q-.156-.123-.435-.123a.87.87 0 0 0-.492.131q-.189.132-.312.337-.114.206-.164.459a3 3 0 0 0-.041.476v2.347h-.698v-4.324h.673z"/><g clip-path="url(#e)"><path stroke="#82808E" stroke-linecap="round" stroke-linejoin="round" stroke-miterlimit="10" stroke-width=".586" d="M154.744 142.216h.003m-.003 3.001v-1.876m3.751.375a3.751 3.751 0 1 1-7.502 0 3.751 3.751 0 0 1 7.502 0"/></g><path fill="#03030A" d="m21.534 168 .622-.54q.351-.292.656-.609.316-.328.516-.703.21-.376.211-.809 0-.633-.375-1.02t-1.079-.387q-.562 0-.95.258a1.08 1.08 0 0 0-.48.691H19.32q.047-.539.293-.961.258-.422.645-.692a2.6 2.6 0 0 1 .844-.386 4 4 0 0 1 1.067-.129q.562 0 1.055.152.492.153.855.457.376.305.586.774.223.457.223 1.079 0 .492-.129.902a3.2 3.2 0 0 1-.351.762q-.223.352-.516.657a7 7 0 0 1-.598.574q-.422.363-.75.633l-.575.469-.469.387q-.21.164-.398.328h3.786v1.208h-5.639v-1.114zm5.332 3.188a.94.94 0 0 1-.586-.234q-.223-.223-.223-.598 0-.41.258-.621a.86.86 0 0 1 .574-.223h.07q.529.035.727.375.2.34.2.715v.117q0 .34-.13.669-.127.339-.34.633-.21.292-.48.504-.27.222-.563.316l-.351-.48q.281-.2.516-.504.234-.305.328-.669m2.628-.093 3.2-7.069H28.58v-1.22h5.65v1.056l-3.224 7.233zm10.19-8.289v5.499h.95v1.195h-.95v1.595h-1.348V169.5h-4.279v-.973l3.88-5.721zm-4.056 5.499h2.708v-4.057zm12.367-1.36q0 .95-.2 1.735a3.6 3.6 0 0 1-.597 1.324 2.7 2.7 0 0 1-1.009.856q-.61.305-1.441.305-.833 0-1.442-.293a2.8 2.8 0 0 1-1.009-.844 3.8 3.8 0 0 1-.597-1.301 6.7 6.7 0 0 1-.2-1.7q0-.961.188-1.759a4 4 0 0 1 .586-1.371 2.67 2.67 0 0 1 1.008-.88q.621-.316 1.466-.316.82 0 1.43.305.609.304 1.008.867.41.563.61 1.348.198.774.199 1.724m-5.147 0q0 .645.094 1.195.094.551.317.962.222.398.586.633.363.222.903.222.527 0 .89-.222.364-.236.587-.633.222-.41.316-.962.094-.55.094-1.195a7 7 0 0 0-.094-1.184 3 3 0 0 0-.316-.962 1.73 1.73 0 0 0-.587-.644q-.363-.235-.89-.235-.54 0-.903.235a1.73 1.73 0 0 0-.586.644 3 3 0 0 0-.317.962 7 7 0 0 0-.094 1.184m7.2 4.243a.94.94 0 0 1-.585-.234q-.223-.223-.223-.598 0-.41.258-.621a.86.86 0 0 1 .574-.223h.07q.529.035.727.375.2.34.2.715v.117q0 .34-.13.669-.127.339-.34.633-.21.292-.48.504-.27.222-.562.316l-.352-.48q.281-.2.516-.504.234-.305.328-.669m8.737-4.243q0 .95-.2 1.735a3.6 3.6 0 0 1-.597 1.324 2.7 2.7 0 0 1-1.008.856q-.61.305-1.442.305-.833 0-1.442-.293a2.8 2.8 0 0 1-1.008-.844 3.8 3.8 0 0 1-.598-1.301 6.7 6.7 0 0 1-.2-1.7q0-.961.188-1.759.187-.797.586-1.371a2.67 2.67 0 0 1 1.008-.88q.621-.316 1.466-.316.82 0 1.43.305.609.304 1.008.867.41.563.61 1.348.2.774.199 1.724m-5.146 0q0 .645.093 1.195.094.551.317.962.223.398.586.633.363.222.903.222.527 0 .89-.222a1.8 1.8 0 0 0 .587-.633q.222-.41.316-.962.094-.55.094-1.195a7 7 0 0 0-.094-1.184 3 3 0 0 0-.316-.962 1.73 1.73 0 0 0-.586-.644q-.364-.235-.891-.235-.54 0-.903.235a1.73 1.73 0 0 0-.586.644 3 3 0 0 0-.317.962 7 7 0 0 0-.093 1.184m12.733 0q0 .95-.199 1.735a3.6 3.6 0 0 1-.598 1.324 2.7 2.7 0 0 1-1.008.856q-.61.305-1.442.305t-1.442-.293a2.8 2.8 0 0 1-1.008-.844 3.8 3.8 0 0 1-.598-1.301 6.7 6.7 0 0 1-.2-1.7q0-.961.188-1.759a4 4 0 0 1 .587-1.371 2.67 2.67 0 0 1 1.008-.88q.62-.316 1.465-.316.82 0 1.43.305.61.304 1.008.867.41.563.61 1.348.2.774.2 1.724m-5.146 0q0 .645.094 1.195.093.551.316.962.223.398.586.633.364.222.903.222.528 0 .891-.222a1.8 1.8 0 0 0 .586-.633q.223-.41.317-.962.093-.55.094-1.195a7 7 0 0 0-.094-1.184 3 3 0 0 0-.317-.962 1.73 1.73 0 0 0-.586-.644q-.364-.235-.89-.235-.54 0-.904.235a1.73 1.73 0 0 0-.586.644 3 3 0 0 0-.316.962 7 7 0 0 0-.094 1.184m12.734 0q0 .95-.2 1.735a3.6 3.6 0 0 1-.597 1.324 2.7 2.7 0 0 1-1.009.856q-.61.305-1.441.305-.833 0-1.442-.293a2.8 2.8 0 0 1-1.009-.844 3.8 3.8 0 0 1-.597-1.301 6.7 6.7 0 0 1-.2-1.7q0-.961.188-1.759a4 4 0 0 1 .586-1.371 2.67 2.67 0 0 1 1.008-.88q.621-.316 1.466-.316.82 0 1.43.305.609.304 1.008.867.41.563.61 1.348.198.774.199 1.724m-5.147 0q0 .645.094 1.195.094.551.317.962.222.398.586.633.363.222.903.222.527 0 .89-.222.364-.236.587-.633.222-.41.316-.962.094-.55.094-1.195a7 7 0 0 0-.094-1.184 3 3 0 0 0-.316-.962 1.73 1.73 0 0 0-.587-.644q-.363-.235-.89-.235-.54 0-.903.235a1.73 1.73 0 0 0-.586.644 3 3 0 0 0-.317.962 7 7 0 0 0-.094 1.184"/><path fill="#82808E" d="m82.122 173.095-.46-1.248H78.79l-.459 1.248h-.771l2.158-5.802h1.026l2.15 5.802zm-1.895-5.178-1.199 3.282h2.397zm3.38-.624h3.898v.648H84.32v1.953h2.864v.657H84.32v1.895h3.184v.649h-3.898zm4.926 0h2.06q.674 0 1.182.213.517.206.861.591.346.378.517.919.173.534.173 1.182a4 4 0 0 1-.18 1.182 2.5 2.5 0 0 1-.518.919 2.3 2.3 0 0 1-.845.59q-.51.206-1.19.206h-2.06zm.714.648v4.505h1.297q.443 0 .845-.131.41-.14.698-.484.262-.304.385-.714.123-.418.123-.919 0-.517-.123-.919a2 2 0 0 0-.369-.698 1.7 1.7 0 0 0-.624-.467 2.1 2.1 0 0 0-.894-.173z"/><path fill="#16C552" d="M125.337 171.095h-1.088v-5.102h-1.35v-.741q.553-.02.975-.178.422-.17.666-.61h.797zm2.924-2.476q.225-.197.497-.432.282-.235.526-.487.252-.263.412-.563.17-.3.169-.647 0-.507-.3-.816-.3-.31-.863-.31-.45 0-.759.207a.86.86 0 0 0-.385.553h-1.069a1.8 1.8 0 0 1 .234-.769q.207-.337.516-.553t.675-.31q.375-.103.854-.103.45 0 .844.122.394.121.685.366.3.244.468.619.179.365.179.863 0 .393-.104.722a2.5 2.5 0 0 1-.281.609 3.3 3.3 0 0 1-.413.525q-.225.244-.478.46a30 30 0 0 1-.6.506l-1.154.948h3.03v.966h-4.511v-.891zm4.266 2.551a.75.75 0 0 1-.469-.188.65.65 0 0 1-.179-.478q0-.329.207-.497a.68.68 0 0 1 .459-.178h.057q.422.027.581.3t.159.572v.093q0 .273-.103.535-.103.272-.272.506-.168.235-.384.404a1.4 1.4 0 0 1-.45.253l-.282-.385q.225-.159.413-.403a1.5 1.5 0 0 0 .263-.534m1.99-2.992.356-3.714h3.995v.966h-3.085l-.188 1.726q.272-.179.582-.272.318-.103.759-.103.498 0 .901.15.403.14.694.412.29.273.44.666.16.395.16.891 0 .534-.188.957a2.04 2.04 0 0 1-.516.712 2.4 2.4 0 0 1-.769.451q-.44.15-.956.15-.44 0-.835-.104a2.3 2.3 0 0 1-.703-.318 1.9 1.9 0 0 1-.525-.554 2.1 2.1 0 0 1-.272-.816h1.078a1 1 0 0 0 .178.347q.132.15.3.254.17.102.366.159.197.047.394.047.282 0 .525-.066.244-.075.422-.225.188-.15.291-.375.103-.234.103-.563 0-.6-.356-.919-.348-.319-.919-.319-.357 0-.647.122a1.8 1.8 0 0 0-.526.338zm6.98-.732q-.366 0-.648-.122a1.5 1.5 0 0 1-.468-.328 1.3 1.3 0 0 1-.282-.487 2 2 0 0 1-.094-.61q0-.675.376-1.107.384-.44 1.116-.44.712 0 1.087.44.385.432.385 1.107 0 .328-.103.61-.094.281-.282.487a1.4 1.4 0 0 1-.459.328 1.5 1.5 0 0 1-.628.122m-.723 3.649 4.164-6.631h1.07l-4.164 6.631zm.723-5.928q-.357 0-.497.226a.9.9 0 0 0-.141.506q0 .3.141.516t.497.215q.337 0 .468-.215a1 1 0 0 0 .132-.516.95.95 0 0 0-.132-.506q-.13-.226-.468-.226m3.845 6.031q-.366 0-.647-.122a1.5 1.5 0 0 1-.469-.328 1.4 1.4 0 0 1-.282-.488 2 2 0 0 1-.093-.61q0-.675.375-1.106.384-.441 1.116-.441.713 0 1.097.441.384.43.384 1.106 0 .328-.103.61-.093.28-.281.488a1.35 1.35 0 0 1-.469.328 1.5 1.5 0 0 1-.628.122m-.01-2.279q-.337 0-.487.216a.9.9 0 0 0-.141.515q0 .3.141.516.15.216.487.216.347 0 .479-.216a1 1 0 0 0 .131-.516q0-.15-.028-.281a.5.5 0 0 0-.103-.225.44.44 0 0 0-.188-.16.6.6 0 0 0-.291-.065"/><path stroke="#16C552" stroke-linecap="round" stroke-linejoin="round" stroke-width=".879" d="M156.307 166.51h2.084v2.085"/><path stroke="#16C552" stroke-linecap="round" stroke-linejoin="round" stroke-width=".879" d="m158.39 166.51-2.943 2.944a.26.26 0 0 1-.365 0l-1.198-1.198a.26.26 0 0 0-.365 0l-1.902 1.902"/></g><g filter="url(#f)"><rect width="159.432" height="83.203" x="178.189" y="128.338" fill="#fff" rx="6.673"/><path fill="#82808E" d="M188.282 140.914h2.011q.96 0 1.501.476.543.468.542 1.453 0 .5-.18.878-.173.378-.485.624a2 2 0 0 1-.656.336 3 3 0 0 1-.87.123h-1.149v1.912h-.714zm1.83 3.242q.313 0 .607-.074.296-.082.485-.254.188-.165.295-.402a1.5 1.5 0 0 0 .107-.616q0-1.247-1.346-1.247h-1.264v2.593zm3.093 2.56v-4.324h.673l.033.672q.238-.376.607-.549t.837-.173h.222v.657h-.255q-.386 0-.656.131a1.14 1.14 0 0 0-.443.345q-.165.213-.247.509a2.6 2.6 0 0 0-.074.623v2.109zm3.381-5.908q.198 0 .337.131a.42.42 0 0 1 .139.328.44.44 0 0 1-.139.337.48.48 0 0 1-.337.131.46.46 0 0 1-.336-.131.46.46 0 0 1-.131-.337q0-.204.131-.328a.46.46 0 0 1 .336-.131m-.344 5.908v-4.324h.697v4.324zm3.622.049q-.517 0-.895-.164a1.65 1.65 0 0 1-.623-.459 2 2 0 0 1-.37-.698 3 3 0 0 1-.123-.878q0-.459.132-.861a2 2 0 0 1 .385-.706q.255-.304.64-.476.385-.18.936-.181.328 0 .582.074.255.066.476.222.23.148.394.394.165.245.238.599h-.714q-.123-.361-.394-.517a1.15 1.15 0 0 0-.623-.148q-.352 0-.624.14a1.2 1.2 0 0 0-.427.352q-.156.222-.229.517-.075.288-.074.591 0 .32.074.607.082.288.238.509.164.213.418.345.255.123.607.123.172 0 .337-.033.172-.032.312-.107a.833.833 0 0 0 .41-.533h.722a1.5 1.5 0 0 1-.238.583 1.5 1.5 0 0 1-.41.402q-.246.156-.542.23a2.5 2.5 0 0 1-.615.073m3.149-1.953q.024.288.115.534.098.237.262.418.165.181.402.287.246.099.567.099.155 0 .32-.025.171-.032.32-.098a1 1 0 0 0 .262-.189.7.7 0 0 0 .173-.279h.713a1.4 1.4 0 0 1-.254.542 1.5 1.5 0 0 1-.418.377 1.9 1.9 0 0 1-.534.222 2.7 2.7 0 0 1-.599.065q-.517 0-.903-.164a1.8 1.8 0 0 1-.631-.451 1.9 1.9 0 0 1-.378-.698 3.1 3.1 0 0 1-.123-.894q0-.484.131-.886.14-.41.394-.706.255-.295.624-.46.37-.164.878-.164.518 0 .894.205.377.206.608.542.229.328.32.714a2.4 2.4 0 0 1 .074.862q0 .073-.009.147zm2.519-.607q-.016-.55-.345-.894-.327-.345-.878-.345-.303 0-.533.098a1.1 1.1 0 0 0-.386.271 1.3 1.3 0 0 0-.246.402q-.09.222-.115.468zm3.691 2.511v-4.324h.673l.033.672q.237-.376.607-.549.369-.173.837-.173h.221v.657h-.254q-.386 0-.656.131a1.16 1.16 0 0 0-.444.345 1.5 1.5 0 0 0-.246.509 2.6 2.6 0 0 0-.074.623v2.109zm5.827-.55a1.2 1.2 0 0 1-.32.304 1.7 1.7 0 0 1-.378.181 2 2 0 0 1-.386.09 3 3 0 0 1-.377.024q-.304 0-.575-.073a1.5 1.5 0 0 1-.492-.238 1.3 1.3 0 0 1-.345-.411 1.2 1.2 0 0 1-.123-.558q0-.369.132-.615a1.15 1.15 0 0 1 .369-.41q.23-.156.525-.214.304-.066.64-.065h1.272q0-.55-.238-.87-.239-.328-.804-.345-.345 0-.607.115a.64.64 0 0 0-.361.377h-.747a1.1 1.1 0 0 1 .23-.5q.172-.213.41-.345.238-.14.517-.205.279-.066.558-.066.485 0 .812.164.337.156.542.419.205.254.287.624.082.369.082.828v2.339h-.582zm-.821-1.403q-.197 0-.46.008-.254 0-.492.05a.7.7 0 0 0-.386.205.6.6 0 0 0-.139.41.63.63 0 0 0 .271.542q.131.09.295.131a1.4 1.4 0 0 0 .337.041q.615 0 .968-.295.362-.304.369-.879v-.213zm2.443 1.953v-4.324h.673l.033.656q.106-.18.262-.312.165-.13.353-.221.189-.09.394-.132a2 2 0 0 1 .41-.041q.468 0 .788.156.32.148.509.419.189.262.271.632.082.36.082.779v2.388h-.698v-2.199q0-.303-.041-.583a1.4 1.4 0 0 0-.148-.492.85.85 0 0 0-.311-.353q-.206-.13-.55-.131-.337.008-.599.164-.255.156-.411.369-.188.271-.254.599-.066.32-.066.649v1.977zm8.623-.033q0 .92-.492 1.445-.493.525-1.486.525a2.7 2.7 0 0 1-.632-.074 1.7 1.7 0 0 1-.541-.238 1.5 1.5 0 0 1-.411-.402 1.5 1.5 0 0 1-.229-.575h.722q.049.189.164.312a.9.9 0 0 0 .279.205q.156.082.336.115t.353.033q.328 0 .567-.107a.95.95 0 0 0 .385-.279q.148-.18.214-.434.073-.247.073-.542v-.599a1.22 1.22 0 0 1-.607.542 2.2 2.2 0 0 1-.82.155 2.1 2.1 0 0 1-.854-.172 1.6 1.6 0 0 1-.591-.468 2 2 0 0 1-.344-.689 3.4 3.4 0 0 1-.107-.87q0-.468.115-.87.114-.41.353-.705.237-.304.599-.476a2 2 0 0 1 .861-.173q.378 0 .764.14.385.14.631.451l.033-.541h.665zm-2.035-3.717q-.353 0-.599.131a1.1 1.1 0 0 0-.402.337 1.5 1.5 0 0 0-.222.509 2.7 2.7 0 0 0-.066.615q0 .361.066.64.066.271.222.484t.402.345q.246.123.607.123.419 0 .689-.197a1.5 1.5 0 0 0 .435-.492q.116-.206.164-.443a2.5 2.5 0 0 0-.008-1.026 1.3 1.3 0 0 0-.189-.46 1.4 1.4 0 0 0-.434-.402 1.27 1.27 0 0 0-.665-.164m3.59 1.846q.025.288.115.534.099.237.263.418.163.181.402.287.246.099.566.099.156 0 .32-.025a1.4 1.4 0 0 0 .32-.098q.147-.073.263-.189a.7.7 0 0 0 .172-.279h.714a1.4 1.4 0 0 1-.255.542 1.4 1.4 0 0 1-.418.377 1.9 1.9 0 0 1-.533.222 2.7 2.7 0 0 1-.6.065 2.3 2.3 0 0 1-.902-.164 1.8 1.8 0 0 1-.632-.451 1.9 1.9 0 0 1-.378-.698 3.1 3.1 0 0 1-.123-.894q0-.484.132-.886.14-.41.394-.706.254-.295.623-.46.37-.164.878-.164.517 0 .895.205.377.206.607.542.23.328.32.714a2.4 2.4 0 0 1 .074.862q0 .073-.008.147zm2.519-.607q-.016-.55-.344-.894-.329-.345-.878-.345-.304 0-.534.098a1.1 1.1 0 0 0-.385.271 1.3 1.3 0 0 0-.247.402 1.7 1.7 0 0 0-.114.468z"/><g clip-path="url(#g)"><path stroke="#82808E" stroke-linecap="round" stroke-linejoin="round" stroke-miterlimit="10" stroke-width=".586" d="M323.554 142.216h.003m-.003 3.001v-1.876m3.751.375a3.75 3.75 0 1 1-7.501.001 3.75 3.75 0 0 1 7.501-.001"/></g><path fill="#03030A" d="m190.497 168 .621-.54q.353-.292.657-.609.317-.328.516-.703.21-.376.211-.809 0-.633-.376-1.02-.375-.387-1.078-.387-.563 0-.95.258a1.08 1.08 0 0 0-.48.691h-1.337q.048-.539.293-.961.258-.422.645-.692t.844-.386a4 4 0 0 1 1.067-.129q.563 0 1.055.152.493.153.856.457.375.305.586.774.223.457.223 1.079a3 3 0 0 1-.481 1.664 4 4 0 0 1-.516.657 7 7 0 0 1-.598.574q-.421.363-.75.633l-1.043.856a9 9 0 0 0-.399.328h3.787v1.208h-5.639v-1.114zm5.331 3.188a.94.94 0 0 1-.586-.234q-.223-.223-.223-.598 0-.41.258-.621a.86.86 0 0 1 .575-.223h.07q.528.035.727.375.2.34.199.715v.117q0 .34-.129.669a2.8 2.8 0 0 1-.34.633q-.21.292-.48.504-.27.222-.563.316l-.352-.48q.282-.2.516-.504a1.8 1.8 0 0 0 .328-.669m2.629-.093 3.2-7.069h-4.115v-1.22h5.651v1.056l-3.224 7.233zm10.19-8.289v5.499h.95v1.195h-.95v1.595h-1.348V169.5h-4.279v-.973l3.88-5.721zm-4.056 5.499h2.708v-4.057zm12.366-1.36q0 .95-.199 1.735a3.6 3.6 0 0 1-.598 1.324 2.73 2.73 0 0 1-1.008.856q-.61.305-1.442.305t-1.442-.293a2.8 2.8 0 0 1-1.008-.844 3.8 3.8 0 0 1-.598-1.301 6.7 6.7 0 0 1-.199-1.7q0-.961.187-1.759.188-.797.586-1.371a2.67 2.67 0 0 1 1.009-.88q.62-.316 1.465-.316.82 0 1.43.305.61.304 1.008.867.41.563.61 1.348.2.774.199 1.724m-5.146 0q0 .645.094 1.195.094.551.316.962.223.398.586.633.364.222.903.222.528 0 .891-.222.363-.236.586-.633.223-.41.317-.962.093-.55.093-1.195 0-.633-.093-1.184a3 3 0 0 0-.317-.962 1.73 1.73 0 0 0-.586-.644q-.363-.235-.891-.235-.538 0-.903.235a1.74 1.74 0 0 0-.586.644 3 3 0 0 0-.316.962 7 7 0 0 0-.094 1.184m7.2 4.243a.94.94 0 0 1-.586-.234q-.222-.223-.222-.598 0-.41.257-.621a.86.86 0 0 1 .575-.223h.07q.528.035.727.375.2.34.199.715v.117q0 .34-.129.669a2.8 2.8 0 0 1-.34.633q-.21.292-.48.504-.27.222-.563.316l-.352-.48q.282-.2.516-.504.235-.305.328-.669m8.736-4.243q0 .95-.199 1.735a3.6 3.6 0 0 1-.598 1.324 2.7 2.7 0 0 1-1.008.856q-.61.305-1.442.305t-1.442-.293a2.8 2.8 0 0 1-1.008-.844 3.8 3.8 0 0 1-.598-1.301 6.7 6.7 0 0 1-.199-1.7q0-.961.188-1.759.187-.797.586-1.371a2.66 2.66 0 0 1 1.008-.88q.621-.316 1.465-.316.82 0 1.43.305.61.304 1.009.867.41.563.609 1.348.2.774.199 1.724m-5.146 0q0 .645.094 1.195.094.551.316.962.223.398.587.633.363.222.902.222.528 0 .891-.222.363-.236.586-.633.223-.41.317-.962.094-.55.094-1.195 0-.633-.094-1.184a3 3 0 0 0-.317-.962 1.73 1.73 0 0 0-.586-.644q-.363-.235-.891-.235-.539 0-.902.235a1.73 1.73 0 0 0-.587.644 3 3 0 0 0-.316.962 7 7 0 0 0-.094 1.184m12.734 0q0 .95-.199 1.735a3.6 3.6 0 0 1-.598 1.324 2.73 2.73 0 0 1-1.008.856q-.61.305-1.442.305-.833 0-1.442-.293a2.8 2.8 0 0 1-1.008-.844 3.8 3.8 0 0 1-.598-1.301 6.7 6.7 0 0 1-.2-1.7q0-.961.188-1.759.187-.797.586-1.371a2.7 2.7 0 0 1 1.008-.88q.621-.316 1.466-.316.82 0 1.43.305a2.7 2.7 0 0 1 1.008.867q.41.563.61 1.348a7 7 0 0 1 .199 1.724m-5.146 0q0 .645.093 1.195.094.551.317.962.222.398.586.633.363.222.903.222.527 0 .891-.222.363-.236.586-.633.223-.41.316-.962.094-.55.094-1.195 0-.633-.094-1.184a3 3 0 0 0-.316-.962 1.74 1.74 0 0 0-.586-.644q-.364-.235-.891-.235-.54 0-.903.235a1.73 1.73 0 0 0-.586.644 3 3 0 0 0-.317.962 7 7 0 0 0-.093 1.184m12.733 0q0 .95-.199 1.735a3.6 3.6 0 0 1-.598 1.324 2.73 2.73 0 0 1-1.008.856q-.61.305-1.442.305t-1.442-.293a2.8 2.8 0 0 1-1.008-.844 3.8 3.8 0 0 1-.598-1.301 6.7 6.7 0 0 1-.199-1.7q0-.961.187-1.759.188-.797.587-1.371a2.66 2.66 0 0 1 1.008-.88q.62-.316 1.465-.316.82 0 1.43.305.61.304 1.008.867.41.563.61 1.348.2.774.199 1.724m-5.146 0q0 .645.094 1.195.094.551.316.962.223.398.586.633.365.222.903.222.528 0 .891-.222.363-.236.586-.633.223-.41.317-.962.093-.55.093-1.195 0-.633-.093-1.184a3 3 0 0 0-.317-.962 1.73 1.73 0 0 0-.586-.644q-.363-.235-.891-.235-.538 0-.903.235a1.74 1.74 0 0 0-.586.644 3 3 0 0 0-.316.962 7 7 0 0 0-.094 1.184m9.481.222h3.74v1.149h-3.74zm10.053.833.621-.54q.353-.292.657-.609.317-.328.516-.703.21-.376.211-.809 0-.633-.375-1.02t-1.079-.387q-.563 0-.949.258a1.08 1.08 0 0 0-.481.691h-1.336q.046-.539.293-.961.258-.422.644-.692.387-.269.844-.386a4 4 0 0 1 1.067-.129q.563 0 1.055.152.493.153.856.457.375.305.586.774.223.457.223 1.079a3 3 0 0 1-.481 1.664 4 4 0 0 1-.516.657 7 7 0 0 1-.597.574 47 47 0 0 1-1.325 1.102l-.469.387a9 9 0 0 0-.399.328h3.787v1.208h-5.639v-1.114zm5.332 3.188a.94.94 0 0 1-.587-.234q-.222-.223-.222-.598 0-.41.258-.621a.85.85 0 0 1 .574-.223h.07q.528.035.727.375.2.34.199.715v.117q0 .34-.129.669a2.8 2.8 0 0 1-.339.633 2.5 2.5 0 0 1-.481.504q-.27.222-.563.316l-.352-.48q.282-.2.516-.504.235-.305.329-.669m2.628-.093 3.2-7.069h-4.115v-1.22h5.651v1.056l-3.224 7.233zm10.19-8.289v5.499h.95v1.195h-.95v1.595h-1.348V169.5h-4.279v-.973l3.881-5.721zm-4.056 5.499h2.708v-4.057zm12.366-1.36q0 .95-.199 1.735a3.6 3.6 0 0 1-.598 1.324 2.7 2.7 0 0 1-1.008.856q-.61.305-1.442.305t-1.442-.293a2.8 2.8 0 0 1-1.008-.844 3.8 3.8 0 0 1-.598-1.301 6.7 6.7 0 0 1-.199-1.7q0-.961.188-1.759.187-.797.586-1.371a2.66 2.66 0 0 1 1.008-.88q.62-.316 1.465-.316.82 0 1.43.305.61.304 1.009.867.41.563.609 1.348.2.774.199 1.724m-5.146 0q0 .645.094 1.195.094.551.316.962.223.398.587.633.363.222.902.222.528 0 .891-.222.364-.236.586-.633.223-.41.317-.962.093-.55.094-1.195 0-.633-.094-1.184a3 3 0 0 0-.317-.962 1.73 1.73 0 0 0-.586-.644q-.363-.235-.891-.235-.539 0-.902.235a1.73 1.73 0 0 0-.587.644 3 3 0 0 0-.316.962 7 7 0 0 0-.094 1.184m7.201 4.243a.94.94 0 0 1-.587-.234q-.222-.223-.222-.598 0-.41.258-.621a.85.85 0 0 1 .574-.223h.07q.528.035.727.375.2.34.2.715v.117q0 .34-.129.669-.13.339-.34.633a2.5 2.5 0 0 1-.481.504q-.27.222-.563.316l-.351-.48q.28-.2.515-.504.235-.305.329-.669m8.736-4.243q0 .95-.2 1.735a3.6 3.6 0 0 1-.598 1.324 2.7 2.7 0 0 1-1.008.856q-.61.305-1.442.305t-1.442-.293a2.8 2.8 0 0 1-1.008-.844 3.8 3.8 0 0 1-.598-1.301 6.8 6.8 0 0 1-.199-1.7q0-.961.188-1.759.187-.797.586-1.371a2.7 2.7 0 0 1 1.008-.88q.622-.316 1.465-.316.82 0 1.431.305a2.7 2.7 0 0 1 1.008.867q.41.563.609 1.348.2.774.2 1.724m-5.147 0q0 .645.094 1.195.094.551.317.962.222.398.586.633.363.222.902.222.528 0 .891-.222a1.76 1.76 0 0 0 .586-.633q.223-.41.317-.962.094-.55.094-1.195 0-.633-.094-1.184a3 3 0 0 0-.317-.962 1.7 1.7 0 0 0-.586-.644q-.363-.235-.891-.235-.539 0-.902.235a1.7 1.7 0 0 0-.586.644 3 3 0 0 0-.317.962 7 7 0 0 0-.094 1.184m12.734 0q0 .95-.199 1.735a3.6 3.6 0 0 1-.598 1.324 2.73 2.73 0 0 1-1.008.856q-.61.305-1.442.305-.833 0-1.442-.293a2.8 2.8 0 0 1-1.008-.844 3.8 3.8 0 0 1-.598-1.301 6.7 6.7 0 0 1-.199-1.7q0-.961.187-1.759.188-.797.586-1.371a2.7 2.7 0 0 1 1.008-.88q.622-.316 1.466-.316.82 0 1.43.305a2.7 2.7 0 0 1 1.008.867q.41.563.61 1.348.2.774.199 1.724m-5.146 0q0 .645.093 1.195.094.551.317.962.223.398.586.633.363.222.903.222.526 0 .891-.222.363-.236.586-.633.223-.41.316-.962.094-.55.094-1.195 0-.633-.094-1.184a3 3 0 0 0-.316-.962 1.74 1.74 0 0 0-.586-.644q-.364-.235-.891-.235-.54 0-.903.235a1.73 1.73 0 0 0-.586.644 3 3 0 0 0-.317.962 7 7 0 0 0-.093 1.184m12.733 0q0 .95-.199 1.735a3.6 3.6 0 0 1-.598 1.324 2.7 2.7 0 0 1-1.008.856q-.61.305-1.442.305t-1.442-.293a2.8 2.8 0 0 1-1.008-.844 3.8 3.8 0 0 1-.598-1.301 6.7 6.7 0 0 1-.199-1.7q0-.961.188-1.759.187-.797.586-1.371a2.66 2.66 0 0 1 1.008-.88q.622-.316 1.465-.316.82 0 1.43.305.61.304 1.009.867.41.563.609 1.348.2.774.199 1.724m-5.146 0q0 .645.094 1.195.094.551.316.962.223.398.587.633.363.222.902.222.528 0 .891-.222.363-.236.586-.633.223-.41.317-.962.094-.55.094-1.195 0-.633-.094-1.184a3 3 0 0 0-.317-.962 1.73 1.73 0 0 0-.586-.644q-.363-.235-.891-.235-.539 0-.902.235a1.73 1.73 0 0 0-.587.644 3 3 0 0 0-.316.962 7 7 0 0 0-.094 1.184"/><path fill="#82808E" d="m317.933 173.095-.46-1.248h-2.872l-.459 1.248h-.772l2.158-5.802h1.026l2.15 5.802zm-1.896-5.178-1.198 3.282h2.396zm3.38-.624h3.898v.648h-3.184v1.953h2.864v.657h-2.864v1.895h3.184v.649h-3.898zm4.927 0h2.06q.672 0 1.181.213.517.206.862.591.345.378.517.919.172.534.172 1.182a4 4 0 0 1-.18 1.182 2.5 2.5 0 0 1-.517.919 2.3 2.3 0 0 1-.845.59q-.51.206-1.19.206h-2.06zm.714.648v4.505h1.296q.444 0 .846-.131.41-.14.697-.484.263-.304.386-.714.123-.418.123-.919a3.1 3.1 0 0 0-.123-.919 2 2 0 0 0-.369-.698 1.7 1.7 0 0 0-.624-.467 2.1 2.1 0 0 0-.895-.173z"/></g><defs><filter id="a" width="167.432" height="91.203" x="5.379" y="28.068" color-interpolation-filters="sRGB" filterUnits="userSpaceOnUse"><feFlood flood-opacity="0" result="BackgroundImageFix"/><feColorMatrix in="SourceAlpha" result="hardAlpha" values="0 0 0 0 0 0 0 0 0 0 0 0 0 0 0 0 0 0 127 0"/><feOffset dy="1"/><feGaussianBlur stdDeviation="2"/><feComposite in2="hardAlpha" operator="out"/><feColorMatrix values="0 0 0 0 0 0 0 0 0 0 0 0 0 0 0 0 0 0 0.04 0"/><feBlend in2="BackgroundImageFix" result="effect1_dropShadow_968_37062"/><feBlend in="SourceGraphic" in2="effect1_dropShadow_968_37062" result="shape"/></filter><filter id="c" width="167.432" height="91.203" x="174.189" y="28.068" color-interpolation-filters="sRGB" filterUnits="userSpaceOnUse"><feFlood flood-opacity="0" result="BackgroundImageFix"/><feColorMatrix in="SourceAlpha" result="hardAlpha" values="0 0 0 0 0 0 0 0 0 0 0 0 0 0 0 0 0 0 127 0"/><feOffset dy="1"/><feGaussianBlur stdDeviation="2"/><feComposite in2="hardAlpha" operator="out"/><feColorMatrix values="0 0 0 0 0 0 0 0 0 0 0 0 0 0 0 0 0 0 0.04 0"/><feBlend in2="BackgroundImageFix" result="effect1_dropShadow_968_37062"/><feBlend in="SourceGraphic" in2="effect1_dropShadow_968_37062" result="shape"/></filter><filter id="d" width="167.432" height="91.203" x="5.379" y="125.338" color-interpolation-filters="sRGB" filterUnits="userSpaceOnUse"><feFlood flood-opacity="0" result="BackgroundImageFix"/><feColorMatrix in="SourceAlpha" result="hardAlpha" values="0 0 0 0 0 0 0 0 0 0 0 0 0 0 0 0 0 0 127 0"/><feOffset dy="1"/><feGaussianBlur stdDeviation="2"/><feComposite in2="hardAlpha" operator="out"/><feColorMatrix values="0 0 0 0 0 0 0 0 0 0 0 0 0 0 0 0 0 0 0.04 0"/><feBlend in2="BackgroundImageFix" result="effect1_dropShadow_968_37062"/><feBlend in="SourceGraphic" in2="effect1_dropShadow_968_37062" result="shape"/></filter><filter id="f" width="167.432" height="91.203" x="174.189" y="125.338" color-interpolation-filters="sRGB" filterUnits="userSpaceOnUse"><feFlood flood-opacity="0" result="BackgroundImageFix"/><feColorMatrix in="SourceAlpha" result="hardAlpha" values="0 0 0 0 0 0 0 0 0 0 0 0 0 0 0 0 0 0 127 0"/><feOffset dy="1"/><feGaussianBlur stdDeviation="2"/><feComposite in2="hardAlpha" operator="out"/><feColorMatrix values="0 0 0 0 0 0 0 0 0 0 0 0 0 0 0 0 0 0 0.04 0"/><feBlend in2="BackgroundImageFix" result="effect1_dropShadow_968_37062"/><feBlend in="SourceGraphic" in2="effect1_dropShadow_968_37062" result="shape"/></filter><clipPath id="b"><path fill="#fff" d="M150.055 41.757h9.378v9.378h-9.378z"/></clipPath><clipPath id="e"><path fill="#fff" d="M150.055 139.027h9.378v9.378h-9.378z"/></clipPath><clipPath id="g"><path fill="#fff" d="M318.865 139.027h9.378v9.378h-9.378z"/></clipPath></defs></svg>