<svg xmlns="http://www.w3.org/2000/svg" width="346" height="171" fill="none"><rect width="344.085" height="219.033" x=".664" y=".664" stroke="#000" stroke-opacity=".11" stroke-width="1.329" rx="8.336"/><path fill="#03030A" d="M10.293 13.085h3.022q.712 0 1.272.164.572.15.969.49.408.338.618.875.222.525.222 1.272 0 .688-.233 1.225a2.35 2.35 0 0 1-.642.899 2.7 2.7 0 0 1-.98.548 4.1 4.1 0 0 1-1.273.187h-1.622v2.59h-1.353zm2.906 4.47q.781 0 1.295-.386.525-.396.548-1.225 0-.874-.455-1.26-.444-.385-1.307-.385h-1.633v3.256zm4.322 3.78v-6.15h1.249l.07.876q.711-.98 1.937-.98.117 0 .221.011a2 2 0 0 1 .21.012v1.237a3 3 0 0 0-.28.012h-.256q-.514.011-.864.186a1.6 1.6 0 0 0-.56.444 1.8 1.8 0 0 0-.303.665 3.3 3.3 0 0 0-.094.805v2.883zm5.189-8.705a.83.83 0 0 1 .595.222q.245.222.245.607a.76.76 0 0 1-.245.595.83.83 0 0 1-.595.221q-.385 0-.619-.221-.233-.222-.233-.595 0-.386.233-.607.234-.222.619-.222m-.677 8.705v-6.15h1.33v6.15zm5.46.082q-.746 0-1.295-.222a2.6 2.6 0 0 1-.922-.641 2.9 2.9 0 0 1-.548-.992 4.5 4.5 0 0 1-.175-1.284q0-.7.186-1.283.199-.585.584-1.004.386-.42.933-.665.549-.245 1.272-.245 1.062 0 1.763.49.7.478.886 1.528h-1.365a.98.98 0 0 0-.455-.618q-.35-.21-.852-.21a1.6 1.6 0 0 0-.758.163q-.316.164-.514.444-.199.28-.292.653a3.4 3.4 0 0 0 .012 1.529q.093.361.292.63.198.256.513.42.315.152.759.152.525 0 .863-.233.351-.234.444-.619H30.2q-.094.526-.35.91a2.1 2.1 0 0 1-.607.63q-.362.245-.805.362-.444.105-.946.105m4.826-2.707q.023.339.14.63.117.292.315.514.21.21.502.338.303.128.7.128.42 0 .77-.151a.97.97 0 0 0 .514-.526h1.365q-.117.467-.385.806a2.2 2.2 0 0 1-.619.56q-.35.21-.782.315a4 4 0 0 1-.898.093q-.735 0-1.295-.222a2.4 2.4 0 0 1-.922-.641 2.8 2.8 0 0 1-.56-.992 4.5 4.5 0 0 1-.175-1.307q0-.7.198-1.272.198-.584.572-1.004.385-.42.922-.653a2.9 2.9 0 0 1 1.225-.245q.723 0 1.249.245.524.233.875.642.361.408.537.956.174.55.175 1.19 0 .304-.035.596zm3.127-1.004q-.023-.7-.443-1.085t-1.085-.385a1.7 1.7 0 0 0-.654.117 1.5 1.5 0 0 0-.478.315 1.6 1.6 0 0 0-.304.466q-.117.27-.151.572z"/><path stroke="#82808E" stroke-linecap="round" stroke-linejoin="round" stroke-width="1.167" d="m332.577 19.586-3.501-3.5-3.5 3.5"/><g filter="url(#a)"><rect width="158.703" height="83.01" x="9.336" y="31.003" fill="#fff" rx="6.643"/><path fill="#82808E" d="m23.295 49.339-.457-1.242h-2.86l-.457 1.242h-.767l2.148-5.775h1.021l2.14 5.775zm-1.887-5.155-1.192 3.268H22.6zm2.464.85h.785l1.355 3.635 1.332-3.635h.792l-1.658 4.305h-.947zm5.327 2.41q.025.285.115.53.098.238.261.417.163.18.4.286.246.098.564.098.155 0 .319-.024.171-.033.318-.098a1 1 0 0 0 .262-.188.7.7 0 0 0 .171-.278h.71q-.073.31-.253.54a1.45 1.45 0 0 1-.416.375 1.9 1.9 0 0 1-.531.22 2.7 2.7 0 0 1-.596.066q-.515 0-.899-.164a1.8 1.8 0 0 1-.629-.449 1.9 1.9 0 0 1-.376-.694 3 3 0 0 1-.122-.89q0-.483.13-.883.14-.408.393-.702a1.74 1.74 0 0 1 .62-.458 2.1 2.1 0 0 1 .875-.163q.515 0 .89.204.376.204.604.54.23.326.319.71a2.4 2.4 0 0 1 .073.858q0 .073-.008.147zm2.508-.605q-.015-.547-.343-.89t-.874-.343a1.3 1.3 0 0 0-.531.098q-.228.097-.384.27a1.3 1.3 0 0 0-.245.4q-.09.22-.114.465zm1.554 2.5v-4.305h.67l.033.67q.236-.375.604-.548.368-.171.833-.171h.22v.653h-.252q-.384 0-.654.131-.27.123-.441.343-.163.212-.245.507a2.6 2.6 0 0 0-.074.62v2.1zm5.8-.547a1.2 1.2 0 0 1-.318.302q-.18.114-.376.18a2 2 0 0 1-.384.09q-.187.024-.376.024a2.2 2.2 0 0 1-.572-.074 1.5 1.5 0 0 1-.49-.237 1.25 1.25 0 0 1-.343-.408 1.2 1.2 0 0 1-.122-.555q0-.369.13-.613.139-.253.368-.409t.523-.212q.302-.065.637-.065h1.266q0-.548-.237-.866-.237-.327-.8-.343-.344 0-.605.114a.64.64 0 0 0-.36.376h-.743a1.1 1.1 0 0 1 .23-.498q.17-.213.408-.343.236-.14.514-.205.277-.065.556-.065.48 0 .808.163.335.156.54.417.203.254.285.62.082.368.082.826v2.328h-.58zm-.817-1.397q-.196 0-.457.008-.253 0-.49.049a.7.7 0 0 0-.384.204.6.6 0 0 0-.139.408.64.64 0 0 0 .073.319.7.7 0 0 0 .197.22q.13.09.294.131.162.04.334.041.613 0 .964-.294.36-.302.368-.874v-.212zm6.271 1.911q0 .916-.49 1.438-.49.523-1.478.523-.327 0-.63-.074a1.7 1.7 0 0 1-.538-.237 1.5 1.5 0 0 1-.409-.4 1.5 1.5 0 0 1-.229-.572h.72a.7.7 0 0 0 .163.31.9.9 0 0 0 .277.205q.156.081.335.114t.351.033q.327 0 .564-.107a.96.96 0 0 0 .384-.277q.147-.18.212-.433.075-.244.074-.54v-.596q-.213.375-.605.54a2.2 2.2 0 0 1-.816.155 2.1 2.1 0 0 1-.85-.172 1.6 1.6 0 0 1-.588-.465 2 2 0 0 1-.343-.687 3.4 3.4 0 0 1-.106-.865q0-.466.114-.866.114-.41.351-.703.237-.302.596-.474.36-.171.858-.171.376 0 .76.139.383.138.629.449l.033-.54h.661zm-2.026-3.7q-.35 0-.596.13a1.1 1.1 0 0 0-.4.335q-.147.212-.22.507-.066.286-.066.612 0 .36.065.638.066.27.22.481.156.213.401.344.245.122.605.122.416 0 .686-.196.27-.195.433-.49.114-.204.163-.441a2.5 2.5 0 0 0-.008-1.021 1.3 1.3 0 0 0-.188-.458 1.4 1.4 0 0 0-.433-.4q-.27-.163-.662-.163m3.574 1.838q.025.285.115.53.097.238.261.417.163.18.4.286.246.098.564.098.155 0 .319-.024.171-.033.318-.098a1 1 0 0 0 .261-.188.7.7 0 0 0 .172-.278h.71a1.4 1.4 0 0 1-.252.54 1.5 1.5 0 0 1-.417.375 1.9 1.9 0 0 1-.531.22 2.7 2.7 0 0 1-.596.066q-.515 0-.899-.164a1.8 1.8 0 0 1-.629-.449 1.9 1.9 0 0 1-.376-.694 3 3 0 0 1-.122-.89q0-.483.13-.883.14-.408.393-.702a1.74 1.74 0 0 1 .62-.458 2.1 2.1 0 0 1 .874-.163q.515 0 .89.204.377.204.605.54.23.326.319.71a2.4 2.4 0 0 1 .073.858q0 .073-.008.147zm2.508-.605q-.016-.547-.343-.89-.328-.343-.874-.343a1.3 1.3 0 0 0-.531.098q-.229.097-.384.27a1.3 1.3 0 0 0-.245.4q-.09.22-.114.465zm3.674 4.052v-5.857h.662l.032.645q.22-.335.597-.506.383-.18.825-.188.498 0 .841.171.352.165.58.466.237.294.351.703.115.4.115.865 0 .475-.115.874a1.9 1.9 0 0 1-.351.695 1.7 1.7 0 0 1-.596.465 2.1 2.1 0 0 1-.858.164q-.49 0-.833-.155a1.4 1.4 0 0 1-.556-.433v2.09zm2.026-2.116q.351 0 .588-.122.245-.131.392-.343.156-.221.22-.507.075-.285.082-.613 0-.326-.073-.612a1.3 1.3 0 0 0-.22-.507 1.1 1.1 0 0 0-.41-.335 1.25 1.25 0 0 0-.596-.13q-.416 0-.718.228a1.4 1.4 0 0 0-.458.564q-.09.188-.122.392a2.5 2.5 0 0 0-.033.409q0 .244.033.457.032.204.122.392.155.31.45.523.302.204.743.204m2.822.564v-4.305h.67l.033.67q.237-.375.604-.548.368-.171.833-.171h.22v.653h-.252q-.384 0-.654.131-.27.123-.44.343-.164.212-.246.507a2.6 2.6 0 0 0-.073.62v2.1zm3.366-5.882q.195 0 .335.131.14.122.139.327a.44.44 0 0 1-.139.335.47.47 0 0 1-.335.13.45.45 0 0 1-.335-.13.45.45 0 0 1-.13-.335q0-.204.13-.327a.45.45 0 0 1 .335-.13m-.343 5.882v-4.305h.694v4.305zm3.606.049q-.515 0-.89-.164a1.65 1.65 0 0 1-.622-.457 2 2 0 0 1-.367-.694 3 3 0 0 1-.123-.874q0-.457.131-.858.13-.408.384-.703.253-.302.637-.473.384-.18.931-.18.327 0 .58.073.253.065.474.221.229.147.392.392t.237.596h-.71q-.123-.359-.393-.514a1.14 1.14 0 0 0-.62-.147q-.353 0-.621.139a1.2 1.2 0 0 0-.425.35q-.156.222-.229.515-.073.286-.073.589 0 .318.073.604.082.286.237.507.163.211.417.343.252.122.604.122.171 0 .335-.033.172-.032.31-.106a.831.831 0 0 0 .408-.53h.72a1.5 1.5 0 0 1-.237.58 1.5 1.5 0 0 1-.409.4q-.245.155-.539.228-.294.075-.612.074m3.134-1.944q.025.285.115.53.098.238.26.417.164.18.401.286.245.098.564.098.155 0 .318-.024.171-.033.319-.098a1 1 0 0 0 .261-.188.7.7 0 0 0 .172-.278h.71a1.4 1.4 0 0 1-.253.54 1.5 1.5 0 0 1-.416.375 1.9 1.9 0 0 1-.531.22 2.7 2.7 0 0 1-.597.066q-.514 0-.898-.164a1.8 1.8 0 0 1-.63-.449 1.9 1.9 0 0 1-.375-.694 3 3 0 0 1-.122-.89q0-.483.13-.883.14-.408.392-.702a1.74 1.74 0 0 1 .621-.458 2.1 2.1 0 0 1 .874-.163q.515 0 .89.204.377.204.605.54.23.326.319.71a2.4 2.4 0 0 1 .073.858q0 .073-.008.147zm2.508-.605q-.016-.547-.343-.89-.328-.343-.874-.343a1.3 1.3 0 0 0-.531.098q-.229.097-.384.27a1.3 1.3 0 0 0-.245.4q-.09.22-.114.465z"/><g clip-path="url(#b)"><path stroke="#82808E" stroke-linecap="round" stroke-linejoin="round" stroke-miterlimit="10" stroke-width=".583" d="M154.037 44.845h.003m-.003 2.987v-1.867m3.734.374a3.734 3.734 0 1 1-7.468 0 3.734 3.734 0 0 1 7.468 0"/></g><path fill="#03030A" d="M21.564 70.594q.28-.246.618-.537.351-.292.654-.607a3.1 3.1 0 0 0 .513-.7q.21-.375.21-.805 0-.63-.373-1.016-.374-.385-1.074-.385-.56 0-.945.257-.385.256-.478.689h-1.33q.046-.537.291-.957.257-.42.642-.689.386-.268.84-.385a4 4 0 0 1 1.062-.128q.56 0 1.05.151.49.153.852.455.374.305.584.77.22.456.221 1.074a3 3 0 0 1-.478 1.657 4 4 0 0 1-.514.654 7 7 0 0 1-.595.572q-.42.36-.747.63a320 320 0 0 0-1.435 1.178h3.77v1.202h-5.614v-1.108zm5.307 3.174a.94.94 0 0 1-.584-.234q-.22-.222-.221-.595 0-.408.256-.618a.85.85 0 0 1 .572-.222h.07q.525.035.724.373.198.339.198.712v.117q0 .338-.128.665a2.7 2.7 0 0 1-.339.63q-.21.292-.478.502a1.7 1.7 0 0 1-.56.315l-.35-.478q.28-.2.513-.502.234-.304.327-.665m2.616-.094 3.186-7.036h-4.096v-1.214h5.625v1.05l-3.21 7.2zm10.144-8.25v5.473h.945v1.19h-.945v1.587h-1.342v-1.587h-4.26v-.968l3.863-5.695zm-4.038 5.473h2.696v-4.038zm12.31-1.354q0 .945-.198 1.727a3.6 3.6 0 0 1-.595 1.319q-.398.549-1.004.852-.607.303-1.435.303t-1.436-.291a2.8 2.8 0 0 1-1.003-.84 3.8 3.8 0 0 1-.595-1.296 6.7 6.7 0 0 1-.199-1.692q0-.957.187-1.75.186-.795.584-1.366a2.65 2.65 0 0 1 1.003-.875q.619-.315 1.459-.315.816 0 1.423.303.608.304 1.004.864.408.56.607 1.342.198.77.198 1.715m-5.123 0q0 .642.094 1.19.093.549.315.957.222.397.583.63.361.222.899.222.525 0 .887-.221.36-.234.583-.63.222-.41.315-.957.093-.55.093-1.19 0-.63-.093-1.18a3 3 0 0 0-.315-.956 1.7 1.7 0 0 0-.583-.642q-.363-.234-.887-.233-.537 0-.899.233-.361.233-.583.642a3 3 0 0 0-.315.957 7 7 0 0 0-.094 1.178m7.168 4.225a.94.94 0 0 1-.584-.234q-.22-.222-.221-.595 0-.408.257-.618a.85.85 0 0 1 .571-.222h.07q.526.035.724.373.198.339.198.712v.117q0 .338-.128.665a2.7 2.7 0 0 1-.339.63q-.21.292-.478.502a1.7 1.7 0 0 1-.56.315l-.35-.478q.28-.2.513-.502.234-.304.327-.665m8.696-4.225q0 .945-.198 1.727a3.6 3.6 0 0 1-.596 1.319q-.397.549-1.003.852-.607.303-1.435.303t-1.436-.291a2.8 2.8 0 0 1-1.003-.84 3.8 3.8 0 0 1-.596-1.296 6.7 6.7 0 0 1-.198-1.692q0-.957.187-1.75.187-.795.583-1.366a2.65 2.65 0 0 1 1.004-.875q.618-.315 1.459-.315.816 0 1.423.303.608.304 1.004.864.408.56.607 1.342.198.77.198 1.715m-5.123 0q0 .642.093 1.19.094.549.316.957.221.397.583.63.361.222.899.222.525 0 .886-.221.362-.234.584-.63.222-.41.315-.957.093-.55.093-1.19 0-.63-.093-1.18a3 3 0 0 0-.315-.956 1.7 1.7 0 0 0-.584-.642q-.36-.234-.886-.233-.537 0-.899.233t-.584.642a3 3 0 0 0-.315.957 7 7 0 0 0-.093 1.178m12.676 0q0 .945-.199 1.727a3.6 3.6 0 0 1-.595 1.319q-.397.549-1.003.852-.607.303-1.436.303-.828 0-1.435-.291a2.8 2.8 0 0 1-1.004-.84 3.8 3.8 0 0 1-.595-1.296 6.7 6.7 0 0 1-.198-1.692q0-.957.187-1.75a4 4 0 0 1 .583-1.366q.397-.572 1.004-.875.618-.315 1.458-.315.818 0 1.424.303.606.304 1.003.864.41.56.607 1.342.2.77.199 1.715m-5.123 0q0 .642.093 1.19.093.549.315.957.222.397.584.63.36.222.898.222.525 0 .887-.221.362-.234.584-.63.22-.41.315-.957.093-.55.093-1.19 0-.63-.093-1.18a3 3 0 0 0-.315-.956 1.7 1.7 0 0 0-.584-.642q-.362-.234-.887-.233-.537 0-.898.233-.362.233-.584.642a3 3 0 0 0-.315.957 7 7 0 0 0-.093 1.178m12.675 0q0 .945-.198 1.727a3.6 3.6 0 0 1-.595 1.319q-.398.549-1.004.852t-1.435.303q-.828 0-1.435-.291a2.8 2.8 0 0 1-1.004-.84 3.8 3.8 0 0 1-.595-1.296 6.7 6.7 0 0 1-.198-1.692q0-.957.186-1.75.188-.795.584-1.366a2.65 2.65 0 0 1 1.003-.875q.62-.315 1.459-.315.818 0 1.424.303.606.304 1.003.864.409.56.607 1.342.198.77.198 1.715m-5.122 0q0 .642.093 1.19.093.549.315.957.221.397.584.63.36.222.898.222.525 0 .887-.221.362-.234.583-.63.222-.41.315-.957.094-.55.094-1.19 0-.63-.094-1.18a3 3 0 0 0-.315-.956 1.7 1.7 0 0 0-.583-.642q-.362-.234-.887-.233-.537 0-.898.233-.363.233-.584.642a3 3 0 0 0-.315.957 7 7 0 0 0-.093 1.178"/><path fill="#82808E" d="m82.042 75.674-.457-1.241h-2.859l-.457 1.241H77.5l2.148-5.775h1.021l2.14 5.775zm-1.886-5.154-1.193 3.267h2.385zm3.364-.62h3.88v.644h-3.17v1.945h2.852v.653H84.23v1.887h3.17v.645h-3.88zm4.904 0h2.05q.671 0 1.177.211.515.205.858.589.343.375.514.914.172.53.172 1.177-.009.645-.18 1.176a2.5 2.5 0 0 1-.515.915q-.334.375-.841.588-.507.204-1.184.204h-2.05zm.71.644v4.485h1.292q.441 0 .84-.13.41-.14.695-.483.261-.302.384-.71.123-.417.123-.915 0-.514-.123-.915a2 2 0 0 0-.367-.695 1.7 1.7 0 0 0-.621-.465 2.1 2.1 0 0 0-.89-.172z"/><path fill="#16C552" d="M124.649 74.674h-1.083v-5.078h-1.344v-.738q.55-.018.971-.177.42-.168.663-.607h.793zm2.911-2.464.495-.43q.28-.233.523-.485.252-.261.411-.56.168-.3.168-.644 0-.505-.299-.813t-.859-.308q-.448 0-.756.206a.86.86 0 0 0-.383.55h-1.064q.038-.429.233-.765a1.8 1.8 0 0 1 .514-.55q.308-.216.672-.309a3.2 3.2 0 0 1 .849-.103q.448 0 .841.122.391.12.681.364.299.243.467.616.177.364.177.859a2.4 2.4 0 0 1-.383 1.325 3.3 3.3 0 0 1-.41.523q-.225.243-.476.458-.337.289-.598.504l-.457.373-.374.308a7 7 0 0 0-.317.262h3.015v.961h-4.49v-.887zm4.246 2.539a.75.75 0 0 1-.467-.187.64.64 0 0 1-.177-.476q0-.327.205-.495a.68.68 0 0 1 .458-.177h.056q.42.028.578.299.159.27.159.57v.093q0 .27-.103.532-.102.27-.27.504t-.383.401a1.4 1.4 0 0 1-.448.252l-.28-.382q.224-.159.41-.402.187-.244.262-.532m1.981-2.978.355-3.697h3.977v.962h-3.072l-.187 1.717q.272-.177.579-.27a2.5 2.5 0 0 1 .756-.103q.495 0 .897.15.401.14.69.41.29.27.439.663.159.392.159.887 0 .532-.187.952-.186.42-.513.71a2.3 2.3 0 0 1-.766.448q-.439.15-.952.149-.438 0-.831-.103a2.3 2.3 0 0 1-.7-.317 1.9 1.9 0 0 1-.523-.551 2.15 2.15 0 0 1-.27-.812h1.073q.056.196.177.345.131.15.299.252t.364.159q.197.047.392.047.28 0 .523-.066a1.2 1.2 0 0 0 .42-.224q.187-.15.29-.373.102-.234.102-.56 0-.599-.354-.915-.346-.318-.915-.318-.355 0-.644.122a1.8 1.8 0 0 0-.523.336zm6.948-.728q-.365 0-.644-.122a1.5 1.5 0 0 1-.467-.326 1.3 1.3 0 0 1-.28-.486 1.9 1.9 0 0 1-.093-.607q0-.672.373-1.101.382-.44 1.111-.439.71 0 1.083.439.383.429.383 1.101 0 .327-.103.607a1.35 1.35 0 0 1-.28.486 1.4 1.4 0 0 1-.458.326q-.27.122-.625.122m-.719 3.631 4.145-6.6h1.064l-4.145 6.6zm.719-5.9q-.356 0-.495.224a.9.9 0 0 0-.14.504q0 .299.14.514t.495.215q.336 0 .467-.215.13-.224.13-.514a.95.95 0 0 0-.13-.504q-.13-.225-.467-.224m3.827 6.003a1.6 1.6 0 0 1-.644-.121 1.5 1.5 0 0 1-.466-.327 1.35 1.35 0 0 1-.281-.486 1.9 1.9 0 0 1-.093-.606q0-.672.374-1.102.382-.44 1.11-.439.71 0 1.093.439.382.429.382 1.102 0 .326-.102.606a1.35 1.35 0 0 1-.28.486q-.187.206-.467.327-.271.12-.626.12m-.009-2.269q-.336 0-.485.215a.9.9 0 0 0-.14.514q0 .299.14.513.149.215.485.215.345 0 .476-.215.13-.224.131-.513 0-.15-.028-.28a.5.5 0 0 0-.103-.225.43.43 0 0 0-.186-.158.6.6 0 0 0-.29-.066"/><g stroke="#16C552" stroke-linecap="round" stroke-linejoin="round" stroke-width=".875" clip-path="url(#c)"><path d="M155.593 69.6h2.074v2.074"/><path d="m157.668 69.6-2.93 2.93a.26.26 0 0 1-.363 0l-1.193-1.193a.26.26 0 0 0-.363 0l-1.893 1.893"/></g><path stroke="#E3E6E8" stroke-width=".583" d="M18.672 88.01h140.032"/><path fill="#82808E" d="M18.73 97.373h.783l1.356 3.635 1.332-3.635h.792l-1.658 4.304h-.948zm6.323.572q-.148 0-.303.024a1 1 0 0 0-.294.082.65.65 0 0 0-.245.18.5.5 0 0 0-.106.31q0 .278.204.416.212.14.548.205.138.032.302.065.164.024.318.057a4 4 0 0 1 .548.123q.784.245.784 1.053-.009.393-.172.638a1.15 1.15 0 0 1-.4.375 1.7 1.7 0 0 1-.547.196 3.3 3.3 0 0 1-.605.058q-.294 0-.596-.058a1.9 1.9 0 0 1-.556-.196 1.6 1.6 0 0 1-.424-.375 1.3 1.3 0 0 1-.22-.589h.702a.66.66 0 0 0 .204.311q.139.114.294.179a1.5 1.5 0 0 0 .629.115q.13 0 .302-.016.172-.017.327-.074a.7.7 0 0 0 .261-.188.5.5 0 0 0 .107-.343q0-.245-.164-.368a1 1 0 0 0-.433-.18 8 8 0 0 0-.408-.073l-.417-.081a9 9 0 0 1-.4-.107q-.195-.064-.368-.171a1.06 1.06 0 0 1-.367-.376 1.13 1.13 0 0 1-.14-.58q.017-.36.164-.588.147-.237.376-.384a1.7 1.7 0 0 1 .523-.204q.277-.057.588-.057.661 0 1.054.285.237.164.367.393.13.228.164.482h-.646a.6.6 0 0 0-.31-.384q-.253-.147-.645-.155m5.99 1.715.482-.409a5 5 0 0 0 .498-.49q.237-.26.4-.547.164-.294.172-.637.015-.523-.302-.8-.319-.287-.842-.287-.416 0-.727.172a.82.82 0 0 0-.408.498h-.76q.057-.334.237-.58.188-.252.45-.416.269-.164.587-.245.319-.082.654-.082.4 0 .735.114.335.106.58.319t.376.53q.139.312.139.712t-.123.718a2.2 2.2 0 0 1-.319.588q-.195.27-.449.507-.253.237-.523.474l-1.462 1.233h2.941v.645h-3.97v-.588zm3.712 2.034a.55.55 0 0 1-.344-.139.43.43 0 0 1-.13-.327.45.45 0 0 1 .147-.335.5.5 0 0 1 .335-.13q.237 0 .376.171.147.172.147.482 0 .172-.074.376a1.435 1.435 0 0 1-.45.686.9.9 0 0 1-.31.188l-.196-.27q.164-.114.303-.31.147-.196.196-.392m1.82-.017 2.335-5.121h-3.055v-.654h3.84v.588l-2.337 5.187zm6.929-5.775v3.978h.678v.646h-.678v1.151h-.711v-1.151h-3.137v-.531l2.827-4.093zm-2.99 3.978h2.279v-3.332zm8.861-1.086q0 .555-.114 1.086-.105.531-.368.948a2 2 0 0 1-.694.662q-.433.252-1.078.253-.654 0-1.087-.253a2 2 0 0 1-.694-.662 2.8 2.8 0 0 1-.368-.931 5.5 5.5 0 0 1-.106-1.103q0-.588.106-1.103a2.7 2.7 0 0 1 .368-.931q.261-.408.694-.662.433-.261 1.087-.261.645 0 1.078.253t.694.67.368.948q.114.53.114 1.086m-3.782 0q0 .392.057.8.057.41.221.744.163.335.457.547.303.213.793.213.482 0 .776-.213.302-.212.465-.547.165-.335.22-.743.058-.41.058-.801 0-.384-.057-.792a2.5 2.5 0 0 0-.22-.744 1.4 1.4 0 0 0-.466-.555q-.294-.22-.776-.22-.49 0-.793.22a1.43 1.43 0 0 0-.457.555 2.5 2.5 0 0 0-.22.744 6 6 0 0 0-.058.792m7.226-2.998q.195 0 .335.13.139.123.139.328a.44.44 0 0 1-.14.334.47.47 0 0 1-.334.131.45.45 0 0 1-.335-.13.45.45 0 0 1-.13-.335q0-.206.13-.327a.45.45 0 0 1 .335-.13m-.343 5.881v-4.304h.694v4.304zm1.767 0v-4.304h.67l.033.653q.106-.18.261-.31.164-.13.352-.22a1.7 1.7 0 0 1 .392-.131q.212-.042.408-.041.465 0 .784.155.32.147.507.416.188.262.27.63.081.359.081.775v2.377h-.694v-2.189q0-.301-.041-.58a1.4 1.4 0 0 0-.147-.49.84.84 0 0 0-.31-.351q-.206-.13-.548-.13-.335.008-.596.163a1.4 1.4 0 0 0-.409.367 1.6 1.6 0 0 0-.253.597 3.2 3.2 0 0 0-.065.645v1.968zm7.028-5.775h2.05q.671 0 1.177.213.515.204.858.588.343.375.514.915.172.531.172 1.176-.009.645-.18 1.176a2.5 2.5 0 0 1-.515.915 2.3 2.3 0 0 1-.84.588q-.508.204-1.185.204h-2.05zm.711.646v4.484h1.29q.442 0 .842-.131.409-.139.694-.481.262-.303.384-.711.123-.417.123-.915 0-.515-.123-.915a2 2 0 0 0-.367-.694 1.7 1.7 0 0 0-.621-.466 2.1 2.1 0 0 0-.89-.171zm6.72 4.566q.589 0 .858-.351.278-.36.278-.997v-2.393h.694v2.426q0 .98-.474 1.454-.465.474-1.356.474-.89 0-1.355-.474-.458-.474-.458-1.454v-2.426h.694v2.393q0 .637.278.997.278.351.841.351m2.828.563v-5.775h.695v2.108a1.4 1.4 0 0 1 .604-.507q.401-.187.817-.18a1.9 1.9 0 0 1 .841.172q.36.171.588.466.238.294.343.702.115.4.115.866t-.115.866q-.106.392-.343.686t-.604.466a2.1 2.1 0 0 1-.858.18h-.09q-.441 0-.767-.156a1.54 1.54 0 0 1-.531-.416l-.033.522zm2.026-.563q.351 0 .588-.123.245-.13.392-.343.156-.22.22-.506.075-.285.082-.613 0-.327-.073-.612a1.3 1.3 0 0 0-.22-.507 1.1 1.1 0 0 0-.409-.335 1.25 1.25 0 0 0-.596-.13q-.197 0-.384.065a1.2 1.2 0 0 0-.335.18q-.147.105-.262.245a1.6 1.6 0 0 0-.31.694q-.04.212-.04.408 0 .213.024.441.032.221.13.409.147.31.45.523.302.204.743.204m5.657.016a1.2 1.2 0 0 1-.319.302q-.18.115-.376.18a2 2 0 0 1-.383.09q-.188.025-.376.025-.302 0-.572-.074a1.5 1.5 0 0 1-.49-.237 1.25 1.25 0 0 1-.343-.408 1.2 1.2 0 0 1-.123-.556q0-.368.131-.612.139-.254.368-.409t.522-.212q.302-.066.638-.066h1.266q0-.547-.237-.866-.237-.326-.8-.343-.344 0-.605.115a.64.64 0 0 0-.36.376h-.743a1.1 1.1 0 0 1 .229-.499q.171-.212.408-.343.237-.138.515-.204t.555-.065q.483 0 .809.163.335.155.54.417.203.252.285.62.081.367.082.825v2.328h-.58zm-.817-1.397q-.196 0-.457.008-.255 0-.49.05a.7.7 0 0 0-.385.204.6.6 0 0 0-.138.408q0 .188.073.319a.7.7 0 0 0 .196.22q.13.09.294.131.164.04.335.041.613 0 .964-.294.36-.303.368-.874v-.213zm2.832-3.937q.195 0 .335.13.138.123.139.328a.44.44 0 0 1-.14.334.47.47 0 0 1-.334.131.45.45 0 0 1-.335-.13.45.45 0 0 1-.13-.335q0-.206.13-.327a.45.45 0 0 1 .335-.13m-.343 5.881v-4.304h.694v4.304zM104.802 97.373h.784l1.03 3.635 1.061-3.635h.94l1.07 3.635 1.013-3.635h.792l-1.339 4.304h-.948l-1.062-3.488-1.062 3.488h-.939zm9.147-.05q.515 0 .89.164.377.163.629.458.262.294.384.702.13.4.131.882 0 .482-.131.891a1.753 1.753 0 0 1-1.021 1.143 2.3 2.3 0 0 1-.898.164q-.515 0-.899-.164a1.9 1.9 0 0 1-.637-.449 2 2 0 0 1-.384-.694 3 3 0 0 1-.122-.89q0-.483.122-.883.13-.409.384-.703.261-.294.654-.457.391-.163.898-.163m-.016 3.791q.35 0 .604-.123.261-.122.425-.335a1.4 1.4 0 0 0 .245-.506 2.3 2.3 0 0 0 .082-.62q0-.328-.082-.614a1.3 1.3 0 0 0-.245-.506 1.1 1.1 0 0 0-.425-.343 1.4 1.4 0 0 0-.604-.122q-.351 0-.605.122-.253.123-.425.343a1.5 1.5 0 0 0-.245.507q-.073.285-.073.612 0 .335.073.621.083.286.245.506.172.213.425.335.254.123.605.123m2.897.563v-4.304h.67l.033.67q.237-.377.604-.548.368-.171.833-.171h.221v.653h-.253a1.5 1.5 0 0 0-.654.13 1.16 1.16 0 0 0-.441.344 1.5 1.5 0 0 0-.245.506 2.6 2.6 0 0 0-.073.621v2.099zm4.422-3.733q-.147 0-.302.025a1 1 0 0 0-.294.082.65.65 0 0 0-.246.18.5.5 0 0 0-.106.31q0 .278.204.416.213.14.548.205.138.032.302.065.163.024.319.057a4 4 0 0 1 .547.123q.784.245.784 1.053-.008.393-.171.638a1.15 1.15 0 0 1-.401.375q-.237.14-.547.196a3.3 3.3 0 0 1-.605.058q-.293 0-.596-.058a1.9 1.9 0 0 1-.555-.196 1.6 1.6 0 0 1-.425-.375 1.3 1.3 0 0 1-.221-.589h.703a.66.66 0 0 0 .204.311q.14.114.294.179a1.5 1.5 0 0 0 .629.115q.13 0 .302-.016.172-.017.327-.074a.7.7 0 0 0 .262-.188.5.5 0 0 0 .106-.343q0-.245-.164-.368a1 1 0 0 0-.433-.18 8 8 0 0 0-.408-.073l-.417-.081a9 9 0 0 1-.4-.107 1.7 1.7 0 0 1-.367-.171 1.06 1.06 0 0 1-.368-.376 1.1 1.1 0 0 1-.139-.58q.016-.36.163-.588.148-.237.376-.384.246-.147.523-.204a3 3 0 0 1 .588-.057q.662 0 1.054.285.237.164.367.393.131.228.164.482h-.645a.61.61 0 0 0-.311-.384q-.254-.147-.645-.155m3.078 1.838q.024.287.114.531.097.237.261.417t.401.286q.245.098.563.098.156 0 .319-.025.171-.032.318-.098a1 1 0 0 0 .262-.188.7.7 0 0 0 .171-.277h.711a1.4 1.4 0 0 1-.253.539 1.5 1.5 0 0 1-.417.376 1.9 1.9 0 0 1-.531.22 2.7 2.7 0 0 1-.596.066q-.515 0-.899-.164a1.8 1.8 0 0 1-.629-.449 1.9 1.9 0 0 1-.375-.694 3 3 0 0 1-.123-.89q0-.483.131-.883.138-.409.392-.703t.621-.457q.367-.163.874-.163.515 0 .89.204.376.204.605.539.228.327.318.71a2.4 2.4 0 0 1 .074.858q0 .074-.008.147zm2.507-.604q-.015-.548-.343-.89-.327-.344-.874-.343-.301 0-.531.098-.228.098-.384.269a1.3 1.3 0 0 0-.245.4 1.7 1.7 0 0 0-.114.466zm3.674 2.499v-5.775h.695v2.108q.212-.327.604-.507.4-.187.817-.18.49 0 .841.172.36.171.589.466.236.294.343.702.114.4.114.866t-.114.866a1.9 1.9 0 0 1-.343.686 1.7 1.7 0 0 1-.605.466 2.1 2.1 0 0 1-.858.18h-.089q-.442 0-.768-.156a1.5 1.5 0 0 1-.531-.416l-.033.522zm2.026-.563q.351 0 .588-.123.245-.13.392-.343a1.4 1.4 0 0 0 .221-.506q.073-.285.082-.613 0-.327-.074-.612a1.3 1.3 0 0 0-.22-.507 1.1 1.1 0 0 0-.409-.335 1.25 1.25 0 0 0-.596-.13q-.196 0-.384.065a1.2 1.2 0 0 0-.335.18q-.147.105-.261.245a1.6 1.6 0 0 0-.311.694 2 2 0 0 0-.041.408q0 .213.025.441.032.221.131.409.147.31.449.523.302.204.743.204m6.605-3.741v4.304q0 .94-.491 1.43-.49.498-1.396.498a3.4 3.4 0 0 1-.989-.147 2 2 0 0 1-.8-.474l.302-.547q.318.253.678.4.367.147.768.147.335 0 .572-.106a.9.9 0 0 0 .384-.286q.155-.179.22-.433a2 2 0 0 0 .074-.547v-.514a1.3 1.3 0 0 1-.27.294 1.6 1.6 0 0 1-.343.204q-.18.073-.392.106a2 2 0 0 1-.417.041q-.49-.008-.817-.155a1.3 1.3 0 0 1-.514-.409 1.7 1.7 0 0 1-.27-.621 3.8 3.8 0 0 1-.081-.808v-2.377h.694v2.18q0 .295.033.581.04.285.155.506a.9.9 0 0 0 .335.359q.22.131.588.131t.621-.155q.26-.155.4-.392a1.5 1.5 0 0 0 .204-.539q.057-.294.057-.605v-2.066zm4.96 4.37q-.344 0-.695-.066a2.4 2.4 0 0 1-.645-.22 1.7 1.7 0 0 1-.506-.425 1.34 1.34 0 0 1-.262-.645h.735a.86.86 0 0 0 .221.351q.155.13.343.212.197.082.408.115.213.033.409.033.18 0 .408-.033.229-.033.425-.139a.9.9 0 0 0 .335-.31q.138-.213.139-.556 0-.327-.131-.523a.84.84 0 0 0-.327-.302q-.195-.105-.449-.139a4 4 0 0 0-.498-.032h-.556v-.638h.335q.22 0 .409-.008.188-.016.416-.114.262-.123.417-.343a.96.96 0 0 0 .163-.523 1 1 0 0 0-.098-.482.76.76 0 0 0-.261-.294.9.9 0 0 0-.368-.139 2 2 0 0 0-.416-.04q-.173 0-.36.04a1.3 1.3 0 0 0-.343.115 1 1 0 0 0-.278.22.73.73 0 0 0-.171.319h-.711a1.36 1.36 0 0 1 .229-.613q.18-.254.441-.417.27-.163.588-.237a3 3 0 0 1 1.348.009q.326.073.572.253.245.172.384.457.147.285.147.695 0 .155-.033.335a1.27 1.27 0 0 1-.384.686q-.171.171-.449.286.547.105.833.482.286.367.286.89v.033q0 .449-.163.776a1.5 1.5 0 0 1-.433.531 1.9 1.9 0 0 1-.654.302 3.2 3.2 0 0 1-.8.098m7.406-2.949q0 .555-.115 1.086-.106.531-.367.948a2 2 0 0 1-.695.662q-.433.252-1.078.253-.654 0-1.086-.253a2 2 0 0 1-.695-.662 2.8 2.8 0 0 1-.367-.931 5.4 5.4 0 0 1-.107-1.103q0-.588.107-1.103a2.7 2.7 0 0 1 .367-.931q.262-.408.695-.662.432-.261 1.086-.261.645 0 1.078.253t.695.67q.26.417.367.948.114.53.115 1.086m-3.783 0q0 .392.058.8.057.41.22.744.164.335.458.547.301.213.792.213.482 0 .776-.213.303-.212.466-.547t.22-.743q.057-.41.057-.801 0-.384-.057-.792a2.5 2.5 0 0 0-.22-.744 1.4 1.4 0 0 0-.466-.555q-.294-.22-.776-.22-.49 0-.792.22a1.43 1.43 0 0 0-.458.555 2.5 2.5 0 0 0-.22.744 6 6 0 0 0-.058.792m5.833-.4q-.294 0-.523-.098a1 1 0 0 1-.367-.27 1.4 1.4 0 0 1-.229-.408 1.7 1.7 0 0 1-.073-.507q0-.278.073-.506.082-.237.229-.409.155-.171.376-.261.22-.098.514-.098.572 0 .874.36.302.35.302.914 0 .27-.081.507a1.2 1.2 0 0 1-.221.408 1 1 0 0 1-.367.27 1.2 1.2 0 0 1-.507.098m-.539 3.283 3.553-5.775h.719l-3.545 5.775zm.539-5.26q-.327 0-.465.212a.86.86 0 0 0-.139.482q0 .286.139.498.138.205.465.205.31 0 .441-.213a.9.9 0 0 0 .131-.49q0-.27-.131-.482-.13-.212-.441-.212m3.235 5.31q-.294 0-.523-.099a1.1 1.1 0 0 1-.376-.269 1.4 1.4 0 0 1-.228-.409 1.7 1.7 0 0 1-.074-.506q0-.278.074-.506.081-.237.237-.409a1 1 0 0 1 .375-.261q.22-.099.515-.098.278 0 .498.098.22.09.368.261.154.171.229.409.081.228.081.506 0 .27-.081.506-.075.23-.229.409a1 1 0 0 1-.368.269 1.2 1.2 0 0 1-.498.099m-.008-1.977q-.327 0-.466.212a.9.9 0 0 0-.131.482q0 .287.139.498.139.204.458.205.318 0 .441-.213a.9.9 0 0 0 .131-.49q0-.27-.131-.482-.123-.212-.441-.212"/></g><g filter="url(#d)"><rect width="158.703" height="83.01" x="177.375" y="31.003" fill="#fff" rx="6.643"/><path fill="#82808E" d="M187.422 49.339v-5.775h1.078l1.732 3.177 1.707-3.177h1.054v5.775h-.711v-5.024l-1.903 3.513h-.327l-1.92-3.513v5.024zm7.29-1.895q.024.285.114.53.097.238.261.417.164.18.401.286.245.098.563.098.156 0 .319-.024a1.5 1.5 0 0 0 .318-.098 1 1 0 0 0 .262-.188.7.7 0 0 0 .171-.278h.711a1.4 1.4 0 0 1-.253.54 1.5 1.5 0 0 1-.417.375 1.9 1.9 0 0 1-.531.22 2.7 2.7 0 0 1-.596.066q-.515 0-.899-.164a1.8 1.8 0 0 1-.629-.449 1.9 1.9 0 0 1-.375-.694 3 3 0 0 1-.123-.89q0-.483.131-.883.138-.408.392-.702t.621-.458.874-.163q.515 0 .89.204.376.204.605.54.228.326.318.71a2.4 2.4 0 0 1 .074.858q0 .073-.008.147zm2.507-.605q-.016-.547-.343-.89t-.874-.343q-.301 0-.531.098-.228.097-.384.27a1.3 1.3 0 0 0-.245.4 1.7 1.7 0 0 0-.114.465zm5.394 2.5h-.662l-.033-.646a1.27 1.27 0 0 1-.612.531 2.13 2.13 0 0 1-1.659-.008 1.6 1.6 0 0 1-.588-.465 2 2 0 0 1-.343-.687 3.4 3.4 0 0 1-.106-.865q0-.466.114-.866a1.95 1.95 0 0 1 .352-.703q.236-.302.596-.474t.858-.171q.375 0 .759.139.384.138.629.449v-2.01h.695zm-2.026-3.733q-.351 0-.597.13a1.1 1.1 0 0 0-.4.335q-.147.212-.22.507-.066.285-.066.629 0 .342.066.62.065.27.22.483.156.211.4.343.245.122.605.122.416 0 .686-.196.27-.195.433-.49a1.5 1.5 0 0 0 .163-.441 2.4 2.4 0 0 0 .049-.482 2.4 2.4 0 0 0-.057-.54 1.3 1.3 0 0 0-.188-.457 1.4 1.4 0 0 0-.433-.4 1.25 1.25 0 0 0-.661-.163m3.435-2.149q.195 0 .335.131.139.122.139.327a.44.44 0 0 1-.139.335.47.47 0 0 1-.335.13.45.45 0 0 1-.335-.13.45.45 0 0 1-.131-.335q0-.204.131-.327a.45.45 0 0 1 .335-.13m-.343 5.882v-4.305h.694v4.305zm4.602-.547a1.2 1.2 0 0 1-.319.302q-.18.114-.375.18a2 2 0 0 1-.384.09 3 3 0 0 1-.376.024q-.302 0-.572-.074a1.5 1.5 0 0 1-.49-.237 1.24 1.24 0 0 1-.343-.408 1.2 1.2 0 0 1-.123-.555q0-.369.131-.613.139-.253.368-.409t.522-.212q.303-.065.638-.065h1.266q0-.548-.237-.866-.237-.327-.801-.343-.343 0-.604.114a.65.65 0 0 0-.36.376h-.743q.057-.294.229-.498.171-.213.408-.343.237-.14.515-.205t.555-.065q.482 0 .809.163.335.156.539.417.204.254.286.62.081.368.082.826v2.328h-.58zm-.817-1.397q-.196 0-.457.008a2.4 2.4 0 0 0-.491.049.7.7 0 0 0-.383.204.6.6 0 0 0-.139.408.64.64 0 0 0 .073.319q.074.13.196.22.13.09.294.131.164.04.335.041.613 0 .964-.294.36-.302.368-.874v-.212zm2.432 1.944v-4.305h.669l.033.653q.106-.18.262-.31.163-.13.351-.22a1.7 1.7 0 0 1 .392-.131q.212-.041.408-.041.466 0 .785.155.318.147.506.417.187.261.27.629.081.36.081.776v2.377h-.694v-2.19q0-.3-.041-.58a1.4 1.4 0 0 0-.147-.49.85.85 0 0 0-.31-.35q-.205-.132-.548-.132-.335.008-.596.164a1.4 1.4 0 0 0-.408.367q-.189.27-.254.597a3.2 3.2 0 0 0-.065.645v1.969zm6.864 1.552v-5.857h.662l.032.645q.221-.335.597-.506.384-.18.825-.188.498 0 .841.171.352.165.58.466.237.294.351.703.115.4.115.865 0 .475-.115.874a1.9 1.9 0 0 1-.351.695 1.7 1.7 0 0 1-.596.465q-.36.165-.858.164-.49 0-.833-.155a1.4 1.4 0 0 1-.556-.433v2.09zm2.026-2.116q.351 0 .588-.122.245-.131.392-.343.156-.221.221-.507.073-.285.081-.613 0-.326-.073-.612a1.3 1.3 0 0 0-.221-.507 1.1 1.1 0 0 0-.408-.335 1.25 1.25 0 0 0-.596-.13q-.417 0-.719.228a1.4 1.4 0 0 0-.458.564q-.09.188-.122.392-.033.196-.033.409 0 .244.033.457.033.204.122.392.156.31.45.523.302.204.743.204m2.822.564v-4.305h.67l.033.67a1.4 1.4 0 0 1 .604-.548q.368-.171.833-.171h.221v.653h-.253a1.5 1.5 0 0 0-.654.131 1.16 1.16 0 0 0-.441.343 1.5 1.5 0 0 0-.245.507 2.6 2.6 0 0 0-.073.62v2.1zm3.366-5.882q.196 0 .335.131.14.122.139.327a.44.44 0 0 1-.139.335.47.47 0 0 1-.335.13.45.45 0 0 1-.335-.13.45.45 0 0 1-.13-.335q0-.204.13-.327a.45.45 0 0 1 .335-.13m-.343 5.882v-4.305h.694v4.305zm3.606.049q-.514 0-.891-.164a1.66 1.66 0 0 1-.621-.457 2 2 0 0 1-.367-.694 3 3 0 0 1-.123-.874q0-.457.131-.858.13-.408.384-.703.253-.302.637-.473.384-.18.931-.18.327 0 .58.073.254.065.474.221.229.147.392.392t.237.596h-.711q-.122-.359-.392-.514a1.14 1.14 0 0 0-.621-.147q-.351 0-.62.139a1.2 1.2 0 0 0-.425.35 1.5 1.5 0 0 0-.229.515q-.073.286-.073.589 0 .318.073.604.082.286.237.507.163.211.417.343.253.122.604.122a1.7 1.7 0 0 0 .335-.033q.171-.032.31-.106a.9.9 0 0 0 .254-.212.85.85 0 0 0 .155-.319h.719a1.5 1.5 0 0 1-.237.58 1.5 1.5 0 0 1-.409.4q-.245.155-.539.23-.294.072-.612.073m3.134-1.944q.025.285.115.53.098.238.261.417.163.18.4.286.245.098.564.098.155 0 .318-.024.172-.033.319-.098a1 1 0 0 0 .261-.188.7.7 0 0 0 .172-.278h.711a1.4 1.4 0 0 1-.254.54 1.45 1.45 0 0 1-.416.375 1.9 1.9 0 0 1-.531.22 2.7 2.7 0 0 1-.596.066q-.516 0-.899-.164a1.8 1.8 0 0 1-.629-.449 1.9 1.9 0 0 1-.376-.694 3.1 3.1 0 0 1-.122-.89q0-.483.13-.883.14-.408.393-.702a1.7 1.7 0 0 1 .62-.458q.368-.163.874-.163.514 0 .891.204.375.204.604.54.23.326.319.71a2.4 2.4 0 0 1 .073.858q0 .073-.008.147zm2.508-.605q-.016-.547-.343-.89t-.874-.343q-.303 0-.531.098a1.1 1.1 0 0 0-.384.27 1.3 1.3 0 0 0-.245.4 1.7 1.7 0 0 0-.114.465z"/><g clip-path="url(#e)"><path stroke="#82808E" stroke-linecap="round" stroke-linejoin="round" stroke-miterlimit="10" stroke-width=".583" d="M322.076 44.845h.003m-.003 2.987v-1.867m3.734.374a3.734 3.734 0 1 1-7.468 0 3.734 3.734 0 0 1 7.468 0"/></g><path fill="#03030A" d="M189.603 70.594q.28-.246.618-.537.351-.292.654-.607.315-.327.513-.7.21-.375.21-.805 0-.63-.373-1.016-.373-.385-1.074-.385-.56 0-.945.257-.385.256-.478.689h-1.331q.047-.537.292-.957.256-.42.642-.689t.84-.385a4 4 0 0 1 1.062-.128q.56 0 1.05.151.49.153.852.455.374.305.584.77.22.456.221 1.074 0 .49-.128.899a3.2 3.2 0 0 1-.35.758 4 4 0 0 1-.514.654 7 7 0 0 1-.595.572q-.42.36-.747.63-.315.255-.571.466-.257.21-.467.385a9 9 0 0 0-.397.327h3.769v1.202h-5.613v-1.108zm5.307 3.174a.94.94 0 0 1-.584-.234q-.22-.222-.221-.595 0-.408.256-.618a.86.86 0 0 1 .572-.222h.07q.525.035.724.373.198.339.198.712v.117q0 .338-.128.665a2.8 2.8 0 0 1-.339.63q-.21.292-.478.502a1.7 1.7 0 0 1-.56.315l-.35-.478q.28-.2.513-.502.234-.304.327-.665m2.616-.094 3.186-7.036h-4.096v-1.214h5.625v1.05l-3.209 7.2zm10.144-8.25v5.473h.945v1.19h-.945v1.587h-1.342v-1.587h-4.259v-.968l3.862-5.695zm-4.038 5.473h2.696v-4.038zm12.31-1.354q0 .945-.198 1.727a3.6 3.6 0 0 1-.595 1.319q-.397.549-1.004.852-.606.303-1.435.303t-1.436-.291a2.8 2.8 0 0 1-1.003-.84 3.7 3.7 0 0 1-.595-1.296 6.7 6.7 0 0 1-.199-1.692q0-.957.187-1.75.187-.795.584-1.366a2.65 2.65 0 0 1 1.003-.875q.619-.315 1.459-.315.816 0 1.423.303.608.304 1.004.864.409.56.607 1.342.198.77.198 1.715m-5.123 0q0 .642.094 1.19.093.549.315.957.222.397.583.63.362.222.899.222.525 0 .887-.221.361-.234.583-.63.222-.41.315-.957.094-.55.094-1.19 0-.63-.094-1.18a3 3 0 0 0-.315-.956 1.7 1.7 0 0 0-.583-.642q-.362-.234-.887-.233-.537 0-.899.233-.361.233-.583.642a3 3 0 0 0-.315.957 7 7 0 0 0-.094 1.178m7.168 4.225a.94.94 0 0 1-.583-.234q-.222-.222-.222-.595 0-.408.257-.618a.85.85 0 0 1 .571-.222h.07q.525.035.724.373.198.339.198.712v.117q0 .338-.128.665a2.8 2.8 0 0 1-.339.63q-.21.292-.478.502a1.7 1.7 0 0 1-.56.315l-.35-.478q.28-.2.513-.502.234-.304.327-.665m8.696-4.225q0 .945-.198 1.727a3.6 3.6 0 0 1-.595 1.319q-.398.549-1.004.852-.607.303-1.435.303t-1.436-.291a2.8 2.8 0 0 1-1.003-.84 3.7 3.7 0 0 1-.595-1.296 6.7 6.7 0 0 1-.199-1.692q0-.957.187-1.75.186-.795.583-1.366a2.65 2.65 0 0 1 1.004-.875q.618-.315 1.459-.315.816 0 1.423.303.607.304 1.004.864.408.56.607 1.342.198.77.198 1.715m-5.123 0q0 .642.094 1.19.093.549.315.957.221.397.583.63.362.222.899.222.525 0 .886-.221.363-.234.584-.63.222-.41.315-.957a7 7 0 0 0 .093-1.19q0-.63-.093-1.18a3 3 0 0 0-.315-.956 1.7 1.7 0 0 0-.584-.642q-.361-.234-.886-.233-.537 0-.899.233t-.583.642a3 3 0 0 0-.315.957 7 7 0 0 0-.094 1.178m12.676 0q0 .945-.199 1.727a3.6 3.6 0 0 1-.595 1.319q-.397.549-1.003.852-.607.303-1.436.303-.828 0-1.435-.291a2.8 2.8 0 0 1-1.004-.84 3.8 3.8 0 0 1-.595-1.296 6.7 6.7 0 0 1-.198-1.692q0-.957.187-1.75.186-.795.583-1.366a2.65 2.65 0 0 1 1.004-.875q.618-.315 1.458-.315.817 0 1.424.303.607.304 1.004.864.408.56.606 1.342.2.77.199 1.715m-5.123 0q0 .642.093 1.19.094.549.315.957.222.397.584.63.361.222.898.222.525 0 .887-.221.362-.234.584-.63.221-.41.315-.957a7 7 0 0 0 .093-1.19q0-.63-.093-1.18a3 3 0 0 0-.315-.956 1.73 1.73 0 0 0-.584-.642q-.362-.234-.887-.233-.537 0-.898.233a1.73 1.73 0 0 0-.584.642 3 3 0 0 0-.315.957 7 7 0 0 0-.093 1.178m12.675 0q0 .945-.198 1.727a3.6 3.6 0 0 1-.595 1.319q-.397.549-1.004.852-.606.303-1.435.303-.828 0-1.435-.291a2.8 2.8 0 0 1-1.004-.84 3.8 3.8 0 0 1-.595-1.296 6.7 6.7 0 0 1-.198-1.692q0-.957.186-1.75.187-.795.584-1.366a2.65 2.65 0 0 1 1.003-.875q.62-.315 1.459-.315.817 0 1.424.303.606.304 1.003.864.41.56.607 1.342.198.77.198 1.715m-5.122 0q0 .642.093 1.19.093.549.315.957.221.397.584.63.361.222.898.222.525 0 .887-.221.362-.234.583-.63.222-.41.315-.957.094-.55.094-1.19 0-.63-.094-1.18a3 3 0 0 0-.315-.956 1.7 1.7 0 0 0-.583-.642q-.362-.234-.887-.233-.537 0-.898.233-.362.233-.584.642a3 3 0 0 0-.315.957 7 7 0 0 0-.093 1.178"/><path fill="#82808E" d="m250.081 75.674-.457-1.241h-2.859l-.457 1.241h-.768l2.148-5.775h1.021l2.14 5.775zm-1.886-5.154-1.193 3.267h2.385zm3.364-.62h3.88v.644h-3.169v1.945h2.851v.653h-2.851v1.887h3.169v.645h-3.88zm4.904 0h2.051q.669 0 1.176.211.515.205.858.589.342.375.514.914.172.53.172 1.177-.009.645-.18 1.176a2.5 2.5 0 0 1-.515.915 2.3 2.3 0 0 1-.841.588q-.506.204-1.184.204h-2.051zm.711.644v4.485h1.291q.44 0 .841-.13a1.53 1.53 0 0 0 .694-.483 1.9 1.9 0 0 0 .384-.71q.123-.417.123-.915 0-.514-.123-.915a2 2 0 0 0-.367-.695 1.74 1.74 0 0 0-.621-.465 2.1 2.1 0 0 0-.891-.172z"/><path fill="#16C552" d="M292.688 74.674h-1.083v-5.078h-1.344v-.738q.55-.018.971-.177.42-.168.663-.607h.793zm2.911-2.464.495-.43q.28-.233.523-.485.252-.261.411-.56.168-.3.168-.644 0-.505-.299-.813t-.859-.308q-.448 0-.756.206a.87.87 0 0 0-.383.55h-1.064q.038-.429.233-.765a1.8 1.8 0 0 1 .514-.55q.307-.216.672-.309a3.2 3.2 0 0 1 .849-.103q.448 0 .841.122.392.12.681.364.299.243.467.616.177.364.177.859a2.4 2.4 0 0 1-.382 1.325 3.4 3.4 0 0 1-.411.523q-.224.243-.476.458-.337.289-.598.504l-.457.373-.374.308a7 7 0 0 0-.317.262h3.015v.961h-4.49v-.887zm4.246 2.539a.75.75 0 0 1-.467-.187.64.64 0 0 1-.177-.476q0-.327.205-.495a.69.69 0 0 1 .458-.177h.056q.42.028.578.299.159.27.159.57v.093q0 .27-.103.532-.102.27-.27.504t-.383.401a1.4 1.4 0 0 1-.448.252l-.28-.382q.223-.159.411-.402.186-.244.261-.532m1.981-2.978.355-3.697h3.977v.962h-3.072l-.186 1.717q.27-.177.578-.27a2.5 2.5 0 0 1 .756-.103q.495 0 .897.15.401.14.691.41t.438.663q.159.392.159.887 0 .532-.187.952-.186.42-.513.71a2.3 2.3 0 0 1-.766.448q-.438.15-.952.149-.438 0-.831-.103a2.3 2.3 0 0 1-.7-.317 1.9 1.9 0 0 1-.523-.551 2.15 2.15 0 0 1-.27-.812h1.073q.056.196.178.345.13.15.298.252t.364.159q.197.047.392.047.28 0 .523-.066a1.2 1.2 0 0 0 .42-.224q.187-.15.29-.373.102-.234.102-.56 0-.599-.354-.915-.346-.318-.915-.318-.355 0-.644.122a1.8 1.8 0 0 0-.523.336zm6.948-.728q-.364 0-.644-.122a1.5 1.5 0 0 1-.467-.326 1.35 1.35 0 0 1-.28-.486 1.9 1.9 0 0 1-.093-.607q0-.672.373-1.101.383-.44 1.111-.439.71 0 1.083.439.383.429.383 1.101 0 .327-.103.607a1.35 1.35 0 0 1-.28.486 1.4 1.4 0 0 1-.458.326q-.27.122-.625.122m-.719 3.631 4.145-6.6h1.064l-4.145 6.6zm.719-5.9q-.355 0-.495.224a.9.9 0 0 0-.14.504q0 .299.14.514t.495.215q.336 0 .467-.215.13-.224.13-.514a.95.95 0 0 0-.13-.504q-.13-.225-.467-.224m3.828 6.003q-.365 0-.645-.121a1.5 1.5 0 0 1-.466-.327 1.3 1.3 0 0 1-.28-.486 1.9 1.9 0 0 1-.094-.606q0-.672.374-1.102.382-.44 1.111-.439.71 0 1.092.439.383.429.383 1.102 0 .326-.103.606a1.35 1.35 0 0 1-.28.486q-.187.206-.467.327-.27.12-.625.12m-.01-2.269q-.336 0-.485.215a.9.9 0 0 0-.14.514q0 .299.14.513.149.215.485.215.345 0 .476-.215.13-.224.131-.513 0-.15-.028-.28a.5.5 0 0 0-.103-.225.43.43 0 0 0-.186-.158.6.6 0 0 0-.29-.066"/><g stroke="#16C552" stroke-linecap="round" stroke-linejoin="round" stroke-width=".875" clip-path="url(#f)"><path d="M323.632 69.6h2.074v2.074"/><path d="m325.707 69.6-2.93 2.93a.26.26 0 0 1-.363 0l-1.193-1.193a.26.26 0 0 0-.363 0l-1.893 1.893"/></g><path stroke="#E3E6E8" stroke-width=".583" d="M186.711 88.01h140.032"/><path fill="#82808E" d="M186.768 97.373h.784l1.356 3.635 1.332-3.635h.792l-1.658 4.304h-.948zm6.324.572q-.147 0-.303.024a1 1 0 0 0-.294.082.66.66 0 0 0-.245.18.5.5 0 0 0-.106.31q0 .278.204.416.213.14.548.205.138.032.302.065.164.024.318.057a4 4 0 0 1 .548.123q.784.245.784 1.053-.009.393-.172.638a1.15 1.15 0 0 1-.4.375q-.237.14-.547.196a3.3 3.3 0 0 1-.605.058q-.294 0-.596-.058a1.9 1.9 0 0 1-.555-.196 1.6 1.6 0 0 1-.425-.375 1.3 1.3 0 0 1-.221-.589h.703a.65.65 0 0 0 .204.311q.14.114.294.179a1.5 1.5 0 0 0 .629.115q.13 0 .302-.016.172-.017.327-.074a.7.7 0 0 0 .261-.188.5.5 0 0 0 .107-.343q0-.245-.164-.368a1 1 0 0 0-.433-.18 8 8 0 0 0-.408-.073l-.417-.081a9 9 0 0 1-.4-.107 1.8 1.8 0 0 1-.368-.171 1.06 1.06 0 0 1-.367-.376 1.1 1.1 0 0 1-.139-.58q.016-.36.163-.588.148-.237.376-.384.245-.147.523-.204a3 3 0 0 1 .588-.057q.661 0 1.054.285.237.164.367.393.13.228.164.482h-.646a.6.6 0 0 0-.31-.384q-.254-.147-.645-.155m5.99 1.715.482-.409q.27-.228.498-.49a3 3 0 0 0 .4-.547q.163-.294.172-.637.016-.523-.302-.8-.319-.287-.842-.287-.416 0-.727.172a.82.82 0 0 0-.408.498h-.76q.057-.334.237-.58.188-.252.449-.416.27-.164.588-.245.32-.082.654-.082.4 0 .735.114.335.106.58.319t.376.53q.138.312.139.712 0 .4-.123.718a2.2 2.2 0 0 1-.318.588q-.196.27-.45.507-.253.237-.522.474l-1.463 1.233h2.941v.645h-3.97v-.588zm3.712 2.034a.54.54 0 0 1-.343-.139.43.43 0 0 1-.131-.327.45.45 0 0 1 .147-.335.5.5 0 0 1 .335-.13.46.46 0 0 1 .376.171q.147.172.147.482 0 .172-.074.376a1.44 1.44 0 0 1-.449.686.9.9 0 0 1-.311.188l-.196-.27q.164-.114.303-.31a1.1 1.1 0 0 0 .196-.392m1.819-.017 2.336-5.121h-3.055v-.654h3.84v.588l-2.337 5.187zm6.93-5.775v3.978h.678v.646h-.678v1.151h-.711v-1.151h-3.137v-.531l2.827-4.093zm-2.99 3.978h2.279v-3.332zm8.861-1.086q0 .555-.114 1.086-.106.531-.368.948a2 2 0 0 1-.694.662q-.433.252-1.078.253-.654 0-1.087-.253a2 2 0 0 1-.694-.662 2.8 2.8 0 0 1-.368-.931 5.5 5.5 0 0 1-.106-1.103q0-.588.106-1.103.107-.523.368-.931.262-.408.694-.662.433-.261 1.087-.261.645 0 1.078.253t.694.67q.262.417.368.948.114.53.114 1.086m-3.782 0q0 .392.057.8.058.41.221.744.163.335.457.547.303.213.793.213.482 0 .776-.213a1.4 1.4 0 0 0 .465-.547q.164-.335.221-.743.057-.41.057-.801 0-.384-.057-.792a2.5 2.5 0 0 0-.221-.744 1.4 1.4 0 0 0-.465-.555q-.294-.22-.776-.22-.49 0-.793.22a1.43 1.43 0 0 0-.457.555 2.5 2.5 0 0 0-.221.744 6 6 0 0 0-.057.792m7.226-2.998q.196 0 .335.13.139.123.139.328a.44.44 0 0 1-.139.334.47.47 0 0 1-.335.131.45.45 0 0 1-.335-.13.45.45 0 0 1-.131-.335q0-.206.131-.327a.45.45 0 0 1 .335-.13m-.343 5.881v-4.304h.694v4.304zm1.768 0v-4.304h.669l.033.653q.106-.18.261-.31.163-.13.352-.22t.392-.131q.211-.042.408-.041.466 0 .784.155.32.147.507.416.188.262.269.63.082.359.082.775v2.377h-.694v-2.189q0-.301-.041-.58a1.4 1.4 0 0 0-.147-.49.84.84 0 0 0-.311-.351q-.204-.13-.547-.13-.335.008-.596.163a1.4 1.4 0 0 0-.409.367 1.6 1.6 0 0 0-.253.597 3.2 3.2 0 0 0-.065.645v1.968zm7.027-5.775h2.051q.669 0 1.176.213.514.204.858.588.343.375.514.915.172.531.172 1.176-.009.645-.18 1.176a2.5 2.5 0 0 1-.515.915 2.3 2.3 0 0 1-.841.588q-.506.204-1.184.204h-2.051zm.711.646v4.484h1.291q.44 0 .841-.131a1.53 1.53 0 0 0 .694-.481q.263-.303.384-.711.123-.417.123-.915 0-.515-.123-.915a2 2 0 0 0-.367-.694 1.7 1.7 0 0 0-.621-.466 2.1 2.1 0 0 0-.89-.171zm6.721 4.566q.588 0 .857-.351.278-.36.278-.997v-2.393h.694v2.426q0 .98-.473 1.454-.467.474-1.356.474-.891 0-1.356-.474-.458-.474-.458-1.454v-2.426h.694v2.393q0 .637.278.997.278.351.842.351m2.827.563v-5.775h.695v2.108q.212-.327.604-.507.4-.187.817-.18.49 0 .841.172.36.171.588.466.238.294.343.702.115.4.115.866t-.115.866q-.105.392-.343.686a1.7 1.7 0 0 1-.604.466q-.36.171-.858.18h-.09q-.441 0-.767-.156a1.5 1.5 0 0 1-.531-.416l-.033.522zm2.026-.563q.351 0 .588-.123.245-.13.392-.343a1.4 1.4 0 0 0 .221-.506q.073-.285.082-.613 0-.327-.074-.612a1.3 1.3 0 0 0-.221-.507 1.1 1.1 0 0 0-.408-.335 1.25 1.25 0 0 0-.596-.13q-.197 0-.384.065a1.2 1.2 0 0 0-.335.18q-.147.105-.262.245a1.7 1.7 0 0 0-.31.694 2 2 0 0 0-.041.408q0 .213.025.441.033.221.13.409.147.31.45.523.302.204.743.204m5.657.016a1.2 1.2 0 0 1-.319.302 1.846 1.846 0 0 1-.759.27 3 3 0 0 1-.376.025q-.302 0-.572-.074a1.5 1.5 0 0 1-.49-.237 1.25 1.25 0 0 1-.343-.408 1.2 1.2 0 0 1-.123-.556q0-.368.131-.612.139-.254.368-.409t.522-.212q.303-.066.638-.066h1.266q0-.547-.237-.866-.237-.326-.801-.343-.343 0-.604.115a.65.65 0 0 0-.36.376h-.743q.057-.295.229-.499.171-.212.408-.343.237-.138.515-.204t.555-.065q.482 0 .809.163.335.155.539.417.204.252.286.62.081.367.082.825v2.328h-.58zm-.817-1.397q-.196 0-.457.008-.254 0-.49.05a.7.7 0 0 0-.384.204.59.59 0 0 0-.139.408q0 .188.073.319a.7.7 0 0 0 .196.22.9.9 0 0 0 .294.131q.164.04.335.041.613 0 .964-.294.36-.303.368-.874v-.213zm2.832-3.937q.196 0 .335.13.139.123.139.328a.44.44 0 0 1-.139.334.47.47 0 0 1-.335.131.45.45 0 0 1-.335-.13.45.45 0 0 1-.131-.335q0-.206.131-.327a.45.45 0 0 1 .335-.13m-.343 5.881v-4.304h.694v4.304zM272.841 97.373h.784l1.03 3.635 1.062-3.635h.939l1.07 3.635 1.013-3.635h.792l-1.339 4.304h-.948l-1.062-3.488-1.062 3.488h-.939zm9.147-.05q.515 0 .89.164.377.163.629.458.262.294.384.702.132.4.131.882 0 .482-.131.891a1.753 1.753 0 0 1-1.021 1.143 2.3 2.3 0 0 1-.898.164q-.515 0-.899-.164a1.9 1.9 0 0 1-.637-.449 2 2 0 0 1-.384-.694 3 3 0 0 1-.122-.89q0-.483.122-.883.13-.409.384-.703.261-.294.654-.457.391-.163.898-.163m-.016 3.791q.35 0 .604-.123.262-.122.425-.335a1.4 1.4 0 0 0 .245-.506q.082-.286.082-.62a2.2 2.2 0 0 0-.082-.614 1.3 1.3 0 0 0-.245-.506 1.1 1.1 0 0 0-.425-.343 1.4 1.4 0 0 0-.604-.122q-.351 0-.605.122-.253.123-.424.343-.163.212-.246.507-.073.285-.073.612 0 .335.073.621.082.286.246.506.17.213.424.335t.605.123m2.897.563v-4.304h.67l.033.67q.237-.377.604-.548.368-.171.834-.171h.22v.653h-.253a1.5 1.5 0 0 0-.654.13 1.16 1.16 0 0 0-.441.344 1.5 1.5 0 0 0-.245.506 2.6 2.6 0 0 0-.073.621v2.099zm4.422-3.733q-.147 0-.302.025a1 1 0 0 0-.294.082.64.64 0 0 0-.245.18.5.5 0 0 0-.107.31q0 .278.205.416.212.14.547.205.138.032.302.065.163.024.319.057a4 4 0 0 1 .547.123q.784.245.784 1.053-.008.393-.171.638a1.15 1.15 0 0 1-.401.375q-.237.14-.547.196a3.3 3.3 0 0 1-.604.058q-.294 0-.597-.058a1.9 1.9 0 0 1-.555-.196 1.6 1.6 0 0 1-.425-.375 1.3 1.3 0 0 1-.221-.589h.703a.67.67 0 0 0 .204.311q.14.114.294.179a1.5 1.5 0 0 0 .629.115q.13 0 .302-.016.173-.017.327-.074a.7.7 0 0 0 .262-.188.5.5 0 0 0 .106-.343q0-.245-.164-.368a1 1 0 0 0-.433-.18 8 8 0 0 0-.408-.073l-.417-.081a9 9 0 0 1-.4-.107q-.195-.064-.367-.171a1.06 1.06 0 0 1-.368-.376 1.1 1.1 0 0 1-.139-.58q.017-.36.164-.588.147-.237.375-.384.246-.147.523-.204a3 3 0 0 1 .588-.057q.662 0 1.054.285.236.164.368.393.13.228.163.482h-.645a.61.61 0 0 0-.311-.384q-.253-.147-.645-.155m3.078 1.838q.024.287.114.531.098.237.261.417.164.18.401.286.245.098.563.098.156 0 .319-.025.17-.032.319-.098a1 1 0 0 0 .261-.188.7.7 0 0 0 .171-.277h.711a1.4 1.4 0 0 1-.253.539 1.4 1.4 0 0 1-.417.376 1.9 1.9 0 0 1-.531.22 2.7 2.7 0 0 1-.596.066q-.515 0-.899-.164a1.8 1.8 0 0 1-.629-.449 1.9 1.9 0 0 1-.375-.694 3 3 0 0 1-.123-.89q0-.483.131-.883.138-.409.392-.703.253-.294.621-.457.367-.163.874-.163.515 0 .89.204.376.204.605.539.228.327.318.71a2.4 2.4 0 0 1 .074.858q0 .074-.008.147zm2.507-.604q-.015-.548-.343-.89-.326-.344-.874-.343-.301 0-.531.098-.228.098-.384.269a1.3 1.3 0 0 0-.245.4 1.7 1.7 0 0 0-.114.466zm3.674 2.499v-5.775h.695v2.108q.212-.327.604-.507.4-.187.817-.18.49 0 .841.172.36.171.589.466.237.294.343.702.114.4.114.866t-.114.866q-.106.392-.343.686a1.7 1.7 0 0 1-.605.466 2.1 2.1 0 0 1-.858.18h-.089q-.441 0-.768-.156a1.5 1.5 0 0 1-.531-.416l-.033.522zm2.026-.563q.351 0 .588-.123.245-.13.392-.343a1.4 1.4 0 0 0 .221-.506q.073-.285.082-.613 0-.327-.074-.612a1.3 1.3 0 0 0-.22-.507 1.1 1.1 0 0 0-.409-.335 1.25 1.25 0 0 0-.596-.13q-.196 0-.384.065a1.2 1.2 0 0 0-.335.18q-.147.105-.261.245a1.6 1.6 0 0 0-.311.694 2 2 0 0 0-.041.408q0 .213.025.441.032.221.131.409.147.31.449.523.302.204.743.204m6.605-3.741v4.304q0 .94-.49 1.43-.49.498-1.397.498a3.4 3.4 0 0 1-.989-.147 2 2 0 0 1-.8-.474l.302-.547q.318.253.678.4.367.147.768.147.335 0 .572-.106a.9.9 0 0 0 .384-.286q.155-.179.22-.433a2 2 0 0 0 .074-.547v-.514a1.3 1.3 0 0 1-.27.294 1.6 1.6 0 0 1-.343.204q-.18.073-.392.106a2 2 0 0 1-.417.041q-.49-.008-.817-.155a1.3 1.3 0 0 1-.514-.409 1.7 1.7 0 0 1-.27-.621 3.8 3.8 0 0 1-.081-.808v-2.377h.694v2.18q0 .295.033.581.04.285.155.506a.9.9 0 0 0 .335.359q.22.131.588.131t.621-.155q.26-.155.4-.392a1.5 1.5 0 0 0 .204-.539q.057-.294.057-.605v-2.066zm4.96 4.37q-.343 0-.695-.066a2.4 2.4 0 0 1-.645-.22 1.7 1.7 0 0 1-.506-.425 1.34 1.34 0 0 1-.262-.645h.735a.86.86 0 0 0 .221.351q.155.13.343.212.197.082.408.115.213.033.409.033.18 0 .408-.033.229-.033.425-.139a.9.9 0 0 0 .335-.31q.14-.213.139-.556 0-.327-.131-.523a.83.83 0 0 0-.327-.302q-.195-.105-.449-.139a4 4 0 0 0-.498-.032h-.556v-.638h.335q.22 0 .409-.008.188-.016.416-.114.262-.123.417-.343a.96.96 0 0 0 .163-.523 1 1 0 0 0-.098-.482.76.76 0 0 0-.261-.294.9.9 0 0 0-.368-.139 2 2 0 0 0-.416-.04 1.7 1.7 0 0 0-.36.04 1.3 1.3 0 0 0-.343.115 1 1 0 0 0-.278.22.73.73 0 0 0-.171.319h-.711a1.36 1.36 0 0 1 .229-.613q.18-.254.441-.417.27-.163.588-.237a3 3 0 0 1 1.348.009q.327.073.572.253.245.172.384.457.147.285.147.695 0 .155-.033.335a1.27 1.27 0 0 1-.384.686q-.171.171-.449.286.548.105.833.482.286.367.286.89v.033q0 .449-.163.776a1.5 1.5 0 0 1-.433.531 1.9 1.9 0 0 1-.654.302 3.2 3.2 0 0 1-.8.098m7.406-2.949q0 .555-.115 1.086-.106.531-.367.948a2 2 0 0 1-.695.662q-.433.252-1.078.253-.654 0-1.086-.253a2 2 0 0 1-.695-.662 2.8 2.8 0 0 1-.367-.931 5.4 5.4 0 0 1-.106-1.103q0-.588.106-1.103a2.7 2.7 0 0 1 .367-.931q.262-.408.695-.662.432-.261 1.086-.261.646 0 1.078.253t.695.67q.26.417.367.948.115.53.115 1.086m-3.782 0q0 .392.057.8.057.41.22.744.164.335.458.547.302.213.792.213.482 0 .776-.213.303-.212.466-.547t.22-.743q.057-.41.057-.801 0-.384-.057-.792a2.5 2.5 0 0 0-.22-.744 1.4 1.4 0 0 0-.466-.555q-.294-.22-.776-.22-.49 0-.792.22a1.43 1.43 0 0 0-.458.555 2.5 2.5 0 0 0-.22.744 6 6 0 0 0-.057.792m5.832-.4q-.294 0-.523-.098a1 1 0 0 1-.367-.27 1.4 1.4 0 0 1-.229-.408 1.7 1.7 0 0 1-.073-.507q0-.278.073-.506.082-.237.229-.409.155-.171.376-.261.22-.098.514-.098.572 0 .874.36.303.35.303.914 0 .27-.082.507a1.2 1.2 0 0 1-.221.408 1 1 0 0 1-.367.27 1.2 1.2 0 0 1-.507.098m-.539 3.283 3.553-5.775h.719l-3.545 5.775zm.539-5.26q-.327 0-.465.212a.86.86 0 0 0-.139.482q0 .286.139.498.138.205.465.205.31 0 .441-.213a.9.9 0 0 0 .131-.49q0-.27-.131-.482-.13-.212-.441-.212m3.235 5.31q-.294 0-.523-.099a1.1 1.1 0 0 1-.376-.269 1.4 1.4 0 0 1-.228-.409 1.7 1.7 0 0 1-.074-.506q0-.278.074-.506.081-.237.237-.409a1 1 0 0 1 .375-.261q.22-.099.515-.098.278 0 .498.098.22.09.368.261.155.171.229.409.081.228.081.506 0 .27-.081.506a1.2 1.2 0 0 1-.229.409 1 1 0 0 1-.368.269 1.2 1.2 0 0 1-.498.099m-.008-1.977q-.327 0-.466.212a.9.9 0 0 0-.13.482.9.9 0 0 0 .138.498q.139.204.458.205.318 0 .441-.213a.9.9 0 0 0 .131-.49q0-.27-.131-.482-.123-.212-.441-.212"/></g><g filter="url(#g)"><rect width="158.703" height="83.01" x="9.336" y="128.016" fill="#fff" rx="6.643"/><path fill="#82808E" d="m23.295 146.352-.457-1.242h-2.86l-.457 1.242h-.767l2.148-5.775h1.021l2.14 5.775zm-1.887-5.155-1.192 3.268H22.6zm2.464.85h.785l1.355 3.635 1.332-3.635h.792l-1.658 4.305h-.947zm5.327 2.41q.025.285.115.531.098.236.261.416t.4.286q.246.098.564.098.155 0 .319-.024.171-.033.318-.098.147-.074.262-.188a.7.7 0 0 0 .171-.278h.71q-.073.31-.253.539a1.4 1.4 0 0 1-.416.376 1.9 1.9 0 0 1-.531.22 2.7 2.7 0 0 1-.596.066 2.3 2.3 0 0 1-.899-.164 1.8 1.8 0 0 1-.629-.449 1.9 1.9 0 0 1-.376-.694 3 3 0 0 1-.122-.891q0-.482.13-.882.14-.408.393-.702t.62-.458.875-.163q.515 0 .89.204.376.204.604.539.23.327.319.711a2.4 2.4 0 0 1 .073.858q0 .074-.008.147zm2.508-.605q-.015-.547-.343-.89t-.874-.343q-.302 0-.531.098-.228.098-.384.269a1.3 1.3 0 0 0-.245.401q-.09.22-.114.465zm1.554 2.5v-4.305h.67l.033.67q.236-.376.604-.548.368-.171.833-.171h.22v.653h-.252a1.5 1.5 0 0 0-.654.131q-.27.123-.441.343-.163.213-.245.507a2.6 2.6 0 0 0-.074.62v2.1zm5.8-.548a1.2 1.2 0 0 1-.318.303q-.18.114-.376.179a2 2 0 0 1-.384.09 3 3 0 0 1-.376.025q-.302 0-.572-.074a1.5 1.5 0 0 1-.49-.237 1.25 1.25 0 0 1-.343-.408 1.2 1.2 0 0 1-.122-.556q0-.368.13-.612.139-.253.368-.409t.523-.212q.302-.065.637-.065h1.266q0-.548-.237-.866-.237-.327-.8-.343a1.5 1.5 0 0 0-.605.114.64.64 0 0 0-.36.376h-.743q.057-.294.23-.498.17-.213.408-.344.236-.138.514-.204a2.5 2.5 0 0 1 .556-.065q.48 0 .808.163.335.156.54.417.203.254.285.621.082.368.082.825v2.328h-.58zm-.817-1.396q-.196 0-.457.008a2.4 2.4 0 0 0-.49.049.7.7 0 0 0-.384.204.6.6 0 0 0-.139.408.64.64 0 0 0 .073.319.7.7 0 0 0 .197.221.9.9 0 0 0 .294.13q.162.041.334.041.613 0 .964-.294.36-.302.368-.874v-.212zm6.271 1.911q0 .915-.49 1.438t-1.478.523q-.327 0-.63-.074a1.7 1.7 0 0 1-.538-.237 1.5 1.5 0 0 1-.409-.4 1.5 1.5 0 0 1-.229-.572h.72a.7.7 0 0 0 .163.31.9.9 0 0 0 .277.205q.156.081.335.114t.351.033q.327 0 .564-.106a.96.96 0 0 0 .384-.278q.147-.18.212-.433.075-.245.074-.539v-.597a1.2 1.2 0 0 1-.605.54 2.2 2.2 0 0 1-.816.155 2.1 2.1 0 0 1-.85-.172 1.6 1.6 0 0 1-.588-.465 2 2 0 0 1-.343-.687 3.4 3.4 0 0 1-.106-.865q0-.466.114-.866.114-.41.351-.703a1.66 1.66 0 0 1 .596-.474q.36-.171.858-.171.376 0 .76.139.383.138.629.449l.033-.539h.661zm-2.026-3.7q-.35 0-.596.13a1.1 1.1 0 0 0-.4.335 1.5 1.5 0 0 0-.22.507q-.066.286-.066.612 0 .36.065.638.066.269.22.482.156.211.401.343.245.122.605.122.416 0 .686-.196a1.531 1.531 0 0 0 .596-.931 2.5 2.5 0 0 0-.008-1.021 1.3 1.3 0 0 0-.188-.458 1.4 1.4 0 0 0-.433-.4q-.27-.163-.662-.163m3.574 1.838q.025.285.115.531.097.236.261.416.163.18.4.286.246.098.564.098.155 0 .319-.024.171-.033.318-.098.147-.074.261-.188a.7.7 0 0 0 .172-.278h.71a1.4 1.4 0 0 1-.252.539 1.4 1.4 0 0 1-.417.376 1.9 1.9 0 0 1-.531.22 2.7 2.7 0 0 1-.596.066 2.3 2.3 0 0 1-.899-.164 1.8 1.8 0 0 1-.629-.449 1.9 1.9 0 0 1-.376-.694 3 3 0 0 1-.122-.891q0-.482.13-.882.14-.408.393-.702.252-.294.62-.458.368-.163.874-.163.515 0 .89.204.377.204.605.539.23.327.319.711a2.4 2.4 0 0 1 .073.858q0 .074-.008.147zm2.508-.605q-.016-.547-.343-.89-.328-.343-.874-.343-.303 0-.531.098t-.384.269a1.3 1.3 0 0 0-.245.401q-.09.22-.114.465zm3.674 4.052v-5.857h.662l.032.645q.22-.335.597-.506.383-.18.825-.188.498 0 .841.171.352.164.58.466.237.294.351.703.115.4.115.865 0 .475-.115.874a1.95 1.95 0 0 1-.351.695 1.7 1.7 0 0 1-.596.465q-.36.164-.858.164-.49 0-.833-.155a1.4 1.4 0 0 1-.556-.433v2.091zm2.026-2.116q.351 0 .588-.122.245-.132.392-.343.156-.221.22-.507.075-.286.082-.613a2.5 2.5 0 0 0-.073-.612 1.35 1.35 0 0 0-.22-.507 1.1 1.1 0 0 0-.41-.335 1.25 1.25 0 0 0-.596-.13 1.16 1.16 0 0 0-.718.228 1.4 1.4 0 0 0-.458.564q-.09.188-.122.392a2.5 2.5 0 0 0-.033.409q0 .244.033.457.032.204.122.392.155.31.45.523.302.204.743.204m2.822.564v-4.305h.67l.033.67q.237-.376.604-.548.368-.171.833-.171h.22v.653h-.252a1.5 1.5 0 0 0-.654.131q-.27.123-.44.343-.164.213-.246.507a2.6 2.6 0 0 0-.073.62v2.1zm3.366-5.882q.195 0 .335.131a.42.42 0 0 1 .139.327.44.44 0 0 1-.139.335.47.47 0 0 1-.335.13.45.45 0 0 1-.335-.13.45.45 0 0 1-.13-.335q0-.204.13-.327a.45.45 0 0 1 .335-.131m-.343 5.882v-4.305h.694v4.305zm3.606.049a2.2 2.2 0 0 1-.89-.164 1.65 1.65 0 0 1-.622-.457 2 2 0 0 1-.367-.694 3 3 0 0 1-.123-.874q0-.458.131-.858.13-.408.384-.703.253-.302.637-.473.384-.18.931-.18.327 0 .58.073.253.066.474.221.229.147.392.392t.237.596h-.71q-.123-.359-.393-.514a1.13 1.13 0 0 0-.62-.147q-.353 0-.621.139a1.2 1.2 0 0 0-.425.351q-.156.22-.229.514a2.42 2.42 0 0 0 0 1.193q.082.286.237.507.163.211.417.343.252.122.604.122.171 0 .335-.033.172-.032.31-.106a.826.826 0 0 0 .408-.531h.72a1.5 1.5 0 0 1-.646.981 1.8 1.8 0 0 1-.539.228q-.294.074-.612.074m3.134-1.944q.025.285.115.531.098.236.26.416.164.18.401.286.245.098.564.098.155 0 .318-.024.171-.033.319-.098.147-.074.261-.188a.7.7 0 0 0 .172-.278h.71a1.4 1.4 0 0 1-.253.539 1.4 1.4 0 0 1-.416.376 1.9 1.9 0 0 1-.531.22 2.7 2.7 0 0 1-.597.066 2.3 2.3 0 0 1-.898-.164 1.8 1.8 0 0 1-.63-.449 1.9 1.9 0 0 1-.375-.694 3 3 0 0 1-.122-.891q0-.482.13-.882.14-.408.392-.702.254-.294.621-.458.368-.163.874-.163.515 0 .89.204.377.204.605.539.23.327.319.711a2.4 2.4 0 0 1 .073.858q0 .074-.008.147zm2.508-.605q-.016-.547-.343-.89-.328-.343-.874-.343-.303 0-.531.098t-.384.269a1.3 1.3 0 0 0-.245.401q-.09.22-.114.465zm3.674 4.052v-5.857h.662l.032.645q.22-.335.597-.506.382-.18.825-.188.498 0 .84.171.352.164.58.466.238.294.352.703.114.4.114.865 0 .475-.114.874a1.95 1.95 0 0 1-.351.695 1.7 1.7 0 0 1-.597.465q-.36.164-.857.164-.49 0-.833-.155a1.4 1.4 0 0 1-.556-.433v2.091zm2.026-2.116q.351 0 .588-.122.245-.132.392-.343.155-.221.22-.507.075-.286.082-.613a2.5 2.5 0 0 0-.073-.612 1.35 1.35 0 0 0-.22-.507 1.1 1.1 0 0 0-.41-.335 1.25 1.25 0 0 0-.596-.13 1.16 1.16 0 0 0-.718.228 1.4 1.4 0 0 0-.458.564q-.09.188-.122.392a2.5 2.5 0 0 0-.033.409q0 .244.033.457.032.204.122.392.155.31.45.523.301.204.743.204m3.361-1.331q.025.285.115.531.098.236.26.416.164.18.401.286.245.098.564.098.155 0 .318-.024.171-.033.319-.098.147-.074.261-.188a.7.7 0 0 0 .172-.278h.71q-.073.31-.253.539a1.4 1.4 0 0 1-.416.376 1.9 1.9 0 0 1-.531.22 2.7 2.7 0 0 1-.596.066 2.3 2.3 0 0 1-.9-.164 1.8 1.8 0 0 1-.628-.449 1.9 1.9 0 0 1-.376-.694 3 3 0 0 1-.122-.891q0-.482.13-.882.14-.408.393-.702.252-.294.62-.458.368-.163.874-.163.515 0 .89.204.377.204.605.539.23.327.319.711a2.4 2.4 0 0 1 .073.858q0 .074-.008.147zm2.508-.605q-.016-.547-.343-.89-.328-.343-.874-.343-.303 0-.531.098t-.384.269a1.3 1.3 0 0 0-.245.401q-.09.22-.114.465zm1.554 2.5v-4.305h.67l.032.67q.237-.376.605-.548.368-.171.833-.171h.22v.653h-.253a1.5 1.5 0 0 0-.653.131q-.27.123-.441.343-.164.213-.245.507-.075.294-.074.62v2.1zm6.621-3.733q-.147 0-.302.024a1 1 0 0 0-.294.082.65.65 0 0 0-.245.18.5.5 0 0 0-.106.31q0 .278.204.417.212.138.547.204.14.032.302.065.165.026.319.057a4 4 0 0 1 .547.123q.784.245.784 1.054-.007.391-.171.637a1.15 1.15 0 0 1-.4.376q-.236.138-.548.196a3.3 3.3 0 0 1-1.2 0 1.9 1.9 0 0 1-.556-.196 1.6 1.6 0 0 1-.425-.376 1.3 1.3 0 0 1-.22-.588h.702q.066.196.204.31.14.114.294.18.164.065.303.09.147.024.327.024.13 0 .302-.016.171-.017.326-.074a.7.7 0 0 0 .262-.188.5.5 0 0 0 .106-.343q0-.245-.163-.367a1 1 0 0 0-.433-.18 8 8 0 0 0-.409-.074l-.416-.081a9 9 0 0 1-.4-.106 1.8 1.8 0 0 1-.368-.172 1.06 1.06 0 0 1-.368-.376 1.13 1.13 0 0 1-.138-.58q.016-.358.163-.588.147-.237.376-.384.245-.147.522-.204a3 3 0 0 1 .588-.057q.663 0 1.054.286.237.163.368.392.13.228.163.482h-.645a.6.6 0 0 0-.31-.384q-.254-.147-.646-.155m6.378 5.285h-.694v-2.198a1.2 1.2 0 0 1-.605.54 2.2 2.2 0 0 1-.817.155 2.1 2.1 0 0 1-.85-.172 1.6 1.6 0 0 1-.587-.465 2 2 0 0 1-.343-.687 3.4 3.4 0 0 1-.106-.865q0-.466.114-.866.114-.41.351-.703.237-.302.596-.474a2 2 0 0 1 .858-.171q.376 0 .76.139.383.138.629.449l.032-.539h.662zm-2.026-5.285q-.351 0-.596.13a1.1 1.1 0 0 0-.4.335 1.5 1.5 0 0 0-.22.507q-.066.286-.066.612 0 .36.065.638.066.269.22.482.156.211.401.343.245.122.605.122.416 0 .686-.196t.433-.49q.114-.204.163-.441.05-.237.049-.482 0-.294-.057-.539a1.3 1.3 0 0 0-.188-.458 1.4 1.4 0 0 0-.433-.4q-.27-.163-.662-.163m3.738-.057q.204-.287.498-.425a1.6 1.6 0 0 1 .67-.139q.449.008.727.196t.416.498q.22-.327.539-.506.327-.188.768-.188.351 0 .605.122.253.115.408.327.156.204.229.482t.073.605v2.818h-.694v-2.467q0-.213-.024-.433a1.2 1.2 0 0 0-.099-.409.7.7 0 0 0-.245-.302q-.163-.122-.441-.122a.8.8 0 0 0-.457.13.9.9 0 0 0-.302.327q-.106.204-.156.449-.049.246-.049.482v2.345h-.694v-2.475q0-.204-.016-.425a1.2 1.2 0 0 0-.098-.409.67.67 0 0 0-.229-.302q-.155-.122-.433-.122a.87.87 0 0 0-.49.13 1.1 1.1 0 0 0-.31.335 1.5 1.5 0 0 0-.164.458q-.04.244-.04.474v2.336h-.695v-4.305h.67z"/><g clip-path="url(#h)"><path stroke="#82808E" stroke-linecap="round" stroke-linejoin="round" stroke-miterlimit="10" stroke-width=".583" d="M154.037 141.858h.003m-.003 2.987v-1.867m3.734.374a3.734 3.734 0 1 1-7.469 0 3.734 3.734 0 0 1 7.469 0"/></g><path fill="#03030A" d="M21.564 167.607q.28-.246.618-.537.351-.292.654-.607.315-.327.513-.7.21-.374.21-.805 0-.631-.373-1.016-.374-.385-1.074-.385-.56 0-.945.257a1.08 1.08 0 0 0-.478.688h-1.33q.046-.536.291-.956.257-.42.642-.689a2.6 2.6 0 0 1 .84-.385 4 4 0 0 1 1.062-.128q.56 0 1.05.151.49.152.852.455.374.304.584.771.22.455.221 1.073a3 3 0 0 1-.478 1.657 4 4 0 0 1-.514.654 7 7 0 0 1-.595.572q-.42.362-.747.63l-.571.466q-.258.21-.467.386-.21.162-.397.326h3.77v1.202h-5.614v-1.108zm5.307 3.174a.94.94 0 0 1-.584-.234q-.22-.222-.221-.595 0-.408.256-.618a.85.85 0 0 1 .572-.222h.07q.525.035.724.373.198.339.198.712v.117q0 .338-.128.665a2.7 2.7 0 0 1-.339.63q-.21.292-.478.502a1.7 1.7 0 0 1-.56.315l-.35-.478q.28-.2.513-.502.234-.304.327-.665m2.616-.094 3.186-7.036h-4.096v-1.214h5.625v1.05l-3.21 7.2zm10.144-8.25v5.473h.945v1.19h-.945v1.587h-1.342V169.1h-4.26v-.968l3.863-5.695zm-4.038 5.473h2.696v-4.038zm12.31-1.354q0 .945-.198 1.727a3.6 3.6 0 0 1-.595 1.319q-.398.549-1.004.852-.607.303-1.435.303t-1.436-.291a2.8 2.8 0 0 1-1.003-.841 3.8 3.8 0 0 1-.595-1.295 6.7 6.7 0 0 1-.199-1.692q0-.957.187-1.75.186-.794.584-1.366a2.65 2.65 0 0 1 1.003-.875q.619-.315 1.459-.315.816 0 1.423.303.608.304 1.004.864.408.56.607 1.342.198.77.198 1.715m-5.123 0q0 .642.094 1.191.093.548.315.956.222.397.583.631.361.22.899.221.525 0 .887-.221.36-.234.583-.631.222-.408.315-.956.093-.549.093-1.191 0-.63-.093-1.178a3 3 0 0 0-.315-.957 1.7 1.7 0 0 0-.583-.642q-.363-.233-.887-.233-.537 0-.899.233a1.7 1.7 0 0 0-.583.642 3 3 0 0 0-.315.957 7 7 0 0 0-.094 1.178m7.168 4.225a.94.94 0 0 1-.584-.234q-.22-.222-.221-.595 0-.408.257-.618a.85.85 0 0 1 .571-.222h.07q.526.035.724.373.198.339.198.712v.117q0 .338-.128.665a2.7 2.7 0 0 1-.339.63q-.21.292-.478.502a1.7 1.7 0 0 1-.56.315l-.35-.478q.28-.2.513-.502.234-.304.327-.665m8.696-4.225q0 .945-.198 1.727a3.6 3.6 0 0 1-.596 1.319q-.397.549-1.003.852-.607.303-1.435.303t-1.436-.291a2.8 2.8 0 0 1-1.003-.841 3.8 3.8 0 0 1-.596-1.295 6.7 6.7 0 0 1-.198-1.692q0-.957.187-1.75.187-.794.583-1.366a2.65 2.65 0 0 1 1.004-.875q.618-.315 1.459-.315.816 0 1.423.303.608.304 1.004.864.408.56.607 1.342.198.77.198 1.715m-5.123 0q0 .642.093 1.191.094.548.316.956.221.397.583.631.361.22.899.221.525 0 .886-.221.362-.234.584-.631.222-.408.315-.956a7 7 0 0 0 .093-1.191q0-.63-.093-1.178a3 3 0 0 0-.315-.957 1.7 1.7 0 0 0-.584-.642q-.36-.233-.886-.233-.537 0-.899.233a1.7 1.7 0 0 0-.584.642 3 3 0 0 0-.315.957 7 7 0 0 0-.093 1.178m12.676 0q0 .945-.199 1.727a3.6 3.6 0 0 1-.595 1.319q-.397.549-1.003.852-.607.303-1.436.303-.828 0-1.435-.291a2.8 2.8 0 0 1-1.004-.841 3.8 3.8 0 0 1-.595-1.295 6.7 6.7 0 0 1-.198-1.692q0-.957.187-1.75.187-.794.583-1.366.397-.572 1.004-.875.618-.315 1.458-.315.818 0 1.424.303.606.304 1.003.864.41.56.607 1.342.2.77.199 1.715m-5.123 0q0 .642.093 1.191.093.548.315.956.222.397.584.631.36.22.898.221.525 0 .887-.221.362-.234.584-.631.22-.408.315-.956a7 7 0 0 0 .093-1.191q0-.63-.093-1.178a3 3 0 0 0-.315-.957 1.7 1.7 0 0 0-.584-.642q-.362-.233-.887-.233-.537 0-.898.233a1.7 1.7 0 0 0-.584.642 3 3 0 0 0-.315.957 7 7 0 0 0-.093 1.178m12.675 0q0 .945-.198 1.727a3.6 3.6 0 0 1-.595 1.319q-.398.549-1.004.852t-1.435.303q-.828 0-1.435-.291a2.8 2.8 0 0 1-1.004-.841 3.8 3.8 0 0 1-.595-1.295 6.7 6.7 0 0 1-.198-1.692q0-.957.186-1.75.188-.794.584-1.366a2.65 2.65 0 0 1 1.003-.875q.62-.315 1.459-.315.818 0 1.424.303.606.304 1.003.864.409.56.607 1.342.198.77.198 1.715m-5.122 0q0 .642.093 1.191.093.548.315.956.221.397.584.631.36.22.898.221.525 0 .887-.221.362-.234.583-.631.222-.408.315-.956.094-.549.094-1.191 0-.63-.094-1.178a3 3 0 0 0-.315-.957 1.7 1.7 0 0 0-.583-.642q-.362-.233-.887-.233-.537 0-.898.233a1.7 1.7 0 0 0-.584.642 3 3 0 0 0-.315.957 7 7 0 0 0-.093 1.178"/><path fill="#82808E" d="m82.042 172.687-.457-1.241h-2.859l-.457 1.241H77.5l2.148-5.775h1.021l2.14 5.775zm-1.886-5.154-1.193 3.267h2.385zm3.364-.621h3.88v.645h-3.17v1.944h2.852v.654H84.23v1.887h3.17v.645h-3.88zm4.904 0h2.05q.671 0 1.177.212.515.205.858.589.343.375.514.914.172.532.172 1.177-.009.645-.18 1.176a2.5 2.5 0 0 1-.515.915q-.334.375-.841.588-.507.204-1.184.204h-2.05zm.71.645v4.485h1.292q.441 0 .84-.131.41-.138.695-.482.261-.302.384-.71.123-.417.123-.915 0-.514-.123-.915a2 2 0 0 0-.367-.694 1.7 1.7 0 0 0-.621-.466 2.1 2.1 0 0 0-.89-.172z"/><path fill="#16C552" d="M124.649 171.687h-1.083v-5.078h-1.344v-.738q.55-.018.971-.177.42-.168.663-.607h.793zm2.911-2.464.495-.43q.28-.233.523-.485.252-.261.411-.56.168-.3.168-.645 0-.504-.299-.812t-.859-.308a1.33 1.33 0 0 0-.756.206.86.86 0 0 0-.383.55h-1.064a1.8 1.8 0 0 1 .233-.765 1.8 1.8 0 0 1 .514-.551q.308-.215.672-.308.373-.103.849-.103.448 0 .841.122.391.121.681.364.299.243.467.616.177.364.177.859a2.4 2.4 0 0 1-.383 1.325 3.3 3.3 0 0 1-.41.523q-.225.243-.476.458a34 34 0 0 1-.598.504l-.831.681a7 7 0 0 0-.317.262h3.015v.961h-4.49v-.887zm4.246 2.539a.76.76 0 0 1-.467-.187.64.64 0 0 1-.177-.476q0-.327.205-.495a.68.68 0 0 1 .458-.177h.056q.42.028.578.299.159.27.159.569v.093q0 .271-.103.533-.102.27-.27.504t-.383.401a1.4 1.4 0 0 1-.448.252l-.28-.383q.224-.158.41-.401.187-.243.262-.532m1.981-2.978.355-3.697h3.977v.962h-3.072l-.187 1.717q.272-.177.579-.27.318-.103.756-.103.495 0 .897.149.401.141.69.411.29.27.439.663.159.392.159.887 0 .532-.187.952-.186.42-.513.709a2.4 2.4 0 0 1-.766.449 3 3 0 0 1-.952.149q-.438 0-.831-.103a2.3 2.3 0 0 1-.7-.317 1.9 1.9 0 0 1-.523-.551 2.15 2.15 0 0 1-.27-.812h1.073a1 1 0 0 0 .177.345q.131.15.299.252t.364.159a1.7 1.7 0 0 0 .392.047q.28 0 .523-.066.243-.074.42-.224.187-.149.29-.373.102-.234.102-.56 0-.599-.354-.915-.346-.318-.915-.318-.355 0-.644.122a1.8 1.8 0 0 0-.523.336zm6.948-.728q-.365 0-.644-.122a1.5 1.5 0 0 1-.467-.326 1.3 1.3 0 0 1-.28-.486 1.9 1.9 0 0 1-.093-.607q0-.672.373-1.101.382-.44 1.111-.439.71 0 1.083.439.383.429.383 1.101 0 .327-.103.607a1.35 1.35 0 0 1-.28.486 1.4 1.4 0 0 1-.458.326q-.27.122-.625.122m-.719 3.631 4.145-6.6h1.064l-4.145 6.6zm.719-5.9q-.356 0-.495.224a.9.9 0 0 0-.14.504q0 .3.14.514t.495.215q.336 0 .467-.215.13-.225.13-.514a.95.95 0 0 0-.13-.504q-.13-.224-.467-.224m3.827 6.003q-.363 0-.644-.121a1.5 1.5 0 0 1-.466-.327 1.35 1.35 0 0 1-.281-.486 1.9 1.9 0 0 1-.093-.606q0-.673.374-1.102.382-.44 1.11-.439.71 0 1.093.439.382.429.382 1.102 0 .326-.102.606a1.35 1.35 0 0 1-.28.486q-.187.206-.467.327-.271.12-.626.121m-.009-2.269q-.336 0-.485.215a.9.9 0 0 0-.14.514q0 .298.14.513.149.215.485.215.345 0 .476-.215.13-.224.131-.513 0-.15-.028-.281a.54.54 0 0 0-.103-.224.43.43 0 0 0-.186-.158.57.57 0 0 0-.29-.066"/><g stroke="#16C552" stroke-linecap="round" stroke-linejoin="round" stroke-width=".875" clip-path="url(#i)"><path d="M155.593 166.613h2.074v2.074"/><path d="m157.668 166.613-2.93 2.93a.26.26 0 0 1-.363 0l-1.193-1.193a.26.26 0 0 0-.363 0l-1.893 1.893"/></g></g><g filter="url(#j)"><rect width="158.703" height="83.01" x="177.375" y="128.016" fill="#fff" rx="6.643"/><path fill="#82808E" d="M187.422 140.577h2.001q.955 0 1.495.473.539.466.539 1.446a2 2 0 0 1-.18.874 1.64 1.64 0 0 1-.482.621 1.9 1.9 0 0 1-.653.335q-.392.123-.866.122h-1.144v1.904h-.71zm1.821 3.226q.31 0 .605-.073a1.17 1.17 0 0 0 .776-.654q.105-.237.106-.612 0-1.242-1.34-1.242h-1.258v2.581zm3.079 2.549v-4.305h.67l.032.67q.237-.376.605-.548.368-.171.833-.171h.22v.653h-.253q-.384 0-.653.131a1.15 1.15 0 0 0-.441.343 1.5 1.5 0 0 0-.245.507 2.6 2.6 0 0 0-.074.62v2.1zm3.366-5.882q.195 0 .335.131a.42.42 0 0 1 .138.327.44.44 0 0 1-.138.335.47.47 0 0 1-.335.13.45.45 0 0 1-.335-.13.45.45 0 0 1-.131-.335q0-.204.131-.327a.45.45 0 0 1 .335-.131m-.343 5.882v-4.305h.694v4.305zm3.605.049q-.515 0-.89-.164a1.64 1.64 0 0 1-.621-.457 2 2 0 0 1-.368-.694 3 3 0 0 1-.122-.874q0-.458.131-.858.13-.408.383-.703a1.75 1.75 0 0 1 .638-.473q.384-.18.931-.18.327 0 .58.073.254.066.474.221.228.147.392.392.163.245.237.596h-.711q-.123-.359-.392-.514a1.13 1.13 0 0 0-.621-.147q-.351 0-.621.139a1.2 1.2 0 0 0-.425.351 1.5 1.5 0 0 0-.228.514 2.42 2.42 0 0 0 0 1.193q.081.286.237.507.162.211.416.343.253.122.605.122.171 0 .335-.033a1.1 1.1 0 0 0 .31-.106.813.813 0 0 0 .408-.531h.719a1.47 1.47 0 0 1-.645.981 1.8 1.8 0 0 1-.539.228q-.294.074-.613.074m3.135-1.944q.024.285.114.531.098.236.261.416.164.18.401.286.245.098.563.098.156 0 .319-.024.171-.033.318-.098.148-.074.262-.188a.7.7 0 0 0 .171-.278h.711a1.4 1.4 0 0 1-.253.539 1.4 1.4 0 0 1-.417.376 1.9 1.9 0 0 1-.531.22 2.7 2.7 0 0 1-.596.066q-.515 0-.899-.164a1.8 1.8 0 0 1-.629-.449 1.9 1.9 0 0 1-.375-.694 3 3 0 0 1-.123-.891q0-.482.131-.882.138-.408.392-.702t.621-.458.874-.163q.515 0 .89.204.376.204.605.539.228.327.318.711a2.4 2.4 0 0 1 .074.858q0 .074-.008.147zm2.507-.605q-.015-.547-.343-.89-.326-.343-.874-.343a1.3 1.3 0 0 0-.531.098q-.228.098-.384.269a1.3 1.3 0 0 0-.245.401 1.7 1.7 0 0 0-.114.465zm3.674 2.5v-4.305h.67l.033.67q.237-.376.604-.548.368-.171.834-.171h.22v.653h-.253q-.384 0-.654.131a1.17 1.17 0 0 0-.441.343q-.163.213-.245.507a2.6 2.6 0 0 0-.073.62v2.1zm5.8-.548a1.2 1.2 0 0 1-.318.303 1.7 1.7 0 0 1-.376.179 2 2 0 0 1-.384.09q-.187.025-.376.025-.302 0-.571-.074a1.5 1.5 0 0 1-.49-.237 1.3 1.3 0 0 1-.344-.408 1.2 1.2 0 0 1-.122-.556q0-.368.131-.612a1.16 1.16 0 0 1 .367-.409q.23-.155.523-.212.303-.065.637-.065h1.266q0-.548-.237-.866-.236-.327-.8-.343-.343 0-.605.114a.64.64 0 0 0-.359.376h-.743a1.1 1.1 0 0 1 .228-.498q.172-.213.409-.344.237-.138.514-.204a2.5 2.5 0 0 1 .556-.065q.482 0 .809.163.335.156.539.417.204.254.286.621.081.368.081.825v2.328h-.58zm-.816-1.396q-.197 0-.458.008-.253 0-.49.049a.7.7 0 0 0-.384.204.6.6 0 0 0-.139.408.64.64 0 0 0 .27.54.9.9 0 0 0 .294.13q.163.041.335.041.612 0 .964-.294.359-.302.367-.874v-.212zm2.431 1.944v-4.305h.67l.033.653q.107-.179.261-.31.164-.13.351-.221.188-.089.393-.13a2 2 0 0 1 .408-.041q.465 0 .784.155.319.147.507.417.188.261.269.629.082.359.082.776v2.377h-.694v-2.189a4 4 0 0 0-.041-.58 1.4 1.4 0 0 0-.147-.491.85.85 0 0 0-.311-.351q-.204-.13-.547-.13a1.2 1.2 0 0 0-.596.163 1.4 1.4 0 0 0-.409.368 1.6 1.6 0 0 0-.253.596 3 3 0 0 0-.065.645v1.969zm8.584-.033q0 .915-.49 1.438t-1.479.523q-.326 0-.629-.074a1.7 1.7 0 0 1-.539-.237 1.5 1.5 0 0 1-.408-.4 1.5 1.5 0 0 1-.229-.572h.719a.7.7 0 0 0 .163.31.9.9 0 0 0 .278.205q.156.081.335.114t.351.033q.327 0 .564-.106a.96.96 0 0 0 .384-.278q.147-.18.212-.433.074-.245.074-.539v-.597a1.2 1.2 0 0 1-.605.54 2.2 2.2 0 0 1-.817.155 2.1 2.1 0 0 1-.849-.172 1.6 1.6 0 0 1-.588-.465 2 2 0 0 1-.343-.687 3.4 3.4 0 0 1-.107-.865q0-.466.115-.866.114-.41.351-.703.237-.302.596-.474.36-.171.858-.171.376 0 .76.139.383.138.629.449l.032-.539h.662zm-2.026-3.7q-.351 0-.596.13a1.1 1.1 0 0 0-.4.335 1.5 1.5 0 0 0-.221.507q-.065.286-.065.612 0 .36.065.638.065.269.221.482.155.211.4.343.245.122.604.122.417 0 .687-.196t.432-.49q.115-.204.164-.441.05-.245.049-.482 0-.294-.057-.539a1.3 1.3 0 0 0-.188-.458 1.4 1.4 0 0 0-.433-.4q-.27-.163-.662-.163m3.574 1.838q.025.285.114.531.099.236.262.416t.4.286q.245.098.564.098.155 0 .318-.024.172-.033.319-.098a1 1 0 0 0 .261-.188.7.7 0 0 0 .172-.278h.71a1.4 1.4 0 0 1-.253.539 1.4 1.4 0 0 1-.416.376 1.9 1.9 0 0 1-.531.22 2.7 2.7 0 0 1-.597.066q-.514 0-.898-.164a1.8 1.8 0 0 1-.629-.449 1.9 1.9 0 0 1-.376-.694 3 3 0 0 1-.122-.891q0-.482.13-.882a2.1 2.1 0 0 1 .392-.702q.254-.294.621-.458a2.1 2.1 0 0 1 .874-.163q.514 0 .891.204.375.204.604.539.23.327.319.711a2.4 2.4 0 0 1 .073.858q0 .074-.008.147zm2.508-.605q-.016-.547-.343-.89t-.874-.343q-.303 0-.531.098a1.1 1.1 0 0 0-.384.269 1.3 1.3 0 0 0-.245.401q-.09.22-.115.465z"/><g clip-path="url(#k)"><path stroke="#82808E" stroke-linecap="round" stroke-linejoin="round" stroke-miterlimit="10" stroke-width=".583" d="M322.076 141.858h.003m-.003 2.987v-1.867m3.734.374a3.734 3.734 0 1 1-7.469 0 3.734 3.734 0 0 1 7.469 0"/></g><path fill="#03030A" d="M189.407 167.607q.28-.246.619-.537.35-.292.653-.607a3.1 3.1 0 0 0 .514-.7q.21-.374.21-.805 0-.631-.374-1.016-.373-.385-1.073-.385-.561 0-.945.257a1.08 1.08 0 0 0-.479.688h-1.33q.046-.536.292-.956.257-.42.641-.689a2.6 2.6 0 0 1 .841-.385 4 4 0 0 1 1.062-.128q.56 0 1.05.151.49.152.852.455.373.304.583.771.222.455.222 1.073 0 .49-.129.899a3.2 3.2 0 0 1-.35.758 4 4 0 0 1-.513.654 7 7 0 0 1-.595.572q-.42.362-.747.63l-.572.466q-.257.21-.467.386-.21.162-.396.326h3.769v1.202h-5.613v-1.108zm5.307 3.174a.94.94 0 0 1-.583-.234q-.222-.222-.222-.595 0-.408.257-.618a.85.85 0 0 1 .572-.222h.07q.525.035.723.373.199.339.199.712v.117a1.8 1.8 0 0 1-.129.665 2.7 2.7 0 0 1-.338.63q-.21.292-.479.502a1.7 1.7 0 0 1-.56.315l-.35-.478q.28-.2.514-.502.233-.304.326-.665m2.617-.094 3.185-7.036h-4.096v-1.214h5.625v1.05l-3.209 7.2zm10.143-8.25v5.473h.946v1.19h-.946v1.587h-1.341V169.1h-4.26v-.968l3.863-5.695zm-4.037 5.473h2.696v-4.038zm12.31-1.354q0 .945-.199 1.727a3.6 3.6 0 0 1-.595 1.319q-.397.549-1.003.852-.607.303-1.436.303-.828 0-1.435-.291a2.8 2.8 0 0 1-1.004-.841 3.8 3.8 0 0 1-.595-1.295 6.7 6.7 0 0 1-.198-1.692q0-.957.187-1.75.186-.794.583-1.366a2.65 2.65 0 0 1 1.004-.875q.618-.315 1.458-.315.817 0 1.424.303.606.304 1.004.864.408.56.606 1.342.2.77.199 1.715m-5.123 0q0 .642.093 1.191.093.548.315.956.222.397.584.631.361.22.898.221.525 0 .887-.221.362-.234.584-.631.22-.408.315-.956.093-.549.093-1.191 0-.63-.093-1.178a3 3 0 0 0-.315-.957 1.7 1.7 0 0 0-.584-.642q-.362-.233-.887-.233-.537 0-.898.233a1.7 1.7 0 0 0-.584.642 2.9 2.9 0 0 0-.315.957 7 7 0 0 0-.093 1.178m7.167 4.225a.94.94 0 0 1-.583-.234q-.222-.222-.222-.595 0-.408.257-.618a.85.85 0 0 1 .572-.222h.07q.525.035.723.373.2.339.199.712v.117a1.8 1.8 0 0 1-.129.665 2.7 2.7 0 0 1-.338.63q-.21.292-.479.502a1.7 1.7 0 0 1-.56.315l-.35-.478q.28-.2.514-.502.233-.304.326-.665m8.697-4.225a7 7 0 0 1-.199 1.727 3.6 3.6 0 0 1-.595 1.319q-.396.549-1.004.852-.607.303-1.435.303t-1.435-.291a2.8 2.8 0 0 1-1.004-.841 3.8 3.8 0 0 1-.595-1.295 6.7 6.7 0 0 1-.198-1.692q0-.957.186-1.75.187-.794.584-1.366a2.65 2.65 0 0 1 1.003-.875q.62-.315 1.459-.315.817 0 1.424.303.607.304 1.003.864.41.56.607 1.342.198.77.199 1.715m-5.123 0q0 .642.093 1.191.093.548.315.956.221.397.584.631.361.22.898.221.525 0 .887-.221.362-.234.583-.631a3.1 3.1 0 0 0 .316-.956q.093-.549.093-1.191 0-.63-.093-1.178a3 3 0 0 0-.316-.957 1.7 1.7 0 0 0-.583-.642q-.362-.233-.887-.233-.537 0-.898.233a1.7 1.7 0 0 0-.584.642 2.9 2.9 0 0 0-.315.957 7 7 0 0 0-.093 1.178m12.675 0q0 .945-.198 1.727a3.6 3.6 0 0 1-.595 1.319 2.7 2.7 0 0 1-1.004.852q-.606.303-1.435.303t-1.435-.291a2.8 2.8 0 0 1-1.004-.841 3.7 3.7 0 0 1-.595-1.295 6.7 6.7 0 0 1-.199-1.692q0-.957.187-1.75.187-.794.584-1.366a2.65 2.65 0 0 1 1.003-.875q.618-.315 1.459-.315.816 0 1.424.303.607.304 1.003.864.408.56.607 1.342.198.77.198 1.715m-5.123 0q0 .642.094 1.191.093.548.315.956.222.397.583.631.362.22.899.221.525 0 .887-.221.361-.234.583-.631.222-.408.315-.956.094-.549.094-1.191 0-.63-.094-1.178a2.9 2.9 0 0 0-.315-.957 1.7 1.7 0 0 0-.583-.642q-.362-.233-.887-.233-.537 0-.899.233a1.7 1.7 0 0 0-.583.642 2.9 2.9 0 0 0-.315.957 7 7 0 0 0-.094 1.178m12.676 0q0 .945-.198 1.727a3.6 3.6 0 0 1-.596 1.319q-.397.549-1.003.852-.607.303-1.435.303t-1.436-.291a2.8 2.8 0 0 1-1.003-.841 3.7 3.7 0 0 1-.595-1.295 6.7 6.7 0 0 1-.199-1.692q0-.957.187-1.75.186-.794.583-1.366a2.65 2.65 0 0 1 1.004-.875q.618-.315 1.459-.315.817 0 1.423.303.607.304 1.004.864.408.56.607 1.342.198.77.198 1.715m-5.123 0q0 .642.093 1.191.094.548.316.956.221.397.583.631.362.22.899.221.525 0 .886-.221a1.75 1.75 0 0 0 .584-.631q.222-.408.315-.956.093-.549.093-1.191 0-.63-.093-1.178a2.9 2.9 0 0 0-.315-.957 1.7 1.7 0 0 0-.584-.642q-.361-.233-.886-.233-.537 0-.899.233a1.7 1.7 0 0 0-.583.642 3 3 0 0 0-.316.957 7 7 0 0 0-.093 1.178m9.438.222h3.722v1.144h-3.722zm10.007.829q.28-.246.619-.537.35-.292.653-.607.315-.327.513-.7.211-.374.211-.805 0-.631-.374-1.016t-1.073-.385q-.56 0-.946.257a1.08 1.08 0 0 0-.478.688h-1.33q.047-.536.291-.956.256-.42.642-.689t.84-.385a4 4 0 0 1 1.062-.128q.561 0 1.05.151.49.152.852.455.374.304.584.771.222.455.221 1.073a2.98 2.98 0 0 1-.478 1.657 4 4 0 0 1-.513.654 7 7 0 0 1-.596.572q-.42.362-.746.63l-.572.466q-.257.21-.467.386-.21.162-.397.326h3.769v1.202h-5.612v-1.108zm5.307 3.174a.94.94 0 0 1-.583-.234q-.222-.222-.222-.595 0-.408.257-.618a.85.85 0 0 1 .571-.222h.07q.526.035.724.373.198.339.198.712v.117q0 .338-.128.665a2.7 2.7 0 0 1-.338.63q-.211.292-.479.502a1.7 1.7 0 0 1-.56.315l-.35-.478q.28-.2.513-.502a1.8 1.8 0 0 0 .327-.665m2.616-.094 3.186-7.036h-4.096v-1.214h5.625v1.05l-3.209 7.2zm10.144-8.25v5.473h.945v1.19h-.945v1.587h-1.342V169.1h-4.259v-.968l3.862-5.695zm-4.037 5.473h2.695v-4.038zm12.309-1.354q0 .945-.198 1.727a3.6 3.6 0 0 1-.595 1.319 2.7 2.7 0 0 1-1.004.852q-.606.303-1.435.303t-1.435-.291a2.8 2.8 0 0 1-1.004-.841 3.8 3.8 0 0 1-.595-1.295 6.7 6.7 0 0 1-.198-1.692q0-.957.186-1.75.187-.794.584-1.366a2.65 2.65 0 0 1 1.003-.875q.62-.315 1.459-.315.817 0 1.424.303.606.304 1.003.864.409.56.607 1.342.198.77.198 1.715m-5.122 0q0 .642.093 1.191.093.548.315.956.222.397.583.631.363.22.899.221.525 0 .887-.221.361-.234.583-.631.222-.408.315-.956.094-.549.094-1.191 0-.63-.094-1.178a2.9 2.9 0 0 0-.315-.957 1.7 1.7 0 0 0-.583-.642q-.362-.233-.887-.233-.536 0-.899.233a1.7 1.7 0 0 0-.583.642 2.9 2.9 0 0 0-.315.957 7 7 0 0 0-.093 1.178m7.167 4.225a.94.94 0 0 1-.583-.234q-.222-.222-.222-.595 0-.408.257-.618a.85.85 0 0 1 .572-.222h.07q.525.035.723.373.198.339.198.712v.117q0 .338-.128.665a2.7 2.7 0 0 1-.338.63q-.21.292-.479.502a1.7 1.7 0 0 1-.56.315l-.35-.478q.28-.2.513-.502a1.8 1.8 0 0 0 .327-.665m8.696-4.225q0 .945-.198 1.727a3.6 3.6 0 0 1-.595 1.319 2.7 2.7 0 0 1-1.004.852q-.606.303-1.435.303t-1.436-.291a2.8 2.8 0 0 1-1.003-.841 3.7 3.7 0 0 1-.595-1.295 6.7 6.7 0 0 1-.199-1.692q0-.957.187-1.75.187-.794.584-1.366a2.65 2.65 0 0 1 1.003-.875q.619-.315 1.459-.315.817 0 1.423.303.608.304 1.004.864.409.56.607 1.342.198.77.198 1.715m-5.123 0q0 .642.094 1.191.093.548.315.956.222.397.583.631.362.22.899.221.525 0 .887-.221.361-.234.583-.631.222-.408.315-.956.093-.549.094-1.191 0-.63-.094-1.178a2.9 2.9 0 0 0-.315-.957 1.7 1.7 0 0 0-.583-.642q-.362-.233-.887-.233-.537 0-.899.233a1.7 1.7 0 0 0-.583.642 2.9 2.9 0 0 0-.315.957 7 7 0 0 0-.094 1.178m12.676 0q0 .945-.198 1.727a3.6 3.6 0 0 1-.596 1.319q-.396.549-1.003.852t-1.435.303q-.829 0-1.436-.291a2.8 2.8 0 0 1-1.003-.841 3.7 3.7 0 0 1-.595-1.295 6.7 6.7 0 0 1-.199-1.692q0-.957.187-1.75.187-.794.583-1.366a2.65 2.65 0 0 1 1.004-.875q.618-.315 1.459-.315.816 0 1.423.303.607.304 1.004.864.408.56.607 1.342.198.77.198 1.715m-5.123 0q0 .642.093 1.191.094.548.316.956.221.397.583.631.362.22.899.221.525 0 .886-.221a1.75 1.75 0 0 0 .584-.631q.222-.408.315-.956.093-.549.093-1.191 0-.63-.093-1.178a2.9 2.9 0 0 0-.315-.957 1.7 1.7 0 0 0-.584-.642q-.361-.233-.886-.233-.537 0-.899.233a1.7 1.7 0 0 0-.583.642 3 3 0 0 0-.316.957 7 7 0 0 0-.093 1.178m12.676 0q0 .945-.199 1.727a3.6 3.6 0 0 1-.595 1.319q-.397.549-1.003.852-.607.303-1.436.303t-1.435-.291a2.8 2.8 0 0 1-1.004-.841 3.8 3.8 0 0 1-.595-1.295 6.7 6.7 0 0 1-.198-1.692q0-.957.187-1.75.187-.794.583-1.366a2.65 2.65 0 0 1 1.004-.875q.618-.315 1.458-.315.817 0 1.424.303.607.304 1.003.864.41.56.607 1.342.2.77.199 1.715m-5.123 0q0 .642.093 1.191.093.548.315.956.222.397.584.631.361.22.898.221.525 0 .887-.221.362-.234.584-.631.22-.408.315-.956.093-.549.093-1.191 0-.63-.093-1.178a3 3 0 0 0-.315-.957 1.7 1.7 0 0 0-.584-.642q-.362-.233-.887-.233-.537 0-.898.233a1.7 1.7 0 0 0-.584.642 2.9 2.9 0 0 0-.315.957 7 7 0 0 0-.093 1.178"/><path fill="#82808E" d="m316.081 172.687-.457-1.241h-2.859l-.457 1.241h-.768l2.148-5.775h1.021l2.14 5.775zm-1.886-5.154-1.193 3.267h2.385zm3.364-.621h3.88v.645h-3.169v1.944h2.851v.654h-2.851v1.887h3.169v.645h-3.88zm4.904 0h2.051q.669 0 1.176.212.515.205.858.589.342.375.514.914.172.532.172 1.177-.009.645-.18 1.176a2.5 2.5 0 0 1-.515.915q-.334.375-.841.588-.506.204-1.184.204h-2.051zm.711.645v4.485h1.291q.44 0 .841-.131.409-.138.694-.482.263-.302.384-.71.123-.417.123-.915 0-.514-.123-.915a2 2 0 0 0-.367-.694 1.7 1.7 0 0 0-.621-.466 2.1 2.1 0 0 0-.891-.172z"/></g><defs><clipPath id="b"><path fill="#fff" d="M149.369 41.671h9.335v9.335h-9.335z"/></clipPath><clipPath id="c"><path fill="#fff" d="M149.369 67.007h9.335v9.334h-9.335z"/></clipPath><clipPath id="e"><path fill="#fff" d="M317.408 41.671h9.335v9.335h-9.335z"/></clipPath><clipPath id="f"><path fill="#fff" d="M317.408 67.007h9.335v9.334h-9.335z"/></clipPath><clipPath id="h"><path fill="#fff" d="M149.369 138.684h9.335v9.335h-9.335z"/></clipPath><clipPath id="i"><path fill="#fff" d="M149.369 164.019h9.335v9.335h-9.335z"/></clipPath><clipPath id="k"><path fill="#fff" d="M317.408 138.684h9.335v9.335h-9.335z"/></clipPath><filter id="a" width="166.703" height="91.01" x="5.336" y="28.003" color-interpolation-filters="sRGB" filterUnits="userSpaceOnUse"><feFlood flood-opacity="0" result="BackgroundImageFix"/><feColorMatrix in="SourceAlpha" result="hardAlpha" values="0 0 0 0 0 0 0 0 0 0 0 0 0 0 0 0 0 0 127 0"/><feOffset dy="1"/><feGaussianBlur stdDeviation="2"/><feComposite in2="hardAlpha" operator="out"/><feColorMatrix values="0 0 0 0 0 0 0 0 0 0 0 0 0 0 0 0 0 0 0.04 0"/><feBlend in2="BackgroundImageFix" result="effect1_dropShadow_936_21253"/><feBlend in="SourceGraphic" in2="effect1_dropShadow_936_21253" result="shape"/></filter><filter id="d" width="166.703" height="91.01" x="173.375" y="28.003" color-interpolation-filters="sRGB" filterUnits="userSpaceOnUse"><feFlood flood-opacity="0" result="BackgroundImageFix"/><feColorMatrix in="SourceAlpha" result="hardAlpha" values="0 0 0 0 0 0 0 0 0 0 0 0 0 0 0 0 0 0 127 0"/><feOffset dy="1"/><feGaussianBlur stdDeviation="2"/><feComposite in2="hardAlpha" operator="out"/><feColorMatrix values="0 0 0 0 0 0 0 0 0 0 0 0 0 0 0 0 0 0 0.04 0"/><feBlend in2="BackgroundImageFix" result="effect1_dropShadow_936_21253"/><feBlend in="SourceGraphic" in2="effect1_dropShadow_936_21253" result="shape"/></filter><filter id="g" width="166.703" height="91.01" x="5.336" y="125.016" color-interpolation-filters="sRGB" filterUnits="userSpaceOnUse"><feFlood flood-opacity="0" result="BackgroundImageFix"/><feColorMatrix in="SourceAlpha" result="hardAlpha" values="0 0 0 0 0 0 0 0 0 0 0 0 0 0 0 0 0 0 127 0"/><feOffset dy="1"/><feGaussianBlur stdDeviation="2"/><feComposite in2="hardAlpha" operator="out"/><feColorMatrix values="0 0 0 0 0 0 0 0 0 0 0 0 0 0 0 0 0 0 0.04 0"/><feBlend in2="BackgroundImageFix" result="effect1_dropShadow_936_21253"/><feBlend in="SourceGraphic" in2="effect1_dropShadow_936_21253" result="shape"/></filter><filter id="j" width="166.703" height="91.01" x="173.375" y="125.016" color-interpolation-filters="sRGB" filterUnits="userSpaceOnUse"><feFlood flood-opacity="0" result="BackgroundImageFix"/><feColorMatrix in="SourceAlpha" result="hardAlpha" values="0 0 0 0 0 0 0 0 0 0 0 0 0 0 0 0 0 0 127 0"/><feOffset dy="1"/><feGaussianBlur stdDeviation="2"/><feComposite in2="hardAlpha" operator="out"/><feColorMatrix values="0 0 0 0 0 0 0 0 0 0 0 0 0 0 0 0 0 0 0.04 0"/><feBlend in2="BackgroundImageFix" result="effect1_dropShadow_936_21253"/><feBlend in="SourceGraphic" in2="effect1_dropShadow_936_21253" result="shape"/></filter></defs></svg>