<svg width="186" height="88" viewBox="0 0 186 88" fill="none" xmlns="http://www.w3.org/2000/svg">
<path d="M12.2168 22V14.9768H13.3194L16.985 20.8278V14.9768H17.8493V22H16.7665L13.081 16.1688V22H12.2168ZM21.4673 21.3146C21.9441 21.3146 22.2918 21.1722 22.5103 20.8874C22.7355 20.596 22.8481 20.192 22.8481 19.6755V16.7649H23.6924V19.7152C23.6924 20.5099 23.5004 21.0993 23.1163 21.4834C22.7388 21.8675 22.1891 22.0596 21.4673 22.0596C20.7454 22.0596 20.1957 21.8675 19.8183 21.4834C19.4474 21.0993 19.262 20.5099 19.262 19.7152V16.7649H20.1063V19.6755C20.1063 20.192 20.2189 20.596 20.4441 20.8874C20.6692 21.1722 21.0103 21.3146 21.4673 21.3146ZM25.7604 17.3907C25.9259 17.1589 26.1279 16.9867 26.3663 16.8741C26.6114 16.7616 26.8829 16.7053 27.1809 16.7053C27.5452 16.7119 27.8399 16.7914 28.065 16.9437C28.2902 17.096 28.4591 17.298 28.5717 17.5496C28.7505 17.2847 28.969 17.0794 29.2273 16.9337C29.4922 16.7814 29.8035 16.7053 30.1611 16.7053C30.4458 16.7053 30.6909 16.7549 30.8962 16.8543C31.1015 16.947 31.267 17.0794 31.3929 17.2516C31.5187 17.4172 31.6114 17.6126 31.671 17.8377C31.7306 18.0629 31.7604 18.3079 31.7604 18.5728V22H30.916V19C30.916 18.8278 30.9061 18.6523 30.8862 18.4735C30.873 18.2881 30.8333 18.1225 30.767 17.9768C30.7008 17.8245 30.6015 17.702 30.469 17.6093C30.3366 17.5099 30.1578 17.4602 29.9326 17.4602C29.714 17.4602 29.5286 17.5132 29.3763 17.6192C29.224 17.7185 29.1015 17.851 29.0087 18.0165C28.9227 18.1821 28.8597 18.3642 28.82 18.5629C28.7803 18.7616 28.7604 18.9569 28.7604 19.149V22H27.916V18.9901C27.916 18.8245 27.9094 18.6523 27.8962 18.4735C27.8829 18.2881 27.8432 18.1225 27.777 17.9768C27.7173 17.8245 27.6246 17.702 27.4988 17.6093C27.373 17.5099 27.1975 17.4602 26.9723 17.4602C26.7339 17.4602 26.5352 17.5132 26.3763 17.6192C26.224 17.7251 26.0981 17.8609 25.9988 18.0265C25.9061 18.192 25.8399 18.3775 25.8001 18.5828C25.767 18.7814 25.7505 18.9735 25.7505 19.1589V22H24.9061V16.7649H25.7206L25.7604 17.3907ZM32.9459 22V14.9768H33.7903V17.5397C33.9624 17.2748 34.2075 17.0695 34.5254 16.9238C34.8499 16.7715 35.181 16.6986 35.5187 16.7053C35.9161 16.7053 36.2572 16.7748 36.5419 16.9139C36.8333 17.053 37.0717 17.2417 37.2572 17.4801C37.4492 17.7185 37.5883 18.0033 37.6744 18.3344C37.7671 18.6589 37.8134 19.0099 37.8134 19.3874C37.8134 19.7649 37.7671 20.1159 37.6744 20.4404C37.5883 20.7583 37.4492 21.0364 37.2572 21.2748C37.0651 21.5132 36.8201 21.702 36.5221 21.8411C36.2307 21.9801 35.883 22.053 35.479 22.0596H35.3697C35.0121 22.0596 34.7009 21.9967 34.4359 21.8709C34.1777 21.745 33.9624 21.5762 33.7903 21.3642L33.7505 22H32.9459ZM35.4095 21.3146C35.6942 21.3146 35.9326 21.2649 36.1247 21.1656C36.3234 21.0596 36.4823 20.9205 36.6015 20.7483C36.7274 20.5695 36.8168 20.3642 36.8697 20.1324C36.9293 19.9007 36.9625 19.6523 36.9691 19.3874C36.9691 19.1225 36.9393 18.8742 36.8797 18.6424C36.8267 18.404 36.7373 18.1987 36.6115 18.0265C36.4856 17.8543 36.3201 17.7185 36.1148 17.6192C35.9161 17.5132 35.6744 17.4602 35.3896 17.4602C35.2307 17.4602 35.075 17.4867 34.9227 17.5397C34.7704 17.5927 34.6346 17.6655 34.5154 17.7583C34.3962 17.8444 34.2903 17.9437 34.1975 18.0563C34.1114 18.1689 34.0386 18.2881 33.979 18.4139C33.9061 18.5662 33.8532 18.7285 33.8201 18.9006C33.7869 19.0728 33.7704 19.2384 33.7704 19.3973C33.7704 19.5695 33.7803 19.7483 33.8002 19.9338C33.8267 20.1126 33.8797 20.2781 33.9591 20.4305C34.0783 20.6821 34.2605 20.894 34.5055 21.0662C34.7505 21.2318 35.0518 21.3146 35.4095 21.3146ZM39.4974 19.6954C39.5173 19.9271 39.5636 20.1424 39.6365 20.3411C39.7159 20.5331 39.8219 20.702 39.9543 20.8477C40.0868 20.9934 40.249 21.1093 40.4411 21.1954C40.6398 21.2748 40.8683 21.3146 41.1265 21.3146C41.2524 21.3146 41.3815 21.3046 41.514 21.2848C41.653 21.2583 41.7822 21.2185 41.9014 21.1656C42.0206 21.106 42.1265 21.0298 42.2193 20.9371C42.312 20.8444 42.3815 20.7318 42.4279 20.5993H43.2921C43.2325 20.851 43.1299 21.0695 42.9842 21.255C42.8451 21.4404 42.6762 21.5927 42.4775 21.7119C42.2855 21.8311 42.0702 21.9205 41.8318 21.9801C41.5934 22.0331 41.3517 22.0596 41.1067 22.0596C40.6894 22.0596 40.3252 21.9934 40.0139 21.8609C39.7093 21.7285 39.4543 21.5464 39.249 21.3146C39.0437 21.0762 38.8914 20.7947 38.7921 20.4702C38.6927 20.1391 38.6431 19.7781 38.6431 19.3874C38.6431 18.9967 38.6961 18.6391 38.802 18.3146C38.9146 17.9834 39.0735 17.6987 39.2788 17.4602C39.4841 17.2218 39.7358 17.0364 40.0338 16.9039C40.3318 16.7715 40.6861 16.7053 41.0967 16.7053C41.514 16.7053 41.8749 16.7881 42.1795 16.9536C42.4842 17.1192 42.7292 17.3377 42.9146 17.6093C43.1001 17.8742 43.2292 18.1622 43.302 18.4735C43.3815 18.7848 43.4146 19.0728 43.4014 19.3377C43.4014 19.3973 43.3981 19.4569 43.3914 19.5165C43.3914 19.5761 43.3881 19.6358 43.3815 19.6954H39.4974ZM42.5471 18.9603C42.5338 18.5165 42.3948 18.1556 42.1299 17.8775C41.8649 17.5993 41.5106 17.4602 41.0669 17.4602C40.8219 17.4602 40.6067 17.5 40.4212 17.5794C40.2358 17.6589 40.0802 17.7682 39.9543 17.9073C39.8285 18.0463 39.7292 18.2086 39.6563 18.394C39.5835 18.5728 39.5371 18.7616 39.5173 18.9603H42.5471ZM44.4369 22V16.7649H45.2515L45.2912 17.5794C45.4833 17.2748 45.7283 17.053 46.0263 16.9139C46.3243 16.7748 46.6621 16.7053 47.0396 16.7053H47.3078V17.5H46.9998C46.6886 17.5 46.4237 17.553 46.2051 17.6589C45.9866 17.7583 45.8078 17.8973 45.6687 18.0761C45.5362 18.2483 45.4369 18.4536 45.3707 18.692C45.3111 18.9304 45.2813 19.1821 45.2813 19.447V22H44.4369ZM52.9261 16.7053C53.3434 16.7053 53.7043 16.7715 54.0089 16.9039C54.3136 17.0364 54.5685 17.2218 54.7738 17.4602C54.9857 17.6987 55.1414 17.9834 55.2407 18.3146C55.3467 18.6391 55.3997 18.9967 55.3997 19.3874C55.3997 19.7781 55.3467 20.1391 55.2407 20.4702C55.1414 20.7947 54.9857 21.0762 54.7738 21.3146C54.5685 21.5464 54.3102 21.7285 53.999 21.8609C53.6877 21.9934 53.3235 22.0596 52.9063 22.0596C52.489 22.0596 52.1248 21.9934 51.8135 21.8609C51.5089 21.7285 51.2506 21.5464 51.0387 21.3146C50.8334 21.0762 50.6778 20.7947 50.5718 20.4702C50.4725 20.1391 50.4228 19.7781 50.4228 19.3874C50.4228 18.9967 50.4725 18.6391 50.5718 18.3146C50.6778 17.9834 50.8334 17.6987 51.0387 17.4602C51.2506 17.2218 51.5155 17.0364 51.8334 16.9039C52.1513 16.7715 52.5155 16.7053 52.9261 16.7053ZM52.9063 21.3146C53.191 21.3146 53.4361 21.2649 53.6414 21.1656C53.8533 21.0662 54.0255 20.9305 54.1579 20.7583C54.297 20.5795 54.3963 20.3742 54.4559 20.1424C54.5222 19.9106 54.5553 19.6589 54.5553 19.3874C54.5553 19.1225 54.5222 18.8742 54.4559 18.6424C54.3963 18.404 54.297 18.1987 54.1579 18.0265C54.0255 17.8477 53.8533 17.7086 53.6414 17.6093C53.4361 17.5099 53.191 17.4602 52.9063 17.4602C52.6215 17.4602 52.3765 17.5099 52.1712 17.6093C51.9659 17.7086 51.7937 17.8477 51.6546 18.0265C51.5222 18.1987 51.4228 18.404 51.3566 18.6424C51.297 18.8742 51.2672 19.1225 51.2672 19.3874C51.2672 19.6589 51.297 19.9106 51.3566 20.1424C51.4228 20.3742 51.5222 20.5795 51.6546 20.7583C51.7937 20.9305 51.9659 21.0662 52.1712 21.1656C52.3765 21.2649 52.6215 21.3146 52.9063 21.3146ZM56.8397 22V17.5099H55.9854V16.7649H56.8397V16.2086C56.8397 15.6258 56.9655 15.1986 57.2172 14.9271C57.4688 14.6556 57.8927 14.5198 58.4887 14.5198H59.0847V15.2649H58.5781C58.2205 15.2649 57.9821 15.3543 57.8629 15.5331C57.7436 15.7119 57.684 15.9702 57.684 16.3079V16.7649H59.0847V17.5099H57.684V22H56.8397ZM65.8968 21.3344C65.7842 21.4868 65.655 21.6093 65.5093 21.702C65.3636 21.7947 65.2113 21.8675 65.0524 21.9205C64.9001 21.9735 64.7444 22.0099 64.5855 22.0298C64.4332 22.0497 64.2809 22.0596 64.1285 22.0596C63.8835 22.0596 63.6517 22.0298 63.4332 21.9702C63.2146 21.9106 63.0159 21.8146 62.8371 21.6821C62.665 21.5497 62.5259 21.3841 62.4199 21.1854C62.3206 20.9868 62.2709 20.7616 62.2709 20.5099C62.2709 20.2119 62.3239 19.9636 62.4299 19.7649C62.5424 19.5596 62.6914 19.394 62.8769 19.2682C63.0623 19.1424 63.2742 19.0563 63.5126 19.0099C63.7577 18.9569 64.016 18.9304 64.2875 18.9304H65.8272C65.8272 18.4867 65.7312 18.1357 65.5391 17.8775C65.3471 17.6126 65.0226 17.4735 64.5656 17.4602C64.2875 17.4602 64.0424 17.5066 63.8305 17.5993C63.6186 17.692 63.4729 17.8444 63.3934 18.0563H62.4895C62.5358 17.8179 62.6285 17.6159 62.7676 17.4503C62.9067 17.2781 63.0722 17.139 63.2643 17.0331C63.4563 16.9205 63.665 16.8377 63.8901 16.7847C64.1153 16.7318 64.3405 16.7053 64.5656 16.7053C64.9564 16.7053 65.2842 16.7715 65.5491 16.9039C65.8206 17.0298 66.0391 17.1987 66.2047 17.4106C66.3703 17.6159 66.4862 17.8675 66.5524 18.1655C66.6186 18.4636 66.6517 18.798 66.6517 19.1689V22H65.9464L65.8968 21.3344ZM64.9034 19.6358C64.7444 19.6358 64.559 19.6391 64.3471 19.6457C64.1418 19.6457 63.9431 19.6656 63.7511 19.7053C63.559 19.745 63.4034 19.8278 63.2842 19.9536C63.1716 20.0795 63.1153 20.245 63.1153 20.4503C63.1153 20.6026 63.1451 20.7318 63.2047 20.8377C63.2643 20.9437 63.3438 21.0331 63.4431 21.106C63.5491 21.1788 63.6683 21.2318 63.8007 21.2649C63.9332 21.298 64.0689 21.3146 64.208 21.3146C64.7047 21.3146 65.0954 21.1954 65.3802 20.9569C65.6716 20.7119 65.8206 20.3576 65.8272 19.894V19.6358H64.9034ZM72.5294 22H71.7248L71.6851 21.2152C71.5063 21.5132 71.2579 21.7285 70.94 21.8609C70.6288 21.9934 70.301 22.0596 69.9566 22.0596C69.5592 22.053 69.2149 21.9834 68.9235 21.851C68.6321 21.7119 68.3937 21.5232 68.2082 21.2848C68.0228 21.0464 67.8837 20.7682 67.791 20.4503C67.7049 20.1258 67.6619 19.7748 67.6619 19.3973C67.6619 19.0199 67.7082 18.6689 67.8009 18.3444C67.8937 18.0132 68.036 17.7285 68.2281 17.49C68.4202 17.245 68.6619 17.053 68.9533 16.9139C69.2447 16.7748 69.5923 16.7053 69.9963 16.7053C70.301 16.7053 70.6089 16.7616 70.9202 16.8741C71.2314 16.9867 71.4864 17.1689 71.6851 17.4205V14.9768H72.5294V22ZM70.0659 17.4602C69.7811 17.4602 69.5394 17.5132 69.3407 17.6192C69.142 17.7185 68.9798 17.8543 68.8539 18.0265C68.7347 18.1987 68.6453 18.404 68.5857 18.6424C68.5327 18.8742 68.5062 19.1291 68.5062 19.4073C68.5062 19.6854 68.5327 19.9371 68.5857 20.1622C68.6387 20.3808 68.7281 20.5762 68.8539 20.7483C68.9798 20.9205 69.142 21.0596 69.3407 21.1656C69.5394 21.2649 69.7844 21.3146 70.0758 21.3146C70.4135 21.3146 70.6917 21.2351 70.9102 21.0762C71.1288 20.9172 71.3043 20.7185 71.4367 20.4801C71.5294 20.3146 71.5957 20.1358 71.6354 19.9437C71.6751 19.745 71.695 19.5497 71.695 19.3576C71.695 19.1192 71.6718 18.9006 71.6255 18.702C71.5857 18.5033 71.5096 18.3179 71.397 18.1457C71.2645 17.9536 71.089 17.7914 70.8705 17.6589C70.652 17.5265 70.3837 17.4602 70.0659 17.4602ZM73.1604 16.7649H74.114L75.7631 21.1854L77.3823 16.7649H78.3459L76.3293 22H75.177L73.1604 16.7649ZM79.6386 19.6954C79.6584 19.9271 79.7048 20.1424 79.7776 20.3411C79.8571 20.5331 79.9631 20.702 80.0955 20.8477C80.228 20.9934 80.3902 21.1093 80.5823 21.1954C80.781 21.2748 81.0094 21.3146 81.2677 21.3146C81.3935 21.3146 81.5227 21.3046 81.6551 21.2848C81.7942 21.2583 81.9233 21.2185 82.0426 21.1656C82.1618 21.106 82.2677 21.0298 82.3604 20.9371C82.4531 20.8444 82.5227 20.7318 82.569 20.5993H83.4333C83.3737 20.851 83.271 21.0695 83.1253 21.255C82.9863 21.4404 82.8174 21.5927 82.6187 21.7119C82.4267 21.8311 82.2114 21.9205 81.973 21.9801C81.7346 22.0331 81.4929 22.0596 81.2478 22.0596C80.8306 22.0596 80.4664 21.9934 80.1551 21.8609C79.8505 21.7285 79.5955 21.5464 79.3902 21.3146C79.1849 21.0762 79.0326 20.7947 78.9333 20.4702C78.8339 20.1391 78.7843 19.7781 78.7843 19.3874C78.7843 18.9967 78.8372 18.6391 78.9432 18.3146C79.0558 17.9834 79.2147 17.6987 79.42 17.4602C79.6253 17.2218 79.877 17.0364 80.175 16.9039C80.473 16.7715 80.8273 16.7053 81.2379 16.7053C81.6551 16.7053 82.0161 16.7881 82.3207 16.9536C82.6253 17.1192 82.8704 17.3377 83.0558 17.6093C83.2412 17.8742 83.3704 18.1622 83.4432 18.4735C83.5227 18.7848 83.5558 19.0728 83.5426 19.3377C83.5426 19.3973 83.5392 19.4569 83.5326 19.5165C83.5326 19.5761 83.5293 19.6358 83.5227 19.6954H79.6386ZM82.6882 18.9603C82.675 18.5165 82.5359 18.1556 82.271 17.8775C82.0061 17.5993 81.6518 17.4602 81.2081 17.4602C80.9631 17.4602 80.7478 17.5 80.5624 17.5794C80.377 17.6589 80.2214 17.7682 80.0955 17.9073C79.9697 18.0463 79.8704 18.2086 79.7975 18.394C79.7247 18.5728 79.6783 18.7616 79.6584 18.9603H82.6882ZM84.5781 22V16.7649H85.3927L85.4324 17.5794C85.6244 17.2748 85.8695 17.053 86.1675 16.9139C86.4655 16.7748 86.8033 16.7053 87.1807 16.7053H87.449V17.5H87.141C86.8297 17.5 86.5648 17.553 86.3463 17.6589C86.1278 17.7583 85.9489 17.8973 85.8099 18.0761C85.6774 18.2483 85.5781 18.4536 85.5119 18.692C85.4523 18.9304 85.4225 19.1821 85.4225 19.447V22H84.5781ZM89.8065 16.7649H91.2071V17.5099H89.8065V20.2218C89.8065 20.5795 89.876 20.8444 90.0151 21.0166C90.1541 21.1821 90.4124 21.2649 90.7899 21.2649H91.1773V22H90.6111C90.0151 22 89.5912 21.8642 89.3396 21.5927C89.0879 21.3212 88.9621 20.894 88.9621 20.3113V17.5099H88.1078V16.7649H88.9621V15.2053H89.8065V16.7649ZM92.5494 14.8476C92.7083 14.8476 92.8441 14.9006 92.9566 15.0066C93.0692 15.1059 93.1255 15.2384 93.1255 15.4039C93.1255 15.5695 93.0692 15.7053 92.9566 15.8112C92.8441 15.9172 92.7083 15.9702 92.5494 15.9702C92.3838 15.9702 92.248 15.9172 92.1421 15.8112C92.0361 15.7053 91.9831 15.5695 91.9831 15.4039C91.9831 15.2384 92.0361 15.1059 92.1421 15.0066C92.248 14.9006 92.3838 14.8476 92.5494 14.8476ZM92.1321 22V16.7649H92.9765V22H92.1321ZM96.1494 17.4602C96.0302 17.4602 95.9076 17.4702 95.7818 17.49C95.6626 17.5033 95.5434 17.5364 95.4242 17.5894C95.3116 17.6357 95.2123 17.7086 95.1262 17.8079C95.0467 17.9006 95.0037 18.0265 94.997 18.1854C94.997 18.4106 95.0798 18.5795 95.2454 18.692C95.4176 18.8046 95.6394 18.8874 95.9109 18.9404C96.0235 18.9669 96.146 18.9934 96.2785 19.0199C96.4109 19.0397 96.5401 19.0629 96.6659 19.0894C96.7984 19.1093 96.9209 19.1324 97.0335 19.1589C97.1527 19.1854 97.252 19.2119 97.3315 19.2384C97.9672 19.4371 98.2851 19.8642 98.2851 20.5199C98.2785 20.8377 98.209 21.096 98.0765 21.2947C97.9507 21.4868 97.7884 21.6391 97.5898 21.7517C97.3977 21.8642 97.1759 21.9437 96.9242 21.9901C96.6792 22.0364 96.4341 22.0596 96.1891 22.0596C95.9507 22.0596 95.709 22.0364 95.4639 21.9901C95.2189 21.9437 94.9937 21.8642 94.7884 21.7517C94.5897 21.6324 94.4176 21.4801 94.2719 21.2947C94.1328 21.1026 94.0434 20.8642 94.0037 20.5795H94.858C94.9109 20.7384 94.9937 20.8642 95.1063 20.9569C95.2189 21.0497 95.3381 21.1225 95.4639 21.1755C95.5964 21.2285 95.7189 21.2649 95.8315 21.2848C95.9507 21.3046 96.0831 21.3146 96.2288 21.3146C96.3348 21.3146 96.4573 21.3079 96.5964 21.2947C96.7355 21.2815 96.8679 21.2517 96.9937 21.2053C97.1196 21.1523 97.2255 21.0762 97.3116 20.9768C97.3977 20.8775 97.4408 20.7384 97.4408 20.5596C97.4408 20.3609 97.3745 20.2119 97.2421 20.1126C97.1163 20.0132 96.9408 19.9404 96.7156 19.894C96.5566 19.8609 96.3911 19.8311 96.2189 19.8046C96.0533 19.7715 95.8845 19.7384 95.7123 19.7053C95.5467 19.6656 95.3845 19.6225 95.2255 19.5761C95.0666 19.5232 94.9176 19.4536 94.7785 19.3675C94.5931 19.255 94.4441 19.1026 94.3315 18.9106C94.2189 18.7185 94.1626 18.4834 94.1626 18.2053C94.1758 17.9139 94.2421 17.6755 94.3613 17.49C94.4805 17.298 94.6328 17.1424 94.8182 17.0232C95.0169 16.9039 95.2288 16.8212 95.454 16.7748C95.6792 16.7285 95.9176 16.7053 96.1692 16.7053C96.7057 16.7053 97.1328 16.8212 97.4507 17.053C97.6427 17.1854 97.7918 17.3443 97.8977 17.5298C98.0037 17.7152 98.0699 17.9106 98.0964 18.1159H97.3116C97.2653 17.9238 97.1394 17.7682 96.9341 17.649C96.7288 17.5298 96.4672 17.4669 96.1494 17.4602ZM99.8923 19.6954C99.9122 19.9271 99.9585 20.1424 100.031 20.3411C100.111 20.5331 100.217 20.702 100.349 20.8477C100.482 20.9934 100.644 21.1093 100.836 21.1954C101.035 21.2748 101.263 21.3146 101.521 21.3146C101.647 21.3146 101.776 21.3046 101.909 21.2848C102.048 21.2583 102.177 21.2185 102.296 21.1656C102.416 21.106 102.521 21.0298 102.614 20.9371C102.707 20.8444 102.776 20.7318 102.823 20.5993H103.687C103.627 20.851 103.525 21.0695 103.379 21.255C103.24 21.4404 103.071 21.5927 102.872 21.7119C102.68 21.8311 102.465 21.9205 102.227 21.9801C101.988 22.0331 101.747 22.0596 101.502 22.0596C101.084 22.0596 100.72 21.9934 100.409 21.8609C100.104 21.7285 99.8493 21.5464 99.644 21.3146C99.4387 21.0762 99.2863 20.7947 99.187 20.4702C99.0877 20.1391 99.038 19.7781 99.038 19.3874C99.038 18.9967 99.091 18.6391 99.1969 18.3146C99.3095 17.9834 99.4685 17.6987 99.6738 17.4602C99.8791 17.2218 100.131 17.0364 100.429 16.9039C100.727 16.7715 101.081 16.7053 101.492 16.7053C101.909 16.7053 102.27 16.7881 102.574 16.9536C102.879 17.1192 103.124 17.3377 103.31 17.6093C103.495 17.8742 103.624 18.1622 103.697 18.4735C103.776 18.7848 103.81 19.0728 103.796 19.3377C103.796 19.3973 103.793 19.4569 103.786 19.5165C103.786 19.5761 103.783 19.6358 103.776 19.6954H99.8923ZM102.942 18.9603C102.929 18.5165 102.79 18.1556 102.525 17.8775C102.26 17.5993 101.906 17.4602 101.462 17.4602C101.217 17.4602 101.002 17.5 100.816 17.5794C100.631 17.6589 100.475 17.7682 100.349 17.9073C100.223 18.0463 100.124 18.2086 100.051 18.394C99.9784 18.5728 99.932 18.7616 99.9122 18.9603H102.942ZM105.686 17.3907C105.852 17.1589 106.054 16.9867 106.292 16.8741C106.537 16.7616 106.809 16.7053 107.107 16.7053C107.471 16.7119 107.766 16.7914 107.991 16.9437C108.216 17.096 108.385 17.298 108.497 17.5496C108.676 17.2847 108.895 17.0794 109.153 16.9337C109.418 16.7814 109.729 16.7053 110.087 16.7053C110.372 16.7053 110.617 16.7549 110.822 16.8543C111.027 16.947 111.193 17.0794 111.319 17.2516C111.444 17.4172 111.537 17.6126 111.597 17.8377C111.656 18.0629 111.686 18.3079 111.686 18.5728V22H110.842V19C110.842 18.8278 110.832 18.6523 110.812 18.4735C110.799 18.2881 110.759 18.1225 110.693 17.9768C110.627 17.8245 110.527 17.702 110.395 17.6093C110.262 17.5099 110.084 17.4602 109.858 17.4602C109.64 17.4602 109.454 17.5132 109.302 17.6192C109.15 17.7185 109.027 17.851 108.934 18.0165C108.848 18.1821 108.785 18.3642 108.746 18.5629C108.706 18.7616 108.686 18.9569 108.686 19.149V22H107.842V18.9901C107.842 18.8245 107.835 18.6523 107.822 18.4735C107.809 18.2881 107.769 18.1225 107.703 17.9768C107.643 17.8245 107.55 17.702 107.425 17.6093C107.299 17.5099 107.123 17.4602 106.898 17.4602C106.66 17.4602 106.461 17.5132 106.302 17.6192C106.15 17.7251 106.024 17.8609 105.925 18.0265C105.832 18.192 105.766 18.3775 105.726 18.5828C105.693 18.7814 105.676 18.9735 105.676 19.1589V22H104.832V16.7649H105.646L105.686 17.3907ZM113.527 19.6954C113.547 19.9271 113.593 20.1424 113.666 20.3411C113.746 20.5331 113.852 20.702 113.984 20.8477C114.117 20.9934 114.279 21.1093 114.471 21.1954C114.67 21.2748 114.898 21.3146 115.156 21.3146C115.282 21.3146 115.411 21.3046 115.544 21.2848C115.683 21.2583 115.812 21.2185 115.931 21.1656C116.05 21.106 116.156 21.0298 116.249 20.9371C116.342 20.8444 116.411 20.7318 116.458 20.5993H117.322C117.262 20.851 117.16 21.0695 117.014 21.255C116.875 21.4404 116.706 21.5927 116.507 21.7119C116.315 21.8311 116.1 21.9205 115.862 21.9801C115.623 22.0331 115.382 22.0596 115.137 22.0596C114.719 22.0596 114.355 21.9934 114.044 21.8609C113.739 21.7285 113.484 21.5464 113.279 21.3146C113.074 21.0762 112.921 20.7947 112.822 20.4702C112.723 20.1391 112.673 19.7781 112.673 19.3874C112.673 18.9967 112.726 18.6391 112.832 18.3146C112.944 17.9834 113.103 17.6987 113.309 17.4602C113.514 17.2218 113.766 17.0364 114.064 16.9039C114.362 16.7715 114.716 16.7053 115.127 16.7053C115.544 16.7053 115.905 16.7881 116.209 16.9536C116.514 17.1192 116.759 17.3377 116.944 17.6093C117.13 17.8742 117.259 18.1622 117.332 18.4735C117.411 18.7848 117.444 19.0728 117.431 19.3377C117.431 19.3973 117.428 19.4569 117.421 19.5165C117.421 19.5761 117.418 19.6358 117.411 19.6954H113.527ZM116.577 18.9603C116.564 18.5165 116.425 18.1556 116.16 17.8775C115.895 17.5993 115.541 17.4602 115.097 17.4602C114.852 17.4602 114.637 17.5 114.451 17.5794C114.266 17.6589 114.11 17.7682 113.984 17.9073C113.858 18.0463 113.759 18.2086 113.686 18.394C113.613 18.5728 113.567 18.7616 113.547 18.9603H116.577ZM118.467 22V16.7649H119.281L119.321 17.5596C119.407 17.4139 119.513 17.2881 119.639 17.1821C119.771 17.0761 119.914 16.9867 120.066 16.9139C120.218 16.841 120.377 16.7881 120.543 16.7549C120.715 16.7218 120.881 16.7053 121.04 16.7053C121.417 16.7053 121.735 16.7682 121.993 16.894C122.252 17.0132 122.457 17.1821 122.609 17.4006C122.761 17.6126 122.871 17.8675 122.937 18.1655C123.003 18.4569 123.036 18.7715 123.036 19.1093V22H122.192V19.3377C122.192 19.0927 122.175 18.8576 122.142 18.6324C122.116 18.4073 122.056 18.2086 121.963 18.0364C121.877 17.8576 121.752 17.7152 121.586 17.6093C121.42 17.5033 121.199 17.4503 120.92 17.4503C120.649 17.4569 120.407 17.5232 120.195 17.649C119.99 17.7748 119.824 17.9238 119.699 18.096C119.546 18.3146 119.444 18.5563 119.391 18.8212C119.338 19.0795 119.311 19.341 119.311 19.6059V22H118.467ZM125.558 16.7649H127.167V17.5099H125.558V20.2318C125.558 20.3841 125.564 20.5265 125.578 20.6589C125.597 20.7848 125.631 20.8973 125.677 20.9967C125.73 21.0894 125.803 21.1656 125.895 21.2252C125.995 21.2781 126.127 21.3079 126.293 21.3146C126.445 21.3146 126.578 21.2881 126.69 21.2351C126.809 21.1821 126.909 21.1192 126.988 21.0464L127.356 21.6623C127.184 21.8079 127.005 21.9106 126.819 21.9702C126.634 22.0298 126.429 22.0596 126.203 22.0596C125.919 22.0596 125.68 22.0199 125.488 21.9404C125.296 21.8543 125.134 21.7318 125.001 21.5728C124.889 21.4205 124.813 21.2417 124.773 21.0364C124.733 20.8311 124.713 20.5993 124.713 20.3411V17.5099H123.859V16.7649H124.713V15.1953H125.558V16.7649ZM129.943 17.4602C129.824 17.4602 129.702 17.4702 129.576 17.49C129.457 17.5033 129.337 17.5364 129.218 17.5894C129.106 17.6357 129.006 17.7086 128.92 17.8079C128.841 17.9006 128.798 18.0265 128.791 18.1854C128.791 18.4106 128.874 18.5795 129.039 18.692C129.212 18.8046 129.433 18.8874 129.705 18.9404C129.818 18.9669 129.94 18.9934 130.073 19.0199C130.205 19.0397 130.334 19.0629 130.46 19.0894C130.592 19.1093 130.715 19.1324 130.827 19.1589C130.947 19.1854 131.046 19.2119 131.125 19.2384C131.761 19.4371 132.079 19.8642 132.079 20.5199C132.073 20.8377 132.003 21.096 131.871 21.2947C131.745 21.4868 131.582 21.6391 131.384 21.7517C131.192 21.8642 130.97 21.9437 130.718 21.9901C130.473 22.0364 130.228 22.0596 129.983 22.0596C129.745 22.0596 129.503 22.0364 129.258 21.9901C129.013 21.9437 128.788 21.8642 128.582 21.7517C128.384 21.6324 128.212 21.4801 128.066 21.2947C127.927 21.1026 127.837 20.8642 127.798 20.5795H128.652C128.705 20.7384 128.788 20.8642 128.9 20.9569C129.013 21.0497 129.132 21.1225 129.258 21.1755C129.39 21.2285 129.513 21.2649 129.625 21.2848C129.745 21.3046 129.877 21.3146 130.023 21.3146C130.129 21.3146 130.251 21.3079 130.39 21.2947C130.529 21.2815 130.662 21.2517 130.788 21.2053C130.914 21.1523 131.02 21.0762 131.106 20.9768C131.192 20.8775 131.235 20.7384 131.235 20.5596C131.235 20.3609 131.169 20.2119 131.036 20.1126C130.91 20.0132 130.735 19.9404 130.51 19.894C130.351 19.8609 130.185 19.8311 130.013 19.8046C129.847 19.7715 129.678 19.7384 129.506 19.7053C129.341 19.6656 129.178 19.6225 129.02 19.5761C128.861 19.5232 128.712 19.4536 128.572 19.3675C128.387 19.255 128.238 19.1026 128.125 18.9106C128.013 18.7185 127.957 18.4834 127.957 18.2053C127.97 17.9139 128.036 17.6755 128.155 17.49C128.274 17.298 128.427 17.1424 128.612 17.0232C128.811 16.9039 129.023 16.8212 129.248 16.7748C129.473 16.7285 129.712 16.7053 129.963 16.7053C130.5 16.7053 130.927 16.8212 131.245 17.053C131.437 17.1854 131.586 17.3443 131.692 17.5298C131.798 17.7152 131.864 17.9106 131.89 18.1159H131.106C131.059 17.9238 130.933 17.7682 130.728 17.649C130.523 17.5298 130.261 17.4669 129.943 17.4602Z" fill="#424242"/>
<path d="M168.97 17.6835H168.974M168.97 21.3164V19.0459M173.511 19.5C173.511 22.0081 171.478 24.0412 168.97 24.0412C166.462 24.0412 164.429 22.0081 164.429 19.5C164.429 16.9919 166.462 14.9588 168.97 14.9588C171.478 14.9588 173.511 16.9919 173.511 19.5Z" stroke="#82808E" stroke-width="0.709559" stroke-miterlimit="10" stroke-linecap="round" stroke-linejoin="round"/>
<path d="M15.9651 43.0993C15.5015 43.0993 15.0569 43.052 14.6311 42.9574C14.2054 42.8534 13.8222 42.6973 13.4816 42.4891C13.1505 42.2715 12.8667 41.9924 12.6302 41.6518C12.4031 41.3112 12.2565 40.8997 12.1902 40.4172H13.8506C13.9263 40.6632 14.0398 40.8619 14.1912 41.0132C14.3426 41.1646 14.5129 41.2876 14.7021 41.3822C14.9008 41.4768 15.1089 41.543 15.3265 41.5809C15.5441 41.6093 15.757 41.6235 15.9651 41.6235C16.1827 41.6235 16.4097 41.6045 16.6463 41.5667C16.8828 41.5194 17.0957 41.439 17.2849 41.3254C17.4835 41.2119 17.6444 41.0558 17.7674 40.8571C17.8998 40.649 17.966 40.3794 17.966 40.0482C17.966 39.7455 17.9045 39.4995 17.7816 39.3103C17.668 39.1211 17.5119 38.9744 17.3133 38.8704C17.124 38.7663 16.9064 38.6953 16.6605 38.6575C16.4239 38.6197 16.1827 38.6007 15.9367 38.6007H14.9433V37.21H15.5252C15.7522 37.21 15.9887 37.1863 16.2347 37.139C16.4807 37.0917 16.703 37.0113 16.9017 36.8978C17.1098 36.7843 17.2754 36.6329 17.3984 36.4437C17.5308 36.2545 17.5971 36.0179 17.5971 35.7341C17.5971 35.4598 17.5498 35.2327 17.4552 35.0529C17.3606 34.8637 17.2328 34.7171 17.072 34.613C16.9112 34.4995 16.7267 34.4238 16.5185 34.386C16.3199 34.3387 16.107 34.315 15.8799 34.315C15.492 34.315 15.1278 34.4049 14.7872 34.5846C14.4466 34.7549 14.2243 35.0577 14.1202 35.4929H12.5024C12.5592 35.0293 12.6869 34.6319 12.8856 34.3008C13.0843 33.9602 13.3397 33.6859 13.6519 33.4777C13.9641 33.2601 14.3142 33.0993 14.7021 32.9952C15.0994 32.8912 15.5157 32.8391 15.9509 32.8391C16.3766 32.8391 16.7834 32.8864 17.1713 32.981C17.5687 33.0756 17.9187 33.227 18.2215 33.4351C18.5242 33.6433 18.7655 33.9176 18.9452 34.2582C19.125 34.5894 19.2149 34.9962 19.2149 35.4787C19.2149 35.876 19.1155 36.2687 18.9169 36.6565C18.7276 37.0444 18.3729 37.3708 17.8525 37.6357C18.4485 37.7966 18.8932 38.0899 19.1865 38.5156C19.4798 38.9319 19.6264 39.438 19.6264 40.034C19.6264 40.5828 19.5223 41.0511 19.3142 41.439C19.1155 41.8174 18.8506 42.1343 18.5195 42.3898C18.1978 42.6358 17.8147 42.8155 17.37 42.929C16.9254 43.0426 16.457 43.0993 15.9651 43.0993ZM28.8154 37.9763C28.8154 38.7426 28.735 39.4427 28.5742 40.0766C28.4228 40.701 28.1815 41.2356 27.8504 41.6802C27.5288 42.1249 27.1219 42.4702 26.63 42.7162C26.138 42.9622 25.5562 43.0851 24.8845 43.0851C24.2127 43.0851 23.6309 42.9669 23.1389 42.7304C22.647 42.4844 22.2402 42.1438 21.9185 41.7086C21.5968 41.2734 21.3556 40.7483 21.1948 40.1334C21.0339 39.5184 20.9535 38.8325 20.9535 38.0757C20.9535 37.2999 21.0292 36.5903 21.1806 35.947C21.3319 35.3037 21.5685 34.7502 21.8901 34.2866C22.2118 33.823 22.6186 33.4683 23.1106 33.2223C23.612 32.9668 24.2033 32.8391 24.8845 32.8391C25.5467 32.8391 26.1238 32.9621 26.6158 33.2081C27.1077 33.4541 27.5146 33.8041 27.8362 34.2582C28.1674 34.7124 28.4133 35.2563 28.5742 35.8902C28.735 36.5146 28.8154 37.21 28.8154 37.9763ZM22.5855 37.9763C22.5855 38.4967 22.6233 38.9792 22.699 39.4238C22.7747 39.8685 22.9024 40.2564 23.0822 40.5875C23.2619 40.9092 23.4985 41.1646 23.7917 41.3538C24.085 41.5336 24.4493 41.6235 24.8845 41.6235C25.3102 41.6235 25.6697 41.5336 25.963 41.3538C26.2563 41.1646 26.4928 40.9092 26.6726 40.5875C26.8523 40.2564 26.98 39.8685 27.0557 39.4238C27.1314 38.9792 27.1692 38.4967 27.1692 37.9763C27.1692 37.4654 27.1314 36.9877 27.0557 36.543C26.98 36.0889 26.8523 35.701 26.6726 35.3793C26.4928 35.0482 26.2563 34.788 25.963 34.5988C25.6697 34.4096 25.3102 34.315 24.8845 34.315C24.4493 34.315 24.085 34.4096 23.7917 34.5988C23.4985 34.788 23.2619 35.0482 23.0822 35.3793C22.9024 35.701 22.7747 36.0889 22.699 36.543C22.6233 36.9877 22.5855 37.4654 22.5855 37.9763ZM38.0003 37.9763C38.0003 38.7426 37.9199 39.4427 37.7591 40.0766C37.6077 40.701 37.3665 41.2356 37.0353 41.6802C36.7137 42.1249 36.3068 42.4702 35.8149 42.7162C35.3229 42.9622 34.7411 43.0851 34.0694 43.0851C33.3977 43.0851 32.8158 42.9669 32.3239 42.7304C31.8319 42.4844 31.4251 42.1438 31.1034 41.7086C30.7817 41.2734 30.5405 40.7483 30.3797 40.1334C30.2188 39.5184 30.1384 38.8325 30.1384 38.0757C30.1384 37.2999 30.2141 36.5903 30.3655 35.947C30.5168 35.3037 30.7534 34.7502 31.075 34.2866C31.3967 33.823 31.8035 33.4683 32.2955 33.2223C32.7969 32.9668 33.3882 32.8391 34.0694 32.8391C34.7316 32.8391 35.3087 32.9621 35.8007 33.2081C36.2927 33.4541 36.6995 33.8041 37.0211 34.2582C37.3523 34.7124 37.5982 35.2563 37.7591 35.8902C37.9199 36.5146 38.0003 37.21 38.0003 37.9763ZM31.7704 37.9763C31.7704 38.4967 31.8082 38.9792 31.8839 39.4238C31.9596 39.8685 32.0873 40.2564 32.2671 40.5875C32.4468 40.9092 32.6834 41.1646 32.9766 41.3538C33.2699 41.5336 33.6342 41.6235 34.0694 41.6235C34.4951 41.6235 34.8546 41.5336 35.1479 41.3538C35.4412 41.1646 35.6777 40.9092 35.8575 40.5875C36.0372 40.2564 36.1649 39.8685 36.2406 39.4238C36.3163 38.9792 36.3541 38.4967 36.3541 37.9763C36.3541 37.4654 36.3163 36.9877 36.2406 36.543C36.1649 36.0889 36.0372 35.701 35.8575 35.3793C35.6777 35.0482 35.4412 34.788 35.1479 34.5988C34.8546 34.4096 34.4951 34.315 34.0694 34.315C33.6342 34.315 33.2699 34.4096 32.9766 34.5988C32.6834 34.788 32.4468 35.0482 32.2671 35.3793C32.0873 35.701 31.9596 36.0889 31.8839 36.543C31.8082 36.9877 31.7704 37.4654 31.7704 37.9763ZM47.1852 37.9763C47.1852 38.7426 47.1048 39.4427 46.944 40.0766C46.7926 40.701 46.5514 41.2356 46.2202 41.6802C45.8986 42.1249 45.4918 42.4702 44.9998 42.7162C44.5078 42.9622 43.926 43.0851 43.2543 43.0851C42.5826 43.0851 42.0007 42.9669 41.5088 42.7304C41.0168 42.4844 40.61 42.1438 40.2883 41.7086C39.9667 41.2734 39.7254 40.7483 39.5646 40.1334C39.4037 39.5184 39.3233 38.8325 39.3233 38.0757C39.3233 37.2999 39.399 36.5903 39.5504 35.947C39.7018 35.3037 39.9383 34.7502 40.2599 34.2866C40.5816 33.823 40.9884 33.4683 41.4804 33.2223C41.9818 32.9668 42.5731 32.8391 43.2543 32.8391C43.9165 32.8391 44.4936 32.9621 44.9856 33.2081C45.4776 33.4541 45.8844 33.8041 46.206 34.2582C46.5372 34.7124 46.7831 35.2563 46.944 35.8902C47.1048 36.5146 47.1852 37.21 47.1852 37.9763ZM40.9553 37.9763C40.9553 38.4967 40.9931 38.9792 41.0688 39.4238C41.1445 39.8685 41.2722 40.2564 41.452 40.5875C41.6318 40.9092 41.8683 41.1646 42.1616 41.3538C42.4548 41.5336 42.8191 41.6235 43.2543 41.6235C43.68 41.6235 44.0395 41.5336 44.3328 41.3538C44.6261 41.1646 44.8626 40.9092 45.0424 40.5875C45.2221 40.2564 45.3498 39.8685 45.4255 39.4238C45.5012 38.9792 45.5391 38.4967 45.5391 37.9763C45.5391 37.4654 45.5012 36.9877 45.4255 36.543C45.3498 36.0889 45.2221 35.701 45.0424 35.3793C44.8626 35.0482 44.6261 34.788 44.3328 34.5988C44.0395 34.4096 43.68 34.315 43.2543 34.315C42.8191 34.315 42.4548 34.4096 42.1616 34.5988C41.8683 34.788 41.6318 35.0482 41.452 35.3793C41.2722 35.701 41.1445 36.0889 41.0688 36.543C40.9931 36.9877 40.9553 37.4654 40.9553 37.9763Z" fill="#03030A"/>
<path d="M11.3525 55H174.647" stroke="#E3E6E8" stroke-width="0.709559"/>
<path d="M11.4221 67.7649H12.3757L14.0247 72.1854L15.644 67.7649H16.6075L14.591 73H13.4386L11.4221 67.7649ZM19.1122 68.4602C18.993 68.4602 18.8705 68.4702 18.7446 68.49C18.6254 68.5033 18.5062 68.5364 18.387 68.5894C18.2744 68.6357 18.1751 68.7086 18.089 68.8079C18.0095 68.9006 17.9665 69.0265 17.9599 69.1854C17.9599 69.4106 18.0426 69.5795 18.2082 69.692C18.3804 69.8046 18.6022 69.8874 18.8738 69.9404C18.9863 69.9669 19.1089 69.9934 19.2413 70.0199C19.3738 70.0397 19.5029 70.0629 19.6287 70.0894C19.7612 70.1093 19.8837 70.1324 19.9963 70.1589C20.1155 70.1854 20.2148 70.2119 20.2943 70.2384C20.9301 70.4371 21.2479 70.8642 21.2479 71.5199C21.2413 71.8377 21.1718 72.096 21.0393 72.2947C20.9135 72.4868 20.7513 72.6391 20.5526 72.7517C20.3605 72.8642 20.1387 72.9437 19.887 72.9901C19.642 73.0364 19.3969 73.0596 19.1519 73.0596C18.9135 73.0596 18.6718 73.0364 18.4267 72.9901C18.1817 72.9437 17.9565 72.8642 17.7512 72.7517C17.5526 72.6324 17.3804 72.4801 17.2347 72.2947C17.0956 72.1026 17.0062 71.8642 16.9665 71.5795H17.8208C17.8738 71.7384 17.9565 71.8642 18.0691 71.9569C18.1817 72.0497 18.3009 72.1225 18.4267 72.1755C18.5592 72.2285 18.6817 72.2649 18.7943 72.2848C18.9135 72.3046 19.0459 72.3146 19.1916 72.3146C19.2976 72.3146 19.4201 72.3079 19.5592 72.2947C19.6983 72.2815 19.8307 72.2517 19.9565 72.2053C20.0824 72.1523 20.1883 72.0762 20.2744 71.9768C20.3605 71.8775 20.4036 71.7384 20.4036 71.5596C20.4036 71.3609 20.3373 71.2119 20.2049 71.1126C20.0791 71.0132 19.9036 70.9404 19.6784 70.894C19.5195 70.8609 19.3539 70.8311 19.1817 70.8046C19.0161 70.7715 18.8473 70.7384 18.6751 70.7053C18.5095 70.6656 18.3473 70.6225 18.1883 70.5761C18.0294 70.5232 17.8804 70.4536 17.7413 70.3675C17.5559 70.255 17.4069 70.1026 17.2943 69.9106C17.1817 69.7185 17.1254 69.4834 17.1254 69.2053C17.1387 68.9139 17.2049 68.6755 17.3241 68.49C17.4433 68.298 17.5956 68.1424 17.781 68.0232C17.9797 67.9039 18.1916 67.8212 18.4168 67.7748C18.642 67.7285 18.8804 67.7053 19.132 67.7053C19.6685 67.7053 20.0956 67.8212 20.4135 68.053C20.6056 68.1854 20.7546 68.3443 20.8605 68.5298C20.9665 68.7152 21.0327 68.9106 21.0592 69.1159H20.2744C20.2281 68.9238 20.1022 68.7682 19.8969 68.649C19.6916 68.5298 19.4301 68.4669 19.1122 68.4602ZM26.3968 70.5463C26.5757 70.394 26.771 70.2285 26.9829 70.0497C27.2015 69.8642 27.4035 69.6655 27.5889 69.4536C27.781 69.2417 27.9432 69.0198 28.0757 68.7881C28.2081 68.5496 28.2777 68.2914 28.2843 68.0132C28.2975 67.5894 28.175 67.2649 27.9167 67.0397C27.6584 66.8079 27.3174 66.692 26.8935 66.692C26.5558 66.692 26.2611 66.7616 26.0094 66.9006C25.7578 67.0397 25.5922 67.2417 25.5127 67.5066H24.5889C24.6352 67.2351 24.7313 67 24.877 66.8013C25.0293 66.596 25.2114 66.4271 25.4233 66.2947C25.6419 66.1622 25.8803 66.0629 26.1386 65.9967C26.3968 65.9304 26.6617 65.8973 26.9333 65.8973C27.2578 65.8973 27.5558 65.9437 27.8273 66.0364C28.0988 66.1225 28.3339 66.2516 28.5326 66.4238C28.7313 66.596 28.8836 66.8112 28.9896 67.0695C29.1022 67.3212 29.1585 67.6092 29.1585 67.9337C29.1585 68.2583 29.1088 68.5496 29.0094 68.8079C28.9167 69.0662 28.7876 69.3046 28.622 69.5232C28.4631 69.7417 28.281 69.947 28.0757 70.1391C27.8704 70.3311 27.6584 70.5232 27.4399 70.7152L25.6617 72.2152H29.2379V73H24.4101V72.2848L26.3968 70.5463ZM30.9108 73.0199C30.7387 73.0066 30.5996 72.9503 30.4936 72.851C30.3877 72.7517 30.3347 72.6192 30.3347 72.4536C30.3413 72.2815 30.4009 72.1457 30.5135 72.0464C30.6327 71.9404 30.7685 71.8874 30.9208 71.8874C31.1128 71.8874 31.2651 71.9569 31.3777 72.096C31.4969 72.2351 31.5565 72.4305 31.5565 72.6821C31.5565 72.8212 31.5267 72.9735 31.4671 73.1391C31.4142 73.3113 31.3413 73.4669 31.2486 73.606C31.1559 73.745 31.0466 73.8676 30.9208 73.9735C30.8016 74.0795 30.6757 74.1556 30.5433 74.202L30.3049 73.8742C30.4373 73.7815 30.5598 73.6556 30.6724 73.4967C30.7916 73.3377 30.8711 73.1788 30.9108 73.0199ZM33.1235 73L35.9646 66.7715H32.2493V65.9768H36.9182V66.692L34.0772 73H33.1235ZM41.5505 65.9768V70.8146H42.375V71.5993H41.5505V73H40.6863V71.5993H36.8717V70.9536L40.3088 65.9768H41.5505ZM37.9147 70.8146H40.6863V66.7616L37.9147 70.8146ZM48.6911 69.4934C48.6911 69.9437 48.6447 70.3841 48.552 70.8146C48.4659 71.245 48.3169 71.6291 48.105 71.9669C47.893 72.298 47.6116 72.5662 47.2606 72.7715C46.9096 72.9768 46.4725 73.0795 45.9493 73.0795C45.4195 73.0795 44.9791 72.9768 44.6281 72.7715C44.2771 72.5662 43.9957 72.298 43.7838 71.9669C43.5718 71.6291 43.4228 71.2516 43.3367 70.8344C43.2506 70.4172 43.2076 69.9702 43.2076 69.4934C43.2076 69.0165 43.2506 68.5695 43.3367 68.1523C43.4228 67.7285 43.5718 67.351 43.7838 67.0198C43.9957 66.6887 44.2771 66.4205 44.6281 66.2152C44.9791 66.0033 45.4195 65.8973 45.9493 65.8973C46.4725 65.8973 46.9096 66 47.2606 66.2053C47.6116 66.4106 47.893 66.6821 48.105 67.0198C48.3169 67.3576 48.4659 67.7417 48.552 68.1722C48.6447 68.6026 48.6911 69.043 48.6911 69.4934ZM44.0917 69.4934C44.0917 69.8112 44.1149 70.1357 44.1612 70.4669C44.2076 70.798 44.297 71.0993 44.4295 71.3709C44.5619 71.6424 44.7473 71.8642 44.9857 72.0364C45.2308 72.2086 45.552 72.2947 45.9493 72.2947C46.3401 72.2947 46.6546 72.2086 46.893 72.0364C47.1381 71.8642 47.3268 71.6424 47.4593 71.3709C47.5917 71.0993 47.6811 70.798 47.7275 70.4669C47.7738 70.1357 47.797 69.8112 47.797 69.4934C47.797 69.1821 47.7738 68.8609 47.7275 68.5298C47.6811 68.1987 47.5917 67.8973 47.4593 67.6258C47.3268 67.3477 47.1381 67.1225 46.893 66.9503C46.6546 66.7715 46.3401 66.6821 45.9493 66.6821C45.552 66.6821 45.2308 66.7715 44.9857 66.9503C44.7473 67.1225 44.5619 67.3477 44.4295 67.6258C44.297 67.8973 44.2076 68.1987 44.1612 68.5298C44.1149 68.8609 44.0917 69.1821 44.0917 69.4934ZM52.8789 65.8476C53.0378 65.8476 53.1736 65.9006 53.2862 66.0066C53.3987 66.1059 53.455 66.2384 53.455 66.4039C53.455 66.5695 53.3987 66.7053 53.2862 66.8112C53.1736 66.9172 53.0378 66.9702 52.8789 66.9702C52.7133 66.9702 52.5775 66.9172 52.4716 66.8112C52.3656 66.7053 52.3126 66.5695 52.3126 66.4039C52.3126 66.2384 52.3656 66.1059 52.4716 66.0066C52.5775 65.9006 52.7133 65.8476 52.8789 65.8476ZM52.4616 73V67.7649H53.306V73H52.4616ZM54.6113 73V67.7649H55.4259L55.4656 68.5596C55.5517 68.4139 55.6577 68.2881 55.7835 68.1821C55.916 68.0761 56.0583 67.9867 56.2107 67.9139C56.363 67.841 56.5219 67.7881 56.6875 67.7549C56.8597 67.7218 57.0252 67.7053 57.1842 67.7053C57.5617 67.7053 57.8795 67.7682 58.1378 67.894C58.3961 68.0132 58.6014 68.1821 58.7537 68.4006C58.906 68.6126 59.0153 68.8675 59.0815 69.1655C59.1478 69.4569 59.1809 69.7715 59.1809 70.1093V73H58.3365V70.3377C58.3365 70.0927 58.3199 69.8576 58.2868 69.6324C58.2603 69.4073 58.2007 69.2086 58.108 69.0364C58.0219 68.8576 57.8961 68.7152 57.7305 68.6093C57.565 68.5033 57.3431 68.4503 57.065 68.4503C56.7934 68.4569 56.5517 68.5232 56.3398 68.649C56.1345 68.7748 55.9689 68.9238 55.8431 69.096C55.6908 69.3146 55.5881 69.5563 55.5352 69.8212C55.4822 70.0795 55.4557 70.341 55.4557 70.6059V73H54.6113ZM63.1579 65.9768H65.6513C66.1943 65.9768 66.6712 66.0629 67.0818 66.2351C67.499 66.4006 67.8467 66.639 68.1248 66.9503C68.4029 67.2549 68.6116 67.6258 68.7506 68.0629C68.8897 68.4934 68.9592 68.9702 68.9592 69.4934C68.9526 70.0165 68.8798 70.4934 68.7407 70.9238C68.6016 71.3543 68.393 71.7252 68.1149 72.0364C67.8433 72.3411 67.5023 72.5795 67.0917 72.7517C66.6811 72.9172 66.201 73 65.6513 73H63.1579V65.9768ZM64.0221 66.7616V72.2152H65.5917C65.9493 72.2152 66.2904 72.1622 66.6149 72.0563C66.946 71.9437 67.2274 71.7483 67.4592 71.4702C67.6712 71.2252 67.8268 70.9371 67.9261 70.6059C68.0255 70.2682 68.0751 69.8973 68.0751 69.4934C68.0751 69.0761 68.0255 68.7053 67.9261 68.3808C67.8268 68.0563 67.6778 67.7748 67.4791 67.5364C67.2804 67.298 67.0288 67.1092 66.7241 66.9702C66.4195 66.8311 66.0586 66.7616 65.6413 66.7616H64.0221ZM72.195 72.3146C72.6718 72.3146 73.0195 72.1722 73.238 71.8874C73.4632 71.596 73.5758 71.192 73.5758 70.6755V67.7649H74.4201V70.7152C74.4201 71.5099 74.2281 72.0993 73.844 72.4834C73.4665 72.8675 72.9168 73.0596 72.195 73.0596C71.4731 73.0596 70.9234 72.8675 70.5459 72.4834C70.1751 72.0993 69.9896 71.5099 69.9896 70.7152V67.7649H70.834V70.6755C70.834 71.192 70.9466 71.596 71.1718 71.8874C71.3969 72.1722 71.738 72.3146 72.195 72.3146ZM75.6338 73V65.9768H76.4781V68.5397C76.6503 68.2748 76.8954 68.0695 77.2132 67.9238C77.5377 67.7715 77.8689 67.6986 78.2066 67.7053C78.604 67.7053 78.945 67.7748 79.2298 67.9139C79.5212 68.053 79.7596 68.2417 79.945 68.4801C80.1371 68.7185 80.2762 69.0033 80.3623 69.3344C80.455 69.6589 80.5013 70.0099 80.5013 70.3874C80.5013 70.7649 80.455 71.1159 80.3623 71.4404C80.2762 71.7583 80.1371 72.0364 79.945 72.2748C79.753 72.5132 79.508 72.702 79.2099 72.8411C78.9185 72.9801 78.5709 73.053 78.1669 73.0596H78.0576C77.7 73.0596 77.3887 72.9967 77.1238 72.8709C76.8656 72.745 76.6503 72.5762 76.4781 72.3642L76.4384 73H75.6338ZM78.0974 72.3146C78.3821 72.3146 78.6205 72.2649 78.8126 72.1656C79.0113 72.0596 79.1702 71.9205 79.2894 71.7483C79.4152 71.5695 79.5046 71.3642 79.5576 71.1324C79.6172 70.9007 79.6503 70.6523 79.657 70.3874C79.657 70.1225 79.6272 69.8742 79.5676 69.6424C79.5146 69.404 79.4252 69.1987 79.2993 69.0265C79.1735 68.8543 79.008 68.7185 78.8027 68.6192C78.604 68.5132 78.3623 68.4602 78.0775 68.4602C77.9185 68.4602 77.7629 68.4867 77.6106 68.5397C77.4583 68.5927 77.3225 68.6655 77.2033 68.7583C77.0841 68.8444 76.9781 68.9437 76.8854 69.0563C76.7993 69.1689 76.7265 69.2881 76.6669 69.4139C76.594 69.5662 76.5411 69.7285 76.5079 69.9006C76.4748 70.0728 76.4583 70.2384 76.4583 70.3973C76.4583 70.5695 76.4682 70.7483 76.4881 70.9338C76.5146 71.1126 76.5675 71.2781 76.647 71.4305C76.7662 71.6821 76.9483 71.894 77.1934 72.0662C77.4384 72.2318 77.7397 72.3146 78.0974 72.3146ZM84.9767 72.3344C84.8641 72.4868 84.735 72.6093 84.5893 72.702C84.4436 72.7947 84.2912 72.8675 84.1323 72.9205C83.98 72.9735 83.8244 73.0099 83.6654 73.0298C83.5131 73.0497 83.3608 73.0596 83.2085 73.0596C82.9634 73.0596 82.7316 73.0298 82.5131 72.9702C82.2945 72.9106 82.0959 72.8146 81.9171 72.6821C81.7449 72.5497 81.6058 72.3841 81.4998 72.1854C81.4005 71.9868 81.3508 71.7616 81.3508 71.5099C81.3508 71.2119 81.4038 70.9636 81.5098 70.7649C81.6224 70.5596 81.7714 70.394 81.9568 70.2682C82.1422 70.1424 82.3541 70.0563 82.5926 70.0099C82.8376 69.9569 83.0959 69.9304 83.3674 69.9304H84.9071C84.9071 69.4867 84.8111 69.1357 84.6191 68.8775C84.427 68.6126 84.1025 68.4735 83.6455 68.4602C83.3674 68.4602 83.1224 68.5066 82.9104 68.5993C82.6985 68.692 82.5528 68.8444 82.4734 69.0563H81.5694C81.6157 68.8179 81.7084 68.6159 81.8475 68.4503C81.9866 68.2781 82.1522 68.139 82.3442 68.0331C82.5363 67.9205 82.7449 67.8377 82.97 67.7847C83.1952 67.7318 83.4204 67.7053 83.6455 67.7053C84.0363 67.7053 84.3641 67.7715 84.629 67.9039C84.9005 68.0298 85.1191 68.1987 85.2846 68.4106C85.4502 68.6159 85.5661 68.8675 85.6323 69.1655C85.6985 69.4636 85.7316 69.798 85.7316 70.1689V73H85.0263L84.9767 72.3344ZM83.9833 70.6358C83.8244 70.6358 83.6389 70.6391 83.427 70.6457C83.2217 70.6457 83.023 70.6656 82.831 70.7053C82.6389 70.745 82.4833 70.8278 82.3641 70.9536C82.2515 71.0795 82.1952 71.245 82.1952 71.4503C82.1952 71.6026 82.225 71.7318 82.2846 71.8377C82.3442 71.9437 82.4237 72.0331 82.523 72.106C82.629 72.1788 82.7482 72.2318 82.8806 72.2649C83.0131 72.298 83.1489 72.3146 83.2879 72.3146C83.7846 72.3146 84.1753 72.1954 84.4601 71.9569C84.7515 71.7119 84.9005 71.3576 84.9071 70.894V70.6358H83.9833ZM87.4272 65.8476C87.5862 65.8476 87.7219 65.9006 87.8345 66.0066C87.9471 66.1059 88.0034 66.2384 88.0034 66.4039C88.0034 66.5695 87.9471 66.7053 87.8345 66.8112C87.7219 66.9172 87.5862 66.9702 87.4272 66.9702C87.2617 66.9702 87.1259 66.9172 87.0199 66.8112C86.914 66.7053 86.861 66.5695 86.861 66.4039C86.861 66.2384 86.914 66.1059 87.0199 66.0066C87.1259 65.9006 87.2617 65.8476 87.4272 65.8476ZM87.01 73V67.7649H87.8544V73H87.01Z" fill="#424242"/>
<path d="M108.766 67.7649H109.719L110.971 72.1854L112.262 67.7649H113.405L114.706 72.1854L115.938 67.7649H116.901L115.272 73H114.12L112.829 68.7583L111.537 73H110.395L108.766 67.7649ZM119.889 67.7053C120.307 67.7053 120.667 67.7715 120.972 67.9039C121.277 68.0364 121.532 68.2218 121.737 68.4602C121.949 68.6987 122.105 68.9834 122.204 69.3146C122.31 69.6391 122.363 69.9967 122.363 70.3874C122.363 70.7781 122.31 71.1391 122.204 71.4702C122.105 71.7947 121.949 72.0762 121.737 72.3146C121.532 72.5464 121.273 72.7285 120.962 72.8609C120.651 72.9934 120.287 73.0596 119.869 73.0596C119.452 73.0596 119.088 72.9934 118.777 72.8609C118.472 72.7285 118.214 72.5464 118.002 72.3146C117.797 72.0762 117.641 71.7947 117.535 71.4702C117.436 71.1391 117.386 70.7781 117.386 70.3874C117.386 69.9967 117.436 69.6391 117.535 69.3146C117.641 68.9834 117.797 68.6987 118.002 68.4602C118.214 68.2218 118.479 68.0364 118.797 67.9039C119.114 67.7715 119.479 67.7053 119.889 67.7053ZM119.869 72.3146C120.154 72.3146 120.399 72.2649 120.605 72.1656C120.816 72.0662 120.989 71.9305 121.121 71.7583C121.26 71.5795 121.36 71.3742 121.419 71.1424C121.485 70.9106 121.518 70.6589 121.518 70.3874C121.518 70.1225 121.485 69.8742 121.419 69.6424C121.36 69.404 121.26 69.1987 121.121 69.0265C120.989 68.8477 120.816 68.7086 120.605 68.6093C120.399 68.5099 120.154 68.4602 119.869 68.4602C119.585 68.4602 119.34 68.5099 119.134 68.6093C118.929 68.7086 118.757 68.8477 118.618 69.0265C118.485 69.1987 118.386 69.404 118.32 69.6424C118.26 69.8742 118.23 70.1225 118.23 70.3874C118.23 70.6589 118.26 70.9106 118.32 71.1424C118.386 71.3742 118.485 71.5795 118.618 71.7583C118.757 71.9305 118.929 72.0662 119.134 72.1656C119.34 72.2649 119.585 72.3146 119.869 72.3146ZM123.393 73V67.7649H124.208L124.248 68.5794C124.44 68.2748 124.685 68.053 124.983 67.9139C125.281 67.7748 125.618 67.7053 125.996 67.7053H126.264V68.5H125.956C125.645 68.5 125.38 68.553 125.161 68.6589C124.943 68.7583 124.764 68.8973 124.625 69.0761C124.493 69.2483 124.393 69.4536 124.327 69.692C124.267 69.9304 124.238 70.1821 124.238 70.447V73H123.393ZM128.77 68.4602C128.651 68.4602 128.529 68.4702 128.403 68.49C128.283 68.5033 128.164 68.5364 128.045 68.5894C127.932 68.6357 127.833 68.7086 127.747 68.8079C127.668 68.9006 127.625 69.0265 127.618 69.1854C127.618 69.4106 127.701 69.5795 127.866 69.692C128.038 69.8046 128.26 69.8874 128.532 69.9404C128.644 69.9669 128.767 69.9934 128.899 70.0199C129.032 70.0397 129.161 70.0629 129.287 70.0894C129.419 70.1093 129.542 70.1324 129.654 70.1589C129.774 70.1854 129.873 70.2119 129.952 70.2384C130.588 70.4371 130.906 70.8642 130.906 71.5199C130.899 71.8377 130.83 72.096 130.697 72.2947C130.572 72.4868 130.409 72.6391 130.211 72.7517C130.019 72.8642 129.797 72.9437 129.545 72.9901C129.3 73.0364 129.055 73.0596 128.81 73.0596C128.572 73.0596 128.33 73.0364 128.085 72.9901C127.84 72.9437 127.615 72.8642 127.409 72.7517C127.211 72.6324 127.038 72.4801 126.893 72.2947C126.754 72.1026 126.664 71.8642 126.625 71.5795H127.479C127.532 71.7384 127.615 71.8642 127.727 71.9569C127.84 72.0497 127.959 72.1225 128.085 72.1755C128.217 72.2285 128.34 72.2649 128.452 72.2848C128.572 72.3046 128.704 72.3146 128.85 72.3146C128.956 72.3146 129.078 72.3079 129.217 72.2947C129.356 72.2815 129.489 72.2517 129.615 72.2053C129.74 72.1523 129.846 72.0762 129.932 71.9768C130.019 71.8775 130.062 71.7384 130.062 71.5596C130.062 71.3609 129.995 71.2119 129.863 71.1126C129.737 71.0132 129.562 70.9404 129.336 70.894C129.178 70.8609 129.012 70.8311 128.84 70.8046C128.674 70.7715 128.505 70.7384 128.333 70.7053C128.168 70.6656 128.005 70.6225 127.846 70.5761C127.687 70.5232 127.538 70.4536 127.399 70.3675C127.214 70.255 127.065 70.1026 126.952 69.9106C126.84 69.7185 126.783 69.4834 126.783 69.2053C126.797 68.9139 126.863 68.6755 126.982 68.49C127.101 68.298 127.254 68.1424 127.439 68.0232C127.638 67.9039 127.85 67.8212 128.075 67.7748C128.3 67.7285 128.538 67.7053 128.79 67.7053C129.327 67.7053 129.754 67.8212 130.072 68.053C130.264 68.1854 130.413 68.3443 130.519 68.5298C130.625 68.7152 130.691 68.9106 130.717 69.1159H129.932C129.886 68.9238 129.76 68.7682 129.555 68.649C129.35 68.5298 129.088 68.4669 128.77 68.4602ZM132.513 70.6954C132.533 70.9271 132.579 71.1424 132.652 71.3411C132.732 71.5331 132.838 71.702 132.97 71.8477C133.103 71.9934 133.265 72.1093 133.457 72.1954C133.656 72.2748 133.884 72.3146 134.142 72.3146C134.268 72.3146 134.397 72.3046 134.53 72.2848C134.669 72.2583 134.798 72.2185 134.917 72.1656C135.036 72.106 135.142 72.0298 135.235 71.9371C135.328 71.8444 135.397 71.7318 135.444 71.5993H136.308C136.248 71.851 136.146 72.0695 136 72.255C135.861 72.4404 135.692 72.5927 135.493 72.7119C135.301 72.8311 135.086 72.9205 134.848 72.9801C134.609 73.0331 134.368 73.0596 134.122 73.0596C133.705 73.0596 133.341 72.9934 133.03 72.8609C132.725 72.7285 132.47 72.5464 132.265 72.3146C132.06 72.0762 131.907 71.7947 131.808 71.4702C131.709 71.1391 131.659 70.7781 131.659 70.3874C131.659 69.9967 131.712 69.6391 131.818 69.3146C131.93 68.9834 132.089 68.6987 132.295 68.4602C132.5 68.2218 132.752 68.0364 133.05 67.9039C133.348 67.7715 133.702 67.7053 134.113 67.7053C134.53 67.7053 134.891 67.7881 135.195 67.9536C135.5 68.1192 135.745 68.3377 135.93 68.6093C136.116 68.8742 136.245 69.1622 136.318 69.4735C136.397 69.7848 136.43 70.0728 136.417 70.3377C136.417 70.3973 136.414 70.4569 136.407 70.5165C136.407 70.5761 136.404 70.6358 136.397 70.6954H132.513ZM135.563 69.9603C135.55 69.5165 135.411 69.1556 135.146 68.8775C134.881 68.5993 134.526 68.4602 134.083 68.4602C133.838 68.4602 133.622 68.5 133.437 68.5794C133.252 68.6589 133.096 68.7682 132.97 68.9073C132.844 69.0463 132.745 69.2086 132.672 69.394C132.599 69.5728 132.553 69.7616 132.533 69.9603H135.563ZM140.031 73V65.9768H140.875V68.5397C141.047 68.2748 141.292 68.0695 141.61 67.9238C141.935 67.7715 142.266 67.6986 142.604 67.7053C143.001 67.7053 143.342 67.7748 143.627 67.9139C143.918 68.053 144.157 68.2417 144.342 68.4801C144.534 68.7185 144.673 69.0033 144.759 69.3344C144.852 69.6589 144.898 70.0099 144.898 70.3874C144.898 70.7649 144.852 71.1159 144.759 71.4404C144.673 71.7583 144.534 72.0364 144.342 72.2748C144.15 72.5132 143.905 72.702 143.607 72.8411C143.316 72.9801 142.968 73.053 142.564 73.0596H142.455C142.097 73.0596 141.786 72.9967 141.521 72.8709C141.263 72.745 141.047 72.5762 140.875 72.3642L140.835 73H140.031ZM142.494 72.3146C142.779 72.3146 143.018 72.2649 143.21 72.1656C143.408 72.0596 143.567 71.9205 143.686 71.7483C143.812 71.5695 143.902 71.3642 143.955 71.1324C144.014 70.9007 144.047 70.6523 144.054 70.3874C144.054 70.1225 144.024 69.8742 143.965 69.6424C143.912 69.404 143.822 69.1987 143.696 69.0265C143.571 68.8543 143.405 68.7185 143.2 68.6192C143.001 68.5132 142.759 68.4602 142.475 68.4602C142.316 68.4602 142.16 68.4867 142.008 68.5397C141.855 68.5927 141.72 68.6655 141.6 68.7583C141.481 68.8444 141.375 68.9437 141.283 69.0563C141.196 69.1689 141.124 69.2881 141.064 69.4139C140.991 69.5662 140.938 69.7285 140.905 69.9006C140.872 70.0728 140.855 70.2384 140.855 70.3973C140.855 70.5695 140.865 70.7483 140.885 70.9338C140.912 71.1126 140.965 71.2781 141.044 71.4305C141.163 71.6821 141.345 71.894 141.59 72.0662C141.835 72.2318 142.137 72.3146 142.494 72.3146ZM150.526 67.7649V73C150.526 73.7616 150.327 74.3411 149.93 74.7384C149.533 75.1424 148.966 75.3444 148.231 75.3444C147.788 75.3378 147.387 75.2782 147.029 75.1656C146.678 75.0596 146.354 74.8676 146.056 74.5894L146.423 73.9238C146.682 74.1291 146.957 74.2914 147.248 74.4106C147.546 74.5298 147.857 74.5894 148.182 74.5894C148.453 74.5894 148.685 74.5464 148.877 74.4603C149.069 74.3808 149.225 74.2649 149.344 74.1126C149.47 73.9669 149.559 73.7914 149.612 73.5861C149.672 73.3808 149.702 73.1589 149.702 72.9205V72.2947C149.615 72.4271 149.506 72.5464 149.374 72.6523C149.248 72.7517 149.109 72.8344 148.957 72.9007C148.811 72.9603 148.652 73.0033 148.48 73.0298C148.314 73.0629 148.145 73.0795 147.973 73.0795C147.576 73.0728 147.245 73.0099 146.98 72.8907C146.721 72.7715 146.513 72.606 146.354 72.394C146.202 72.1821 146.092 71.9305 146.026 71.6391C145.96 71.3411 145.927 71.0132 145.927 70.6556V67.7649H146.771V70.4172C146.771 70.6556 146.784 70.8907 146.811 71.1225C146.844 71.3543 146.907 71.5596 147 71.7384C147.092 71.9172 147.228 72.0629 147.407 72.1755C147.586 72.2815 147.824 72.3344 148.122 72.3344C148.42 72.3344 148.672 72.2715 148.877 72.1457C149.089 72.0199 149.251 71.8609 149.364 71.6689C149.49 71.4702 149.572 71.2516 149.612 71.0132C149.659 70.7748 149.682 70.5298 149.682 70.2781V67.7649H150.526ZM156.558 73.0795C156.28 73.0795 155.998 73.053 155.714 73C155.435 72.947 155.174 72.8576 154.929 72.7318C154.69 72.5993 154.485 72.4271 154.313 72.2152C154.147 72.0033 154.041 71.7417 153.995 71.4305H154.889C154.949 71.6026 155.038 71.745 155.157 71.8576C155.283 71.9636 155.422 72.0497 155.575 72.1159C155.734 72.1821 155.899 72.2285 156.071 72.255C156.243 72.2815 156.409 72.2947 156.568 72.2947C156.714 72.2947 156.879 72.2815 157.065 72.255C157.25 72.2285 157.422 72.1722 157.581 72.0861C157.747 72 157.883 71.8742 157.988 71.7086C158.101 71.5364 158.157 71.3113 158.157 71.0331C158.157 70.7682 158.104 70.5563 157.998 70.3973C157.899 70.2384 157.767 70.1159 157.601 70.0298C157.442 69.9437 157.26 69.8874 157.055 69.8609C156.856 69.8344 156.654 69.8212 156.449 69.8212H155.773V69.0463H156.181C156.359 69.0463 156.525 69.043 156.677 69.0364C156.83 69.0232 156.998 68.9768 157.184 68.8973C157.396 68.798 157.565 68.6589 157.69 68.4801C157.816 68.2947 157.883 68.0828 157.889 67.8443C157.889 67.6059 157.849 67.4106 157.77 67.2583C157.69 67.1059 157.585 66.9867 157.452 66.9006C157.32 66.8145 157.171 66.7582 157.005 66.7318C156.839 66.6986 156.671 66.6821 156.498 66.6821C156.359 66.6821 156.214 66.6986 156.061 66.7318C155.916 66.7582 155.777 66.8046 155.644 66.8708C155.518 66.9371 155.406 67.0265 155.306 67.139C155.207 67.245 155.137 67.3741 155.098 67.5265H154.233C154.273 67.2351 154.366 66.9867 154.512 66.7814C154.657 66.5761 154.836 66.4073 155.048 66.2748C155.267 66.1424 155.505 66.0463 155.763 65.9867C156.028 65.9271 156.296 65.8973 156.568 65.8973C156.866 65.8973 157.144 65.9304 157.402 65.9967C157.667 66.0563 157.899 66.1589 158.098 66.3046C158.296 66.4437 158.452 66.6291 158.565 66.8609C158.684 67.0927 158.743 67.3741 158.743 67.7053C158.743 67.8311 158.73 67.9669 158.704 68.1126C158.677 68.2516 158.628 68.3907 158.555 68.5298C158.482 68.6689 158.376 68.8079 158.237 68.947C158.098 69.0861 157.916 69.202 157.69 69.2947C158.134 69.3808 158.472 69.5761 158.704 69.8808C158.936 70.1788 159.051 70.5397 159.051 70.9636V71.0033C159.051 71.3675 158.985 71.6821 158.853 71.947C158.727 72.2053 158.551 72.4205 158.326 72.5927C158.101 72.7583 157.836 72.8808 157.532 72.9603C157.227 73.0397 156.902 73.0795 156.558 73.0795ZM165.564 69.4934C165.564 69.9437 165.518 70.3841 165.425 70.8146C165.339 71.245 165.19 71.6291 164.978 71.9669C164.766 72.298 164.485 72.5662 164.134 72.7715C163.783 72.9768 163.346 73.0795 162.823 73.0795C162.293 73.0795 161.852 72.9768 161.501 72.7715C161.15 72.5662 160.869 72.298 160.657 71.9669C160.445 71.6291 160.296 71.2516 160.21 70.8344C160.124 70.4172 160.081 69.9702 160.081 69.4934C160.081 69.0165 160.124 68.5695 160.21 68.1523C160.296 67.7285 160.445 67.351 160.657 67.0198C160.869 66.6887 161.15 66.4205 161.501 66.2152C161.852 66.0033 162.293 65.8973 162.823 65.8973C163.346 65.8973 163.783 66 164.134 66.2053C164.485 66.4106 164.766 66.6821 164.978 67.0198C165.19 67.3576 165.339 67.7417 165.425 68.1722C165.518 68.6026 165.564 69.043 165.564 69.4934ZM160.965 69.4934C160.965 69.8112 160.988 70.1357 161.035 70.4669C161.081 70.798 161.17 71.0993 161.303 71.3709C161.435 71.6424 161.621 71.8642 161.859 72.0364C162.104 72.2086 162.425 72.2947 162.823 72.2947C163.213 72.2947 163.528 72.2086 163.766 72.0364C164.011 71.8642 164.2 71.6424 164.333 71.3709C164.465 71.0993 164.554 70.798 164.601 70.4669C164.647 70.1357 164.67 69.8112 164.67 69.4934C164.67 69.1821 164.647 68.8609 164.601 68.5298C164.554 68.1987 164.465 67.8973 164.333 67.6258C164.2 67.3477 164.011 67.1225 163.766 66.9503C163.528 66.7715 163.213 66.6821 162.823 66.6821C162.425 66.6821 162.104 66.7715 161.859 66.9503C161.621 67.1225 161.435 67.3477 161.303 67.6258C161.17 67.8973 161.081 68.1987 161.035 68.5298C160.988 68.8609 160.965 69.1821 160.965 69.4934ZM168.058 69.0066C167.82 69.0066 167.608 68.9669 167.422 68.8874C167.244 68.8079 167.095 68.6987 166.975 68.5596C166.856 68.4139 166.763 68.2483 166.697 68.0629C166.638 67.8708 166.608 67.6655 166.608 67.447C166.608 67.2218 166.638 67.0165 166.697 66.8311C166.763 66.639 166.856 66.4735 166.975 66.3344C167.101 66.1953 167.253 66.0894 167.432 66.0165C167.611 65.9371 167.82 65.8973 168.058 65.8973C168.522 65.8973 168.876 66.043 169.121 66.3344C169.366 66.6192 169.489 66.99 169.489 67.447C169.489 67.6655 169.455 67.8708 169.389 68.0629C169.33 68.2483 169.24 68.4139 169.121 68.5596C169.002 68.6987 168.853 68.8079 168.674 68.8874C168.495 68.9669 168.29 69.0066 168.058 69.0066ZM167.402 73L171.724 65.9768H172.598L168.287 73H167.402ZM168.058 66.6026C167.793 66.6026 167.604 66.6887 167.492 66.8609C167.379 67.0331 167.323 67.2284 167.323 67.447C167.323 67.6788 167.379 67.8808 167.492 68.053C167.604 68.2185 167.793 68.3013 168.058 68.3013C168.31 68.3013 168.489 68.2152 168.595 68.043C168.701 67.8708 168.753 67.6722 168.753 67.447C168.753 67.2284 168.701 67.0331 168.595 66.8609C168.489 66.6887 168.31 66.6026 168.058 66.6026ZM171.992 73.0596C171.753 73.0596 171.542 73.0199 171.356 72.9404C171.177 72.8609 171.025 72.7517 170.899 72.6126C170.78 72.4669 170.687 72.3013 170.621 72.1159C170.561 71.9238 170.532 71.7185 170.532 71.5C170.532 71.2748 170.561 71.0695 170.621 70.8841C170.687 70.692 170.783 70.5265 170.909 70.3874C171.035 70.2483 171.187 70.1424 171.366 70.0695C171.545 69.9901 171.753 69.9503 171.992 69.9503C172.217 69.9503 172.419 69.9901 172.598 70.0695C172.777 70.1424 172.926 70.2483 173.045 70.3874C173.171 70.5265 173.263 70.692 173.323 70.8841C173.389 71.0695 173.422 71.2748 173.422 71.5C173.422 71.7185 173.389 71.9238 173.323 72.1159C173.263 72.3013 173.171 72.4669 173.045 72.6126C172.926 72.7517 172.777 72.8609 172.598 72.9404C172.419 73.0199 172.217 73.0596 171.992 73.0596ZM171.982 70.6556C171.717 70.6556 171.528 70.7417 171.416 70.9139C171.31 71.0861 171.257 71.2814 171.257 71.5C171.257 71.7318 171.313 71.9338 171.426 72.106C171.538 72.2715 171.724 72.3543 171.982 72.3543C172.24 72.3543 172.419 72.2682 172.518 72.096C172.624 71.9238 172.677 71.7252 172.677 71.5C172.677 71.2814 172.624 71.0861 172.518 70.9139C172.419 70.7417 172.24 70.6556 171.982 70.6556Z" fill="#424242"/>
</svg>
