<svg xmlns="http://www.w3.org/2000/svg" width="186" height="88" fill="none"><path fill="#424242" d="M12.217 22v-7.023h1.102l3.666 5.85v-5.85h.864V22h-1.082l-3.686-5.831V22zm9.25-.685q.716 0 1.043-.428.338-.437.338-1.212v-2.91h.844v2.95q0 1.192-.576 1.768-.566.576-1.649.577-1.083 0-1.649-.577-.556-.576-.556-1.768v-2.95h.844v2.91q0 .776.338 1.212.337.428 1.023.428m4.293-3.924q.249-.348.606-.517a1.9 1.9 0 0 1 .815-.169q.546.01.884.239t.507.606q.267-.397.655-.616.397-.23.934-.229.427 0 .735.15.308.138.497.397.189.247.278.586t.09.735V22h-.845v-3q0-.259-.03-.526a1.4 1.4 0 0 0-.119-.497.86.86 0 0 0-.298-.368q-.198-.15-.536-.149a.95.95 0 0 0-.557.16q-.228.148-.367.396a2 2 0 0 0-.189.547q-.06.298-.06.586V22h-.844v-3.01q0-.248-.02-.516a1.4 1.4 0 0 0-.119-.497.8.8 0 0 0-.278-.368q-.189-.15-.527-.149-.357 0-.596.16a1.3 1.3 0 0 0-.377.406 1.9 1.9 0 0 0-.199.557q-.05.297-.05.576V22h-.844v-5.235h.815zM32.946 22v-7.023h.844v2.563a1.7 1.7 0 0 1 .735-.616 2.2 2.2 0 0 1 .994-.219q.595 0 1.023.209.437.209.715.566.288.357.417.854.14.488.14 1.053 0 .567-.14 1.053a2.25 2.25 0 0 1-.417.835 2 2 0 0 1-.735.566q-.437.21-1.043.219h-.11q-.535 0-.933-.19a1.9 1.9 0 0 1-.646-.506l-.04.636zm2.464-.685q.426 0 .715-.15.297-.157.477-.417.188-.268.268-.616.09-.347.1-.745 0-.397-.09-.745a1.6 1.6 0 0 0-.269-.616 1.3 1.3 0 0 0-.496-.407 1.5 1.5 0 0 0-.725-.159q-.24 0-.467.08a1.4 1.4 0 0 0-.408.218 1.7 1.7 0 0 0-.318.298 2 2 0 0 0-.377.845q-.05.258-.05.496 0 .259.03.537.04.268.16.496.177.378.545.636.368.249.904.249m4.087-1.62q.03.348.14.646.119.288.317.507.2.218.487.347.298.12.685.12.19 0 .388-.03.209-.04.387-.12.18-.088.318-.228a.9.9 0 0 0 .209-.338h.864q-.09.377-.308.656-.209.278-.507.457a2.3 2.3 0 0 1-.645.268q-.358.08-.725.08-.627 0-1.093-.2a2.15 2.15 0 0 1-.765-.545 2.3 2.3 0 0 1-.457-.845 3.8 3.8 0 0 1-.149-1.083q0-.585.159-1.072.17-.497.477-.855.308-.357.755-.556t1.063-.199q.626 0 1.082.249.457.248.736.655.277.397.387.864a2.9 2.9 0 0 1 .09 1.044q0 .09-.01.178zm3.05-.735q-.02-.665-.417-1.082-.398-.418-1.063-.418-.367 0-.646.12-.277.118-.467.327a1.6 1.6 0 0 0-.298.487q-.108.269-.139.566zm1.89 3.04v-5.235h.815l.04.814q.287-.456.734-.665t1.014-.209h.268v.795H47a1.8 1.8 0 0 0-.795.159q-.327.15-.536.417a1.8 1.8 0 0 0-.298.616q-.09.357-.09.755V22zm8.49-5.295q.624 0 1.082.199t.765.556q.317.358.467.855.159.486.159 1.072t-.16 1.083a2.131 2.131 0 0 1-1.242 1.39 2.8 2.8 0 0 1-1.092.2q-.625 0-1.093-.2a2.25 2.25 0 0 1-.774-.545 2.4 2.4 0 0 1-.467-.845 3.8 3.8 0 0 1-.15-1.083q0-.585.15-1.072.159-.497.467-.855.318-.357.794-.556a2.8 2.8 0 0 1 1.093-.199m-.02 4.61q.427 0 .734-.15.319-.149.517-.407.208-.267.298-.616.1-.347.1-.755 0-.397-.1-.745a1.6 1.6 0 0 0-.298-.616 1.34 1.34 0 0 0-.517-.417q-.307-.15-.735-.149-.428 0-.735.15a1.44 1.44 0 0 0-.516.416 1.8 1.8 0 0 0-.298.616q-.09.348-.09.745 0 .408.09.755.099.349.298.616.208.258.516.408t.735.149M56.84 22v-4.49h-.855v-.745h.855v-.556q0-.874.377-1.282.378-.407 1.272-.407h.596v.745h-.507q-.537 0-.715.268-.18.268-.179.775v.457h1.4v.745h-1.4V22zm9.057-.666a1.5 1.5 0 0 1-.388.368 2.278 2.278 0 0 1-.924.328q-.228.03-.457.03-.367 0-.695-.09a1.8 1.8 0 0 1-.596-.288 1.5 1.5 0 0 1-.417-.497 1.5 1.5 0 0 1-.15-.675q0-.447.16-.745.168-.308.447-.497.277-.189.636-.258.367-.08.774-.08h1.54q0-.665-.288-1.052-.288-.397-.973-.418a1.8 1.8 0 0 0-.736.14.78.78 0 0 0-.437.456h-.904q.07-.357.279-.606.208-.258.496-.417.288-.169.626-.248.337-.08.676-.08.585 0 .983.199.407.189.656.507.248.307.347.755.1.447.1 1.003V22h-.706zm-.994-1.698q-.238 0-.556.01-.308 0-.596.06a.87.87 0 0 0-.467.248.72.72 0 0 0-.169.496q0 .23.09.388a.8.8 0 0 0 .238.268q.159.11.358.159.198.05.407.05.745 0 1.172-.358.437-.368.447-1.063v-.258zM72.53 22h-.804l-.04-.785a1.54 1.54 0 0 1-.745.646 2.5 2.5 0 0 1-.983.199 2.6 2.6 0 0 1-1.033-.209 1.96 1.96 0 0 1-.716-.566 2.5 2.5 0 0 1-.417-.835 4 4 0 0 1-.13-1.053q0-.566.14-1.053.14-.496.427-.854.288-.368.725-.576.438-.21 1.043-.209.457 0 .924.17.466.168.765.546v-2.444h.844zm-2.463-4.54q-.428 0-.725.16-.298.148-.487.406-.18.26-.268.616-.08.348-.08.765t.08.755q.08.328.268.586.189.259.487.418.297.149.735.149.507 0 .834-.239.328-.239.527-.596.139-.248.198-.536a3 3 0 0 0-.01-1.242 1.6 1.6 0 0 0-.228-.556 1.7 1.7 0 0 0-.526-.487q-.328-.2-.805-.199m3.094-.695h.954l1.65 4.42 1.618-4.42h.964L76.329 22h-1.152zm6.479 2.93q.03.348.139.646.12.288.317.507.2.218.487.347.298.12.686.12.189 0 .387-.03a1.8 1.8 0 0 0 .388-.12q.179-.088.317-.228a.9.9 0 0 0 .209-.338h.864q-.09.377-.308.656a1.8 1.8 0 0 1-.506.457 2.3 2.3 0 0 1-.646.268q-.357.08-.725.08-.626 0-1.093-.2a2.15 2.15 0 0 1-.765-.545 2.3 2.3 0 0 1-.457-.845 3.8 3.8 0 0 1-.149-1.083q0-.585.16-1.072.167-.497.476-.855.308-.357.755-.556t1.063-.199q.626 0 1.083.249.457.248.735.655.278.397.387.864a2.9 2.9 0 0 1 .09 1.044q0 .09-.01.178zm3.05-.735q-.02-.665-.418-1.082t-1.063-.418q-.367 0-.646.12-.277.118-.466.327a1.6 1.6 0 0 0-.299.487 2 2 0 0 0-.139.566zm1.89 3.04v-5.235h.814l.04.814q.287-.456.734-.665.448-.21 1.014-.209h.268v.795h-.308a1.8 1.8 0 0 0-.795.159q-.327.15-.536.417a1.8 1.8 0 0 0-.298.616q-.09.357-.09.755V22zm5.228-5.235h1.4v.745h-1.4v2.712q0 .535.208.795.209.248.775.248h.387V22h-.566q-.894 0-1.271-.407-.378-.408-.378-1.282V17.51h-.854v-.745h.854v-1.56h.844zm2.742-1.917q.24 0 .408.159.169.148.169.397a.53.53 0 0 1-.17.407.57.57 0 0 1-.407.16.55.55 0 0 1-.407-.16.55.55 0 0 1-.159-.407q0-.249.16-.397a.55.55 0 0 1 .406-.16M92.132 22v-5.235h.844V22zm4.017-4.54q-.178 0-.367.03-.18.02-.358.1a.8.8 0 0 0-.298.218.6.6 0 0 0-.129.377q0 .339.248.507.259.169.666.248.168.04.367.08.2.03.388.07a4.6 4.6 0 0 1 .666.148q.953.299.953 1.282-.01.477-.209.775a1.4 1.4 0 0 1-.486.457 2 2 0 0 1-.666.238q-.367.07-.735.07a4 4 0 0 1-.725-.07 2.3 2.3 0 0 1-.676-.238 1.9 1.9 0 0 1-.516-.457 1.6 1.6 0 0 1-.268-.716h.854a.8.8 0 0 0 .248.378q.17.139.358.218.198.08.368.11.178.03.397.03.159 0 .367-.02.21-.02.398-.09a.85.85 0 0 0 .318-.228q.129-.15.129-.417 0-.3-.199-.447a1.25 1.25 0 0 0-.526-.219 10 10 0 0 0-.497-.09l-.507-.099q-.248-.06-.487-.129a2 2 0 0 1-.447-.209 1.3 1.3 0 0 1-.447-.456 1.4 1.4 0 0 1-.168-.706q.02-.437.198-.715.18-.288.457-.467.298-.18.636-.248.338-.07.715-.07.805 0 1.282.348.287.198.447.477.159.277.198.586h-.784q-.07-.288-.378-.467t-.785-.189m3.743 2.235a2.5 2.5 0 0 0 .139.646q.12.288.318.507.2.218.487.347.298.12.685.12.189 0 .388-.03.209-.04.387-.12.18-.088.318-.228a.9.9 0 0 0 .209-.338h.864a1.7 1.7 0 0 1-.308.656 1.8 1.8 0 0 1-.507.457 2.3 2.3 0 0 1-.645.268q-.358.08-.725.08-.627 0-1.093-.2a2.15 2.15 0 0 1-.765-.545 2.3 2.3 0 0 1-.457-.845 3.8 3.8 0 0 1-.149-1.083q0-.585.159-1.072.169-.497.477-.855.308-.357.755-.556t1.063-.199q.626 0 1.082.249.457.248.736.655.277.397.387.864a2.9 2.9 0 0 1 .089 1.044q0 .09-.01.178zm3.05-.735q-.02-.665-.417-1.082t-1.063-.418q-.367 0-.646.12-.278.118-.467.327a1.6 1.6 0 0 0-.298.487 2 2 0 0 0-.139.566zm2.744-1.57q.249-.347.606-.516.368-.169.815-.169.546.01.884.239t.506.606a1.94 1.94 0 0 1 .656-.616q.397-.23.934-.229.427 0 .735.15.308.138.497.397.188.247.278.586.089.338.089.735V22h-.844v-3q0-.259-.03-.526a1.4 1.4 0 0 0-.119-.497.86.86 0 0 0-.298-.368q-.199-.15-.537-.149a.95.95 0 0 0-.556.16q-.228.148-.368.396a2 2 0 0 0-.188.547q-.06.298-.06.586V22h-.844v-3.01q0-.248-.02-.516a1.4 1.4 0 0 0-.119-.497.8.8 0 0 0-.278-.368q-.19-.15-.527-.149-.357 0-.596.16a1.3 1.3 0 0 0-.377.406 1.9 1.9 0 0 0-.199.557q-.05.297-.05.576V22h-.844v-5.235h.814zm7.841 2.305q.03.348.139.646.12.288.318.507.2.218.487.347.298.12.685.12.189 0 .388-.03.209-.04.387-.12.178-.088.318-.228a.9.9 0 0 0 .209-.338h.864a1.7 1.7 0 0 1-.308.656 1.8 1.8 0 0 1-.507.457 2.3 2.3 0 0 1-.645.268q-.358.08-.725.08-.627 0-1.093-.2a2.14 2.14 0 0 1-.765-.545 2.3 2.3 0 0 1-.457-.845 3.8 3.8 0 0 1-.149-1.083q0-.585.159-1.072a2.5 2.5 0 0 1 .477-.855q.308-.357.755-.556t1.063-.199q.626 0 1.082.249.457.248.735.655.279.397.388.864a3 3 0 0 1 .089 1.044q0 .09-.01.178zm3.05-.735q-.02-.665-.417-1.082t-1.063-.418q-.367 0-.646.12-.278.118-.467.327a1.6 1.6 0 0 0-.298.487 2 2 0 0 0-.139.566zm1.89 3.04v-5.235h.814l.04.795q.129-.219.318-.378.199-.159.427-.268a2 2 0 0 1 .477-.16q.258-.048.497-.049.566 0 .953.189.388.18.616.507.229.317.328.765.099.435.099.943V22h-.844v-2.662q0-.367-.05-.706a1.6 1.6 0 0 0-.179-.596 1 1 0 0 0-.377-.427q-.248-.159-.666-.159a1.47 1.47 0 0 0-.725.199 1.7 1.7 0 0 0-.496.447 1.9 1.9 0 0 0-.308.725q-.08.387-.08.785V22zm7.091-5.235h1.609v.745h-1.609v2.722q0 .228.02.427.03.189.099.338a.66.66 0 0 0 .218.228q.15.08.398.09a.9.9 0 0 0 .397-.08q.179-.08.298-.189l.368.616a1.6 1.6 0 0 1-.537.308 2 2 0 0 1-.616.09q-.427 0-.715-.12a1.34 1.34 0 0 1-.487-.367 1.3 1.3 0 0 1-.228-.537 3.7 3.7 0 0 1-.06-.695V17.51h-.854v-.745h.854v-1.57h.845zm4.385.695q-.178 0-.367.03a1.2 1.2 0 0 0-.358.1.8.8 0 0 0-.298.218.6.6 0 0 0-.129.377q0 .339.248.507.259.169.666.248.169.04.368.08.198.03.387.07a4.6 4.6 0 0 1 .665.148q.954.299.954 1.282-.01.477-.208.775a1.4 1.4 0 0 1-.487.457 2 2 0 0 1-.666.238 3.9 3.9 0 0 1-1.46 0 2.3 2.3 0 0 1-.676-.238 1.9 1.9 0 0 1-.516-.457 1.56 1.56 0 0 1-.268-.716h.854a.8.8 0 0 0 .248.378q.17.139.358.218.198.08.367.11.18.03.398.03.159 0 .367-.02a1.6 1.6 0 0 0 .398-.09.85.85 0 0 0 .318-.228q.129-.15.129-.417 0-.3-.199-.447a1.25 1.25 0 0 0-.526-.219 10 10 0 0 0-.497-.09l-.507-.099a10 10 0 0 1-.486-.129 2.1 2.1 0 0 1-.448-.209 1.3 1.3 0 0 1-.447-.456 1.4 1.4 0 0 1-.168-.706q.02-.437.198-.715.179-.288.457-.467.299-.18.636-.248.338-.07.715-.07.805 0 1.282.348.288.198.447.477.159.277.198.586h-.784q-.07-.288-.378-.467t-.785-.189"/><path stroke="#82808E" stroke-linecap="round" stroke-linejoin="round" stroke-miterlimit="10" stroke-width=".71" d="M168.97 17.684h.004m-.004 3.632v-2.27m4.541.454a4.541 4.541 0 1 1-9.082 0 4.541 4.541 0 0 1 9.082 0"/><path fill="#03030A" d="M15.965 43.1q-.695 0-1.334-.143a4 4 0 0 1-1.15-.468 3.1 3.1 0 0 1-.85-.837q-.342-.51-.44-1.235h1.66q.113.37.34.596.228.228.511.37.298.141.624.198.327.042.64.042.326 0 .68-.056.355-.072.639-.242.298-.17.482-.468.2-.312.199-.809 0-.455-.184-.738a1.17 1.17 0 0 0-.469-.44 2 2 0 0 0-.652-.212 4.6 4.6 0 0 0-.724-.057h-.994V37.21h.582q.34 0 .71-.071t.667-.241q.312-.17.496-.454.2-.285.2-.71 0-.411-.143-.681a1.1 1.1 0 0 0-.383-.44 1.4 1.4 0 0 0-.553-.227 2.8 2.8 0 0 0-.64-.071q-.58 0-1.092.27-.51.255-.667.908h-1.618q.086-.696.384-1.192.297-.51.766-.823a3.3 3.3 0 0 1 1.05-.483 5 5 0 0 1 1.249-.156q.639 0 1.22.142.597.142 1.05.454t.724.823q.27.497.27 1.22 0 .597-.298 1.178-.284.582-1.065.98.894.24 1.334.88.44.624.44 1.518 0 .823-.312 1.405a2.9 2.9 0 0 1-.794.95 3.15 3.15 0 0 1-1.15.54q-.667.17-1.405.17m12.85-5.124a8.5 8.5 0 0 1-.24 2.1q-.228.938-.725 1.604-.482.667-1.22 1.036-.738.37-1.745.37-1.008-.001-1.746-.356a3.4 3.4 0 0 1-1.22-1.021q-.483-.653-.724-1.576a8.1 8.1 0 0 1-.242-2.057q0-1.164.228-2.129.225-.965.71-1.66a3.2 3.2 0 0 1 1.22-1.065q.751-.383 1.773-.383.994 0 1.732.37.738.367 1.22 1.05.496.68.738 1.631.241.937.241 2.086m-6.23 0q0 .78.114 1.448.113.666.383 1.163.27.483.71.767.44.27 1.092.27.64 0 1.079-.27.44-.285.71-.767.27-.496.383-1.163t.113-1.448q0-.765-.113-1.433a3.6 3.6 0 0 0-.383-1.164 2.1 2.1 0 0 0-.71-.78q-.44-.284-1.079-.284-.652 0-1.092.284a2.1 2.1 0 0 0-.71.78q-.27.483-.383 1.164a8.6 8.6 0 0 0-.114 1.433m15.415 0a8.5 8.5 0 0 1-.24 2.1q-.227.938-.725 1.604-.482.667-1.22 1.036-.738.37-1.746.37-1.007-.001-1.745-.356a3.4 3.4 0 0 1-1.22-1.021q-.483-.653-.724-1.576a8.1 8.1 0 0 1-.242-2.057q0-1.164.227-2.129.228-.965.71-1.66a3.2 3.2 0 0 1 1.22-1.065q.753-.383 1.774-.383.994 0 1.732.37.737.367 1.22 1.05.497.68.738 1.631.24.937.241 2.086m-6.23 0q0 .78.114 1.448.113.666.383 1.163.27.483.71.767.44.27 1.092.27.64 0 1.079-.27.44-.285.71-.767.27-.496.383-1.163t.113-1.448q0-.765-.113-1.433a3.6 3.6 0 0 0-.383-1.164 2.1 2.1 0 0 0-.71-.78q-.44-.284-1.079-.284-.653 0-1.092.284a2.1 2.1 0 0 0-.71.78q-.27.483-.383 1.164a8.6 8.6 0 0 0-.114 1.433m15.415 0a8.5 8.5 0 0 1-.241 2.1q-.227.938-.724 1.604-.482.667-1.22 1.036-.738.37-1.746.37-1.007-.001-1.745-.356a3.4 3.4 0 0 1-1.22-1.021q-.483-.653-.724-1.576a8.1 8.1 0 0 1-.242-2.057q0-1.164.227-2.129t.71-1.66a3.2 3.2 0 0 1 1.22-1.065q.753-.383 1.774-.383.994 0 1.732.37.737.367 1.22 1.05.496.68.738 1.631.24.937.241 2.086m-6.23 0q0 .78.114 1.448.113.666.383 1.163.27.483.71.767.44.27 1.092.27.639 0 1.079-.27.44-.285.71-.767.27-.496.383-1.163t.113-1.448q0-.765-.114-1.433a3.6 3.6 0 0 0-.383-1.164 2.1 2.1 0 0 0-.71-.78q-.44-.284-1.078-.284-.653 0-1.092.284a2.1 2.1 0 0 0-.71.78q-.27.483-.383 1.164a8.6 8.6 0 0 0-.114 1.433"/><path stroke="#E3E6E8" stroke-width=".71" d="M11.353 55h163.294"/><path fill="#424242" d="M11.422 67.765h.954l1.649 4.42 1.619-4.42h.964L14.59 73h-1.152zm7.69.695q-.178 0-.367.03-.18.02-.358.1a.8.8 0 0 0-.298.218.6.6 0 0 0-.13.377q0 .338.25.507.257.169.665.248.168.04.367.08.2.03.388.07a4.6 4.6 0 0 1 .665.148q.954.299.954 1.282-.01.477-.209.775a1.4 1.4 0 0 1-.486.457 2 2 0 0 1-.666.238q-.367.07-.735.07a4 4 0 0 1-.725-.07 2.3 2.3 0 0 1-.676-.238 1.9 1.9 0 0 1-.516-.457 1.6 1.6 0 0 1-.268-.716h.854a.8.8 0 0 0 .248.378q.17.14.358.219.198.079.367.109.18.03.398.03.159 0 .367-.02.21-.02.397-.09a.85.85 0 0 0 .318-.228q.13-.15.13-.417 0-.3-.2-.447a1.25 1.25 0 0 0-.526-.219 10 10 0 0 0-.496-.09l-.507-.099q-.249-.06-.487-.129a2 2 0 0 1-.447-.208 1.3 1.3 0 0 1-.447-.457 1.4 1.4 0 0 1-.169-.706q.02-.437.2-.715.177-.288.456-.467.298-.18.636-.248.337-.07.715-.07.805 0 1.281.348.29.198.447.477.16.277.2.586h-.786q-.07-.288-.377-.467-.308-.18-.785-.189m7.285 2.086q.268-.228.586-.496.327-.28.606-.596a3.8 3.8 0 0 0 .487-.666q.199-.357.208-.775.02-.636-.367-.973-.388-.348-1.024-.348a1.8 1.8 0 0 0-.884.209q-.377.208-.496.606h-.924a1.64 1.64 0 0 1 .288-.706q.228-.308.546-.506.328-.2.716-.298.387-.1.794-.1.488 0 .894.14.408.128.706.387.297.258.457.645.168.378.169.865 0 .487-.15.874a2.7 2.7 0 0 1-.387.715 4.3 4.3 0 0 1-.546.616q-.309.288-.636.576l-1.778 1.5h3.576V73H24.41v-.715zm4.514 2.474a.66.66 0 0 1-.417-.169.52.52 0 0 1-.16-.397.55.55 0 0 1 .18-.408.6.6 0 0 1 .407-.159q.288 0 .457.209.178.209.178.586 0 .209-.089.457a1.738 1.738 0 0 1-.546.834q-.18.16-.378.229l-.238-.328a1.5 1.5 0 0 0 .367-.377q.18-.24.239-.477m2.212-.02 2.842-6.228h-3.716v-.795h4.67v.715L34.076 73zm8.428-7.023v4.838h.824v.784h-.825V73h-.864v-1.4h-3.814v-.646l3.437-4.977zm-3.636 4.838h2.771v-4.053zm10.776-1.322q0 .675-.139 1.322-.129.645-.447 1.152a2.46 2.46 0 0 1-.844.805q-.527.307-1.312.307-.795 0-1.32-.307a2.46 2.46 0 0 1-.845-.805 3.4 3.4 0 0 1-.447-1.133 6.6 6.6 0 0 1-.13-1.34q0-.716.13-1.342.129-.636.447-1.132.318-.497.844-.805.526-.318 1.321-.318.784 0 1.312.308.525.309.844.815.317.507.447 1.152.14.645.14 1.321m-4.6 0q0 .477.07.974.07.496.268.904.199.407.557.665.367.26.963.259.587 0 .944-.259.368-.258.566-.665a3 3 0 0 0 .268-.904q.07-.497.07-.974 0-.466-.07-.963a3 3 0 0 0-.268-.904 1.7 1.7 0 0 0-.566-.676q-.357-.267-.944-.268-.595 0-.963.268a1.74 1.74 0 0 0-.556.676 3 3 0 0 0-.269.904q-.07.496-.07.963m8.788-3.645q.239 0 .407.159.17.148.169.397a.54.54 0 0 1-.169.407.57.57 0 0 1-.407.16.55.55 0 0 1-.407-.16.55.55 0 0 1-.16-.407q0-.249.16-.397a.55.55 0 0 1 .407-.16M52.462 73v-5.235h.844V73zm2.15 0v-5.235h.814l.04.795q.13-.219.317-.378.199-.159.428-.268a2 2 0 0 1 .477-.16 2.6 2.6 0 0 1 .496-.049q.567 0 .954.189.387.18.616.507.228.318.328.764.099.437.099.944V73h-.844v-2.662q0-.367-.05-.706a1.7 1.7 0 0 0-.179-.596 1.02 1.02 0 0 0-.377-.427q-.249-.159-.666-.159a1.47 1.47 0 0 0-.725.199q-.309.189-.497.447-.228.328-.308.725-.08.387-.08.785V73zm8.546-7.023h2.493q.815 0 1.43.258.627.249 1.044.715.417.458.626 1.113.208.645.208 1.43-.01.785-.218 1.43-.21.647-.626 1.113a2.8 2.8 0 0 1-1.023.716q-.616.248-1.44.248h-2.494zm.864.785v5.453h1.57q.535 0 1.023-.159.496-.168.844-.586.318-.368.467-.864.15-.507.15-1.113a3.8 3.8 0 0 0-.15-1.112 2.4 2.4 0 0 0-.447-.845 2.1 2.1 0 0 0-.755-.566q-.457-.208-1.083-.208zm8.173 5.553q.716 0 1.043-.428.338-.437.338-1.212v-2.91h.844v2.95q0 1.192-.576 1.768-.566.577-1.649.577t-1.65-.577q-.555-.576-.555-1.768v-2.95h.844v2.91q0 .776.338 1.212.338.428 1.023.428m3.439.685v-7.023h.844v2.563q.258-.397.735-.616a2.2 2.2 0 0 1 .994-.219q.596 0 1.023.209.437.209.715.566.288.358.417.854.14.487.14 1.053 0 .567-.14 1.053a2.25 2.25 0 0 1-.417.835 2 2 0 0 1-.735.566q-.437.21-1.043.219h-.11q-.535 0-.933-.19a1.9 1.9 0 0 1-.646-.506l-.04.636zm2.463-.685q.428 0 .716-.15.297-.158.476-.417.19-.267.269-.616.09-.347.099-.745 0-.397-.09-.745a1.6 1.6 0 0 0-.268-.615 1.3 1.3 0 0 0-.496-.408 1.5 1.5 0 0 0-.725-.159 1.4 1.4 0 0 0-.467.08 1.4 1.4 0 0 0-.408.218q-.178.13-.318.298a2 2 0 0 0-.377.845q-.05.258-.05.496 0 .258.03.537.04.268.159.496.18.378.546.636.368.249.904.249m6.88.02a1.5 1.5 0 0 1-.388.367 2.277 2.277 0 0 1-.924.328q-.228.03-.457.03-.367 0-.695-.09a1.8 1.8 0 0 1-.596-.288 1.5 1.5 0 0 1-.417-.497 1.5 1.5 0 0 1-.15-.675q0-.447.16-.745.168-.308.447-.497.278-.189.636-.258.368-.08.774-.08h1.54q0-.664-.288-1.053-.287-.396-.974-.417a1.8 1.8 0 0 0-.735.14.78.78 0 0 0-.437.456h-.904q.07-.357.278-.606a1.7 1.7 0 0 1 .497-.417q.287-.168.626-.248.338-.08.675-.08.587 0 .984.199.407.189.656.507.248.308.347.754.1.448.1 1.004V73h-.706zm-.994-1.7q-.238 0-.556.01-.308 0-.596.06a.87.87 0 0 0-.467.249.72.72 0 0 0-.169.496q0 .23.09.388a.8.8 0 0 0 .238.268q.159.11.358.159.198.05.407.05.745 0 1.172-.358.436-.368.447-1.063v-.258zm3.444-4.787q.24 0 .407.159.17.148.17.397a.53.53 0 0 1-.17.407.57.57 0 0 1-.407.16.55.55 0 0 1-.407-.16.55.55 0 0 1-.159-.407q0-.249.159-.397a.55.55 0 0 1 .407-.16M87.01 73v-5.235h.844V73zM108.766 67.765h.953l1.252 4.42 1.291-4.42h1.143l1.301 4.42 1.232-4.42h.963L115.272 73h-1.152l-1.291-4.242L111.537 73h-1.142zm11.123-.06q.626 0 1.083.199.458.198.765.556.318.358.467.855.159.487.159 1.072 0 .587-.159 1.083a2.131 2.131 0 0 1-1.242 1.39 2.8 2.8 0 0 1-1.093.2 2.8 2.8 0 0 1-1.092-.2 2.25 2.25 0 0 1-.775-.545 2.4 2.4 0 0 1-.467-.845 3.8 3.8 0 0 1-.149-1.083q0-.585.149-1.072a2.4 2.4 0 0 1 .467-.855q.318-.358.795-.556a2.8 2.8 0 0 1 1.092-.199m-.02 4.61q.427 0 .736-.15.317-.149.516-.407.209-.267.298-.616.099-.347.099-.755a2.7 2.7 0 0 0-.099-.745 1.6 1.6 0 0 0-.298-.615 1.34 1.34 0 0 0-.516-.418q-.309-.15-.736-.149-.426 0-.735.15a1.44 1.44 0 0 0-.516.416 1.8 1.8 0 0 0-.298.616q-.09.348-.09.745 0 .408.09.755.099.349.298.616.209.258.516.408.309.149.735.149m3.524.685v-5.235h.815l.04.814q.288-.456.735-.665t1.013-.209h.268v.795h-.308q-.466 0-.795.159-.327.15-.536.417a1.8 1.8 0 0 0-.298.616q-.09.357-.089.755V73zm5.377-4.54q-.178 0-.367.03-.18.02-.358.1a.8.8 0 0 0-.298.218.6.6 0 0 0-.129.377q0 .338.248.507.258.169.666.248.168.04.367.08.2.03.388.07a4.6 4.6 0 0 1 .665.148q.954.299.954 1.282-.01.477-.209.775a1.4 1.4 0 0 1-.486.457 2 2 0 0 1-.666.238 3.9 3.9 0 0 1-1.46 0 2.3 2.3 0 0 1-.676-.238 1.9 1.9 0 0 1-.516-.457 1.56 1.56 0 0 1-.268-.716h.854a.8.8 0 0 0 .248.378q.17.14.358.219.198.079.367.109.18.03.398.03.159 0 .367-.02a1.6 1.6 0 0 0 .398-.09.85.85 0 0 0 .317-.228q.13-.15.13-.417 0-.3-.199-.447a1.25 1.25 0 0 0-.527-.219 9 9 0 0 0-.496-.09l-.507-.099a11 11 0 0 1-.487-.129 2 2 0 0 1-.447-.208 1.3 1.3 0 0 1-.447-.457 1.4 1.4 0 0 1-.169-.706q.02-.437.199-.715.179-.288.457-.467.298-.18.636-.248a3.5 3.5 0 0 1 .715-.07q.805 0 1.282.348.288.198.447.477.159.277.198.586h-.785q-.07-.288-.377-.467-.308-.18-.785-.189m3.743 2.235q.03.348.139.646.12.288.318.507.2.218.487.347.298.12.685.12.189 0 .388-.03.209-.04.387-.12.179-.088.318-.228a.9.9 0 0 0 .209-.338h.864a1.7 1.7 0 0 1-.308.656 1.8 1.8 0 0 1-.507.457 2.3 2.3 0 0 1-.645.268q-.358.08-.726.08a2.8 2.8 0 0 1-1.092-.2 2.14 2.14 0 0 1-.765-.545 2.3 2.3 0 0 1-.457-.845 3.8 3.8 0 0 1-.149-1.083q0-.585.159-1.072a2.5 2.5 0 0 1 .477-.855q.308-.358.755-.556t1.063-.199q.626 0 1.082.249.458.248.735.655.279.397.388.865a3 3 0 0 1 .089 1.042q0 .09-.01.18zm3.05-.735q-.02-.666-.417-1.082-.398-.418-1.063-.418-.368 0-.646.12-.278.118-.467.327a1.6 1.6 0 0 0-.298.487 2 2 0 0 0-.139.566zm4.468 3.04v-7.023h.844v2.563a1.7 1.7 0 0 1 .735-.616q.487-.229.994-.219.595 0 1.023.209.437.209.715.566.288.358.417.854.14.487.139 1.053 0 .567-.139 1.053a2.25 2.25 0 0 1-.417.835 2 2 0 0 1-.735.566q-.437.21-1.043.219h-.109q-.537 0-.934-.19a1.9 1.9 0 0 1-.646-.506l-.04.636zm2.463-.685q.428 0 .716-.15a1.3 1.3 0 0 0 .476-.417q.19-.267.269-.616.089-.347.099-.745 0-.397-.089-.745a1.6 1.6 0 0 0-.269-.615 1.3 1.3 0 0 0-.496-.408 1.5 1.5 0 0 0-.725-.159 1.4 1.4 0 0 0-.467.08 1.4 1.4 0 0 0-.408.218 1.7 1.7 0 0 0-.317.298 2 2 0 0 0-.378.845q-.05.258-.05.496 0 .258.03.537.04.268.159.496.178.378.546.636.368.249.904.249m8.032-4.55V73q0 1.143-.596 1.738-.596.606-1.699.606a4.2 4.2 0 0 1-1.202-.178 2.5 2.5 0 0 1-.973-.577l.367-.665a3.4 3.4 0 0 0 .825.487q.447.178.934.178.407 0 .695-.129.288-.12.467-.347a1.3 1.3 0 0 0 .268-.527q.09-.308.09-.665v-.626a1.6 1.6 0 0 1-.328.357q-.189.15-.417.249-.219.09-.477.129-.249.05-.507.05-.596-.01-.993-.19a1.6 1.6 0 0 1-.626-.496 2.1 2.1 0 0 1-.328-.755 4.6 4.6 0 0 1-.099-.983v-2.891h.844v2.652q0 .358.04.706.05.347.189.615.138.27.407.438.268.158.715.158t.755-.188a1.35 1.35 0 0 0 .487-.477q.189-.298.248-.656.07-.357.07-.735v-2.513zm6.032 5.314q-.417 0-.844-.079a2.9 2.9 0 0 1-.785-.268 2.1 2.1 0 0 1-.616-.517 1.63 1.63 0 0 1-.318-.785h.894q.09.259.268.428.189.159.418.258.238.099.496.139t.497.04q.218 0 .497-.04a1.5 1.5 0 0 0 .516-.169q.25-.13.407-.377.17-.26.169-.676 0-.398-.159-.636a1 1 0 0 0-.397-.367 1.6 1.6 0 0 0-.546-.17 5 5 0 0 0-.606-.039h-.676v-.775h.408q.267 0 .496-.01.229-.02.507-.139.318-.148.506-.417.19-.278.199-.636 0-.357-.119-.586a.93.93 0 0 0-.318-.357 1.1 1.1 0 0 0-.447-.17 2.6 2.6 0 0 0-.507-.049q-.208 0-.437.05a1.6 1.6 0 0 0-.417.139 1.2 1.2 0 0 0-.338.268.9.9 0 0 0-.208.388h-.865q.06-.437.279-.746.218-.308.536-.506.328-.2.715-.288.397-.09.805-.09.447 0 .834.1.398.09.696.308.297.208.467.556.178.348.178.844 0 .189-.039.408a1.5 1.5 0 0 1-.149.417q-.11.209-.318.417-.208.21-.547.348.666.129 1.014.586.347.447.347 1.083v.04q0 .546-.198.943a1.8 1.8 0 0 1-.527.646q-.338.248-.794.367-.458.12-.974.12m9.006-3.586q0 .675-.139 1.322a3.4 3.4 0 0 1-.447 1.152 2.46 2.46 0 0 1-.844.805q-.527.307-1.311.307-.795 0-1.322-.307a2.46 2.46 0 0 1-.844-.805 3.4 3.4 0 0 1-.447-1.133 6.6 6.6 0 0 1-.129-1.34q0-.716.129-1.342.129-.636.447-1.132.318-.497.844-.805.527-.318 1.322-.318.785 0 1.311.308.526.309.844.815a3.4 3.4 0 0 1 .447 1.152q.14.645.139 1.321m-4.599 0q0 .477.07.974.069.496.268.904.199.407.556.665.367.26.964.259.585 0 .943-.259a1.73 1.73 0 0 0 .567-.665q.198-.408.268-.904.069-.497.069-.974 0-.466-.069-.963a3 3 0 0 0-.268-.904 1.7 1.7 0 0 0-.567-.676q-.357-.267-.943-.268-.597 0-.964.268a1.74 1.74 0 0 0-.556.676 3 3 0 0 0-.268.904q-.07.496-.07.963m7.093-.486q-.357 0-.636-.12a1.3 1.3 0 0 1-.447-.327 1.7 1.7 0 0 1-.278-.497 2.1 2.1 0 0 1-.089-.616q0-.337.089-.616a1.5 1.5 0 0 1 .278-.497q.189-.209.457-.318.269-.119.626-.119.696 0 1.063.437.368.427.368 1.113 0 .328-.1.616a1.5 1.5 0 0 1-.268.497q-.179.209-.447.327-.268.12-.616.12M167.402 73l4.322-7.023h.874L168.287 73zm.656-6.397q-.398 0-.566.258a1.04 1.04 0 0 0-.169.586q0 .348.169.606.168.249.566.248.378 0 .537-.258.158-.257.158-.596 0-.328-.158-.586-.159-.258-.537-.258m3.934 6.457q-.358 0-.636-.12a1.34 1.34 0 0 1-.457-.327 1.7 1.7 0 0 1-.278-.497 2 2 0 0 1-.089-.616q0-.337.089-.616.099-.288.288-.497t.457-.317q.268-.12.626-.12.338 0 .606.12.268.108.447.317.189.21.278.497.099.278.099.616 0 .328-.099.616-.09.277-.278.497-.178.209-.447.327-.268.12-.606.12m-.01-2.404q-.398 0-.566.258a1.1 1.1 0 0 0-.159.586q0 .348.169.606.168.249.556.248.387 0 .536-.258.159-.257.159-.596 0-.328-.159-.586-.149-.258-.536-.258"/></svg>