<svg xmlns="http://www.w3.org/2000/svg" width="324" height="267" fill="none"><g filter="url(#a)"><path fill="#fff" fill-opacity=".61" d="M14.435 79.83c-1.897-8.739 3.649-17.36 12.387-19.257L246.664 12.85c8.738-1.897 17.36 3.65 19.257 12.387l34.373 158.349c1.897 8.738-3.649 17.36-12.388 19.257L68.065 250.565c-8.739 1.897-17.36-3.649-19.257-12.387z" shape-rendering="crispEdges"/><path fill="#262626" d="m27.14 83.828-1.335-6.153 1.149-.25 2.58 2.986 1.084-3.78 1.123-.245 1.336 6.154-.758.164-1.162-5.352-1.215 4.182-.348.076-2.858-3.299 1.162 5.353zm10.087-2.8a1.3 1.3 0 0 1-.27.396q-.165.164-.358.278a2 2 0 0 1-.388.185 3 3 0 0 1-.395.113 2.4 2.4 0 0 1-.626.054 1.6 1.6 0 0 1-.577-.14 1.4 1.4 0 0 1-.46-.355 1.34 1.34 0 0 1-.26-.563 1.4 1.4 0 0 1-.002-.683q.09-.303.297-.52.208-.219.508-.348.307-.14.664-.217l1.35-.293q-.127-.583-.454-.868-.327-.293-.932-.18-.366.08-.617.262a.7.7 0 0 0-.297.483l-.791.172a1.2 1.2 0 0 1 .128-.584q.134-.265.356-.46.22-.203.5-.336.282-.135.578-.198.513-.113.899-.013.393.088.67.319.277.222.449.595t.278.86l.538 2.48-.618.135zm-1.193-1.3q-.21.047-.486.115-.27.06-.51.166a.78.78 0 0 0-.362.306.64.64 0 0 0-.054.468q.044.2.152.322a.75.75 0 0 0 .26.19 1 1 0 0 0 .344.071q.183.006.366-.034.653-.141.959-.536.313-.406.19-1.017l-.05-.226zm3.04 1.51-.995-4.587.713-.155.19.706q.165-.454.518-.723.351-.267.848-.375l.235-.051.15.696-.269.059a1.6 1.6 0 0 0-.666.29 1.25 1.25 0 0 0-.39.468 1.6 1.6 0 0 0-.145.596q-.01.33.066.678l.485 2.237zm3.16-.686-1.336-6.153.74-.161.77 3.542.8-.174.946-2.274.836-.181-1.058 2.517 2.184 2.041-.87.19-1.811-1.667-.888.192.427 1.967zm4.571-3.107q.092.3.245.54.158.229.375.383.215.154.492.212.284.048.623-.026.165-.036.334-.1.175-.075.317-.178a1.1 1.1 0 0 0 .235-.26.8.8 0 0 0 .118-.336l.758-.164a1.5 1.5 0 0 1-.145.633 1.6 1.6 0 0 1-.357.496q-.218.211-.515.358a3 3 0 0 1-.62.208q-.55.119-.995.034a1.9 1.9 0 0 1-.775-.334 2.1 2.1 0 0 1-.56-.653 3.4 3.4 0 0 1-.337-.92 3.1 3.1 0 0 1-.065-.97q.053-.467.255-.84.202-.371.556-.63.354-.26.894-.376.548-.12.995.011.448.13.77.435.318.295.503.683a2.6 2.6 0 0 1 .277.897q.017.078.025.159zm2.532-1.224q-.144-.58-.571-.869-.428-.29-1.01-.163a1.5 1.5 0 0 0-.544.227q-.22.157-.347.376t-.168.483q-.045.256-.014.523zm2.396-2.534 1.41-.306.142.653-1.41.306.517 2.385q.044.2.099.37.062.16.151.277a.6.6 0 0 0 .235.159.8.8 0 0 0 .365.003.8.8 0 0 0 .333-.146 1 1 0 0 0 .226-.222l.439.47a1.4 1.4 0 0 1-.412.372 1.8 1.8 0 0 1-.522.195q-.375.081-.65.032a1.2 1.2 0 0 1-.496-.23 1.2 1.2 0 0 1-.302-.426 3.3 3.3 0 0 1-.185-.598l-.538-2.48-.749.162-.141-.653.748-.162-.298-1.375.74-.161zm3.943-.856.835-.181 2.286 3.56.578-4.182.844-.183-.771 4.97-1.01.22zm7.11-1.598q.548-.119.986-.032.437.088.776.342.346.253.571.66.233.396.344.91.111.513.066.979a1.912 1.912 0 0 1-.824 1.455 2.5 2.5 0 0 1-.919.381q-.548.119-.995.034a2 2 0 0 1-.783-.331 2.2 2.2 0 0 1-.57-.651 3.4 3.4 0 0 1-.336-.92 3.3 3.3 0 0 1-.073-.969q.045-.466.246-.837.21-.374.59-.639.38-.264.92-.382m.858 4.042q.375-.081.616-.27.25-.19.375-.455.132-.275.144-.596a2.5 2.5 0 0 0-.056-.68 2.4 2.4 0 0 0-.23-.634 1.4 1.4 0 0 0-.377-.483 1.2 1.2 0 0 0-.532-.268 1.5 1.5 0 0 0-.673.01 1.5 1.5 0 0 0-.615.27q-.242.189-.374.464a1.6 1.6 0 0 0-.144.596q-.012.322.064.67.077.357.222.644.153.286.378.483.232.186.53.259a1.5 1.5 0 0 0 .672-.01m3.218-.07-1.336-6.153.74-.16 1.336 6.153zm3.601-1.41q.627-.135.833-.572.213-.448.066-1.126l-.554-2.55.74-.161.56 2.585q.228 1.045-.168 1.659-.385.612-1.335.818-.948.206-1.554-.191-.597-.399-.824-1.444l-.561-2.585.74-.16.553 2.55q.148.679.527.998.377.309.977.18m3.016-4.254q.15-.352.432-.568.29-.217.682-.303.48-.095.82.04.339.137.559.436.16-.4.457-.665a1.65 1.65 0 0 1 .775-.378 1.5 1.5 0 0 1 .672-.009 1.1 1.1 0 0 1 .511.254q.213.182.355.46.143.279.218.627l.652 3.003-.74.16-.57-2.628a4 4 0 0 0-.127-.455 1.3 1.3 0 0 0-.198-.413.77.77 0 0 0-.331-.265q-.202-.093-.499-.029a.85.85 0 0 0-.457.245 1 1 0 0 0-.246.418 1.8 1.8 0 0 0-.062.515q.004.273.06.525l.542 2.498-.74.16-.573-2.637a6 6 0 0 0-.115-.449 1.3 1.3 0 0 0-.2-.412.73.73 0 0 0-.313-.27q-.193-.093-.49-.03a.94.94 0 0 0-.491.253 1.2 1.2 0 0 0-.254.429q-.075.243-.068.525.013.27.066.514l.54 2.49-.74.16-.995-4.587.714-.155zm7.308.528q.092.3.245.54.159.228.374.383a1.3 1.3 0 0 0 .493.212q.285.047.623-.026.165-.036.334-.1.175-.075.317-.178.14-.113.235-.26a.8.8 0 0 0 .118-.337l.758-.164a1.5 1.5 0 0 1-.146.633 1.6 1.6 0 0 1-.357.497 2 2 0 0 1-.514.358q-.299.136-.62.207-.549.119-.996.034a1.9 1.9 0 0 1-.774-.333 2.1 2.1 0 0 1-.56-.653 3.4 3.4 0 0 1-.337-.92 3.1 3.1 0 0 1-.065-.97q.053-.468.255-.84t.556-.63.894-.377q.548-.12.995.011.448.131.77.435.318.295.503.684a2.6 2.6 0 0 1 .277.897q.017.078.025.158zm2.532-1.224q-.144-.579-.571-.87-.428-.29-1.011-.163a1.5 1.5 0 0 0-.543.227q-.22.157-.347.376t-.168.483q-.045.256-.014.523z"/><path stroke="#262626" stroke-linecap="round" stroke-linejoin="round" stroke-width="1.245" d="m252.883 33.667-4.443-2.858-2.858 4.443"/><g filter="url(#b)"><g clip-path="url(#c)"><path fill="#262626" d="m41.885 104.869-1.308-6.022.946-.206 4.232 4.335-1.089-5.017.741-.16 1.307 6.021-.928.202-4.246-4.314 1.086 5zm7.804-2.31q.613-.133.815-.56.208-.438.064-1.102l-.542-2.496.724-.157.55 2.53q.22 1.022-.165 1.623-.379.6-1.307.801-.929.201-1.522-.187-.584-.39-.806-1.413l-.549-2.53.724-.157.542 2.496q.144.664.515.976.369.304.957.176m2.95-4.164q.149-.344.424-.555.285-.213.667-.297.47-.093.803.04.332.133.547.425.156-.39.448-.65.297-.27.758-.37a1.5 1.5 0 0 1 .658-.008q.29.061.5.248.207.178.347.45.14.274.214.614l.638 2.939-.724.157-.559-2.572a4 4 0 0 0-.123-.446 1.3 1.3 0 0 0-.195-.404.75.75 0 0 0-.324-.26q-.198-.09-.488-.028a.83.83 0 0 0-.447.24 1 1 0 0 0-.241.41 1.8 1.8 0 0 0-.06.503q.004.267.058.514l.53 2.444-.724.158-.56-2.581a6 6 0 0 0-.113-.44 1.3 1.3 0 0 0-.195-.403.7.7 0 0 0-.307-.264q-.19-.092-.479-.03a.92.92 0 0 0-.481.248q-.167.178-.248.42-.073.238-.067.513.012.265.065.504l.528 2.436-.724.157-.974-4.49.698-.15zm7.02 2.615-1.307-6.022.724-.157.477 2.198q.147-.39.516-.665.375-.287.81-.373.512-.111.917-.011.414.097.719.352.313.253.516.655.21.391.316.877.105.486.076.929a2 2 0 0 1-.202.793q-.18.36-.525.622a2.2 2.2 0 0 1-.854.382l-.093.02a1.9 1.9 0 0 1-.836.012 1.65 1.65 0 0 1-.648-.314l.084.553zm1.985-1.046q.366-.08.586-.26.225-.194.33-.447.113-.266.116-.578.012-.316-.053-.658a2.6 2.6 0 0 0-.216-.622 1.4 1.4 0 0 0-.344-.478 1.15 1.15 0 0 0-.502-.257 1.34 1.34 0 0 0-.651-.001 1.2 1.2 0 0 0-.386.155 1.2 1.2 0 0 0-.309.263q-.129.143-.217.315a1.75 1.75 0 0 0-.166.794q.005.231.05.435.048.222.125.455.084.222.229.396.224.29.587.443.36.145.821.045m3.204-2.15q.09.294.24.529.155.224.366.375.211.15.482.207.278.047.61-.025.162-.035.327-.098a1.6 1.6 0 0 0 .31-.174q.137-.11.23-.255a.8.8 0 0 0 .116-.329l.741-.16a1.5 1.5 0 0 1-.142.619 1.5 1.5 0 0 1-.35.486q-.213.207-.503.35-.292.135-.607.203a2.4 2.4 0 0 1-.974.033 1.9 1.9 0 0 1-.758-.326 2 2 0 0 1-.549-.639 3.3 3.3 0 0 1-.329-.9 3 3 0 0 1-.063-.95q.052-.458.25-.821.197-.365.543-.618t.875-.368a1.96 1.96 0 0 1 .974.011q.438.129.753.426.312.288.493.669a2.6 2.6 0 0 1 .27.877q.018.077.025.156zm2.478-1.197q-.14-.567-.56-.851-.418-.285-.988-.16-.316.069-.532.222a1.2 1.2 0 0 0-.34.368q-.122.214-.164.473a1.8 1.8 0 0 0-.014.512zm2.186 2.254-.974-4.489.698-.151.186.69q.162-.444.507-.707a2.1 2.1 0 0 1 .83-.367l.23-.05.147.681-.264.058a1.6 1.6 0 0 0-.651.284 1.2 1.2 0 0 0-.383.458 1.6 1.6 0 0 0-.14.583q-.01.324.063.664l.475 2.19zm6.294-6.12q.537-.116.966-.03.427.084.759.334.339.248.56.645.226.389.335.89a3.1 3.1 0 0 1 .066.959 1.87 1.87 0 0 1-.806 1.424 2.4 2.4 0 0 1-.9.373 2.4 2.4 0 0 1-.974.033 2 2 0 0 1-.766-.324 2.1 2.1 0 0 1-.558-.637 3.3 3.3 0 0 1-.33-.901 3.2 3.2 0 0 1-.071-.948q.045-.454.241-.82.207-.364.578-.624.372-.259.9-.374m.841 3.956q.366-.079.602-.264.245-.187.368-.446.13-.268.14-.583a2.4 2.4 0 0 0-.055-.666 2.4 2.4 0 0 0-.224-.62 1.4 1.4 0 0 0-.37-.473 1.2 1.2 0 0 0-.52-.262 1.5 1.5 0 0 0-.658.01 1.5 1.5 0 0 0-.603.264q-.237.185-.365.454a1.6 1.6 0 0 0-.141.583q-.012.315.062.656.076.35.217.63.15.28.37.473.227.183.519.253.291.07.658-.009m3.5-.144-.835-3.85-.733.159-.139-.64.733-.158-.104-.477q-.162-.75.085-1.17.249-.418 1.015-.585l.511-.111.139.639-.435.094q-.46.1-.563.363-.103.264-.01.698l.086.392 1.2-.261.14.639-1.201.26.835 3.85zm8.814-1.913-.69.15-.18-.666a1.35 1.35 0 0 1-.519.692 2.2 2.2 0 0 1-.806.354q-.513.102-.925.013a1.7 1.7 0 0 1-.718-.352 2.2 2.2 0 0 1-.513-.638 3.6 3.6 0 0 1-.307-.88 3.4 3.4 0 0 1-.077-.928q.027-.452.207-.812.18-.368.515-.629.337-.26.856-.373.39-.086.823-.027.431.057.758.326l-.455-2.095.724-.158zm-2.957-3.434a1.34 1.34 0 0 0-.593.27 1.17 1.17 0 0 0-.341.44q-.105.255-.115.579-.004.313.074.67.078.359.209.633.129.266.339.452.21.187.495.268.283.072.658-.01.435-.093.67-.36.238-.265.341-.608.074-.24.07-.497a2.6 2.6 0 0 0-.239-1.063 1.4 1.4 0 0 0-.3-.435q-.224-.21-.541-.319a1.34 1.34 0 0 0-.727-.02m4.142 1.107q.09.293.24.528.156.225.367.375.21.15.482.208.277.046.61-.026.162-.035.326-.097a1.6 1.6 0 0 0 .31-.175q.138-.11.23-.255a.8.8 0 0 0 .117-.328l.74-.161a1.5 1.5 0 0 1-.141.62 1.5 1.5 0 0 1-.35.486q-.213.206-.504.35-.29.135-.607.203a2.4 2.4 0 0 1-.973.033 1.9 1.9 0 0 1-.758-.326 2 2 0 0 1-.55-.64 3.3 3.3 0 0 1-.328-.9 3 3 0 0 1-.064-.95q.052-.457.25-.82.198-.365.544-.618.346-.254.874-.369.537-.115.975.012.438.128.752.425.313.29.493.67a2.6 2.6 0 0 1 .271.877q.017.077.025.155zm2.479-1.198q-.14-.567-.56-.85-.418-.285-.989-.16-.315.068-.531.222a1.2 1.2 0 0 0-.34.368q-.121.213-.165.473a1.8 1.8 0 0 0-.013.511zm5.018 1.043q-.102.227-.264.387a1.994 1.994 0 0 1-.731.453 3 3 0 0 1-.387.11q-.315.07-.612.053a1.6 1.6 0 0 1-.565-.136 1.3 1.3 0 0 1-.45-.348 1.3 1.3 0 0 1-.254-.552 1.4 1.4 0 0 1-.002-.668q.087-.296.29-.51.204-.213.498-.339.3-.137.65-.212l1.32-.287q-.124-.57-.443-.85-.322-.286-.913-.176-.357.078-.604.256a.69.69 0 0 0-.29.474l-.775.168a1.15 1.15 0 0 1 .126-.572q.13-.26.348-.45.216-.198.49-.33a2.6 2.6 0 0 1 .565-.193q.502-.11.88-.013.384.086.657.313.27.217.438.582t.272.842l.527 2.428-.605.13zm-1.168-1.272q-.204.045-.475.112a2.6 2.6 0 0 0-.5.162.76.76 0 0 0-.355.3.63.63 0 0 0-.052.457q.042.196.149.316t.254.185a1 1 0 0 0 .337.07q.18.006.358-.033.639-.14.939-.525.306-.396.185-.995l-.048-.221zm2.976 1.477-1.308-6.023.724-.157 1.308 6.023zm2.534-4.627a2 2 0 0 0-.31.094 1 1 0 0 0-.288.152.7.7 0 0 0-.215.243.53.53 0 0 0-.04.348q.063.29.307.388.253.096.617.089.153.003.33 0 .175-.012.345-.013a4 4 0 0 1 .599.004q.873.079 1.056.921.08.411-.035.704a1.2 1.2 0 0 1-.332.482 1.8 1.8 0 0 1-.526.328 3.415 3.415 0 0 1-1.253.272 2 2 0 0 1-.623-.079 1.7 1.7 0 0 1-.528-.295 1.4 1.4 0 0 1-.363-.564l.732-.159a.7.7 0 0 0 .283.278q.171.088.348.12.185.032.335.026.16-.007.347-.048.135-.03.311-.086.175-.055.324-.15a.74.74 0 0 0 .23-.256.53.53 0 0 0 .033-.381q-.055-.255-.253-.347a1.1 1.1 0 0 0-.492-.09q-.214.002-.443.017l-.453.009a9 9 0 0 1-.441-.02 2 2 0 0 1-.422-.096 1.1 1.1 0 0 1-.469-.309 1.2 1.2 0 0 1-.276-.573q-.064-.379.037-.65a1.3 1.3 0 0 1 .305-.486q.222-.209.499-.331t.601-.193q.69-.15 1.163.06.284.117.472.326.188.208.28.465l-.673.146q-.114-.234-.411-.33t-.708-.016"/><rect width="22.339" height="12.358" x="228.088" y="55.568" stroke="#E3E6E8" stroke-width=".623" rx="6.179" transform="rotate(-12.247 228.088 55.568)"/><path fill="#262626" d="m234.208 58.104 1.527-.331q.499-.108.911-.032a1.7 1.7 0 0 1 .733.3q.316.223.532.598.213.367.318.848.098.482.056.905a1.9 1.9 0 0 1-.235.765 1.75 1.75 0 0 1-.532.574q-.344.234-.849.343l-1.527.332zm.634.366.725 3.34.961-.208q.329-.072.605-.234a1.17 1.17 0 0 0 .44-.47q.145-.269.171-.592a2.5 2.5 0 0 0-.057-.701 2.4 2.4 0 0 0-.239-.662 1.5 1.5 0 0 0-.386-.458 1.3 1.3 0 0 0-.538-.246 1.6 1.6 0 0 0-.691.016zm3.745-1.316.529-.115.83 3.82 2.36-.512.105.481-2.89.627zm3.494-.759 1.527-.331q.498-.108.91-.032.416.069.734.3.317.223.531.598.215.368.318.848.099.482.057.905a1.9 1.9 0 0 1-.236.765 1.76 1.76 0 0 1-.531.574 2.4 2.4 0 0 1-.85.343l-1.527.332zm.633.366.725 3.34.962-.208q.328-.072.605-.234.282-.17.439-.47.147-.269.171-.592a2.5 2.5 0 0 0-.056-.702 2.4 2.4 0 0 0-.239-.661 1.5 1.5 0 0 0-.386-.458 1.3 1.3 0 0 0-.538-.246 1.6 1.6 0 0 0-.691.016zM48.147 129.033l-.53.114-.748-3.449-.876.19-.078-.359q.18-.052.328-.103a1.2 1.2 0 0 0 .263-.14.88.88 0 0 0 .336-.474l.372-.081zm3.892-3.094q.09.413.09.827.008.414-.12.766a1.55 1.55 0 0 1-.41.605q-.282.258-.762.363-.487.105-.85-.013a1.54 1.54 0 0 1-.625-.381 2.1 2.1 0 0 1-.424-.634 4 4 0 0 1-.257-.804 4 4 0 0 1-.1-.839 2.1 2.1 0 0 1 .124-.753q.128-.346.41-.605.28-.264.767-.37.48-.105.844.014.363.118.625.387.262.267.427.646.171.377.261.791m-2.817.611q.064.293.172.587.109.296.285.518.175.223.429.334.259.11.624.03.359-.078.544-.284a1.1 1.1 0 0 0 .258-.483q.068-.275.044-.589a4.318 4.318 0 0 0-.258-1.186 1.9 1.9 0 0 0-.284-.518 1.07 1.07 0 0 0-.436-.339q-.255-.117-.614-.039-.365.08-.554.293a1.1 1.1 0 0 0-.251.488q-.068.275-.044.589.023.314.085.599m6.863-1.49q.09.414.09.828.008.412-.12.765a1.54 1.54 0 0 1-.41.605q-.282.26-.762.363-.487.106-.85-.013a1.55 1.55 0 0 1-.624-.38 2.1 2.1 0 0 1-.425-.634 4 4 0 0 1-.257-.805 4 4 0 0 1-.1-.838 2.1 2.1 0 0 1 .124-.753q.129-.347.41-.605.28-.265.767-.371.48-.104.844.015.362.119.626.386.261.269.426.647.171.377.261.79m-2.817.612q.064.292.172.587.11.295.285.518t.429.334q.26.11.624.03.36-.078.544-.284a1.1 1.1 0 0 0 .258-.483q.068-.276.045-.589a4.375 4.375 0 0 0-.258-1.187 1.9 1.9 0 0 0-.284-.518 1.1 1.1 0 0 0-.437-.338q-.255-.117-.614-.039-.365.08-.554.292-.185.206-.251.488-.068.276-.044.59.023.312.085.599m6.864-1.49q.09.414.09.828.007.413-.12.765a1.54 1.54 0 0 1-.41.605q-.282.258-.763.363-.486.105-.85-.013a1.55 1.55 0 0 1-.624-.38 2.1 2.1 0 0 1-.424-.635 4 4 0 0 1-.258-.804 4 4 0 0 1-.1-.838 2.1 2.1 0 0 1 .124-.753q.13-.347.41-.606.28-.264.767-.37.48-.104.844.014.363.118.626.387.261.268.427.646.17.377.26.791m-2.817.612q.063.291.172.587.108.294.284.518.175.223.43.333.258.11.624.03.36-.078.543-.283a1.1 1.1 0 0 0 .259-.483q.068-.276.044-.59a4.361 4.361 0 0 0-.258-1.186 1.9 1.9 0 0 0-.284-.518 1.06 1.06 0 0 0-.437-.338q-.255-.117-.613-.039-.366.08-.555.292a1.1 1.1 0 0 0-.25.488q-.068.276-.045.589.023.314.086.6"/><path stroke="#E3E6E8" stroke-width=".623" d="M65.471 122.907 256.865 81.36"/><path fill="#262626" d="m51.862 146.147-.53.114-.748-3.449-.876.19-.078-.359q.18-.052.328-.103a1.2 1.2 0 0 0 .263-.14.87.87 0 0 0 .336-.474l.371-.081zm3.892-3.094q.09.413.09.827.008.414-.12.766a1.55 1.55 0 0 1-.41.605q-.282.258-.763.363-.486.105-.85-.013a1.54 1.54 0 0 1-.624-.381 2.1 2.1 0 0 1-.424-.634 4 4 0 0 1-.258-.804 4 4 0 0 1-.099-.839 2.1 2.1 0 0 1 .123-.753q.13-.346.41-.605.28-.264.768-.37.48-.105.844.014.363.119.625.387t.427.646q.171.377.26.791m-2.817.611q.063.293.172.587.108.296.284.518t.43.334q.259.11.624.03.359-.077.544-.284a1.1 1.1 0 0 0 .258-.483q.068-.275.044-.589a4.4 4.4 0 0 0-.257-1.186 1.9 1.9 0 0 0-.285-.518 1.07 1.07 0 0 0-.436-.339q-.255-.116-.614-.039-.364.08-.555.293-.184.206-.25.488-.068.275-.045.589t.086.599m6.863-1.49q.09.414.09.828.008.412-.12.765a1.54 1.54 0 0 1-.41.605q-.282.26-.762.363-.487.106-.85-.013a1.55 1.55 0 0 1-.625-.38 2.1 2.1 0 0 1-.424-.634 4 4 0 0 1-.257-.805 4 4 0 0 1-.1-.838 2.1 2.1 0 0 1 .124-.753q.128-.347.41-.605.28-.265.767-.371.48-.103.844.015.363.119.625.386.262.269.427.647.171.377.261.79m-2.817.612q.064.292.172.587.109.295.285.518.175.223.429.334.26.11.624.03.359-.078.544-.284a1.1 1.1 0 0 0 .258-.483q.068-.276.044-.589a4.4 4.4 0 0 0-.086-.606 4.4 4.4 0 0 0-.171-.581 1.9 1.9 0 0 0-.285-.518 1.1 1.1 0 0 0-.436-.338q-.255-.117-.614-.039-.365.079-.554.293a1.1 1.1 0 0 0-.251.487q-.068.276-.044.59.023.312.085.599m6.863-1.49q.09.414.09.828.008.412-.12.765a1.54 1.54 0 0 1-.41.605q-.282.258-.762.363-.487.105-.85-.013a1.55 1.55 0 0 1-.624-.38 2.1 2.1 0 0 1-.425-.635 4 4 0 0 1-.257-.804 4 4 0 0 1-.1-.838 2.1 2.1 0 0 1 .124-.753q.129-.346.41-.606.28-.264.767-.37.48-.104.844.014.362.119.626.387.261.268.427.646.17.377.26.791m-2.817.612q.064.291.172.587.11.294.285.518.175.223.43.333.258.11.624.03.358-.078.543-.283a1.1 1.1 0 0 0 .259-.483q.068-.276.044-.59a4.361 4.361 0 0 0-.258-1.186 1.9 1.9 0 0 0-.284-.518 1.06 1.06 0 0 0-.437-.338q-.255-.117-.614-.039-.365.08-.554.292a1.1 1.1 0 0 0-.251.488q-.068.276-.044.589.023.313.085.6"/><path stroke="#E3E6E8" stroke-width=".623" d="M69.186 140.021 260.58 98.474"/><path fill="#262626" d="m55.577 163.261-.53.114-.748-3.449-.876.19-.078-.359q.18-.052.328-.103.147-.057.262-.14a.87.87 0 0 0 .337-.474l.371-.081zm3.892-3.094q.09.414.09.827.008.414-.12.766a1.55 1.55 0 0 1-.41.605q-.282.258-.763.363-.486.105-.85-.013a1.54 1.54 0 0 1-.624-.381 2.1 2.1 0 0 1-.424-.634 4 4 0 0 1-.258-.804 4 4 0 0 1-.099-.839 2.1 2.1 0 0 1 .123-.753q.13-.346.41-.605.28-.264.767-.37.48-.105.845.014.363.119.625.387.262.267.427.646.17.377.26.791m-2.817.611q.063.293.172.587.108.296.284.518.175.223.43.334.258.11.624.03.359-.077.544-.284a1.1 1.1 0 0 0 .258-.483q.068-.275.044-.589a4.318 4.318 0 0 0-.258-1.186 1.9 1.9 0 0 0-.284-.518 1.07 1.07 0 0 0-.437-.339q-.255-.116-.613-.039-.365.08-.555.293a1.1 1.1 0 0 0-.25.488q-.068.275-.045.589t.086.599m6.863-1.49q.09.414.09.828.008.412-.12.765a1.54 1.54 0 0 1-.41.605q-.282.26-.763.363-.486.107-.85-.013a1.54 1.54 0 0 1-.624-.38 2.1 2.1 0 0 1-.424-.634 4 4 0 0 1-.258-.805 4 4 0 0 1-.099-.838 2.1 2.1 0 0 1 .123-.753q.13-.347.41-.605.281-.265.768-.371.48-.103.844.015.363.119.625.386.262.269.427.647.171.377.261.79m-2.817.612q.063.292.172.587t.285.518.429.334q.259.11.624.03.359-.078.544-.284a1.1 1.1 0 0 0 .258-.483q.068-.276.044-.589a4.4 4.4 0 0 0-.087-.606 4.4 4.4 0 0 0-.17-.581 1.9 1.9 0 0 0-.285-.518 1.1 1.1 0 0 0-.436-.338q-.255-.117-.614-.039-.364.079-.555.293a1.1 1.1 0 0 0-.25.487q-.068.276-.044.59.023.313.085.599m6.863-1.49q.09.414.09.828.007.412-.12.765a1.54 1.54 0 0 1-.41.605q-.282.259-.762.363-.487.105-.85-.013a1.55 1.55 0 0 1-.624-.38 2.1 2.1 0 0 1-.425-.635 4 4 0 0 1-.257-.804 4 4 0 0 1-.1-.838 2.1 2.1 0 0 1 .124-.753q.129-.346.41-.606.28-.264.767-.37.48-.104.844.014.363.119.625.387t.427.646q.171.377.261.791m-2.817.612q.064.291.172.587.11.294.285.518.176.223.429.333.26.11.624.03.36-.078.544-.283a1.1 1.1 0 0 0 .258-.483 1.9 1.9 0 0 0 .044-.59 4.361 4.361 0 0 0-.257-1.186 1.9 1.9 0 0 0-.284-.518 1.06 1.06 0 0 0-.437-.338q-.255-.117-.614-.039-.365.08-.554.292a1.1 1.1 0 0 0-.251.488q-.068.276-.044.589.023.314.085.6"/><path stroke="#E3E6E8" stroke-width=".623" d="m72.901 157.135 191.394-41.547"/><path fill="#262626" d="m59.292 180.375-.53.114-.748-3.449-.876.19-.078-.359q.18-.052.328-.103a1.2 1.2 0 0 0 .262-.14.88.88 0 0 0 .337-.474l.371-.081zm3.892-3.094q.09.414.09.827.007.414-.12.766a1.55 1.55 0 0 1-.41.605q-.282.258-.763.363-.486.105-.85-.013a1.54 1.54 0 0 1-.624-.381 2.1 2.1 0 0 1-.424-.634 4 4 0 0 1-.258-.804 4 4 0 0 1-.1-.839 2.1 2.1 0 0 1 .124-.753q.13-.346.41-.605.28-.264.767-.37.48-.105.844.014.364.118.626.387.261.267.427.646.17.377.26.791m-2.817.611q.063.293.172.587.108.296.284.518.175.223.43.334.258.11.624.03.36-.077.543-.284.192-.207.259-.483.068-.275.044-.589a4.4 4.4 0 0 0-.258-1.186 1.9 1.9 0 0 0-.284-.518 1.07 1.07 0 0 0-.437-.339q-.255-.116-.613-.039-.366.08-.555.293-.185.206-.25.488-.068.275-.045.589t.086.599m6.863-1.49q.09.414.09.828.007.412-.12.765a1.54 1.54 0 0 1-.41.605q-.282.26-.763.363-.487.107-.85-.013a1.54 1.54 0 0 1-.624-.38 2.1 2.1 0 0 1-.424-.634 4 4 0 0 1-.258-.804 4 4 0 0 1-.099-.839 2.1 2.1 0 0 1 .123-.753q.13-.347.41-.605.28-.265.767-.371.48-.103.845.015.363.119.625.386.262.269.427.647.171.377.26.79m-2.817.612q.064.292.172.587t.284.518.43.334q.258.11.624.03.359-.078.544-.284a1.1 1.1 0 0 0 .258-.483q.068-.276.044-.589a4.4 4.4 0 0 0-.087-.606 4.4 4.4 0 0 0-.17-.581 1.9 1.9 0 0 0-.285-.518 1.1 1.1 0 0 0-.437-.338q-.255-.117-.613-.039-.365.079-.555.293a1.1 1.1 0 0 0-.25.487q-.068.276-.045.59t.086.599m6.863-1.49q.09.414.09.828.007.413-.12.765a1.54 1.54 0 0 1-.41.605q-.282.26-.762.363-.487.106-.85-.013a1.55 1.55 0 0 1-.625-.38 2.1 2.1 0 0 1-.424-.635 4 4 0 0 1-.257-.804 4 4 0 0 1-.1-.838 2.1 2.1 0 0 1 .124-.753q.128-.347.41-.605.28-.265.767-.371.48-.104.844.014.363.12.625.387.262.268.427.646.171.377.261.791m-2.817.612q.064.291.172.587.109.294.285.518.176.223.429.333.259.11.624.03.359-.078.544-.283.19-.207.258-.483t.044-.59a4.361 4.361 0 0 0-.258-1.186 1.9 1.9 0 0 0-.284-.518 1.07 1.07 0 0 0-.436-.338q-.255-.117-.614-.039-.365.08-.554.292-.185.206-.251.488-.068.276-.044.589.023.314.085.6"/><path stroke="#E3E6E8" stroke-width=".623" d="m76.616 174.249 191.394-41.547"/><path fill="#262626" d="m63.008 197.489-.53.114-.749-3.449-.876.19-.078-.359q.18-.052.328-.103.147-.057.263-.14a.87.87 0 0 0 .337-.474l.37-.081zm3.891-3.094q.09.414.09.828.007.412-.12.765a1.55 1.55 0 0 1-.41.605q-.282.258-.762.363-.487.105-.85-.013a1.54 1.54 0 0 1-.624-.381 2.1 2.1 0 0 1-.425-.634 4 4 0 0 1-.257-.804 4 4 0 0 1-.1-.839 2.1 2.1 0 0 1 .124-.753q.129-.346.41-.605.28-.264.767-.37.48-.105.844.014.363.119.626.387.262.268.427.646.17.377.26.791m-2.817.611q.064.293.172.587.11.296.285.518t.43.334q.258.11.624.03.358-.077.543-.284.191-.207.259-.482.068-.276.044-.59a4.4 4.4 0 0 0-.258-1.186 1.9 1.9 0 0 0-.284-.518 1.07 1.07 0 0 0-.437-.339q-.254-.117-.614-.038-.365.078-.554.292a1.1 1.1 0 0 0-.251.488q-.068.275-.044.589t.085.599m6.864-1.49q.09.414.09.828.007.412-.12.765a1.54 1.54 0 0 1-.41.605q-.282.26-.763.363-.487.107-.85-.013a1.54 1.54 0 0 1-.624-.38 2.1 2.1 0 0 1-.424-.634 4 4 0 0 1-.258-.804 4 4 0 0 1-.099-.839 2.1 2.1 0 0 1 .123-.753q.13-.347.41-.605.28-.265.767-.37.48-.105.844.014t.626.386q.262.269.427.647.17.377.26.79m-2.817.612q.063.292.172.587t.284.518.43.334q.258.11.624.03.359-.078.544-.284a1.1 1.1 0 0 0 .258-.483q.068-.276.044-.589a4.4 4.4 0 0 0-.087-.606 4.4 4.4 0 0 0-.17-.581 1.9 1.9 0 0 0-.285-.518 1.1 1.1 0 0 0-.437-.338q-.255-.117-.613-.039-.366.079-.555.293a1.1 1.1 0 0 0-.25.487q-.068.276-.045.59t.086.599m6.863-1.49q.09.414.09.828.007.413-.12.765a1.54 1.54 0 0 1-.41.605q-.282.26-.763.363-.486.106-.85-.013a1.55 1.55 0 0 1-.624-.38 2.1 2.1 0 0 1-.424-.635 4 4 0 0 1-.258-.804 4 4 0 0 1-.099-.838 2.1 2.1 0 0 1 .123-.753q.13-.347.41-.605.28-.265.768-.371.48-.104.844.014.363.12.625.387.262.268.427.646.171.377.26.791m-2.817.612q.063.291.172.587.108.294.284.518.176.223.43.333.259.11.624.03.359-.078.544-.283a1.1 1.1 0 0 0 .258-.483 1.9 1.9 0 0 0 .044-.589 4.332 4.332 0 0 0-.258-1.187 1.9 1.9 0 0 0-.284-.518 1.07 1.07 0 0 0-.436-.338q-.255-.117-.614-.039-.364.08-.555.292a1.1 1.1 0 0 0-.25.488q-.068.276-.045.589.023.314.086.6"/><path stroke="#E3E6E8" stroke-width=".623" d="m80.331 191.363 191.395-41.547M69.285 118.304l17.434 80.312"/><path fill="#645BAA" d="M81.999 137.843a2.49 2.49 0 0 1 1.905-2.962l3.65-.793a2.49 2.49 0 0 1 2.963 1.906l12.811 59.017-8.518 1.849z"/><path fill="#339CFF" d="M92.291 132.423a2.49 2.49 0 0 1 1.905-2.962l3.65-.792a2.49 2.49 0 0 1 2.963 1.905l13.471 62.059-8.518 1.849z"/><path fill="#262626" d="m100.756 205.232.293-.382q.163-.214.291-.446.135-.232.21-.472.075-.246.025-.502-.073-.392-.355-.548-.283-.16-.673-.077a1.1 1.1 0 0 0-.513.246.62.62 0 0 0-.224.437l-.566.123a1 1 0 0 1 .083-.471q.099-.218.267-.383.175-.165.399-.277t.473-.167a1.7 1.7 0 0 1 .566-.033q.267.024.484.143t.365.335q.154.208.219.507.064.298.025.555-.034.255-.143.49a2.7 2.7 0 0 1-.252.449q-.151.218-.313.438l-.89 1.155 2.191-.476.104.481-2.957.642-.095-.438zm5.612-1.894q.09.414.09.828a2.1 2.1 0 0 1-.12.765 1.54 1.54 0 0 1-.411.605q-.28.26-.762.363-.487.107-.85-.013a1.54 1.54 0 0 1-.624-.38 2.1 2.1 0 0 1-.424-.634 4 4 0 0 1-.258-.804 4.2 4.2 0 0 1-.099-.839 2 2 0 0 1 .123-.753q.13-.347.41-.605.28-.265.767-.37.481-.105.844.014.364.119.626.386.262.269.427.647.171.377.261.79m-2.817.612q.063.292.172.587t.284.518.429.334q.26.11.625.03.358-.078.544-.284a1.1 1.1 0 0 0 .258-.483q.068-.276.044-.589a4.26 4.26 0 0 0-.258-1.187 1.9 1.9 0 0 0-.284-.518 1.1 1.1 0 0 0-.437-.338q-.254-.117-.613-.039-.366.079-.555.293a1.1 1.1 0 0 0-.251.487 1.9 1.9 0 0 0-.044.59q.024.313.086.599m4.608-.325.293-.382q.163-.214.292-.446.134-.233.209-.472.075-.246.025-.502-.072-.392-.354-.548-.284-.16-.673-.077a1.1 1.1 0 0 0-.514.246.63.63 0 0 0-.224.437l-.566.123q-.011-.26.083-.471.099-.218.267-.383.175-.165.399-.277t.473-.167a1.7 1.7 0 0 1 .566-.033q.267.024.484.143t.366.335q.153.209.218.507.064.297.025.555-.034.256-.142.489a3 3 0 0 1-.253.45q-.15.218-.313.438l-.889 1.155 2.19-.476.104.481-2.957.642-.095-.438zm3.535-.767.293-.383q.164-.213.292-.445.134-.233.21-.473.074-.245.024-.502-.072-.392-.354-.547-.283-.162-.673-.077a1.14 1.14 0 0 0-.514.245.63.63 0 0 0-.223.437l-.566.123q-.011-.258.082-.47a1.2 1.2 0 0 1 .268-.383 1.7 1.7 0 0 1 .398-.278q.224-.112.474-.166.297-.065.566-.034.266.025.483.144.217.118.366.334.153.21.218.507t.025.555q-.033.256-.142.49a2.7 2.7 0 0 1-.253.45q-.15.218-.313.437l-.889 1.155 2.19-.475.104.481-2.956.642-.096-.439z"/><path stroke="#E3E6E8" stroke-width=".623" d="m104.938 110.565 17.434 80.312"/><path fill="#645BAA" d="M117.653 130.103a2.49 2.49 0 0 1 1.906-2.962l3.65-.792a2.49 2.49 0 0 1 2.962 1.905l12.811 59.017-8.518 1.849z"/><path fill="#339CFF" d="M127.944 124.684a2.49 2.49 0 0 1 1.906-2.962l3.65-.793a2.49 2.49 0 0 1 2.962 1.906l13.472 62.059-8.518 1.849z"/><path fill="#262626" d="m136.356 197.504.293-.382q.165-.214.292-.446.135-.232.21-.472a1.04 1.04 0 0 0 .025-.502q-.073-.393-.355-.548-.283-.16-.673-.077a1.1 1.1 0 0 0-.514.246.63.63 0 0 0-.223.437l-.566.123q-.012-.259.083-.471a1.2 1.2 0 0 1 .267-.382q.174-.166.398-.278t.474-.167q.298-.065.566-.033.267.024.483.143.218.119.366.335.154.209.219.507.064.298.024.555a1.6 1.6 0 0 1-.142.49 2.7 2.7 0 0 1-.252.449q-.151.218-.313.438l-.89 1.155 2.19-.475.105.48-2.957.642-.095-.438zm5.613-1.893q.09.413.09.827a2.1 2.1 0 0 1-.121.765 1.54 1.54 0 0 1-.41.606q-.281.258-.762.363-.487.105-.85-.013a1.55 1.55 0 0 1-.624-.381 2.2 2.2 0 0 1-.425-.634 4 4 0 0 1-.257-.804 4.2 4.2 0 0 1-.099-.839 2 2 0 0 1 .123-.753q.13-.347.41-.605.28-.264.767-.37.481-.105.844.014t.626.387q.262.268.427.646.171.377.261.791m-2.817.611q.063.292.172.587t.284.518.429.334q.26.11.625.03.358-.078.543-.284.192-.207.259-.483t.044-.589a4.207 4.207 0 0 0-.258-1.186 1.9 1.9 0 0 0-.284-.518 1.07 1.07 0 0 0-.437-.339q-.255-.117-.613-.039-.366.08-.555.293a1.1 1.1 0 0 0-.251.487q-.068.276-.044.59.023.313.086.599m4.608-.325.293-.382q.163-.214.292-.446.134-.232.209-.472.075-.246.025-.502-.072-.393-.355-.548-.283-.16-.673-.077a1.1 1.1 0 0 0-.513.246.63.63 0 0 0-.224.437l-.566.123q-.011-.26.083-.471.099-.219.267-.383.174-.165.399-.277.224-.113.473-.167a1.7 1.7 0 0 1 .566-.033q.267.024.484.143t.365.335q.154.209.219.507.064.298.025.555-.034.256-.142.49a2.7 2.7 0 0 1-.253.449q-.15.218-.313.438l-.89 1.155 2.191-.475.104.48-2.957.642-.095-.438zm4.154.723a3 3 0 0 1-.528.064 1.9 1.9 0 0 1-.516-.06 1.3 1.3 0 0 1-.446-.235 1.03 1.03 0 0 1-.299-.438l.547-.119q.09.146.221.226a1.1 1.1 0 0 0 .613.122q.163-.01.31-.042.133-.03.298-.09a1 1 0 0 0 .294-.173.66.66 0 0 0 .2-.285.76.76 0 0 0 .013-.436.7.7 0 0 0-.182-.368.64.64 0 0 0-.292-.173 1 1 0 0 0-.357-.03q-.188.015-.376.056l-.414.09-.103-.475.249-.054q.165-.036.303-.072.138-.043.292-.153a.8.8 0 0 0 .255-.323.8.8 0 0 0-.114-.759.6.6 0 0 0-.242-.176.7.7 0 0 0-.296-.044 1.6 1.6 0 0 0-.317.037 1.3 1.3 0 0 0-.261.088 1 1 0 0 0-.237.141.7.7 0 0 0-.172.209.56.56 0 0 0-.076.265l-.529.115a1 1 0 0 1 .071-.493 1.2 1.2 0 0 1 .261-.382q.175-.165.4-.272.231-.107.481-.161.274-.06.524-.05.255.001.467.096.21.088.36.278.156.19.222.494.025.115.03.255a1 1 0 0 1-.036.275 1.033 1.033 0 0 1-.428.583q.424-.009.699.225.272.227.357.616l.005.025q.073.334.004.604-.065.262-.237.466a1.5 1.5 0 0 1-.438.33 2.4 2.4 0 0 1-.58.203"/><path stroke="#E3E6E8" stroke-width=".623" d="m140.593 102.825 17.433 80.312"/><path fill="#645BAA" d="M153.307 122.364a2.49 2.49 0 0 1 1.905-2.962l3.651-.793a2.49 2.49 0 0 1 2.962 1.906l12.811 59.017-8.518 1.849z"/><path fill="#339CFF" d="M163.599 116.944a2.49 2.49 0 0 1 1.905-2.962l3.651-.792a2.49 2.49 0 0 1 2.962 1.905l13.471 62.059-8.518 1.849z"/><path fill="#262626" d="m171.965 189.774.293-.382q.164-.214.292-.445.133-.233.21-.473.073-.245.024-.502-.072-.392-.354-.547-.283-.162-.673-.077a1.1 1.1 0 0 0-.514.245.63.63 0 0 0-.223.437l-.566.123q-.012-.259.082-.47a1.2 1.2 0 0 1 .268-.383 1.7 1.7 0 0 1 .398-.278q.224-.112.474-.166.297-.066.566-.034.266.025.483.143.218.119.366.335.153.209.218.507t.025.555q-.034.256-.142.49a2.7 2.7 0 0 1-.253.45q-.15.217-.313.437l-.889 1.155 2.19-.475.105.48-2.957.642-.096-.438zm5.612-1.893q.09.413.091.827.006.414-.121.766a1.54 1.54 0 0 1-.41.605q-.282.258-.762.363-.487.105-.85-.013a1.5 1.5 0 0 1-.624-.381 2.1 2.1 0 0 1-.425-.634 4 4 0 0 1-.257-.804 4 4 0 0 1-.099-.839 2 2 0 0 1 .123-.753q.129-.346.41-.605.28-.265.767-.37.48-.105.844.014.363.119.625.387t.427.646q.171.377.261.791m-2.817.611q.064.293.172.587.11.296.285.518t.429.334q.26.11.624.03.36-.077.544-.284a1.1 1.1 0 0 0 .258-.483q.067-.275.045-.589a4.5 4.5 0 0 0-.087-.605 4.5 4.5 0 0 0-.171-.581 1.9 1.9 0 0 0-.284-.518 1.1 1.1 0 0 0-.437-.339q-.255-.117-.614-.039-.365.08-.554.293a1.1 1.1 0 0 0-.251.488q-.068.275-.044.589.023.314.085.599m4.608-.325.293-.382a3.5 3.5 0 0 0 .292-.445q.135-.233.21-.473.074-.245.025-.502-.073-.393-.355-.548-.283-.161-.673-.076a1.1 1.1 0 0 0-.514.245.63.63 0 0 0-.223.437l-.566.123a1 1 0 0 1 .083-.47q.099-.22.267-.383.174-.166.398-.278t.474-.166q.298-.066.566-.034.267.024.483.143.217.119.366.335.154.209.219.507.064.298.025.555-.034.256-.143.49a2.7 2.7 0 0 1-.252.45q-.151.217-.313.437l-.89 1.155 2.19-.475.105.48-2.957.642-.095-.438zm4.442-3.895.643 2.963.505-.109.105.481-.505.109.186.858-.529.115-.187-.858-2.336.507-.086-.395 1.444-3.505zm-1.584 3.447 1.698-.369-.539-2.482z"/><path stroke="#E3E6E8" stroke-width=".623" d="m176.246 95.086 17.434 80.312"/><path fill="#645BAA" d="M188.96 114.624a2.49 2.49 0 0 1 1.905-2.962l3.651-.792a2.49 2.49 0 0 1 2.962 1.905l12.811 59.017-8.518 1.849z"/><path fill="#339CFF" d="M199.251 109.205a2.49 2.49 0 0 1 1.905-2.962l3.651-.793a2.49 2.49 0 0 1 2.962 1.906l13.471 62.059-8.518 1.849z"/><path fill="#262626" d="m207.61 182.037.293-.382q.164-.215.291-.446.135-.233.21-.472.074-.245.025-.503-.072-.391-.355-.547-.283-.161-.673-.077a1.13 1.13 0 0 0-.513.245.63.63 0 0 0-.224.438l-.566.122q-.012-.258.083-.47.099-.22.267-.383.174-.166.399-.277.224-.113.473-.167.298-.064.566-.034.267.025.484.144.216.118.365.335.154.209.219.506.064.298.025.556-.034.255-.143.489a2.7 2.7 0 0 1-.252.45q-.151.218-.313.438l-.89 1.155 2.191-.476.104.481-2.957.642-.095-.438zm5.612-1.894q.09.414.09.828a2.1 2.1 0 0 1-.12.765 1.54 1.54 0 0 1-.411.605q-.28.26-.762.363-.487.106-.85-.013a1.55 1.55 0 0 1-.624-.38 2.1 2.1 0 0 1-.424-.635 4 4 0 0 1-.258-.804 4.2 4.2 0 0 1-.099-.838 2 2 0 0 1 .123-.753q.13-.347.41-.605.28-.265.767-.371.481-.104.844.015.364.118.626.386t.427.646q.171.377.261.791m-2.817.612q.063.291.172.587.108.294.284.518.175.223.429.333.26.11.625.03.358-.077.544-.283a1.1 1.1 0 0 0 .258-.483q.068-.276.044-.589a4.22 4.22 0 0 0-.258-1.187 1.9 1.9 0 0 0-.284-.518 1.07 1.07 0 0 0-.437-.338q-.254-.117-.613-.039-.366.08-.555.292a1.1 1.1 0 0 0-.251.488q-.067.276-.044.589.023.314.086.6m4.608-.325.293-.382q.163-.215.292-.446.134-.233.209-.472a1 1 0 0 0 .025-.503q-.072-.392-.354-.547-.284-.162-.673-.077a1.14 1.14 0 0 0-.514.245.63.63 0 0 0-.224.437l-.566.123q-.011-.258.083-.47.099-.22.267-.383.175-.165.399-.278.224-.112.473-.166.299-.064.566-.034.267.025.484.144.216.118.366.335.153.209.218.506.064.298.025.556-.034.255-.142.489a3 3 0 0 1-.253.45q-.15.218-.313.437l-.889 1.156 2.19-.476.104.481-2.957.642-.095-.438zm2.452-.985-.319-2.409 2.573-.559.106.487-2.099.456.171 1.377a1.3 1.3 0 0 1 .356-.3 1.8 1.8 0 0 1 .565-.212q.31-.068.587-.026a1.26 1.26 0 0 1 .873.556q.159.234.226.544.074.34.01.635a1.37 1.37 0 0 1-.655.913 1.9 1.9 0 0 1-.587.229 2.3 2.3 0 0 1-.531.052 1.6 1.6 0 0 1-.483-.087 1.216 1.216 0 0 1-.706-.668l.535-.116a.7.7 0 0 0 .196.199q.119.077.256.123.142.039.291.045a1.1 1.1 0 0 0 .287-.024q.219-.047.396-.143a1 1 0 0 0 .299-.237.8.8 0 0 0 .163-.335 1.05 1.05 0 0 0-.012-.437q-.096-.444-.416-.623-.319-.18-.745-.087-.256.056-.454.194a1.5 1.5 0 0 0-.336.334z"/><path stroke="#E3E6E8" stroke-width=".623" d="m211.899 87.346 17.434 80.312"/><path fill="#645BAA" d="M224.614 106.885a2.49 2.49 0 0 1 1.906-2.962l3.65-.793a2.49 2.49 0 0 1 2.962 1.906l12.811 59.017-8.518 1.849z"/><path fill="#339CFF" d="M234.906 101.465a2.49 2.49 0 0 1 1.906-2.962l3.65-.792a2.49 2.49 0 0 1 2.962 1.905l13.472 62.059-8.518 1.849z"/><path fill="#262626" d="m243.825 174.175.293-.382a3.4 3.4 0 0 0 .292-.445q.135-.233.21-.473.074-.245.025-.502-.073-.392-.355-.547-.283-.162-.673-.077a1.1 1.1 0 0 0-.514.245.63.63 0 0 0-.223.437l-.566.123a1 1 0 0 1 .083-.47q.099-.22.267-.383a1.7 1.7 0 0 1 .398-.278q.225-.112.474-.166.298-.066.566-.034.267.025.483.143.218.119.366.335a1.3 1.3 0 0 1 .218.507q.066.298.025.555a1.6 1.6 0 0 1-.142.49 2.7 2.7 0 0 1-.253.45q-.15.217-.312.437l-.89 1.155 2.19-.475.105.48-2.957.642-.095-.438zm5.612-1.893q.09.414.091.828a2.1 2.1 0 0 1-.121.765 1.53 1.53 0 0 1-.41.605q-.282.258-.762.363-.487.105-.85-.013a1.54 1.54 0 0 1-.624-.381 2.1 2.1 0 0 1-.425-.634 4 4 0 0 1-.257-.804 4.2 4.2 0 0 1-.099-.839 2 2 0 0 1 .123-.753q.128-.346.41-.605.28-.264.767-.37.481-.105.844.014t.626.387q.262.267.427.646.171.377.26.791m-2.817.611q.064.293.172.587.11.296.285.518t.429.334q.26.11.625.03.359-.077.543-.284.192-.207.259-.482.067-.276.044-.59a4.18 4.18 0 0 0-.258-1.186 1.9 1.9 0 0 0-.284-.518 1.07 1.07 0 0 0-.437-.339q-.255-.116-.614-.039-.365.08-.554.293a1.1 1.1 0 0 0-.251.488q-.068.275-.044.589t.085.599m5.182 1.124-.529.115-.749-3.449-.876.19-.078-.359q.18-.052.328-.103.147-.058.263-.14a.9.9 0 0 0 .199-.196 1 1 0 0 0 .137-.279l.371-.08zm3.097-2.997q-.046.195-.153.351a1.3 1.3 0 0 1-.254.266q-.147.114-.322.191a2 2 0 0 1-.352.108 1.7 1.7 0 0 1-.554.031 1.3 1.3 0 0 1-.495-.166 1.3 1.3 0 0 1-.383-.357 1.45 1.45 0 0 1-.235-.554 1.5 1.5 0 0 1-.017-.608q.05-.291.205-.522a1.5 1.5 0 0 1 .405-.394q.245-.162.592-.237.474-.102.831.043.355.14.609.428.254.29.415.681.162.392.248.787.095.438.082.881-.007.435-.169.775-.14.298-.424.513a1.8 1.8 0 0 1-.716.308 2 2 0 0 1-.469.045 1.367 1.367 0 0 1-.819-.313 1.2 1.2 0 0 1-.285-.371l.584-.127a.7.7 0 0 0 .422.271q.274.056.523.002.297-.072.479-.232a.96.96 0 0 0 .267-.383q.061-.159.079-.342.016-.188.011-.359a2.4 2.4 0 0 0-.034-.33 3 3 0 0 0-.042-.252zm-2.217-.296q.092.426.387.61.301.183.722.098.195-.042.352-.14a.89.89 0 0 0 .413-.561.84.84 0 0 0 .002-.376 1 1 0 0 0-.155-.361.8.8 0 0 0-.26-.256.956.956 0 0 0-.721-.124 1 1 0 0 0-.617.414 1 1 0 0 0-.133.328.9.9 0 0 0 .01.368"/><path stroke="#E3E6E8" stroke-width=".623" d="m247.554 79.607 17.433 80.312"/><circle cx="71.904" cy="232.056" r="3.113" fill="#645BAA" transform="rotate(-12.247 71.904 232.056)"/><path fill="#262626" d="M82.387 232.41q-.707.153-1.285.038a2.6 2.6 0 0 1-1.026-.455 2.8 2.8 0 0 1-.748-.854 4.1 4.1 0 0 1-.445-1.188 4.1 4.1 0 0 1-.087-1.266q.054-.609.324-1.096a2.5 2.5 0 0 1 .747-.831q.476-.353 1.183-.506.699-.152 1.279-.028.578.116 1.024.446.447.332.75.863.3.523.445 1.188.144.665.087 1.266-.057.6-.326 1.087-.27.486-.745.84-.478.345-1.177.496m-1.19-5.485q-.537.116-.887.397a1.8 1.8 0 0 0-.534.66 2.4 2.4 0 0 0-.215.858 3.3 3.3 0 0 0 .072.948q.105.486.319.894.221.406.55.684.327.276.761.387.441.1.978-.016t.888-.389q.35-.281.526-.658a2.3 2.3 0 0 0 .208-.848 3.4 3.4 0 0 0-.073-.956 3.3 3.3 0 0 0-.33-.901 2.2 2.2 0 0 0-.541-.685 1.8 1.8 0 0 0-.76-.379 2.1 2.1 0 0 0-.963.004m5.33 4.515-.836-3.85-.732.159-.14-.639.733-.159-.103-.477q-.163-.75.085-1.169t1.014-.586l.512-.111.138.639-.434.094q-.46.1-.563.363-.104.264-.01.698l.085.392 1.202-.261.138.639-1.2.261.835 3.85zm3.034-.659-.836-3.85-.732.159-.139-.639.733-.159-.104-.477q-.162-.749.085-1.169.249-.419 1.015-.586l.51-.11.14.638-.435.095q-.46.099-.563.363-.104.263-.01.697l.086.392 1.2-.26.14.638-1.202.261.836 3.85zm2.066-3.311 2.64-.573.145.664-2.64.573zm4.701 3.537-1.326-6.107.69-.15.18.666q.154-.4.508-.664.36-.274.818-.382.519-.113.916-.012.402.091.71.354.314.254.525.653.21.392.315.877.108.495.079.938-.03.443-.21.803t-.516.621a2.2 2.2 0 0 1-.857.364q-.51.111-.904.027a1.5 1.5 0 0 1-.677-.326l.473 2.181zm1.634-2.665q.367-.08.585-.26.226-.192.332-.447.112-.265.115-.578.012-.315-.054-.657a2.6 2.6 0 0 0-.215-.623 1.4 1.4 0 0 0-.345-.478 1.15 1.15 0 0 0-.501-.257 1.35 1.35 0 0 0-.652-.001q-.434.095-.698.401-.264.299-.349.692a1.5 1.5 0 0 0-.039.436q.01.212.058.434.055.255.138.469.08.205.217.381.231.289.586.444.362.144.822.044m3.07-.051-1.307-6.022.724-.157 1.307 6.022zm4.61-1.598a1.3 1.3 0 0 1-.263.387 1.8 1.8 0 0 1-.352.273q-.18.111-.38.18a3 3 0 0 1-.386.111 2.3 2.3 0 0 1-.613.053 1.6 1.6 0 0 1-.564-.136 1.3 1.3 0 0 1-.451-.349 1.3 1.3 0 0 1-.253-.551 1.4 1.4 0 0 1-.003-.669q.088-.295.291-.509.204-.213.497-.339.301-.137.65-.213l1.32-.286q-.123-.571-.443-.85-.321-.287-.912-.176-.358.078-.605.256a.69.69 0 0 0-.289.473l-.775.168a1.15 1.15 0 0 1 .125-.571 1.5 1.5 0 0 1 .349-.45 2 2 0 0 1 .49-.33q.274-.13.564-.194.503-.109.881-.012a1.52 1.52 0 0 1 1.095.895q.168.365.272.842l.527 2.427-.605.131zm-1.168-1.272q-.204.045-.475.112a2.7 2.7 0 0 0-.5.162.76.76 0 0 0-.354.3.63.63 0 0 0-.052.458.68.68 0 0 0 .403.501 1 1 0 0 0 .336.07q.18.005.359-.034.638-.138.938-.525.306-.396.186-.994l-.048-.222zm2.976 1.477-.974-4.489.698-.151.182.674q.07-.212.202-.383.141-.174.317-.31.175-.137.379-.225.212-.09.417-.135.485-.105.853-.015.365.08.622.319.255.23.424.595.166.357.26.791l.538 2.479-.724.157-.495-2.283a4.4 4.4 0 0 0-.174-.596 1.5 1.5 0 0 0-.264-.477.9.9 0 0 0-.403-.296q-.243-.09-.601-.013a1.3 1.3 0 0 0-.585.306 1.5 1.5 0 0 0-.342.475q-.135.324-.129.679.003.348.078.688l.445 2.053z"/><circle cx="129.467" cy="219.561" r="3.113" fill="#339CFF" transform="rotate(-12.247 129.467 219.561)"/><path fill="#262626" d="M138.341 214.52a3 3 0 0 0-.476.148 1.4 1.4 0 0 0-.401.247.9.9 0 0 0-.261.36.84.84 0 0 0-.019.486q.074.34.299.515.223.165.503.221.222.04.466.05a10 10 0 0 0 .492.009q.258-.002.499-.001.25 0 .488.028.559.066.937.332.387.263.506.809.11.51.004.882a1.55 1.55 0 0 1-.35.647 2 2 0 0 1-.613.463 3.5 3.5 0 0 1-.798.271 4 4 0 0 1-.853.096q-.41 0-.776-.126a1.9 1.9 0 0 1-.665-.391 2 2 0 0 1-.49-.696l.775-.168q.148.27.368.419t.473.21.528.046q.28-.017.545-.074.256-.055.483-.159.234-.112.396-.273a.9.9 0 0 0 .232-.371q.069-.212.012-.476-.087-.4-.342-.55a1.44 1.44 0 0 0-.636-.174 5 5 0 0 0-.53-.019q-.274.007-.552.004a8 8 0 0 1-.549-.023 3.3 3.3 0 0 1-.511-.094 1.5 1.5 0 0 1-.678-.37q-.304-.291-.415-.802-.104-.477.014-.842.117-.364.372-.625.256-.26.604-.425a3.6 3.6 0 0 1 1.4-.331q.29-.018.563.048.42.087.75.372.329.285.471.816l-.724.157a1 1 0 0 0-.258-.407 1 1 0 0 0-.361-.225 1.2 1.2 0 0 0-.442-.065 2 2 0 0 0-.48.051m4.524 2.621q.09.293.239.528.156.225.367.375.212.151.482.208.278.046.61-.026.162-.035.327-.097.17-.073.31-.175.137-.11.23-.255a.8.8 0 0 0 .116-.328l.741-.161a1.567 1.567 0 0 1-.491 1.106 2 2 0 0 1-.504.35q-.292.135-.607.203a2.4 2.4 0 0 1-.974.033 1.9 1.9 0 0 1-.758-.326 2 2 0 0 1-.549-.639 3.3 3.3 0 0 1-.329-.901 3 3 0 0 1-.063-.949q.052-.458.249-.822.198-.363.544-.617t.875-.368q.536-.117.974.011t.753.425a2.2 2.2 0 0 1 .493.669 2.6 2.6 0 0 1 .271.878q.017.077.024.155zm2.478-1.198q-.14-.566-.559-.851-.419-.283-.989-.159-.316.067-.532.222a1.2 1.2 0 0 0-.339.368q-.123.214-.165.473a1.8 1.8 0 0 0-.014.511zm4.197 1.872a2.4 2.4 0 0 1-.965.031 1.76 1.76 0 0 1-.751-.336 2.1 2.1 0 0 1-.541-.641 3.2 3.2 0 0 1-.325-.884 2.9 2.9 0 0 1-.058-.924q.043-.455.241-.819a1.86 1.86 0 0 1 .557-.638q.36-.275.931-.399.34-.073.621-.054.279.01.544.122.272.102.498.321.225.218.382.568l-.741.161q-.21-.348-.526-.448a1.2 1.2 0 0 0-.68-.013q-.367.08-.616.285a1.3 1.3 0 0 0-.364.463 1.7 1.7 0 0 0-.122.588q-.012.315.057.63.072.333.213.614.15.279.362.474.218.185.512.264.291.07.658-.009a2 2 0 0 0 .342-.11 1.2 1.2 0 0 0 .299-.181.875.875 0 0 0 .306-.646l.75-.163q.007.364-.116.658-.117.285-.335.51a2 2 0 0 1-.511.361q-.29.143-.622.215m3.686-5.608q.537-.116.965-.031.43.086.76.335.339.248.559.645.228.389.336.891.11.502.066.958a2 2 0 0 1-.244.811q-.2.355-.562.612a2.4 2.4 0 0 1-.9.374 2.4 2.4 0 0 1-.974.033 2 2 0 0 1-.766-.324 2.1 2.1 0 0 1-.558-.637 3.3 3.3 0 0 1-.329-.901 3.2 3.2 0 0 1-.072-.947q.044-.456.241-.82.207-.366.578-.625.372-.259.9-.374m.841 3.956q.366-.08.603-.264.244-.187.367-.446.129-.268.141-.583a2.4 2.4 0 0 0-.056-.666 2.4 2.4 0 0 0-.224-.62 1.4 1.4 0 0 0-.37-.473 1.2 1.2 0 0 0-.52-.262 1.5 1.5 0 0 0-.658.009 1.5 1.5 0 0 0-.603.265 1.26 1.26 0 0 0-.365.454 1.5 1.5 0 0 0-.141.584q-.013.314.062.655.075.35.217.631.15.28.37.472.227.183.519.253.291.07.658-.009m3.149-.068-.974-4.489.698-.151.182.674q.07-.212.202-.383.141-.174.317-.31.175-.135.379-.225.212-.09.417-.135.485-.105.853-.015.365.08.622.319.255.23.423.595.166.357.261.791l.538 2.479-.724.157-.495-2.283a4 4 0 0 0-.174-.595 1.5 1.5 0 0 0-.264-.478.9.9 0 0 0-.404-.296q-.242-.09-.6-.013a1.3 1.3 0 0 0-.585.306 1.5 1.5 0 0 0-.342.475q-.135.324-.129.68.003.347.077.687l.446 2.053zm8.951-1.943-.69.15-.18-.665a1.36 1.36 0 0 1-.519.692 2.2 2.2 0 0 1-.806.353q-.513.103-.925.014a1.7 1.7 0 0 1-.719-.353 2.2 2.2 0 0 1-.513-.638 3.6 3.6 0 0 1-.306-.878 3.3 3.3 0 0 1-.077-.929q.027-.452.207-.812.179-.37.515-.629.336-.26.855-.373.393-.086.824-.027.432.057.757.326l-.454-2.096.724-.157zm-2.958-3.434a1.35 1.35 0 0 0-.592.271 1.2 1.2 0 0 0-.341.44q-.106.255-.116.578-.003.313.075.671.077.357.208.632.129.267.339.453t.495.267q.284.072.658-.009.435-.094.672-.36.236-.265.34-.609.073-.238.071-.497a2.7 2.7 0 0 0-.24-1.062 1.4 1.4 0 0 0-.3-.435 1.5 1.5 0 0 0-.542-.319 1.34 1.34 0 0 0-.727-.021m6.842 1.994q-.102.226-.264.387a2.034 2.034 0 0 1-.731.453 3 3 0 0 1-.386.11q-.316.07-.613.053a1.6 1.6 0 0 1-.565-.136 1.3 1.3 0 0 1-.45-.348 1.3 1.3 0 0 1-.254-.552 1.4 1.4 0 0 1-.002-.668q.087-.296.291-.509t.497-.34q.3-.137.649-.212l1.321-.287q-.125-.57-.443-.849-.32-.287-.913-.177-.358.078-.604.256a.69.69 0 0 0-.29.474l-.775.168a1.15 1.15 0 0 1 .126-.572q.13-.26.348-.45.216-.198.49-.329.276-.13.565-.194.502-.11.88-.013.384.087.657.313.27.218.438.582.168.365.272.842l.527 2.428-.605.131zm-1.168-1.272q-.204.044-.475.112a2.5 2.5 0 0 0-.5.162.75.75 0 0 0-.354.3.63.63 0 0 0-.053.457.7.7 0 0 0 .149.316.7.7 0 0 0 .254.185 1 1 0 0 0 .337.07q.179.006.358-.033.639-.14.939-.525.306-.396.185-.995l-.048-.221zm2.976 1.477-.975-4.489.699-.152.185.691q.162-.446.507-.707.344-.263.83-.368l.23-.05.148.682-.264.057a1.6 1.6 0 0 0-.652.284 1.24 1.24 0 0 0-.383.458 1.6 1.6 0 0 0-.14.583 2.7 2.7 0 0 0 .063.664l.476 2.19zm6.061-6.017.975 4.489q.213.98-.188 1.602-.398.63-1.343.836-.573.115-1.064.07a2.15 2.15 0 0 1-.942-.313l.191-.639q.39.192.797.264.417.07.834-.02.35-.076.573-.241a1 1 0 0 0 .335-.385q.121-.222.132-.501a2 2 0 0 0-.047-.587l-.116-.537q-.075.195-.215.368a1.6 1.6 0 0 1-.312.29 1.8 1.8 0 0 1-.384.2 2.3 2.3 0 0 1-.426.137q-.512.102-.886.023a1.4 1.4 0 0 1-.63-.31 1.8 1.8 0 0 1-.421-.586 4 4 0 0 1-.268-.825l-.538-2.478.724-.158.493 2.275q.067.306.166.597.106.29.276.493a1 1 0 0 0 .431.299q.26.087.643.003.382-.083.612-.302.237-.221.328-.5.107-.29.091-.608a3.3 3.3 0 0 0-.077-.643l-.468-2.155zm4.239 3.781-1.307-6.022.724-.158.482 2.224q.074-.195.213-.377.14-.181.306-.316a1.7 1.7 0 0 1 .379-.225q.219-.1.432-.147.486-.105.844-.014.366.081.623.32.264.228.423.595.167.356.263.799l.536 2.47-.724.157-.488-2.248a5 5 0 0 0-.163-.589 1.6 1.6 0 0 0-.268-.495 1 1 0 0 0-.422-.301q-.255-.105-.639-.022-.315.069-.552.29-.231.21-.341.484a1.5 1.5 0 0 0-.136.645q.01.336.084.677l.455 2.096zm5.938-6.043a2.4 2.4 0 0 1 .965-.031q.429.085.76.334.339.247.559.646.227.387.336.89t.065.958a1.877 1.877 0 0 1-.805 1.424 2.5 2.5 0 0 1-.9.374 2.5 2.5 0 0 1-.974.033 2 2 0 0 1-.766-.325 2.1 2.1 0 0 1-.558-.637 3.3 3.3 0 0 1-.329-.9 3.2 3.2 0 0 1-.072-.948 2.1 2.1 0 0 1 .241-.82q.206-.365.578-.624.372-.26.9-.374m.841 3.956q.366-.08.602-.265.245-.187.368-.445.129-.269.141-.584a2.4 2.4 0 0 0-.056-.666 2.4 2.4 0 0 0-.224-.62 1.4 1.4 0 0 0-.37-.473 1.2 1.2 0 0 0-.52-.261 1.5 1.5 0 0 0-.659.009 1.5 1.5 0 0 0-.602.264 1.3 1.3 0 0 0-.365.454 1.6 1.6 0 0 0-.141.584q-.013.315.062.655.076.35.217.631.15.28.37.473.227.183.519.253t.658-.009m4.895-1.063q.614-.133.815-.56.208-.438.064-1.102l-.541-2.496.724-.157.549 2.53q.222 1.022-.165 1.623-.378.6-1.307.801t-1.521-.187q-.584-.39-.806-1.413l-.549-2.53.724-.157.541 2.496q.144.664.516.976.37.304.956.176m3.833-4.292a2 2 0 0 0-.31.093 1.1 1.1 0 0 0-.288.152.7.7 0 0 0-.215.243.53.53 0 0 0-.04.348q.063.29.307.388.253.096.617.089.153.003.33 0 .175-.012.345-.013a4 4 0 0 1 .599.004q.873.078 1.056.921.08.411-.035.704a1.2 1.2 0 0 1-.332.482 1.8 1.8 0 0 1-.526.328 3.5 3.5 0 0 1-.618.197 3.5 3.5 0 0 1-.635.075 2 2 0 0 1-.623-.078 1.7 1.7 0 0 1-.528-.296 1.4 1.4 0 0 1-.363-.563l.732-.159q.113.189.283.277.171.088.348.121a1.6 1.6 0 0 0 .682-.023q.135-.03.311-.086a1.4 1.4 0 0 0 .324-.15.75.75 0 0 0 .23-.255.54.54 0 0 0 .033-.382q-.055-.256-.253-.347a1.1 1.1 0 0 0-.492-.089q-.214.001-.443.016l-.453.009a9 9 0 0 1-.441-.02 2 2 0 0 1-.422-.096 1.1 1.1 0 0 1-.469-.309 1.2 1.2 0 0 1-.276-.573 1.26 1.26 0 0 1 .037-.65q.1-.28.305-.486.222-.208.499-.331a3 3 0 0 1 .601-.193q.689-.15 1.163.06.284.117.472.326t.28.465l-.673.146q-.114-.234-.411-.33t-.708-.015m2.578-2.906a.5.5 0 0 1 .379.061.44.44 0 0 1 .219.309.47.47 0 0 1-.069.38.5.5 0 0 1-.32.213.5.5 0 0 1-.379-.061.49.49 0 0 1-.212-.32.46.46 0 0 1 .063-.37.49.49 0 0 1 .319-.212m.974 6.211-.975-4.489.725-.158.974 4.489zm1.843-.401-.974-4.488.698-.152.182.674q.07-.212.203-.383a1.9 1.9 0 0 1 .695-.534q.213-.091.417-.135.485-.106.853-.016.365.081.622.32.255.23.424.594.166.357.26.791l.538 2.479-.724.157-.495-2.283a4 4 0 0 0-.174-.595 1.5 1.5 0 0 0-.264-.478.9.9 0 0 0-.403-.296q-.243-.09-.601-.012a1.3 1.3 0 0 0-.585.305 1.5 1.5 0 0 0-.342.476q-.135.323-.129.679.003.347.078.687l.445 2.053zm8.944-1.977q.207.954-.186 1.611-.393.656-1.423.879-.342.075-.673.066a1.8 1.8 0 0 1-.616-.125 1.6 1.6 0 0 1-.516-.325 1.6 1.6 0 0 1-.368-.544l.749-.163a.76.76 0 0 0 .241.287 1 1 0 0 0 .336.15q.18.05.375.043.195-.006.374-.045a1.5 1.5 0 0 0 .563-.239q.225-.155.338-.376.113-.22.123-.5a2 2 0 0 0-.045-.578l-.135-.622q-.136.44-.508.699-.375.25-.817.346-.513.103-.925.014a1.7 1.7 0 0 1-.718-.352 2.2 2.2 0 0 1-.514-.638 3.6 3.6 0 0 1-.306-.879 3.4 3.4 0 0 1-.077-.929q.027-.452.207-.812.179-.37.515-.629.336-.26.855-.373.393-.086.824-.027.431.057.758.326l-.088-.57.69-.149zm-2.95-3.4a1.34 1.34 0 0 0-.593.272 1.16 1.16 0 0 0-.341.439q-.105.255-.116.578-.003.314.071.654.081.375.212.65.129.266.339.452.21.187.495.268.284.072.658-.01.435-.093.672-.359.236-.266.34-.609a1.7 1.7 0 0 0 .071-.497 2.7 2.7 0 0 0-.24-1.063 1.4 1.4 0 0 0-.299-.435 1.5 1.5 0 0 0-.543-.319 1.34 1.34 0 0 0-.726-.021"/></g></g></g><g filter="url(#d)"><path fill="#fff" fill-opacity=".64" d="M24.34 19.19C24.34 10.25 31.59 3 40.533 3h223.072c8.941 0 16.19 7.249 16.19 16.19V161.88c0 8.942-7.249 16.191-16.19 16.191H40.532c-8.942 0-16.191-7.249-16.191-16.191z" shape-rendering="crispEdges"/><path fill="#262626" d="m40.48 23.992-.528-1.435h-3.306l-.529 1.435h-.888l2.484-6.677h1.18l2.475 6.677zm-2.181-5.96-1.38 3.779h2.759zm2.849.983h.906l1.568 4.203 1.54-4.203h.916l-1.918 4.977h-1.095zm6.159 2.786q.029.33.132.614.113.274.302.482t.463.33q.283.114.652.113.18 0 .368-.028.198-.038.368-.113.17-.086.303-.217a.84.84 0 0 0 .198-.322h.822q-.086.36-.293.624a1.7 1.7 0 0 1-.482.434 2.1 2.1 0 0 1-.614.255q-.339.075-.69.076-.594 0-1.038-.189-.435-.19-.727-.52a2.2 2.2 0 0 1-.435-.802 3.6 3.6 0 0 1-.142-1.03q0-.556.152-1.02.16-.472.453-.812a2 2 0 0 1 .718-.529q.425-.189 1.01-.189.595 0 1.03.236.434.237.699.624.264.377.368.821a2.8 2.8 0 0 1 .085.992q0 .085-.01.17zm2.9-.699q-.02-.633-.397-1.03-.379-.396-1.011-.396-.35 0-.614.113-.264.114-.444.312t-.283.463q-.105.256-.132.538zm1.796 2.89v-4.977h.775l.037.774q.274-.434.7-.632.424-.2.962-.199h.256v.756h-.293q-.444 0-.756.15a1.33 1.33 0 0 0-.51.398q-.189.245-.283.585a3 3 0 0 0-.085.718v2.427zm6.706-.633a1.4 1.4 0 0 1-.368.35 2.164 2.164 0 0 1-.878.312q-.218.028-.435.028-.35 0-.661-.085a1.7 1.7 0 0 1-.567-.274 1.45 1.45 0 0 1-.396-.472 1.4 1.4 0 0 1-.142-.642q0-.426.15-.709a1.34 1.34 0 0 1 .426-.472 1.6 1.6 0 0 1 .604-.246q.35-.075.737-.075h1.464q0-.633-.274-1.001-.273-.378-.925-.397-.397 0-.7.132a.74.74 0 0 0-.415.435h-.86q.067-.34.265-.576.198-.246.472-.397.274-.16.595-.236t.642-.076q.558 0 .936.19.387.18.623.48.236.294.33.719.095.424.095.953v2.692h-.67zm-.944-1.615q-.227 0-.53.01-.291 0-.566.056a.82.82 0 0 0-.444.237.68.68 0 0 0-.16.472q0 .217.085.368a.8.8 0 0 0 .226.255q.151.105.34.151.189.047.387.047.709 0 1.115-.34.416-.35.425-1.01v-.246zm7.25 2.21q0 1.059-.567 1.663-.566.604-1.709.604-.378 0-.727-.085a2 2 0 0 1-.624-.274 1.7 1.7 0 0 1-.472-.463 1.7 1.7 0 0 1-.264-.66h.83q.058.216.19.358.141.151.32.236.18.094.388.133.208.037.406.037.378 0 .652-.122.273-.114.444-.322.17-.207.245-.5.085-.284.085-.623v-.69q-.244.435-.699.623-.453.18-.944.18a2.5 2.5 0 0 1-.982-.198 1.86 1.86 0 0 1-.68-.539 2.4 2.4 0 0 1-.397-.793 4 4 0 0 1-.123-1.001q0-.54.133-1.001.132-.473.406-.813.273-.35.69-.547.415-.2.99-.199.435 0 .88.16a1.6 1.6 0 0 1 .726.52l.038-.623h.765zm-2.342-4.278q-.405 0-.69.151a1.26 1.26 0 0 0-.462.387 1.8 1.8 0 0 0-.255.586q-.075.33-.076.708 0 .416.076.737.075.311.255.557t.462.397q.284.141.7.141.48 0 .793-.226.312-.226.5-.567a1.8 1.8 0 0 0 .19-.51 2.8 2.8 0 0 0-.01-1.18 1.5 1.5 0 0 0-.218-.53 1.6 1.6 0 0 0-.5-.462q-.312-.189-.765-.189m4.132 2.125q.029.33.132.614.114.274.303.482.188.207.462.33.284.114.652.113.18 0 .368-.028.199-.038.369-.113.17-.086.302-.217a.84.84 0 0 0 .198-.322h.822q-.085.36-.293.624a1.7 1.7 0 0 1-.482.434 2.1 2.1 0 0 1-.614.255q-.34.075-.689.076-.595 0-1.039-.189-.435-.19-.727-.52a2.2 2.2 0 0 1-.434-.802 3.6 3.6 0 0 1-.142-1.03q0-.556.15-1.02.163-.472.454-.812a2 2 0 0 1 .718-.529q.425-.189 1.01-.189.595 0 1.03.236.435.237.699.624.265.377.368.821a2.8 2.8 0 0 1 .085.992q0 .085-.01.17zm2.9-.699q-.02-.633-.397-1.03-.378-.396-1.01-.396-.35 0-.615.113-.264.114-.444.312t-.283.463q-.104.256-.132.538zm5.258.387v2.503h-.822v-6.677h2.503q.548 0 .992.113t.755.36.473.65q.17.397.17.964 0 .416-.123.746a2 2 0 0 1-.33.567q-.199.236-.473.397-.274.15-.567.236l1.398 2.644h-.897L76.71 21.49zm1.417-.746q.367 0 .69-.056.33-.058.575-.208.246-.15.388-.406.15-.265.16-.7 0-.717-.425-1.01-.416-.302-1.209-.302h-1.596v2.682zm6.66 3.325q-.784 0-1.37-.255a2.8 2.8 0 0 1-.982-.718 3 3 0 0 1-.595-1.077 4.5 4.5 0 0 1-.198-1.36q0-.735.198-1.36.198-.633.595-1.086t.983-.708q.585-.265 1.37-.265.773 0 1.36.265.585.255.981.708.397.453.595 1.086.199.625.199 1.36 0 .737-.199 1.36-.198.624-.595 1.077a2.8 2.8 0 0 1-.982.718q-.585.255-1.36.255m0-6.083q-.595 0-1.03.218-.433.207-.717.576-.284.368-.425.86a3.6 3.6 0 0 0-.142 1.02q0 .537.132 1.02.142.48.425.85.284.367.718.585.443.208 1.04.208.594 0 1.029-.208a2 2 0 0 0 .708-.576q.283-.37.415-.85a3.6 3.6 0 0 0 .142-1.03 3.6 3.6 0 0 0-.142-1.03 2.3 2.3 0 0 0-.415-.85 1.95 1.95 0 0 0-.718-.575 2.25 2.25 0 0 0-1.02-.218m5.135 6.007h-.821v-6.677h.822zm5.113-3.797q-.34 0-.605-.113a1.2 1.2 0 0 1-.425-.312 1.6 1.6 0 0 1-.264-.472 2 2 0 0 1-.085-.585q0-.321.085-.586.094-.273.264-.472.18-.198.435-.302.255-.114.595-.114.66 0 1.01.416.35.405.35 1.058 0 .311-.095.585a1.4 1.4 0 0 1-.255.473 1.2 1.2 0 0 1-.425.311q-.255.114-.585.113m-.624 3.797 4.109-6.677h.83l-4.098 6.677zm.624-6.082q-.378 0-.539.245a1 1 0 0 0-.16.558q0 .33.16.576.16.236.539.236.359 0 .51-.246.15-.245.15-.566 0-.312-.15-.558-.151-.245-.51-.245m3.74 6.139q-.34 0-.605-.113a1.3 1.3 0 0 1-.434-.312 1.6 1.6 0 0 1-.265-.472 2 2 0 0 1-.085-.586q0-.322.085-.585.094-.274.274-.473t.435-.302q.255-.113.595-.113.321 0 .576.113.254.105.425.302.18.199.264.473.095.264.095.585 0 .312-.095.586a1.35 1.35 0 0 1-.264.472 1.2 1.2 0 0 1-.425.312q-.255.113-.576.113m-.01-2.286q-.378 0-.538.246-.15.245-.151.557 0 .33.16.576.16.237.53.236.368 0 .51-.245.15-.246.15-.567 0-.312-.15-.557-.142-.246-.51-.246"/><rect width="24.119" height="13.722" x="244.544" y="14.131" stroke="#E3E6E8" stroke-width=".675" rx="6.861"/><path fill="#262626" d="M250.398 18.723h1.693q.554 0 .972.175.424.169.708.486.284.31.425.755.142.44.142.972-.007.533-.148.971a2.1 2.1 0 0 1-.425.756 1.9 1.9 0 0 1-.695.485 2.6 2.6 0 0 1-.979.17h-1.693zm.587.533v3.703h1.066q.364 0 .695-.108.338-.114.573-.398a1.6 1.6 0 0 0 .317-.587 2.7 2.7 0 0 0 .102-.755q0-.425-.102-.756a1.6 1.6 0 0 0-.303-.573 1.4 1.4 0 0 0-.513-.385 1.8 1.8 0 0 0-.735-.141zm4.269-.533h.586v4.236h2.618v.533h-3.204zm3.873 0h1.694q.552 0 .971.175.425.169.708.486.284.31.425.755.142.44.142.972-.006.533-.148.971a2.1 2.1 0 0 1-.425.756 1.9 1.9 0 0 1-.695.485 2.6 2.6 0 0 1-.978.17h-1.694zm.587.533v3.703h1.066q.365 0 .695-.108.337-.114.573-.398a1.6 1.6 0 0 0 .317-.587 2.7 2.7 0 0 0 .102-.755q0-.425-.102-.756a1.6 1.6 0 0 0-.303-.573 1.4 1.4 0 0 0-.513-.385 1.8 1.8 0 0 0-.735-.141z"/><path stroke="#E3E6E8" stroke-width=".675" d="M72.68 44.381v84.442"/><path fill="#262626" d="M66.258 139.554q.181-.156.398-.338a4 4 0 0 0 .411-.404q.195-.216.33-.452.136-.243.142-.527.015-.431-.25-.661-.262-.236-.694-.236-.345 0-.6.142a.68.68 0 0 0-.338.411h-.627q.047-.276.195-.479.156-.209.371-.344.223-.135.486-.202.263-.068.54-.068.33 0 .607.095.276.087.479.263.202.175.31.439.115.255.115.586 0 .332-.101.594-.095.263-.263.486a3 3 0 0 1-.371.418q-.21.196-.432.391l-1.208 1.019h2.429v.533h-3.279v-.486zm6.377-.715q0 .458-.094.897-.088.438-.304.782a1.7 1.7 0 0 1-.573.547q-.358.209-.89.209-.54 0-.898-.209a1.7 1.7 0 0 1-.573-.547 2.3 2.3 0 0 1-.304-.769 4.5 4.5 0 0 1-.088-.91q0-.486.088-.911a2.2 2.2 0 0 1 .304-.769q.216-.337.573-.547.359-.216.897-.216.534 0 .89.21.359.208.574.553.216.344.304.782.094.44.094.898m-3.123 0q0 .323.047.661.047.337.182.614t.378.452q.25.175.654.175.4 0 .641-.175.25-.176.385-.452.135-.277.182-.614.047-.338.047-.661 0-.318-.047-.655a2 2 0 0 0-.182-.614 1.16 1.16 0 0 0-.385-.458q-.243-.183-.64-.183-.406 0-.655.183a1.2 1.2 0 0 0-.378.458 2 2 0 0 0-.182.614 5 5 0 0 0-.047.655m4.954.715.398-.338a4 4 0 0 0 .412-.404q.195-.216.33-.452.135-.243.142-.527.014-.431-.25-.661-.263-.236-.695-.236-.344 0-.6.142a.68.68 0 0 0-.337.411h-.628q.048-.276.196-.479.155-.209.371-.344.222-.135.486-.202.263-.068.54-.068.33 0 .607.095.276.087.479.263.202.175.31.439.114.255.115.586 0 .332-.102.594-.094.263-.263.486a3 3 0 0 1-.37.418q-.21.196-.433.391l-1.207 1.019h2.428v.533h-3.278v-.486zm3.92 0 .398-.338q.222-.189.412-.404.195-.216.33-.452.135-.243.142-.527.014-.431-.25-.661-.263-.236-.695-.236-.344 0-.6.142a.68.68 0 0 0-.337.411h-.628q.048-.276.196-.479.155-.209.37-.344.224-.135.487-.202.262-.068.54-.068.33 0 .606.095.277.087.48.263.202.175.31.439.114.255.114.586 0 .332-.1.594-.095.263-.264.486a3 3 0 0 1-.37.418q-.21.196-.433.391l-1.207 1.019h2.428v.533h-3.278v-.486z"/><path stroke="#E3E6E8" stroke-width=".675" d="M118.247 44.381v84.442"/><path fill="#262626" d="m111.765 139.554.398-.338q.222-.189.411-.404.196-.216.331-.452.135-.243.141-.527.014-.431-.249-.661-.263-.236-.695-.236-.344 0-.601.142a.68.68 0 0 0-.337.411h-.627q.047-.276.195-.479.156-.209.371-.344.224-.135.486-.202.263-.068.54-.068.33 0 .607.095.276.087.479.263.202.175.31.439.115.255.115.586 0 .332-.101.594a1.8 1.8 0 0 1-.263.486 3 3 0 0 1-.371.418q-.21.196-.432.391l-1.208 1.019h2.429v.533h-3.279v-.486zm6.377-.715q0 .458-.094.897-.088.438-.304.782a1.7 1.7 0 0 1-.573.547q-.357.209-.891.209-.538 0-.897-.209a1.7 1.7 0 0 1-.573-.547 2.3 2.3 0 0 1-.304-.769 4.5 4.5 0 0 1-.087-.91q0-.486.087-.911.088-.432.304-.769t.573-.547q.359-.216.897-.216.534 0 .891.21.357.208.573.553.216.344.304.782.094.44.094.898m-3.123 0q0 .323.047.661.047.337.182.614t.378.452q.25.175.654.175.399 0 .641-.175a1.2 1.2 0 0 0 .385-.452q.135-.277.182-.614a4.7 4.7 0 0 0 0-1.316 2 2 0 0 0-.182-.614 1.15 1.15 0 0 0-.385-.458q-.242-.183-.641-.183-.403 0-.654.183a1.2 1.2 0 0 0-.378.458q-.135.277-.182.614a5 5 0 0 0-.047.655m4.954.715.398-.338q.223-.189.412-.404.195-.216.33-.452a1.1 1.1 0 0 0 .142-.527q.014-.431-.25-.661-.263-.236-.694-.236-.345 0-.601.142a.68.68 0 0 0-.337.411h-.628q.048-.276.196-.479.155-.209.371-.344.223-.135.486-.202a2.2 2.2 0 0 1 .54-.068q.33 0 .607.095.276.087.479.263.202.175.31.439.114.255.115.586 0 .332-.102.594-.093.263-.263.486a3 3 0 0 1-.371.418 17 17 0 0 1-.431.391l-1.208 1.019h2.429v.533h-3.279v-.486zm4.233 1.72q-.283 0-.574-.054a2 2 0 0 1-.533-.182 1.4 1.4 0 0 1-.418-.351 1.1 1.1 0 0 1-.216-.533h.607a.7.7 0 0 0 .183.29q.128.108.283.176.162.067.337.094t.338.027q.148 0 .337-.027t.351-.115a.7.7 0 0 0 .276-.256.82.82 0 0 0 .115-.459.77.77 0 0 0-.108-.432.7.7 0 0 0-.27-.249 1 1 0 0 0-.371-.115 3 3 0 0 0-.411-.027h-.459v-.526h.276q.182 0 .338-.007.155-.013.344-.094a.86.86 0 0 0 .344-.284.8.8 0 0 0 .135-.431.86.86 0 0 0-.081-.398.6.6 0 0 0-.216-.243.8.8 0 0 0-.304-.115 2 2 0 0 0-.344-.034q-.141 0-.296.034-.149.027-.284.095a.8.8 0 0 0-.229.182.6.6 0 0 0-.142.263h-.587q.04-.297.189-.506.148-.21.364-.344a1.7 1.7 0 0 1 .486-.196q.27-.06.547-.061.303 0 .566.068.27.06.472.209.202.142.318.378.121.236.121.573 0 .129-.027.277a1 1 0 0 1-.101.283q-.075.142-.216.284a1.1 1.1 0 0 1-.371.236q.452.087.688.398.236.303.236.735v.027q0 .37-.135.641a1.2 1.2 0 0 1-.357.438 1.6 1.6 0 0 1-.54.25 2.6 2.6 0 0 1-.661.081"/><path stroke="#E3E6E8" stroke-width=".675" d="M163.812 44.381v84.442"/><path fill="#262626" d="m157.281 139.554.398-.338q.222-.189.411-.404.196-.216.331-.452.135-.243.141-.527.013-.431-.249-.661-.263-.236-.695-.236-.344 0-.6.142a.68.68 0 0 0-.338.411h-.627q.047-.276.195-.479.156-.209.371-.344.224-.135.486-.202.264-.068.54-.068.33 0 .607.095.276.087.479.263.202.175.31.439.115.255.115.586 0 .332-.101.594a1.8 1.8 0 0 1-.263.486 3 3 0 0 1-.371.418q-.21.196-.432.391l-1.208 1.019h2.429v.533h-3.279v-.486zm6.377-.715q0 .458-.094.897-.087.438-.304.782a1.7 1.7 0 0 1-.573.547q-.357.209-.89.209-.54 0-.898-.209a1.7 1.7 0 0 1-.573-.547 2.3 2.3 0 0 1-.304-.769 4.5 4.5 0 0 1-.087-.91q0-.486.087-.911.088-.432.304-.769t.573-.547q.358-.216.898-.216.533 0 .89.21.358.208.573.553.217.344.304.782.094.44.094.898m-3.123 0q0 .323.047.661.048.337.182.614.135.276.378.452.25.175.655.175.397 0 .64-.175a1.2 1.2 0 0 0 .385-.452q.135-.277.182-.614a4.7 4.7 0 0 0 0-1.316 2 2 0 0 0-.182-.614 1.15 1.15 0 0 0-.385-.458q-.243-.183-.64-.183-.405 0-.655.183a1.2 1.2 0 0 0-.378.458q-.135.277-.182.614a5 5 0 0 0-.047.655m4.954.715.398-.338q.223-.189.412-.404.195-.216.33-.452a1.1 1.1 0 0 0 .142-.527q.014-.431-.25-.661-.263-.236-.694-.236-.345 0-.601.142a.68.68 0 0 0-.337.411h-.628q.048-.276.196-.479.156-.209.371-.344.223-.135.486-.202a2.2 2.2 0 0 1 .54-.068q.33 0 .607.095.276.087.479.263.202.175.31.439.114.255.115.586 0 .332-.101.594a1.8 1.8 0 0 1-.264.486 3 3 0 0 1-.371.418 17 17 0 0 1-.431.391l-1.208 1.019h2.429v.533h-3.279v-.486zm5.599-3.104v3.286h.56v.533h-.56v.951h-.587v-.951h-2.591v-.439l2.334-3.38zm-2.469 3.286h1.882v-2.753z"/><path stroke="#E3E6E8" stroke-width=".675" d="M209.379 44.381v84.442"/><path fill="#262626" d="m202.837 139.554.398-.338q.223-.189.412-.404.195-.216.33-.452.135-.243.142-.527.014-.431-.25-.661-.263-.236-.695-.236-.343 0-.6.142a.68.68 0 0 0-.337.411h-.628q.048-.276.196-.479a1.4 1.4 0 0 1 .371-.344q.222-.135.486-.202.263-.068.539-.068.331 0 .608.095.276.087.479.263.201.175.31.439.115.255.115.586 0 .332-.102.594-.094.263-.263.486a3 3 0 0 1-.371.418q-.208.196-.432.391l-1.207 1.019h2.429v.533h-3.279v-.486zm6.378-.715q0 .458-.094.897-.088.438-.304.782a1.7 1.7 0 0 1-.573.547q-.359.209-.891.209-.54 0-.897-.209a1.7 1.7 0 0 1-.574-.547 2.3 2.3 0 0 1-.303-.769 4.5 4.5 0 0 1-.088-.91q0-.486.088-.911.087-.432.303-.769t.574-.547q.357-.216.897-.216.532 0 .891.21.357.208.573.553.216.344.304.782.094.44.094.898m-3.123 0q0 .323.047.661.047.337.182.614t.378.452q.249.175.654.175.398 0 .641-.175.25-.176.384-.452.135-.277.183-.614a5 5 0 0 0 .047-.661q0-.318-.047-.655a2 2 0 0 0-.183-.614 1.15 1.15 0 0 0-.384-.458q-.243-.183-.641-.183-.405 0-.654.183a1.2 1.2 0 0 0-.378.458q-.135.277-.182.614a5 5 0 0 0-.047.655m4.954.715.398-.338q.222-.189.411-.404.196-.216.331-.452.135-.243.142-.527.013-.431-.25-.661-.263-.236-.695-.236-.344 0-.6.142a.68.68 0 0 0-.338.411h-.627a1.1 1.1 0 0 1 .196-.479 1.4 1.4 0 0 1 .371-.344q.222-.135.485-.202.264-.068.54-.068.33 0 .607.095.277.087.479.263.203.175.311.439.114.255.114.586 0 .332-.101.594a1.8 1.8 0 0 1-.263.486 3 3 0 0 1-.371.418q-.21.196-.432.391l-1.207 1.019h2.428v.533h-3.278v-.486zm2.822-.479.216-2.625h2.854v.54h-2.327l-.135 1.498q.181-.149.445-.236.263-.095.647-.095.345 0 .628.108t.486.31q.201.197.31.479.115.283.115.628 0 .378-.135.674a1.48 1.48 0 0 1-.904.817 2 2 0 0 1-.675.108q-.297 0-.573-.068a1.8 1.8 0 0 1-.493-.202 1.4 1.4 0 0 1-.378-.358 1.3 1.3 0 0 1-.215-.512h.593q.054.14.162.256.108.108.243.189.141.074.297.115.155.04.31.04.243 0 .452-.061.216-.06.371-.182a.86.86 0 0 0 .25-.317q.087-.196.087-.465 0-.493-.296-.756-.298-.263-.769-.263a1.37 1.37 0 0 0-.958.378z"/><path stroke="#E3E6E8" stroke-width=".675" d="M254.945 44.381v84.442"/><path fill="#262626" d="m248.38 139.554.399-.338q.222-.189.411-.404.196-.216.331-.452.135-.243.141-.527.013-.431-.249-.661-.264-.236-.695-.236-.345 0-.601.142a.68.68 0 0 0-.337.411h-.627q.047-.276.195-.479.156-.209.371-.344.224-.135.486-.202a2.2 2.2 0 0 1 .54-.068q.33 0 .607.095.276.087.479.263.202.175.31.439.115.255.115.586 0 .332-.101.594a1.8 1.8 0 0 1-.263.486 3 3 0 0 1-.371.418q-.21.196-.432.391l-1.208 1.019h2.429v.533h-3.279v-.486zm6.378-.715q0 .458-.094.897-.088.438-.304.782a1.7 1.7 0 0 1-.573.547q-.357.209-.891.209-.539 0-.897-.209a1.7 1.7 0 0 1-.573-.547 2.3 2.3 0 0 1-.304-.769 4.5 4.5 0 0 1-.088-.91q0-.486.088-.911.088-.432.304-.769t.573-.547q.358-.216.897-.216.534 0 .891.21.357.208.573.553.216.344.304.782.094.44.094.898m-3.123 0q0 .323.047.661.048.337.182.614.135.276.378.452.25.175.654.175.398 0 .641-.175a1.2 1.2 0 0 0 .385-.452q.135-.277.182-.614a5 5 0 0 0 .047-.661q0-.318-.047-.655a2 2 0 0 0-.182-.614 1.15 1.15 0 0 0-.385-.458q-.243-.183-.641-.183-.404 0-.654.183a1.2 1.2 0 0 0-.378.458q-.135.277-.182.614a5 5 0 0 0-.047.655m4.954.715.398-.338q.223-.189.412-.404.195-.216.33-.452.135-.243.142-.527.014-.431-.25-.661-.263-.236-.695-.236-.344 0-.6.142a.68.68 0 0 0-.337.411h-.628q.048-.276.196-.479a1.4 1.4 0 0 1 .371-.344q.222-.135.486-.202.263-.068.539-.068.331 0 .608.095.276.087.479.263.202.175.31.439.115.255.115.586 0 .332-.102.594-.094.263-.263.486a3 3 0 0 1-.371.418q-.209.196-.432.391l-1.207 1.019h2.429v.533h-3.279v-.486zm3.228-.702q.228-.351.58-.513.35-.162.742-.162.364 0 .641.115.283.115.485.31.203.196.317.473.115.276.115.614 0 .357-.121.647a1.47 1.47 0 0 1-.857.823 1.8 1.8 0 0 1-.648.115q-.499 0-.843-.175a1.6 1.6 0 0 1-.56-.479 2.1 2.1 0 0 1-.317-.702 4 4 0 0 1-.101-.837q0-.546.081-.991.08-.453.29-.823.216-.378.587-.621.37-.25.944-.25.256 0 .493.068.236.067.432.202.195.129.344.324.147.196.229.445h-.614a.8.8 0 0 0-.371-.377 1.1 1.1 0 0 0-.519-.129q-.385 0-.641.183a1.4 1.4 0 0 0-.412.465 2.3 2.3 0 0 0-.216.627q-.06.338-.06.648m2.28.897q0-.222-.074-.404a.95.95 0 0 0-.21-.324.8.8 0 0 0-.317-.216 1 1 0 0 0-.411-.081q-.216 0-.412.074a1 1 0 0 0-.337.202q-.149.129-.243.318a1 1 0 0 0-.088.418.97.97 0 0 0 .304.715q.142.135.331.216.195.074.418.074t.411-.074a1.1 1.1 0 0 0 .331-.209.9.9 0 0 0 .216-.317 1 1 0 0 0 .081-.392M36.155 49.236l.216-2.624h2.854v.54h-2.328l-.135 1.497q.183-.149.446-.236a2 2 0 0 1 .647-.094q.345 0 .628.107a1.36 1.36 0 0 1 .796.79q.114.284.114.627 0 .378-.135.675a1.48 1.48 0 0 1-.904.816 2 2 0 0 1-.674.108 2.4 2.4 0 0 1-.574-.067 1.8 1.8 0 0 1-.492-.203 1.32 1.32 0 0 1-.594-.87h.594q.054.142.162.256.108.108.243.19.141.074.297.114.154.04.31.04.243 0 .452-.06a1.1 1.1 0 0 0 .37-.182.86.86 0 0 0 .25-.318 1.1 1.1 0 0 0 .088-.465q0-.492-.297-.756-.296-.263-.769-.263-.282 0-.526.102-.236.101-.432.276zM43.867 49q0 .459-.094.897a2.3 2.3 0 0 1-.304.783 1.7 1.7 0 0 1-.573.546q-.357.21-.89.21-.54 0-.898-.21a1.7 1.7 0 0 1-.573-.546 2.3 2.3 0 0 1-.304-.77 4.5 4.5 0 0 1-.087-.91q0-.486.087-.91a2.2 2.2 0 0 1 .304-.77q.216-.338.573-.546.358-.216.898-.216.533 0 .89.209.358.21.573.553.217.344.304.783.094.438.094.897m-3.123 0q0 .324.047.661.048.338.182.614.135.276.378.452.25.175.655.175.397 0 .64-.175.25-.176.385-.452t.182-.614.047-.661q0-.317-.047-.654a2 2 0 0 0-.182-.614 1.16 1.16 0 0 0-.385-.459q-.243-.183-.64-.182-.405 0-.655.182a1.2 1.2 0 0 0-.378.459q-.135.276-.182.614a5 5 0 0 0-.047.654m4.885-.33q-.243 0-.432-.081a.85.85 0 0 1-.304-.223 1.1 1.1 0 0 1-.189-.337q-.06-.195-.06-.419 0-.23.06-.418.067-.196.19-.337a.84.84 0 0 1 .31-.216q.181-.081.425-.081.471 0 .721.297.25.29.25.755 0 .223-.068.419a1 1 0 0 1-.182.337.85.85 0 0 1-.303.223q-.183.08-.418.08m-.446 2.711 2.935-4.77h.593l-2.927 4.77zm.446-4.344q-.27 0-.385.175a.7.7 0 0 0-.115.398q0 .237.115.412.114.168.385.168.256 0 .364-.175a.76.76 0 0 0 .108-.405.75.75 0 0 0-.108-.398q-.109-.175-.364-.175m2.671 4.385q-.243 0-.432-.081a.9.9 0 0 1-.31-.223 1.1 1.1 0 0 1-.189-.337q-.06-.196-.06-.418 0-.23.06-.419a1 1 0 0 1 .196-.337.84.84 0 0 1 .31-.216 1 1 0 0 1 .425-.08q.23 0 .412.08.18.075.303.216a.9.9 0 0 1 .189.337q.067.19.067.419 0 .223-.067.418a1 1 0 0 1-.189.337.85.85 0 0 1-.303.223q-.183.08-.412.08m-.007-1.633q-.27 0-.384.176a.74.74 0 0 0-.108.398q0 .235.114.411.115.17.378.169.264 0 .364-.175a.76.76 0 0 0 .108-.405.74.74 0 0 0-.108-.398q-.1-.176-.364-.176"/><path stroke="#E3E6E8" stroke-width=".675" d="M55.531 48.544h209.871"/><path fill="#262626" d="M39.007 65.416v3.286h.56v.533h-.56v.95h-.587v-.95h-2.59v-.439l2.334-3.38zm-2.47 3.286h1.883v-2.753zm7.386-.898q0 .459-.094.898a2.3 2.3 0 0 1-.303.782 1.7 1.7 0 0 1-.574.547q-.357.21-.89.209-.54 0-.898-.21a1.7 1.7 0 0 1-.573-.546 2.3 2.3 0 0 1-.304-.769 4.5 4.5 0 0 1-.087-.91q0-.486.087-.911a2.2 2.2 0 0 1 .304-.77 1.7 1.7 0 0 1 .573-.546q.358-.216.898-.216.533 0 .89.21.358.208.574.553.215.344.303.782.094.44.094.897m-3.123 0q0 .324.047.662.047.337.182.613.135.278.378.452.25.176.655.176.398 0 .64-.176.25-.175.385-.452.135-.276.182-.613.047-.338.047-.662 0-.317-.047-.654a2 2 0 0 0-.182-.614 1.16 1.16 0 0 0-.385-.459q-.242-.182-.64-.182-.405 0-.655.182a1.2 1.2 0 0 0-.378.46q-.135.275-.182.613a5 5 0 0 0-.047.654m4.885-.33q-.243 0-.432-.081a.85.85 0 0 1-.304-.223 1.1 1.1 0 0 1-.189-.337q-.06-.195-.06-.418 0-.23.06-.419.067-.195.19-.337a.84.84 0 0 1 .31-.216q.181-.08.425-.08.472 0 .721.296.25.29.25.756 0 .222-.067.418a1 1 0 0 1-.183.337.85.85 0 0 1-.303.223 1 1 0 0 1-.419.08m-.446 2.712 2.935-4.77h.593l-2.927 4.77zm.446-4.345q-.27 0-.385.176a.7.7 0 0 0-.115.398q0 .235.115.411.114.17.385.169.256 0 .364-.175a.76.76 0 0 0 .108-.405.74.74 0 0 0-.108-.398q-.109-.176-.364-.176m2.671 4.385q-.243 0-.432-.08a.9.9 0 0 1-.31-.223 1.1 1.1 0 0 1-.189-.338q-.06-.195-.06-.418 0-.23.06-.418a1 1 0 0 1 .196-.337.84.84 0 0 1 .31-.216q.182-.081.425-.081.23 0 .411.08.183.075.304.217a.9.9 0 0 1 .189.337q.067.189.067.418 0 .222-.067.418a1 1 0 0 1-.189.338.85.85 0 0 1-.303.222 1 1 0 0 1-.412.081m-.007-1.632q-.27 0-.384.175a.74.74 0 0 0-.108.398q0 .236.114.412.115.168.378.168.264 0 .365-.175a.76.76 0 0 0 .107-.405.74.74 0 0 0-.107-.398q-.102-.175-.365-.175"/><path stroke="#E3E6E8" stroke-width=".675" d="M55.531 67.349h209.871"/><path fill="#262626" d="M37.125 89.044q-.284 0-.574-.054a2 2 0 0 1-.533-.182 1.4 1.4 0 0 1-.418-.351 1.1 1.1 0 0 1-.216-.533h.607q.06.176.182.29.129.108.284.176.162.067.337.094a2.2 2.2 0 0 0 .675 0q.188-.027.35-.115a.7.7 0 0 0 .277-.256.83.83 0 0 0 .115-.459.77.77 0 0 0-.108-.431.7.7 0 0 0-.27-.25 1.1 1.1 0 0 0-.371-.115 3 3 0 0 0-.412-.027h-.458v-.526h.276q.183 0 .337-.007.156-.013.345-.094a.85.85 0 0 0 .344-.283.8.8 0 0 0 .135-.432.86.86 0 0 0-.082-.398.63.63 0 0 0-.215-.243.8.8 0 0 0-.304-.115 1.8 1.8 0 0 0-.344-.034q-.141 0-.297.034-.148.027-.283.095a.8.8 0 0 0-.23.182.6.6 0 0 0-.141.263h-.587a1.1 1.1 0 0 1 .189-.506q.148-.21.364-.344.223-.135.486-.196a2.5 2.5 0 0 1 1.113.007q.27.06.472.21.202.14.317.377.122.236.122.573 0 .129-.027.277a1 1 0 0 1-.102.283q-.074.143-.215.284a1.1 1.1 0 0 1-.371.236q.45.087.688.398.236.303.236.735v.027q0 .371-.135.64a1.2 1.2 0 0 1-.358.44 1.6 1.6 0 0 1-.54.249 2.6 2.6 0 0 1-.66.081m6.183-2.435q0 .458-.094.897-.088.438-.304.782a1.7 1.7 0 0 1-.573.547q-.358.21-.89.209-.54 0-.898-.21a1.7 1.7 0 0 1-.573-.546 2.3 2.3 0 0 1-.304-.769 4.5 4.5 0 0 1-.088-.91q0-.486.088-.911a2.2 2.2 0 0 1 .304-.77 1.7 1.7 0 0 1 .573-.546q.358-.216.897-.216.534 0 .89.21.359.209.574.553.216.345.304.782.094.44.094.898m-3.123 0q0 .324.047.66.047.338.182.615t.378.452q.249.175.654.175.4 0 .641-.175a1.2 1.2 0 0 0 .385-.452q.135-.278.182-.614.047-.337.047-.661 0-.318-.047-.655a2 2 0 0 0-.182-.614 1.16 1.16 0 0 0-.385-.458q-.243-.183-.64-.183-.406 0-.655.183-.243.176-.378.458-.134.278-.182.614a5 5 0 0 0-.047.655m4.884-.331q-.243 0-.432-.08a.85.85 0 0 1-.303-.223 1.1 1.1 0 0 1-.189-.338q-.06-.195-.06-.418 0-.23.06-.418.068-.195.189-.338a.84.84 0 0 1 .31-.215q.183-.082.425-.082.473 0 .722.297.25.291.25.756 0 .222-.068.418a1 1 0 0 1-.182.338.85.85 0 0 1-.303.222 1 1 0 0 1-.419.081m-.445 2.712 2.935-4.77h.593l-2.928 4.77zm.445-4.344q-.27 0-.384.175a.7.7 0 0 0-.115.398q0 .235.115.411.114.17.384.17.256-.001.364-.176a.76.76 0 0 0 .108-.405.74.74 0 0 0-.107-.398q-.108-.175-.365-.175m2.672 4.385q-.243 0-.432-.082a.9.9 0 0 1-.31-.222 1.1 1.1 0 0 1-.19-.337q-.06-.195-.06-.419 0-.23.06-.418a1 1 0 0 1 .196-.337.84.84 0 0 1 .31-.216q.183-.081.426-.081.23 0 .411.08.183.075.304.217a.9.9 0 0 1 .189.337q.067.189.067.418 0 .223-.067.419a1 1 0 0 1-.19.337.85.85 0 0 1-.303.222 1 1 0 0 1-.411.082m-.007-1.633q-.27 0-.385.175a.74.74 0 0 0-.107.398q0 .237.114.412.115.168.378.169.263 0 .364-.176a.76.76 0 0 0 .108-.405.74.74 0 0 0-.108-.398q-.101-.175-.364-.175"/><path stroke="#E3E6E8" stroke-width=".675" d="M54.531 86.153h210.871"/><path fill="#262626" d="m36.822 106.128.398-.337q.222-.189.411-.405.195-.216.33-.452.136-.243.142-.526.014-.432-.25-.661-.262-.236-.694-.236-.345 0-.6.141a.68.68 0 0 0-.338.412h-.627a1.1 1.1 0 0 1 .195-.479q.156-.21.371-.344.223-.135.486-.203.264-.067.54-.067.33 0 .607.094.276.089.48.263.2.176.31.439.114.257.114.587t-.101.594q-.094.263-.263.485a3 3 0 0 1-.371.419q-.21.195-.432.391l-1.208 1.018h2.43v.533h-3.28v-.485zm6.377-.715q0 .459-.094.897-.088.439-.303.783a1.66 1.66 0 0 1-.574.546q-.357.21-.89.209-.54 0-.898-.209a1.66 1.66 0 0 1-.573-.546 2.3 2.3 0 0 1-.304-.769 4.5 4.5 0 0 1-.087-.911q0-.486.087-.911a2.2 2.2 0 0 1 .304-.769q.216-.338.573-.546.358-.216.898-.216.533 0 .89.209.358.21.573.553.216.344.304.783.095.438.095.897m-3.123 0q0 .324.047.661.048.338.182.614.135.276.378.452.25.175.655.175.397 0 .64-.175.25-.176.385-.452t.182-.614a4.717 4.717 0 0 0 0-1.315 2 2 0 0 0-.182-.614 1.16 1.16 0 0 0-.385-.459q-.243-.182-.64-.182-.405 0-.655.182-.243.175-.378.459a2 2 0 0 0-.182.614 5 5 0 0 0-.047.654m4.885-.331q-.243 0-.432-.08a.85.85 0 0 1-.304-.223 1.1 1.1 0 0 1-.189-.337q-.06-.196-.06-.419 0-.23.06-.418.067-.195.19-.337a.8.8 0 0 1 .31-.216q.181-.081.425-.081.472 0 .721.297.25.29.25.755 0 .223-.068.419-.06.189-.182.337a.85.85 0 0 1-.303.223 1 1 0 0 1-.418.08m-.446 2.712 2.935-4.769h.593l-2.927 4.769zm.446-4.344q-.27 0-.385.175a.7.7 0 0 0-.115.398q0 .237.115.412.114.168.385.169.256 0 .364-.176a.76.76 0 0 0 .108-.405.75.75 0 0 0-.108-.398q-.109-.175-.364-.175m2.671 4.385q-.243 0-.432-.081a.9.9 0 0 1-.31-.223 1.1 1.1 0 0 1-.189-.337q-.06-.195-.06-.418 0-.23.06-.418a1 1 0 0 1 .196-.338.85.85 0 0 1 .31-.216q.182-.081.425-.081.23 0 .412.081.18.075.303.216a.9.9 0 0 1 .189.338q.067.188.067.418 0 .222-.067.418a1 1 0 0 1-.189.337.84.84 0 0 1-.303.223 1 1 0 0 1-.412.081m-.007-1.633q-.27 0-.384.176a.74.74 0 0 0-.108.398q0 .235.114.411.115.17.378.169.264 0 .364-.175a.76.76 0 0 0 .108-.405.74.74 0 0 0-.108-.398q-.1-.176-.364-.176"/><path stroke="#E3E6E8" stroke-width=".675" d="M54.531 104.957h210.871"/><path fill="#262626" d="M37.182 126.599h-.587v-3.825h-.971v-.398q.202-.013.37-.034.17-.027.311-.088a1 1 0 0 0 .257-.162q.114-.1.209-.263h.411zm4.832-2.382q0 .459-.094.898-.088.438-.304.782a1.7 1.7 0 0 1-.573.547q-.358.209-.89.209-.54 0-.898-.209a1.7 1.7 0 0 1-.573-.547 2.3 2.3 0 0 1-.304-.769 4.5 4.5 0 0 1-.087-.911q0-.485.087-.91.088-.432.304-.769t.573-.547q.358-.216.897-.216.534 0 .89.21.359.208.574.553.216.344.304.782.094.44.094.897m-3.123 0q0 .324.047.662.047.336.182.614.135.276.378.452.25.174.654.175.4 0 .641-.175.25-.176.385-.452.135-.278.182-.614a4.732 4.732 0 0 0 0-1.316 2 2 0 0 0-.182-.614 1.16 1.16 0 0 0-.385-.459q-.243-.182-.64-.182-.405 0-.655.182-.243.175-.378.459-.135.277-.182.614a5 5 0 0 0-.047.654m4.884-.33q-.243 0-.431-.081a.84.84 0 0 1-.304-.223 1.1 1.1 0 0 1-.189-.337q-.06-.195-.06-.418 0-.23.06-.418a1 1 0 0 1 .189-.338.85.85 0 0 1 .31-.216q.183-.081.425-.081.473 0 .722.297.25.29.25.756 0 .222-.068.418a1 1 0 0 1-.182.337.84.84 0 0 1-.303.223 1 1 0 0 1-.419.081m-.445 2.712 2.935-4.77h.593l-2.927 4.77zm.445-4.345q-.27 0-.384.176a.7.7 0 0 0-.115.398q0 .235.115.411.114.17.384.169.257 0 .365-.175a.76.76 0 0 0 .108-.405.74.74 0 0 0-.108-.398q-.108-.176-.365-.176m2.672 4.385q-.243 0-.432-.081a.9.9 0 0 1-.31-.222 1.1 1.1 0 0 1-.19-.338 1.4 1.4 0 0 1-.06-.418q0-.23.06-.418a1 1 0 0 1 .197-.337.8.8 0 0 1 .31-.216q.182-.081.425-.081.23 0 .411.081a.8.8 0 0 1 .304.216.9.9 0 0 1 .189.337q.067.189.067.418 0 .223-.067.418a1 1 0 0 1-.19.338.85.85 0 0 1-.303.222 1 1 0 0 1-.411.081m-.007-1.632q-.27 0-.384.175a.75.75 0 0 0-.108.398q0 .237.114.412.116.168.378.168.263 0 .364-.175a.76.76 0 0 0 .108-.405.75.75 0 0 0-.108-.398q-.101-.175-.364-.175"/><path stroke="#E3E6E8" stroke-width=".675" d="M53.531 123.762h211.871"/><path stroke="#645BAA" stroke-linecap="round" stroke-linejoin="round" stroke-width="2.024" d="m265.402 67.365-12.35-6.353-44.619 15.921-44.221 5.397-45.018-8.387-44.62 11.086-6.772 5.17"/><path stroke="#339CFF" stroke-linecap="round" stroke-linejoin="round" stroke-width="2.024" d="m265.402 71.985-12.732 9.672h-44.162l-44.163 18.32-44.958-15.517-44.56 26.338-7.025-5.329"/><circle cx="38.508" cy="161.014" r="3.373" fill="#645BAA"/><path fill="#262626" d="M46.75 157.336h2.371q.774 0 1.36.246.595.236.992.68.396.434.595 1.058.198.613.198 1.36-.009.745-.208 1.36-.198.614-.595 1.058a2.7 2.7 0 0 1-.973.68q-.585.236-1.369.236h-2.37zm.822.746v5.186h1.492q.51 0 .973-.152.473-.16.803-.557.302-.35.444-.821.141-.483.142-1.058 0-.596-.142-1.058a2.3 2.3 0 0 0-.425-.803 2 2 0 0 0-.718-.538 2.5 2.5 0 0 0-1.03-.199zm6.316 3.741q.029.33.132.613.114.275.302.482.189.208.463.331.283.113.652.113.18 0 .368-.028.198-.038.368-.114.171-.085.303-.217a.8.8 0 0 0 .198-.321h.822a1.6 1.6 0 0 1-.293.623 1.7 1.7 0 0 1-.482.435 2.2 2.2 0 0 1-.614.255q-.339.075-.69.075-.594 0-1.038-.189a2 2 0 0 1-.727-.519 2.2 2.2 0 0 1-.435-.803 3.6 3.6 0 0 1-.141-1.029q0-.558.15-1.02a2.4 2.4 0 0 1 .454-.813q.293-.339.718-.528t1.01-.189q.595 0 1.03.236t.699.623q.264.378.368.822a2.8 2.8 0 0 1 .085.992q0 .084-.01.17zm2.9-.699q-.02-.633-.397-1.03-.378-.397-1.01-.397a1.5 1.5 0 0 0-.615.114 1.24 1.24 0 0 0-.444.312q-.18.198-.283.462-.104.255-.132.539zm1.23-2.088h.906l1.568 4.203 1.54-4.203h.916l-1.918 4.978h-1.095zm6.159 2.787q.028.33.132.613.113.275.302.482.189.208.463.331.284.113.651.113.18 0 .369-.028.198-.038.368-.114.17-.085.302-.217a.8.8 0 0 0 .199-.321h.821a1.6 1.6 0 0 1-.292.623 1.7 1.7 0 0 1-.482.435 2.2 2.2 0 0 1-.614.255q-.34.075-.69.075-.594 0-1.038-.189a2 2 0 0 1-.728-.519 2.2 2.2 0 0 1-.434-.803 3.6 3.6 0 0 1-.142-1.029q0-.558.152-1.02a2.4 2.4 0 0 1 .453-.813q.292-.339.718-.528.425-.189 1.01-.189.595 0 1.03.236t.698.623q.266.378.369.822a2.8 2.8 0 0 1 .085.992q0 .084-.01.17zm2.9-.699q-.02-.633-.398-1.03-.377-.397-1.01-.397a1.5 1.5 0 0 0-.614.114 1.24 1.24 0 0 0-.444.312q-.18.198-.283.462-.105.255-.133.539zm1.796 2.89v-6.678h.803v6.678zm4.162-5.034q.595 0 1.03.189t.727.528q.303.34.444.813.15.462.151 1.02 0 .556-.15 1.029a2.019 2.019 0 0 1-1.18 1.322 2.6 2.6 0 0 1-1.04.189q-.595 0-1.04-.189a2.1 2.1 0 0 1-.736-.519 2.3 2.3 0 0 1-.444-.803 3.6 3.6 0 0 1-.141-1.029q0-.558.141-1.02.15-.473.444-.813.302-.339.756-.528a2.7 2.7 0 0 1 1.038-.189m-.018 4.382q.405 0 .699-.142a1.3 1.3 0 0 0 .49-.387q.199-.255.284-.585.095-.331.095-.718 0-.378-.095-.709a1.5 1.5 0 0 0-.283-.585 1.3 1.3 0 0 0-.491-.397 1.6 1.6 0 0 0-.7-.142q-.405 0-.698.142a1.4 1.4 0 0 0-.491.397q-.189.246-.284.585a2.8 2.8 0 0 0-.085.709q0 .387.085.718.095.33.284.585.199.246.49.387.294.142.7.142m3.35 2.446v-6.772h.765l.038.746q.255-.387.69-.585.443-.208.953-.217.576 0 .973.198.406.189.67.538.274.34.406.813.133.462.133 1.001 0 .548-.133 1.01a2.25 2.25 0 0 1-.406.803 1.94 1.94 0 0 1-.689.538q-.416.189-.992.189-.567 0-.963-.179a1.65 1.65 0 0 1-.642-.501v2.418zm2.342-2.446q.406 0 .68-.142.284-.15.454-.396.18-.255.254-.586.086-.33.095-.708 0-.378-.085-.709a1.6 1.6 0 0 0-.255-.585 1.24 1.24 0 0 0-.472-.387 1.45 1.45 0 0 0-.69-.152 1.34 1.34 0 0 0-.83.265q-.35.255-.53.652-.103.217-.141.453a3 3 0 0 0-.038.472q0 .283.038.529.038.236.141.453.18.36.52.605.35.236.86.236m3.887-1.539q.029.33.132.613.114.275.302.482.189.208.463.331.283.113.652.113.18 0 .368-.028.198-.038.368-.114.17-.085.303-.217a.84.84 0 0 0 .198-.321h.822a1.6 1.6 0 0 1-.293.623 1.7 1.7 0 0 1-.482.435 2.2 2.2 0 0 1-.614.255 3.2 3.2 0 0 1-.69.075q-.594 0-1.038-.189a2 2 0 0 1-.727-.519 2.2 2.2 0 0 1-.435-.803 3.6 3.6 0 0 1-.141-1.029q0-.558.15-1.02.162-.473.454-.813t.718-.528q.425-.189 1.01-.189.595 0 1.03.236.434.236.699.623.264.378.368.822a2.8 2.8 0 0 1 .085.992q0 .084-.01.17zm2.9-.699q-.02-.633-.397-1.03-.379-.397-1.011-.397a1.5 1.5 0 0 0-.614.114 1.24 1.24 0 0 0-.444.312q-.18.198-.283.462-.105.255-.132.539zm1.796 2.89v-4.978h.775l.037.775q.274-.435.7-.633.424-.198.962-.198h.255v.755h-.292a1.7 1.7 0 0 0-.756.151 1.34 1.34 0 0 0-.51.397q-.189.246-.283.586a3 3 0 0 0-.085.717v2.428z"/><circle cx="110.492" cy="161.014" r="3.373" fill="#339CFF"/><path fill="#262626" d="M118.735 157.336h2.37q.775 0 1.36.246.596.236.992.68.397.434.595 1.058.198.613.198 1.36-.009.745-.207 1.36a2.9 2.9 0 0 1-.595 1.058 2.7 2.7 0 0 1-.973.68q-.586.236-1.37.236h-2.37zm.821.746v5.186h1.493a3.1 3.1 0 0 0 .972-.152q.473-.16.803-.557a2.2 2.2 0 0 0 .444-.821q.142-.483.142-1.058 0-.596-.142-1.058a2.3 2.3 0 0 0-.425-.803 2 2 0 0 0-.718-.538 2.5 2.5 0 0 0-1.029-.199zm6.316 3.741q.028.33.133.613.113.275.302.482.189.208.463.331.283.113.651.113.18 0 .369-.028.198-.038.368-.114.17-.085.302-.217a.84.84 0 0 0 .198-.321h.822a1.6 1.6 0 0 1-.293.623 1.7 1.7 0 0 1-.481.435 2.2 2.2 0 0 1-.614.255q-.34.075-.69.075a2.6 2.6 0 0 1-1.039-.189 2.04 2.04 0 0 1-.727-.519 2.2 2.2 0 0 1-.434-.803 3.6 3.6 0 0 1-.142-1.029q0-.558.151-1.02.16-.473.454-.813.292-.339.717-.528t1.011-.189q.596 0 1.029.236.435.236.699.623.265.378.369.822a2.8 2.8 0 0 1 .085.992q0 .084-.01.17zm2.9-.699q-.02-.633-.397-1.03-.378-.397-1.01-.397a1.5 1.5 0 0 0-.614.114 1.2 1.2 0 0 0-.444.312q-.18.198-.284.462-.103.255-.132.539zm1.23-2.088h.907l1.567 4.203 1.54-4.203h.916l-1.917 4.978h-1.096zm6.159 2.787q.029.33.132.613.114.275.302.482.19.208.463.331.283.113.652.113.18 0 .368-.028.198-.038.369-.114.17-.085.302-.217a.84.84 0 0 0 .198-.321h.822a1.6 1.6 0 0 1-.293.623 1.7 1.7 0 0 1-.482.435 2.2 2.2 0 0 1-.614.255q-.34.075-.689.075-.595 0-1.039-.189a2 2 0 0 1-.727-.519 2.2 2.2 0 0 1-.435-.803 3.6 3.6 0 0 1-.141-1.029q0-.558.151-1.02.16-.473.453-.813a2 2 0 0 1 .718-.528q.425-.189 1.011-.189.594 0 1.029.236t.699.623q.264.378.368.822a2.8 2.8 0 0 1 .085.992q0 .084-.009.17zm2.899-.699q-.018-.633-.396-1.03t-1.011-.397q-.349 0-.614.114a1.25 1.25 0 0 0-.444.312 1.5 1.5 0 0 0-.283.462q-.103.255-.132.539zm1.797 2.89v-6.678h.803v6.678zm4.163-5.034q.596 0 1.029.189.434.189.728.528.301.34.444.813.15.462.151 1.02 0 .556-.151 1.029a2.14 2.14 0 0 1-.444.803q-.293.33-.737.519a2.6 2.6 0 0 1-1.039.189q-.595 0-1.039-.189a2.1 2.1 0 0 1-.737-.519 2.3 2.3 0 0 1-.443-.803 3.6 3.6 0 0 1-.142-1.029q0-.558.142-1.02.15-.473.443-.813a2.06 2.06 0 0 1 .756-.528 2.7 2.7 0 0 1 1.039-.189m-.019 4.382q.406 0 .699-.142.302-.141.491-.387.198-.255.283-.585.095-.331.095-.718 0-.378-.095-.709a1.5 1.5 0 0 0-.283-.585 1.3 1.3 0 0 0-.491-.397 1.6 1.6 0 0 0-.699-.142q-.406 0-.699.142a1.4 1.4 0 0 0-.491.397q-.189.246-.283.585a2.8 2.8 0 0 0-.085.709q0 .387.085.718.094.33.283.585.198.246.491.387.292.142.699.142m3.35 2.446v-6.772h.765l.038.746q.255-.387.69-.585.443-.208.953-.217.577 0 .973.198.406.189.671.538.274.34.406.813.132.462.132 1.001 0 .548-.132 1.01a2.3 2.3 0 0 1-.406.803 1.95 1.95 0 0 1-.69.538q-.415.189-.991.189-.567 0-.964-.179a1.66 1.66 0 0 1-.642-.501v2.418zm2.343-2.446q.405 0 .68-.142.283-.15.453-.396.18-.255.255-.586.085-.33.094-.708 0-.378-.085-.709a1.5 1.5 0 0 0-.255-.585 1.23 1.23 0 0 0-.472-.387 1.45 1.45 0 0 0-.689-.152q-.482 0-.831.265-.35.255-.529.652-.105.217-.142.453a3 3 0 0 0-.038.472q0 .283.038.529.037.236.142.453.179.36.519.605.35.236.86.236m3.886-1.539q.028.33.132.613.114.275.303.482.189.208.462.331.283.113.652.113.18 0 .368-.028a1.7 1.7 0 0 0 .369-.114q.17-.085.302-.217a.84.84 0 0 0 .198-.321h.822a1.6 1.6 0 0 1-.293.623 1.7 1.7 0 0 1-.481.435 2.2 2.2 0 0 1-.614.255q-.34.075-.69.075-.595 0-1.039-.189a2.04 2.04 0 0 1-.727-.519 2.2 2.2 0 0 1-.434-.803 3.6 3.6 0 0 1-.142-1.029q0-.558.151-1.02.16-.473.453-.813t.718-.528 1.011-.189q.595 0 1.029.236.435.236.699.623.264.378.368.822a2.8 2.8 0 0 1 .085.992q0 .084-.009.17zm2.9-.699q-.02-.633-.397-1.03-.378-.397-1.011-.397-.349 0-.614.114a1.2 1.2 0 0 0-.443.312q-.18.198-.284.462-.103.255-.132.539zm1.796 2.89v-4.978h.775l.038.775q.273-.435.699-.633.424-.198.963-.198h.255v.755h-.293q-.444 0-.755.151a1.34 1.34 0 0 0-.51.397 1.7 1.7 0 0 0-.284.586 3 3 0 0 0-.085.717v2.428zm5.113-4.317q-.17 0-.35.029a1.1 1.1 0 0 0-.34.094.76.76 0 0 0-.283.208.57.57 0 0 0-.123.359q0 .321.236.482.246.16.633.236.16.038.349.075.189.029.369.066.189.028.349.067.17.038.283.075.907.283.907 1.218-.009.454-.198.737a1.3 1.3 0 0 1-.463.435 2 2 0 0 1-.633.226 3.71 3.71 0 0 1-1.388 0 2.2 2.2 0 0 1-.642-.226 1.8 1.8 0 0 1-.491-.435 1.5 1.5 0 0 1-.255-.68h.812q.075.227.236.359t.34.208q.189.075.349.104.171.028.378.028.151 0 .35-.019.198-.018.377-.085a.8.8 0 0 0 .303-.217q.122-.142.122-.397 0-.283-.189-.425a1.2 1.2 0 0 0-.5-.208 11 11 0 0 0-.472-.085l-.482-.094a10 10 0 0 1-.463-.123 2 2 0 0 1-.425-.198 1.2 1.2 0 0 1-.425-.435 1.3 1.3 0 0 1-.16-.67q.018-.416.189-.68.17-.274.434-.444.283-.17.604-.236.322-.066.68-.066.765 0 1.219.33.273.189.425.454.151.264.189.557h-.746q-.067-.275-.359-.444-.293-.17-.746-.18m5.849-2.483q.226 0 .387.151.16.141.161.377a.5.5 0 0 1-.161.388.55.55 0 0 1-.387.151.52.52 0 0 1-.387-.151.53.53 0 0 1-.152-.388q0-.236.152-.377a.52.52 0 0 1 .387-.151m-.397 6.8v-4.978h.803v4.978zm2.044 0v-4.978h.774l.038.756a1.4 1.4 0 0 1 .302-.359q.19-.151.406-.255t.454-.151q.246-.048.472-.047.538 0 .907.179.368.17.585.482.218.302.312.727.094.416.094.897v2.749h-.802v-2.531q0-.35-.048-.671a1.6 1.6 0 0 0-.17-.567.97.97 0 0 0-.359-.406q-.236-.151-.632-.151a1.4 1.4 0 0 0-.69.189q-.292.18-.472.425a1.8 1.8 0 0 0-.293.689 3.7 3.7 0 0 0-.075.747v2.276zm8.126-6.678h2.37q.775 0 1.36.246.595.236.992.68.397.434.595 1.058.198.613.198 1.36a4.6 4.6 0 0 1-.208 1.36q-.198.614-.595 1.058a2.7 2.7 0 0 1-.972.68q-.586.236-1.37.236h-2.37zm.821.746v5.186h1.492q.51 0 .973-.152.473-.16.803-.557a2.2 2.2 0 0 0 .444-.821 3.8 3.8 0 0 0 .142-1.058q0-.596-.142-1.058a2.3 2.3 0 0 0-.425-.803 2 2 0 0 0-.718-.538 2.5 2.5 0 0 0-1.029-.199zm7.771 5.28q.68 0 .991-.406.321-.415.321-1.152v-2.768h.803v2.805q0 1.133-.548 1.682-.538.547-1.567.547-1.03 0-1.568-.547-.53-.548-.529-1.682v-2.805h.803v2.768q0 .737.321 1.152.32.406.973.406m3.269.652v-6.678h.803v2.437q.245-.378.699-.586a2.1 2.1 0 0 1 .944-.207q.567 0 .973.198.416.199.68.538.274.34.397.813.132.462.132 1.001t-.132 1.001a2.1 2.1 0 0 1-.397.793 1.94 1.94 0 0 1-.699.539q-.416.198-.992.207h-.104q-.51 0-.887-.179a1.8 1.8 0 0 1-.614-.482l-.038.605zm2.342-.652q.407 0 .68-.142.283-.15.454-.396.179-.255.255-.586a2.829 2.829 0 0 0 .009-1.417 1.5 1.5 0 0 0-.255-.585 1.24 1.24 0 0 0-.472-.387 1.45 1.45 0 0 0-.69-.152q-.226 0-.444.076-.216.076-.387.208a1.6 1.6 0 0 0-.302.283 1.9 1.9 0 0 0-.359.803 2.5 2.5 0 0 0-.047.472q0 .246.028.51.038.255.151.472.17.36.52.605.35.236.859.236m6.541.019q-.16.217-.369.349a2.203 2.203 0 0 1-.878.312 3 3 0 0 1-.434.028q-.35 0-.661-.085a1.7 1.7 0 0 1-.567-.274 1.4 1.4 0 0 1-.397-.472 1.4 1.4 0 0 1-.142-.642q0-.424.152-.708a1.3 1.3 0 0 1 .425-.473q.264-.179.604-.245.35-.076.737-.076h1.464q0-.633-.274-1.001-.274-.378-.926-.397-.396 0-.699.133a.74.74 0 0 0-.415.434h-.86q.067-.34.265-.576a1.6 1.6 0 0 1 .472-.397q.274-.16.595-.236t.642-.075q.558 0 .935.189.387.179.624.481.235.293.33.718.095.424.095.954v2.692h-.671zm-.945-1.615q-.226 0-.529.009-.293 0-.566.057a.82.82 0 0 0-.444.236.68.68 0 0 0-.161.472q0 .218.085.369.086.15.227.255.151.103.34.151.189.047.387.047.708 0 1.115-.34.415-.35.425-1.011v-.245zm3.275-4.552q.227 0 .387.151.16.141.16.377a.5.5 0 0 1-.16.388.55.55 0 0 1-.387.151.53.53 0 0 1-.388-.151.53.53 0 0 1-.151-.388q0-.236.151-.377a.52.52 0 0 1 .388-.151m-.397 6.8v-4.978h.803v4.978z"/></g><defs><filter id="a" width="319.963" height="269.462" x="1.458" y="-.126" color-interpolation-filters="sRGB" filterUnits="userSpaceOnUse"><feFlood flood-opacity="0" result="BackgroundImageFix"/><feColorMatrix in="SourceAlpha" result="hardAlpha" values="0 0 0 0 0 0 0 0 0 0 0 0 0 0 0 0 0 0 127 0"/><feOffset dx="9.422" dy="7.066"/><feGaussianBlur stdDeviation="4.135"/><feComposite in2="hardAlpha" operator="out"/><feColorMatrix values="0 0 0 0 0 0 0 0 0 0.0901961 0 0 0 0 0.317647 0 0 0 0.06 0"/><feBlend in2="BackgroundImageFix" result="effect1_dropShadow_933_4839"/><feBlend in="SourceGraphic" in2="effect1_dropShadow_933_4839" result="shape"/></filter><filter id="b" width="273.621" height="220.315" x="23.387" y="35.601" color-interpolation-filters="sRGB" filterUnits="userSpaceOnUse"><feFlood flood-opacity="0" result="BackgroundImageFix"/><feColorMatrix in="SourceAlpha" result="hardAlpha" values="0 0 0 0 0 0 0 0 0 0 0 0 0 0 0 0 0 0 127 0"/><feOffset dy="1"/><feGaussianBlur stdDeviation="2"/><feComposite in2="hardAlpha" operator="out"/><feColorMatrix values="0 0 0 0 0 0 0 0 0 0 0 0 0 0 0 0 0 0 0.04 0"/><feBlend in2="BackgroundImageFix" result="effect1_dropShadow_933_4839"/><feBlend in="SourceGraphic" in2="effect1_dropShadow_933_4839" result="shape"/></filter><filter id="d" width="289.135" height="211.107" x="9.502" y="-11.839" color-interpolation-filters="sRGB" filterUnits="userSpaceOnUse"><feFlood flood-opacity="0" result="BackgroundImageFix"/><feColorMatrix in="SourceAlpha" result="hardAlpha" values="0 0 0 0 0 0 0 0 0 0 0 0 0 0 0 0 0 0 127 0"/><feOffset dx="7.066" dy="9.422"/><feGaussianBlur stdDeviation="5.888"/><feComposite in2="hardAlpha" operator="out"/><feColorMatrix values="0 0 0 0 0 0 0 0 0 0.0901961 0 0 0 0 0.317647 0 0 0 0.08 0"/><feBlend in2="BackgroundImageFix" result="effect1_dropShadow_933_4839"/><feBlend in="SourceGraphic" in2="effect1_dropShadow_933_4839" result="shape"/></filter><clipPath id="c"><rect width="235.755" height="166.084" x="27.387" y="88.613" fill="#fff" rx="14.942" transform="rotate(-12.247 27.387 88.613)"/></clipPath></defs></svg>