<svg xmlns="http://www.w3.org/2000/svg" width="324" height="239" fill="none"><rect width="324" height="239" fill="#fff" rx="16"/><rect width="285" height="94.222" x="18" y="14" fill="#E3F8FE" rx="8.889"/><path fill="#191919" d="M37.653 27.985q-.882 0-1.512.322a3 3 0 0 0-1.022.868 3.7 3.7 0 0 0-.574 1.26 5.8 5.8 0 0 0-.182 1.47q0 .826.196 1.554.197.728.602 1.274.406.533 1.036.854.63.308 1.498.308 1.05 0 1.764-.434.714-.435.924-1.162h1.33a3.42 3.42 0 0 1-1.358 1.974Q39.32 37 37.667 37q-1.147 0-2.002-.378a3.95 3.95 0 0 1-1.428-1.05 4.5 4.5 0 0 1-.84-1.596 7 7 0 0 1-.28-2.03q0-1.092.28-2.016a4.4 4.4 0 0 1 .854-1.596 3.9 3.9 0 0 1 1.428-1.064q.855-.392 2.016-.392.813 0 1.456.196.658.195 1.134.56.49.35.798.854.309.49.448 1.092H40.3q-.21-.728-.91-1.162-.686-.434-1.736-.434m8.836 1.442q.881 0 1.526.28.644.28 1.078.784.447.504.658 1.204.224.686.224 1.512t-.224 1.526q-.21.686-.658 1.19-.435.49-1.092.77-.658.28-1.54.28-.883 0-1.54-.28a3.2 3.2 0 0 1-1.092-.77 3.4 3.4 0 0 1-.658-1.19 5.3 5.3 0 0 1-.21-1.526q0-.826.21-1.512.224-.7.658-1.204a3 3 0 0 1 1.12-.784q.672-.28 1.54-.28m-.028 6.496q.601 0 1.036-.21.447-.21.728-.574.294-.378.42-.868.14-.49.14-1.064 0-.56-.14-1.05a2.2 2.2 0 0 0-.42-.868 1.9 1.9 0 0 0-.728-.588q-.435-.21-1.036-.21-.603 0-1.036.21a2 2 0 0 0-.728.588 2.5 2.5 0 0 0-.42.868 4.2 4.2 0 0 0-.126 1.05q0 .574.126 1.064.14.49.42.868.294.364.728.574t1.036.21m8.186 0q1.008 0 1.47-.602.476-.615.476-1.708V29.51h1.19v4.158q0 1.68-.812 2.492-.798.812-2.324.812t-2.324-.812q-.784-.812-.784-2.492V29.51h1.19v4.102q0 1.092.476 1.708.476.602 1.442.602m4.986.966V26.99h1.19v9.898zm9.643 0h-1.134l-.056-1.106a2.17 2.17 0 0 1-1.05.91q-.658.28-1.386.28-.84-.014-1.456-.294a2.76 2.76 0 0 1-1.008-.798 3.5 3.5 0 0 1-.588-1.176 5.8 5.8 0 0 1-.182-1.484q0-.798.196-1.484a3.3 3.3 0 0 1 .602-1.204q.405-.518 1.022-.812.615-.294 1.47-.294.644 0 1.302.238a2.37 2.37 0 0 1 1.078.77V26.99h1.19zm-3.472-6.398q-.602 0-1.022.224a1.9 1.9 0 0 0-.686.574 2.6 2.6 0 0 0-.378.868 5 5 0 0 0-.112 1.078q0 .588.112 1.064.111.462.378.826a2 2 0 0 0 .686.588q.42.21 1.036.21.714 0 1.176-.336t.742-.84q.196-.35.28-.756.084-.42.084-.826a4 4 0 0 0-.098-.924 2.2 2.2 0 0 0-.322-.784 2.4 2.4 0 0 0-.742-.686q-.462-.28-1.134-.28m15.596-.98v7.378q0 1.61-.84 2.45-.84.854-2.394.854a6 6 0 0 1-1.694-.252 3.5 3.5 0 0 1-1.371-.812l.517-.938q.547.434 1.163.686.63.252 1.316.252.573 0 .98-.182.406-.168.657-.49.267-.308.379-.742.126-.434.126-.938v-.882a2.1 2.1 0 0 1-.463.504 2.7 2.7 0 0 1-.587.35q-.309.126-.672.182a3.6 3.6 0 0 1-.715.07q-.84-.014-1.4-.266a2.27 2.27 0 0 1-.882-.7 2.9 2.9 0 0 1-.462-1.064 6.4 6.4 0 0 1-.14-1.386V29.51h1.19v3.738q.001.504.056.994a2.7 2.7 0 0 0 .266.868q.196.378.574.616.378.224 1.008.224t1.064-.266q.45-.266.687-.672.265-.42.35-.924.097-.504.097-1.036V29.51zm5.12-.084q.882 0 1.526.28.645.28 1.078.784.448.504.658 1.204.225.686.224 1.512 0 .826-.224 1.526-.21.686-.658 1.19-.434.49-1.092.77t-1.54.28-1.54-.28a3.2 3.2 0 0 1-1.092-.77 3.4 3.4 0 0 1-.658-1.19 5.3 5.3 0 0 1-.21-1.526q0-.826.21-1.512.225-.7.658-1.204a3 3 0 0 1 1.12-.784q.672-.28 1.54-.28m-.028 6.496q.602 0 1.036-.21.448-.21.728-.574.294-.378.42-.868.14-.49.14-1.064 0-.56-.14-1.05a2.2 2.2 0 0 0-.42-.868 1.9 1.9 0 0 0-.728-.588q-.435-.21-1.036-.21-.602 0-1.036.21a2 2 0 0 0-.728.588 2.5 2.5 0 0 0-.42.868 4.2 4.2 0 0 0-.126 1.05q0 .574.126 1.064.14.49.42.868.294.364.728.574.435.21 1.036.21m8.186 0q1.008 0 1.47-.602.477-.615.476-1.708V29.51h1.19v4.158q0 1.68-.812 2.492-.797.812-2.324.812t-2.324-.812q-.784-.812-.784-2.492V29.51h1.19v4.102q0 1.092.476 1.708.476.602 1.442.602m11.392-5.432q-.252 0-.518.042a1.7 1.7 0 0 0-.504.14 1.1 1.1 0 0 0-.42.308q-.168.195-.182.532 0 .476.35.714.364.238.938.35.238.056.518.112.28.041.546.098a6.5 6.5 0 0 1 .938.21q1.344.42 1.344 1.806-.014.672-.294 1.092-.266.405-.686.644-.406.238-.938.336a5.49 5.49 0 0 1-2.058 0 3.2 3.2 0 0 1-.952-.336 2.7 2.7 0 0 1-.728-.644q-.294-.406-.378-1.008h1.204q.112.336.35.532.238.195.504.308.28.112.518.154.252.042.56.042.224 0 .518-.028t.56-.126a1.2 1.2 0 0 0 .448-.322q.182-.21.182-.588 0-.42-.28-.63-.266-.21-.742-.308a13 13 0 0 0-.7-.126l-.714-.14a15 15 0 0 1-.686-.182 3 3 0 0 1-.63-.294 1.8 1.8 0 0 1-.63-.644q-.238-.406-.238-.994.028-.616.28-1.008.252-.405.644-.658.42-.252.896-.35a5 5 0 0 1 1.008-.098q1.134 0 1.806.49.406.28.63.672t.28.826h-1.106q-.098-.406-.532-.658t-1.106-.266m5.415 3.15q.042.49.196.91.168.406.448.714t.686.49q.42.168.966.168.266 0 .546-.042a2.5 2.5 0 0 0 .546-.168q.252-.126.448-.322t.294-.476h1.218a2.35 2.35 0 0 1-.434.924 2.5 2.5 0 0 1-.714.644 3.2 3.2 0 0 1-.91.378 4.7 4.7 0 0 1-1.022.112q-.882 0-1.54-.28a3 3 0 0 1-1.078-.77 3.3 3.3 0 0 1-.644-1.19 5.3 5.3 0 0 1-.21-1.526q0-.826.224-1.512.239-.7.672-1.204a3 3 0 0 1 1.064-.784q.63-.28 1.498-.28.882 0 1.526.35t1.036.924q.391.56.546 1.218.168.658.14 1.218 0 .126-.014.252 0 .126-.014.252zm4.298-1.036q-.029-.938-.588-1.526-.56-.588-1.498-.588-.518 0-.91.168a1.9 1.9 0 0 0-.658.462 2.2 2.2 0 0 0-.42.686 2.9 2.9 0 0 0-.196.798zm2.803 4.284V29.51h1.148l.056 1.12q.183-.308.448-.532a3 3 0 0 1 .602-.378q.322-.154.672-.224.364-.07.7-.07.798 0 1.344.266.547.252.868.714.322.448.462 1.078.14.616.14 1.33v4.074h-1.19v-3.752q0-.518-.07-.994a2.3 2.3 0 0 0-.252-.84 1.44 1.44 0 0 0-.532-.602q-.35-.224-.938-.224-.573.015-1.022.28a2.4 2.4 0 0 0-.7.63 2.7 2.7 0 0 0-.434 1.022 5.5 5.5 0 0 0-.112 1.106v3.374zm14.852 0h-1.134l-.056-1.106a2.17 2.17 0 0 1-1.05.91q-.659.28-1.386.28-.84-.014-1.456-.294a2.75 2.75 0 0 1-1.008-.798 3.5 3.5 0 0 1-.588-1.176 5.8 5.8 0 0 1-.182-1.484q0-.798.196-1.484a3.3 3.3 0 0 1 .602-1.204 2.8 2.8 0 0 1 1.022-.812q.617-.294 1.47-.294.644 0 1.302.238a2.37 2.37 0 0 1 1.078.77V26.99h1.19zm-3.472-6.398q-.602 0-1.022.224-.42.21-.686.574a2.6 2.6 0 0 0-.378.868 4.8 4.8 0 0 0-.112 1.078q0 .588.112 1.064.112.462.378.826.266.365.686.588.42.21 1.036.21.714 0 1.176-.336t.742-.84q.196-.35.28-.756.084-.42.084-.826 0-.504-.098-.924a2.2 2.2 0 0 0-.322-.784q-.28-.406-.742-.686t-1.134-.28m10.319-.098q.35-.49.854-.728a2.7 2.7 0 0 1 1.148-.238q.77.014 1.246.336.476.323.714.854.378-.56.924-.868.56-.322 1.316-.322.601 0 1.036.21.433.195.7.56.266.35.392.826t.126 1.036v4.83h-1.19V32.66q0-.364-.042-.742a2 2 0 0 0-.168-.7 1.2 1.2 0 0 0-.42-.518q-.28-.21-.756-.21-.462 0-.784.224-.323.21-.518.56-.183.35-.266.77t-.084.826v4.018h-1.19v-4.242q0-.35-.028-.728a2 2 0 0 0-.168-.7 1.15 1.15 0 0 0-.392-.518q-.267-.21-.742-.21-.504 0-.84.224-.322.224-.532.574a2.6 2.6 0 0 0-.28.784q-.07.42-.07.812v4.004h-1.19V29.51h1.148zm11.19 3.248q.042.49.196.91.168.406.448.714t.686.49q.42.168.966.168.267 0 .546-.042a2.5 2.5 0 0 0 .546-.168 1.7 1.7 0 0 0 .448-.322q.196-.196.294-.476h1.218a2.34 2.34 0 0 1-.434.924 2.5 2.5 0 0 1-.714.644q-.406.252-.91.378a4.7 4.7 0 0 1-1.022.112q-.882 0-1.54-.28a3 3 0 0 1-1.078-.77 3.3 3.3 0 0 1-.644-1.19 5.3 5.3 0 0 1-.21-1.526q0-.826.224-1.512.238-.7.672-1.204t1.064-.784 1.498-.28q.882 0 1.526.35.645.35 1.036.924.393.56.546 1.218.168.658.14 1.218 0 .126-.014.252 0 .126-.014.252zm4.298-1.036q-.027-.938-.588-1.526t-1.498-.588q-.517 0-.91.168-.391.168-.658.462a2.2 2.2 0 0 0-.42.686 2.9 2.9 0 0 0-.196.798zm8.439-3.094h1.974v1.05h-1.974v3.822q0 .756.294 1.12.294.35 1.092.35h.546v1.036h-.798q-1.26 0-1.792-.574-.532-.575-.532-1.806V30.56h-1.204v-1.05h1.204v-2.198h1.19zm3.32 7.378V26.99h1.19v3.654q.181-.28.462-.518.279-.239.588-.392t.672-.224a3.4 3.4 0 0 1 .728-.084q.798 0 1.33.266.546.252.868.714.336.448.462 1.078.14.616.14 1.344v4.06h-1.19v-3.696q0-.504-.056-.98a2.5 2.5 0 0 0-.252-.868 1.6 1.6 0 0 0-.56-.616q-.364-.252-.994-.252-.519 0-.966.266-.435.252-.7.644-.323.434-.434.966a6 6 0 0 0-.098 1.092v3.444zm9.195-3.248q.042.49.196.91.169.406.448.714.28.308.686.49.42.168.966.168.267 0 .546-.042a2.5 2.5 0 0 0 .546-.168 1.7 1.7 0 0 0 .448-.322q.197-.196.294-.476h1.218a2.34 2.34 0 0 1-.434.924 2.5 2.5 0 0 1-.714.644q-.405.252-.91.378a4.7 4.7 0 0 1-1.022.112q-.882 0-1.54-.28a3 3 0 0 1-1.078-.77 3.3 3.3 0 0 1-.644-1.19 5.3 5.3 0 0 1-.21-1.526q0-.826.224-1.512.239-.7.672-1.204t1.064-.784q.63-.28 1.498-.28.882 0 1.526.35.645.35 1.036.924.393.56.546 1.218.168.658.14 1.218 0 .126-.014.252 0 .126-.014.252zm4.298-1.036q-.027-.938-.588-1.526t-1.498-.588q-.517 0-.91.168-.391.168-.658.462a2.2 2.2 0 0 0-.42.686 2.9 2.9 0 0 0-.196.798zm11.435 3.346a2 2 0 0 1-.546.518q-.308.195-.644.308a3.2 3.2 0 0 1-.658.154 5 5 0 0 1-.644.042q-.518 0-.98-.126a2.5 2.5 0 0 1-.84-.406 2.1 2.1 0 0 1-.588-.7 2.1 2.1 0 0 1-.21-.952q0-.63.224-1.05a2 2 0 0 1 .63-.7q.392-.266.896-.364a5 5 0 0 1 1.092-.112h2.17q0-.938-.406-1.484-.406-.56-1.372-.588-.588 0-1.036.196a1.1 1.1 0 0 0-.616.644h-1.274q.098-.503.392-.854.294-.364.7-.588.406-.238.882-.35t.952-.112q.827 0 1.386.28.574.265.924.714.35.434.49 1.064t.14 1.414v3.99h-.994zm-1.4-2.394q-.336 0-.784.014a4 4 0 0 0-.84.084q-.406.084-.658.35-.238.265-.238.7 0 .322.126.546t.336.378q.224.154.504.224t.574.07q1.05 0 1.652-.504.617-.518.63-1.498v-.364zm4.308 3.332V29.51h1.148l.056 1.12q.181-.308.448-.532.28-.224.602-.378t.672-.224q.363-.07.7-.07.798 0 1.344.266.546.252.868.714.321.448.462 1.078.14.616.14 1.33v4.074h-1.19v-3.752q0-.518-.07-.994a2.4 2.4 0 0 0-.252-.84 1.45 1.45 0 0 0-.532-.602q-.35-.224-.938-.224-.575.015-1.022.28-.435.266-.7.63-.323.462-.434 1.022a5.5 5.5 0 0 0-.112 1.106v3.374zm13.129-.938q-.237.322-.546.518-.308.195-.644.308a3.2 3.2 0 0 1-.658.154 5 5 0 0 1-.644.042q-.518 0-.98-.126a2.5 2.5 0 0 1-.84-.406 2.2 2.2 0 0 1-.588-.7 2.1 2.1 0 0 1-.21-.952q0-.63.224-1.05a2 2 0 0 1 .63-.7q.393-.266.896-.364.519-.112 1.092-.112h2.17q0-.938-.406-1.484-.406-.56-1.372-.588-.588 0-1.036.196-.448.195-.616.644h-1.274q.099-.503.392-.854.294-.364.7-.588.406-.238.882-.35.477-.112.952-.112.826 0 1.386.28.575.265.924.714.35.434.49 1.064t.14 1.414v3.99h-.994zm-1.4-2.394q-.336 0-.784.014a4 4 0 0 0-.84.084q-.406.084-.658.35-.238.265-.238.7 0 .322.126.546t.336.378q.225.154.504.224.28.07.574.07 1.05 0 1.652-.504.617-.518.63-1.498v-.364zm4.308 3.332V26.99h1.19v9.898zm9.544-7.378v7.378q0 1.61-.84 2.45-.84.854-2.394.854a6 6 0 0 1-1.694-.252 3.5 3.5 0 0 1-1.372-.812l.518-.938q.547.434 1.162.686.63.252 1.316.252.575 0 .98-.182.406-.168.658-.49a1.8 1.8 0 0 0 .378-.742q.126-.434.126-.938v-.882a2.1 2.1 0 0 1-.462.504q-.265.21-.588.35a3 3 0 0 1-.672.182q-.35.07-.714.07-.84-.014-1.4-.266a2.27 2.27 0 0 1-.882-.7 2.9 2.9 0 0 1-.462-1.064 6.4 6.4 0 0 1-.14-1.386V29.51h1.19v3.738q0 .504.056.994.07.49.266.868t.574.616q.378.224 1.008.224t1.064-.266q.449-.266.686-.672.266-.42.35-.924.099-.504.098-1.036V29.51zm3.734 0h1.974v1.05h-1.974v3.822q0 .756.294 1.12.294.35 1.092.35h.546v1.036h-.798q-1.26 0-1.792-.574-.532-.575-.532-1.806V30.56h-1.204v-1.05h1.204v-2.198h1.19zm4.005-2.702q.336 0 .574.224.238.21.238.56a.75.75 0 0 1-.238.574.8.8 0 0 1-.574.224.78.78 0 0 1-.574-.224.78.78 0 0 1-.224-.574q0-.35.224-.56a.78.78 0 0 1 .574-.224m-.588 10.08V29.51h1.19v7.378zm6.32.084q-.882 0-1.526-.28a2.8 2.8 0 0 1-1.064-.784 3.4 3.4 0 0 1-.63-1.19 5.1 5.1 0 0 1-.21-1.498q0-.785.224-1.47.224-.7.658-1.204a3 3 0 0 1 1.092-.812q.659-.308 1.596-.308.56 0 .994.126.434.112.812.378.392.252.672.672t.406 1.022h-1.218q-.21-.616-.672-.882-.448-.265-1.064-.252-.602 0-1.064.238-.448.224-.728.602a2.6 2.6 0 0 0-.392.882 4 4 0 0 0-.126 1.008q0 .546.126 1.036.14.49.406.868.28.365.714.588.434.21 1.036.21.294 0 .574-.056.294-.056.532-.182.252-.14.434-.364t.266-.546h1.232q-.112.574-.406.994-.28.406-.7.686-.42.266-.924.392a4.3 4.3 0 0 1-1.05.126m7.22-6.482q-.251 0-.518.042a1.7 1.7 0 0 0-.504.14 1.1 1.1 0 0 0-.42.308q-.167.195-.182.532 0 .476.35.714.365.238.938.35.239.056.518.112.28.041.546.098a6.4 6.4 0 0 1 .938.21q1.344.42 1.344 1.806-.013.672-.294 1.092-.266.405-.686.644-.405.238-.938.336-.517.098-1.036.098-.504 0-1.022-.098a3.2 3.2 0 0 1-.952-.336 2.7 2.7 0 0 1-.728-.644q-.294-.406-.378-1.008h1.204q.113.336.35.532.239.195.504.308.28.112.518.154.252.042.56.042.224 0 .518-.028t.56-.126q.267-.112.448-.322.182-.21.182-.588 0-.42-.28-.63-.265-.21-.742-.308a13 13 0 0 0-.7-.126l-.714-.14a15 15 0 0 1-.686-.182 3 3 0 0 1-.63-.294 1.8 1.8 0 0 1-.63-.644q-.238-.406-.238-.994.028-.616.28-1.008.252-.405.644-.658.42-.252.896-.35a5 5 0 0 1 1.008-.098q1.134 0 1.806.49.406.28.63.672.225.392.28.826h-1.106q-.097-.406-.532-.658-.434-.252-1.106-.266m8.979 6.398V30.56h-1.204v-1.05h1.204v-.784q0-1.232.532-1.806.531-.574 1.792-.574h.84v1.05h-.714q-.756 0-1.008.378t-.252 1.092v.644h1.974v1.05h-1.974v6.328zm5.099-10.08q.336 0 .574.224.238.21.238.56t-.238.574a.8.8 0 0 1-.574.224.78.78 0 0 1-.574-.224.78.78 0 0 1-.224-.574q0-.35.224-.56a.78.78 0 0 1 .574-.224m-.588 10.08V29.51h1.19v7.378zm3.169 0V26.99h1.19v9.898zm3.987-3.248q.042.49.196.91.168.406.448.714t.686.49q.42.168.966.168.265 0 .546-.042a2.5 2.5 0 0 0 .546-.168q.252-.126.448-.322.195-.196.294-.476h1.218a2.35 2.35 0 0 1-.434.924 2.5 2.5 0 0 1-.714.644 3.2 3.2 0 0 1-.91.378 4.7 4.7 0 0 1-1.022.112q-.882 0-1.54-.28a3 3 0 0 1-1.078-.77 3.25 3.25 0 0 1-.644-1.19 5.3 5.3 0 0 1-.21-1.526q0-.826.224-1.512.237-.7.672-1.204a3 3 0 0 1 1.064-.784q.63-.28 1.498-.28.882 0 1.526.35.643.35 1.036.924.391.56.546 1.218.168.658.14 1.218 0 .126-.014.252 0 .126-.014.252zm4.298-1.036q-.029-.938-.588-1.526-.56-.588-1.498-.588a2.3 2.3 0 0 0-.91.168 1.85 1.85 0 0 0-.658.462 2.2 2.2 0 0 0-.42.686 2.9 2.9 0 0 0-.196.798zM39.865 47.51v7.378q0 1.61-.84 2.45-.84.854-2.394.854a6 6 0 0 1-1.694-.252 3.5 3.5 0 0 1-1.372-.812l.518-.938q.547.434 1.162.686.63.252 1.316.252.575 0 .98-.182.406-.168.658-.49.267-.308.378-.742.126-.434.126-.938v-.882a2.1 2.1 0 0 1-.462.504q-.265.21-.588.35-.308.126-.672.182-.35.07-.714.07-.84-.014-1.4-.266a2.27 2.27 0 0 1-.882-.7 2.9 2.9 0 0 1-.462-1.064 6.4 6.4 0 0 1-.14-1.386V47.51h1.19v3.738q0 .504.056.994.07.49.266.868t.574.616q.378.224 1.008.224t1.064-.266q.449-.266.686-.672.266-.42.35-.924.099-.504.098-1.036V47.51zm5.12-.084q.881 0 1.526.28.644.28 1.078.784.448.504.658 1.204.224.685.224 1.512 0 .826-.224 1.526-.21.686-.658 1.19-.435.49-1.092.77-.658.28-1.54.28t-1.54-.28a3.2 3.2 0 0 1-1.092-.77 3.4 3.4 0 0 1-.658-1.19 5.3 5.3 0 0 1-.21-1.526q0-.826.21-1.512.224-.7.658-1.204a3 3 0 0 1 1.12-.784q.672-.28 1.54-.28m-.028 6.496q.601 0 1.036-.21.447-.21.728-.574.294-.378.42-.868.14-.49.14-1.064 0-.56-.14-1.05a2.2 2.2 0 0 0-.42-.868 1.9 1.9 0 0 0-.728-.588q-.435-.21-1.036-.21-.602 0-1.036.21a2 2 0 0 0-.728.588 2.5 2.5 0 0 0-.42.868 4.2 4.2 0 0 0-.126 1.05q0 .574.126 1.064.14.49.42.868.294.364.728.574.435.21 1.036.21m8.186 0q1.008 0 1.47-.602.476-.615.476-1.708V47.51h1.19v4.158q0 1.68-.812 2.492-.798.812-2.324.812t-2.324-.812q-.784-.812-.784-2.492V47.51h1.19v4.102q0 1.092.476 1.708.476.602 1.442.602m11.392-5.432q-.252 0-.518.042a1.7 1.7 0 0 0-.504.14 1.1 1.1 0 0 0-.42.308q-.168.195-.182.532 0 .475.35.714.363.238.938.35.238.056.518.112.279.041.546.098a6.5 6.5 0 0 1 .938.21q1.344.42 1.344 1.806-.015.672-.294 1.092a2 2 0 0 1-.686.644q-.406.238-.938.336-.518.098-1.036.098-.504 0-1.022-.098a3.2 3.2 0 0 1-.952-.336 2.7 2.7 0 0 1-.728-.644q-.294-.406-.378-1.008h1.204q.111.336.35.532.239.195.504.308.28.112.518.154.252.042.56.042.225 0 .518-.028t.56-.126q.266-.112.448-.322t.182-.588q0-.42-.28-.63-.267-.21-.742-.308a13 13 0 0 0-.7-.126l-.714-.14a15 15 0 0 1-.686-.182 3 3 0 0 1-.63-.294 1.8 1.8 0 0 1-.63-.644q-.238-.406-.238-.994.028-.616.28-1.008.252-.406.644-.658.42-.252.896-.35a5 5 0 0 1 1.008-.098q1.134 0 1.806.49.405.28.63.672t.28.826h-1.106q-.099-.406-.532-.658-.435-.252-1.106-.266m4.49 6.398V44.99h1.19v3.654q.183-.28.463-.518.28-.239.588-.392t.672-.224q.378-.084.728-.084.798 0 1.33.266.546.252.868.714.336.448.462 1.078.14.616.14 1.344v4.06h-1.19v-3.696a8 8 0 0 0-.056-.98 2.5 2.5 0 0 0-.252-.868 1.6 1.6 0 0 0-.56-.616q-.364-.252-.994-.252a1.86 1.86 0 0 0-.966.266q-.435.252-.7.644-.323.434-.434.966a6 6 0 0 0-.098 1.092v3.444zm11.52-7.462q.882 0 1.526.28.645.28 1.078.784.448.504.658 1.204.225.685.224 1.512 0 .826-.224 1.526-.21.686-.658 1.19-.433.49-1.092.77-.657.28-1.54.28-.882 0-1.54-.28a3.2 3.2 0 0 1-1.092-.77 3.4 3.4 0 0 1-.658-1.19 5.3 5.3 0 0 1-.21-1.526q0-.826.21-1.512.225-.7.658-1.204a3 3 0 0 1 1.12-.784q.672-.28 1.54-.28m-.028 6.496q.603 0 1.036-.21.449-.21.728-.574.294-.378.42-.868.14-.49.14-1.064 0-.56-.14-1.05a2.2 2.2 0 0 0-.42-.868 1.9 1.9 0 0 0-.728-.588q-.433-.21-1.036-.21-.601 0-1.036.21a2 2 0 0 0-.728.588 2.5 2.5 0 0 0-.42.868 4.2 4.2 0 0 0-.126 1.05q0 .574.126 1.064.141.49.42.868.294.364.728.574.435.21 1.036.21m4.337-6.412h1.344l1.764 6.23 1.82-6.23h1.61l1.834 6.23 1.736-6.23h1.358l-2.296 7.378H92.4l-1.82-5.978-1.82 5.978h-1.61zm13.492 4.13a3.5 3.5 0 0 0 .196.91q.169.406.448.714.28.308.686.49.42.168.966.168.267 0 .546-.042a2.5 2.5 0 0 0 .546-.168 1.7 1.7 0 0 0 .448-.322q.197-.196.294-.476h1.218a2.34 2.34 0 0 1-.434.924 2.5 2.5 0 0 1-.714.644q-.405.252-.91.378a4.7 4.7 0 0 1-1.022.112q-.882 0-1.54-.28a3 3 0 0 1-1.078-.77 3.3 3.3 0 0 1-.644-1.19 5.3 5.3 0 0 1-.21-1.526q0-.826.224-1.512.239-.7.672-1.204.435-.504 1.064-.784.63-.28 1.498-.28.882 0 1.526.35.645.35 1.036.924.393.56.546 1.218.168.658.14 1.218 0 .126-.014.252 0 .126-.014.252zm4.298-1.036q-.027-.938-.588-1.526t-1.498-.588q-.517 0-.91.168-.391.168-.658.462a2.2 2.2 0 0 0-.42.686 2.9 2.9 0 0 0-.196.798zm9.384 4.284h-1.134l-.056-1.106a2.17 2.17 0 0 1-1.05.91q-.658.28-1.386.28-.84-.014-1.456-.294a2.75 2.75 0 0 1-1.008-.798 3.5 3.5 0 0 1-.588-1.176 5.7 5.7 0 0 1-.182-1.484q0-.798.196-1.484.195-.7.602-1.204.405-.518 1.022-.812.615-.294 1.47-.294.643 0 1.302.238.658.238 1.078.77V44.99h1.19zm-3.472-6.398q-.602 0-1.022.224-.42.21-.686.574a2.6 2.6 0 0 0-.378.868 4.8 4.8 0 0 0-.112 1.078q0 .588.112 1.064.111.462.378.826.266.365.686.588.42.21 1.036.21.714 0 1.176-.336t.742-.84q.196-.35.28-.756.084-.42.084-.826 0-.504-.098-.924a2.2 2.2 0 0 0-.322-.784q-.28-.406-.742-.686t-1.134-.28m10.318-.098q.35-.49.854-.728a2.7 2.7 0 0 1 1.148-.238q.77.014 1.246.336.477.323.714.854.378-.56.924-.868.56-.322 1.316-.322.603 0 1.036.21.435.195.7.56.266.35.392.826t.126 1.036v4.83h-1.19V50.66q0-.364-.042-.742a2 2 0 0 0-.168-.7 1.2 1.2 0 0 0-.42-.518q-.279-.21-.756-.21a1.34 1.34 0 0 0-.784.224q-.321.21-.518.56-.182.35-.266.77t-.084.826v4.018h-1.19v-4.242q0-.35-.028-.728a2 2 0 0 0-.168-.7 1.14 1.14 0 0 0-.392-.518q-.265-.21-.742-.21-.504 0-.84.224-.322.224-.532.574-.195.35-.28.784-.07.42-.07.812v4.004h-1.19V47.51h1.148zm11.191 3.248q.042.49.196.91.168.406.448.714t.686.49q.42.168.966.168.265 0 .546-.042a2.5 2.5 0 0 0 .546-.168q.252-.126.448-.322.197-.196.294-.476h1.218a2.35 2.35 0 0 1-.434.924 2.5 2.5 0 0 1-.714.644 3.2 3.2 0 0 1-.91.378 4.7 4.7 0 0 1-1.022.112q-.882 0-1.54-.28a3 3 0 0 1-1.078-.77 3.3 3.3 0 0 1-.644-1.19 5.3 5.3 0 0 1-.21-1.526q0-.826.224-1.512.238-.7.672-1.204a3 3 0 0 1 1.064-.784q.63-.28 1.498-.28.882 0 1.526.35t1.036.924q.392.56.546 1.218.168.658.14 1.218 0 .126-.014.252 0 .126-.014.252zm4.298-1.036q-.029-.938-.588-1.526-.56-.588-1.498-.588-.518 0-.91.168a1.9 1.9 0 0 0-.658.462 2.2 2.2 0 0 0-.42.686 2.9 2.9 0 0 0-.196.798zm7.263-5.796q.336 0 .574.224.238.21.238.56a.75.75 0 0 1-.238.574.8.8 0 0 1-.574.224.78.78 0 0 1-.574-.224.78.78 0 0 1-.224-.574q0-.35.224-.56a.78.78 0 0 1 .574-.224m-.588 10.08V47.51h1.19v7.378zm3.17 0V47.51h1.148l.056 1.12q.181-.308.448-.532.28-.224.602-.378t.672-.224q.363-.07.7-.07.798 0 1.344.266.546.252.868.714.321.448.462 1.078.14.615.14 1.33v4.074h-1.19v-3.752q0-.518-.07-.994a2.4 2.4 0 0 0-.252-.84 1.45 1.45 0 0 0-.532-.602q-.35-.224-.938-.224-.575.015-1.022.28-.435.266-.7.63-.323.462-.434 1.022a5.5 5.5 0 0 0-.112 1.106v3.374zm13.906-7.378h1.974v1.05h-1.974v3.822q0 .756.294 1.12.294.35 1.092.35h.546v1.036h-.798q-1.26 0-1.792-.574-.532-.575-.532-1.806V48.56h-1.204v-1.05h1.204v-2.198h1.19zm3.32 7.378V44.99h1.19v3.654q.181-.28.462-.518.28-.239.588-.392t.672-.224q.378-.084.728-.084.798 0 1.33.266.546.252.868.714.336.448.462 1.078.14.616.14 1.344v4.06h-1.19v-3.696q0-.504-.056-.98a2.5 2.5 0 0 0-.252-.868 1.6 1.6 0 0 0-.56-.616q-.364-.252-.994-.252-.517 0-.966.266a2.1 2.1 0 0 0-.7.644q-.322.434-.434.966a6 6 0 0 0-.098 1.092v3.444zm9.196-3.248q.042.49.196.91.168.406.448.714t.686.49q.42.168.966.168.266 0 .546-.042a2.5 2.5 0 0 0 .546-.168q.252-.126.448-.322.195-.196.294-.476h1.218a2.35 2.35 0 0 1-.434.924 2.5 2.5 0 0 1-.714.644 3.2 3.2 0 0 1-.91.378 4.7 4.7 0 0 1-1.022.112q-.883 0-1.54-.28a3 3 0 0 1-1.078-.77 3.25 3.25 0 0 1-.644-1.19 5.3 5.3 0 0 1-.21-1.526q0-.826.224-1.512.237-.7.672-1.204a3 3 0 0 1 1.064-.784q.63-.28 1.498-.28.881 0 1.526.35.643.35 1.036.924.392.56.546 1.218.167.658.14 1.218 0 .126-.014.252 0 .126-.014.252zm4.298-1.036q-.029-.938-.588-1.526-.56-.588-1.498-.588a2.3 2.3 0 0 0-.91.168 1.85 1.85 0 0 0-.658.462 2.2 2.2 0 0 0-.42.686 2.9 2.9 0 0 0-.196.798zm7.78-2.212q.35-.49.854-.728a2.7 2.7 0 0 1 1.148-.238q.77.014 1.246.336.477.323.714.854.378-.56.924-.868.56-.322 1.316-.322.603 0 1.036.21.435.195.7.56.267.35.392.826.126.476.126 1.036v4.83h-1.19V50.66q0-.364-.042-.742a2 2 0 0 0-.168-.7 1.2 1.2 0 0 0-.42-.518q-.279-.21-.756-.21a1.34 1.34 0 0 0-.784.224q-.321.21-.518.56-.182.35-.266.77t-.084.826v4.018h-1.19v-4.242q0-.35-.028-.728a2 2 0 0 0-.168-.7 1.14 1.14 0 0 0-.392-.518q-.265-.21-.742-.21-.504 0-.84.224-.321.224-.532.574-.195.35-.28.784-.07.42-.07.812v4.004h-1.19V47.51h1.148zm11.191 3.248q.042.49.196.91.168.406.448.714t.686.49q.42.168.966.168.266 0 .546-.042a2.5 2.5 0 0 0 .546-.168q.252-.126.448-.322.197-.196.294-.476h1.218a2.35 2.35 0 0 1-.434.924 2.5 2.5 0 0 1-.714.644 3.2 3.2 0 0 1-.91.378 4.7 4.7 0 0 1-1.022.112q-.882 0-1.54-.28a3 3 0 0 1-1.078-.77 3.3 3.3 0 0 1-.644-1.19 5.3 5.3 0 0 1-.21-1.526q0-.826.224-1.512.239-.7.672-1.204a3 3 0 0 1 1.064-.784q.63-.28 1.498-.28.882 0 1.526.35t1.036.924q.392.56.546 1.218.168.658.14 1.218 0 .126-.014.252 0 .126-.014.252zm4.298-1.036q-.029-.938-.588-1.526-.56-.588-1.498-.588-.518 0-.91.168a1.9 1.9 0 0 0-.658.462 2.2 2.2 0 0 0-.42.686 2.9 2.9 0 0 0-.196.798zm3.728 1.036q.042.49.195.91.169.406.449.714t.686.49q.42.168.966.168.265 0 .546-.042a2.5 2.5 0 0 0 .546-.168q.252-.126.448-.322.195-.196.294-.476h1.218a2.35 2.35 0 0 1-.434.924 2.5 2.5 0 0 1-.714.644 3.2 3.2 0 0 1-.91.378 4.7 4.7 0 0 1-1.022.112q-.882 0-1.54-.28a3 3 0 0 1-1.078-.77 3.25 3.25 0 0 1-.644-1.19 5.3 5.3 0 0 1-.21-1.526q0-.826.224-1.512.237-.7.672-1.204a3 3 0 0 1 1.064-.784q.63-.28 1.497-.28.883 0 1.527.35t1.036.924q.392.56.546 1.218.167.658.14 1.218 0 .126-.014.252 0 .126-.014.252zm4.298-1.036q-.029-.938-.588-1.526-.56-.588-1.498-.588a2.3 2.3 0 0 0-.91.168 1.85 1.85 0 0 0-.658.462 2.2 2.2 0 0 0-.42.686 2.9 2.9 0 0 0-.196.798zm4.665-3.094h1.974v1.05h-1.974v3.822q0 .756.294 1.12.294.35 1.092.35h.546v1.036h-.798q-1.26 0-1.792-.574-.532-.575-.532-1.806V48.56h-1.204v-1.05h1.204v-2.198h1.19zm4.006-2.702q.336 0 .574.224.237.21.238.56 0 .35-.238.574a.8.8 0 0 1-.574.224.78.78 0 0 1-.574-.224.78.78 0 0 1-.224-.574q0-.35.224-.56a.78.78 0 0 1 .574-.224m-.588 10.08V47.51h1.19v7.378zm3.169 0V47.51h1.148l.056 1.12q.182-.308.448-.532.28-.224.602-.378.323-.154.672-.224.364-.07.7-.07.798 0 1.344.266.546.252.868.714.322.448.462 1.078.14.615.14 1.33v4.074h-1.19v-3.752q0-.518-.07-.994a2.3 2.3 0 0 0-.252-.84 1.45 1.45 0 0 0-.532-.602q-.35-.224-.938-.224-.574.015-1.022.28a2.4 2.4 0 0 0-.7.63 2.7 2.7 0 0 0-.434 1.022 5.5 5.5 0 0 0-.112 1.106v3.374zm14.852-.056q0 1.568-.84 2.464t-2.534.896a4.5 4.5 0 0 1-1.078-.126 3 3 0 0 1-.924-.406 2.6 2.6 0 0 1-.7-.686 2.6 2.6 0 0 1-.392-.98h1.232q.084.322.28.532.21.224.476.35.265.14.574.196t.602.056q.56 0 .966-.182.405-.168.658-.476a1.9 1.9 0 0 0 .364-.742q.126-.42.126-.924v-1.022q-.364.644-1.036.924a3.8 3.8 0 0 1-1.4.266q-.84-.014-1.456-.294a2.75 2.75 0 0 1-1.008-.798 3.5 3.5 0 0 1-.588-1.176 5.7 5.7 0 0 1-.182-1.484q0-.798.196-1.484.195-.7.602-1.204.405-.518 1.022-.812.615-.294 1.47-.294.644 0 1.302.238.657.238 1.078.77l.056-.924h1.134zm-3.472-6.342q-.602 0-1.022.224-.42.21-.686.574a2.6 2.6 0 0 0-.378.868 4.7 4.7 0 0 0-.112 1.05q0 .616.112 1.092.111.462.378.826.266.365.686.588.42.21 1.036.21.714 0 1.176-.336t.742-.84q.195-.35.28-.756.084-.42.084-.826 0-.504-.098-.924a2.2 2.2 0 0 0-.322-.784q-.28-.406-.742-.686t-1.134-.28m7.077 3.416a.7.7 0 0 1-.014-.14v-.154q0-.336.084-.672t.42-.714q.14-.168.322-.336l.364-.364q.195-.182.378-.364.195-.182.35-.35.266-.308.434-.672.182-.364.182-.714 0-.713-.462-1.064-.449-.35-1.176-.378-.294 0-.588.056a1.8 1.8 0 0 0-.532.196q-.252.126-.434.35-.183.21-.252.518h-1.232q.07-.56.35-.98t.686-.686q.42-.28.924-.42.518-.14 1.064-.14.588 0 1.106.154.517.154.91.462.391.307.616.756.238.448.238 1.12-.014.645-.266 1.162a4 4 0 0 1-.686.98q-.155.154-.35.336a13.732 13.732 0 0 0-.77.77 2.5 2.5 0 0 0-.266.364 1.2 1.2 0 0 0-.154.406q-.028.225-.028.406v.112zm.588 1.414q.363 0 .602.238.238.239.238.602 0 .364-.238.602a.82.82 0 0 1-.602.238.81.81 0 0 1-.602-.238.84.84 0 0 1-.224-.602.84.84 0 0 1 .224-.602.81.81 0 0 1 .602-.238m10.125 1.568h-1.218V44.99h1.218zm4.014-7.378h1.974v1.05h-1.974v3.822q0 .756.294 1.12.294.35 1.092.35h.546v1.036h-.798q-1.26 0-1.792-.574-.532-.575-.532-1.806V48.56h-1.204v-1.05h1.204v-2.198h1.19zm4.735-1.26a.93.93 0 0 1-.588-.238.73.73 0 0 1-.224-.56q0-.392.252-.602a.95.95 0 0 1 .63-.21q.448.043.658.364.182.336.182.742 0 .378-.126.714-.113.322-.308.616a2.5 2.5 0 0 1-.462.518q-.253.225-.532.322l-.336-.462q.28-.196.518-.532.252-.336.336-.672m5.004 2.24q-.252 0-.518.042a1.7 1.7 0 0 0-.504.14 1.1 1.1 0 0 0-.42.308q-.168.195-.182.532 0 .475.35.714.364.238.938.35.238.056.518.112.28.041.546.098a6.5 6.5 0 0 1 .938.21q1.344.42 1.344 1.806-.014.672-.294 1.092-.266.405-.686.644-.406.238-.938.336a5.49 5.49 0 0 1-2.058 0 3.2 3.2 0 0 1-.952-.336 2.7 2.7 0 0 1-.728-.644q-.294-.406-.378-1.008h1.204q.112.336.35.532.238.195.504.308.28.112.518.154.252.042.56.042.224 0 .518-.028t.56-.126a1.2 1.2 0 0 0 .448-.322q.182-.21.182-.588 0-.42-.28-.63-.266-.21-.742-.308a13 13 0 0 0-.7-.126l-.714-.14a15 15 0 0 1-.686-.182 3 3 0 0 1-.63-.294 1.8 1.8 0 0 1-.63-.644q-.238-.406-.238-.994.028-.616.28-1.008.252-.406.644-.658.42-.252.896-.35a5 5 0 0 1 1.008-.098q1.134 0 1.806.49.406.28.63.672t.28.826h-1.106q-.098-.406-.532-.658t-1.106-.266m10.897 0q-.252 0-.518.042a1.7 1.7 0 0 0-.504.14 1.1 1.1 0 0 0-.42.308q-.168.195-.182.532 0 .475.35.714.363.238.938.35.237.056.518.112.279.041.546.098a6.5 6.5 0 0 1 .938.21q1.344.42 1.344 1.806-.015.672-.294 1.092-.267.405-.686.644-.407.238-.938.336a5.49 5.49 0 0 1-2.058 0 3.2 3.2 0 0 1-.952-.336 2.7 2.7 0 0 1-.728-.644q-.294-.406-.378-1.008h1.204q.111.336.35.532.237.195.504.308.28.112.518.154.251.042.56.042.224 0 .518-.028t.56-.126q.265-.112.448-.322.182-.21.182-.588 0-.42-.28-.63-.267-.21-.742-.308a14 14 0 0 0-.7-.126q-.351-.07-.714-.14a15 15 0 0 1-.686-.182 3 3 0 0 1-.63-.294 1.8 1.8 0 0 1-.63-.644q-.238-.406-.238-.994.028-.616.28-1.008.252-.406.644-.658.42-.252.896-.35a5 5 0 0 1 1.008-.098q1.134 0 1.806.49.405.28.63.672.223.392.28.826h-1.106q-.099-.406-.532-.658-.435-.252-1.106-.266m7.739-1.064q.881 0 1.526.28.643.28 1.078.784.447.504.658 1.204.224.685.224 1.512 0 .826-.224 1.526-.21.686-.658 1.19-.435.49-1.092.77-.658.28-1.54.28t-1.54-.28a3.2 3.2 0 0 1-1.092-.77 3.4 3.4 0 0 1-.658-1.19 5.3 5.3 0 0 1-.21-1.526q0-.826.21-1.512a3.4 3.4 0 0 1 .658-1.204 3 3 0 0 1 1.12-.784q.672-.28 1.54-.28m-.028 6.496q.601 0 1.036-.21.447-.21.728-.574.294-.378.42-.868.14-.49.14-1.064a3.8 3.8 0 0 0-.14-1.05 2.2 2.2 0 0 0-.42-.868 1.9 1.9 0 0 0-.728-.588q-.435-.21-1.036-.21-.603 0-1.036.21-.435.21-.728.588a2.5 2.5 0 0 0-.42.868 4.2 4.2 0 0 0-.126 1.05q0 .574.126 1.064.14.49.42.868.293.364.728.574.433.21 1.036.21M36.533 72.973q-.882 0-1.526-.28a2.8 2.8 0 0 1-1.064-.784 3.4 3.4 0 0 1-.63-1.19 5.1 5.1 0 0 1-.21-1.498q0-.785.224-1.47.225-.7.658-1.204.435-.518 1.092-.812.658-.308 1.596-.308.56 0 .994.126.434.112.812.378.393.252.672.672.28.42.406 1.022H38.34q-.21-.616-.672-.882-.447-.266-1.064-.252-.602 0-1.064.238-.447.225-.728.602a2.6 2.6 0 0 0-.392.882 4 4 0 0 0-.126 1.008q0 .546.126 1.036.14.49.406.868.28.364.714.588.435.21 1.036.21.294 0 .574-.056.294-.056.532-.182a1.5 1.5 0 0 0 .434-.364q.182-.224.266-.546h1.232q-.111.574-.406.994-.28.406-.7.686-.42.266-.924.392a4.3 4.3 0 0 1-1.05.126m7.837-7.546q.881 0 1.526.28.643.28 1.078.784.447.504.658 1.204.224.685.224 1.512 0 .826-.224 1.526-.21.686-.658 1.19-.435.49-1.092.77-.659.28-1.54.28-.883 0-1.54-.28a3.2 3.2 0 0 1-1.092-.77 3.4 3.4 0 0 1-.658-1.19 5.3 5.3 0 0 1-.21-1.526q0-.826.21-1.512.223-.7.658-1.204a3 3 0 0 1 1.12-.784q.671-.28 1.54-.28m-.028 6.496q.6 0 1.036-.21.447-.21.728-.574.294-.378.42-.868.14-.49.14-1.064 0-.56-.14-1.05a2.2 2.2 0 0 0-.42-.868 1.9 1.9 0 0 0-.728-.588q-.435-.21-1.036-.21-.603 0-1.036.21a2 2 0 0 0-.728.588 2.5 2.5 0 0 0-.42.868 4.2 4.2 0 0 0-.126 1.05q0 .574.126 1.064.14.49.42.868.294.364.728.574.433.21 1.036.21m5.106.966V65.51h1.148l.056 1.12q.181-.308.448-.532.28-.224.602-.378t.672-.224q.363-.07.7-.07.798 0 1.344.266.546.252.868.714.321.448.462 1.078.14.615.14 1.33v4.074h-1.19v-3.752q0-.518-.07-.994a2.3 2.3 0 0 0-.252-.84 1.45 1.45 0 0 0-.532-.602q-.35-.225-.938-.224-.575.015-1.022.28-.435.266-.7.63a2.7 2.7 0 0 0-.434 1.022 5.5 5.5 0 0 0-.112 1.106v3.374zm7.431-7.378h1.344l2.324 6.23 2.282-6.23h1.358l-2.842 7.378h-1.624zm9.27 4.13a3.5 3.5 0 0 0 .196.91q.168.406.448.714t.686.49q.42.168.966.168.266 0 .546-.042a2.5 2.5 0 0 0 .546-.168q.252-.126.448-.322t.294-.476h1.218a2.35 2.35 0 0 1-.434.924 2.5 2.5 0 0 1-.714.644q-.405.252-.91.378a4.7 4.7 0 0 1-1.022.112q-.882 0-1.54-.28a3 3 0 0 1-1.078-.77 3.3 3.3 0 0 1-.644-1.19 5.3 5.3 0 0 1-.21-1.526q0-.826.224-1.512.239-.7.672-1.204.435-.504 1.064-.784.63-.28 1.498-.28.882 0 1.526.35.645.35 1.036.924.392.56.546 1.218.168.658.14 1.218 0 .126-.014.252 0 .126-.014.252zm4.298-1.036q-.029-.938-.588-1.526-.56-.588-1.498-.588-.518 0-.91.168-.391.168-.658.462a2.2 2.2 0 0 0-.42.686 2.9 2.9 0 0 0-.196.798zm2.803 4.284V65.51h1.148l.056 1.12q.182-.308.449-.532.28-.224.601-.378.323-.154.672-.224.365-.07.7-.07.798 0 1.344.266.547.252.868.714.323.448.463 1.078.14.615.14 1.33v4.074H78.5v-3.752q0-.518-.07-.994a2.3 2.3 0 0 0-.252-.84 1.45 1.45 0 0 0-.532-.602q-.351-.225-.939-.224-.573.015-1.022.28-.433.266-.7.63a2.7 2.7 0 0 0-.434 1.022 5.5 5.5 0 0 0-.112 1.106v3.374zm8.958-10.08q.336 0 .574.224a.71.71 0 0 1 .238.56q0 .35-.238.574a.8.8 0 0 1-.574.224.78.78 0 0 1-.574-.224.78.78 0 0 1-.224-.574q0-.35.224-.56.224-.224.574-.224m-.588 10.08V65.51h1.19v7.378zm4.094-3.248a3.5 3.5 0 0 0 .196.91q.167.406.448.714.28.308.686.49.42.168.966.168.266 0 .546-.042a2.5 2.5 0 0 0 .546-.168q.252-.126.448-.322.195-.196.294-.476h1.218a2.35 2.35 0 0 1-.434.924 2.5 2.5 0 0 1-.714.644q-.406.252-.91.378a4.7 4.7 0 0 1-1.022.112q-.882 0-1.54-.28a3 3 0 0 1-1.078-.77 3.3 3.3 0 0 1-.644-1.19 5.3 5.3 0 0 1-.21-1.526q0-.826.224-1.512.237-.7.672-1.204.434-.504 1.064-.784t1.498-.28q.881 0 1.526.35.643.35 1.036.924.39.56.546 1.218.167.658.14 1.218 0 .126-.014.252 0 .126-.014.252zm4.298-1.036q-.03-.938-.588-1.526-.56-.588-1.498-.588-.52 0-.91.168-.393.168-.658.462a2.2 2.2 0 0 0-.42.686 2.9 2.9 0 0 0-.196.798zm2.803 4.284V65.51h1.148l.056 1.12q.181-.308.448-.532.28-.224.602-.378.323-.154.672-.224.364-.07.7-.07.798 0 1.344.266.546.252.868.714.323.448.462 1.078.14.615.14 1.33v4.074h-1.19v-3.752q0-.518-.07-.994a2.3 2.3 0 0 0-.252-.84 1.45 1.45 0 0 0-.532-.602q-.35-.225-.938-.224-.574.015-1.022.28-.435.266-.7.63a2.7 2.7 0 0 0-.434 1.022 5.5 5.5 0 0 0-.112 1.106v3.374zm10.133-7.378h2.268v1.05h-2.268v3.836q0 .322.028.602.042.266.14.476.113.196.308.322.21.113.56.126a1.3 1.3 0 0 0 .56-.112q.252-.112.42-.266l.518.868q-.363.308-.756.434-.391.126-.868.126-.601 0-1.008-.168a1.9 1.9 0 0 1-.686-.518 1.85 1.85 0 0 1-.322-.756 5 5 0 0 1-.084-.98v-3.99h-1.204v-1.05h1.204v-2.212h1.19zm9.325 0h2.268v1.05h-2.268v3.836q0 .322.028.602.041.266.14.476.111.196.308.322.21.113.56.126.321 0 .56-.112.252-.112.42-.266l.518.868q-.365.308-.756.434a2.8 2.8 0 0 1-.868.126q-.603 0-1.008-.168a1.9 1.9 0 0 1-.686-.518 1.8 1.8 0 0 1-.322-.756 5 5 0 0 1-.084-.98v-3.99h-1.204v-1.05h1.204v-2.212h1.19zm6.936-.084q.882 0 1.526.28.645.28 1.078.784.448.504.658 1.204.225.685.224 1.512 0 .826-.224 1.526-.21.686-.658 1.19a3 3 0 0 1-1.092.77q-.657.28-1.54.28-.882 0-1.54-.28a3.2 3.2 0 0 1-1.092-.77 3.5 3.5 0 0 1-.658-1.19 5.3 5.3 0 0 1-.21-1.526q0-.826.21-1.512a3.4 3.4 0 0 1 .658-1.204 3 3 0 0 1 1.12-.784q.673-.28 1.54-.28m-.028 6.496q.603 0 1.036-.21a1.9 1.9 0 0 0 .728-.574q.294-.378.42-.868.14-.49.14-1.064 0-.56-.14-1.05a2.2 2.2 0 0 0-.42-.868 1.9 1.9 0 0 0-.728-.588q-.433-.21-1.036-.21-.601 0-1.036.21-.434.21-.728.588a2.5 2.5 0 0 0-.42.868 4.2 4.2 0 0 0-.126 1.05q0 .574.126 1.064.141.49.42.868.294.364.728.574.435.21 1.036.21m11.512-5.432q-.252 0-.518.042a1.7 1.7 0 0 0-.504.14 1.1 1.1 0 0 0-.42.308q-.168.195-.182.532 0 .475.35.714.364.238.938.35.238.056.518.112.28.042.546.098a6.5 6.5 0 0 1 .938.21q1.344.42 1.344 1.806-.013.672-.294 1.092-.266.405-.686.644-.406.238-.938.336a5.49 5.49 0 0 1-2.058 0 3.2 3.2 0 0 1-.952-.336 2.7 2.7 0 0 1-.728-.644q-.294-.406-.378-1.008h1.204q.112.336.35.532.238.195.504.308.28.112.518.154.252.042.56.042.224 0 .518-.028t.56-.126a1.2 1.2 0 0 0 .448-.322q.182-.21.182-.588 0-.42-.28-.63-.266-.21-.742-.308a13 13 0 0 0-.7-.126l-.714-.14a15 15 0 0 1-.686-.182 3 3 0 0 1-.63-.294 1.8 1.8 0 0 1-.63-.644q-.238-.406-.238-.994.028-.616.28-1.008.252-.405.644-.658.42-.252.896-.35a5 5 0 0 1 1.008-.098q1.134 0 1.806.49.406.28.63.672t.28.826h-1.106q-.098-.405-.532-.658-.434-.252-1.106-.266m6.353-.98h2.268v1.05h-2.268v3.836q0 .322.028.602.042.266.14.476.112.196.308.322.21.113.56.126.322 0 .56-.112.252-.112.42-.266l.518.868q-.364.308-.756.434a2.8 2.8 0 0 1-.868.126q-.602 0-1.008-.168a1.9 1.9 0 0 1-.686-.518 1.8 1.8 0 0 1-.322-.756 5 5 0 0 1-.084-.98v-3.99h-1.204v-1.05h1.204v-2.212h1.19zm6.769 6.412q1.008 0 1.47-.602.476-.615.476-1.708V65.51h1.19v4.158q0 1.68-.812 2.492-.798.812-2.324.812t-2.324-.812q-.784-.812-.784-2.492V65.51h1.19v4.102q0 1.092.476 1.708.476.602 1.442.602m11.566.966h-1.134l-.056-1.106a2.17 2.17 0 0 1-1.05.91q-.657.28-1.386.28-.84-.014-1.456-.294a2.8 2.8 0 0 1-1.008-.798 3.5 3.5 0 0 1-.588-1.176 5.8 5.8 0 0 1-.182-1.484q0-.798.196-1.484.197-.7.602-1.204a2.8 2.8 0 0 1 1.022-.812q.617-.294 1.47-.294.645 0 1.302.238a2.37 2.37 0 0 1 1.078.77V62.99h1.19zm-3.472-6.398q-.602 0-1.022.224-.42.21-.686.574a2.6 2.6 0 0 0-.378.868 5 5 0 0 0-.112 1.078q0 .588.112 1.064.112.462.378.826t.686.588q.42.21 1.036.21.714 0 1.176-.336a2.616 2.616 0 0 0 1.022-1.596q.084-.42.084-.826a4 4 0 0 0-.098-.924 2.2 2.2 0 0 0-.322-.784q-.28-.406-.742-.686t-1.134-.28m11.824-.98v7.378q0 1.61-.84 2.45-.84.854-2.394.854a6 6 0 0 1-1.694-.252 3.5 3.5 0 0 1-1.372-.812l.518-.938q.546.434 1.162.686.63.252 1.315.252.575 0 .981-.182.406-.168.658-.49.265-.308.378-.742.126-.434.126-.938v-.882a2.2 2.2 0 0 1-.462.504q-.267.21-.588.35-.309.126-.672.182a3.6 3.6 0 0 1-.714.07q-.84-.014-1.4-.266a2.27 2.27 0 0 1-.882-.7 2.9 2.9 0 0 1-.462-1.064 6.4 6.4 0 0 1-.14-1.386V65.51h1.19v3.738q0 .504.056.994.07.49.266.868.195.378.574.616.378.225 1.008.224.63 0 1.064-.266.447-.266.686-.672.266-.42.35-.924.098-.504.098-1.036V65.51zm7.506 0h1.974v1.05h-1.974v3.822q0 .756.294 1.12.294.35 1.092.35h.546v1.036h-.798q-1.26 0-1.792-.574-.532-.575-.532-1.806V66.56h-1.204v-1.05h1.204v-2.198h1.19zm3.32 7.378V62.99h1.19v3.654q.181-.28.462-.518.28-.239.588-.392t.672-.224q.378-.084.728-.084.798 0 1.33.266.546.252.868.714.336.448.462 1.078.14.616.14 1.344v4.06h-1.19v-3.696q0-.504-.056-.98a2.5 2.5 0 0 0-.252-.868 1.6 1.6 0 0 0-.56-.616q-.364-.252-.994-.252-.517 0-.966.266a2.1 2.1 0 0 0-.7.644q-.322.434-.434.966a6 6 0 0 0-.098 1.092v3.444zm9.196-3.248q.042.49.196.91.168.406.448.714t.686.49q.42.168.966.168.266 0 .546-.042a2.5 2.5 0 0 0 .546-.168q.252-.126.448-.322.195-.196.294-.476h1.218a2.35 2.35 0 0 1-.434.924 2.5 2.5 0 0 1-.714.644 3.2 3.2 0 0 1-.91.378 4.7 4.7 0 0 1-1.022.112q-.883 0-1.54-.28a3 3 0 0 1-1.078-.77 3.25 3.25 0 0 1-.644-1.19 5.3 5.3 0 0 1-.21-1.526q0-.826.224-1.512.237-.7.672-1.204a3 3 0 0 1 1.064-.784q.63-.28 1.498-.28.881 0 1.526.35.643.35 1.036.924.392.56.546 1.218.167.658.14 1.218 0 .126-.014.252 0 .126-.014.252zm4.298-1.036q-.029-.938-.588-1.526-.56-.588-1.498-.588a2.3 2.3 0 0 0-.91.168 1.85 1.85 0 0 0-.658.462 2.2 2.2 0 0 0-.42.686 2.9 2.9 0 0 0-.196.798zm6.576 6.944V65.51h1.134l.056 1.106a2.4 2.4 0 0 1 1.022-.868q.658-.308 1.414-.322.854 0 1.442.294.603.28.994.798.407.504.602 1.204.196.686.196 1.484 0 .811-.196 1.498-.195.686-.602 1.19a2.9 2.9 0 0 1-1.022.798q-.615.28-1.47.28-.84 0-1.428-.266a2.44 2.44 0 0 1-.952-.742v3.584zm3.472-3.626q.603 0 1.008-.21.42-.224.672-.588a2.4 2.4 0 0 0 .378-.868q.126-.49.14-1.05 0-.56-.126-1.05a2.3 2.3 0 0 0-.378-.868 1.84 1.84 0 0 0-.7-.574q-.42-.225-1.022-.224-.713 0-1.232.392a2.4 2.4 0 0 0-.784.966 2.5 2.5 0 0 0-.21.672 4.3 4.3 0 0 0-.056.7q0 .42.056.784.057.35.21.672.266.532.77.896.519.35 1.274.35m4.978.966V65.51h1.148l.056 1.148a2.43 2.43 0 0 1 1.036-.938q.63-.294 1.428-.294h.378v1.12h-.434q-.658 0-1.12.224-.462.21-.756.588a2.5 2.5 0 0 0-.42.868q-.126.504-.126 1.064v3.598zm8.334-7.462q.882 0 1.526.28.643.28 1.078.784.447.504.658 1.204.224.685.224 1.512 0 .826-.224 1.526-.21.686-.658 1.19-.435.49-1.092.77-.658.28-1.54.28-.883 0-1.54-.28a3.2 3.2 0 0 1-1.092-.77 3.4 3.4 0 0 1-.658-1.19 5.3 5.3 0 0 1-.21-1.526q0-.826.21-1.512a3.4 3.4 0 0 1 .658-1.204 3 3 0 0 1 1.12-.784q.672-.28 1.54-.28m-.028 6.496q.601 0 1.036-.21.447-.21.728-.574.294-.378.42-.868.14-.49.14-1.064a3.8 3.8 0 0 0-.14-1.05 2.2 2.2 0 0 0-.42-.868 1.9 1.9 0 0 0-.728-.588q-.435-.21-1.036-.21-.603 0-1.036.21-.435.21-.728.588a2.5 2.5 0 0 0-.42.868 4.2 4.2 0 0 0-.126 1.05q0 .574.126 1.064.14.49.42.868.293.364.728.574.433.21 1.036.21m5.106 3.626V65.51h1.134l.056 1.106a2.38 2.38 0 0 1 1.022-.868q.657-.308 1.414-.322.854 0 1.442.294.601.28.994.798.405.504.602 1.204.196.686.196 1.484 0 .811-.196 1.498a3.35 3.35 0 0 1-.602 1.19 2.9 2.9 0 0 1-1.022.798q-.617.28-1.47.28-.84 0-1.428-.266a2.43 2.43 0 0 1-.952-.742v3.584zm3.472-3.626q.601 0 1.008-.21.42-.224.672-.588.266-.378.378-.868.126-.49.14-1.05 0-.56-.126-1.05a2.3 2.3 0 0 0-.378-.868 1.85 1.85 0 0 0-.7-.574q-.42-.225-1.022-.224-.714 0-1.232.392a2.4 2.4 0 0 0-.784.966 2.4 2.4 0 0 0-.21.672 4 4 0 0 0-.056.7q0 .42.056.784.055.35.21.672.266.532.77.896.518.35 1.274.35m8.225-6.496q.882 0 1.526.28t1.078.784q.448.504.658 1.204.224.685.224 1.512 0 .826-.224 1.526-.21.686-.658 1.19a3 3 0 0 1-1.092.77q-.658.28-1.54.28t-1.54-.28a3.2 3.2 0 0 1-1.092-.77 3.4 3.4 0 0 1-.658-1.19 5.3 5.3 0 0 1-.21-1.526q0-.826.21-1.512.224-.7.658-1.204a3 3 0 0 1 1.12-.784q.672-.28 1.54-.28m-.028 6.496q.602 0 1.036-.21.448-.21.728-.574.294-.378.42-.868.14-.49.14-1.064a3.8 3.8 0 0 0-.14-1.05 2.2 2.2 0 0 0-.42-.868 1.9 1.9 0 0 0-.728-.588q-.434-.21-1.036-.21t-1.036.21-.728.588a2.5 2.5 0 0 0-.42.868 4.2 4.2 0 0 0-.126 1.05q0 .574.126 1.064.14.49.42.868.294.364.728.574t1.036.21m7.738-5.432q-.252 0-.518.042a1.7 1.7 0 0 0-.504.14 1.1 1.1 0 0 0-.42.308q-.168.195-.182.532 0 .475.35.714.364.238.938.35.238.056.518.112.28.042.546.098a6.5 6.5 0 0 1 .938.21q1.344.42 1.344 1.806-.013.672-.294 1.092-.266.405-.686.644-.406.238-.938.336a5.49 5.49 0 0 1-2.058 0 3.2 3.2 0 0 1-.952-.336 2.7 2.7 0 0 1-.728-.644q-.294-.406-.378-1.008h1.204q.112.336.35.532.238.195.504.308.28.112.518.154.252.042.56.042.224 0 .518-.028t.56-.126a1.2 1.2 0 0 0 .448-.322q.182-.21.182-.588 0-.42-.28-.63-.266-.21-.742-.308a13 13 0 0 0-.7-.126l-.714-.14a15 15 0 0 1-.686-.182 3 3 0 0 1-.63-.294 1.8 1.8 0 0 1-.63-.644q-.238-.406-.238-.994.028-.616.28-1.008.252-.405.644-.658.42-.252.896-.35a5 5 0 0 1 1.008-.098q1.134 0 1.806.49.407.28.63.672t.28.826h-1.106q-.098-.405-.532-.658-.434-.252-1.106-.266m9.349 5.46q-.237.322-.546.518-.308.195-.644.308a3.2 3.2 0 0 1-.658.154 5 5 0 0 1-.644.042q-.518 0-.98-.126a2.5 2.5 0 0 1-.84-.406 2.2 2.2 0 0 1-.588-.7 2.1 2.1 0 0 1-.21-.952q0-.63.224-1.05a2 2 0 0 1 .63-.7q.393-.266.896-.364.519-.112 1.092-.112h2.17q0-.938-.406-1.484-.406-.56-1.372-.588-.588 0-1.036.196-.448.195-.616.644h-1.274q.099-.504.392-.854.294-.364.7-.588.406-.238.882-.35.477-.112.952-.112.826 0 1.386.28.575.266.924.714.35.434.49 1.064t.14 1.414v3.99h-.994zm-1.4-2.394q-.336 0-.784.014a4 4 0 0 0-.84.084q-.406.084-.658.35-.238.265-.238.7 0 .323.126.546t.336.378q.225.154.504.224.28.07.574.07 1.05 0 1.652-.504.617-.518.63-1.498v-.364zm4.308 3.332V62.99h1.19v9.898zm5.898.98h14v-14h-14zM258.97 94.333h-1.16v-7.56h-1.92v-.786q.4-.027.733-.067.334-.053.614-.173t.506-.32q.227-.2.414-.52h.813zm5.31.107q-.56 0-1.133-.107a3.9 3.9 0 0 1-1.053-.36 2.8 2.8 0 0 1-.827-.693q-.333-.427-.427-1.053h1.2q.12.346.36.573.254.213.56.347.32.132.667.186.346.054.667.054.293 0 .666-.054.373-.052.694-.226a1.4 1.4 0 0 0 .546-.507q.228-.346.227-.907 0-.533-.213-.853a1.36 1.36 0 0 0-.534-.493 2.1 2.1 0 0 0-.733-.227 6 6 0 0 0-.813-.053h-.907v-1.04h.547q.36 0 .666-.014.308-.026.68-.186a1.7 1.7 0 0 0 .68-.56q.253-.374.267-.854 0-.48-.16-.786a1.25 1.25 0 0 0-.427-.48 1.5 1.5 0 0 0-.6-.227 3.5 3.5 0 0 0-.68-.067 2.8 2.8 0 0 0-.586.067 2 2 0 0 0-.56.187 1.6 1.6 0 0 0-.454.36 1.2 1.2 0 0 0-.28.52h-1.16q.08-.587.374-1 .292-.414.72-.68a3.2 3.2 0 0 1 .96-.387q.533-.12 1.08-.12.6 0 1.12.133.533.12.933.414.4.28.627.746.24.467.24 1.134 0 .252-.054.546a2 2 0 0 1-.2.56q-.146.28-.426.56a2.2 2.2 0 0 1-.734.467q.894.173 1.36.787.468.6.467 1.453v.053q0 .734-.267 1.267a2.4 2.4 0 0 1-.706.867 3.1 3.1 0 0 1-1.067.493q-.613.16-1.307.16m5.782-7.853a.76.76 0 0 1 .56.226q.24.227.24.574a.77.77 0 0 1-.8.8.78.78 0 0 1-.573-.227.8.8 0 0 1-.214-.573q0-.347.214-.574a.78.78 0 0 1 .573-.226m0 4.746a.76.76 0 0 1 .56.227q.24.226.24.573 0 .346-.24.574a.76.76 0 0 1-.56.226.78.78 0 0 1-.573-.226.8.8 0 0 1-.214-.574q0-.346.214-.573a.78.78 0 0 1 .573-.227m5.573 3.107q-.561 0-1.134-.107a3.9 3.9 0 0 1-1.053-.36 2.8 2.8 0 0 1-.827-.693q-.333-.427-.426-1.053h1.2q.12.346.36.573.252.213.56.347.32.132.666.186a4.4 4.4 0 0 0 .667.054q.293 0 .667-.054.373-.052.693-.226a1.43 1.43 0 0 0 .547-.507q.226-.346.226-.907 0-.533-.213-.853a1.35 1.35 0 0 0-.533-.493 2.1 2.1 0 0 0-.734-.227 6 6 0 0 0-.813-.053h-.907v-1.04h.547q.36 0 .667-.014.306-.026.68-.186.426-.2.68-.56.252-.374.266-.854 0-.48-.16-.786a1.24 1.24 0 0 0-.426-.48 1.5 1.5 0 0 0-.6-.227 3.5 3.5 0 0 0-.68-.067q-.28 0-.587.067a2 2 0 0 0-.56.187q-.253.133-.453.36a1.2 1.2 0 0 0-.28.52h-1.16q.08-.587.373-1 .292-.414.72-.68a3.2 3.2 0 0 1 .96-.387q.533-.12 1.08-.12.6 0 1.12.133.533.12.933.414.4.28.627.746.24.467.24 1.134 0 .252-.053.546a2 2 0 0 1-.2.56q-.147.28-.427.56a2.2 2.2 0 0 1-.733.467q.892.173 1.36.787.466.6.466 1.453v.053q0 .734-.266 1.267a2.4 2.4 0 0 1-.707.867 3.1 3.1 0 0 1-1.067.493q-.613.16-1.306.16m5.995-4.787q.453-.693 1.146-1.013.694-.32 1.467-.32.72 0 1.267.227.56.225.96.613.4.387.626.933.227.548.227 1.214 0 .705-.24 1.28-.24.572-.667.986a2.95 2.95 0 0 1-1.026.64 3.5 3.5 0 0 1-1.28.227q-.987 0-1.667-.347a3.2 3.2 0 0 1-1.107-.946 4.1 4.1 0 0 1-.626-1.387 7.6 7.6 0 0 1-.2-1.653q0-1.08.16-1.96a5.1 5.1 0 0 1 .573-1.627 3.56 3.56 0 0 1 1.16-1.227q.733-.493 1.867-.493.506 0 .973.133.467.134.853.4.387.255.68.64.294.387.454.88h-1.214a1.6 1.6 0 0 0-.733-.746 2.2 2.2 0 0 0-1.027-.254q-.76 0-1.266.36a2.7 2.7 0 0 0-.814.92 4.6 4.6 0 0 0-.426 1.24q-.12.667-.12 1.28m4.506 1.774q0-.44-.146-.8a1.85 1.85 0 0 0-.414-.64 1.64 1.64 0 0 0-.626-.427 2.05 2.05 0 0 0-.814-.16q-.426 0-.813.147a2 2 0 0 0-.667.4 2 2 0 0 0-.48.626 1.95 1.95 0 0 0-.173.827 1.9 1.9 0 0 0 .6 1.413q.28.267.653.427.387.147.827.147t.813-.147q.387-.16.654-.413.28-.267.426-.627.16-.36.16-.773"/><rect width="234.889" height="105.222" x="74" y="117" fill="#E3F8FE" rx="8.889"/><path fill="#191919" d="M93.093 130.985q-.392 0-.798.07-.391.069-.714.252a1.44 1.44 0 0 0-.532.476q-.195.294-.196.756 0 .56.294.91.294.335.714.518.336.14.714.238t.77.182q.406.084.784.168.393.084.756.21.855.294 1.358.84.519.546.518 1.442 0 .84-.294 1.386a2.5 2.5 0 0 1-.77.896q-.475.35-1.12.518a5.7 5.7 0 0 1-1.344.154 6.6 6.6 0 0 1-1.372-.14 3.9 3.9 0 0 1-1.176-.462 3.1 3.1 0 0 1-.91-.84q-.378-.519-.532-1.26h1.274q.14.475.434.784.294.307.672.49.378.181.812.252.449.07.882.07.42 0 .812-.084.406-.099.714-.294.309-.197.49-.504.182-.309.182-.742 0-.659-.35-.98-.35-.322-.938-.49a7 7 0 0 0-.826-.21q-.433-.084-.868-.182-.434-.099-.854-.224a5.4 5.4 0 0 1-.77-.322 2.4 2.4 0 0 1-.938-.812q-.378-.56-.378-1.4 0-.785.308-1.316.309-.533.798-.854a3.3 3.3 0 0 1 1.092-.462q.617-.14 1.302-.14.561.014 1.008.098.463.07.868.266.63.279 1.05.84t.462 1.442h-1.19a1.6 1.6 0 0 0-.266-.728 1.6 1.6 0 0 0-.49-.476 1.9 1.9 0 0 0-.672-.252 3.4 3.4 0 0 0-.77-.084m8.503 7.938q1.008 0 1.47-.602.476-.616.476-1.708v-4.102h1.19v4.158q0 1.68-.812 2.492-.798.812-2.324.812t-2.324-.812q-.784-.812-.784-2.492v-4.158h1.19v4.102q0 1.092.476 1.708.476.602 1.442.602m4.987.966v-7.378h1.148l.056 1.148q.405-.644 1.036-.938.63-.294 1.428-.294h.378v1.12h-.434q-.658 0-1.12.224-.462.21-.756.588a2.5 2.5 0 0 0-.42.868q-.126.504-.126 1.064v3.598zm6.009-3.248q.043.49.196.91.168.405.448.714.28.307.686.49.42.168.966.168.267 0 .546-.042.294-.057.546-.168.252-.126.448-.322.197-.197.294-.476h1.218a2.35 2.35 0 0 1-.434.924 2.5 2.5 0 0 1-.714.644q-.405.252-.91.378a4.7 4.7 0 0 1-1.022.112q-.882 0-1.54-.28a3.05 3.05 0 0 1-1.078-.77 3.3 3.3 0 0 1-.644-1.19 5.3 5.3 0 0 1-.21-1.526q0-.827.224-1.512.238-.7.672-1.204a3 3 0 0 1 1.064-.784q.63-.28 1.498-.28.882 0 1.526.35.645.35 1.036.924.393.56.546 1.218.168.657.14 1.218 0 .126-.014.252 0 .126-.014.252zm4.298-1.036q-.027-.938-.588-1.526t-1.498-.588q-.517 0-.91.168-.391.168-.658.462a2.2 2.2 0 0 0-.42.686 2.9 2.9 0 0 0-.196.798zm3.658 4.312a.94.94 0 0 1-.588-.238.73.73 0 0 1-.224-.56q.014-.364.252-.574a.84.84 0 0 1 .574-.224q.406 0 .644.294.252.294.252.826 0 .293-.126.644a2.5 2.5 0 0 1-.308.658 2.5 2.5 0 0 1-.462.518 1.6 1.6 0 0 1-.532.322l-.336-.462q.28-.196.518-.532.252-.336.336-.672m6.146-.028v-9.898h1.19v3.654q.181-.28.462-.518a3 3 0 0 1 .588-.392q.308-.155.672-.224.378-.084.728-.084.798 0 1.33.266.546.252.868.714.336.447.462 1.078.14.615.14 1.344v4.06h-1.19v-3.696q0-.504-.056-.98a2.5 2.5 0 0 0-.252-.868 1.6 1.6 0 0 0-.56-.616q-.364-.252-.994-.252-.517 0-.966.266a2.1 2.1 0 0 0-.7.644 2.44 2.44 0 0 0-.434.966 6 6 0 0 0-.098 1.092v3.444zm9.195-3.248q.042.49.196.91.168.405.448.714.28.307.686.49.42.168.966.168.267 0 .546-.042.294-.057.546-.168.252-.126.448-.322.196-.197.294-.476h1.218a2.35 2.35 0 0 1-.434.924 2.5 2.5 0 0 1-.714.644q-.406.252-.91.378a4.7 4.7 0 0 1-1.022.112q-.882 0-1.54-.28a3.05 3.05 0 0 1-1.078-.77 3.3 3.3 0 0 1-.644-1.19 5.3 5.3 0 0 1-.21-1.526q0-.827.224-1.512.238-.7.672-1.204a3 3 0 0 1 1.064-.784q.63-.28 1.498-.28.882 0 1.526.35.645.35 1.036.924.393.56.546 1.218.168.657.14 1.218 0 .126-.014.252 0 .126-.014.252zm4.298-1.036q-.027-.938-.588-1.526t-1.498-.588q-.517 0-.91.168-.391.168-.658.462a2.2 2.2 0 0 0-.42.686 2.9 2.9 0 0 0-.196.798zm2.804 4.284v-7.378h1.148l.056 1.148q.406-.644 1.036-.938t1.428-.294h.378v1.12h-.434q-.658 0-1.12.224-.462.21-.756.588a2.5 2.5 0 0 0-.42.868q-.126.504-.126 1.064v3.598zm6.01-3.248q.042.49.196.91.168.405.448.714.28.307.686.49.42.168.966.168.266 0 .546-.042.294-.057.546-.168.252-.126.448-.322.195-.197.294-.476h1.218a2.4 2.4 0 0 1-.434.924 2.5 2.5 0 0 1-.714.644 3.2 3.2 0 0 1-.91.378 4.7 4.7 0 0 1-1.022.112q-.883 0-1.54-.28a3 3 0 0 1-1.078-.77 3.3 3.3 0 0 1-.644-1.19 5.3 5.3 0 0 1-.21-1.526q0-.827.224-1.512a3.6 3.6 0 0 1 .672-1.204 3 3 0 0 1 1.064-.784q.63-.28 1.498-.28.882 0 1.526.35a2.9 2.9 0 0 1 1.036.924q.392.56.546 1.218.167.657.14 1.218 0 .126-.014.252 0 .126-.014.252zm4.298-1.036q-.028-.938-.588-1.526t-1.498-.588a2.3 2.3 0 0 0-.91.168 1.85 1.85 0 0 0-.658.462 2.2 2.2 0 0 0-.42.686 2.9 2.9 0 0 0-.196.798zm13.059-3.094v7.378q0 1.61-.84 2.45-.84.854-2.394.854a6 6 0 0 1-1.694-.252 3.5 3.5 0 0 1-1.372-.812l.518-.938q.546.434 1.162.686.63.252 1.315.252.575 0 .981-.182.406-.168.658-.49.265-.309.378-.742.126-.434.126-.938v-.882a2.2 2.2 0 0 1-.462.504q-.267.21-.588.35a3 3 0 0 1-.672.182q-.351.07-.714.07-.84-.014-1.4-.266a2.3 2.3 0 0 1-.882-.7 2.9 2.9 0 0 1-.462-1.064 6.4 6.4 0 0 1-.14-1.386v-4.074h1.19v3.738q0 .504.056.994.07.49.266.868.195.378.574.616.378.224 1.008.224t1.064-.266q.447-.267.686-.672.266-.42.35-.924.098-.505.098-1.036v-3.542zm5.119-.084q.882 0 1.526.28t1.078.784q.448.504.658 1.204.224.685.224 1.512 0 .825-.224 1.526-.21.686-.658 1.19a3 3 0 0 1-1.092.77q-.658.28-1.54.28t-1.54-.28a3.2 3.2 0 0 1-1.092-.77 3.4 3.4 0 0 1-.658-1.19 5.3 5.3 0 0 1-.21-1.526q0-.827.21-1.512.224-.7.658-1.204a3 3 0 0 1 1.12-.784q.672-.28 1.54-.28m-.028 6.496q.602 0 1.036-.21.448-.21.728-.574.294-.379.42-.868.14-.49.14-1.064 0-.561-.14-1.05a2.2 2.2 0 0 0-.42-.868 1.9 1.9 0 0 0-.728-.588q-.434-.21-1.036-.21t-1.036.21-.728.588a2.5 2.5 0 0 0-.42.868 4.2 4.2 0 0 0-.126 1.05q0 .573.126 1.064.14.49.42.868.294.363.728.574t1.036.21m8.186 0q1.008 0 1.47-.602.476-.616.476-1.708v-4.102h1.19v4.158q0 1.68-.812 2.492-.798.812-2.324.812t-2.324-.812q-.784-.812-.784-2.492v-4.158h1.19v4.102q0 1.092.476 1.708.477.602 1.442.602m15.34.91q0 1.567-.84 2.464-.84.896-2.534.896-.56 0-1.078-.126a3 3 0 0 1-.924-.406 2.6 2.6 0 0 1-.7-.686 2.6 2.6 0 0 1-.392-.98h1.232q.084.322.28.532.21.224.476.35.266.14.574.196t.602.056q.56 0 .966-.182.406-.168.658-.476.252-.309.364-.742.126-.42.126-.924v-1.022a2.1 2.1 0 0 1-1.036.924 3.8 3.8 0 0 1-1.4.266q-.84-.015-1.456-.294a2.75 2.75 0 0 1-1.008-.798 3.5 3.5 0 0 1-.588-1.176 5.8 5.8 0 0 1-.182-1.484q0-.798.196-1.484.196-.7.602-1.204a2.8 2.8 0 0 1 1.022-.812q.617-.294 1.47-.294.643 0 1.302.238.658.237 1.078.77l.056-.924h1.134zm-3.472-6.342q-.602 0-1.022.224-.42.21-.686.574a2.6 2.6 0 0 0-.378.868 4.7 4.7 0 0 0-.112 1.05q0 .615.112 1.092.113.462.378.826.266.363.686.588.42.21 1.036.21.714 0 1.176-.336t.742-.84a2.6 2.6 0 0 0 .28-.756 4.2 4.2 0 0 0 .084-.826q0-.504-.098-.924a2.2 2.2 0 0 0-.322-.784 2.4 2.4 0 0 0-.742-.686q-.462-.28-1.134-.28m8.589-1.064q.882 0 1.526.28.645.28 1.078.784.448.504.658 1.204.225.685.224 1.512 0 .825-.224 1.526-.21.686-.658 1.19a3 3 0 0 1-1.092.77q-.657.28-1.54.28-.882 0-1.54-.28a3.2 3.2 0 0 1-1.092-.77 3.5 3.5 0 0 1-.658-1.19 5.3 5.3 0 0 1-.21-1.526q0-.827.21-1.512.225-.7.658-1.204a3 3 0 0 1 1.12-.784q.672-.28 1.54-.28m-.028 6.496q.603 0 1.036-.21.449-.21.728-.574.294-.379.42-.868a3.8 3.8 0 0 0 .14-1.064q0-.561-.14-1.05a2.2 2.2 0 0 0-.42-.868 1.9 1.9 0 0 0-.728-.588q-.433-.21-1.036-.21-.601 0-1.036.21-.434.21-.728.588a2.5 2.5 0 0 0-.42.868 4.2 4.2 0 0 0-.126 1.05q0 .573.126 1.064.141.49.42.868.294.363.728.574.435.21 1.036.21"/><ellipse cx="104.5" cy="167" fill="#00C6FD" rx="16.5" ry="16"/><path stroke="#fff" stroke-linecap="round" stroke-linejoin="round" stroke-width="2" d="m105 173 6-6m-6 6-6-6m6 6v-14"/><path fill="#191919" d="M128.217 164.889h-1.624v-9.898h1.624zm2.02 0v-7.378h1.526l.084 1.022a2.5 2.5 0 0 1 1.008-.854 3 3 0 0 1 1.302-.294q.784 0 1.316.266.546.266.882.728.35.462.49 1.092.154.63.154 1.372v4.046h-1.596v-3.808q0-.477-.07-.882a1.9 1.9 0 0 0-.238-.714 1.3 1.3 0 0 0-.518-.504q-.322-.183-.84-.182a1.74 1.74 0 0 0-1.512.854 3 3 0 0 0-.308.84 5 5 0 0 0-.084.882v3.514zm7.609-7.378h1.764l2.044 5.852 2.03-5.852h1.764l-2.772 7.378h-2.058zm9.813 4.228q.027.405.168.756.14.35.378.616.251.252.602.406.363.154.84.154.504 0 .924-.182a1.17 1.17 0 0 0 .616-.63h1.638a2.5 2.5 0 0 1-.462.966 2.7 2.7 0 0 1-.742.672q-.42.252-.938.378a5 5 0 0 1-1.078.112q-.882 0-1.554-.266a2.9 2.9 0 0 1-1.106-.77 3.3 3.3 0 0 1-.672-1.19q-.21-.7-.21-1.568 0-.84.238-1.526a3.45 3.45 0 0 1 .686-1.204 3.2 3.2 0 0 1 1.106-.784q.643-.294 1.47-.294.868 0 1.498.294.63.28 1.05.77.434.49.644 1.148t.21 1.428q0 .363-.042.714zm3.752-1.204q-.028-.84-.532-1.302t-1.302-.462q-.448 0-.784.14a1.7 1.7 0 0 0-.574.378 1.9 1.9 0 0 0-.364.56 2.4 2.4 0 0 0-.182.686zm5.7-1.82q-.21 0-.448.028a1.4 1.4 0 0 0-.434.126.9.9 0 0 0-.336.252.7.7 0 0 0-.126.434q0 .294.196.462.21.168.49.28.28.097.588.168.322.056.546.098.602.125 1.078.266.49.14.826.378.336.224.518.588.196.363.196.952 0 .63-.266 1.064a2 2 0 0 1-.672.7 2.9 2.9 0 0 1-.938.364 5 5 0 0 1-1.078.112 5.5 5.5 0 0 1-1.106-.112 3.4 3.4 0 0 1-1.008-.378 2.5 2.5 0 0 1-.756-.7 2.4 2.4 0 0 1-.364-1.078h1.61q.056.279.238.462.182.181.42.294.252.112.518.154t.49.042q.168 0 .406-.028.252-.029.462-.126.21-.099.35-.252a.6.6 0 0 0 .154-.42.65.65 0 0 0-.112-.392.9.9 0 0 0-.308-.28 1.4 1.4 0 0 0-.448-.168 20 20 0 0 0-.56-.14 19 19 0 0 1-.994-.21 6.4 6.4 0 0 1-.98-.322 1.9 1.9 0 0 1-.742-.616q-.294-.406-.294-1.036 0-.672.266-1.106t.686-.7q.42-.28.938-.378a4.8 4.8 0 0 1 1.022-.112q1.218 0 1.988.56.784.56.854 1.624h-1.498a.78.78 0 0 0-.462-.63 2.2 2.2 0 0 0-.91-.224m6.524-1.204h1.862v1.386h-1.862v3.374q0 .63.224.938t.854.308h.728v1.372h-.868q-1.359 0-1.946-.56-.574-.56-.574-1.834v-3.598h-1.162v-1.386h1.162v-2.086h1.582zm4.591 0q.014.111.014.224l.042.434q.014.111.014.224.77-1.036 2.016-1.036.785 0 1.26.322.476.321.742.854.434-.574.98-.868.56-.308 1.302-.308.63 0 1.078.21.462.21.728.588.28.378.406.882.126.489.126 1.05v4.802h-1.596v-4.214q0-.336-.042-.672a1.8 1.8 0 0 0-.182-.602 1.04 1.04 0 0 0-.378-.448q-.252-.183-.672-.182-.448 0-.742.224-.28.21-.448.518a2.3 2.3 0 0 0-.21.7 5 5 0 0 0-.056.756v3.92h-1.582v-4.242q0-.323-.042-.644a1.7 1.7 0 0 0-.154-.602 1.15 1.15 0 0 0-.378-.448q-.238-.183-.672-.182-.448 0-.756.224-.294.224-.462.56a2.2 2.2 0 0 0-.224.714 5 5 0 0 0-.056.7v3.92H166.7v-7.378zm11.685 4.228q.027.405.168.756.14.35.378.616.251.252.602.406.363.154.84.154.504 0 .924-.182a1.17 1.17 0 0 0 .616-.63h1.638a2.5 2.5 0 0 1-.462.966 2.7 2.7 0 0 1-.742.672q-.42.252-.938.378a5 5 0 0 1-1.078.112q-.882 0-1.554-.266a2.9 2.9 0 0 1-1.106-.77 3.3 3.3 0 0 1-.672-1.19q-.21-.7-.21-1.568 0-.84.238-1.526a3.45 3.45 0 0 1 .686-1.204 3.2 3.2 0 0 1 1.106-.784q.643-.294 1.47-.294.868 0 1.498.294.63.28 1.05.77.434.49.644 1.148t.21 1.428q0 .363-.042.714zm3.752-1.204q-.028-.84-.532-1.302t-1.302-.462q-.448 0-.784.14a1.7 1.7 0 0 0-.574.378 1.9 1.9 0 0 0-.364.56 2.4 2.4 0 0 0-.182.686zm2.998 4.354v-7.378h1.526l.084 1.022a2.5 2.5 0 0 1 1.008-.854 3 3 0 0 1 1.302-.294q.784 0 1.316.266.546.266.882.728.35.462.49 1.092.154.63.154 1.372v4.046h-1.596v-3.808q0-.477-.07-.882a1.9 1.9 0 0 0-.238-.714 1.3 1.3 0 0 0-.518-.504q-.323-.183-.84-.182a1.74 1.74 0 0 0-1.512.854 3 3 0 0 0-.308.84 5 5 0 0 0-.084.882v3.514zm10.661-7.378h2.212v1.386h-2.212v3.248a5 5 0 0 0 .028.532q.042.252.14.462.113.195.308.322.196.126.532.126.588 0 1.008-.35l.532 1.19a2.6 2.6 0 0 1-.84.42q-.476.126-.938.126-1.203 0-1.778-.602-.574-.616-.574-1.918v-3.556h-1.162v-1.386h1.162v-2.1h1.582zm7.331 7.378v-7.378h1.498l.084 1.05q.854-1.176 2.324-1.176.14 0 .266.014.14 0 .252.014v1.484q-.168 0-.336.014h-.308q-.616.014-1.036.224-.406.195-.672.532-.252.336-.364.798a4 4 0 0 0-.112.966v3.458zm6.635-3.15q.027.405.168.756.14.35.378.616.252.252.602.406.363.154.84.154.504 0 .924-.182a1.17 1.17 0 0 0 .616-.63h1.638a2.5 2.5 0 0 1-.462.966 2.7 2.7 0 0 1-.742.672q-.42.252-.938.378a5 5 0 0 1-1.078.112q-.882 0-1.554-.266a2.9 2.9 0 0 1-1.106-.77 3.3 3.3 0 0 1-.672-1.19q-.21-.7-.21-1.568 0-.84.238-1.526a3.45 3.45 0 0 1 .686-1.204 3.2 3.2 0 0 1 1.106-.784q.643-.294 1.47-.294.868 0 1.498.294.63.28 1.05.77.434.49.644 1.148t.21 1.428q0 .363-.042.714zm3.752-1.204q-.028-.84-.532-1.302t-1.302-.462q-.448 0-.784.14a1.7 1.7 0 0 0-.574.378 1.9 1.9 0 0 0-.364.56 2.4 2.4 0 0 0-.182.686zm2.998 7.224v-10.248h1.512l.084 1.05a2.76 2.76 0 0 1 1.064-.882q.63-.294 1.358-.294.756 0 1.358.28.602.266 1.022.756.434.49.644 1.19.224.686.224 1.568 0 .825-.21 1.526-.21.699-.63 1.218a2.76 2.76 0 0 1-1.022.784q-.602.28-1.414.28-.7 0-1.33-.21a2.8 2.8 0 0 1-1.064-.686v3.668zm3.682-4.158q.518 0 .896-.182.378-.197.616-.518.252-.322.364-.756.126-.434.126-.938a3.4 3.4 0 0 0-.126-.938 2 2 0 0 0-.364-.77 1.6 1.6 0 0 0-.63-.504q-.378-.183-.91-.182a1.9 1.9 0 0 0-.896.196q-.378.195-.644.518a2.2 2.2 0 0 0-.406.77 3.2 3.2 0 0 0-.126.896q0 1.021.532 1.708.532.685 1.568.7m8.359-6.216q.882 0 1.554.28t1.134.784q.476.49.714 1.19.237.699.238 1.554 0 .867-.238 1.568-.225.686-.686 1.19a3 3 0 0 1-1.148.77q-.672.266-1.568.266-.882 0-1.554-.266a3.3 3.3 0 0 1-1.134-.77 3.5 3.5 0 0 1-.686-1.204 5 5 0 0 1-.224-1.554q0-.855.224-1.554a3.2 3.2 0 0 1 1.834-1.974q.672-.28 1.54-.28m0 6.216q.546 0 .924-.182.392-.197.63-.518.252-.322.364-.756.126-.434.126-.938a3.4 3.4 0 0 0-.126-.938 2 2 0 0 0-.364-.77 1.6 1.6 0 0 0-.63-.504q-.378-.183-.924-.182-.532 0-.91.182a1.75 1.75 0 0 0-.63.504 2.2 2.2 0 0 0-.378.77 3.7 3.7 0 0 0-.112.938q0 .504.112.938.126.434.364.756.252.321.63.518.392.182.924.182m5.09 1.288v-7.378h1.498l.084 1.05q.854-1.176 2.324-1.176.14 0 .266.014.14 0 .252.014v1.484q-.168 0-.336.014h-.308q-.616.014-1.036.224-.406.195-.672.532a2.15 2.15 0 0 0-.364.798 4 4 0 0 0-.112.966v3.458zm8.091-7.378h1.862v1.386h-1.862v3.374q0 .63.224.938t.854.308h.728v1.372h-.868q-1.359 0-1.946-.56-.574-.56-.574-1.834v-3.598h-1.162v-1.386h1.162v-2.086h1.582zm2.085 8.246h6.426v1.358h-6.426zm7.467-10.766h3.584q1.176 0 2.072.35a3.85 3.85 0 0 1 1.512.98q.616.63.924 1.554t.308 2.072q0 1.161-.308 2.072a4.2 4.2 0 0 1-.91 1.554 3.76 3.76 0 0 1-1.484.98q-.882.336-2.058.336h-3.64zm1.624 1.456v7h1.974q.812 0 1.4-.252t.966-.7q.392-.462.574-1.106.196-.644.196-1.442 0-1.653-.812-2.576-.798-.924-2.338-.924zm11.488 7.154q.924 0 1.316-.518.392-.519.392-1.47v-4.102h1.582v4.158q0 .924-.252 1.568-.252.63-.686 1.022a2.8 2.8 0 0 1-1.036.56q-.587.168-1.316.168-1.54 0-2.408-.798-.854-.798-.854-2.52v-4.158h1.582v4.102q0 .951.406 1.47.42.504 1.274.518m4.997 1.288v-9.898h1.596v3.556q.405-.56 1.064-.854a3.2 3.2 0 0 1 1.358-.308q.77 0 1.372.28a2.8 2.8 0 0 1 1.022.77q.42.49.63 1.19.224.685.224 1.554 0 .798-.196 1.498a3.5 3.5 0 0 1-.602 1.204 2.8 2.8 0 0 1-1.022.812q-.603.294-1.428.294-1.582 0-2.422-1.022l-.028.462v.462zm3.682-1.288q.518 0 .896-.182.378-.197.616-.518.252-.322.364-.756.126-.434.126-.938a3.4 3.4 0 0 0-.126-.938 2 2 0 0 0-.364-.77 1.6 1.6 0 0 0-.63-.504q-.379-.183-.91-.182-.546 0-.938.21-.378.21-.63.56-.252.335-.378.77a3 3 0 0 0-.126.868q0 .475.126.91.126.42.378.742t.644.532q.391.196.952.196m9.8.378a2.2 2.2 0 0 1-.966.77 3.6 3.6 0 0 1-1.344.238 4 4 0 0 1-1.078-.14 2.6 2.6 0 0 1-.84-.42 2.14 2.14 0 0 1-.574-.714q-.21-.434-.21-.98 0-.602.238-1.022.239-.435.644-.7.42-.266.98-.392.561-.14 1.176-.14h1.89q0-.813-.364-1.26-.363-.448-1.274-.462-.531 0-.924.182a.93.93 0 0 0-.504.602h-1.638q.084-.589.378-.994.308-.406.728-.672.435-.267.952-.378.533-.112 1.064-.112.687 0 1.274.182.588.181 1.022.616.49.504.658 1.204t.168 1.526v3.976h-1.386zm-.084-2.366h-1.54q-.405 0-.812.07-.406.055-.7.294-.28.223-.28.658 0 .531.378.812.393.266.952.266.435 0 .798-.112a1.6 1.6 0 0 0 .644-.364 1.74 1.74 0 0 0 .406-.658 2.7 2.7 0 0 0 .154-.966m4.164-7.168q.434 0 .714.266.294.266.294.728 0 .447-.294.714a1 1 0 0 1-.714.266q-.462 0-.742-.266-.28-.267-.28-.714 0-.462.28-.728.28-.267.742-.266m-.812 10.444v-7.378h1.596v7.378zm-161.078 18v-9.898h2.044l2.954 5.068 2.926-5.068h1.988v9.898h-1.61v-7.714l-2.982 5.138h-.728l-2.982-5.138v7.714zm16.689-.91a2.2 2.2 0 0 1-.966.77 3.6 3.6 0 0 1-1.344.238 4 4 0 0 1-1.078-.14 2.6 2.6 0 0 1-.84-.42 2.14 2.14 0 0 1-.574-.714q-.21-.434-.21-.98 0-.602.238-1.022.239-.435.644-.7.42-.266.98-.392.561-.14 1.176-.14h1.89q0-.813-.364-1.26-.363-.448-1.274-.462-.531 0-.924.182a.93.93 0 0 0-.504.602h-1.638q.084-.589.378-.994.308-.407.728-.672.435-.267.952-.378.533-.112 1.064-.112.686 0 1.274.182.588.181 1.022.616.49.504.658 1.204t.168 1.526v3.976h-1.386zm-.084-2.366h-1.54q-.405 0-.812.07-.406.055-.7.294-.28.223-.28.658 0 .531.378.812.393.266.952.266.435 0 .798-.112a1.6 1.6 0 0 0 .644-.364 1.74 1.74 0 0 0 .406-.658 2.7 2.7 0 0 0 .154-.966m3.254 3.276v-7.378h1.498l.084 1.05q.854-1.176 2.324-1.176.14 0 .266.014.14 0 .252.014v1.484q-.168 0-.336.014h-.308q-.616.014-1.036.224-.406.195-.672.532-.252.336-.364.798a4 4 0 0 0-.112.966v3.458zm6.365-10.444q.433 0 .714.266.294.266.294.728 0 .447-.294.714a1 1 0 0 1-.714.266q-.462 0-.742-.266-.28-.267-.28-.714 0-.462.28-.728.28-.267.742-.266m-.812 10.444v-7.378h1.596v7.378zm3.443 0v-7.378h1.526l.084 1.022a2.5 2.5 0 0 1 1.008-.854 3 3 0 0 1 1.302-.294q.784 0 1.316.266.546.266.882.728.35.462.49 1.092.154.63.154 1.372v4.046h-1.596v-3.808q0-.477-.07-.882a1.9 1.9 0 0 0-.238-.714 1.3 1.3 0 0 0-.518-.504q-.322-.182-.84-.182a1.74 1.74 0 0 0-1.512.854 3 3 0 0 0-.308.84 5 5 0 0 0-.084.882v3.514zm13.209-.91a2.2 2.2 0 0 1-.966.77 3.6 3.6 0 0 1-1.344.238 4 4 0 0 1-1.078-.14 2.6 2.6 0 0 1-.84-.42 2.14 2.14 0 0 1-.574-.714q-.21-.434-.21-.98 0-.602.238-1.022.239-.435.644-.7.42-.266.98-.392.561-.14 1.176-.14h1.89q0-.813-.364-1.26-.363-.448-1.274-.462-.531 0-.924.182a.93.93 0 0 0-.504.602h-1.638q.084-.589.378-.994.308-.407.728-.672.435-.267.952-.378.533-.112 1.064-.112.686 0 1.274.182.588.181 1.022.616.49.504.658 1.204t.168 1.526v3.976h-1.386zm-.084-2.366h-1.54q-.405 0-.812.07-.406.055-.7.294-.28.223-.28.658 0 .531.378.812.393.266.952.266.435 0 .798-.112a1.6 1.6 0 0 0 .644-.364 1.74 1.74 0 0 0 .406-.658 2.7 2.7 0 0 0 .154-.966m4.276 1.33q.448 0 .728.28.294.279.294.756 0 .489-.294.756-.28.266-.728.266t-.742-.266q-.28-.267-.28-.756 0-.477.28-.756.294-.28.742-.28m2.751 4.816v-10.248h1.512l.084 1.05q.434-.588 1.064-.882t1.358-.294q.756 0 1.358.28.603.266 1.022.756.434.49.644 1.19.224.686.224 1.568 0 .825-.21 1.526-.21.699-.63 1.218-.405.504-1.022.784-.601.28-1.414.28-.7 0-1.33-.21a2.8 2.8 0 0 1-1.064-.686v3.668zm3.682-4.158q.518 0 .896-.182.379-.197.616-.518a2 2 0 0 0 .364-.756q.126-.434.126-.938a3.4 3.4 0 0 0-.126-.938 2 2 0 0 0-.364-.77 1.6 1.6 0 0 0-.63-.504q-.378-.183-.91-.182a1.9 1.9 0 0 0-.896.196q-.378.195-.644.518a2.3 2.3 0 0 0-.406.77 3.2 3.2 0 0 0-.126.896q0 1.021.532 1.708.533.685 1.568.7m12.027 1.288h-1.498l-.084-1.022a2.28 2.28 0 0 1-1.022.84 4 4 0 0 1-1.386.28q-.853-.014-1.47-.308a3.04 3.04 0 0 1-1.022-.812 3.5 3.5 0 0 1-.602-1.19 5.5 5.5 0 0 1-.182-1.428q0-.827.21-1.526.224-.7.658-1.218a3.04 3.04 0 0 1 1.064-.812q.63-.308 1.47-.308.601 0 1.218.196.616.195 1.05.728v-3.318h1.596zm-3.682-6.062q-.532 0-.91.182a1.75 1.75 0 0 0-.63.504 2.2 2.2 0 0 0-.35.77 3.7 3.7 0 0 0-.112.938q0 .504.112.938t.35.756q.252.321.63.518.392.182.938.182.518 0 .896-.196.392-.21.644-.546.266-.336.392-.77a3.2 3.2 0 0 0 .126-.896q0-.49-.126-.924a1.9 1.9 0 0 0-.364-.742 1.7 1.7 0 0 0-.644-.504q-.392-.196-.952-.21m6.105 6.062v-5.992h-1.176v-1.386h1.176v-.868q0-1.233.574-1.806.588-.588 1.876-.588h1.008v1.386h-.91q-.588 0-.784.308t-.196.882v.686h1.89v1.386h-1.89v5.992z"/><rect width="41.333" height="22" x="88.445" y="191.333" fill="#fff" rx="11"/><path fill="#191919" d="M92.445 209.267h13.334v-13.334H92.445z"/><circle cx="118.112" cy="202.333" r="7.667" fill="#AEFFA7"/><path fill="#191919" d="M117.588 205.235v-5.137h-1.908v-.886h4.813v.886h-1.917v5.137zM236.081 206.333h-1.16v-7.56h-1.92v-.786q.4-.027.734-.067.333-.053.613-.173t.507-.32a2.1 2.1 0 0 0 .413-.52h.813zm5.311.107q-.56 0-1.134-.107a3.9 3.9 0 0 1-1.053-.36 2.8 2.8 0 0 1-.827-.693q-.333-.427-.426-1.053h1.2q.12.347.36.573.253.213.56.347.32.133.666.186.347.054.667.054.294 0 .667-.054.373-.053.693-.226.333-.174.547-.507.226-.346.226-.907 0-.533-.213-.853a1.35 1.35 0 0 0-.533-.493 2.1 2.1 0 0 0-.734-.227 6 6 0 0 0-.813-.053h-.907v-1.04h.547q.36 0 .667-.014.306-.027.68-.186.426-.2.68-.56.253-.374.266-.854 0-.48-.16-.786a1.24 1.24 0 0 0-.426-.48 1.5 1.5 0 0 0-.6-.227 3.4 3.4 0 0 0-.68-.067q-.28 0-.587.067a2 2 0 0 0-.56.187q-.254.132-.453.36a1.17 1.17 0 0 0-.28.52h-1.16a2.2 2.2 0 0 1 .373-1q.294-.414.72-.68.44-.267.96-.387.534-.12 1.08-.12.6 0 1.12.133.534.12.933.414.4.28.627.746.24.467.24 1.134 0 .253-.053.546a2 2 0 0 1-.2.56q-.147.28-.427.56a2.2 2.2 0 0 1-.733.467q.893.173 1.36.787.466.6.466 1.453v.053q0 .733-.266 1.267a2.4 2.4 0 0 1-.707.867 3.1 3.1 0 0 1-1.067.493q-.613.16-1.306.16m5.781-7.853a.76.76 0 0 1 .56.226q.24.226.24.574 0 .36-.24.586a.79.79 0 0 1-.56.214.78.78 0 0 1-.573-.227.8.8 0 0 1-.213-.573q0-.348.213-.574a.78.78 0 0 1 .573-.226m0 4.746a.76.76 0 0 1 .56.227q.24.226.24.573 0 .346-.24.574a.76.76 0 0 1-.56.226.78.78 0 0 1-.573-.226.8.8 0 0 1-.213-.574q0-.347.213-.573a.78.78 0 0 1 .573-.227m5.573 3.107q-.56 0-1.133-.107a3.9 3.9 0 0 1-1.054-.36 2.8 2.8 0 0 1-.826-.693q-.334-.427-.427-1.053h1.2q.12.347.36.573.253.213.56.347.32.133.667.186.346.054.666.054.294 0 .667-.054.373-.053.693-.226.333-.174.547-.507.227-.346.227-.907 0-.533-.214-.853a1.35 1.35 0 0 0-.533-.493 2.1 2.1 0 0 0-.733-.227 6 6 0 0 0-.814-.053h-.906v-1.04h.546q.36 0 .667-.014.306-.027.68-.186.426-.2.68-.56.254-.374.267-.854 0-.48-.16-.786a1.24 1.24 0 0 0-.427-.48 1.5 1.5 0 0 0-.6-.227 3.4 3.4 0 0 0-.68-.067q-.28 0-.587.067a2 2 0 0 0-.56.187q-.254.132-.453.36a1.2 1.2 0 0 0-.28.52h-1.16q.08-.588.373-1 .294-.414.72-.68.441-.267.96-.387.534-.12 1.08-.12.6 0 1.12.133.534.12.934.414.4.28.626.746.24.467.24 1.134 0 .253-.053.546a2 2 0 0 1-.2.56q-.147.28-.427.56a2.2 2.2 0 0 1-.733.467q.893.173 1.36.787.467.6.467 1.453v.053q0 .733-.267 1.267a2.4 2.4 0 0 1-.707.867 3.1 3.1 0 0 1-1.066.493 5.2 5.2 0 0 1-1.307.16m5.995-4.787q.453-.693 1.147-1.013.693-.32 1.466-.32.72 0 1.267.227.56.226.96.613t.627.933q.226.547.226 1.214 0 .706-.24 1.28-.24.573-.666.986a3 3 0 0 1-1.027.64 3.5 3.5 0 0 1-1.28.227q-.987 0-1.667-.347a3.2 3.2 0 0 1-1.106-.946 4.1 4.1 0 0 1-.627-1.387 7.7 7.7 0 0 1-.2-1.653q0-1.08.16-1.96a5.2 5.2 0 0 1 .573-1.627 3.56 3.56 0 0 1 1.16-1.227q.733-.493 1.867-.493.507 0 .973.133.467.133.854.4.386.253.68.64.293.387.453.88h-1.213a1.6 1.6 0 0 0-.734-.746 2.2 2.2 0 0 0-1.026-.254q-.76 0-1.267.36t-.813.92a4.5 4.5 0 0 0-.427 1.24q-.12.667-.12 1.28m4.507 1.774q0-.44-.147-.8a1.9 1.9 0 0 0-.413-.64 1.64 1.64 0 0 0-.627-.427 2 2 0 0 0-.813-.16q-.427 0-.814.147a1.9 1.9 0 0 0-.666.4 2 2 0 0 0-.48.626 1.9 1.9 0 0 0-.174.827 1.93 1.93 0 0 0 .6 1.413q.28.267.654.427.386.147.826.147t.814-.147q.386-.16.653-.413.28-.267.427-.627.16-.36.16-.773"/><path fill="#3BA7FF" d="m285.262 203.637 1.045 1.046 6.272-6.271 1.047 1.048-7.319 7.318-4.714-4.714 1.048-1.048 1.574 1.574zm.001-2.095 3.668-3.669 1.045 1.045-3.669 3.669zm-2.094 4.189-1.047 1.047-4.714-4.714 1.048-1.048 1.046 1.047v.001z"/></svg>