<svg xmlns="http://www.w3.org/2000/svg" width="324" height="239" fill="none"><rect width="324" height="239" fill="#fff" rx="16"/><path fill="#515151" d="M34.122 178h-3.77v-18.408h3.77zm7.096-11.96q1.665-2.003 4.108-2.028 1.326-.026 2.34.442 1.014.442 1.638 1.222.755.91 1.04 2.132.286 1.196.286 2.678V178h-3.692v-7.228q0-.728-.156-1.378a2.84 2.84 0 0 0-.468-1.144 2 2 0 0 0-.91-.728 3.1 3.1 0 0 0-1.248-.234q-.884.025-1.508.39a2.5 2.5 0 0 0-.91.936q-.312.546-.442 1.248-.104.676-.104 1.378V178h-3.666v-13.702h3.51zm21.406-1.742h4.03L61.61 178h-4.602l-5.018-13.702h4.056l3.302 10.166zm11.738 10.92q.78 0 1.326-.234.572-.26.936-.832h3.848a5.2 5.2 0 0 1-.884 1.846q-.572.78-1.404 1.274a6.1 6.1 0 0 1-1.794.728q-.988.208-2.08.208-3.328 0-5.044-1.872-1.69-1.872-1.69-5.252 0-1.534.442-2.834.468-1.3 1.3-2.236a5.55 5.55 0 0 1 2.054-1.482q1.248-.52 2.834-.52 1.846 0 3.198.65t2.132 1.794q.806 1.118 1.066 2.626.285 1.508 0 3.224h-9.36q.104 1.222.858 2.08.755.832 2.262.832m2.834-5.434q0-.65-.234-1.144a2.2 2.2 0 0 0-.624-.832 2.4 2.4 0 0 0-.936-.494 3.8 3.8 0 0 0-1.092-.156q-1.378.026-2.158.754-.754.702-.884 1.872zm10.976-2.834q-.39 0-.754.052a2.4 2.4 0 0 0-.624.182.96.96 0 0 0-.468.364q-.181.234-.156.624.026.442.338.702.338.26.936.416.572.156 1.274.312.702.13 1.378.286t1.326.364 1.144.52q.675.416 1.118 1.17.441.754.416 1.846 0 1.066-.364 1.846a3.9 3.9 0 0 1-.936 1.3q-.754.676-1.898.988a9.5 9.5 0 0 1-2.314.286q-1.352 0-2.496-.286a5.6 5.6 0 0 1-2.054-1.014 5 5 0 0 1-1.144-1.326q-.442-.806-.52-1.924h3.692q.156.884.858 1.222.727.338 1.716.338.285 0 .598-.026a2.8 2.8 0 0 0 .598-.156q.286-.13.468-.364a.86.86 0 0 0 .208-.546q.025-.676-.468-.962a3 3 0 0 0-1.014-.39 42 42 0 0 0-1.17-.26l-1.248-.26a16 16 0 0 1-1.196-.312 4.6 4.6 0 0 1-1.092-.546 4.2 4.2 0 0 1-1.274-1.248q-.495-.78-.416-2.054.051-1.118.546-1.898a4.1 4.1 0 0 1 1.274-1.274q.78-.494 1.742-.702a9.7 9.7 0 0 1 2.002-.208q1.118 0 2.106.234a4.8 4.8 0 0 1 1.716.754q.753.52 1.196 1.352.468.833.52 2.028H90.2q-.105-.858-.676-1.144-.546-.286-1.352-.286m12.586.546v5.538q0 1.768 1.794 1.768h1.352V178h-1.716q-2.73.104-3.926-1.04-1.17-1.144-1.17-3.458v-6.006h-2.08v-3.198h2.08v-3.718h3.666v3.718h3.276v3.198zm8.939-1.43q.78-.988 1.664-1.508.91-.52 2.054-.546 1.482-.026 2.392.572a4.13 4.13 0 0 1 1.43 1.638q.909-1.118 1.95-1.664t2.366-.546q1.04 0 1.768.286t1.274.78q.754.702 1.066 1.794.338 1.067.338 2.418V178h-3.666v-7.722q0-.546-.078-1.118a2.5 2.5 0 0 0-.338-.988 1.56 1.56 0 0 0-.702-.676q-.468-.26-1.196-.208a2.2 2.2 0 0 0-1.144.416q-.495.338-.702.884a5 5 0 0 0-.286 1.17q-.052.624-.052 1.222V178h-3.666v-7.722q0-.546-.078-1.118a2.5 2.5 0 0 0-.338-.988 1.76 1.76 0 0 0-.702-.676q-.442-.26-1.17-.208-.755.052-1.196.416-.442.338-.676.884a4.6 4.6 0 0 0-.286 1.17q-.052.624-.052 1.222V178h-3.666v-13.702h3.51zm25.323 9.152q.78 0 1.326-.234a2.15 2.15 0 0 0 .936-.832h3.848a5.2 5.2 0 0 1-.884 1.846q-.571.78-1.404 1.274a6.1 6.1 0 0 1-1.794.728 10 10 0 0 1-2.08.208q-3.327 0-5.044-1.872-1.69-1.872-1.69-5.252 0-1.534.442-2.834a6.8 6.8 0 0 1 1.3-2.236 5.56 5.56 0 0 1 2.054-1.482q1.248-.52 2.834-.52 1.846 0 3.198.65t2.132 1.794q.807 1.118 1.066 2.626.286 1.508 0 3.224h-9.36q.105 1.222.858 2.08.755.832 2.262.832m2.834-5.434q0-.65-.234-1.144a2.2 2.2 0 0 0-.624-.832 2.4 2.4 0 0 0-.936-.494 3.8 3.8 0 0 0-1.092-.156q-1.377.026-2.158.754-.753.702-.884 1.872zm9.624-3.744q1.664-2.003 4.108-2.028 1.326-.026 2.34.442 1.014.442 1.638 1.222a5.1 5.1 0 0 1 1.04 2.132q.286 1.196.286 2.678V178h-3.692v-7.228q0-.728-.156-1.378a2.85 2.85 0 0 0-.468-1.144 2 2 0 0 0-.91-.728 3.1 3.1 0 0 0-1.248-.234q-.884.025-1.508.39a2.5 2.5 0 0 0-.91.936q-.312.546-.442 1.248-.104.676-.104 1.378V178h-3.666v-13.702h3.51zm18.962 8.892q.416 0 .936-.156t.91-.39l1.04 2.782q-.364.234-.832.442a10 10 0 0 1-.988.338 7.5 7.5 0 0 1-1.846.234q-1.248 0-2.21-.338a3.87 3.87 0 0 1-1.56-1.014q-.572-.572-.858-1.482-.26-.91-.26-2.054v-5.798h-2.08v-3.198h2.08v-3.744h3.666v3.744h4.03v3.198h-4.03v4.94q0 .468.052.91.078.415.286.78.234.364.624.598.416.208 1.04.208m15.008-8.918q.832-.988 1.768-1.482.963-.494 2.288-.494.338 0 .65.026t.572.078v3.38q-.597 0-1.222.026-.597 0-1.144.104a4.8 4.8 0 0 0-1.066.338 2.6 2.6 0 0 0-.884.624q-.597.676-.754 1.456a11 11 0 0 0-.13 1.768V178h-3.666v-13.702h3.38zm13.113 9.204q.78 0 1.326-.234a2.15 2.15 0 0 0 .936-.832h3.848a5.2 5.2 0 0 1-.884 1.846q-.571.78-1.404 1.274a6.1 6.1 0 0 1-1.794.728 10 10 0 0 1-2.08.208q-3.327 0-5.044-1.872-1.69-1.872-1.69-5.252 0-1.534.442-2.834a6.8 6.8 0 0 1 1.3-2.236 5.56 5.56 0 0 1 2.054-1.482q1.248-.52 2.834-.52 1.847 0 3.198.65 1.352.65 2.132 1.794.807 1.118 1.066 2.626.287 1.508 0 3.224h-9.36q.105 1.222.858 2.08.754.832 2.262.832m2.834-5.434q0-.65-.234-1.144a2.2 2.2 0 0 0-.624-.832 2.4 2.4 0 0 0-.936-.494 3.8 3.8 0 0 0-1.092-.156q-1.378.026-2.158.754-.753.702-.884 1.872zm9.624-3.64a5.5 5.5 0 0 1 2.002-1.534q1.222-.572 2.444-.598a6.4 6.4 0 0 1 2.704.52q1.248.52 2.08 1.768.676.91.988 2.132t.312 2.574q0 1.69-.416 3.068a5.5 5.5 0 0 1-1.352 2.34 5.3 5.3 0 0 1-1.976 1.352q-1.17.442-2.34.442-.572 0-1.144-.078a5.4 5.4 0 0 1-2.288-.754 4.6 4.6 0 0 1-1.04-.91v7.254h-3.666v-19.422h3.484zm3.432 1.144q-.806 0-1.456.312a3.05 3.05 0 0 0-1.066.806 4.1 4.1 0 0 0-.702 1.196 4.4 4.4 0 0 0-.234 1.456q-.026 1.742.91 2.808.962 1.04 2.6 1.092.884 0 1.508-.286a2.6 2.6 0 0 0 1.014-.806q.416-.52.624-1.222.234-.702.234-1.534a4.7 4.7 0 0 0-.234-1.508 3.3 3.3 0 0 0-.65-1.222 2.8 2.8 0 0 0-1.04-.806q-.624-.286-1.508-.286m15.826 10.92q-3.327 0-5.122-1.872-1.794-1.898-1.794-5.252 0-1.612.468-2.912.495-1.326 1.352-2.262a5.56 5.56 0 0 1 2.158-1.404q1.3-.494 2.938-.494 1.613 0 2.886.494 1.3.468 2.184 1.404a6.1 6.1 0 0 1 1.378 2.262q.494 1.3.494 2.912 0 3.38-1.82 5.252-1.794 1.872-5.122 1.872m0-10.92q-1.689 0-2.496 1.092t-.806 2.73q0 1.664.806 2.756.807 1.092 2.496 1.092t2.47-1.092q.78-1.092.78-2.756 0-1.638-.78-2.73t-2.47-1.092m12.884-1.274q.832-.988 1.768-1.482.963-.494 2.288-.494.339 0 .65.026.312.025.572.078v3.38q-.597 0-1.222.026-.597 0-1.144.104a4.8 4.8 0 0 0-1.066.338 2.6 2.6 0 0 0-.884.624q-.598.676-.754 1.456a11 11 0 0 0-.13 1.768V178h-3.666v-13.702h3.38zm12.646 1.482v5.538q0 1.768 1.794 1.768h1.352V178h-1.716q-2.73.104-3.926-1.04-1.17-1.144-1.17-3.458v-6.006h-2.08v-3.198h2.08v-3.718h3.666v3.718h3.276v3.198zM58.69 67h-6.837V32.665h6.837zm17.31.388q-6.207 0-9.554-3.492Q63.1 60.356 63.1 54.1q0-3.006.873-5.431.921-2.474 2.522-4.22 1.648-1.745 4.025-2.618 2.424-.921 5.48-.922 3.007 0 5.383.922 2.424.873 4.073 2.619 1.698 1.746 2.57 4.219.922 2.425.922 5.431 0 6.304-3.395 9.796-3.346 3.492-9.553 3.492m0-20.368q-3.153 0-4.656 2.037t-1.503 5.092q0 3.103 1.503 5.14T76 61.326t4.607-2.037 1.455-5.14q0-3.055-1.455-5.092T76 47.02m36.058 17.361a7.94 7.94 0 0 1-3.492 2.328q-2.037.68-4.413.679-2.376 0-4.655-.728a9.85 9.85 0 0 1-3.88-2.473 10.7 10.7 0 0 1-2.57-4.461 18.6 18.6 0 0 1-.728-5.19q0-6.304 3.492-10.086 1.503-1.65 3.88-2.57 2.424-.923 5.189-.873 1.794-.097 3.879.63a8.45 8.45 0 0 1 3.589 2.425l.727-2.619h5.917V65.4a24 24 0 0 1-.194 3.055 17 17 0 0 1-.534 2.958q-.387 1.455-1.164 2.764-.873 1.6-2.133 2.716a11.2 11.2 0 0 1-2.716 1.843 12.1 12.1 0 0 1-3.201 1.115q-1.697.34-3.443.34-2.23 0-4.268-.534a11.1 11.1 0 0 1-3.734-1.649 9.7 9.7 0 0 1-2.764-2.86q-1.067-1.747-1.406-4.171h7.274q.194 1.163 1.552 2.085 1.357.921 3.298.921 2.085 0 3.394-.824 1.358-.825 2.037-2.182.68-1.359.873-3.104.194-1.746.194-3.492m-6.353-3.055q1.6 0 2.813-.582 1.26-.582 2.037-1.552a7.2 7.2 0 0 0 1.163-2.328q.388-1.357.388-2.86 0-3.008-1.697-4.947-1.648-1.989-4.752-2.037-1.6 0-2.862.582a6.1 6.1 0 0 0-2.037 1.552q-.776.97-1.163 2.279a9.9 9.9 0 0 0-.388 2.813q0 1.6.388 2.91.436 1.26 1.26 2.23a5.9 5.9 0 0 0 2.037 1.455q1.213.485 2.813.485m30.535 6.062q-6.207 0-9.554-3.492-3.346-3.54-3.346-9.796 0-3.006.873-5.431.921-2.474 2.522-4.22 1.649-1.745 4.025-2.618 2.425-.921 5.48-.922 3.006 0 5.383.922 2.424.873 4.074 2.619 1.697 1.746 2.57 4.219.921 2.425.921 5.431 0 6.304-3.394 9.796-3.347 3.492-9.554 3.492m0-20.368q-3.151 0-4.656 2.037-1.503 2.037-1.503 5.092 0 3.103 1.503 5.14 1.505 2.037 4.656 2.037 3.152 0 4.607-2.037t1.455-5.14q0-3.055-1.455-5.092t-4.607-2.037M34.324 196.188q-1.071 0-1.836.391a3.6 3.6 0 0 0-1.241 1.054 4.5 4.5 0 0 0-.697 1.53 7 7 0 0 0-.221 1.785q0 1.004.238 1.887.238.884.731 1.547a3.64 3.64 0 0 0 1.258 1.037q.765.374 1.819.374 1.275 0 2.142-.527t1.122-1.411h1.615a4.16 4.16 0 0 1-1.649 2.397q-1.258.884-3.264.884-1.395 0-2.431-.459a4.8 4.8 0 0 1-1.734-1.275 5.5 5.5 0 0 1-1.02-1.938 8.5 8.5 0 0 1-.34-2.465q0-1.326.34-2.448a5.3 5.3 0 0 1 1.037-1.938 4.7 4.7 0 0 1 1.734-1.292q1.037-.476 2.448-.476.986 0 1.768.238a4.2 4.2 0 0 1 1.377.68q.595.425.969 1.037.374.596.544 1.326h-1.496q-.255-.884-1.105-1.411-.833-.527-2.108-.527m10.729 1.751q1.07 0 1.853.34a3.6 3.6 0 0 1 1.309.952q.543.612.799 1.462.272.833.272 1.836t-.272 1.853a3.8 3.8 0 0 1-.8 1.445 3.65 3.65 0 0 1-1.325.935q-.8.34-1.87.34t-1.87-.34a3.85 3.85 0 0 1-1.326-.935 4.2 4.2 0 0 1-.8-1.445 6.4 6.4 0 0 1-.254-1.853q0-1.004.255-1.836a4.15 4.15 0 0 1 .799-1.462 3.7 3.7 0 0 1 1.36-.952q.816-.34 1.87-.34m-.034 7.888q.73 0 1.258-.255.543-.255.884-.697a2.85 2.85 0 0 0 .51-1.054q.17-.595.17-1.292 0-.68-.17-1.275a2.7 2.7 0 0 0-.51-1.054 2.3 2.3 0 0 0-.884-.714q-.527-.255-1.258-.255-.732 0-1.258.255-.528.255-.884.714a3 3 0 0 0-.51 1.054 5 5 0 0 0-.153 1.275q0 .697.153 1.292.17.595.51 1.054.356.442.884.697.526.255 1.258.255m7.662-6.715a2.66 2.66 0 0 1 1.037-.884q.63-.29 1.394-.289.935.016 1.513.408t.867 1.037q.459-.68 1.122-1.054.68-.391 1.598-.391.731 0 1.258.255.527.238.85.68.323.425.476 1.003t.153 1.258V207h-1.445v-5.134q0-.442-.05-.901a2.5 2.5 0 0 0-.205-.85 1.47 1.47 0 0 0-.51-.629q-.34-.255-.918-.255-.56 0-.952.272-.39.255-.629.68a3.5 3.5 0 0 0-.323.935q-.102.51-.102 1.003V207H56.37v-5.151q0-.425-.034-.884a2.5 2.5 0 0 0-.204-.85 1.4 1.4 0 0 0-.476-.629q-.323-.255-.9-.255-.614 0-1.02.272-.392.272-.647.697a3.2 3.2 0 0 0-.34.952q-.085.51-.085.986V207H51.22v-8.959h1.394zm12.467 11.118v-12.189h1.377l.068 1.343q.46-.697 1.24-1.054a4.2 4.2 0 0 1 1.718-.391q1.037 0 1.75.357.731.34 1.208.969.493.612.73 1.462.24.833.239 1.802a6.6 6.6 0 0 1-.238 1.819 4.05 4.05 0 0 1-.731 1.445 3.5 3.5 0 0 1-1.241.969q-.748.34-1.785.34-1.02 0-1.734-.323a2.96 2.96 0 0 1-1.156-.901v4.352zm4.216-4.403q.73 0 1.224-.255.51-.272.816-.714.323-.459.459-1.054.153-.595.17-1.275a5 5 0 0 0-.153-1.275 2.8 2.8 0 0 0-.46-1.054 2.24 2.24 0 0 0-.85-.697q-.51-.272-1.24-.272-.867 0-1.496.476-.63.459-.952 1.173-.187.391-.255.816a5 5 0 0 0-.068.85q0 .51.068.952.067.425.255.816.323.646.935 1.088.63.425 1.547.425m11.943.034q-.29.391-.663.629t-.782.374q-.391.136-.8.187-.39.051-.781.051-.63 0-1.19-.153a3 3 0 0 1-1.02-.493 2.6 2.6 0 0 1-.714-.85 2.55 2.55 0 0 1-.255-1.156q0-.765.272-1.275.288-.527.765-.85a2.9 2.9 0 0 1 1.088-.442 6.2 6.2 0 0 1 1.326-.136h2.635q0-1.139-.493-1.802-.494-.68-1.666-.714-.715 0-1.258.238a1.34 1.34 0 0 0-.748.782h-1.547q.119-.612.476-1.037.356-.442.85-.714a3.8 3.8 0 0 1 1.07-.425q.578-.136 1.157-.136 1.003 0 1.683.34.696.322 1.122.867.424.527.595 1.292t.17 1.717V207h-1.207zm-1.7-2.907q-.409 0-.952.017-.528 0-1.02.102-.494.102-.8.425-.288.323-.288.85 0 .391.153.663t.408.459q.27.187.612.272.34.085.697.085 1.275 0 2.006-.612.747-.629.765-1.819v-.442zm5.23 4.046v-8.959h1.394l.068 1.36q.222-.374.544-.646.34-.272.731-.459t.816-.272q.442-.085.85-.085.969 0 1.632.323.663.306 1.054.867.39.544.561 1.309.17.748.17 1.615V207h-1.445v-4.556q0-.629-.085-1.207a2.8 2.8 0 0 0-.306-1.02 1.75 1.75 0 0 0-.646-.731q-.425-.272-1.139-.272a2.5 2.5 0 0 0-1.24.34q-.528.323-.85.765a3.3 3.3 0 0 0-.528 1.241q-.135.663-.136 1.343V207zm17.915-8.959V207q0 1.955-1.02 2.975-1.02 1.037-2.907 1.037-1.14-.017-2.057-.306-.9-.272-1.666-.986l.63-1.139q.662.527 1.41.833.765.306 1.598.306.698 0 1.19-.221.493-.204.799-.595.324-.374.459-.901.153-.527.153-1.139v-1.071a2.6 2.6 0 0 1-.561.612q-.323.255-.714.425-.374.153-.816.221a4.4 4.4 0 0 1-.867.085q-1.02-.017-1.7-.323a2.75 2.75 0 0 1-1.07-.85 3.5 3.5 0 0 1-.562-1.292 7.8 7.8 0 0 1-.17-1.683v-4.947h1.445v4.539q0 .612.068 1.207.085.595.323 1.054t.697.748q.459.272 1.224.272t1.292-.323a2.3 2.3 0 0 0 .833-.816q.323-.51.425-1.122a6.5 6.5 0 0 0 .119-1.258v-4.301zm6.855 8.959v-8.959h1.394l.068 1.36a2.5 2.5 0 0 1 .544-.646q.34-.272.731-.459t.816-.272q.441-.085.85-.085.969 0 1.632.323.663.306 1.054.867.39.544.561 1.309.17.748.17 1.615V207h-1.445v-4.556q0-.629-.085-1.207a2.9 2.9 0 0 0-.306-1.02 1.76 1.76 0 0 0-.646-.731q-.425-.272-1.139-.272a2.5 2.5 0 0 0-1.241.34 2.9 2.9 0 0 0-.85.765 3.25 3.25 0 0 0-.527 1.241q-.136.663-.136 1.343V207zm15.943-1.139q-.29.391-.663.629-.375.238-.782.374a4 4 0 0 1-.799.187 6 6 0 0 1-.782.051q-.63 0-1.19-.153a3 3 0 0 1-1.02-.493 2.6 2.6 0 0 1-.714-.85 2.55 2.55 0 0 1-.255-1.156q0-.765.272-1.275.288-.527.765-.85.476-.323 1.088-.442a6.2 6.2 0 0 1 1.326-.136h2.635q0-1.139-.493-1.802-.493-.68-1.666-.714-.714 0-1.258.238a1.34 1.34 0 0 0-.748.782h-1.547q.119-.612.476-1.037.357-.442.85-.714a3.8 3.8 0 0 1 1.071-.425q.577-.136 1.156-.136 1.002 0 1.683.34a3 3 0 0 1 1.122.867q.424.527.595 1.292t.17 1.717V207h-1.207zm-1.7-2.907q-.409 0-.952.017-.528 0-1.02.102-.493.102-.799.425-.29.323-.289.85 0 .391.153.663t.408.459q.272.187.612.272t.697.085q1.274 0 2.006-.612.747-.629.765-1.819v-.442zm6.692-3.842a2.67 2.67 0 0 1 1.037-.884q.63-.29 1.394-.289.936.016 1.513.408.579.391.867 1.037.459-.68 1.122-1.054.68-.391 1.598-.391.732 0 1.258.255.528.238.85.68.323.425.476 1.003t.153 1.258V207h-1.445v-5.134q0-.442-.051-.901a2.4 2.4 0 0 0-.204-.85 1.46 1.46 0 0 0-.51-.629q-.339-.255-.918-.255-.56 0-.952.272-.39.255-.629.68a3.5 3.5 0 0 0-.323.935q-.102.51-.102 1.003V207h-1.445v-5.151q0-.425-.034-.884a2.4 2.4 0 0 0-.204-.85 1.4 1.4 0 0 0-.476-.629q-.322-.255-.901-.255-.612 0-1.02.272a2.25 2.25 0 0 0-.646.697 3.2 3.2 0 0 0-.34.952q-.084.51-.085.986V207h-1.445v-8.959h1.394zm13.589 3.944q.05.595.238 1.105.204.493.544.867t.833.595q.51.204 1.173.204.323 0 .663-.051.357-.067.663-.204.306-.153.544-.391t.357-.578h1.479a2.85 2.85 0 0 1-.527 1.122 3 3 0 0 1-.867.782 3.9 3.9 0 0 1-1.105.459 5.7 5.7 0 0 1-1.241.136q-1.07 0-1.87-.34a3.7 3.7 0 0 1-1.309-.935 4 4 0 0 1-.782-1.445 6.4 6.4 0 0 1-.255-1.853q0-1.004.272-1.836a4.4 4.4 0 0 1 .816-1.462 3.6 3.6 0 0 1 1.292-.952q.765-.34 1.819-.34 1.071 0 1.853.425t1.258 1.122q.475.68.663 1.479a5 5 0 0 1 .17 1.479q0 .153-.017.306 0 .153-.017.306zm5.219-1.258q-.035-1.139-.714-1.853-.68-.714-1.819-.714-.629 0-1.105.204a2.3 2.3 0 0 0-.799.561 2.7 2.7 0 0 0-.51.833 3.5 3.5 0 0 0-.238.969zM270.289 28.048l.944-.8q.528-.448.976-.96.465-.512.784-1.072.321-.576.336-1.248.032-1.024-.592-1.568-.624-.56-1.648-.56-.815 0-1.424.336-.608.336-.8.976h-1.488q.113-.656.464-1.136.369-.496.88-.816a4.2 4.2 0 0 1 1.152-.48q.624-.16 1.28-.16a4.4 4.4 0 0 1 1.44.224q.656.209 1.136.624t.736 1.04q.273.608.272 1.392 0 .784-.24 1.408-.224.624-.624 1.152a7 7 0 0 1-.88.992q-.495.465-1.024.928l-2.864 2.416h5.76V32h-7.776v-1.152zm15.127-1.696a10 10 0 0 1-.224 2.128 5.5 5.5 0 0 1-.72 1.856 3.96 3.96 0 0 1-1.36 1.296q-.848.495-2.112.496-1.28 0-2.128-.496a3.96 3.96 0 0 1-1.36-1.296 5.5 5.5 0 0 1-.72-1.824 10.7 10.7 0 0 1-.208-2.16q0-1.152.208-2.16.209-1.024.72-1.824a3.96 3.96 0 0 1 1.36-1.296q.848-.512 2.128-.512 1.264 0 2.112.496a3.9 3.9 0 0 1 1.36 1.312q.512.816.72 1.856a10 10 0 0 1 .224 2.128m-7.408 0q0 .768.112 1.568.113.8.432 1.456.32.656.896 1.072.592.416 1.552.416.944 0 1.52-.416a2.77 2.77 0 0 0 .912-1.072q.32-.656.432-1.456a11 11 0 0 0 .112-1.568q0-.752-.112-1.552a4.8 4.8 0 0 0-.432-1.456 2.74 2.74 0 0 0-.912-1.088q-.576-.432-1.52-.432-.96 0-1.552.432-.576.416-.896 1.088a4.8 4.8 0 0 0-.432 1.456q-.112.8-.112 1.552m11.75 1.696.944-.8q.528-.448.976-.96.464-.512.784-1.072.32-.576.336-1.248.032-1.024-.592-1.568-.624-.56-1.648-.56-.816 0-1.424.336t-.8.976h-1.488q.112-.656.464-1.136a3.2 3.2 0 0 1 .88-.816 4.2 4.2 0 0 1 1.152-.48q.624-.16 1.28-.16a4.4 4.4 0 0 1 1.44.224q.656.209 1.136.624t.736 1.04q.272.608.272 1.392t-.24 1.408q-.224.624-.624 1.152a7 7 0 0 1-.88.992q-.496.465-1.024.928l-2.864 2.416h5.76V32h-7.776v-1.152zm6.695-1.136.512-6.224h6.768v1.28h-5.52l-.32 3.552a3.3 3.3 0 0 1 1.056-.56q.624-.224 1.536-.224.816 0 1.488.256t1.152.736q.48.465.736 1.136.272.672.272 1.488 0 .895-.32 1.6a3.5 3.5 0 0 1-.848 1.184q-.545.495-1.296.752a4.8 4.8 0 0 1-1.6.256q-.705 0-1.36-.16a4.2 4.2 0 0 1-1.168-.48 3.2 3.2 0 0 1-.896-.848 3.1 3.1 0 0 1-.512-1.216h1.408q.127.336.384.608.255.256.576.448.336.176.704.272a3 3 0 0 0 .736.096q.576 0 1.072-.144.511-.144.88-.432.384-.304.592-.752.207-.464.208-1.104 0-1.168-.704-1.792-.705-.624-1.824-.624-.672 0-1.248.24-.56.24-1.024.656z"/><path stroke="#4DB6F1" d="M28.5 21.5h143v66h-143z"/><path fill="#fff" stroke="#4DB6F1" d="M167.5 21.5h4v4h-4zM168.5 83.5h4v4h-4zM28.5 83.5h4v4h-4zM28.5 21.5h4v4h-4z"/><path fill="#335CFF" d="M170.257 92.182a3.062 3.062 0 0 1 4.9-2.45l24.494 18.381c2.352 1.764 1.102 5.512-1.838 5.512h-12.087a3.07 3.07 0 0 0-2.429 1.195l-7.552 9.846c-1.779 2.321-5.491 1.062-5.491-1.865z"/></svg>