<svg width="324" height="239" viewBox="0 0 324 239" fill="none" xmlns="http://www.w3.org/2000/svg">
<rect width="324" height="239" rx="16" fill="white"/>
<path d="M34.1223 178H30.3523V159.592H34.1223V178ZM41.2183 166.04C42.3276 164.705 43.697 164.029 45.3263 164.012C46.2103 163.995 46.9903 164.142 47.6663 164.454C48.3423 164.749 48.8883 165.156 49.3043 165.676C49.807 166.283 50.1536 166.993 50.3443 167.808C50.535 168.605 50.6303 169.498 50.6303 170.486V178H46.9383V170.772C46.9383 170.287 46.8863 169.827 46.7823 169.394C46.6956 168.943 46.5396 168.562 46.3143 168.25C46.089 167.921 45.7856 167.678 45.4043 167.522C45.0403 167.366 44.6243 167.288 44.1563 167.288C43.567 167.305 43.0643 167.435 42.6483 167.678C42.2496 167.921 41.9463 168.233 41.7383 168.614C41.5303 168.978 41.383 169.394 41.2963 169.862C41.227 170.313 41.1923 170.772 41.1923 171.24V178H37.5263V164.298H41.0363L41.2183 166.04ZM62.6242 164.298H66.6542L61.6102 178H57.0082L51.9902 164.298H56.0462L59.3482 174.464L62.6242 164.298ZM74.362 175.218C74.882 175.218 75.324 175.14 75.688 174.984C76.0693 174.811 76.3813 174.533 76.624 174.152H80.472C80.2813 174.863 79.9867 175.478 79.588 175.998C79.2067 176.518 78.7387 176.943 78.184 177.272C77.6467 177.601 77.0487 177.844 76.39 178C75.7313 178.139 75.038 178.208 74.31 178.208C72.0913 178.208 70.41 177.584 69.266 176.336C68.1393 175.088 67.576 173.337 67.576 171.084C67.576 170.061 67.7233 169.117 68.018 168.25C68.33 167.383 68.7633 166.638 69.318 166.014C69.8727 165.373 70.5573 164.879 71.372 164.532C72.204 164.185 73.1487 164.012 74.206 164.012C75.4367 164.012 76.5027 164.229 77.404 164.662C78.3053 165.095 79.016 165.693 79.536 166.456C80.0733 167.201 80.4287 168.077 80.602 169.082C80.7927 170.087 80.7927 171.162 80.602 172.306H71.242C71.3113 173.121 71.5973 173.814 72.1 174.386C72.6027 174.941 73.3567 175.218 74.362 175.218ZM77.196 169.784C77.196 169.351 77.118 168.969 76.962 168.64C76.806 168.293 76.598 168.016 76.338 167.808C76.078 167.583 75.766 167.418 75.402 167.314C75.0553 167.21 74.6913 167.158 74.31 167.158C73.3913 167.175 72.672 167.427 72.152 167.912C71.6493 168.38 71.3547 169.004 71.268 169.784H77.196ZM88.1719 166.95C87.9119 166.95 87.6605 166.967 87.4179 167.002C87.1925 167.037 86.9845 167.097 86.7939 167.184C86.6032 167.253 86.4472 167.375 86.3259 167.548C86.2045 167.704 86.1525 167.912 86.1699 168.172C86.1872 168.467 86.2999 168.701 86.5079 168.874C86.7332 169.047 87.0452 169.186 87.4439 169.29C87.8252 169.394 88.2499 169.498 88.7179 169.602C89.1859 169.689 89.6452 169.784 90.0959 169.888C90.5465 169.992 90.9885 170.113 91.4219 170.252C91.8552 170.391 92.2365 170.564 92.5659 170.772C93.0165 171.049 93.3892 171.439 93.6839 171.942C93.9785 172.445 94.1172 173.06 94.0999 173.788C94.0999 174.499 93.9785 175.114 93.7359 175.634C93.5105 176.137 93.1985 176.57 92.7999 176.934C92.2972 177.385 91.6645 177.714 90.9019 177.922C90.1392 178.113 89.3679 178.208 88.5879 178.208C87.6865 178.208 86.8545 178.113 86.0919 177.922C85.3465 177.731 84.6619 177.393 84.0379 176.908C83.5872 176.544 83.2059 176.102 82.8939 175.582C82.5992 175.045 82.4259 174.403 82.3739 173.658H86.0659C86.1699 174.247 86.4559 174.655 86.9239 174.88C87.4092 175.105 87.9812 175.218 88.6399 175.218C88.8305 175.218 89.0299 175.209 89.2379 175.192C89.4632 175.157 89.6625 175.105 89.8359 175.036C90.0265 174.949 90.1825 174.828 90.3039 174.672C90.4425 174.499 90.5119 174.317 90.5119 174.126C90.5292 173.675 90.3732 173.355 90.0439 173.164C89.7319 172.973 89.3939 172.843 89.0299 172.774C88.6659 172.687 88.2759 172.601 87.8599 172.514C87.4439 172.427 87.0279 172.341 86.6119 172.254C86.2132 172.167 85.8145 172.063 85.4159 171.942C85.0172 171.803 84.6532 171.621 84.3239 171.396C83.8212 171.084 83.3965 170.668 83.0499 170.148C82.7205 169.628 82.5819 168.943 82.6339 168.094C82.6685 167.349 82.8505 166.716 83.1799 166.196C83.5265 165.659 83.9512 165.234 84.4539 164.922C84.9739 164.593 85.5545 164.359 86.1959 164.22C86.8545 164.081 87.5219 164.012 88.1979 164.012C88.9432 164.012 89.6452 164.09 90.3039 164.246C90.9625 164.402 91.5345 164.653 92.0199 165C92.5225 165.347 92.9212 165.797 93.2159 166.352C93.5279 166.907 93.7012 167.583 93.7359 168.38H90.1999C90.1305 167.808 89.9052 167.427 89.5239 167.236C89.1599 167.045 88.7092 166.95 88.1719 166.95ZM100.758 167.496V173.034C100.758 174.213 101.356 174.802 102.552 174.802H103.904V178H102.188C100.368 178.069 99.0596 177.723 98.2623 176.96C97.4823 176.197 97.0923 175.045 97.0923 173.502V167.496H95.0123V164.298H97.0923V160.58H100.758V164.298H104.034V167.496H100.758ZM109.697 166.066C110.217 165.407 110.771 164.905 111.361 164.558C111.967 164.211 112.652 164.029 113.415 164.012C114.403 163.995 115.2 164.185 115.807 164.584C116.413 164.983 116.89 165.529 117.237 166.222C117.843 165.477 118.493 164.922 119.187 164.558C119.88 164.194 120.669 164.012 121.553 164.012C122.246 164.012 122.835 164.107 123.321 164.298C123.806 164.489 124.231 164.749 124.595 165.078C125.097 165.546 125.453 166.144 125.661 166.872C125.886 167.583 125.999 168.389 125.999 169.29V178H122.333V170.278C122.333 169.914 122.307 169.541 122.255 169.16C122.203 168.779 122.09 168.449 121.917 168.172C121.761 167.877 121.527 167.652 121.215 167.496C120.903 167.323 120.504 167.253 120.019 167.288C119.585 167.323 119.204 167.461 118.875 167.704C118.545 167.929 118.311 168.224 118.173 168.588C118.034 168.952 117.939 169.342 117.887 169.758C117.852 170.174 117.835 170.581 117.835 170.98V178H114.169V170.278C114.169 169.914 114.143 169.541 114.091 169.16C114.039 168.779 113.926 168.449 113.753 168.172C113.579 167.877 113.345 167.652 113.051 167.496C112.756 167.323 112.366 167.253 111.881 167.288C111.378 167.323 110.979 167.461 110.685 167.704C110.39 167.929 110.165 168.224 110.009 168.588C109.87 168.935 109.775 169.325 109.723 169.758C109.688 170.174 109.671 170.581 109.671 170.98V178H106.005V164.298H109.515L109.697 166.066ZM135.02 175.218C135.54 175.218 135.982 175.14 136.346 174.984C136.728 174.811 137.04 174.533 137.282 174.152H141.13C140.94 174.863 140.645 175.478 140.246 175.998C139.865 176.518 139.397 176.943 138.842 177.272C138.305 177.601 137.707 177.844 137.048 178C136.39 178.139 135.696 178.208 134.968 178.208C132.75 178.208 131.068 177.584 129.924 176.336C128.798 175.088 128.234 173.337 128.234 171.084C128.234 170.061 128.382 169.117 128.676 168.25C128.988 167.383 129.422 166.638 129.976 166.014C130.531 165.373 131.216 164.879 132.03 164.532C132.862 164.185 133.807 164.012 134.864 164.012C136.095 164.012 137.161 164.229 138.062 164.662C138.964 165.095 139.674 165.693 140.194 166.456C140.732 167.201 141.087 168.077 141.26 169.082C141.451 170.087 141.451 171.162 141.26 172.306H131.9C131.97 173.121 132.256 173.814 132.758 174.386C133.261 174.941 134.015 175.218 135.02 175.218ZM137.854 169.784C137.854 169.351 137.776 168.969 137.62 168.64C137.464 168.293 137.256 168.016 136.996 167.808C136.736 167.583 136.424 167.418 136.06 167.314C135.714 167.21 135.35 167.158 134.968 167.158C134.05 167.175 133.33 167.427 132.81 167.912C132.308 168.38 132.013 169.004 131.926 169.784H137.854ZM147.478 166.04C148.587 164.705 149.957 164.029 151.586 164.012C152.47 163.995 153.25 164.142 153.926 164.454C154.602 164.749 155.148 165.156 155.564 165.676C156.067 166.283 156.413 166.993 156.604 167.808C156.795 168.605 156.89 169.498 156.89 170.486V178H153.198V170.772C153.198 170.287 153.146 169.827 153.042 169.394C152.955 168.943 152.799 168.562 152.574 168.25C152.349 167.921 152.045 167.678 151.664 167.522C151.3 167.366 150.884 167.288 150.416 167.288C149.827 167.305 149.324 167.435 148.908 167.678C148.509 167.921 148.206 168.233 147.998 168.614C147.79 168.978 147.643 169.394 147.556 169.862C147.487 170.313 147.452 170.772 147.452 171.24V178H143.786V164.298H147.296L147.478 166.04ZM166.44 174.932C166.717 174.932 167.029 174.88 167.376 174.776C167.723 174.672 168.026 174.542 168.286 174.386L169.326 177.168C169.083 177.324 168.806 177.471 168.494 177.61C168.199 177.731 167.87 177.844 167.506 177.948C167.159 178.035 166.83 178.095 166.518 178.13C166.206 178.165 165.92 178.182 165.66 178.182C164.828 178.182 164.091 178.069 163.45 177.844C162.826 177.619 162.306 177.281 161.89 176.83C161.509 176.449 161.223 175.955 161.032 175.348C160.859 174.741 160.772 174.057 160.772 173.294V167.496H158.692V164.298H160.772V160.554H164.438V164.298H168.468V167.496H164.438V172.436C164.438 172.748 164.455 173.051 164.49 173.346C164.542 173.623 164.637 173.883 164.776 174.126C164.932 174.369 165.14 174.568 165.4 174.724C165.677 174.863 166.024 174.932 166.44 174.932ZM181.448 166.014C182.003 165.355 182.592 164.861 183.216 164.532C183.858 164.203 184.62 164.038 185.504 164.038C185.73 164.038 185.946 164.047 186.154 164.064C186.362 164.081 186.553 164.107 186.726 164.142V167.522C186.328 167.522 185.92 167.531 185.504 167.548C185.106 167.548 184.724 167.583 184.36 167.652C183.996 167.721 183.641 167.834 183.294 167.99C182.965 168.129 182.67 168.337 182.41 168.614C182.012 169.065 181.76 169.55 181.656 170.07C181.57 170.59 181.526 171.179 181.526 171.838V178H177.86V164.298H181.24L181.448 166.014ZM194.561 175.218C195.081 175.218 195.523 175.14 195.887 174.984C196.269 174.811 196.581 174.533 196.823 174.152H200.671C200.481 174.863 200.186 175.478 199.787 175.998C199.406 176.518 198.938 176.943 198.383 177.272C197.846 177.601 197.248 177.844 196.589 178C195.931 178.139 195.237 178.208 194.509 178.208C192.291 178.208 190.609 177.584 189.465 176.336C188.339 175.088 187.775 173.337 187.775 171.084C187.775 170.061 187.923 169.117 188.217 168.25C188.529 167.383 188.963 166.638 189.517 166.014C190.072 165.373 190.757 164.879 191.571 164.532C192.403 164.185 193.348 164.012 194.405 164.012C195.636 164.012 196.702 164.229 197.603 164.662C198.505 165.095 199.215 165.693 199.735 166.456C200.273 167.201 200.628 168.077 200.801 169.082C200.992 170.087 200.992 171.162 200.801 172.306H191.441C191.511 173.121 191.797 173.814 192.299 174.386C192.802 174.941 193.556 175.218 194.561 175.218ZM197.395 169.784C197.395 169.351 197.317 168.969 197.161 168.64C197.005 168.293 196.797 168.016 196.537 167.808C196.277 167.583 195.965 167.418 195.601 167.314C195.255 167.21 194.891 167.158 194.509 167.158C193.591 167.175 192.871 167.427 192.351 167.912C191.849 168.38 191.554 169.004 191.467 169.784H197.395ZM207.019 166.144C207.556 165.485 208.224 164.974 209.021 164.61C209.836 164.229 210.65 164.029 211.465 164.012C212.436 163.995 213.337 164.168 214.169 164.532C215.001 164.879 215.694 165.468 216.249 166.3C216.7 166.907 217.029 167.617 217.237 168.432C217.445 169.247 217.549 170.105 217.549 171.006C217.549 172.133 217.41 173.155 217.133 174.074C216.873 174.975 216.422 175.755 215.781 176.414C215.244 177.003 214.585 177.454 213.805 177.766C213.025 178.061 212.245 178.208 211.465 178.208C211.084 178.208 210.702 178.182 210.321 178.13C209.94 178.095 209.558 178.017 209.177 177.896C208.796 177.775 208.414 177.601 208.033 177.376C207.669 177.151 207.322 176.847 206.993 176.466V183.72H203.327V164.298H206.811L207.019 166.144ZM210.451 167.288C209.914 167.288 209.428 167.392 208.995 167.6C208.579 167.791 208.224 168.059 207.929 168.406C207.634 168.753 207.4 169.151 207.227 169.602C207.071 170.053 206.993 170.538 206.993 171.058C206.976 172.219 207.279 173.155 207.903 173.866C208.544 174.559 209.411 174.923 210.503 174.958C211.092 174.958 211.595 174.863 212.011 174.672C212.427 174.481 212.765 174.213 213.025 173.866C213.302 173.519 213.51 173.112 213.649 172.644C213.805 172.176 213.883 171.665 213.883 171.11C213.883 170.573 213.805 170.07 213.649 169.602C213.51 169.134 213.294 168.727 212.999 168.38C212.722 168.033 212.375 167.765 211.959 167.574C211.543 167.383 211.04 167.288 210.451 167.288ZM226.277 178.208C224.059 178.208 222.351 177.584 221.155 176.336C219.959 175.071 219.361 173.32 219.361 171.084C219.361 170.009 219.517 169.039 219.829 168.172C220.159 167.288 220.609 166.534 221.181 165.91C221.771 165.286 222.49 164.818 223.339 164.506C224.206 164.177 225.185 164.012 226.277 164.012C227.352 164.012 228.314 164.177 229.163 164.506C230.03 164.818 230.758 165.286 231.347 165.91C231.954 166.534 232.413 167.288 232.725 168.172C233.055 169.039 233.219 170.009 233.219 171.084C233.219 173.337 232.613 175.088 231.399 176.336C230.203 177.584 228.496 178.208 226.277 178.208ZM226.277 167.288C225.151 167.288 224.319 167.652 223.781 168.38C223.244 169.108 222.975 170.018 222.975 171.11C222.975 172.219 223.244 173.138 223.781 173.866C224.319 174.594 225.151 174.958 226.277 174.958C227.404 174.958 228.227 174.594 228.747 173.866C229.267 173.138 229.527 172.219 229.527 171.11C229.527 170.018 229.267 169.108 228.747 168.38C228.227 167.652 227.404 167.288 226.277 167.288ZM239.161 166.014C239.716 165.355 240.305 164.861 240.929 164.532C241.571 164.203 242.333 164.038 243.217 164.038C243.443 164.038 243.659 164.047 243.867 164.064C244.075 164.081 244.266 164.107 244.439 164.142V167.522C244.041 167.522 243.633 167.531 243.217 167.548C242.819 167.548 242.437 167.583 242.073 167.652C241.709 167.721 241.354 167.834 241.007 167.99C240.678 168.129 240.383 168.337 240.123 168.614C239.725 169.065 239.473 169.55 239.369 170.07C239.283 170.59 239.239 171.179 239.239 171.838V178H235.573V164.298H238.953L239.161 166.014ZM251.807 167.496V173.034C251.807 174.213 252.405 174.802 253.601 174.802H254.953V178H253.237C251.417 178.069 250.108 177.723 249.311 176.96C248.531 176.197 248.141 175.045 248.141 173.502V167.496H246.061V164.298H248.141V160.58H251.807V164.298H255.083V167.496H251.807Z" fill="#515151"/>
<path d="M58.6903 67H51.8525V32.6653H58.6903V67ZM75.9998 67.388C71.8615 67.388 68.677 66.2241 66.4462 63.8963C64.2154 61.5362 63.1 58.2708 63.1 54.1003C63.1 52.0958 63.391 50.2853 63.9729 48.6688C64.5872 47.0199 65.4278 45.6136 66.4947 44.4497C67.5939 43.2858 68.9356 42.4129 70.5198 41.8309C72.1363 41.2167 73.963 40.9095 75.9998 40.9095C78.0042 40.9095 79.7986 41.2167 81.3827 41.8309C82.9992 42.4129 84.3571 43.2858 85.4563 44.4497C86.5879 45.6136 87.4446 47.0199 88.0266 48.6688C88.6409 50.2853 88.948 52.0958 88.948 54.1003C88.948 58.3032 87.8164 61.5685 85.5533 63.8963C83.3225 66.2241 80.138 67.388 75.9998 67.388ZM75.9998 47.0199C73.8983 47.0199 72.3464 47.6989 71.3442 49.0567C70.342 50.4146 69.8409 52.1119 69.8409 54.1487C69.8409 56.2179 70.342 57.9314 71.3442 59.2892C72.3464 60.6471 73.8983 61.3261 75.9998 61.3261C78.1012 61.3261 79.6369 60.6471 80.6068 59.2892C81.5767 57.9314 82.0617 56.2179 82.0617 54.1487C82.0617 52.1119 81.5767 50.4146 80.6068 49.0567C79.6369 47.6989 78.1012 47.0199 75.9998 47.0199ZM112.058 64.3813C111.088 65.4805 109.924 66.2564 108.566 66.709C107.208 67.1617 105.737 67.388 104.153 67.388C102.569 67.388 101.017 67.1455 99.4976 66.6605C98.0104 66.1432 96.7172 65.3188 95.618 64.1873C94.3894 62.8941 93.5327 61.4069 93.0477 59.7257C92.5628 58.0445 92.3203 56.3149 92.3203 54.5367C92.3203 50.3338 93.4842 46.9714 95.812 44.4497C96.8142 43.3505 98.1074 42.4937 99.6916 41.8794C101.308 41.2652 103.038 40.9742 104.881 41.0065C106.077 40.9419 107.37 41.152 108.76 41.637C110.15 42.1219 111.347 42.9302 112.349 44.0617L113.076 41.443H118.993V65.3997C118.993 66.4342 118.928 67.4526 118.799 68.4549C118.702 69.4894 118.524 70.4755 118.265 71.4131C118.007 72.383 117.619 73.3044 117.101 74.1773C116.519 75.2442 115.808 76.1494 114.968 76.893C114.159 77.6366 113.254 78.2509 112.252 78.7359C111.25 79.2531 110.183 79.6249 109.051 79.8513C107.92 80.0776 106.772 80.1907 105.608 80.1907C104.121 80.1907 102.698 80.0129 101.34 79.6573C99.9826 79.334 98.7379 78.7844 97.6063 78.0084C96.5071 77.2648 95.5857 76.3111 94.8421 75.1472C94.1308 73.9833 93.662 72.5931 93.4357 70.9766H100.71C100.839 71.7525 101.357 72.4476 102.262 73.0619C103.167 73.6762 104.266 73.9833 105.56 73.9833C106.95 73.9833 108.081 73.7085 108.954 73.1589C109.859 72.6093 110.538 71.8819 110.991 70.9766C111.444 70.0714 111.735 69.0368 111.864 67.8729C111.993 66.709 112.058 65.5451 112.058 64.3813ZM105.705 61.3261C106.772 61.3261 107.709 61.1321 108.518 60.7441C109.358 60.3561 110.037 59.8389 110.555 59.1923C111.072 58.5133 111.46 57.7374 111.718 56.8645C111.977 55.9592 112.106 55.0055 112.106 54.0033C112.106 51.9988 111.541 50.3499 110.409 49.0567C109.31 47.7312 107.726 47.0523 105.657 47.0199C104.59 47.0199 103.636 47.2139 102.795 47.6019C101.987 47.9898 101.308 48.5071 100.758 49.1537C100.241 49.8003 99.8532 50.5601 99.5946 51.433C99.336 52.3059 99.2066 53.2435 99.2066 54.2457C99.2066 55.3126 99.336 56.2825 99.5946 57.1555C99.8856 57.996 100.306 58.7396 100.855 59.3862C101.405 60.0005 102.084 60.4855 102.892 60.8411C103.701 61.1644 104.638 61.3261 105.705 61.3261ZM136.24 67.388C132.102 67.388 128.917 66.2241 126.686 63.8963C124.456 61.5362 123.34 58.2708 123.34 54.1003C123.34 52.0958 123.631 50.2853 124.213 48.6688C124.827 47.0199 125.668 45.6136 126.735 44.4497C127.834 43.2858 129.176 42.4129 130.76 41.8309C132.377 41.2167 134.203 40.9095 136.24 40.9095C138.244 40.9095 140.039 41.2167 141.623 41.8309C143.239 42.4129 144.597 43.2858 145.697 44.4497C146.828 45.6136 147.685 47.0199 148.267 48.6688C148.881 50.2853 149.188 52.0958 149.188 54.1003C149.188 58.3032 148.057 61.5685 145.794 63.8963C143.563 66.2241 140.378 67.388 136.24 67.388ZM136.24 47.0199C134.139 47.0199 132.587 47.6989 131.584 49.0567C130.582 50.4146 130.081 52.1119 130.081 54.1487C130.081 56.2179 130.582 57.9314 131.584 59.2892C132.587 60.6471 134.139 61.3261 136.24 61.3261C138.341 61.3261 139.877 60.6471 140.847 59.2892C141.817 57.9314 142.302 56.2179 142.302 54.1487C142.302 52.1119 141.817 50.4146 140.847 49.0567C139.877 47.6989 138.341 47.0199 136.24 47.0199Z" fill="#515151"/>
<path d="M34.324 196.188C33.61 196.188 32.998 196.318 32.488 196.579C31.9893 196.84 31.5757 197.191 31.247 197.633C30.9297 198.075 30.6973 198.585 30.55 199.163C30.4027 199.73 30.329 200.325 30.329 200.948C30.329 201.617 30.4083 202.246 30.567 202.835C30.7257 203.424 30.9693 203.94 31.298 204.382C31.6267 204.813 32.046 205.158 32.556 205.419C33.066 205.668 33.6723 205.793 34.375 205.793C35.225 205.793 35.939 205.617 36.517 205.266C37.095 204.915 37.469 204.444 37.639 203.855H39.254C38.9933 204.852 38.4437 205.651 37.605 206.252C36.7663 206.841 35.6783 207.136 34.341 207.136C33.4117 207.136 32.6013 206.983 31.91 206.677C31.2187 206.371 30.6407 205.946 30.176 205.402C29.7227 204.858 29.3827 204.212 29.156 203.464C28.9293 202.716 28.816 201.894 28.816 200.999C28.816 200.115 28.9293 199.299 29.156 198.551C29.3827 197.803 29.7283 197.157 30.193 196.613C30.6577 196.058 31.2357 195.627 31.927 195.321C32.6183 195.004 33.4343 194.845 34.375 194.845C35.0323 194.845 35.6217 194.924 36.143 195.083C36.6757 195.242 37.1347 195.468 37.52 195.763C37.9167 196.046 38.2397 196.392 38.489 196.8C38.7383 197.197 38.9197 197.639 39.033 198.126H37.537C37.367 197.537 36.9987 197.066 36.432 196.715C35.8767 196.364 35.174 196.188 34.324 196.188ZM45.0527 197.939C45.7667 197.939 46.3844 198.052 46.9057 198.279C47.4271 198.506 47.8634 198.823 48.2147 199.231C48.5774 199.639 48.8437 200.126 49.0137 200.693C49.1951 201.248 49.2857 201.86 49.2857 202.529C49.2857 203.198 49.1951 203.815 49.0137 204.382C48.8437 204.937 48.5774 205.419 48.2147 205.827C47.8634 206.224 47.4214 206.535 46.8887 206.762C46.3561 206.989 45.7327 207.102 45.0187 207.102C44.3047 207.102 43.6814 206.989 43.1487 206.762C42.6274 206.535 42.1854 206.224 41.8227 205.827C41.4714 205.419 41.2051 204.937 41.0237 204.382C40.8537 203.815 40.7687 203.198 40.7687 202.529C40.7687 201.86 40.8537 201.248 41.0237 200.693C41.2051 200.126 41.4714 199.639 41.8227 199.231C42.1854 198.823 42.6387 198.506 43.1827 198.279C43.7267 198.052 44.3501 197.939 45.0527 197.939ZM45.0187 205.827C45.5061 205.827 45.9254 205.742 46.2767 205.572C46.6394 205.402 46.9341 205.17 47.1607 204.875C47.3987 204.569 47.5687 204.218 47.6707 203.821C47.7841 203.424 47.8407 202.994 47.8407 202.529C47.8407 202.076 47.7841 201.651 47.6707 201.254C47.5687 200.846 47.3987 200.495 47.1607 200.2C46.9341 199.894 46.6394 199.656 46.2767 199.486C45.9254 199.316 45.5061 199.231 45.0187 199.231C44.5314 199.231 44.1121 199.316 43.7607 199.486C43.4094 199.656 43.1147 199.894 42.8767 200.2C42.6501 200.495 42.4801 200.846 42.3667 201.254C42.2647 201.651 42.2137 202.076 42.2137 202.529C42.2137 202.994 42.2647 203.424 42.3667 203.821C42.4801 204.218 42.6501 204.569 42.8767 204.875C43.1147 205.17 43.4094 205.402 43.7607 205.572C44.1121 205.742 44.5314 205.827 45.0187 205.827ZM52.6811 199.112C52.9644 198.715 53.3101 198.421 53.7181 198.228C54.1374 198.035 54.6021 197.939 55.1121 197.939C55.7354 197.95 56.2397 198.086 56.6251 198.347C57.0104 198.608 57.2994 198.953 57.4921 199.384C57.7981 198.931 58.1721 198.579 58.6141 198.33C59.0674 198.069 59.6001 197.939 60.2121 197.939C60.6994 197.939 61.1187 198.024 61.4701 198.194C61.8214 198.353 62.1047 198.579 62.3201 198.874C62.5354 199.157 62.6941 199.492 62.7961 199.877C62.8981 200.262 62.9491 200.682 62.9491 201.135V207H61.5041V201.866C61.5041 201.571 61.4871 201.271 61.4531 200.965C61.4304 200.648 61.3624 200.364 61.2491 200.115C61.1357 199.854 60.9657 199.645 60.7391 199.486C60.5124 199.316 60.2064 199.231 59.8211 199.231C59.4471 199.231 59.1297 199.322 58.8691 199.503C58.6084 199.673 58.3987 199.9 58.2401 200.183C58.0927 200.466 57.9851 200.778 57.9171 201.118C57.8491 201.458 57.8151 201.792 57.8151 202.121V207H56.3701V201.849C56.3701 201.566 56.3587 201.271 56.3361 200.965C56.3134 200.648 56.2454 200.364 56.1321 200.115C56.0301 199.854 55.8714 199.645 55.6561 199.486C55.4407 199.316 55.1404 199.231 54.7551 199.231C54.3471 199.231 54.0071 199.322 53.7351 199.503C53.4744 199.684 53.2591 199.917 53.0891 200.2C52.9304 200.483 52.8171 200.801 52.7491 201.152C52.6924 201.492 52.6641 201.821 52.6641 202.138V207H51.2191V198.041H52.6131L52.6811 199.112ZM65.1478 210.23V198.041H66.5248L66.5928 199.384C66.8988 198.919 67.3125 198.568 67.8338 198.33C68.3665 198.081 68.9388 197.95 69.5508 197.939C70.2421 197.939 70.8258 198.058 71.3018 198.296C71.7891 198.523 72.1915 198.846 72.5088 199.265C72.8375 199.673 73.0811 200.16 73.2398 200.727C73.3985 201.282 73.4778 201.883 73.4778 202.529C73.4778 203.186 73.3985 203.793 73.2398 204.348C73.0811 204.903 72.8375 205.385 72.5088 205.793C72.1801 206.201 71.7665 206.524 71.2678 206.762C70.7691 206.989 70.1741 207.102 69.4828 207.102C68.8028 207.102 68.2248 206.994 67.7488 206.779C67.2728 206.564 66.8875 206.263 66.5928 205.878V210.23H65.1478ZM69.3638 205.827C69.8511 205.827 70.2591 205.742 70.5878 205.572C70.9278 205.391 71.1998 205.153 71.4038 204.858C71.6191 204.552 71.7721 204.201 71.8628 203.804C71.9648 203.407 72.0215 202.982 72.0328 202.529C72.0328 202.076 71.9818 201.651 71.8798 201.254C71.7891 200.846 71.6361 200.495 71.4208 200.2C71.2055 199.905 70.9221 199.673 70.5708 199.503C70.2308 199.322 69.8171 199.231 69.3298 199.231C68.7518 199.231 68.2531 199.39 67.8338 199.707C67.4145 200.013 67.0971 200.404 66.8818 200.88C66.7571 201.141 66.6721 201.413 66.6268 201.696C66.5815 201.968 66.5588 202.251 66.5588 202.546C66.5588 202.886 66.5815 203.203 66.6268 203.498C66.6721 203.781 66.7571 204.053 66.8818 204.314C67.0971 204.745 67.4088 205.107 67.8168 205.402C68.2361 205.685 68.7518 205.827 69.3638 205.827ZM81.3066 205.861C81.1139 206.122 80.8929 206.331 80.6436 206.49C80.3942 206.649 80.1336 206.773 79.8616 206.864C79.6009 206.955 79.3346 207.017 79.0626 207.051C78.8019 207.085 78.5412 207.102 78.2806 207.102C77.8612 207.102 77.4646 207.051 77.0906 206.949C76.7166 206.847 76.3766 206.683 76.0706 206.456C75.7759 206.229 75.5379 205.946 75.3566 205.606C75.1866 205.266 75.1016 204.881 75.1016 204.45C75.1016 203.94 75.1922 203.515 75.3736 203.175C75.5662 202.824 75.8212 202.54 76.1386 202.325C76.4559 202.11 76.8186 201.962 77.2266 201.883C77.6459 201.792 78.0879 201.747 78.5526 201.747H81.1876C81.1876 200.988 81.0232 200.387 80.6946 199.945C80.3659 199.492 79.8106 199.254 79.0286 199.231C78.5526 199.231 78.1332 199.31 77.7706 199.469C77.4079 199.628 77.1586 199.888 77.0226 200.251H75.4756C75.5549 199.843 75.7136 199.497 75.9516 199.214C76.1896 198.919 76.4729 198.681 76.8016 198.5C77.1302 198.307 77.4872 198.166 77.8726 198.075C78.2579 197.984 78.6432 197.939 79.0286 197.939C79.6972 197.939 80.2582 198.052 80.7116 198.279C81.1762 198.494 81.5502 198.783 81.8336 199.146C82.1169 199.497 82.3152 199.928 82.4286 200.438C82.5419 200.948 82.5986 201.52 82.5986 202.155V207H81.3916L81.3066 205.861ZM79.6066 202.954C79.3346 202.954 79.0172 202.96 78.6546 202.971C78.3032 202.971 77.9632 203.005 77.6346 203.073C77.3059 203.141 77.0396 203.283 76.8356 203.498C76.6429 203.713 76.5466 203.997 76.5466 204.348C76.5466 204.609 76.5976 204.83 76.6996 205.011C76.8016 205.192 76.9376 205.345 77.1076 205.47C77.2889 205.595 77.4929 205.685 77.7196 205.742C77.9462 205.799 78.1786 205.827 78.4166 205.827C79.2666 205.827 79.9352 205.623 80.4226 205.215C80.9212 204.796 81.1762 204.189 81.1876 203.396V202.954H79.6066ZM84.8372 207V198.041H86.2312L86.2992 199.401C86.4466 199.152 86.6279 198.936 86.8432 198.755C87.0699 198.574 87.3136 198.421 87.5742 198.296C87.8349 198.171 88.1069 198.081 88.3902 198.024C88.6849 197.967 88.9682 197.939 89.2402 197.939C89.8862 197.939 90.4302 198.047 90.8722 198.262C91.3142 198.466 91.6656 198.755 91.9262 199.129C92.1869 199.492 92.3739 199.928 92.4872 200.438C92.6006 200.937 92.6572 201.475 92.6572 202.053V207H91.2122V202.444C91.2122 202.025 91.1839 201.622 91.1272 201.237C91.0819 200.852 90.9799 200.512 90.8212 200.217C90.6739 199.911 90.4586 199.667 90.1752 199.486C89.8919 199.305 89.5122 199.214 89.0362 199.214C88.5716 199.225 88.1579 199.339 87.7952 199.554C87.4439 199.769 87.1606 200.024 86.9452 200.319C86.6846 200.693 86.5089 201.107 86.4182 201.56C86.3276 202.002 86.2822 202.45 86.2822 202.903V207H84.8372ZM102.752 198.041V207C102.752 208.303 102.412 209.295 101.732 209.975C101.052 210.666 100.083 211.012 98.8252 211.012C98.0659 211.001 97.3802 210.899 96.7682 210.706C96.1675 210.525 95.6122 210.196 95.1022 209.72L95.7312 208.581C96.1732 208.932 96.6435 209.21 97.1422 209.414C97.6522 209.618 98.1849 209.72 98.7402 209.72C99.2049 209.72 99.6015 209.646 99.9302 209.499C100.259 209.363 100.525 209.165 100.729 208.904C100.945 208.655 101.098 208.354 101.188 208.003C101.29 207.652 101.341 207.272 101.341 206.864V205.793C101.194 206.02 101.007 206.224 100.78 206.405C100.565 206.575 100.327 206.717 100.066 206.83C99.8169 206.932 99.5449 207.006 99.2502 207.051C98.9669 207.108 98.6779 207.136 98.3832 207.136C97.7032 207.125 97.1365 207.017 96.6832 206.813C96.2412 206.609 95.8842 206.326 95.6122 205.963C95.3515 205.6 95.1645 205.17 95.0512 204.671C94.9379 204.161 94.8812 203.6 94.8812 202.988V198.041H96.3262V202.58C96.3262 202.988 96.3489 203.39 96.3942 203.787C96.4509 204.184 96.5585 204.535 96.7172 204.841C96.8759 205.147 97.1082 205.396 97.4142 205.589C97.7202 205.77 98.1282 205.861 98.6382 205.861C99.1482 205.861 99.5789 205.753 99.9302 205.538C100.293 205.323 100.571 205.051 100.763 204.722C100.979 204.382 101.12 204.008 101.188 203.6C101.268 203.192 101.307 202.773 101.307 202.342V198.041H102.752ZM109.607 207V198.041H111.001L111.069 199.401C111.216 199.152 111.397 198.936 111.613 198.755C111.839 198.574 112.083 198.421 112.344 198.296C112.604 198.171 112.876 198.081 113.16 198.024C113.454 197.967 113.738 197.939 114.01 197.939C114.656 197.939 115.2 198.047 115.642 198.262C116.084 198.466 116.435 198.755 116.696 199.129C116.956 199.492 117.143 199.928 117.257 200.438C117.37 200.937 117.427 201.475 117.427 202.053V207H115.982V202.444C115.982 202.025 115.953 201.622 115.897 201.237C115.851 200.852 115.749 200.512 115.591 200.217C115.443 199.911 115.228 199.667 114.945 199.486C114.661 199.305 114.282 199.214 113.806 199.214C113.341 199.225 112.927 199.339 112.565 199.554C112.213 199.769 111.93 200.024 111.715 200.319C111.454 200.693 111.278 201.107 111.188 201.56C111.097 202.002 111.052 202.45 111.052 202.903V207H109.607ZM125.55 205.861C125.357 206.122 125.136 206.331 124.887 206.49C124.637 206.649 124.377 206.773 124.105 206.864C123.844 206.955 123.578 207.017 123.306 207.051C123.045 207.085 122.784 207.102 122.524 207.102C122.104 207.102 121.708 207.051 121.334 206.949C120.96 206.847 120.62 206.683 120.314 206.456C120.019 206.229 119.781 205.946 119.6 205.606C119.43 205.266 119.345 204.881 119.345 204.45C119.345 203.94 119.435 203.515 119.617 203.175C119.809 202.824 120.064 202.54 120.382 202.325C120.699 202.11 121.062 201.962 121.47 201.883C121.889 201.792 122.331 201.747 122.796 201.747H125.431C125.431 200.988 125.266 200.387 124.938 199.945C124.609 199.492 124.054 199.254 123.272 199.231C122.796 199.231 122.376 199.31 122.014 199.469C121.651 199.628 121.402 199.888 121.266 200.251H119.719C119.798 199.843 119.957 199.497 120.195 199.214C120.433 198.919 120.716 198.681 121.045 198.5C121.373 198.307 121.73 198.166 122.116 198.075C122.501 197.984 122.886 197.939 123.272 197.939C123.94 197.939 124.501 198.052 124.955 198.279C125.419 198.494 125.793 198.783 126.077 199.146C126.36 199.497 126.558 199.928 126.672 200.438C126.785 200.948 126.842 201.52 126.842 202.155V207H125.635L125.55 205.861ZM123.85 202.954C123.578 202.954 123.26 202.96 122.898 202.971C122.546 202.971 122.206 203.005 121.878 203.073C121.549 203.141 121.283 203.283 121.079 203.498C120.886 203.713 120.79 203.997 120.79 204.348C120.79 204.609 120.841 204.83 120.943 205.011C121.045 205.192 121.181 205.345 121.351 205.47C121.532 205.595 121.736 205.685 121.963 205.742C122.189 205.799 122.422 205.827 122.66 205.827C123.51 205.827 124.178 205.623 124.666 205.215C125.164 204.796 125.419 204.189 125.431 203.396V202.954H123.85ZM130.542 199.112C130.826 198.715 131.171 198.421 131.579 198.228C131.999 198.035 132.463 197.939 132.973 197.939C133.597 197.95 134.101 198.086 134.486 198.347C134.872 198.608 135.161 198.953 135.353 199.384C135.659 198.931 136.033 198.579 136.475 198.33C136.929 198.069 137.461 197.939 138.073 197.939C138.561 197.939 138.98 198.024 139.331 198.194C139.683 198.353 139.966 198.579 140.181 198.874C140.397 199.157 140.555 199.492 140.657 199.877C140.759 200.262 140.81 200.682 140.81 201.135V207H139.365V201.866C139.365 201.571 139.348 201.271 139.314 200.965C139.292 200.648 139.224 200.364 139.11 200.115C138.997 199.854 138.827 199.645 138.6 199.486C138.374 199.316 138.068 199.231 137.682 199.231C137.308 199.231 136.991 199.322 136.73 199.503C136.47 199.673 136.26 199.9 136.101 200.183C135.954 200.466 135.846 200.778 135.778 201.118C135.71 201.458 135.676 201.792 135.676 202.121V207H134.231V201.849C134.231 201.566 134.22 201.271 134.197 200.965C134.175 200.648 134.107 200.364 133.993 200.115C133.891 199.854 133.733 199.645 133.517 199.486C133.302 199.316 133.002 199.231 132.616 199.231C132.208 199.231 131.868 199.322 131.596 199.503C131.336 199.684 131.12 199.917 130.95 200.2C130.792 200.483 130.678 200.801 130.61 201.152C130.554 201.492 130.525 201.821 130.525 202.138V207H129.08V198.041H130.474L130.542 199.112ZM144.131 203.056C144.165 203.453 144.244 203.821 144.369 204.161C144.505 204.49 144.686 204.779 144.913 205.028C145.14 205.277 145.417 205.476 145.746 205.623C146.086 205.759 146.477 205.827 146.919 205.827C147.134 205.827 147.355 205.81 147.582 205.776C147.82 205.731 148.041 205.663 148.245 205.572C148.449 205.47 148.63 205.34 148.789 205.181C148.948 205.022 149.067 204.83 149.146 204.603H150.625C150.523 205.034 150.347 205.408 150.098 205.725C149.86 206.042 149.571 206.303 149.231 206.507C148.902 206.711 148.534 206.864 148.126 206.966C147.718 207.057 147.304 207.102 146.885 207.102C146.171 207.102 145.548 206.989 145.015 206.762C144.494 206.535 144.057 206.224 143.706 205.827C143.355 205.419 143.094 204.937 142.924 204.382C142.754 203.815 142.669 203.198 142.669 202.529C142.669 201.86 142.76 201.248 142.941 200.693C143.134 200.126 143.406 199.639 143.757 199.231C144.108 198.823 144.539 198.506 145.049 198.279C145.559 198.052 146.165 197.939 146.868 197.939C147.582 197.939 148.2 198.081 148.721 198.364C149.242 198.647 149.662 199.021 149.979 199.486C150.296 199.939 150.517 200.432 150.642 200.965C150.778 201.498 150.835 201.991 150.812 202.444C150.812 202.546 150.806 202.648 150.795 202.75C150.795 202.852 150.789 202.954 150.778 203.056H144.131ZM149.35 201.798C149.327 201.039 149.089 200.421 148.636 199.945C148.183 199.469 147.576 199.231 146.817 199.231C146.398 199.231 146.029 199.299 145.712 199.435C145.395 199.571 145.128 199.758 144.913 199.996C144.698 200.234 144.528 200.512 144.403 200.829C144.278 201.135 144.199 201.458 144.165 201.798H149.35Z" fill="#515151"/>
<path d="M270.289 28.048C270.577 27.8027 270.892 27.536 271.233 27.248C271.585 26.9493 271.911 26.6293 272.209 26.288C272.519 25.9467 272.78 25.5893 272.993 25.216C273.207 24.832 273.319 24.416 273.329 23.968C273.351 23.2853 273.153 22.7627 272.737 22.4C272.321 22.0267 271.772 21.84 271.089 21.84C270.545 21.84 270.071 21.952 269.665 22.176C269.26 22.4 268.993 22.7253 268.865 23.152H267.377C267.452 22.7147 267.607 22.336 267.841 22.016C268.087 21.6853 268.38 21.4133 268.721 21.2C269.073 20.9867 269.457 20.8267 269.873 20.72C270.289 20.6133 270.716 20.56 271.153 20.56C271.676 20.56 272.156 20.6347 272.593 20.784C273.031 20.9227 273.409 21.1307 273.729 21.408C274.049 21.6853 274.295 22.032 274.465 22.448C274.647 22.8533 274.737 23.3173 274.737 23.84C274.737 24.3627 274.657 24.832 274.497 25.248C274.348 25.664 274.14 26.048 273.873 26.4C273.617 26.752 273.324 27.0827 272.993 27.392C272.663 27.7013 272.321 28.0107 271.969 28.32L269.105 30.736H274.865V32H267.089V30.848L270.289 28.048ZM285.416 26.352C285.416 27.0773 285.341 27.7867 285.192 28.48C285.053 29.1733 284.813 29.792 284.472 30.336C284.131 30.8693 283.677 31.3013 283.112 31.632C282.547 31.9627 281.843 32.128 281 32.128C280.147 32.128 279.437 31.9627 278.872 31.632C278.307 31.3013 277.853 30.8693 277.512 30.336C277.171 29.792 276.931 29.184 276.792 28.512C276.653 27.84 276.584 27.12 276.584 26.352C276.584 25.584 276.653 24.864 276.792 24.192C276.931 23.5093 277.171 22.9013 277.512 22.368C277.853 21.8347 278.307 21.4027 278.872 21.072C279.437 20.7307 280.147 20.56 281 20.56C281.843 20.56 282.547 20.7253 283.112 21.056C283.677 21.3867 284.131 21.824 284.472 22.368C284.813 22.912 285.053 23.5307 285.192 24.224C285.341 24.9173 285.416 25.6267 285.416 26.352ZM278.008 26.352C278.008 26.864 278.045 27.3867 278.12 27.92C278.195 28.4533 278.339 28.9387 278.552 29.376C278.765 29.8133 279.064 30.1707 279.448 30.448C279.843 30.7253 280.36 30.864 281 30.864C281.629 30.864 282.136 30.7253 282.52 30.448C282.915 30.1707 283.219 29.8133 283.432 29.376C283.645 28.9387 283.789 28.4533 283.864 27.92C283.939 27.3867 283.976 26.864 283.976 26.352C283.976 25.8507 283.939 25.3333 283.864 24.8C283.789 24.2667 283.645 23.7813 283.432 23.344C283.219 22.896 282.915 22.5333 282.52 22.256C282.136 21.968 281.629 21.824 281 21.824C280.36 21.824 279.843 21.968 279.448 22.256C279.064 22.5333 278.765 22.896 278.552 23.344C278.339 23.7813 278.195 24.2667 278.12 24.8C278.045 25.3333 278.008 25.8507 278.008 26.352ZM289.758 28.048C290.046 27.8027 290.361 27.536 290.702 27.248C291.054 26.9493 291.379 26.6293 291.678 26.288C291.987 25.9467 292.249 25.5893 292.462 25.216C292.675 24.832 292.787 24.416 292.798 23.968C292.819 23.2853 292.622 22.7627 292.206 22.4C291.79 22.0267 291.241 21.84 290.558 21.84C290.014 21.84 289.539 21.952 289.134 22.176C288.729 22.4 288.462 22.7253 288.334 23.152H286.846C286.921 22.7147 287.075 22.336 287.31 22.016C287.555 21.6853 287.849 21.4133 288.19 21.2C288.542 20.9867 288.926 20.8267 289.342 20.72C289.758 20.6133 290.185 20.56 290.622 20.56C291.145 20.56 291.625 20.6347 292.062 20.784C292.499 20.9227 292.878 21.1307 293.198 21.408C293.518 21.6853 293.763 22.032 293.934 22.448C294.115 22.8533 294.206 23.3173 294.206 23.84C294.206 24.3627 294.126 24.832 293.966 25.248C293.817 25.664 293.609 26.048 293.342 26.4C293.086 26.752 292.793 27.0827 292.462 27.392C292.131 27.7013 291.79 28.0107 291.438 28.32L288.574 30.736H294.334V32H286.558V30.848L289.758 28.048ZM296.453 26.912L296.965 20.688H303.733V21.968H298.213L297.893 25.52C298.181 25.2853 298.533 25.0987 298.949 24.96C299.365 24.8107 299.877 24.736 300.485 24.736C301.029 24.736 301.525 24.8213 301.973 24.992C302.421 25.1627 302.805 25.408 303.125 25.728C303.445 26.0373 303.69 26.416 303.861 26.864C304.042 27.312 304.133 27.808 304.133 28.352C304.133 28.9493 304.026 29.4827 303.813 29.952C303.61 30.4107 303.327 30.8053 302.965 31.136C302.602 31.4667 302.17 31.7173 301.669 31.888C301.178 32.0587 300.645 32.144 300.069 32.144C299.599 32.144 299.146 32.0907 298.709 31.984C298.282 31.8773 297.893 31.7173 297.541 31.504C297.189 31.28 296.89 30.9973 296.645 30.656C296.399 30.3147 296.229 29.9093 296.133 29.44H297.541C297.626 29.664 297.754 29.8667 297.925 30.048C298.095 30.2187 298.287 30.368 298.501 30.496C298.725 30.6133 298.959 30.704 299.205 30.768C299.45 30.832 299.695 30.864 299.941 30.864C300.325 30.864 300.682 30.816 301.013 30.72C301.354 30.624 301.647 30.48 301.893 30.288C302.149 30.0853 302.346 29.8347 302.485 29.536C302.623 29.2267 302.693 28.8587 302.693 28.432C302.693 27.6533 302.458 27.056 301.989 26.64C301.519 26.224 300.911 26.016 300.165 26.016C299.717 26.016 299.301 26.096 298.917 26.256C298.543 26.416 298.202 26.6347 297.893 26.912H296.453Z" fill="#515151"/>
<rect x="28.5" y="21.5" width="143" height="66" stroke="#4DB6F1"/>
<rect x="167.5" y="21.5" width="4" height="4" fill="white" stroke="#4DB6F1"/>
<rect x="168.5" y="83.5" width="4" height="4" fill="white" stroke="#4DB6F1"/>
<rect x="28.5" y="83.5" width="4" height="4" fill="white" stroke="#4DB6F1"/>
<rect x="28.5" y="21.5" width="4" height="4" fill="white" stroke="#4DB6F1"/>
<path d="M170.257 92.1816C170.257 91.6129 170.415 91.0554 170.714 90.5716C171.013 90.0878 171.441 89.6968 171.95 89.4425C172.459 89.1881 173.028 89.0804 173.594 89.1315C174.161 89.1826 174.702 89.3904 175.157 89.7316L199.651 108.113C202.003 109.877 200.753 113.625 197.813 113.625H185.726C185.256 113.625 184.793 113.733 184.372 113.94C183.951 114.147 183.583 114.448 183.297 114.82L175.745 124.666C173.966 126.987 170.254 125.728 170.254 122.801L170.257 92.1816Z" fill="#335CFF"/>
</svg>
