<svg xmlns="http://www.w3.org/2000/svg" width="324" height="239" fill="none"><rect width="324" height="239" fill="#fff" rx="16"/><path fill="#000" fill-opacity=".16" d="M117.713 56.944h.698v139.617h-.698zM199.562 56.944h.698v139.617h-.698zM281.414 56.944h.698v139.617h-.698zM35.863 56.944h.698v139.617h-.698z"/><path fill="#707070" d="M54.693 216h-.99v-6.448h-1.637v-.671q.34-.022.625-.057.285-.046.523-.148.24-.102.432-.273.194-.17.353-.443h.694zm6.025-5.277q.284-.397.693-.591.422-.193.933-.193.625.01 1.012.272t.58.694a2.2 2.2 0 0 1 .75-.705q.456-.261 1.07-.261.489 0 .841.17.353.16.569.455.216.285.318.671t.103.842V216h-.967v-3.434q0-.296-.034-.603a1.7 1.7 0 0 0-.137-.569 1 1 0 0 0-.34-.421q-.228-.17-.615-.17-.375 0-.637.182a1.3 1.3 0 0 0-.42.455 2.3 2.3 0 0 0-.217.625 3.4 3.4 0 0 0-.068.671V216h-.966v-3.446a8 8 0 0 0-.023-.591 1.7 1.7 0 0 0-.137-.569.94.94 0 0 0-.318-.421q-.216-.17-.603-.17-.41 0-.682.182a1.5 1.5 0 0 0-.432.466q-.159.285-.228.637a4 4 0 0 0-.057.66V216h-.966v-5.993h.932zm10.978-.784q.716 0 1.24.227.522.228.875.637.363.41.535.978.181.557.182 1.228 0 .671-.182 1.24a2.438 2.438 0 0 1-1.422 1.592q-.534.227-1.25.227-.718 0-1.252-.227a2.6 2.6 0 0 1-.887-.626 2.8 2.8 0 0 1-.534-.966 4.3 4.3 0 0 1-.171-1.24q0-.671.17-1.228.183-.569.535-.978.364-.41.91-.637t1.25-.227m-.023 5.276q.49 0 .842-.17a1.6 1.6 0 0 0 .591-.467q.24-.306.341-.705.114-.397.114-.864 0-.454-.114-.853a1.8 1.8 0 0 0-.341-.705 1.5 1.5 0 0 0-.591-.478 1.9 1.9 0 0 0-.842-.17q-.489 0-.841.17a1.65 1.65 0 0 0-.592.478 2 2 0 0 0-.341.705q-.102.399-.102.853 0 .467.102.864.114.399.341.705.24.297.592.467t.841.17m4.148.785v-5.993h.932l.046.91q.147-.25.364-.433.227-.181.489-.307.261-.125.546-.182.295-.056.568-.056.648 0 1.092.216.443.204.705.58.261.363.376.875.113.5.113 1.081V216h-.967v-3.048q0-.42-.056-.807a1.9 1.9 0 0 0-.205-.683 1.2 1.2 0 0 0-.432-.489q-.285-.182-.762-.182-.467.012-.83.228a2 2 0 0 0-.569.512q-.262.375-.352.83-.091.444-.091.898V216zm8.231-5.993h1.604v.853h-1.604v3.104q0 .615.24.91.238.284.886.284h.444V216h-.648q-1.024 0-1.456-.466t-.432-1.467v-3.207h-.978v-.853h.978v-1.786h.966zM86.75 216v-8.04h.967v2.968q.147-.228.375-.421a2.4 2.4 0 0 1 .478-.318q.25-.126.545-.182.307-.068.592-.068.648 0 1.08.216.443.204.705.58.273.363.376.875.113.501.113 1.092V216h-.966v-3.002q0-.41-.046-.796a2 2 0 0 0-.205-.705 1.3 1.3 0 0 0-.455-.501q-.295-.204-.807-.205-.42 0-.785.217-.352.204-.568.523a2 2 0 0 0-.353.784q-.08.432-.08.887V216zM142.616 213.548l.671-.569q.375-.318.693-.682.33-.364.558-.762.227-.41.238-.887.023-.728-.42-1.114-.444-.398-1.172-.398-.58 0-1.012.238a1.15 1.15 0 0 0-.569.694h-1.057a1.9 1.9 0 0 1 .33-.807q.262-.353.625-.58.375-.228.819-.342.444-.113.91-.113.556 0 1.023.159.466.147.808.443.341.297.523.74.193.432.193.989 0 .558-.17 1.001a3.1 3.1 0 0 1-.444.819q-.273.375-.625.705-.353.33-.728.659l-2.036 1.718h4.094v.898h-5.527v-.819zm8.631-2.468a1.8 1.8 0 0 1 .693-.591 2.2 2.2 0 0 1 .933-.194q.625.012 1.012.273.387.262.58.694.308-.454.75-.705.456-.262 1.069-.262.49 0 .842.171.353.16.569.455.216.284.318.671t.102.841v3.924h-.966v-3.435q0-.296-.034-.602a1.7 1.7 0 0 0-.137-.569 1 1 0 0 0-.341-.421q-.227-.17-.614-.17-.376 0-.637.182a1.3 1.3 0 0 0-.421.455q-.147.284-.216.625a3.5 3.5 0 0 0-.068.671v3.264h-.967v-3.446q0-.284-.022-.591a1.7 1.7 0 0 0-.137-.569.94.94 0 0 0-.318-.421q-.216-.17-.603-.17-.41 0-.682.182a1.5 1.5 0 0 0-.433.466q-.16.285-.227.637a4 4 0 0 0-.057.659v3.253h-.967v-5.993h.933zm10.978-.785q.715 0 1.239.228.523.228.876.637.364.41.534.978.183.557.182 1.228 0 .671-.182 1.24a2.441 2.441 0 0 1-1.421 1.592q-.535.227-1.251.227-.717 0-1.251-.227a2.6 2.6 0 0 1-.887-.626 2.8 2.8 0 0 1-.535-.966 4.3 4.3 0 0 1-.17-1.24q0-.671.17-1.228.183-.569.535-.978.363-.41.91-.637a3.2 3.2 0 0 1 1.251-.228m-.023 5.277q.489 0 .841-.17.364-.17.592-.467.239-.306.341-.705.114-.398.114-.864 0-.455-.114-.853a1.8 1.8 0 0 0-.341-.705 1.53 1.53 0 0 0-.592-.478 1.9 1.9 0 0 0-.841-.17q-.49 0-.842.17a1.65 1.65 0 0 0-.591.478 2 2 0 0 0-.341.705q-.103.398-.103.853 0 .466.103.864.113.399.341.705.238.296.591.467.353.17.842.17m4.148.785v-5.993h.932l.046.91q.148-.25.364-.433.226-.181.489-.307.261-.125.545-.182.297-.057.569-.057.648 0 1.092.217.444.204.705.58.261.363.375.875.114.5.114 1.081v3.309h-.967v-3.048q0-.42-.057-.807a1.9 1.9 0 0 0-.204-.683 1.2 1.2 0 0 0-.432-.489q-.285-.182-.762-.182a1.7 1.7 0 0 0-.831.228 1.95 1.95 0 0 0-.568.512q-.262.375-.353.83a4.5 4.5 0 0 0-.091.898v2.741zm8.231-5.993h1.604v.853h-1.604v3.104q0 .615.239.91.239.284.887.284h.444v.842h-.649q-1.023 0-1.455-.466t-.432-1.467v-3.207h-.978v-.853h.978v-1.786h.966zm2.697 5.993v-8.04h.966v2.968q.148-.228.376-.421a2.4 2.4 0 0 1 .477-.318q.25-.126.546-.182a2.7 2.7 0 0 1 .592-.069q.648 0 1.08.217.444.204.705.58.273.363.375.875.114.501.114 1.092v3.298h-.967v-3.002q0-.41-.045-.796a2 2 0 0 0-.205-.706 1.3 1.3 0 0 0-.455-.5q-.296-.204-.807-.205-.421 0-.785.216a1.7 1.7 0 0 0-.568.524 2 2 0 0 0-.353.784q-.08.432-.08.887v2.798zM222.309 216.448q-.477 0-.966-.091a3.3 3.3 0 0 1-.899-.307 2.4 2.4 0 0 1-.705-.591 1.9 1.9 0 0 1-.364-.899h1.024q.102.296.307.489.216.182.477.296.273.114.569.159t.569.045q.25 0 .568-.045.32-.045.592-.193a1.2 1.2 0 0 0 .466-.432q.193-.296.193-.774 0-.455-.182-.728a1.14 1.14 0 0 0-.455-.42 1.8 1.8 0 0 0-.625-.194 5 5 0 0 0-.694-.045h-.773v-.887h.466q.307 0 .569-.012.261-.022.58-.159a1.45 1.45 0 0 0 .58-.477q.216-.319.227-.728 0-.41-.136-.671a1.07 1.07 0 0 0-.364-.41 1.3 1.3 0 0 0-.512-.193 3 3 0 0 0-.58-.057q-.239 0-.5.057-.25.045-.478.159a1.4 1.4 0 0 0-.387.307 1 1 0 0 0-.238.444h-.99q.069-.5.319-.853.25-.352.614-.58a2.8 2.8 0 0 1 .819-.33 4.2 4.2 0 0 1 1.876.011q.455.103.796.353.342.238.535.637.204.397.204.966 0 .217-.045.467a1.7 1.7 0 0 1-.171.477q-.125.24-.364.478a1.9 1.9 0 0 1-.625.398q.762.148 1.16.671.398.511.398 1.24v.045q0 .625-.228 1.08a2.05 2.05 0 0 1-.602.74 2.7 2.7 0 0 1-.91.42 4.4 4.4 0 0 1-1.115.137m8.304-5.368q.285-.398.694-.591.42-.194.932-.194.626.012 1.012.273.387.262.58.694a2.2 2.2 0 0 1 .751-.705q.455-.262 1.069-.262.489 0 .841.171a1.4 1.4 0 0 1 .569.455q.216.284.319.671.102.387.102.841v3.924h-.967v-3.435q0-.296-.034-.602a1.7 1.7 0 0 0-.136-.569 1 1 0 0 0-.342-.421q-.227-.17-.614-.17-.375 0-.636.182a1.26 1.26 0 0 0-.421.455 2.3 2.3 0 0 0-.216.625 3.4 3.4 0 0 0-.069.671v3.264h-.966v-3.446q0-.284-.023-.591a1.7 1.7 0 0 0-.136-.569.95.95 0 0 0-.319-.421q-.216-.17-.603-.17-.41 0-.682.182a1.5 1.5 0 0 0-.432.466q-.159.285-.228.637a4 4 0 0 0-.056.659v3.253h-.967v-5.993h.933zm10.978-.785q.717 0 1.24.228.522.228.875.637.364.41.535.978.182.557.182 1.228t-.182 1.24a2.6 2.6 0 0 1-.535.966q-.352.398-.887.626-.534.227-1.251.227-.715 0-1.251-.227a2.6 2.6 0 0 1-.887-.626 2.8 2.8 0 0 1-.534-.966 4.3 4.3 0 0 1-.171-1.24q0-.671.171-1.228a2.8 2.8 0 0 1 .534-.978q.364-.41.91-.637a3.2 3.2 0 0 1 1.251-.228m-.023 5.277q.49 0 .842-.17a1.56 1.56 0 0 0 .591-.467q.239-.306.341-.705.114-.398.114-.864 0-.455-.114-.853a1.8 1.8 0 0 0-.341-.705 1.5 1.5 0 0 0-.591-.478 1.9 1.9 0 0 0-.842-.17q-.489 0-.841.17a1.66 1.66 0 0 0-.592.478 2 2 0 0 0-.341.705q-.102.398-.102.853 0 .466.102.864.114.399.341.705.24.296.592.467.352.17.841.17m4.148.785v-5.993h.933l.045.91q.148-.25.364-.433a2.6 2.6 0 0 1 .489-.307q.261-.125.546-.182.296-.057.569-.057.648 0 1.091.217.444.204.705.58.262.363.376.875.113.5.113 1.081v3.309h-.966v-3.048q0-.42-.057-.807a1.9 1.9 0 0 0-.205-.683 1.18 1.18 0 0 0-.432-.489q-.284-.182-.762-.182a1.7 1.7 0 0 0-.83.228 2 2 0 0 0-.569.512 2.2 2.2 0 0 0-.352.83 4.4 4.4 0 0 0-.091.898v2.741zm8.232-5.993h1.603v.853h-1.603v3.104q0 .615.238.91.24.284.888.284h.443v.842h-.648q-1.024 0-1.456-.466t-.432-1.467v-3.207h-.978v-.853h.978v-1.786h.967zm2.696 5.993v-8.04h.967v2.968a2 2 0 0 1 .375-.421q.228-.194.478-.318.25-.126.546-.182.307-.069.591-.069.648 0 1.08.217.444.204.705.58.274.363.376.875.114.501.114 1.092v3.298h-.967v-3.002q0-.41-.046-.796a2 2 0 0 0-.204-.706 1.3 1.3 0 0 0-.455-.5q-.295-.204-.808-.205-.42 0-.784.216a1.7 1.7 0 0 0-.569.524 2 2 0 0 0-.353.784 5 5 0 0 0-.079.887v2.798z"/><path fill="#000" fill-opacity=".16" d="M37 197v-1h245v1z"/><path fill="url(#a)" fill-opacity=".2" d="M280.891 58.69c0 103.316-159.629 132.171-239.444 133.683h239.444z"/><path stroke="#1EAE50" stroke-width="2.094" d="M41.447 192.373c79.815-1.513 239.444-30.367 239.444-133.683"/><path fill="#191919" d="M170.304 83.943q-1.396 0-2.825-.266a9.7 9.7 0 0 1-2.625-.897 7 7 0 0 1-2.061-1.728q-.83-1.065-1.063-2.626h2.991q.298.864.897 1.43.631.531 1.396.863a7 7 0 0 0 1.661.465q.865.134 1.662.133.731 0 1.662-.133a5.1 5.1 0 0 0 1.728-.564 3.55 3.55 0 0 0 1.363-1.263q.565-.864.565-2.26 0-1.33-.532-2.127a3.4 3.4 0 0 0-1.329-1.23 5.2 5.2 0 0 0-1.828-.565 15 15 0 0 0-2.028-.133h-2.26V70.45h1.363a38 38 0 0 0 1.662-.033q.763-.067 1.695-.466a4.2 4.2 0 0 0 1.695-1.395q.631-.93.664-2.127 0-1.197-.399-1.961a3.1 3.1 0 0 0-1.063-1.197 3.8 3.8 0 0 0-1.496-.565 8.6 8.6 0 0 0-1.694-.166q-.699 0-1.463.166a5.2 5.2 0 0 0-1.396.466 4 4 0 0 0-1.13.897 2.94 2.94 0 0 0-.697 1.296h-2.892q.2-1.463.931-2.492a6.2 6.2 0 0 1 1.794-1.695 8.1 8.1 0 0 1 2.393-.964q1.33-.3 2.692-.3 1.496 0 2.792.333 1.33.3 2.326 1.03a4.76 4.76 0 0 1 1.562 1.861q.598 1.163.598 2.825 0 .631-.133 1.363-.132.697-.498 1.396-.366.697-1.064 1.396-.697.698-1.827 1.163 2.226.432 3.389 1.96 1.164 1.496 1.164 3.623v.133q0 1.827-.665 3.157a6 6 0 0 1-1.761 2.16q-1.13.831-2.659 1.23a12.9 12.9 0 0 1-3.257.399m18.898 0q-1.396 0-2.825-.266a9.7 9.7 0 0 1-2.625-.897 7 7 0 0 1-2.061-1.728q-.83-1.065-1.063-2.626h2.991q.299.864.897 1.43.631.531 1.396.863a7 7 0 0 0 1.661.465q.864.134 1.662.133.731 0 1.662-.133a5.1 5.1 0 0 0 1.728-.564 3.55 3.55 0 0 0 1.363-1.263q.565-.864.565-2.26 0-1.33-.532-2.127a3.4 3.4 0 0 0-1.33-1.23q-.797-.432-1.827-.565a15 15 0 0 0-2.028-.133h-2.26V70.45h1.363a38 38 0 0 0 1.662-.033q.764-.067 1.695-.466a4.2 4.2 0 0 0 1.695-1.395q.631-.93.664-2.127 0-1.197-.399-1.961a3.1 3.1 0 0 0-1.063-1.197 3.8 3.8 0 0 0-1.496-.565 8.6 8.6 0 0 0-1.694-.166q-.699 0-1.463.166a5.2 5.2 0 0 0-1.396.466 4 4 0 0 0-1.13.897 2.94 2.94 0 0 0-.697 1.296h-2.892q.2-1.463.931-2.492a6.2 6.2 0 0 1 1.794-1.695 8.1 8.1 0 0 1 2.393-.964q1.33-.3 2.692-.3 1.496 0 2.792.333 1.33.3 2.326 1.03a4.76 4.76 0 0 1 1.562 1.861q.598 1.163.598 2.825 0 .631-.133 1.363-.132.697-.498 1.396-.365.697-1.064 1.396-.698.698-1.827 1.163 2.226.432 3.389 1.96 1.164 1.496 1.164 3.623v.133q0 1.827-.665 3.157a6 6 0 0 1-1.761 2.16q-1.13.831-2.659 1.23a12.9 12.9 0 0 1-3.257.399m16.04-13.626q-1.197 0-2.127-.399a4.2 4.2 0 0 1-1.496-1.097 5.5 5.5 0 0 1-.93-1.661 6.9 6.9 0 0 1-.299-2.06q0-1.131.299-2.061a5 5 0 0 1 .93-1.662 4.14 4.14 0 0 1 1.529-1.064q.897-.398 2.094-.398 2.326 0 3.556 1.462 1.23 1.429 1.229 3.722 0 1.097-.332 2.06a5 5 0 0 1-.897 1.662 4.2 4.2 0 0 1-1.496 1.097q-.897.399-2.06.399m-2.194 13.36 14.457-23.497h2.925l-14.424 23.497zm2.194-21.403q-1.33 0-1.895.864a3.5 3.5 0 0 0-.565 1.961q0 1.163.565 2.027.566.831 1.895.831 1.263 0 1.794-.864.532-.863.532-1.994 0-1.097-.532-1.96-.531-.865-1.794-.865m13.16 21.602q-1.195 0-2.127-.398a4.5 4.5 0 0 1-1.528-1.097 5.6 5.6 0 0 1-.931-1.662 7 7 0 0 1-.299-2.06q0-1.13.299-2.06a4.8 4.8 0 0 1 .964-1.663q.631-.698 1.529-1.063.897-.399 2.093-.399 1.131 0 2.028.399a3.85 3.85 0 0 1 1.495 1.063 4.4 4.4 0 0 1 .931 1.662q.332.93.332 2.06 0 1.098-.332 2.061a4.7 4.7 0 0 1-.931 1.662q-.598.697-1.495 1.097-.897.398-2.028.398m-.033-8.042q-1.329 0-1.894.864-.532.864-.532 1.96 0 1.164.565 2.028.565.83 1.861.83t1.795-.863q.531-.864.532-1.994 0-1.098-.532-1.961-.499-.864-1.795-.864M161.742 105v-5.838h.909l.044.886q.144-.244.354-.42.222-.178.477-.3.255-.121.532-.177.288-.056.553-.056.632 0 1.064.21.432.2.687.566.254.355.365.853.111.488.111 1.052V105h-.942v-2.969q0-.41-.055-.786a1.8 1.8 0 0 0-.199-.665 1.14 1.14 0 0 0-.421-.476q-.277-.178-.743-.178a1.64 1.64 0 0 0-.808.222 1.9 1.9 0 0 0-.554.498q-.254.366-.344.809a4.4 4.4 0 0 0-.088.875V105zm6.944-2.57q.033.387.155.72.133.32.355.565.22.244.543.388.332.132.764.133.21 0 .432-.034.233-.043.432-.133.2-.1.355-.254a1 1 0 0 0 .232-.377h.964a1.9 1.9 0 0 1-.343.731 2 2 0 0 1-.565.51 2.5 2.5 0 0 1-.721.299 3.7 3.7 0 0 1-.808.088q-.698 0-1.219-.221a2.4 2.4 0 0 1-.853-.609 2.6 2.6 0 0 1-.509-.942 4.2 4.2 0 0 1-.167-1.208q0-.653.178-1.196.188-.554.531-.953t.842-.62q.5-.222 1.186-.222.697 0 1.207.277.51.278.82.732.31.442.432.963.133.521.111.964 0 .1-.011.199 0 .1-.011.2zm3.401-.82q-.022-.742-.465-1.207-.444-.466-1.186-.466-.41 0-.72.133t-.52.366a1.8 1.8 0 0 0-.333.543q-.122.299-.155.631zm3.359-2.448h1.795v.83h-1.795v3.036q0 .255.023.476.033.211.11.377a.73.73 0 0 0 .244.255q.167.088.443.1.255 0 .443-.089.2-.089.333-.21l.41.686a1.8 1.8 0 0 1-.599.344 2.2 2.2 0 0 1-.686.099q-.477 0-.798-.132a1.5 1.5 0 0 1-.543-.41q-.188-.255-.255-.599a4 4 0 0 1-.066-.775v-3.157h-.953v-.831h.953v-1.75h.941zm5.241 7.943v-7.943h.897l.044.875q.3-.454.809-.687.52-.243 1.119-.255.675 0 1.141.233.476.222.786.632.321.398.477.952.155.543.155 1.174 0 .643-.155 1.186a2.6 2.6 0 0 1-.477.941 2.3 2.3 0 0 1-.808.632q-.487.221-1.164.221-.664 0-1.13-.21a1.9 1.9 0 0 1-.753-.587v2.836zm2.747-2.869q.476 0 .797-.167.333-.177.532-.465.211-.298.299-.687.1-.387.111-.831 0-.443-.1-.83a1.8 1.8 0 0 0-.299-.687 1.45 1.45 0 0 0-.554-.454q-.332-.178-.808-.178-.566 0-.975.311-.41.299-.621.764-.121.255-.166.532a3.4 3.4 0 0 0-.044.554q0 .332.044.62.045.277.166.532.211.42.61.709.41.276 1.008.277m3.606.764v-5.838h.908l.045.908q.321-.51.819-.742a2.64 2.64 0 0 1 1.13-.233h.299v.887h-.343q-.52 0-.886.177a1.56 1.56 0 0 0-.598.465 2 2 0 0 0-.333.687 3.5 3.5 0 0 0-.099.842V105zm6.262-5.905q.698 0 1.208.222.509.222.853.62.354.4.52.953.177.543.178 1.196 0 .654-.178 1.208-.166.543-.52.942a2.4 2.4 0 0 1-.864.609q-.522.221-1.219.221t-1.219-.221a2.5 2.5 0 0 1-.864-.609 2.7 2.7 0 0 1-.52-.942 4.2 4.2 0 0 1-.167-1.208q0-.653.167-1.196.177-.554.52-.953.355-.398.887-.62a3.1 3.1 0 0 1 1.218-.222m-.022 5.141q.477 0 .82-.167a1.5 1.5 0 0 0 .576-.454q.233-.299.332-.687.111-.387.111-.842a3 3 0 0 0-.111-.83 1.75 1.75 0 0 0-.332-.687q-.222-.3-.576-.465a1.86 1.86 0 0 0-.82-.167q-.477 0-.82.167a1.6 1.6 0 0 0-.576.465 2 2 0 0 0-.332.687q-.1.387-.1.83 0 .455.1.842.11.388.332.687.232.288.576.454t.82.167m4.165.764v-5.007h-.953v-.831h.953v-.62q0-.975.421-1.43.42-.454 1.418-.454h.665v.831h-.565q-.599 0-.798.3-.2.299-.199.863v.51h1.562v.83h-1.562V105zm3.702-7.976q.267 0 .454.177a.56.56 0 0 1 .189.443.6.6 0 0 1-.189.454.64.64 0 0 1-.454.178.62.62 0 0 1-.454-.178.62.62 0 0 1-.177-.454q0-.276.177-.443a.62.62 0 0 1 .454-.177m-.465 7.976v-5.838h.942V105zm3.649-5.838h1.562v.83h-1.562v3.025q0 .598.233.886.232.277.864.277h.432v.82h-.632q-.996 0-1.418-.454-.42-.454-.421-1.429v-3.124h-.952v-.831h.952v-1.74h.942z"/><path fill="url(#b)" fill-opacity=".24" d="M14 28.709C14 23.347 18.347 19 23.709 19h80.008c5.362 0 9.709 4.347 9.709 9.709s-4.347 9.708-9.709 9.708H23.709c-5.362 0-9.709-4.346-9.709-9.708"/><path fill="#1EAE50" d="M31.22 26.912v5.797q0 1.264-.66 1.924-.66.672-1.88.671a4.7 4.7 0 0 1-1.331-.198 2.7 2.7 0 0 1-1.078-.638l.407-.737q.429.341.913.54.494.197 1.034.197.45 0 .77-.143.319-.132.517-.385.209-.24.297-.582.099-.341.099-.737v-.694a1.7 1.7 0 0 1-.363.397q-.21.164-.462.275a2.3 2.3 0 0 1-.528.143 3 3 0 0 1-.561.055q-.66-.012-1.1-.21a1.8 1.8 0 0 1-.693-.55 2.3 2.3 0 0 1-.363-.835 5 5 0 0 1-.11-1.09v-3.2h.935v2.937q0 .396.044.78.054.385.209.682.154.297.45.485.298.175.793.175.494 0 .836-.209.351-.209.539-.527.208-.33.275-.726a4.3 4.3 0 0 0 .077-.814v-2.783zm2.01-2.123q.264 0 .451.175.187.165.187.44a.6.6 0 0 1-.187.451.64.64 0 0 1-.45.177.6.6 0 0 1-.452-.177.6.6 0 0 1-.176-.45q0-.276.176-.44a.6.6 0 0 1 .451-.177m-.462 7.92V26.91h.935v5.797zm3.216-2.553q.034.385.154.716.133.319.352.56.22.242.54.386.33.13.758.131.21 0 .43-.033.23-.044.428-.131.2-.1.352-.253a1 1 0 0 0 .232-.375h.957q-.1.419-.341.727a2 2 0 0 1-.561.505 2.5 2.5 0 0 1-.715.297 3.7 3.7 0 0 1-.803.089q-.694 0-1.21-.22a2.4 2.4 0 0 1-.848-.605 2.6 2.6 0 0 1-.506-.935 4.2 4.2 0 0 1-.165-1.2q0-.648.177-1.187.186-.55.527-.947.342-.396.837-.616t1.176-.22q.693 0 1.2.276.505.274.814.726.308.44.428.956a3.2 3.2 0 0 1 .1 1.156 2 2 0 0 1-.011.198zm3.377-.813q-.021-.738-.461-1.2t-1.178-.462q-.406 0-.715.133a1.5 1.5 0 0 0-.517.363q-.209.23-.33.538-.12.297-.153.628zm2.203 3.366V24.93h.935v7.778zm7.576 0h-.89l-.045-.87q-.297.495-.825.715-.516.22-1.089.22-.659-.01-1.144-.23a2.2 2.2 0 0 1-.792-.627 2.7 2.7 0 0 1-.462-.925 4.5 4.5 0 0 1-.143-1.166q0-.626.154-1.166.154-.549.473-.945.319-.408.803-.639.485-.23 1.155-.23.507 0 1.023.186.517.188.847.605v-2.706h.935zm-2.728-5.028q-.473 0-.803.177-.33.165-.539.45-.197.287-.297.683a3.8 3.8 0 0 0-.088.846q0 .462.088.837.09.363.297.649.21.285.54.462.33.165.813.165.561 0 .924-.264.363-.265.583-.66.154-.276.22-.594.066-.33.066-.65 0-.396-.077-.726a1.7 1.7 0 0 0-.253-.616 1.9 1.9 0 0 0-.583-.539q-.363-.22-.89-.22m6.854.935 3.718-2.53v1.024l-2.651 1.738 2.65 1.749v1.022l-3.717-2.53zm12.736.078a1.9 1.9 0 0 1-.396.55 2.2 2.2 0 0 1-.54.363 2.6 2.6 0 0 1-.626.209 4 4 0 0 1-.65.055q-.516 0-.967-.154-.45-.165-.792-.473a2.3 2.3 0 0 1-.528-.76 2.6 2.6 0 0 1-.198-1.045q0-.582.198-1.055.198-.484.55-.826.363-.34.847-.527a3.1 3.1 0 0 1 1.11-.187q.86 0 1.42.384.56.375.89.968.33.594.463 1.331.132.738.132 1.453 0 .79-.187 1.55a3.3 3.3 0 0 1-.583 1.276q-.352.462-.924.726-.561.265-1.353.265a3.5 3.5 0 0 1-.825-.1 2.7 2.7 0 0 1-.726-.319 2.5 2.5 0 0 1-.572-.527 2.1 2.1 0 0 1-.352-.748h1.056q.187.417.627.627.45.197.902.197.54-.01.913-.22.374-.209.605-.56.165-.254.264-.561.099-.32.154-.616.056-.309.066-.583.022-.276.022-.451zm-3.718-1.342q0 .77.44 1.198.45.43 1.21.44.353 0 .66-.11.32-.11.55-.319a1.45 1.45 0 0 0 .374-.494q.143-.297.143-.65 0-.373-.132-.682a1.4 1.4 0 0 0-.352-.538 1.45 1.45 0 0 0-.528-.352 1.7 1.7 0 0 0-.671-.133q-.364 0-.682.133a1.8 1.8 0 0 0-.54.352 1.7 1.7 0 0 0-.351.517q-.12.296-.121.638m11.947 1.474q0 .748-.154 1.462-.143.715-.495 1.276a2.7 2.7 0 0 1-.935.892q-.582.34-1.452.34-.88 0-1.463-.34a2.7 2.7 0 0 1-.935-.892 3.8 3.8 0 0 1-.495-1.253 7.4 7.4 0 0 1-.143-1.485q0-.793.143-1.486.143-.704.495-1.253.353-.55.935-.892.584-.352 1.463-.352.87 0 1.452.341.583.341.935.902.352.562.495 1.277.154.714.154 1.463m-5.093 0q0 .526.077 1.078.077.55.297 1 .22.451.616.738.407.285 1.067.285.65 0 1.045-.285.407-.287.627-.738.22-.45.297-1a8 8 0 0 0 .077-1.078q0-.517-.077-1.067t-.297-1.001a1.9 1.9 0 0 0-.627-.748q-.396-.298-1.045-.298-.66 0-1.067.297-.397.286-.616.749a3.3 3.3 0 0 0-.297 1 8 8 0 0 0-.077 1.068m14.581 3.883h-.89l-.044-.87q-.298.495-.825.715-.517.22-1.09.22-.659-.01-1.144-.23a2.2 2.2 0 0 1-.791-.627 2.7 2.7 0 0 1-.463-.925 4.5 4.5 0 0 1-.142-1.166q-.001-.626.154-1.166.153-.549.473-.945.318-.408.803-.639.483-.23 1.154-.23.507 0 1.023.186.517.188.847.605v-2.706h.935zm-2.727-5.028q-.474 0-.803.177-.33.165-.54.45-.198.287-.296.683a3.8 3.8 0 0 0-.088.846q0 .462.088.837.087.363.297.649.209.285.538.462.33.165.814.165.561 0 .925-.264.362-.265.582-.66.155-.276.22-.594.066-.33.067-.65 0-.396-.078-.726a1.7 1.7 0 0 0-.252-.616 1.9 1.9 0 0 0-.584-.539q-.362-.22-.89-.22m8.013 4.29a1.6 1.6 0 0 1-.429.408q-.242.153-.506.242a2.5 2.5 0 0 1-.517.12 4 4 0 0 1-.506.034q-.407 0-.77-.1a2 2 0 0 1-.66-.319 1.7 1.7 0 0 1-.462-.55 1.65 1.65 0 0 1-.165-.748q0-.495.176-.825.188-.34.495-.55.308-.209.704-.285.408-.089.858-.088h1.705q0-.738-.319-1.166-.319-.441-1.078-.462-.463-.001-.814.154a.87.87 0 0 0-.484.506h-1q.076-.396.307-.671.23-.287.55-.462.32-.187.693-.276.375-.087.748-.087.65 0 1.09.22.45.209.725.56.275.342.385.836.11.495.11 1.111v3.136h-.78zm-1.1-1.88q-.264 0-.616.01-.34 0-.66.067a.96.96 0 0 0-.517.274q-.186.21-.187.55 0 .254.1.43a.9.9 0 0 0 .263.296q.177.122.396.177t.451.055q.825 0 1.298-.396.484-.408.495-1.177v-.287zm8.478-3.18v5.797q0 1.266-.66 1.925-.66.672-1.881.671a4.7 4.7 0 0 1-1.331-.198 2.7 2.7 0 0 1-1.078-.638l.407-.737q.429.341.913.54.495.197 1.034.197.45 0 .77-.143.319-.132.517-.385.21-.24.297-.582.099-.341.099-.737v-.694a1.7 1.7 0 0 1-.363.397q-.21.164-.462.275a2.3 2.3 0 0 1-.528.143 3 3 0 0 1-.561.055q-.66-.012-1.1-.21a1.8 1.8 0 0 1-.693-.55 2.3 2.3 0 0 1-.363-.835 5 5 0 0 1-.11-1.09v-3.2h.935v2.937q0 .396.044.78.054.385.209.682.154.297.45.485.298.175.793.175.494 0 .836-.209.351-.209.539-.527.209-.33.275-.726a4.3 4.3 0 0 0 .077-.814v-2.783zm3.538.77q-.198 0-.407.034a1.3 1.3 0 0 0-.396.11.9.9 0 0 0-.33.242.67.67 0 0 0-.143.418q0 .374.275.56.285.188.737.275.187.046.407.088.22.033.429.077a5 5 0 0 1 .737.166q1.056.33 1.056 1.419-.01.527-.231.857a1.55 1.55 0 0 1-.539.507 2.2 2.2 0 0 1-.737.264 4.315 4.315 0 0 1-1.617 0 2.5 2.5 0 0 1-.748-.264 2.1 2.1 0 0 1-.572-.506 1.74 1.74 0 0 1-.297-.793h.946q.088.264.275.418.188.155.396.242.22.09.407.121.198.034.44.034.176 0 .407-.023.231-.021.44-.099a.94.94 0 0 0 .352-.252q.144-.166.143-.463 0-.33-.22-.494-.208-.165-.583-.242a11 11 0 0 0-.55-.1l-.56-.11a12 12 0 0 1-.54-.143 2.4 2.4 0 0 1-.495-.23 1.4 1.4 0 0 1-.495-.506q-.186-.32-.187-.782.022-.483.22-.791.198-.32.506-.517.33-.199.704-.276.375-.075.792-.076.891 0 1.419.384.32.22.495.529.177.308.22.648h-.869q-.076-.318-.418-.517-.34-.197-.869-.209"/><defs><linearGradient id="a" x1="161.169" x2="161.169" y1="58.69" y2="192.373" gradientUnits="userSpaceOnUse"><stop stop-color="#1EAE50"/><stop offset="1" stop-color="#1EAE50" stop-opacity="0"/></linearGradient><linearGradient id="b" x1="14" x2="113.426" y1="28.709" y2="28.709" gradientUnits="userSpaceOnUse"><stop stop-color="#A0E6B7"/><stop offset=".063" stop-color="#A0E6B7"/><stop offset=".835" stop-color="#32C365"/></linearGradient></defs></svg>