<svg width="324" height="239" viewBox="0 0 324 239" fill="none" xmlns="http://www.w3.org/2000/svg">
<rect width="324" height="239" rx="16" fill="white"/>
<rect x="117.713" y="56.9441" width="0.698086" height="139.617" fill="black" fill-opacity="0.16"/>
<rect x="199.562" y="56.9441" width="0.698086" height="139.617" fill="black" fill-opacity="0.16"/>
<rect x="281.414" y="56.9441" width="0.698086" height="139.617" fill="black" fill-opacity="0.16"/>
<rect x="35.8633" y="56.9441" width="0.698086" height="139.617" fill="black" fill-opacity="0.16"/>
<path d="M54.6926 216H53.7032V209.552H52.0656V208.881C52.293 208.866 52.5015 208.847 52.691 208.824C52.8806 208.794 53.0549 208.744 53.2142 208.676C53.3734 208.608 53.5174 208.517 53.6463 208.403C53.7752 208.29 53.8927 208.142 53.9989 207.96H54.6926V216ZM60.7178 210.723C60.9073 210.458 61.1385 210.261 61.4115 210.132C61.692 210.003 62.0028 209.939 62.344 209.939C62.761 209.946 63.0984 210.037 63.3561 210.211C63.6139 210.386 63.8072 210.617 63.9361 210.905C64.1408 210.602 64.391 210.367 64.6867 210.2C64.99 210.026 65.3463 209.939 65.7557 209.939C66.0817 209.939 66.3622 209.995 66.5972 210.109C66.8323 210.215 67.0218 210.367 67.1659 210.564C67.3099 210.754 67.4161 210.977 67.4843 211.235C67.5525 211.493 67.5866 211.773 67.5866 212.077V216H66.62V212.566C66.62 212.368 66.6086 212.168 66.5859 211.963C66.5707 211.751 66.5252 211.561 66.4494 211.394C66.3736 211.22 66.2599 211.08 66.1082 210.973C65.9566 210.86 65.7519 210.803 65.4941 210.803C65.2439 210.803 65.0317 210.864 64.8573 210.985C64.6829 211.099 64.5426 211.25 64.4365 211.44C64.3379 211.629 64.2659 211.838 64.2204 212.065C64.1749 212.293 64.1522 212.516 64.1522 212.736V216H63.1856V212.554C63.1856 212.365 63.178 212.168 63.1628 211.963C63.1476 211.751 63.1022 211.561 63.0263 211.394C62.9581 211.22 62.852 211.08 62.7079 210.973C62.5639 210.86 62.363 210.803 62.1052 210.803C61.8322 210.803 61.6048 210.864 61.4228 210.985C61.2485 211.106 61.1044 211.262 60.9907 211.451C60.8846 211.641 60.8087 211.853 60.7632 212.088C60.7253 212.315 60.7064 212.535 60.7064 212.748V216H59.7397V210.007H60.6723L60.7178 210.723ZM71.6959 209.939C72.1735 209.939 72.5867 210.014 72.9354 210.166C73.2842 210.318 73.5761 210.53 73.8111 210.803C74.0537 211.076 74.2319 211.402 74.3456 211.781C74.4669 212.152 74.5276 212.562 74.5276 213.009C74.5276 213.456 74.4669 213.87 74.3456 214.249C74.2319 214.62 74.0537 214.942 73.8111 215.215C73.5761 215.481 73.2804 215.689 72.9241 215.841C72.5677 215.992 72.1508 216.068 71.6731 216.068C71.1955 216.068 70.7785 215.992 70.4222 215.841C70.0734 215.689 69.7777 215.481 69.5351 215.215C69.3001 214.942 69.1219 214.62 69.0006 214.249C68.8869 213.87 68.83 213.456 68.83 213.009C68.83 212.562 68.8869 212.152 69.0006 211.781C69.1219 211.402 69.3001 211.076 69.5351 210.803C69.7777 210.53 70.081 210.318 70.4449 210.166C70.8088 210.014 71.2258 209.939 71.6959 209.939ZM71.6731 215.215C71.9991 215.215 72.2796 215.158 72.5147 215.045C72.7573 214.931 72.9544 214.776 73.106 214.578C73.2652 214.374 73.379 214.139 73.4472 213.873C73.523 213.608 73.5609 213.32 73.5609 213.009C73.5609 212.706 73.523 212.422 73.4472 212.156C73.379 211.883 73.2652 211.648 73.106 211.451C72.9544 211.246 72.7573 211.087 72.5147 210.973C72.2796 210.86 71.9991 210.803 71.6731 210.803C71.3471 210.803 71.0666 210.86 70.8316 210.973C70.5965 211.087 70.3994 211.246 70.2402 211.451C70.0886 211.648 69.9749 211.883 69.899 212.156C69.8308 212.422 69.7967 212.706 69.7967 213.009C69.7967 213.32 69.8308 213.608 69.899 213.873C69.9749 214.139 70.0886 214.374 70.2402 214.578C70.3994 214.776 70.5965 214.931 70.8316 215.045C71.0666 215.158 71.3471 215.215 71.6731 215.215ZM75.8209 216V210.007H76.7534L76.7989 210.917C76.8975 210.75 77.0188 210.606 77.1628 210.484C77.3145 210.363 77.4775 210.261 77.6519 210.177C77.8262 210.094 78.0082 210.033 78.1977 209.995C78.3948 209.958 78.5844 209.939 78.7663 209.939C79.1985 209.939 79.5624 210.011 79.8581 210.155C80.1538 210.291 80.3888 210.484 80.5632 210.735C80.7375 210.977 80.8626 211.269 80.9385 211.61C81.0143 211.944 81.0522 212.304 81.0522 212.691V216H80.0855V212.952C80.0855 212.672 80.0666 212.403 80.0287 212.145C79.9983 211.887 79.9301 211.66 79.824 211.462C79.7254 211.258 79.5814 211.095 79.3918 210.973C79.2023 210.852 78.9483 210.791 78.6299 210.791C78.319 210.799 78.0423 210.875 77.7997 211.019C77.5647 211.163 77.3751 211.334 77.2311 211.531C77.0567 211.781 76.9392 212.058 76.8785 212.361C76.8179 212.657 76.7876 212.956 76.7876 213.259V216H75.8209ZM84.0524 210.007H85.6559V210.86H84.0524V213.964C84.0524 214.374 84.132 214.677 84.2912 214.874C84.4505 215.064 84.7461 215.158 85.1783 215.158H85.6218V216H84.9736C84.2912 216 83.806 215.845 83.5179 215.534C83.2298 215.223 83.0858 214.734 83.0858 214.067V210.86H82.1078V210.007H83.0858V208.221H84.0524V210.007ZM86.749 216V207.96H87.7156V210.928C87.8142 210.776 87.9393 210.636 88.0909 210.507C88.2426 210.378 88.4018 210.272 88.5686 210.189C88.7354 210.105 88.9173 210.045 89.1144 210.007C89.3191 209.961 89.5163 209.939 89.7058 209.939C90.1379 209.939 90.4981 210.011 90.7862 210.155C91.0818 210.291 91.3169 210.484 91.4913 210.735C91.6732 210.977 91.7983 211.269 91.8665 211.61C91.9424 211.944 91.9803 212.308 91.9803 212.702V216H91.0136V212.998C91.0136 212.725 90.9985 212.459 90.9681 212.202C90.9378 211.936 90.8696 211.701 90.7634 211.497C90.6573 211.292 90.5057 211.125 90.3085 210.996C90.1114 210.86 89.8423 210.791 89.5011 210.791C89.2206 210.791 88.959 210.864 88.7164 211.008C88.4814 211.144 88.2918 211.318 88.1478 211.531C87.9734 211.766 87.8559 212.027 87.7952 212.315C87.7422 212.603 87.7156 212.899 87.7156 213.202V216H86.749Z" fill="#707070"/>
<path d="M142.616 213.548C142.82 213.374 143.044 213.184 143.287 212.979C143.537 212.767 143.768 212.54 143.98 212.297C144.2 212.054 144.386 211.8 144.538 211.535C144.689 211.262 144.769 210.966 144.776 210.648C144.792 210.163 144.651 209.791 144.356 209.534C144.06 209.268 143.669 209.136 143.184 209.136C142.798 209.136 142.46 209.215 142.172 209.374C141.884 209.534 141.694 209.765 141.603 210.068H140.546C140.599 209.757 140.709 209.488 140.876 209.261C141.05 209.026 141.259 208.832 141.501 208.681C141.751 208.529 142.024 208.415 142.32 208.339C142.616 208.264 142.919 208.226 143.23 208.226C143.601 208.226 143.942 208.279 144.253 208.385C144.564 208.483 144.833 208.631 145.061 208.828C145.288 209.026 145.463 209.272 145.584 209.568C145.713 209.856 145.777 210.186 145.777 210.557C145.777 210.929 145.72 211.262 145.607 211.558C145.5 211.853 145.353 212.126 145.163 212.377C144.981 212.627 144.773 212.862 144.538 213.082C144.303 213.302 144.06 213.521 143.81 213.741L141.774 215.459H145.868V216.357H140.341V215.538L142.616 213.548ZM151.247 211.08C151.436 210.815 151.667 210.618 151.94 210.489C152.221 210.36 152.532 210.295 152.873 210.295C153.29 210.303 153.627 210.394 153.885 210.568C154.143 210.743 154.336 210.974 154.465 211.262C154.67 210.959 154.92 210.724 155.215 210.557C155.519 210.383 155.875 210.295 156.284 210.295C156.61 210.295 156.891 210.352 157.126 210.466C157.361 210.572 157.551 210.724 157.695 210.921C157.839 211.111 157.945 211.334 158.013 211.592C158.081 211.85 158.115 212.13 158.115 212.433V216.357H157.149V212.922C157.149 212.725 157.137 212.524 157.115 212.32C157.099 212.107 157.054 211.918 156.978 211.751C156.902 211.577 156.789 211.437 156.637 211.33C156.485 211.217 156.281 211.16 156.023 211.16C155.773 211.16 155.56 211.22 155.386 211.342C155.212 211.455 155.071 211.607 154.965 211.797C154.867 211.986 154.795 212.195 154.749 212.422C154.704 212.65 154.681 212.873 154.681 213.093V216.357H153.714V212.911C153.714 212.722 153.707 212.524 153.692 212.32C153.676 212.107 153.631 211.918 153.555 211.751C153.487 211.577 153.381 211.437 153.237 211.33C153.093 211.217 152.892 211.16 152.634 211.16C152.361 211.16 152.134 211.22 151.952 211.342C151.777 211.463 151.633 211.618 151.519 211.808C151.413 211.998 151.337 212.21 151.292 212.445C151.254 212.672 151.235 212.892 151.235 213.104V216.357H150.268V210.364H151.201L151.247 211.08ZM162.225 210.295C162.702 210.295 163.115 210.371 163.464 210.523C163.813 210.675 164.105 210.887 164.34 211.16C164.582 211.433 164.761 211.759 164.874 212.138C164.996 212.509 165.056 212.919 165.056 213.366C165.056 213.813 164.996 214.227 164.874 214.606C164.761 214.977 164.582 215.299 164.34 215.572C164.105 215.838 163.809 216.046 163.453 216.198C163.096 216.349 162.68 216.425 162.202 216.425C161.724 216.425 161.307 216.349 160.951 216.198C160.602 216.046 160.306 215.838 160.064 215.572C159.829 215.299 159.651 214.977 159.529 214.606C159.416 214.227 159.359 213.813 159.359 213.366C159.359 212.919 159.416 212.509 159.529 212.138C159.651 211.759 159.829 211.433 160.064 211.16C160.306 210.887 160.61 210.675 160.974 210.523C161.338 210.371 161.755 210.295 162.225 210.295ZM162.202 215.572C162.528 215.572 162.808 215.515 163.043 215.402C163.286 215.288 163.483 215.133 163.635 214.935C163.794 214.731 163.908 214.496 163.976 214.23C164.052 213.965 164.09 213.677 164.09 213.366C164.09 213.063 164.052 212.778 163.976 212.513C163.908 212.24 163.794 212.005 163.635 211.808C163.483 211.603 163.286 211.444 163.043 211.33C162.808 211.217 162.528 211.16 162.202 211.16C161.876 211.16 161.595 211.217 161.36 211.33C161.125 211.444 160.928 211.603 160.769 211.808C160.617 212.005 160.504 212.24 160.428 212.513C160.36 212.778 160.325 213.063 160.325 213.366C160.325 213.677 160.36 213.965 160.428 214.23C160.504 214.496 160.617 214.731 160.769 214.935C160.928 215.133 161.125 215.288 161.36 215.402C161.595 215.515 161.876 215.572 162.202 215.572ZM166.35 216.357V210.364H167.282L167.328 211.274C167.426 211.107 167.548 210.963 167.692 210.841C167.843 210.72 168.006 210.618 168.181 210.534C168.355 210.451 168.537 210.39 168.726 210.352C168.924 210.314 169.113 210.295 169.295 210.295C169.727 210.295 170.091 210.368 170.387 210.512C170.683 210.648 170.918 210.841 171.092 211.092C171.266 211.334 171.391 211.626 171.467 211.967C171.543 212.301 171.581 212.661 171.581 213.048V216.357H170.614V213.309C170.614 213.029 170.595 212.759 170.557 212.502C170.527 212.244 170.459 212.016 170.353 211.819C170.254 211.615 170.11 211.452 169.921 211.33C169.731 211.209 169.477 211.148 169.159 211.148C168.848 211.156 168.571 211.232 168.328 211.376C168.093 211.52 167.904 211.69 167.76 211.888C167.585 212.138 167.468 212.415 167.407 212.718C167.347 213.013 167.316 213.313 167.316 213.616V216.357H166.35ZM174.581 210.364H176.185V211.217H174.581V214.321C174.581 214.731 174.661 215.034 174.82 215.231C174.979 215.421 175.275 215.515 175.707 215.515H176.151V216.357H175.502C174.82 216.357 174.335 216.202 174.047 215.891C173.759 215.58 173.615 215.091 173.615 214.424V211.217H172.637V210.364H173.615V208.578H174.581V210.364ZM177.278 216.357V208.317H178.244V211.285C178.343 211.133 178.468 210.993 178.62 210.864C178.771 210.735 178.931 210.629 179.097 210.546C179.264 210.462 179.446 210.402 179.643 210.364C179.848 210.318 180.045 210.295 180.235 210.295C180.667 210.295 181.027 210.368 181.315 210.512C181.611 210.648 181.846 210.841 182.02 211.092C182.202 211.334 182.327 211.626 182.395 211.967C182.471 212.301 182.509 212.665 182.509 213.059V216.357H181.542V213.355C181.542 213.082 181.527 212.816 181.497 212.559C181.467 212.293 181.398 212.058 181.292 211.853C181.186 211.649 181.034 211.482 180.837 211.353C180.64 211.217 180.371 211.148 180.03 211.148C179.749 211.148 179.488 211.22 179.245 211.364C179.01 211.501 178.821 211.675 178.677 211.888C178.502 212.123 178.385 212.384 178.324 212.672C178.271 212.96 178.244 213.256 178.244 213.559V216.357H177.278Z" fill="#707070"/>
<path d="M222.309 216.448C221.991 216.448 221.669 216.418 221.343 216.357C221.024 216.296 220.725 216.194 220.444 216.05C220.171 215.898 219.936 215.701 219.739 215.459C219.55 215.216 219.428 214.916 219.375 214.56H220.399C220.467 214.757 220.569 214.92 220.706 215.049C220.85 215.17 221.009 215.269 221.183 215.345C221.365 215.421 221.555 215.474 221.752 215.504C221.949 215.534 222.139 215.549 222.321 215.549C222.488 215.549 222.677 215.534 222.889 215.504C223.102 215.474 223.299 215.409 223.481 215.311C223.67 215.212 223.826 215.068 223.947 214.879C224.076 214.681 224.14 214.424 224.14 214.105C224.14 213.802 224.08 213.559 223.958 213.377C223.845 213.195 223.693 213.055 223.503 212.957C223.321 212.858 223.113 212.794 222.878 212.763C222.651 212.733 222.419 212.718 222.184 212.718H221.411V211.831H221.877C222.082 211.831 222.271 211.827 222.446 211.819C222.62 211.804 222.814 211.751 223.026 211.66C223.268 211.546 223.462 211.387 223.606 211.183C223.75 210.97 223.826 210.728 223.833 210.455C223.833 210.182 223.788 209.958 223.697 209.784C223.606 209.609 223.484 209.473 223.333 209.374C223.181 209.276 223.011 209.211 222.821 209.181C222.632 209.143 222.438 209.124 222.241 209.124C222.082 209.124 221.915 209.143 221.741 209.181C221.574 209.211 221.415 209.264 221.263 209.34C221.119 209.416 220.99 209.518 220.876 209.647C220.763 209.769 220.683 209.916 220.638 210.091H219.648C219.694 209.757 219.8 209.473 219.967 209.238C220.133 209.003 220.338 208.81 220.581 208.658C220.831 208.506 221.104 208.396 221.4 208.328C221.703 208.26 222.01 208.226 222.321 208.226C222.662 208.226 222.98 208.264 223.276 208.339C223.579 208.408 223.845 208.525 224.072 208.692C224.3 208.851 224.478 209.063 224.607 209.329C224.743 209.594 224.811 209.916 224.811 210.295C224.811 210.44 224.796 210.595 224.766 210.762C224.735 210.921 224.679 211.08 224.595 211.239C224.512 211.399 224.39 211.558 224.231 211.717C224.072 211.876 223.864 212.009 223.606 212.115C224.114 212.214 224.5 212.437 224.766 212.786C225.031 213.127 225.164 213.54 225.164 214.026V214.071C225.164 214.488 225.088 214.848 224.936 215.151C224.792 215.447 224.591 215.694 224.334 215.891C224.076 216.08 223.773 216.22 223.424 216.311C223.075 216.402 222.704 216.448 222.309 216.448ZM230.613 211.08C230.803 210.815 231.034 210.618 231.307 210.489C231.587 210.36 231.898 210.295 232.239 210.295C232.656 210.303 232.994 210.394 233.251 210.568C233.509 210.743 233.702 210.974 233.831 211.262C234.036 210.959 234.286 210.724 234.582 210.557C234.885 210.383 235.242 210.295 235.651 210.295C235.977 210.295 236.257 210.352 236.492 210.466C236.728 210.572 236.917 210.724 237.061 210.921C237.205 211.111 237.311 211.334 237.38 211.592C237.448 211.85 237.482 212.13 237.482 212.433V216.357H236.515V212.922C236.515 212.725 236.504 212.524 236.481 212.32C236.466 212.107 236.42 211.918 236.345 211.751C236.269 211.577 236.155 211.437 236.003 211.33C235.852 211.217 235.647 211.16 235.389 211.16C235.139 211.16 234.927 211.22 234.753 211.342C234.578 211.455 234.438 211.607 234.332 211.797C234.233 211.986 234.161 212.195 234.116 212.422C234.07 212.65 234.047 212.873 234.047 213.093V216.357H233.081V212.911C233.081 212.722 233.073 212.524 233.058 212.32C233.043 212.107 232.997 211.918 232.922 211.751C232.853 211.577 232.747 211.437 232.603 211.33C232.459 211.217 232.258 211.16 232 211.16C231.727 211.16 231.5 211.22 231.318 211.342C231.144 211.463 231 211.618 230.886 211.808C230.78 211.998 230.704 212.21 230.658 212.445C230.621 212.672 230.602 212.892 230.602 213.104V216.357H229.635V210.364H230.568L230.613 211.08ZM241.591 210.295C242.069 210.295 242.482 210.371 242.831 210.523C243.179 210.675 243.471 210.887 243.706 211.16C243.949 211.433 244.127 211.759 244.241 212.138C244.362 212.509 244.423 212.919 244.423 213.366C244.423 213.813 244.362 214.227 244.241 214.606C244.127 214.977 243.949 215.299 243.706 215.572C243.471 215.838 243.176 216.046 242.819 216.198C242.463 216.349 242.046 216.425 241.568 216.425C241.091 216.425 240.674 216.349 240.317 216.198C239.969 216.046 239.673 215.838 239.43 215.572C239.195 215.299 239.017 214.977 238.896 214.606C238.782 214.227 238.725 213.813 238.725 213.366C238.725 212.919 238.782 212.509 238.896 212.138C239.017 211.759 239.195 211.433 239.43 211.16C239.673 210.887 239.976 210.675 240.34 210.523C240.704 210.371 241.121 210.295 241.591 210.295ZM241.568 215.572C241.894 215.572 242.175 215.515 242.41 215.402C242.653 215.288 242.85 215.133 243.001 214.935C243.16 214.731 243.274 214.496 243.342 214.23C243.418 213.965 243.456 213.677 243.456 213.366C243.456 213.063 243.418 212.778 243.342 212.513C243.274 212.24 243.16 212.005 243.001 211.808C242.85 211.603 242.653 211.444 242.41 211.33C242.175 211.217 241.894 211.16 241.568 211.16C241.242 211.16 240.962 211.217 240.727 211.33C240.492 211.444 240.295 211.603 240.135 211.808C239.984 212.005 239.87 212.24 239.794 212.513C239.726 212.778 239.692 213.063 239.692 213.366C239.692 213.677 239.726 213.965 239.794 214.23C239.87 214.496 239.984 214.731 240.135 214.935C240.295 215.133 240.492 215.288 240.727 215.402C240.962 215.515 241.242 215.572 241.568 215.572ZM245.716 216.357V210.364H246.649L246.694 211.274C246.793 211.107 246.914 210.963 247.058 210.841C247.21 210.72 247.373 210.618 247.547 210.534C247.721 210.451 247.903 210.39 248.093 210.352C248.29 210.314 248.48 210.295 248.662 210.295C249.094 210.295 249.458 210.368 249.753 210.512C250.049 210.648 250.284 210.841 250.458 211.092C250.633 211.334 250.758 211.626 250.834 211.967C250.91 212.301 250.947 212.661 250.947 213.048V216.357H249.981V213.309C249.981 213.029 249.962 212.759 249.924 212.502C249.894 212.244 249.825 212.016 249.719 211.819C249.621 211.615 249.477 211.452 249.287 211.33C249.098 211.209 248.844 211.148 248.525 211.148C248.214 211.156 247.938 211.232 247.695 211.376C247.46 211.52 247.27 211.69 247.126 211.888C246.952 212.138 246.834 212.415 246.774 212.718C246.713 213.013 246.683 213.313 246.683 213.616V216.357H245.716ZM253.948 210.364H255.551V211.217H253.948V214.321C253.948 214.731 254.027 215.034 254.186 215.231C254.346 215.421 254.641 215.515 255.074 215.515H255.517V216.357H254.869C254.186 216.357 253.701 216.202 253.413 215.891C253.125 215.58 252.981 215.091 252.981 214.424V211.217H252.003V210.364H252.981V208.578H253.948V210.364ZM256.644 216.357V208.317H257.611V211.285C257.709 211.133 257.835 210.993 257.986 210.864C258.138 210.735 258.297 210.629 258.464 210.546C258.631 210.462 258.813 210.402 259.01 210.364C259.214 210.318 259.412 210.295 259.601 210.295C260.033 210.295 260.393 210.368 260.681 210.512C260.977 210.648 261.212 210.841 261.386 211.092C261.568 211.334 261.694 211.626 261.762 211.967C261.838 212.301 261.876 212.665 261.876 213.059V216.357H260.909V213.355C260.909 213.082 260.894 212.816 260.863 212.559C260.833 212.293 260.765 212.058 260.659 211.853C260.553 211.649 260.401 211.482 260.204 211.353C260.007 211.217 259.738 211.148 259.396 211.148C259.116 211.148 258.854 211.22 258.612 211.364C258.377 211.501 258.187 211.675 258.043 211.888C257.869 212.123 257.751 212.384 257.69 212.672C257.637 212.96 257.611 213.256 257.611 213.559V216.357H256.644Z" fill="#707070"/>
<rect x="37" y="197" width="0.999989" height="245" transform="rotate(-90 37 197)" fill="black" fill-opacity="0.16"/>
<path d="M280.891 58.6895C280.891 162.006 121.262 190.861 41.4473 192.373H280.891V58.6895Z" fill="url(#paint0_linear_933_9911)" fill-opacity="0.2"/>
<path d="M41.4473 192.373C121.262 190.86 280.891 162.006 280.891 58.6895" stroke="#1EAE50" stroke-width="2.09426"/>
<path d="M170.304 83.9429C169.373 83.9429 168.432 83.8543 167.479 83.677C166.548 83.4998 165.673 83.2006 164.854 82.7797C164.056 82.3366 163.369 81.7605 162.793 81.0515C162.239 80.3425 161.885 79.4674 161.73 78.426H164.721C164.92 79.0021 165.219 79.4784 165.618 79.8551C166.039 80.2096 166.504 80.4976 167.014 80.7192C167.545 80.9407 168.099 81.0958 168.675 81.1844C169.252 81.2731 169.805 81.3174 170.337 81.3174C170.825 81.3174 171.378 81.2731 171.999 81.1844C172.619 81.0958 173.195 80.9075 173.727 80.6195C174.281 80.3314 174.735 79.9105 175.09 79.3566C175.466 78.7805 175.655 78.0272 175.655 77.0967C175.655 76.2104 175.477 75.5014 175.123 74.9697C174.791 74.4379 174.347 74.028 173.794 73.74C173.262 73.452 172.652 73.2637 171.966 73.175C171.301 73.0864 170.625 73.0421 169.938 73.0421H167.678V70.4498H169.041C169.639 70.4498 170.193 70.4388 170.703 70.4166C171.212 70.3723 171.777 70.2172 172.398 69.9513C173.107 69.619 173.672 69.1537 174.093 68.5555C174.514 67.9351 174.735 67.2261 174.757 66.4285C174.757 65.6309 174.624 64.9773 174.358 64.4677C174.093 63.9581 173.738 63.5593 173.295 63.2713C172.852 62.9833 172.353 62.7949 171.799 62.7063C171.246 62.5955 170.681 62.5401 170.105 62.5401C169.639 62.5401 169.152 62.5955 168.642 62.7063C168.155 62.7949 167.69 62.95 167.246 63.1716C166.825 63.3931 166.449 63.6922 166.116 64.0689C165.784 64.4234 165.551 64.8554 165.419 65.365H162.527C162.66 64.3902 162.97 63.5593 163.458 62.8725C163.945 62.1856 164.543 61.6207 165.252 61.1775C165.983 60.7344 166.781 60.4132 167.645 60.2137C168.531 60.0143 169.429 59.9146 170.337 59.9146C171.334 59.9146 172.265 60.0254 173.129 60.247C174.015 60.4464 174.791 60.7898 175.455 61.2772C176.12 61.7425 176.641 62.3629 177.017 63.1383C177.416 63.9138 177.615 64.8554 177.615 65.9632C177.615 66.3842 177.571 66.8384 177.482 67.3258C177.394 67.7911 177.228 68.2564 176.984 68.7217C176.74 69.1869 176.386 69.6522 175.92 70.1175C175.455 70.5828 174.846 70.9705 174.093 71.2807C175.577 71.5687 176.707 72.2223 177.482 73.2415C178.258 74.2385 178.646 75.446 178.646 76.864V76.997C178.646 78.2155 178.424 79.2679 177.981 80.1542C177.56 81.0183 176.973 81.7383 176.22 82.3144C175.466 82.8683 174.58 83.2782 173.561 83.5441C172.542 83.8099 171.456 83.9429 170.304 83.9429ZM189.202 83.9429C188.271 83.9429 187.33 83.8543 186.377 83.677C185.446 83.4998 184.571 83.2006 183.752 82.7797C182.954 82.3366 182.267 81.7605 181.691 81.0515C181.137 80.3425 180.783 79.4674 180.628 78.426H183.619C183.818 79.0021 184.117 79.4784 184.516 79.8551C184.937 80.2096 185.402 80.4976 185.912 80.7192C186.443 80.9407 186.997 81.0958 187.573 81.1844C188.149 81.2731 188.703 81.3174 189.235 81.3174C189.723 81.3174 190.276 81.2731 190.897 81.1844C191.517 81.0958 192.093 80.9075 192.625 80.6195C193.179 80.3314 193.633 79.9105 193.988 79.3566C194.364 78.7805 194.553 78.0272 194.553 77.0967C194.553 76.2104 194.375 75.5014 194.021 74.9697C193.689 74.4379 193.245 74.028 192.691 73.74C192.16 73.452 191.55 73.2637 190.864 73.175C190.199 73.0864 189.523 73.0421 188.836 73.0421H186.576V70.4498H187.939C188.537 70.4498 189.091 70.4388 189.601 70.4166C190.11 70.3723 190.675 70.2172 191.296 69.9513C192.005 69.619 192.57 69.1537 192.991 68.5555C193.412 67.9351 193.633 67.2261 193.655 66.4285C193.655 65.6309 193.522 64.9773 193.256 64.4677C192.991 63.9581 192.636 63.5593 192.193 63.2713C191.75 62.9833 191.251 62.7949 190.697 62.7063C190.144 62.5955 189.579 62.5401 189.003 62.5401C188.537 62.5401 188.05 62.5955 187.54 62.7063C187.053 62.7949 186.587 62.95 186.144 63.1716C185.723 63.3931 185.347 63.6922 185.014 64.0689C184.682 64.4234 184.449 64.8554 184.317 65.365H181.425C181.558 64.3902 181.868 63.5593 182.356 62.8725C182.843 62.1856 183.441 61.6207 184.15 61.1775C184.881 60.7344 185.679 60.4132 186.543 60.2137C187.429 60.0143 188.327 59.9146 189.235 59.9146C190.232 59.9146 191.163 60.0254 192.027 60.247C192.913 60.4464 193.689 60.7898 194.353 61.2772C195.018 61.7425 195.539 62.3629 195.915 63.1383C196.314 63.9138 196.513 64.8554 196.513 65.9632C196.513 66.3842 196.469 66.8384 196.38 67.3258C196.292 67.7911 196.126 68.2564 195.882 68.7217C195.638 69.1869 195.284 69.6522 194.818 70.1175C194.353 70.5828 193.744 70.9705 192.991 71.2807C194.475 71.5687 195.605 72.2223 196.38 73.2415C197.156 74.2385 197.544 75.446 197.544 76.864V76.997C197.544 78.2155 197.322 79.2679 196.879 80.1542C196.458 81.0183 195.871 81.7383 195.118 82.3144C194.364 82.8683 193.478 83.2782 192.459 83.5441C191.44 83.8099 190.354 83.9429 189.202 83.9429ZM205.242 70.3169C204.444 70.3169 203.735 70.184 203.115 69.9181C202.517 69.6522 202.018 69.2866 201.619 68.8214C201.22 68.3339 200.91 67.78 200.689 67.1597C200.489 66.5171 200.39 65.8303 200.39 65.0992C200.39 64.3458 200.489 63.659 200.689 63.0386C200.91 62.3961 201.22 61.8422 201.619 61.3769C202.04 60.9117 202.55 60.5572 203.148 60.3135C203.746 60.0476 204.444 59.9146 205.242 59.9146C206.793 59.9146 207.978 60.4021 208.798 61.3769C209.618 62.3297 210.027 63.5704 210.027 65.0992C210.027 65.8303 209.917 66.5171 209.695 67.1597C209.496 67.78 209.197 68.3339 208.798 68.8214C208.399 69.2866 207.9 69.6522 207.302 69.9181C206.704 70.184 206.017 70.3169 205.242 70.3169ZM203.048 83.677L217.505 60.1805H220.43L206.006 83.677H203.048ZM205.242 62.2743C204.356 62.2743 203.724 62.5623 203.347 63.1383C202.971 63.7144 202.782 64.368 202.782 65.0992C202.782 65.8746 202.971 66.5504 203.347 67.1264C203.724 67.6803 204.356 67.9573 205.242 67.9573C206.084 67.9573 206.682 67.6693 207.036 67.0932C207.391 66.5171 207.568 65.8525 207.568 65.0992C207.568 64.368 207.391 63.7144 207.036 63.1383C206.682 62.5623 206.084 62.2743 205.242 62.2743ZM218.402 83.8764C217.605 83.8764 216.896 83.7435 216.275 83.4776C215.677 83.2117 215.168 82.8462 214.747 82.3809C214.348 81.8934 214.038 81.3395 213.816 80.7192C213.617 80.0766 213.517 79.3898 213.517 78.6587C213.517 77.9054 213.617 77.2185 213.816 76.5981C214.038 75.9556 214.359 75.4017 214.78 74.9364C215.201 74.4712 215.71 74.1167 216.309 73.873C216.907 73.6071 217.605 73.4741 218.402 73.4741C219.156 73.4741 219.832 73.6071 220.43 73.873C221.028 74.1167 221.526 74.4712 221.925 74.9364C222.346 75.4017 222.656 75.9556 222.856 76.5981C223.077 77.2185 223.188 77.9054 223.188 78.6587C223.188 79.3898 223.077 80.0766 222.856 80.7192C222.656 81.3395 222.346 81.8934 221.925 82.3809C221.526 82.8462 221.028 83.2117 220.43 83.4776C219.832 83.7435 219.156 83.8764 218.402 83.8764ZM218.369 75.8338C217.483 75.8338 216.852 76.1218 216.475 76.6978C216.12 77.2739 215.943 77.9275 215.943 78.6587C215.943 79.4341 216.131 80.1099 216.508 80.6859C216.885 81.2398 217.505 81.5168 218.369 81.5168C219.233 81.5168 219.832 81.2288 220.164 80.6527C220.518 80.0766 220.696 79.412 220.696 78.6587C220.696 77.9275 220.518 77.2739 220.164 76.6978C219.832 76.1218 219.233 75.8338 218.369 75.8338Z" fill="#191919"/>
<path d="M161.742 105V99.1619H162.651L162.695 100.048C162.791 99.8856 162.909 99.7453 163.049 99.6272C163.197 99.509 163.356 99.4093 163.526 99.3281C163.696 99.2468 163.873 99.1877 164.058 99.1508C164.25 99.1139 164.434 99.0954 164.611 99.0954C165.032 99.0954 165.387 99.1656 165.675 99.3059C165.963 99.4388 166.192 99.6272 166.362 99.8709C166.532 100.107 166.653 100.392 166.727 100.724C166.801 101.049 166.838 101.4 166.838 101.776V105H165.896V102.031C165.896 101.758 165.878 101.496 165.841 101.245C165.812 100.993 165.745 100.772 165.642 100.58C165.546 100.38 165.405 100.222 165.221 100.104C165.036 99.9853 164.789 99.9263 164.478 99.9263C164.176 99.9337 163.906 100.008 163.67 100.148C163.441 100.288 163.256 100.454 163.116 100.646C162.946 100.89 162.832 101.16 162.772 101.455C162.713 101.743 162.684 102.035 162.684 102.33V105H161.742ZM168.686 102.43C168.708 102.688 168.76 102.928 168.841 103.15C168.93 103.364 169.048 103.552 169.196 103.715C169.343 103.877 169.524 104.007 169.739 104.103C169.96 104.191 170.215 104.236 170.503 104.236C170.643 104.236 170.787 104.225 170.935 104.202C171.09 104.173 171.234 104.129 171.367 104.069C171.5 104.003 171.618 103.918 171.722 103.815C171.825 103.711 171.902 103.586 171.954 103.438H172.918C172.851 103.719 172.737 103.962 172.575 104.169C172.419 104.376 172.231 104.546 172.01 104.679C171.795 104.812 171.555 104.911 171.289 104.978C171.024 105.037 170.754 105.066 170.481 105.066C170.016 105.066 169.609 104.993 169.262 104.845C168.922 104.697 168.638 104.494 168.409 104.236C168.18 103.97 168.01 103.656 167.9 103.294C167.789 102.925 167.733 102.522 167.733 102.086C167.733 101.651 167.793 101.252 167.911 100.89C168.036 100.521 168.213 100.203 168.442 99.9373C168.671 99.6715 168.952 99.4647 169.284 99.317C169.617 99.1693 170.012 99.0954 170.47 99.0954C170.935 99.0954 171.337 99.1877 171.677 99.3724C172.017 99.557 172.29 99.8007 172.497 100.104C172.704 100.399 172.848 100.72 172.929 101.067C173.018 101.414 173.055 101.736 173.04 102.031C173.04 102.098 173.036 102.164 173.029 102.23C173.029 102.297 173.025 102.363 173.018 102.43H168.686ZM172.087 101.61C172.072 101.115 171.917 100.713 171.622 100.403C171.326 100.092 170.931 99.9373 170.436 99.9373C170.163 99.9373 169.923 99.9817 169.716 100.07C169.51 100.159 169.336 100.281 169.196 100.436C169.055 100.591 168.945 100.772 168.863 100.979C168.782 101.178 168.73 101.389 168.708 101.61H172.087ZM175.446 99.1619H177.241V99.9927H175.446V103.028C175.446 103.198 175.454 103.357 175.469 103.504C175.491 103.645 175.528 103.77 175.579 103.881C175.638 103.985 175.72 104.069 175.823 104.136C175.934 104.195 176.082 104.228 176.266 104.236C176.436 104.236 176.584 104.206 176.709 104.147C176.842 104.088 176.953 104.018 177.042 103.937L177.452 104.623C177.26 104.786 177.06 104.9 176.853 104.967C176.647 105.033 176.418 105.066 176.167 105.066C175.849 105.066 175.583 105.022 175.369 104.934C175.155 104.838 174.974 104.701 174.826 104.524C174.701 104.354 174.616 104.154 174.571 103.925C174.527 103.696 174.505 103.438 174.505 103.15V99.9927H173.552V99.1619H174.505V97.4116H175.446V99.1619ZM180.687 107.105V99.1619H181.584L181.628 100.037C181.828 99.7342 182.097 99.5053 182.437 99.3502C182.784 99.1877 183.157 99.1028 183.556 99.0954C184.006 99.0954 184.387 99.173 184.697 99.3281C185.014 99.4758 185.277 99.6862 185.483 99.9595C185.697 100.225 185.856 100.543 185.96 100.912C186.063 101.274 186.115 101.666 186.115 102.086C186.115 102.515 186.063 102.91 185.96 103.272C185.856 103.634 185.697 103.948 185.483 104.213C185.269 104.479 185 104.69 184.675 104.845C184.35 104.993 183.962 105.066 183.511 105.066C183.068 105.066 182.692 104.996 182.381 104.856C182.071 104.716 181.82 104.52 181.628 104.269V107.105H180.687ZM183.434 104.236C183.751 104.236 184.017 104.18 184.231 104.069C184.453 103.951 184.63 103.796 184.763 103.604C184.904 103.405 185.003 103.176 185.062 102.917C185.129 102.659 185.166 102.382 185.173 102.086C185.173 101.791 185.14 101.514 185.073 101.256C185.014 100.99 184.915 100.761 184.774 100.569C184.634 100.377 184.449 100.225 184.22 100.115C183.999 99.9964 183.729 99.9373 183.412 99.9373C183.035 99.9373 182.71 100.041 182.437 100.248C182.164 100.447 181.957 100.702 181.816 101.012C181.735 101.182 181.68 101.359 181.65 101.544C181.621 101.721 181.606 101.906 181.606 102.098C181.606 102.319 181.621 102.526 181.65 102.718C181.68 102.903 181.735 103.08 181.816 103.25C181.957 103.53 182.16 103.767 182.426 103.959C182.699 104.143 183.035 104.236 183.434 104.236ZM187.04 105V99.1619H187.948L187.993 100.07C188.207 99.7306 188.48 99.4831 188.812 99.3281C189.145 99.173 189.521 99.0954 189.942 99.0954H190.241V99.9817H189.898C189.551 99.9817 189.256 100.041 189.012 100.159C188.768 100.27 188.569 100.425 188.414 100.624C188.266 100.816 188.155 101.045 188.081 101.311C188.015 101.577 187.982 101.858 187.982 102.153V105H187.04ZM193.302 99.0954C193.767 99.0954 194.17 99.1693 194.51 99.317C194.849 99.4647 195.134 99.6715 195.363 99.9373C195.599 100.203 195.773 100.521 195.883 100.89C196.001 101.252 196.061 101.651 196.061 102.086C196.061 102.522 196.001 102.925 195.883 103.294C195.773 103.656 195.599 103.97 195.363 104.236C195.134 104.494 194.846 104.697 194.499 104.845C194.151 104.993 193.745 105.066 193.28 105.066C192.815 105.066 192.409 104.993 192.061 104.845C191.722 104.697 191.434 104.494 191.197 104.236C190.968 103.97 190.795 103.656 190.677 103.294C190.566 102.925 190.51 102.522 190.51 102.086C190.51 101.651 190.566 101.252 190.677 100.89C190.795 100.521 190.968 100.203 191.197 99.9373C191.434 99.6715 191.729 99.4647 192.084 99.317C192.438 99.1693 192.844 99.0954 193.302 99.0954ZM193.28 104.236C193.598 104.236 193.871 104.18 194.1 104.069C194.336 103.959 194.528 103.807 194.676 103.615C194.831 103.416 194.942 103.187 195.008 102.928C195.082 102.67 195.119 102.389 195.119 102.086C195.119 101.791 195.082 101.514 195.008 101.256C194.942 100.99 194.831 100.761 194.676 100.569C194.528 100.369 194.336 100.214 194.1 100.104C193.871 99.9927 193.598 99.9373 193.28 99.9373C192.962 99.9373 192.689 99.9927 192.46 100.104C192.231 100.214 192.039 100.369 191.884 100.569C191.736 100.761 191.626 100.99 191.552 101.256C191.485 101.514 191.452 101.791 191.452 102.086C191.452 102.389 191.485 102.67 191.552 102.928C191.626 103.187 191.736 103.416 191.884 103.615C192.039 103.807 192.231 103.959 192.46 104.069C192.689 104.18 192.962 104.236 193.28 104.236ZM197.445 105V99.9927H196.492V99.1619H197.445V98.5415C197.445 97.8916 197.585 97.4152 197.866 97.1124C198.146 96.8096 198.619 96.6582 199.284 96.6582H199.949V97.4891H199.384C198.985 97.4891 198.719 97.5888 198.586 97.7882C198.453 97.9876 198.387 98.2756 198.387 98.6523V99.1619H199.949V99.9927H198.387V105H197.445ZM201.147 97.0238C201.325 97.0238 201.476 97.0829 201.601 97.2011C201.727 97.3119 201.79 97.4596 201.79 97.6442C201.79 97.8288 201.727 97.9802 201.601 98.0984C201.476 98.2166 201.325 98.2756 201.147 98.2756C200.963 98.2756 200.811 98.2166 200.693 98.0984C200.575 97.9802 200.516 97.8288 200.516 97.6442C200.516 97.4596 200.575 97.3119 200.693 97.2011C200.811 97.0829 200.963 97.0238 201.147 97.0238ZM200.682 105V99.1619H201.624V105H200.682ZM204.331 99.1619H205.893V99.9927H204.331V103.017C204.331 103.416 204.409 103.711 204.564 103.903C204.719 104.088 205.007 104.18 205.428 104.18H205.86V105H205.228C204.564 105 204.091 104.849 203.81 104.546C203.53 104.243 203.389 103.767 203.389 103.117V99.9927H202.437V99.1619H203.389V97.4226H204.331V99.1619Z" fill="#191919"/>
<path d="M14 28.7086C14 23.3467 18.3467 19 23.7086 19H103.717C109.079 19 113.426 23.3467 113.426 28.7086C113.426 34.0705 109.079 38.4172 103.717 38.4172H23.7086C18.3467 38.4172 14 34.0705 14 28.7086Z" fill="url(#paint1_linear_933_9911)" fill-opacity="0.24"/>
<path d="M31.2206 26.9115V32.7085C31.2206 33.5518 31.0006 34.1935 30.5606 34.6335C30.1206 35.0808 29.4936 35.3045 28.6796 35.3045C28.1883 35.2972 27.7446 35.2312 27.3486 35.1065C26.96 34.9892 26.6006 34.7765 26.2706 34.4685L26.6776 33.7315C26.9636 33.9588 27.268 34.1385 27.5906 34.2705C27.9206 34.4025 28.2653 34.4685 28.6246 34.4685C28.9253 34.4685 29.182 34.4208 29.3946 34.3255C29.6073 34.2375 29.7796 34.1092 29.9116 33.9405C30.051 33.7792 30.15 33.5848 30.2086 33.3575C30.2746 33.1302 30.3076 32.8845 30.3076 32.6205V31.9275C30.2123 32.0742 30.0913 32.2062 29.9446 32.3235C29.8053 32.4335 29.6513 32.5252 29.4826 32.5985C29.3213 32.6645 29.1453 32.7122 28.9546 32.7415C28.7713 32.7782 28.5843 32.7965 28.3936 32.7965C27.9536 32.7892 27.587 32.7195 27.2936 32.5875C27.0076 32.4555 26.7766 32.2722 26.6006 32.0375C26.432 31.8028 26.311 31.5242 26.2376 31.2015C26.1643 30.8715 26.1276 30.5085 26.1276 30.1125V26.9115H27.0626V29.8485C27.0626 30.1125 27.0773 30.3728 27.1066 30.6295C27.1433 30.8862 27.213 31.1135 27.3156 31.3115C27.4183 31.5095 27.5686 31.6708 27.7666 31.7955C27.9646 31.9128 28.2286 31.9715 28.5586 31.9715C28.8886 31.9715 29.1673 31.9018 29.3946 31.7625C29.6293 31.6232 29.809 31.4472 29.9336 31.2345C30.073 31.0145 30.1646 30.7725 30.2086 30.5085C30.26 30.2445 30.2856 29.9732 30.2856 29.6945V26.9115H31.2206ZM33.2301 24.7885C33.4061 24.7885 33.5564 24.8472 33.6811 24.9645C33.8058 25.0745 33.8681 25.2212 33.8681 25.4045C33.8681 25.5878 33.8058 25.7382 33.6811 25.8555C33.5564 25.9728 33.4061 26.0315 33.2301 26.0315C33.0468 26.0315 32.8964 25.9728 32.7791 25.8555C32.6618 25.7382 32.6031 25.5878 32.6031 25.4045C32.6031 25.2212 32.6618 25.0745 32.7791 24.9645C32.8964 24.8472 33.0468 24.7885 33.2301 24.7885ZM32.7681 32.7085V26.9115H33.7031V32.7085H32.7681ZM35.9845 30.1565C36.0065 30.4132 36.0578 30.6515 36.1385 30.8715C36.2265 31.0842 36.3438 31.2712 36.4905 31.4325C36.6372 31.5938 36.8168 31.7222 37.0295 31.8175C37.2495 31.9055 37.5025 31.9495 37.7885 31.9495C37.9278 31.9495 38.0708 31.9385 38.2175 31.9165C38.3715 31.8872 38.5145 31.8432 38.6465 31.7845C38.7785 31.7185 38.8958 31.6342 38.9985 31.5315C39.1012 31.4288 39.1782 31.3042 39.2295 31.1575H40.1865C40.1205 31.4362 40.0068 31.6782 39.8455 31.8835C39.6915 32.0888 39.5045 32.2575 39.2845 32.3895C39.0718 32.5215 38.8335 32.6205 38.5695 32.6865C38.3055 32.7452 38.0378 32.7745 37.7665 32.7745C37.3045 32.7745 36.9012 32.7012 36.5565 32.5545C36.2192 32.4078 35.9368 32.2062 35.7095 31.9495C35.4822 31.6855 35.3135 31.3738 35.2035 31.0145C35.0935 30.6478 35.0385 30.2482 35.0385 29.8155C35.0385 29.3828 35.0972 28.9868 35.2145 28.6275C35.3392 28.2608 35.5152 27.9455 35.7425 27.6815C35.9698 27.4175 36.2485 27.2122 36.5785 27.0655C36.9085 26.9188 37.3008 26.8455 37.7555 26.8455C38.2175 26.8455 38.6172 26.9372 38.9545 27.1205C39.2918 27.3038 39.5632 27.5458 39.7685 27.8465C39.9738 28.1398 40.1168 28.4588 40.1975 28.8035C40.2855 29.1482 40.3222 29.4672 40.3075 29.7605C40.3075 29.8265 40.3038 29.8925 40.2965 29.9585C40.2965 30.0245 40.2928 30.0905 40.2855 30.1565H35.9845ZM39.3615 29.3425C39.3468 28.8512 39.1928 28.4515 38.8995 28.1435C38.6062 27.8355 38.2138 27.6815 37.7225 27.6815C37.4512 27.6815 37.2128 27.7255 37.0075 27.8135C36.8022 27.9015 36.6298 28.0225 36.4905 28.1765C36.3512 28.3305 36.2412 28.5102 36.1605 28.7155C36.0798 28.9135 36.0285 29.1225 36.0065 29.3425H39.3615ZM41.5641 32.7085V24.9315H42.4991V32.7085H41.5641ZM49.1404 32.7085H48.2494L48.2054 31.8395C48.0074 32.1695 47.7324 32.4078 47.3804 32.5545C47.0357 32.7012 46.6727 32.7745 46.2914 32.7745C45.8514 32.7672 45.4701 32.6902 45.1474 32.5435C44.8247 32.3895 44.5607 32.1805 44.3554 31.9165C44.1501 31.6525 43.9961 31.3445 43.8934 30.9925C43.7981 30.6332 43.7504 30.2445 43.7504 29.8265C43.7504 29.4085 43.8017 29.0198 43.9044 28.6605C44.0071 28.2938 44.1647 27.9785 44.3774 27.7145C44.5901 27.4432 44.8577 27.2305 45.1804 27.0765C45.5031 26.9225 45.8881 26.8455 46.3354 26.8455C46.6727 26.8455 47.0137 26.9078 47.3584 27.0325C47.7031 27.1572 47.9854 27.3588 48.2054 27.6375V24.9315H49.1404V32.7085ZM46.4124 27.6815C46.0971 27.6815 45.8294 27.7402 45.6094 27.8575C45.3894 27.9675 45.2097 28.1178 45.0704 28.3085C44.9384 28.4992 44.8394 28.7265 44.7734 28.9905C44.7147 29.2472 44.6854 29.5295 44.6854 29.8375C44.6854 30.1455 44.7147 30.4242 44.7734 30.6735C44.8321 30.9155 44.9311 31.1318 45.0704 31.3225C45.2097 31.5132 45.3894 31.6672 45.6094 31.7845C45.8294 31.8945 46.1007 31.9495 46.4234 31.9495C46.7974 31.9495 47.1054 31.8615 47.3474 31.6855C47.5894 31.5095 47.7837 31.2895 47.9304 31.0255C48.0331 30.8422 48.1064 30.6442 48.1504 30.4315C48.1944 30.2115 48.2164 29.9952 48.2164 29.7825C48.2164 29.5185 48.1907 29.2765 48.1394 29.0565C48.0954 28.8365 48.0111 28.6312 47.8864 28.4405C47.7397 28.2278 47.5454 28.0482 47.3034 27.9015C47.0614 27.7548 46.7644 27.6815 46.4124 27.6815ZM53.2659 28.6165L56.9839 26.0865V27.1095L54.3329 28.8475L56.9839 30.5965V31.6195L53.2659 29.0895V28.6165ZM66.0019 28.6935C65.8993 28.9062 65.7673 29.0895 65.6059 29.2435C65.4446 29.3902 65.2649 29.5112 65.0669 29.6065C64.8689 29.7018 64.6599 29.7715 64.4399 29.8155C64.2273 29.8522 64.0109 29.8705 63.7909 29.8705C63.4463 29.8705 63.1236 29.8192 62.8229 29.7165C62.5223 29.6065 62.2583 29.4488 62.0309 29.2435C61.8109 29.0382 61.6349 28.7852 61.5029 28.4845C61.3709 28.1838 61.3049 27.8355 61.3049 27.4395C61.3049 27.0508 61.3709 26.6988 61.5029 26.3835C61.6349 26.0608 61.8183 25.7858 62.0529 25.5585C62.2949 25.3312 62.5773 25.1552 62.8999 25.0305C63.2226 24.9058 63.5929 24.8435 64.0109 24.8435C64.5829 24.8435 65.0559 24.9718 65.4299 25.2285C65.8039 25.4778 66.1009 25.8005 66.3209 26.1965C66.5409 26.5925 66.6949 27.0362 66.7829 27.5275C66.8709 28.0188 66.9149 28.5028 66.9149 28.9795C66.9149 29.5075 66.8526 30.0245 66.7279 30.5305C66.6106 31.0292 66.4163 31.4545 66.1449 31.8065C65.9103 32.1145 65.6023 32.3565 65.2209 32.5325C64.8469 32.7085 64.3959 32.7965 63.8679 32.7965C63.5893 32.7965 63.3143 32.7635 63.0429 32.6975C62.7789 32.6242 62.5369 32.5178 62.3169 32.3785C62.0969 32.2318 61.9063 32.0558 61.7449 31.8505C61.5836 31.6378 61.4663 31.3885 61.3929 31.1025H62.4489C62.5736 31.3812 62.7826 31.5902 63.0759 31.7295C63.3766 31.8615 63.6773 31.9275 63.9779 31.9275C64.3373 31.9202 64.6416 31.8468 64.8909 31.7075C65.1403 31.5682 65.3419 31.3812 65.4959 31.1465C65.6059 30.9778 65.6939 30.7908 65.7599 30.5855C65.8259 30.3728 65.8773 30.1675 65.9139 29.9695C65.9506 29.7642 65.9726 29.5698 65.9799 29.3865C65.9946 29.2032 66.0019 29.0528 66.0019 28.9355V28.6935ZM62.2839 27.3515C62.2839 27.8648 62.4306 28.2645 62.7239 28.5505C63.0246 28.8365 63.4279 28.9832 63.9339 28.9905C64.1686 28.9905 64.3886 28.9538 64.5939 28.8805C64.8066 28.8072 64.9899 28.7008 65.1439 28.5615C65.3053 28.4222 65.4299 28.2572 65.5179 28.0665C65.6133 27.8685 65.6609 27.6522 65.6609 27.4175C65.6609 27.1682 65.6169 26.9408 65.5289 26.7355C65.4483 26.5228 65.3309 26.3432 65.1769 26.1965C65.0303 26.0425 64.8543 25.9252 64.6489 25.8445C64.4436 25.7565 64.2199 25.7125 63.9779 25.7125C63.7359 25.7125 63.5086 25.7565 63.2959 25.8445C63.0906 25.9325 62.9109 26.0498 62.7569 26.1965C62.6103 26.3432 62.4929 26.5155 62.4049 26.7135C62.3243 26.9115 62.2839 27.1242 62.2839 27.3515ZM74.2312 28.8255C74.2312 29.3242 74.1799 29.8118 74.0772 30.2885C73.9819 30.7652 73.8169 31.1905 73.5822 31.5645C73.3476 31.9312 73.0359 32.2282 72.6472 32.4555C72.2586 32.6828 71.7746 32.7965 71.1952 32.7965C70.6086 32.7965 70.1209 32.6828 69.7322 32.4555C69.3436 32.2282 69.0319 31.9312 68.7972 31.5645C68.5626 31.1905 68.3976 30.7725 68.3022 30.3105C68.2069 29.8485 68.1592 29.3535 68.1592 28.8255C68.1592 28.2975 68.2069 27.8025 68.3022 27.3405C68.3976 26.8712 68.5626 26.4532 68.7972 26.0865C69.0319 25.7198 69.3436 25.4228 69.7322 25.1955C70.1209 24.9608 70.6086 24.8435 71.1952 24.8435C71.7746 24.8435 72.2586 24.9572 72.6472 25.1845C73.0359 25.4118 73.3476 25.7125 73.5822 26.0865C73.8169 26.4605 73.9819 26.8858 74.0772 27.3625C74.1799 27.8392 74.2312 28.3268 74.2312 28.8255ZM69.1382 28.8255C69.1382 29.1775 69.1639 29.5368 69.2152 29.9035C69.2666 30.2702 69.3656 30.6038 69.5122 30.9045C69.6589 31.2052 69.8642 31.4508 70.1282 31.6415C70.3996 31.8322 70.7552 31.9275 71.1952 31.9275C71.6279 31.9275 71.9762 31.8322 72.2402 31.6415C72.5116 31.4508 72.7206 31.2052 72.8672 30.9045C73.0139 30.6038 73.1129 30.2702 73.1642 29.9035C73.2156 29.5368 73.2412 29.1775 73.2412 28.8255C73.2412 28.4808 73.2156 28.1252 73.1642 27.7585C73.1129 27.3918 73.0139 27.0582 72.8672 26.7575C72.7206 26.4495 72.5116 26.2002 72.2402 26.0095C71.9762 25.8115 71.6279 25.7125 71.1952 25.7125C70.7552 25.7125 70.3996 25.8115 70.1282 26.0095C69.8642 26.2002 69.6589 26.4495 69.5122 26.7575C69.3656 27.0582 69.2666 27.3918 69.2152 27.7585C69.1639 28.1252 69.1382 28.4808 69.1382 28.8255ZM83.7195 32.7085H82.8285L82.7845 31.8395C82.5865 32.1695 82.3115 32.4078 81.9595 32.5545C81.6148 32.7012 81.2518 32.7745 80.8705 32.7745C80.4305 32.7672 80.0492 32.6902 79.7265 32.5435C79.4038 32.3895 79.1398 32.1805 78.9345 31.9165C78.7292 31.6525 78.5752 31.3445 78.4725 30.9925C78.3772 30.6332 78.3295 30.2445 78.3295 29.8265C78.3295 29.4085 78.3808 29.0198 78.4835 28.6605C78.5862 28.2938 78.7438 27.9785 78.9565 27.7145C79.1692 27.4432 79.4368 27.2305 79.7595 27.0765C80.0822 26.9225 80.4672 26.8455 80.9145 26.8455C81.2518 26.8455 81.5928 26.9078 81.9375 27.0325C82.2822 27.1572 82.5645 27.3588 82.7845 27.6375V24.9315H83.7195V32.7085ZM80.9915 27.6815C80.6762 27.6815 80.4085 27.7402 80.1885 27.8575C79.9685 27.9675 79.7888 28.1178 79.6495 28.3085C79.5175 28.4992 79.4185 28.7265 79.3525 28.9905C79.2938 29.2472 79.2645 29.5295 79.2645 29.8375C79.2645 30.1455 79.2938 30.4242 79.3525 30.6735C79.4112 30.9155 79.5102 31.1318 79.6495 31.3225C79.7888 31.5132 79.9685 31.6672 80.1885 31.7845C80.4085 31.8945 80.6798 31.9495 81.0025 31.9495C81.3765 31.9495 81.6845 31.8615 81.9265 31.6855C82.1685 31.5095 82.3628 31.2895 82.5095 31.0255C82.6122 30.8422 82.6855 30.6442 82.7295 30.4315C82.7735 30.2115 82.7955 29.9952 82.7955 29.7825C82.7955 29.5185 82.7698 29.2765 82.7185 29.0565C82.6745 28.8365 82.5902 28.6312 82.4655 28.4405C82.3188 28.2278 82.1245 28.0482 81.8825 27.9015C81.6405 27.7548 81.3435 27.6815 80.9915 27.6815ZM89.0052 31.9715C88.8805 32.1402 88.7375 32.2758 88.5762 32.3785C88.4148 32.4812 88.2462 32.5618 88.0702 32.6205C87.9015 32.6792 87.7292 32.7195 87.5532 32.7415C87.3845 32.7635 87.2158 32.7745 87.0472 32.7745C86.7758 32.7745 86.5192 32.7415 86.2772 32.6755C86.0352 32.6095 85.8152 32.5032 85.6172 32.3565C85.4265 32.2098 85.2725 32.0265 85.1552 31.8065C85.0452 31.5865 84.9902 31.3372 84.9902 31.0585C84.9902 30.7285 85.0488 30.4535 85.1662 30.2335C85.2908 30.0062 85.4558 29.8228 85.6612 29.6835C85.8665 29.5442 86.1012 29.4488 86.3652 29.3975C86.6365 29.3388 86.9225 29.3095 87.2232 29.3095H88.9282C88.9282 28.8182 88.8218 28.4295 88.6092 28.1435C88.3965 27.8502 88.0372 27.6962 87.5312 27.6815C87.2232 27.6815 86.9518 27.7328 86.7172 27.8355C86.4825 27.9382 86.3212 28.1068 86.2332 28.3415H85.2322C85.2835 28.0775 85.3862 27.8538 85.5402 27.6705C85.6942 27.4798 85.8775 27.3258 86.0902 27.2085C86.3028 27.0838 86.5338 26.9922 86.7832 26.9335C87.0325 26.8748 87.2818 26.8455 87.5312 26.8455C87.9638 26.8455 88.3268 26.9188 88.6202 27.0655C88.9208 27.2048 89.1628 27.3918 89.3462 27.6265C89.5295 27.8538 89.6578 28.1325 89.7312 28.4625C89.8045 28.7925 89.8412 29.1628 89.8412 29.5735V32.7085H89.0602L89.0052 31.9715ZM87.9052 30.0905C87.7292 30.0905 87.5238 30.0942 87.2892 30.1015C87.0618 30.1015 86.8418 30.1235 86.6292 30.1675C86.4165 30.2115 86.2442 30.3032 86.1122 30.4425C85.9875 30.5818 85.9252 30.7652 85.9252 30.9925C85.9252 31.1612 85.9582 31.3042 86.0242 31.4215C86.0902 31.5388 86.1782 31.6378 86.2882 31.7185C86.4055 31.7992 86.5375 31.8578 86.6842 31.8945C86.8308 31.9312 86.9812 31.9495 87.1352 31.9495C87.6852 31.9495 88.1178 31.8175 88.4332 31.5535C88.7558 31.2822 88.9208 30.8898 88.9282 30.3765V30.0905H87.9052ZM96.3827 26.9115V32.7085C96.3827 33.5518 96.1627 34.1935 95.7227 34.6335C95.2827 35.0808 94.6557 35.3045 93.8417 35.3045C93.3504 35.2972 92.9067 35.2312 92.5107 35.1065C92.1221 34.9892 91.7627 34.7765 91.4327 34.4685L91.8397 33.7315C92.1257 33.9588 92.4301 34.1385 92.7527 34.2705C93.0827 34.4025 93.4274 34.4685 93.7867 34.4685C94.0874 34.4685 94.3441 34.4208 94.5567 34.3255C94.7694 34.2375 94.9417 34.1092 95.0737 33.9405C95.2131 33.7792 95.3121 33.5848 95.3707 33.3575C95.4367 33.1302 95.4697 32.8845 95.4697 32.6205V31.9275C95.3744 32.0742 95.2534 32.2062 95.1067 32.3235C94.9674 32.4335 94.8134 32.5252 94.6447 32.5985C94.4834 32.6645 94.3074 32.7122 94.1167 32.7415C93.9334 32.7782 93.7464 32.7965 93.5557 32.7965C93.1157 32.7892 92.7491 32.7195 92.4557 32.5875C92.1697 32.4555 91.9387 32.2722 91.7627 32.0375C91.5941 31.8028 91.4731 31.5242 91.3997 31.2015C91.3264 30.8715 91.2897 30.5085 91.2897 30.1125V26.9115H92.2247V29.8485C92.2247 30.1125 92.2394 30.3728 92.2687 30.6295C92.3054 30.8862 92.3751 31.1135 92.4777 31.3115C92.5804 31.5095 92.7307 31.6708 92.9287 31.7955C93.1267 31.9128 93.3907 31.9715 93.7207 31.9715C94.0507 31.9715 94.3294 31.9018 94.5567 31.7625C94.7914 31.6232 94.9711 31.4472 95.0957 31.2345C95.2351 31.0145 95.3267 30.7725 95.3707 30.5085C95.4221 30.2445 95.4477 29.9732 95.4477 29.6945V26.9115H96.3827ZM99.9212 27.6815C99.7892 27.6815 99.6535 27.6925 99.5142 27.7145C99.3822 27.7292 99.2502 27.7658 99.1182 27.8245C98.9935 27.8758 98.8835 27.9565 98.7882 28.0665C98.7002 28.1692 98.6525 28.3085 98.6452 28.4845C98.6452 28.7338 98.7369 28.9208 98.9202 29.0455C99.1109 29.1702 99.3565 29.2618 99.6572 29.3205C99.7819 29.3498 99.9175 29.3792 100.064 29.4085C100.211 29.4305 100.354 29.4562 100.493 29.4855C100.64 29.5075 100.776 29.5332 100.9 29.5625C101.032 29.5918 101.142 29.6212 101.23 29.6505C101.934 29.8705 102.286 30.3435 102.286 31.0695C102.279 31.4215 102.202 31.7075 102.055 31.9275C101.916 32.1402 101.736 32.3088 101.516 32.4335C101.304 32.5582 101.058 32.6462 100.779 32.6975C100.508 32.7488 100.237 32.7745 99.9652 32.7745C99.7012 32.7745 99.4335 32.7488 99.1622 32.6975C98.8909 32.6462 98.6415 32.5582 98.4142 32.4335C98.1942 32.3015 98.0035 32.1328 97.8422 31.9275C97.6882 31.7148 97.5892 31.4508 97.5452 31.1355H98.4912C98.5499 31.3115 98.6415 31.4508 98.7662 31.5535C98.8909 31.6562 99.0229 31.7368 99.1622 31.7955C99.3089 31.8542 99.4445 31.8945 99.5692 31.9165C99.7012 31.9385 99.8479 31.9495 100.009 31.9495C100.127 31.9495 100.262 31.9422 100.416 31.9275C100.57 31.9128 100.717 31.8798 100.856 31.8285C100.996 31.7698 101.113 31.6855 101.208 31.5755C101.304 31.4655 101.351 31.3115 101.351 31.1135C101.351 30.8935 101.278 30.7285 101.131 30.6185C100.992 30.5085 100.798 30.4278 100.548 30.3765C100.372 30.3398 100.189 30.3068 99.9982 30.2775C99.8149 30.2408 99.6279 30.2042 99.4372 30.1675C99.2539 30.1235 99.0742 30.0758 98.8982 30.0245C98.7222 29.9658 98.5572 29.8888 98.4032 29.7935C98.1979 29.6688 98.0329 29.5002 97.9082 29.2875C97.7835 29.0748 97.7212 28.8145 97.7212 28.5065C97.7359 28.1838 97.8092 27.9198 97.9412 27.7145C98.0732 27.5018 98.2419 27.3295 98.4472 27.1975C98.6672 27.0655 98.9019 26.9738 99.1512 26.9225C99.4005 26.8712 99.6645 26.8455 99.9432 26.8455C100.537 26.8455 101.01 26.9738 101.362 27.2305C101.575 27.3772 101.74 27.5532 101.857 27.7585C101.975 27.9638 102.048 28.1802 102.077 28.4075H101.208C101.157 28.1948 101.018 28.0225 100.79 27.8905C100.563 27.7585 100.273 27.6888 99.9212 27.6815Z" fill="#1EAE50"/>
<defs>
<linearGradient id="paint0_linear_933_9911" x1="161.169" y1="58.6895" x2="161.169" y2="192.373" gradientUnits="userSpaceOnUse">
<stop stop-color="#1EAE50"/>
<stop offset="1" stop-color="#1EAE50" stop-opacity="0"/>
</linearGradient>
<linearGradient id="paint1_linear_933_9911" x1="14" y1="28.7086" x2="113.426" y2="28.7086" gradientUnits="userSpaceOnUse">
<stop stop-color="#A0E6B7"/>
<stop offset="0.0625" stop-color="#A0E6B7"/>
<stop offset="0.835213" stop-color="#32C365"/>
</linearGradient>
</defs>
</svg>
