<svg width="324" height="240" viewBox="0 0 324 240" fill="none" xmlns="http://www.w3.org/2000/svg">
<rect width="324" height="239" rx="16" fill="white"/>
<path d="M22.066 21.809H25.394C26.122 21.809 26.7633 21.9173 27.318 22.134C27.8813 22.342 28.3493 22.6453 28.722 23.044C29.1033 23.434 29.3893 23.915 29.58 24.487C29.7707 25.059 29.866 25.7003 29.866 26.411C29.866 27.1303 29.7707 27.7717 29.58 28.335C29.3893 28.8983 29.1077 29.3793 28.735 29.778C28.371 30.1767 27.9117 30.48 27.357 30.688C26.811 30.896 26.174 31 25.446 31H22.066V21.809ZM23.574 23.161V29.661H25.407C25.9097 29.661 26.343 29.583 26.707 29.427C27.071 29.271 27.37 29.0543 27.604 28.777C27.8467 28.491 28.0243 28.1487 28.137 27.75C28.2583 27.3513 28.319 26.905 28.319 26.411C28.319 25.3883 28.0677 24.591 27.565 24.019C27.071 23.447 26.3473 23.161 25.394 23.161H23.574ZM32.4606 28.075C32.478 28.3263 32.53 28.5603 32.6166 28.777C32.7033 28.9937 32.8203 29.1843 32.9676 29.349C33.1236 29.505 33.31 29.6307 33.5266 29.726C33.752 29.8213 34.012 29.869 34.3066 29.869C34.6186 29.869 34.9046 29.8127 35.1646 29.7C35.4246 29.5873 35.6153 29.3923 35.7366 29.115H37.2576C37.171 29.4617 37.028 29.7607 36.8286 30.012C36.638 30.2633 36.4083 30.4713 36.1396 30.636C35.8796 30.792 35.5893 30.909 35.2686 30.987C34.9566 31.0563 34.623 31.091 34.2676 31.091C33.7216 31.091 33.2406 31.0087 32.8246 30.844C32.4173 30.6793 32.075 30.441 31.7976 30.129C31.5203 29.817 31.3123 29.4487 31.1736 29.024C31.0436 28.5907 30.9786 28.1053 30.9786 27.568C30.9786 27.048 31.0523 26.5757 31.1996 26.151C31.347 25.7177 31.5593 25.345 31.8366 25.033C32.1226 24.721 32.465 24.4783 32.8636 24.305C33.2623 24.123 33.7173 24.032 34.2286 24.032C34.766 24.032 35.2296 24.123 35.6196 24.305C36.0096 24.4783 36.3346 24.7167 36.5946 25.02C36.8633 25.3233 37.0626 25.6787 37.1926 26.086C37.3226 26.4933 37.3876 26.9353 37.3876 27.412C37.3876 27.6373 37.3746 27.8583 37.3486 28.075H32.4606ZM35.9446 26.957C35.9273 26.437 35.7626 26.034 35.4506 25.748C35.1386 25.462 34.7356 25.319 34.2416 25.319C33.9643 25.319 33.7216 25.3623 33.5136 25.449C33.3056 25.5357 33.128 25.6527 32.9806 25.8C32.842 25.9473 32.7293 26.1207 32.6426 26.32C32.556 26.5193 32.4996 26.7317 32.4736 26.957H35.9446ZM43.1489 30.155C42.9235 30.4757 42.6245 30.714 42.2519 30.87C41.8792 31.0173 41.4632 31.091 41.0039 31.091C40.6399 31.091 40.3062 31.0477 40.0029 30.961C39.7082 30.8743 39.4482 30.7443 39.2229 30.571C38.9975 30.389 38.8199 30.168 38.6899 29.908C38.5599 29.6393 38.4949 29.336 38.4949 28.998C38.4949 28.6253 38.5685 28.309 38.7159 28.049C38.8632 27.7803 39.0625 27.5637 39.3139 27.399C39.5739 27.2343 39.8772 27.113 40.2239 27.035C40.5705 26.9483 40.9345 26.905 41.3159 26.905H43.0709C43.0709 26.4023 42.9582 26.0123 42.7329 25.735C42.5075 25.4577 42.1132 25.3147 41.5499 25.306C41.2205 25.306 40.9345 25.3623 40.6919 25.475C40.4579 25.5877 40.3019 25.774 40.2239 26.034H38.7029C38.7549 25.67 38.8719 25.3623 39.0539 25.111C39.2445 24.8597 39.4699 24.6517 39.7299 24.487C39.9985 24.3223 40.2932 24.2053 40.6139 24.136C40.9432 24.0667 41.2725 24.032 41.6019 24.032C42.0265 24.032 42.4209 24.0883 42.7849 24.201C43.1489 24.3137 43.4652 24.5043 43.7339 24.773C44.0372 25.085 44.2409 25.4577 44.3449 25.891C44.4489 26.3243 44.5009 26.7967 44.5009 27.308V31H43.2139L43.1489 30.155ZM43.0709 27.958H41.6409C41.3895 27.958 41.1382 27.9797 40.8869 28.023C40.6355 28.0577 40.4189 28.1487 40.2369 28.296C40.0635 28.4347 39.9769 28.6383 39.9769 28.907C39.9769 29.2363 40.0939 29.4877 40.3279 29.661C40.5705 29.8257 40.8652 29.908 41.2119 29.908C41.4805 29.908 41.7275 29.8733 41.9529 29.804C42.1869 29.7347 42.3862 29.622 42.5509 29.466C42.7155 29.3013 42.8412 29.0977 42.9279 28.855C43.0232 28.6037 43.0709 28.3047 43.0709 27.958ZM46.0921 31V21.809H47.5741V31H46.0921ZM55.7097 31.091C55.155 31.091 54.674 31.0087 54.2667 30.844C53.8594 30.6707 53.517 30.4323 53.2397 30.129C52.971 29.817 52.7674 29.4487 52.6287 29.024C52.4987 28.5907 52.4337 28.114 52.4337 27.594C52.4337 27.074 52.503 26.5973 52.6417 26.164C52.789 25.7307 53.0057 25.358 53.2917 25.046C53.5777 24.734 53.9244 24.487 54.3317 24.305C54.739 24.123 55.2114 24.032 55.7487 24.032C56.5374 24.032 57.1917 24.214 57.7117 24.578C58.2317 24.9333 58.561 25.501 58.6997 26.281H57.1787C57.1007 25.9777 56.9317 25.748 56.6717 25.592C56.4117 25.436 56.0954 25.358 55.7227 25.358C55.3934 25.358 55.1117 25.4187 54.8777 25.54C54.6437 25.6613 54.453 25.826 54.3057 26.034C54.1584 26.242 54.05 26.4847 53.9807 26.762C53.92 27.0307 53.8897 27.3123 53.8897 27.607C53.8897 27.9103 53.9244 28.1963 53.9937 28.465C54.063 28.7337 54.1714 28.9677 54.3187 29.167C54.466 29.3577 54.6567 29.5137 54.8907 29.635C55.1247 29.7477 55.4064 29.804 55.7357 29.804C56.1257 29.804 56.4464 29.7173 56.6977 29.544C56.9577 29.3707 57.1224 29.141 57.1917 28.855H58.7257C58.6564 29.245 58.5264 29.583 58.3357 29.869C58.1537 30.155 57.9284 30.389 57.6597 30.571C57.391 30.753 57.092 30.8873 56.7627 30.974C56.4334 31.052 56.0824 31.091 55.7097 31.091ZM59.9935 31V21.809H61.4755V31H59.9935ZM66.1722 24.032C66.7182 24.032 67.1992 24.1187 67.6152 24.292C68.0312 24.4653 68.3822 24.708 68.6682 25.02C68.9628 25.3233 69.1838 25.6917 69.3312 26.125C69.4785 26.5583 69.5522 27.0393 69.5522 27.568C69.5522 28.1053 69.4785 28.5907 69.3312 29.024C69.1925 29.4487 68.9802 29.817 68.6942 30.129C68.4082 30.441 68.0528 30.6793 67.6282 30.844C67.2122 31.0087 66.7268 31.091 66.1722 31.091C65.6262 31.091 65.1452 31.0087 64.7292 30.844C64.3132 30.6707 63.9622 30.4323 63.6762 30.129C63.3988 29.817 63.1865 29.4443 63.0392 29.011C62.9005 28.5777 62.8312 28.0967 62.8312 27.568C62.8312 27.0393 62.9005 26.5583 63.0392 26.125C63.1865 25.6917 63.4032 25.3233 63.6892 25.02C63.9752 24.708 64.3262 24.4653 64.7422 24.292C65.1582 24.1187 65.6348 24.032 66.1722 24.032ZM66.1722 29.804C66.5102 29.804 66.7962 29.7477 67.0302 29.635C67.2728 29.5137 67.4678 29.3533 67.6152 29.154C67.7712 28.9547 67.8838 28.7207 67.9532 28.452C68.0312 28.1833 68.0702 27.893 68.0702 27.581C68.0702 27.269 68.0312 26.9787 67.9532 26.71C67.8838 26.4327 67.7712 26.1943 67.6152 25.995C67.4678 25.7957 67.2728 25.6397 67.0302 25.527C66.7962 25.4143 66.5102 25.358 66.1722 25.358C65.8428 25.358 65.5612 25.4143 65.3272 25.527C65.0932 25.6397 64.8982 25.7957 64.7422 25.995C64.5862 26.1943 64.4692 26.4327 64.3912 26.71C64.3218 26.9787 64.2872 27.269 64.2872 27.581C64.2872 27.893 64.3218 28.1833 64.3912 28.452C64.4692 28.7207 64.5818 28.9547 64.7292 29.154C64.8852 29.3533 65.0802 29.5137 65.3142 29.635C65.5568 29.7477 65.8428 29.804 66.1722 29.804ZM73.4078 25.267C73.2778 25.267 73.1391 25.2757 72.9918 25.293C72.8531 25.3103 72.7188 25.3493 72.5888 25.41C72.4674 25.462 72.3634 25.54 72.2768 25.644C72.1988 25.748 72.1598 25.8823 72.1598 26.047C72.1598 26.229 72.2204 26.372 72.3418 26.476C72.4718 26.58 72.6234 26.6667 72.7968 26.736C72.9701 26.7967 73.1521 26.8487 73.3428 26.892C73.5421 26.9267 73.7111 26.957 73.8498 26.983C74.2224 27.061 74.5561 27.1433 74.8508 27.23C75.1541 27.3167 75.4098 27.4337 75.6178 27.581C75.8258 27.7197 75.9861 27.9017 76.0988 28.127C76.2201 28.3523 76.2808 28.647 76.2808 29.011C76.2808 29.401 76.1984 29.7303 76.0338 29.999C75.8778 30.2677 75.6698 30.4843 75.4098 30.649C75.1584 30.805 74.8681 30.9177 74.5388 30.987C74.2181 31.0563 73.8844 31.091 73.5378 31.091C73.1911 31.091 72.8488 31.0563 72.5108 30.987C72.1728 30.9177 71.8608 30.8007 71.5748 30.636C71.2974 30.4713 71.0634 30.2547 70.8728 29.986C70.6908 29.7087 70.5781 29.375 70.5348 28.985H72.0298C72.0644 29.1583 72.1381 29.3013 72.2508 29.414C72.3634 29.5267 72.4934 29.6177 72.6408 29.687C72.7968 29.7563 72.9571 29.804 73.1218 29.83C73.2864 29.856 73.4381 29.869 73.5768 29.869C73.6808 29.869 73.8064 29.8603 73.9538 29.843C74.1098 29.8257 74.2528 29.7867 74.3828 29.726C74.5128 29.6653 74.6211 29.5873 74.7078 29.492C74.8031 29.388 74.8508 29.258 74.8508 29.102C74.8508 28.9547 74.8161 28.8333 74.7468 28.738C74.6774 28.634 74.5821 28.5473 74.4608 28.478C74.3481 28.4087 74.2094 28.3567 74.0448 28.322C73.8801 28.2787 73.7068 28.2353 73.5248 28.192C73.2388 28.14 72.9311 28.075 72.6018 27.997C72.2811 27.919 71.9778 27.8193 71.6918 27.698C71.4144 27.568 71.1848 27.3773 71.0028 27.126C70.8208 26.8747 70.7298 26.554 70.7298 26.164C70.7298 25.748 70.8121 25.4057 70.9768 25.137C71.1414 24.8683 71.3538 24.6517 71.6138 24.487C71.8738 24.3137 72.1641 24.1967 72.4848 24.136C72.8054 24.0667 73.1218 24.032 73.4338 24.032C74.1878 24.032 74.8031 24.2053 75.2798 24.552C75.7651 24.8987 76.0294 25.4013 76.0728 26.06H74.6818C74.6384 25.7827 74.4954 25.5877 74.2528 25.475C74.0188 25.3537 73.7371 25.2843 73.4078 25.267ZM78.3834 21.302C78.6521 21.302 78.8731 21.3843 79.0464 21.549C79.2284 21.7137 79.3194 21.939 79.3194 22.225C79.3194 22.5023 79.2284 22.7233 79.0464 22.888C78.8731 23.0527 78.6521 23.135 78.3834 23.135C78.0974 23.135 77.8678 23.0527 77.6944 22.888C77.5211 22.7233 77.4344 22.5023 77.4344 22.225C77.4344 21.939 77.5211 21.7137 77.6944 21.549C77.8678 21.3843 78.0974 21.302 78.3834 21.302ZM77.6294 31V24.149H79.1114V31H77.6294ZM80.8265 31V24.149H82.2435L82.3215 25.098C82.5728 24.7427 82.8848 24.4783 83.2575 24.305C83.6388 24.123 84.0418 24.032 84.4665 24.032C84.9518 24.032 85.3592 24.1143 85.6885 24.279C86.0265 24.4437 86.2995 24.669 86.5075 24.955C86.7242 25.241 86.8758 25.579 86.9625 25.969C87.0578 26.359 87.1055 26.7837 87.1055 27.243V31H85.6235V27.464C85.6235 27.1693 85.6018 26.8963 85.5585 26.645C85.5238 26.3937 85.4502 26.1727 85.3375 25.982C85.2248 25.7827 85.0645 25.6267 84.8565 25.514C84.6572 25.4013 84.3972 25.345 84.0765 25.345C83.7732 25.345 83.4958 25.4187 83.2445 25.566C83.0018 25.7133 82.8112 25.904 82.6725 26.138C82.5425 26.372 82.4472 26.632 82.3865 26.918C82.3345 27.204 82.3085 27.477 82.3085 27.737V31H80.8265ZM95.1722 29.791C95.1549 30.1723 95.1462 30.5537 95.1462 30.935C95.1462 31.3163 95.0942 31.702 94.9902 32.092C94.7822 32.8287 94.4052 33.379 93.8592 33.743C93.3132 34.107 92.6329 34.289 91.8182 34.289C91.4369 34.289 91.0729 34.2457 90.7262 34.159C90.3882 34.0723 90.0805 33.938 89.8032 33.756C89.5345 33.574 89.3049 33.34 89.1142 33.054C88.9235 32.7767 88.7979 32.4387 88.7372 32.04H90.2842C90.3535 32.352 90.5355 32.586 90.8302 32.742C91.1335 32.898 91.4672 32.976 91.8312 32.976C92.2472 32.976 92.5765 32.898 92.8192 32.742C93.0705 32.5947 93.2612 32.3867 93.3912 32.118C93.5212 31.858 93.6035 31.5547 93.6382 31.208C93.6729 30.87 93.6902 30.5103 93.6902 30.129C93.4735 30.467 93.1919 30.714 92.8452 30.87C92.5072 31.026 92.0825 31.1083 91.5712 31.117C90.9819 31.1083 90.4922 31.013 90.1022 30.831C89.7209 30.6403 89.4045 30.3847 89.1532 30.064C88.9019 29.7433 88.7155 29.375 88.5942 28.959C88.4729 28.543 88.4122 28.101 88.4122 27.633C88.4122 27.113 88.4772 26.6363 88.6072 26.203C88.7459 25.7697 88.9495 25.3927 89.2182 25.072C89.4869 24.7513 89.8205 24.5 90.2192 24.318C90.6179 24.136 91.0815 24.045 91.6102 24.045C92.0609 24.045 92.4595 24.123 92.8062 24.279C93.1615 24.4263 93.4692 24.656 93.7292 24.968L93.8462 24.149H95.1722V29.791ZM91.7662 25.384C91.4369 25.384 91.1509 25.4403 90.9082 25.553C90.6742 25.6657 90.4792 25.8217 90.3232 26.021C90.1759 26.2203 90.0632 26.4587 89.9852 26.736C89.9159 27.0047 89.8812 27.295 89.8812 27.607C89.8812 27.919 89.9159 28.2093 89.9852 28.478C90.0632 28.738 90.1802 28.9677 90.3362 29.167C90.4922 29.3663 90.6872 29.5267 90.9212 29.648C91.1639 29.7607 91.4499 29.817 91.7792 29.817C92.1172 29.817 92.4032 29.752 92.6372 29.622C92.8799 29.492 93.0792 29.323 93.2352 29.115C93.3912 28.8983 93.5082 28.6557 93.5862 28.387C93.6642 28.1183 93.7032 27.841 93.7032 27.555C93.7032 27.2603 93.6642 26.9787 93.5862 26.71C93.5082 26.4413 93.3869 26.2117 93.2222 26.021C93.0662 25.8217 92.8669 25.6657 92.6242 25.553C92.3815 25.4403 92.0955 25.384 91.7662 25.384ZM102.342 24.149H104.071V25.436H102.342V28.569C102.342 28.959 102.412 29.2493 102.55 29.44C102.689 29.6307 102.953 29.726 103.343 29.726H104.019V31H103.213C102.373 31 101.77 30.8267 101.406 30.48C101.051 30.1333 100.873 29.5657 100.873 28.777V25.436H99.7944V24.149H100.873V22.212H102.342V24.149ZM106.034 21.302C106.302 21.302 106.523 21.3843 106.697 21.549C106.879 21.7137 106.97 21.939 106.97 22.225C106.97 22.5023 106.879 22.7233 106.697 22.888C106.523 23.0527 106.302 23.135 106.034 23.135C105.748 23.135 105.518 23.0527 105.345 22.888C105.171 22.7233 105.085 22.5023 105.085 22.225C105.085 21.939 105.171 21.7137 105.345 21.549C105.518 21.3843 105.748 21.302 106.034 21.302ZM105.28 31V24.149H106.762V31H105.28ZM109.894 24.149C109.903 24.2183 109.907 24.2877 109.907 24.357L109.946 24.76C109.955 24.8293 109.959 24.8987 109.959 24.968C110.436 24.3267 111.06 24.006 111.831 24.006C112.316 24.006 112.706 24.1057 113.001 24.305C113.296 24.5043 113.525 24.7687 113.69 25.098C113.959 24.7427 114.262 24.474 114.6 24.292C114.947 24.1013 115.35 24.006 115.809 24.006C116.199 24.006 116.533 24.071 116.81 24.201C117.096 24.331 117.321 24.513 117.486 24.747C117.659 24.981 117.785 25.254 117.863 25.566C117.941 25.8693 117.98 26.1943 117.98 26.541V31H116.498V27.087C116.498 26.879 116.485 26.671 116.459 26.463C116.433 26.255 116.377 26.0687 116.29 25.904C116.212 25.7307 116.095 25.592 115.939 25.488C115.783 25.3753 115.575 25.319 115.315 25.319C115.038 25.319 114.808 25.3883 114.626 25.527C114.453 25.657 114.314 25.8173 114.21 26.008C114.115 26.1987 114.05 26.4153 114.015 26.658C113.98 26.892 113.963 27.126 113.963 27.36V31H112.494V27.061C112.494 26.8617 112.481 26.6623 112.455 26.463C112.438 26.255 112.39 26.0687 112.312 25.904C112.234 25.7393 112.117 25.6007 111.961 25.488C111.814 25.3753 111.606 25.319 111.337 25.319C111.06 25.319 110.826 25.3883 110.635 25.527C110.453 25.6657 110.31 25.839 110.206 26.047C110.102 26.2463 110.033 26.4673 109.998 26.71C109.963 26.944 109.946 27.1607 109.946 27.36V31H108.477V24.149H109.894ZM120.744 28.075C120.761 28.3263 120.813 28.5603 120.9 28.777C120.986 28.9937 121.103 29.1843 121.251 29.349C121.407 29.505 121.593 29.6307 121.81 29.726C122.035 29.8213 122.295 29.869 122.59 29.869C122.902 29.869 123.188 29.8127 123.448 29.7C123.708 29.5873 123.898 29.3923 124.02 29.115H125.541C125.454 29.4617 125.311 29.7607 125.112 30.012C124.921 30.2633 124.691 30.4713 124.423 30.636C124.163 30.792 123.872 30.909 123.552 30.987C123.24 31.0563 122.906 31.091 122.551 31.091C122.005 31.091 121.524 31.0087 121.108 30.844C120.7 30.6793 120.358 30.441 120.081 30.129C119.803 29.817 119.595 29.4487 119.457 29.024C119.327 28.5907 119.262 28.1053 119.262 27.568C119.262 27.048 119.335 26.5757 119.483 26.151C119.63 25.7177 119.842 25.345 120.12 25.033C120.406 24.721 120.748 24.4783 121.147 24.305C121.545 24.123 122 24.032 122.512 24.032C123.049 24.032 123.513 24.123 123.903 24.305C124.293 24.4783 124.618 24.7167 124.878 25.02C125.146 25.3233 125.346 25.6787 125.476 26.086C125.606 26.4933 125.671 26.9353 125.671 27.412C125.671 27.6373 125.658 27.8583 125.632 28.075H120.744ZM124.228 26.957C124.21 26.437 124.046 26.034 123.734 25.748C123.422 25.462 123.019 25.319 122.525 25.319C122.247 25.319 122.005 25.3623 121.797 25.449C121.589 25.5357 121.411 25.6527 121.264 25.8C121.125 25.9473 121.012 26.1207 120.926 26.32C120.839 26.5193 120.783 26.7317 120.757 26.957H124.228Z" fill="#191919"/>
<rect x="21" y="52" width="0.598039" height="150" fill="#C4C4C4"/>
<rect x="114.467" y="52" width="0.598039" height="150" fill="#DFDFDF"/>
<rect x="207.936" y="52" width="0.598039" height="150" fill="#DFDFDF"/>
<rect x="301.402" y="52" width="0.598039" height="150" fill="#DFDFDF"/>
<rect x="21" y="77" width="0.598039" height="119.608" fill="#ACACAC"/>
<path d="M48.0372 222.143H47.0802V215.906H45.4962V215.257C45.7162 215.242 45.9179 215.224 46.1012 215.202C46.2845 215.173 46.4532 215.125 46.6072 215.059C46.7612 214.993 46.9005 214.905 47.0252 214.795C47.1499 214.685 47.2635 214.542 47.3662 214.366H48.0372V222.143ZM52.3141 216.346H53.3701L54.7561 221.241L56.1861 216.346H57.4511L58.8921 221.241L60.2561 216.346H61.3231L59.5191 222.143H58.2431L56.8131 217.446L55.3831 222.143H54.1181L52.3141 216.346ZM62.9156 219.591C62.9376 219.848 62.989 220.086 63.0696 220.306C63.1576 220.519 63.275 220.706 63.4216 220.867C63.5683 221.028 63.748 221.157 63.9606 221.252C64.1806 221.34 64.4336 221.384 64.7196 221.384C64.859 221.384 65.002 221.373 65.1486 221.351C65.3026 221.322 65.4456 221.278 65.5776 221.219C65.7096 221.153 65.827 221.069 65.9296 220.966C66.0323 220.863 66.1093 220.739 66.1606 220.592H67.1176C67.0516 220.871 66.938 221.113 66.7766 221.318C66.6226 221.523 66.4356 221.692 66.2156 221.824C66.003 221.956 65.7646 222.055 65.5006 222.121C65.2366 222.18 64.969 222.209 64.6976 222.209C64.2356 222.209 63.8323 222.136 63.4876 221.989C63.1503 221.842 62.868 221.641 62.6406 221.384C62.4133 221.12 62.2446 220.808 62.1346 220.449C62.0246 220.082 61.9696 219.683 61.9696 219.25C61.9696 218.817 62.0283 218.421 62.1456 218.062C62.2703 217.695 62.4463 217.38 62.6736 217.116C62.901 216.852 63.1796 216.647 63.5096 216.5C63.8396 216.353 64.232 216.28 64.6866 216.28C65.1486 216.28 65.5483 216.372 65.8856 216.555C66.223 216.738 66.4943 216.98 66.6996 217.281C66.905 217.574 67.048 217.893 67.1286 218.238C67.2166 218.583 67.2533 218.902 67.2386 219.195C67.2386 219.261 67.235 219.327 67.2276 219.393C67.2276 219.459 67.224 219.525 67.2166 219.591H62.9156ZM66.2926 218.777C66.278 218.286 66.124 217.886 65.8306 217.578C65.5373 217.27 65.145 217.116 64.6536 217.116C64.3823 217.116 64.144 217.16 63.9386 217.248C63.7333 217.336 63.561 217.457 63.4216 217.611C63.2823 217.765 63.1723 217.945 63.0916 218.15C63.011 218.348 62.9596 218.557 62.9376 218.777H66.2926ZM69.2213 219.591C69.2433 219.848 69.2946 220.086 69.3753 220.306C69.4633 220.519 69.5806 220.706 69.7273 220.867C69.874 221.028 70.0536 221.157 70.2663 221.252C70.4863 221.34 70.7393 221.384 71.0253 221.384C71.1646 221.384 71.3076 221.373 71.4543 221.351C71.6083 221.322 71.7513 221.278 71.8833 221.219C72.0153 221.153 72.1326 221.069 72.2353 220.966C72.338 220.863 72.415 220.739 72.4663 220.592H73.4233C73.3573 220.871 73.2436 221.113 73.0823 221.318C72.9283 221.523 72.7413 221.692 72.5213 221.824C72.3086 221.956 72.0703 222.055 71.8063 222.121C71.5423 222.18 71.2746 222.209 71.0033 222.209C70.5413 222.209 70.138 222.136 69.7933 221.989C69.456 221.842 69.1736 221.641 68.9463 221.384C68.719 221.12 68.5503 220.808 68.4403 220.449C68.3303 220.082 68.2753 219.683 68.2753 219.25C68.2753 218.817 68.334 218.421 68.4513 218.062C68.576 217.695 68.752 217.38 68.9793 217.116C69.2066 216.852 69.4853 216.647 69.8153 216.5C70.1453 216.353 70.5376 216.28 70.9923 216.28C71.4543 216.28 71.854 216.372 72.1913 216.555C72.5286 216.738 72.8 216.98 73.0053 217.281C73.2106 217.574 73.3536 217.893 73.4343 218.238C73.5223 218.583 73.559 218.902 73.5443 219.195C73.5443 219.261 73.5406 219.327 73.5333 219.393C73.5333 219.459 73.5296 219.525 73.5223 219.591H69.2213ZM72.5983 218.777C72.5836 218.286 72.4296 217.886 72.1363 217.578C71.843 217.27 71.4506 217.116 70.9593 217.116C70.688 217.116 70.4496 217.16 70.2443 217.248C70.039 217.336 69.8666 217.457 69.7273 217.611C69.588 217.765 69.478 217.945 69.3973 218.15C69.3166 218.348 69.2653 218.557 69.2433 218.777H72.5983ZM74.801 222.143V214.366H75.736V218.843H76.748L78.486 216.346H79.542L77.606 219.107L79.707 222.143H78.607L76.858 219.657H75.736V222.143H74.801Z" fill="#707070"/>
<path d="M143.634 219.426C143.832 219.257 144.048 219.074 144.283 218.876C144.525 218.671 144.749 218.451 144.954 218.216C145.167 217.981 145.346 217.736 145.493 217.479C145.64 217.215 145.717 216.929 145.724 216.621C145.739 216.152 145.603 215.792 145.317 215.543C145.031 215.286 144.653 215.158 144.184 215.158C143.81 215.158 143.484 215.235 143.205 215.389C142.926 215.543 142.743 215.767 142.655 216.06H141.632C141.683 215.759 141.79 215.499 141.951 215.279C142.12 215.052 142.321 214.865 142.556 214.718C142.798 214.571 143.062 214.461 143.348 214.388C143.634 214.315 143.927 214.278 144.228 214.278C144.587 214.278 144.917 214.329 145.218 214.432C145.519 214.527 145.779 214.67 145.999 214.861C146.219 215.052 146.388 215.29 146.505 215.576C146.63 215.855 146.692 216.174 146.692 216.533C146.692 216.892 146.637 217.215 146.527 217.501C146.424 217.787 146.281 218.051 146.098 218.293C145.922 218.535 145.72 218.762 145.493 218.975C145.266 219.188 145.031 219.4 144.789 219.613L142.82 221.274H146.78V222.143H141.434V221.351L143.634 219.426ZM150.431 216.346H151.487L152.873 221.241L154.303 216.346H155.568L157.009 221.241L158.373 216.346H159.44L157.636 222.143H156.36L154.93 217.446L153.5 222.143H152.235L150.431 216.346ZM161.033 219.591C161.055 219.848 161.106 220.086 161.187 220.306C161.275 220.519 161.392 220.706 161.539 220.867C161.685 221.028 161.865 221.157 162.078 221.252C162.298 221.34 162.551 221.384 162.837 221.384C162.976 221.384 163.119 221.373 163.266 221.351C163.42 221.322 163.563 221.278 163.695 221.219C163.827 221.153 163.944 221.069 164.047 220.966C164.149 220.863 164.226 220.739 164.278 220.592H165.235C165.169 220.871 165.055 221.113 164.894 221.318C164.74 221.523 164.553 221.692 164.333 221.824C164.12 221.956 163.882 222.055 163.618 222.121C163.354 222.18 163.086 222.209 162.815 222.209C162.353 222.209 161.949 222.136 161.605 221.989C161.267 221.842 160.985 221.641 160.758 221.384C160.53 221.12 160.362 220.808 160.252 220.449C160.142 220.082 160.087 219.683 160.087 219.25C160.087 218.817 160.145 218.421 160.263 218.062C160.387 217.695 160.563 217.38 160.791 217.116C161.018 216.852 161.297 216.647 161.627 216.5C161.957 216.353 162.349 216.28 162.804 216.28C163.266 216.28 163.665 216.372 164.003 216.555C164.34 216.738 164.611 216.98 164.817 217.281C165.022 217.574 165.165 217.893 165.246 218.238C165.334 218.583 165.37 218.902 165.356 219.195C165.356 219.261 165.352 219.327 165.345 219.393C165.345 219.459 165.341 219.525 165.334 219.591H161.033ZM164.41 218.777C164.395 218.286 164.241 217.886 163.948 217.578C163.654 217.27 163.262 217.116 162.771 217.116C162.499 217.116 162.261 217.16 162.056 217.248C161.85 217.336 161.678 217.457 161.539 217.611C161.399 217.765 161.289 217.945 161.209 218.15C161.128 218.348 161.077 218.557 161.055 218.777H164.41ZM167.338 219.591C167.36 219.848 167.412 220.086 167.492 220.306C167.58 220.519 167.698 220.706 167.844 220.867C167.991 221.028 168.171 221.157 168.383 221.252C168.603 221.34 168.856 221.384 169.142 221.384C169.282 221.384 169.425 221.373 169.571 221.351C169.725 221.322 169.868 221.278 170 221.219C170.132 221.153 170.25 221.069 170.352 220.966C170.455 220.863 170.532 220.739 170.583 220.592H171.54C171.474 220.871 171.361 221.113 171.199 221.318C171.045 221.523 170.858 221.692 170.638 221.824C170.426 221.956 170.187 222.055 169.923 222.121C169.659 222.18 169.392 222.209 169.12 222.209C168.658 222.209 168.255 222.136 167.91 221.989C167.573 221.842 167.291 221.641 167.063 221.384C166.836 221.12 166.667 220.808 166.557 220.449C166.447 220.082 166.392 219.683 166.392 219.25C166.392 218.817 166.451 218.421 166.568 218.062C166.693 217.695 166.869 217.38 167.096 217.116C167.324 216.852 167.602 216.647 167.932 216.5C168.262 216.353 168.655 216.28 169.109 216.28C169.571 216.28 169.971 216.372 170.308 216.555C170.646 216.738 170.917 216.98 171.122 217.281C171.328 217.574 171.471 217.893 171.551 218.238C171.639 218.583 171.676 218.902 171.661 219.195C171.661 219.261 171.658 219.327 171.65 219.393C171.65 219.459 171.647 219.525 171.639 219.591H167.338ZM170.715 218.777C170.701 218.286 170.547 217.886 170.253 217.578C169.96 217.27 169.568 217.116 169.076 217.116C168.805 217.116 168.567 217.16 168.361 217.248C168.156 217.336 167.984 217.457 167.844 217.611C167.705 217.765 167.595 217.945 167.514 218.15C167.434 218.348 167.382 218.557 167.36 218.777H170.715ZM172.918 222.143V214.366H173.853V218.843H174.865L176.603 216.346H177.659L175.723 219.107L177.824 222.143H176.724L174.975 219.657H173.853V222.143H172.918Z" fill="#707070"/>
<path d="M239.628 222.231C239.32 222.231 239.008 222.202 238.693 222.143C238.385 222.084 238.095 221.985 237.824 221.846C237.56 221.699 237.332 221.509 237.142 221.274C236.958 221.039 236.841 220.75 236.79 220.405H237.78C237.846 220.596 237.945 220.753 238.077 220.878C238.216 220.995 238.37 221.091 238.539 221.164C238.715 221.237 238.898 221.289 239.089 221.318C239.279 221.347 239.463 221.362 239.639 221.362C239.8 221.362 239.983 221.347 240.189 221.318C240.394 221.289 240.585 221.226 240.761 221.131C240.944 221.036 241.094 220.896 241.212 220.713C241.336 220.522 241.399 220.273 241.399 219.965C241.399 219.672 241.34 219.437 241.223 219.261C241.113 219.085 240.966 218.949 240.783 218.854C240.607 218.759 240.405 218.696 240.178 218.667C239.958 218.638 239.734 218.623 239.507 218.623H238.759V217.765H239.21C239.408 217.765 239.591 217.761 239.76 217.754C239.928 217.739 240.115 217.688 240.321 217.6C240.555 217.49 240.742 217.336 240.882 217.138C241.021 216.933 241.094 216.698 241.102 216.434C241.102 216.17 241.058 215.954 240.97 215.785C240.882 215.616 240.764 215.484 240.618 215.389C240.471 215.294 240.306 215.231 240.123 215.202C239.939 215.165 239.752 215.147 239.562 215.147C239.408 215.147 239.246 215.165 239.078 215.202C238.916 215.231 238.762 215.283 238.616 215.356C238.476 215.429 238.352 215.528 238.242 215.653C238.132 215.77 238.055 215.913 238.011 216.082H237.054C237.098 215.759 237.2 215.484 237.362 215.257C237.523 215.03 237.721 214.843 237.956 214.696C238.198 214.549 238.462 214.443 238.748 214.377C239.041 214.311 239.338 214.278 239.639 214.278C239.969 214.278 240.277 214.315 240.563 214.388C240.856 214.454 241.113 214.568 241.333 214.729C241.553 214.883 241.725 215.088 241.85 215.345C241.982 215.602 242.048 215.913 242.048 216.28C242.048 216.419 242.033 216.57 242.004 216.731C241.974 216.885 241.919 217.039 241.839 217.193C241.758 217.347 241.641 217.501 241.487 217.655C241.333 217.809 241.131 217.937 240.882 218.04C241.373 218.135 241.747 218.352 242.004 218.689C242.26 219.019 242.389 219.419 242.389 219.888V219.932C242.389 220.335 242.315 220.684 242.169 220.977C242.029 221.263 241.835 221.501 241.586 221.692C241.336 221.875 241.043 222.011 240.706 222.099C240.368 222.187 240.009 222.231 239.628 222.231ZM246.109 216.346H247.165L248.551 221.241L249.981 216.346H251.246L252.687 221.241L254.051 216.346H255.118L253.314 222.143H252.038L250.608 217.446L249.178 222.143H247.913L246.109 216.346ZM256.71 219.591C256.732 219.848 256.783 220.086 256.864 220.306C256.952 220.519 257.069 220.706 257.216 220.867C257.363 221.028 257.542 221.157 257.755 221.252C257.975 221.34 258.228 221.384 258.514 221.384C258.653 221.384 258.796 221.373 258.943 221.351C259.097 221.322 259.24 221.278 259.372 221.219C259.504 221.153 259.621 221.069 259.724 220.966C259.827 220.863 259.904 220.739 259.955 220.592H260.912C260.846 220.871 260.732 221.113 260.571 221.318C260.417 221.523 260.23 221.692 260.01 221.824C259.797 221.956 259.559 222.055 259.295 222.121C259.031 222.18 258.763 222.209 258.492 222.209C258.03 222.209 257.627 222.136 257.282 221.989C256.945 221.842 256.662 221.641 256.435 221.384C256.208 221.12 256.039 220.808 255.929 220.449C255.819 220.082 255.764 219.683 255.764 219.25C255.764 218.817 255.823 218.421 255.94 218.062C256.065 217.695 256.241 217.38 256.468 217.116C256.695 216.852 256.974 216.647 257.304 216.5C257.634 216.353 258.026 216.28 258.481 216.28C258.943 216.28 259.343 216.372 259.68 216.555C260.017 216.738 260.289 216.98 260.494 217.281C260.699 217.574 260.842 217.893 260.923 218.238C261.011 218.583 261.048 218.902 261.033 219.195C261.033 219.261 261.029 219.327 261.022 219.393C261.022 219.459 261.018 219.525 261.011 219.591H256.71ZM260.087 218.777C260.072 218.286 259.918 217.886 259.625 217.578C259.332 217.27 258.939 217.116 258.448 217.116C258.177 217.116 257.938 217.16 257.733 217.248C257.528 217.336 257.355 217.457 257.216 217.611C257.077 217.765 256.967 217.945 256.886 218.15C256.805 218.348 256.754 218.557 256.732 218.777H260.087ZM263.016 219.591C263.038 219.848 263.089 220.086 263.17 220.306C263.258 220.519 263.375 220.706 263.522 220.867C263.668 221.028 263.848 221.157 264.061 221.252C264.281 221.34 264.534 221.384 264.82 221.384C264.959 221.384 265.102 221.373 265.249 221.351C265.403 221.322 265.546 221.278 265.678 221.219C265.81 221.153 265.927 221.069 266.03 220.966C266.132 220.863 266.209 220.739 266.261 220.592H267.218C267.152 220.871 267.038 221.113 266.877 221.318C266.723 221.523 266.536 221.692 266.316 221.824C266.103 221.956 265.865 222.055 265.601 222.121C265.337 222.18 265.069 222.209 264.798 222.209C264.336 222.209 263.932 222.136 263.588 221.989C263.25 221.842 262.968 221.641 262.741 221.384C262.513 221.12 262.345 220.808 262.235 220.449C262.125 220.082 262.07 219.683 262.07 219.25C262.07 218.817 262.128 218.421 262.246 218.062C262.37 217.695 262.546 217.38 262.774 217.116C263.001 216.852 263.28 216.647 263.61 216.5C263.94 216.353 264.332 216.28 264.787 216.28C265.249 216.28 265.648 216.372 265.986 216.555C266.323 216.738 266.594 216.98 266.8 217.281C267.005 217.574 267.148 217.893 267.229 218.238C267.317 218.583 267.353 218.902 267.339 219.195C267.339 219.261 267.335 219.327 267.328 219.393C267.328 219.459 267.324 219.525 267.317 219.591H263.016ZM266.393 218.777C266.378 218.286 266.224 217.886 265.931 217.578C265.637 217.27 265.245 217.116 264.754 217.116C264.482 217.116 264.244 217.16 264.039 217.248C263.833 217.336 263.661 217.457 263.522 217.611C263.382 217.765 263.272 217.945 263.192 218.15C263.111 218.348 263.06 218.557 263.038 218.777H266.393ZM268.595 222.143V214.366H269.53V218.843H270.542L272.28 216.346H273.336L271.4 219.107L273.501 222.143H272.401L270.652 219.657H269.53V222.143H268.595Z" fill="#707070"/>
<rect x="21.5977" y="202.608" width="0.598027" height="280.48" transform="rotate(-90 21.5977 202.608)" fill="#ACACAC"/>
<path d="M287 82C294.732 82 301 88.268 301 96C301 103.732 294.732 110 287 110L21 110L21 82L287 82Z" fill="#AFB4B7"/>
<path d="M141 153C148.732 153 155 159.268 155 167C155 174.732 148.732 181 141 181L21 181L21 153L141 153Z" fill="url(#paint0_linear_933_9832)"/>
<path d="M23.168 64.622H24.512L26.276 70.852L28.096 64.622H29.706L31.54 70.852L33.276 64.622H34.634L32.338 72H30.714L28.894 66.022L27.074 72H25.464L23.168 64.622ZM36.0028 61.92C36.2268 61.92 36.4182 61.9947 36.5768 62.144C36.7355 62.284 36.8148 62.4707 36.8148 62.704C36.8148 62.9373 36.7355 63.1287 36.5768 63.278C36.4182 63.4273 36.2268 63.502 36.0028 63.502C35.7695 63.502 35.5782 63.4273 35.4288 63.278C35.2795 63.1287 35.2048 62.9373 35.2048 62.704C35.2048 62.4707 35.2795 62.284 35.4288 62.144C35.5782 61.9947 35.7695 61.92 36.0028 61.92ZM35.4148 72V64.622H36.6048V72H35.4148ZM40.0264 64.622H42.0004V65.672H40.0264V69.494C40.0264 69.998 40.1244 70.3713 40.3204 70.614C40.5164 70.8473 40.8804 70.964 41.4124 70.964H41.9584V72H41.1604C40.3204 72 39.7231 71.8087 39.3684 71.426C39.0137 71.0433 38.8364 70.4413 38.8364 69.62V65.672H37.6324V64.622H38.8364V62.424H40.0264V64.622ZM42.926 72V62.102H44.116V65.756C44.2374 65.5693 44.3914 65.3967 44.578 65.238C44.7647 65.0793 44.9607 64.9487 45.166 64.846C45.3714 64.7433 45.5954 64.6687 45.838 64.622C46.09 64.566 46.3327 64.538 46.566 64.538C47.098 64.538 47.5414 64.6267 47.896 64.804C48.26 64.972 48.5494 65.21 48.764 65.518C48.988 65.8167 49.142 66.176 49.226 66.596C49.3194 67.0067 49.366 67.4547 49.366 67.94V72H48.176V68.304C48.176 67.968 48.1574 67.6413 48.12 67.324C48.0827 66.9973 47.9987 66.708 47.868 66.456C47.7374 66.204 47.5507 65.9987 47.308 65.84C47.0654 65.672 46.734 65.588 46.314 65.588C45.9687 65.588 45.6467 65.6767 45.348 65.854C45.0587 66.022 44.8254 66.2367 44.648 66.498C44.4334 66.7873 44.2887 67.1093 44.214 67.464C44.1487 67.8187 44.116 68.1827 44.116 68.556V72H42.926ZM54.0255 64.538C54.6135 64.538 55.1222 64.6313 55.5515 64.818C55.9809 65.0047 56.3402 65.266 56.6295 65.602C56.9282 65.938 57.1475 66.3393 57.2875 66.806C57.4369 67.2633 57.5115 67.7673 57.5115 68.318C57.5115 68.8687 57.4369 69.3773 57.2875 69.844C57.1475 70.3013 56.9282 70.698 56.6295 71.034C56.3402 71.3607 55.9762 71.6173 55.5375 71.804C55.0989 71.9907 54.5855 72.084 53.9975 72.084C53.4095 72.084 52.8962 71.9907 52.4575 71.804C52.0282 71.6173 51.6642 71.3607 51.3655 71.034C51.0762 70.698 50.8569 70.3013 50.7075 69.844C50.5675 69.3773 50.4975 68.8687 50.4975 68.318C50.4975 67.7673 50.5675 67.2633 50.7075 66.806C50.8569 66.3393 51.0762 65.938 51.3655 65.602C51.6642 65.266 52.0375 65.0047 52.4855 64.818C52.9335 64.6313 53.4469 64.538 54.0255 64.538ZM53.9975 71.034C54.3989 71.034 54.7442 70.964 55.0335 70.824C55.3322 70.684 55.5749 70.4927 55.7615 70.25C55.9575 69.998 56.0975 69.7087 56.1815 69.382C56.2749 69.0553 56.3215 68.7007 56.3215 68.318C56.3215 67.9447 56.2749 67.5947 56.1815 67.268C56.0975 66.932 55.9575 66.6427 55.7615 66.4C55.5749 66.148 55.3322 65.952 55.0335 65.812C54.7442 65.672 54.3989 65.602 53.9975 65.602C53.5962 65.602 53.2509 65.672 52.9615 65.812C52.6722 65.952 52.4295 66.148 52.2335 66.4C52.0469 66.6427 51.9069 66.932 51.8135 67.268C51.7295 67.5947 51.6875 67.9447 51.6875 68.318C51.6875 68.7007 51.7295 69.0553 51.8135 69.382C51.9069 69.7087 52.0469 69.998 52.2335 70.25C52.4295 70.4927 52.6722 70.684 52.9615 70.824C53.2509 70.964 53.5962 71.034 53.9975 71.034ZM61.7637 71.034C62.4357 71.034 62.9257 70.8333 63.2337 70.432C63.551 70.0213 63.7097 69.452 63.7097 68.724V64.622H64.8997V68.78C64.8997 69.9 64.629 70.7307 64.0877 71.272C63.5557 71.8133 62.781 72.084 61.7637 72.084C60.7464 72.084 59.9717 71.8133 59.4397 71.272C58.917 70.7307 58.6557 69.9 58.6557 68.78V64.622H59.8457V68.724C59.8457 69.452 60.0044 70.0213 60.3217 70.432C60.639 70.8333 61.1197 71.034 61.7637 71.034ZM68.1921 64.622H70.4601V65.672H68.1921V69.508C68.1921 69.7227 68.2014 69.9233 68.2201 70.11C68.2481 70.2873 68.2948 70.446 68.3601 70.586C68.4348 70.7167 68.5374 70.824 68.6681 70.908C68.8081 70.9827 68.9948 71.0247 69.2281 71.034C69.4428 71.034 69.6294 70.9967 69.7881 70.922C69.9561 70.8473 70.0961 70.7587 70.2081 70.656L70.7261 71.524C70.4834 71.7293 70.2314 71.874 69.9701 71.958C69.7088 72.042 69.4194 72.084 69.1021 72.084C68.7008 72.084 68.3648 72.028 68.0941 71.916C67.8234 71.7947 67.5948 71.622 67.4081 71.398C67.2494 71.1833 67.1421 70.9313 67.0861 70.642C67.0301 70.3527 67.0021 70.026 67.0021 69.662V65.672H65.7981V64.622H67.0021V62.41H68.1921V64.622ZM75.0943 62.102H78.5243C79.6163 62.102 80.4703 62.3727 81.0863 62.914C81.7023 63.446 82.0103 64.272 82.0103 65.392C82.0103 65.9613 81.9077 66.4607 81.7023 66.89C81.5063 67.3193 81.231 67.674 80.8763 67.954C80.5777 68.1967 80.2043 68.388 79.7563 68.528C79.3083 68.668 78.8137 68.738 78.2723 68.738H76.3123V72H75.0943V62.102ZM78.2163 67.632C78.571 67.632 78.9163 67.59 79.2523 67.506C79.5883 67.4127 79.8637 67.268 80.0783 67.072C80.293 66.8853 80.461 66.6567 80.5823 66.386C80.7037 66.1153 80.7643 65.7653 80.7643 65.336C80.7643 63.9173 79.999 63.208 78.4683 63.208H76.3123V67.632H78.2163ZM83.2127 72V64.622H84.3607L84.4167 65.77C84.6874 65.3407 85.0327 65.028 85.4527 64.832C85.8727 64.636 86.3487 64.538 86.8807 64.538H87.2587V65.658H86.8247C86.386 65.658 86.0127 65.7327 85.7047 65.882C85.3967 66.022 85.1447 66.218 84.9487 66.47C84.762 66.7127 84.622 67.002 84.5287 67.338C84.4447 67.674 84.4027 68.0287 84.4027 68.402V72H83.2127ZM91.1266 64.538C91.7146 64.538 92.2233 64.6313 92.6526 64.818C93.082 65.0047 93.4413 65.266 93.7306 65.602C94.0293 65.938 94.2486 66.3393 94.3886 66.806C94.538 67.2633 94.6126 67.7673 94.6126 68.318C94.6126 68.8687 94.538 69.3773 94.3886 69.844C94.2486 70.3013 94.0293 70.698 93.7306 71.034C93.4413 71.3607 93.0773 71.6173 92.6386 71.804C92.2 71.9907 91.6866 72.084 91.0986 72.084C90.5106 72.084 89.9973 71.9907 89.5586 71.804C89.1293 71.6173 88.7653 71.3607 88.4666 71.034C88.1773 70.698 87.958 70.3013 87.8086 69.844C87.6686 69.3773 87.5986 68.8687 87.5986 68.318C87.5986 67.7673 87.6686 67.2633 87.8086 66.806C87.958 66.3393 88.1773 65.938 88.4666 65.602C88.7653 65.266 89.1386 65.0047 89.5866 64.818C90.0346 64.6313 90.548 64.538 91.1266 64.538ZM91.0986 71.034C91.5 71.034 91.8453 70.964 92.1346 70.824C92.4333 70.684 92.676 70.4927 92.8626 70.25C93.0586 69.998 93.1986 69.7087 93.2826 69.382C93.376 69.0553 93.4226 68.7007 93.4226 68.318C93.4226 67.9447 93.376 67.5947 93.2826 67.268C93.1986 66.932 93.0586 66.6427 92.8626 66.4C92.676 66.148 92.4333 65.952 92.1346 65.812C91.8453 65.672 91.5 65.602 91.0986 65.602C90.6973 65.602 90.352 65.672 90.0626 65.812C89.7733 65.952 89.5306 66.148 89.3346 66.4C89.148 66.6427 89.008 66.932 88.9146 67.268C88.8306 67.5947 88.7886 67.9447 88.7886 68.318C88.7886 68.7007 88.8306 69.0553 88.9146 69.382C89.008 69.7087 89.148 69.998 89.3346 70.25C89.5306 70.4927 89.7733 70.684 90.0626 70.824C90.352 70.964 90.6973 71.034 91.0986 71.034ZM95.7848 74.66V64.622H96.9188L96.9748 65.728C97.2268 65.3453 97.5675 65.056 97.9968 64.86C98.4355 64.6547 98.9068 64.5473 99.4108 64.538C99.9801 64.538 100.461 64.636 100.853 64.832C101.254 65.0187 101.585 65.2847 101.847 65.63C102.117 65.966 102.318 66.3673 102.449 66.834C102.579 67.2913 102.645 67.786 102.645 68.318C102.645 68.8593 102.579 69.3587 102.449 69.816C102.318 70.2733 102.117 70.67 101.847 71.006C101.576 71.342 101.235 71.608 100.825 71.804C100.414 71.9907 99.9241 72.084 99.3548 72.084C98.7948 72.084 98.3188 71.9953 97.9268 71.818C97.5348 71.6407 97.2175 71.3933 96.9748 71.076V74.66H95.7848ZM99.2568 71.034C99.6581 71.034 99.9941 70.964 100.265 70.824C100.545 70.6747 100.769 70.4787 100.937 70.236C101.114 69.984 101.24 69.6947 101.315 69.368C101.399 69.0413 101.445 68.6913 101.455 68.318C101.455 67.9447 101.413 67.5947 101.329 67.268C101.254 66.932 101.128 66.6427 100.951 66.4C100.773 66.1573 100.54 65.966 100.251 65.826C99.9708 65.6767 99.6301 65.602 99.2288 65.602C98.7528 65.602 98.3421 65.7327 97.9968 65.994C97.6515 66.246 97.3901 66.568 97.2128 66.96C97.1101 67.1747 97.0401 67.3987 97.0028 67.632C96.9655 67.856 96.9468 68.0893 96.9468 68.332C96.9468 68.612 96.9655 68.8733 97.0028 69.116C97.0401 69.3493 97.1101 69.5733 97.2128 69.788C97.3901 70.1427 97.6468 70.4413 97.9828 70.684C98.3281 70.9173 98.7528 71.034 99.2568 71.034ZM104.738 68.752C104.766 69.0787 104.831 69.382 104.934 69.662C105.046 69.9327 105.195 70.1707 105.382 70.376C105.569 70.5813 105.797 70.7447 106.068 70.866C106.348 70.978 106.67 71.034 107.034 71.034C107.211 71.034 107.393 71.02 107.58 70.992C107.776 70.9547 107.958 70.8987 108.126 70.824C108.294 70.74 108.443 70.6327 108.574 70.502C108.705 70.3713 108.803 70.2127 108.868 70.026H110.086C110.002 70.3807 109.857 70.6887 109.652 70.95C109.456 71.2113 109.218 71.426 108.938 71.594C108.667 71.762 108.364 71.888 108.028 71.972C107.692 72.0467 107.351 72.084 107.006 72.084C106.418 72.084 105.905 71.9907 105.466 71.804C105.037 71.6173 104.677 71.3607 104.388 71.034C104.099 70.698 103.884 70.3013 103.744 69.844C103.604 69.3773 103.534 68.8687 103.534 68.318C103.534 67.7673 103.609 67.2633 103.758 66.806C103.917 66.3393 104.141 65.938 104.43 65.602C104.719 65.266 105.074 65.0047 105.494 64.818C105.914 64.6313 106.413 64.538 106.992 64.538C107.58 64.538 108.089 64.6547 108.518 64.888C108.947 65.1213 109.293 65.4293 109.554 65.812C109.815 66.1853 109.997 66.5913 110.1 67.03C110.212 67.4687 110.259 67.8747 110.24 68.248C110.24 68.332 110.235 68.416 110.226 68.5C110.226 68.584 110.221 68.668 110.212 68.752H104.738ZM109.036 67.716C109.017 67.0907 108.821 66.582 108.448 66.19C108.075 65.798 107.575 65.602 106.95 65.602C106.605 65.602 106.301 65.658 106.04 65.77C105.779 65.882 105.559 66.036 105.382 66.232C105.205 66.428 105.065 66.6567 104.962 66.918C104.859 67.17 104.794 67.436 104.766 67.716H109.036ZM111.419 72V64.622H112.567L112.623 65.77C112.894 65.3407 113.239 65.028 113.659 64.832C114.079 64.636 114.555 64.538 115.087 64.538H115.465V65.658H115.031C114.593 65.658 114.219 65.7327 113.911 65.882C113.603 66.022 113.351 66.218 113.155 66.47C112.969 66.7127 112.829 67.002 112.735 67.338C112.651 67.674 112.609 68.0287 112.609 68.402V72H111.419ZM118.508 64.622H120.482V65.672H118.508V69.494C118.508 69.998 118.606 70.3713 118.802 70.614C118.998 70.8473 119.362 70.964 119.894 70.964H120.44V72H119.642C118.802 72 118.205 71.8087 117.85 71.426C117.495 71.0433 117.318 70.4413 117.318 69.62V65.672H116.114V64.622H117.318V62.424H118.508V64.622ZM122.094 61.92C122.318 61.92 122.509 61.9947 122.668 62.144C122.826 62.284 122.906 62.4707 122.906 62.704C122.906 62.9373 122.826 63.1287 122.668 63.278C122.509 63.4273 122.318 63.502 122.094 63.502C121.86 63.502 121.669 63.4273 121.52 63.278C121.37 63.1287 121.296 62.9373 121.296 62.704C121.296 62.4707 121.37 62.284 121.52 62.144C121.669 61.9947 121.86 61.92 122.094 61.92ZM121.506 72V64.622H122.696V72H121.506ZM126.873 69.186L124.857 72H123.513L126.145 68.234L123.639 64.622H125.067L126.943 67.422L128.763 64.622H130.149L127.657 68.276L130.331 72H128.917L126.873 69.186Z" fill="black"/>
<path d="M23.168 136.622H24.512L26.276 142.852L28.096 136.622H29.706L31.54 142.852L33.276 136.622H34.634L32.338 144H30.714L28.894 138.022L27.074 144H25.464L23.168 136.622ZM36.0028 133.92C36.2268 133.92 36.4182 133.995 36.5768 134.144C36.7355 134.284 36.8148 134.471 36.8148 134.704C36.8148 134.937 36.7355 135.129 36.5768 135.278C36.4182 135.427 36.2268 135.502 36.0028 135.502C35.7695 135.502 35.5782 135.427 35.4288 135.278C35.2795 135.129 35.2048 134.937 35.2048 134.704C35.2048 134.471 35.2795 134.284 35.4288 134.144C35.5782 133.995 35.7695 133.92 36.0028 133.92ZM35.4148 144V136.622H36.6048V144H35.4148ZM40.0264 136.622H42.0004V137.672H40.0264V141.494C40.0264 141.998 40.1244 142.371 40.3204 142.614C40.5164 142.847 40.8804 142.964 41.4124 142.964H41.9584V144H41.1604C40.3204 144 39.7231 143.809 39.3684 143.426C39.0137 143.043 38.8364 142.441 38.8364 141.62V137.672H37.6324V136.622H38.8364V134.424H40.0264V136.622ZM42.926 144V134.102H44.116V137.756C44.2374 137.569 44.3914 137.397 44.578 137.238C44.7647 137.079 44.9607 136.949 45.166 136.846C45.3714 136.743 45.5954 136.669 45.838 136.622C46.09 136.566 46.3327 136.538 46.566 136.538C47.098 136.538 47.5414 136.627 47.896 136.804C48.26 136.972 48.5494 137.21 48.764 137.518C48.988 137.817 49.142 138.176 49.226 138.596C49.3194 139.007 49.366 139.455 49.366 139.94V144H48.176V140.304C48.176 139.968 48.1574 139.641 48.12 139.324C48.0827 138.997 47.9987 138.708 47.868 138.456C47.7374 138.204 47.5507 137.999 47.308 137.84C47.0654 137.672 46.734 137.588 46.314 137.588C45.9687 137.588 45.6467 137.677 45.348 137.854C45.0587 138.022 44.8254 138.237 44.648 138.498C44.4334 138.787 44.2887 139.109 44.214 139.464C44.1487 139.819 44.116 140.183 44.116 140.556V144H42.926ZM54.411 134.102H57.841C58.933 134.102 59.787 134.373 60.403 134.914C61.019 135.446 61.327 136.272 61.327 137.392C61.327 137.961 61.2243 138.461 61.019 138.89C60.823 139.319 60.5476 139.674 60.193 139.954C59.8943 140.197 59.521 140.388 59.073 140.528C58.625 140.668 58.1303 140.738 57.589 140.738H55.629V144H54.411V134.102ZM57.533 139.632C57.8876 139.632 58.233 139.59 58.569 139.506C58.905 139.413 59.1803 139.268 59.395 139.072C59.6096 138.885 59.7776 138.657 59.899 138.386C60.0203 138.115 60.081 137.765 60.081 137.336C60.081 135.917 59.3156 135.208 57.785 135.208H55.629V139.632H57.533ZM62.5293 144V136.622H63.6773L63.7333 137.77C64.004 137.341 64.3493 137.028 64.7693 136.832C65.1893 136.636 65.6653 136.538 66.1973 136.538H66.5753V137.658H66.1413C65.7027 137.658 65.3293 137.733 65.0213 137.882C64.7133 138.022 64.4613 138.218 64.2653 138.47C64.0787 138.713 63.9387 139.002 63.8453 139.338C63.7613 139.674 63.7193 140.029 63.7193 140.402V144H62.5293ZM70.4433 136.538C71.0313 136.538 71.5399 136.631 71.9693 136.818C72.3986 137.005 72.7579 137.266 73.0473 137.602C73.3459 137.938 73.5653 138.339 73.7053 138.806C73.8546 139.263 73.9293 139.767 73.9293 140.318C73.9293 140.869 73.8546 141.377 73.7053 141.844C73.5653 142.301 73.3459 142.698 73.0473 143.034C72.7579 143.361 72.3939 143.617 71.9553 143.804C71.5166 143.991 71.0033 144.084 70.4153 144.084C69.8273 144.084 69.3139 143.991 68.8753 143.804C68.4459 143.617 68.0819 143.361 67.7833 143.034C67.4939 142.698 67.2746 142.301 67.1253 141.844C66.9853 141.377 66.9153 140.869 66.9153 140.318C66.9153 139.767 66.9853 139.263 67.1253 138.806C67.2746 138.339 67.4939 137.938 67.7833 137.602C68.0819 137.266 68.4553 137.005 68.9033 136.818C69.3513 136.631 69.8646 136.538 70.4433 136.538ZM70.4153 143.034C70.8166 143.034 71.1619 142.964 71.4513 142.824C71.7499 142.684 71.9926 142.493 72.1793 142.25C72.3753 141.998 72.5153 141.709 72.5993 141.382C72.6926 141.055 72.7393 140.701 72.7393 140.318C72.7393 139.945 72.6926 139.595 72.5993 139.268C72.5153 138.932 72.3753 138.643 72.1793 138.4C71.9926 138.148 71.7499 137.952 71.4513 137.812C71.1619 137.672 70.8166 137.602 70.4153 137.602C70.0139 137.602 69.6686 137.672 69.3793 137.812C69.0899 137.952 68.8473 138.148 68.6513 138.4C68.4646 138.643 68.3246 138.932 68.2313 139.268C68.1473 139.595 68.1053 139.945 68.1053 140.318C68.1053 140.701 68.1473 141.055 68.2313 141.382C68.3246 141.709 68.4646 141.998 68.6513 142.25C68.8473 142.493 69.0899 142.684 69.3793 142.824C69.6686 142.964 70.0139 143.034 70.4153 143.034ZM75.1014 146.66V136.622H76.2354L76.2914 137.728C76.5434 137.345 76.8841 137.056 77.3134 136.86C77.7521 136.655 78.2234 136.547 78.7274 136.538C79.2968 136.538 79.7774 136.636 80.1694 136.832C80.5708 137.019 80.9021 137.285 81.1634 137.63C81.4341 137.966 81.6348 138.367 81.7654 138.834C81.8961 139.291 81.9614 139.786 81.9614 140.318C81.9614 140.859 81.8961 141.359 81.7654 141.816C81.6348 142.273 81.4341 142.67 81.1634 143.006C80.8928 143.342 80.5521 143.608 80.1414 143.804C79.7308 143.991 79.2408 144.084 78.6714 144.084C78.1114 144.084 77.6354 143.995 77.2434 143.818C76.8514 143.641 76.5341 143.393 76.2914 143.076V146.66H75.1014ZM78.5734 143.034C78.9748 143.034 79.3108 142.964 79.5814 142.824C79.8614 142.675 80.0854 142.479 80.2534 142.236C80.4308 141.984 80.5568 141.695 80.6314 141.368C80.7154 141.041 80.7621 140.691 80.7714 140.318C80.7714 139.945 80.7294 139.595 80.6454 139.268C80.5708 138.932 80.4448 138.643 80.2674 138.4C80.0901 138.157 79.8568 137.966 79.5674 137.826C79.2874 137.677 78.9468 137.602 78.5454 137.602C78.0694 137.602 77.6588 137.733 77.3134 137.994C76.9681 138.246 76.7068 138.568 76.5294 138.96C76.4268 139.175 76.3568 139.399 76.3194 139.632C76.2821 139.856 76.2634 140.089 76.2634 140.332C76.2634 140.612 76.2821 140.873 76.3194 141.116C76.3568 141.349 76.4268 141.573 76.5294 141.788C76.7068 142.143 76.9634 142.441 77.2994 142.684C77.6448 142.917 78.0694 143.034 78.5734 143.034ZM84.0547 140.752C84.0827 141.079 84.148 141.382 84.2507 141.662C84.3627 141.933 84.512 142.171 84.6987 142.376C84.8853 142.581 85.114 142.745 85.3847 142.866C85.6647 142.978 85.9867 143.034 86.3507 143.034C86.528 143.034 86.71 143.02 86.8967 142.992C87.0927 142.955 87.2747 142.899 87.4427 142.824C87.6107 142.74 87.76 142.633 87.8907 142.502C88.0213 142.371 88.1193 142.213 88.1847 142.026H89.4027C89.3187 142.381 89.174 142.689 88.9687 142.95C88.7727 143.211 88.5347 143.426 88.2547 143.594C87.984 143.762 87.6807 143.888 87.3447 143.972C87.0087 144.047 86.668 144.084 86.3227 144.084C85.7347 144.084 85.2213 143.991 84.7827 143.804C84.3533 143.617 83.994 143.361 83.7047 143.034C83.4153 142.698 83.2007 142.301 83.0607 141.844C82.9207 141.377 82.8507 140.869 82.8507 140.318C82.8507 139.767 82.9253 139.263 83.0747 138.806C83.2333 138.339 83.4573 137.938 83.7467 137.602C84.036 137.266 84.3907 137.005 84.8107 136.818C85.2307 136.631 85.73 136.538 86.3087 136.538C86.8967 136.538 87.4053 136.655 87.8347 136.888C88.264 137.121 88.6093 137.429 88.8707 137.812C89.132 138.185 89.314 138.591 89.4167 139.03C89.5287 139.469 89.5753 139.875 89.5567 140.248C89.5567 140.332 89.552 140.416 89.5427 140.5C89.5427 140.584 89.538 140.668 89.5287 140.752H84.0547ZM88.3527 139.716C88.334 139.091 88.138 138.582 87.7647 138.19C87.3913 137.798 86.892 137.602 86.2667 137.602C85.9213 137.602 85.618 137.658 85.3567 137.77C85.0953 137.882 84.876 138.036 84.6987 138.232C84.5213 138.428 84.3813 138.657 84.2787 138.918C84.176 139.17 84.1107 139.436 84.0827 139.716H88.3527ZM90.736 144V136.622H91.884L91.9401 137.77C92.2107 137.341 92.5561 137.028 92.9761 136.832C93.3961 136.636 93.8721 136.538 94.4041 136.538H94.7821V137.658H94.3481C93.9094 137.658 93.5361 137.733 93.228 137.882C92.9201 138.022 92.6681 138.218 92.4721 138.47C92.2854 138.713 92.1454 139.002 92.0521 139.338C91.9681 139.674 91.9261 140.029 91.9261 140.402V144H90.736ZM97.8245 136.622H99.7985V137.672H97.8245V141.494C97.8245 141.998 97.9225 142.371 98.1185 142.614C98.3145 142.847 98.6785 142.964 99.2105 142.964H99.7565V144H98.9585C98.1185 144 97.5212 143.809 97.1665 143.426C96.8119 143.043 96.6345 142.441 96.6345 141.62V137.672H95.4305V136.622H96.6345V134.424H97.8245V136.622ZM101.41 133.92C101.634 133.92 101.826 133.995 101.984 134.144C102.143 134.284 102.222 134.471 102.222 134.704C102.222 134.937 102.143 135.129 101.984 135.278C101.826 135.427 101.634 135.502 101.41 135.502C101.177 135.502 100.986 135.427 100.836 135.278C100.687 135.129 100.612 134.937 100.612 134.704C100.612 134.471 100.687 134.284 100.836 134.144C100.986 133.995 101.177 133.92 101.41 133.92ZM100.822 144V136.622H102.012V144H100.822ZM106.19 141.186L104.174 144H102.83L105.462 140.234L102.956 136.622H104.384L106.26 139.422L108.08 136.622H109.466L106.974 140.276L109.648 144H108.234L106.19 141.186Z" fill="black"/>
<defs>
<linearGradient id="paint0_linear_933_9832" x1="21" y1="161.105" x2="155" y2="161.105" gradientUnits="userSpaceOnUse">
<stop stop-color="#4DB6F1"/>
<stop offset="1" stop-color="#335CFF"/>
</linearGradient>
</defs>
</svg>
