<svg xmlns="http://www.w3.org/2000/svg" width="324" height="240" fill="none"><rect width="324" height="239" fill="#fff" rx="16"/><path fill="#191919" d="M22.066 21.809h3.328q1.093 0 1.924.325a3.6 3.6 0 0 1 1.404.91q.572.585.858 1.443t.286 1.924q0 1.079-.286 1.924a3.9 3.9 0 0 1-.845 1.443 3.5 3.5 0 0 1-1.378.91q-.819.312-1.911.312h-3.38zm1.508 1.352v6.5h1.833q.754 0 1.3-.234t.897-.65q.364-.429.533-1.027.182-.598.182-1.339 0-1.534-.754-2.392-.741-.858-2.171-.858zm8.887 4.914q.026.377.156.702t.35.572q.235.234.56.377.338.143.78.143.468 0 .858-.169.39-.17.572-.585h1.52a2.3 2.3 0 0 1-.428.897q-.286.377-.69.624a3.1 3.1 0 0 1-.87.351 4.6 4.6 0 0 1-1.001.104q-.819 0-1.443-.247a2.7 2.7 0 0 1-1.027-.715 3.1 3.1 0 0 1-.624-1.105 5 5 0 0 1-.195-1.456q0-.78.22-1.417.221-.65.638-1.118a3 3 0 0 1 1.027-.728 3.25 3.25 0 0 1 1.365-.273q.805 0 1.39.273.586.26.976.715.403.455.598 1.066t.195 1.326q0 .337-.04.663zm3.484-1.118q-.027-.78-.494-1.209-.468-.429-1.21-.429-.416 0-.727.13a1.6 1.6 0 0 0-.533.351q-.209.22-.338.52t-.17.637zm7.204 3.198a2.03 2.03 0 0 1-.897.715 3.4 3.4 0 0 1-1.248.221q-.546 0-1.001-.13a2.4 2.4 0 0 1-.78-.39 2 2 0 0 1-.533-.663 2.1 2.1 0 0 1-.195-.91q0-.56.22-.949.221-.403.599-.65.39-.247.91-.364.52-.13 1.092-.13h1.755q0-.755-.338-1.17-.338-.416-1.183-.429-.494 0-.858.169a.87.87 0 0 0-.468.559h-1.521q.078-.546.35-.923.288-.377.677-.624.403-.247.884-.351.495-.104.988-.104.637 0 1.183.169t.949.572q.455.468.61 1.118.157.65.157 1.417V31h-1.287zm-.078-2.197h-1.43q-.378 0-.754.065a1.3 1.3 0 0 0-.65.273q-.26.208-.26.611 0 .494.35.754.365.247.885.247.402 0 .74-.104.352-.104.599-.338.246-.247.377-.611a2.5 2.5 0 0 0 .143-.897M46.092 31v-9.191h1.482V31zm9.618.091q-.832 0-1.443-.247a2.9 2.9 0 0 1-1.027-.715 3.2 3.2 0 0 1-.611-1.105 5 5 0 0 1-.195-1.43q0-.78.208-1.43.22-.65.65-1.118a3.1 3.1 0 0 1 1.04-.741q.611-.273 1.417-.273 1.182 0 1.963.546.78.533.988 1.703h-1.521a1.09 1.09 0 0 0-.507-.689q-.39-.234-.95-.234-.493 0-.844.182a1.6 1.6 0 0 0-.572.494q-.222.312-.325.728-.091.403-.091.845 0 .455.104.858.103.403.325.702.22.286.572.468.35.17.845.169.585 0 .962-.26.39-.26.494-.689h1.534q-.105.585-.39 1.014-.274.429-.676.702a2.9 2.9 0 0 1-.897.403q-.494.117-1.053.117M59.993 31v-9.191h1.482V31zm6.18-6.968q.818 0 1.442.26a2.9 2.9 0 0 1 1.053.728q.443.455.663 1.105t.221 1.443q0 .806-.22 1.456a3 3 0 0 1-.638 1.105q-.429.468-1.066.715-.624.247-1.456.247-.819 0-1.443-.247a3 3 0 0 1-1.053-.715 3.2 3.2 0 0 1-.637-1.118 4.7 4.7 0 0 1-.208-1.443q0-.793.208-1.443a2.99 2.99 0 0 1 1.703-1.833q.624-.26 1.43-.26m0 5.772q.506 0 .857-.169.365-.182.585-.481.234-.3.338-.702.117-.403.117-.871t-.117-.871a1.9 1.9 0 0 0-.338-.715 1.5 1.5 0 0 0-.585-.468q-.351-.17-.858-.169-.494 0-.845.169a1.6 1.6 0 0 0-.585.468q-.234.3-.35.715-.105.403-.105.871t.104.871a2.2 2.2 0 0 0 .338.702q.234.3.585.481.364.17.858.169m7.235-4.537q-.195 0-.416.026a1.3 1.3 0 0 0-.403.117.8.8 0 0 0-.312.234.65.65 0 0 0-.117.403q0 .273.182.429.195.155.455.26a5 5 0 0 0 .546.156q.3.052.507.091.559.117 1 .247.456.13.768.351.312.208.48.546.183.338.183.884 0 .586-.247.988a1.9 1.9 0 0 1-.624.65 2.7 2.7 0 0 1-.871.338q-.481.105-1.001.104a5 5 0 0 1-1.027-.104 3.1 3.1 0 0 1-.936-.351 2.3 2.3 0 0 1-.702-.65 2.25 2.25 0 0 1-.338-1.001h1.495a.8.8 0 0 0 .22.429q.17.17.39.273.235.105.482.143.246.039.455.039.156 0 .377-.026.234-.026.429-.117.195-.09.325-.234a.56.56 0 0 0 .143-.39.6.6 0 0 0-.104-.364.8.8 0 0 0-.286-.26 1.3 1.3 0 0 0-.416-.156 23 23 0 0 0-.52-.13 18 18 0 0 1-.923-.195 6 6 0 0 1-.91-.299 1.76 1.76 0 0 1-.69-.572q-.272-.377-.272-.962 0-.624.247-1.027.246-.403.637-.65.39-.26.87-.351.482-.104.95-.104 1.132 0 1.846.52.728.52.793 1.508h-1.391a.73.73 0 0 0-.43-.585 2.1 2.1 0 0 0-.844-.208m4.975-3.965q.404 0 .663.247.273.247.273.676 0 .416-.273.663a.92.92 0 0 1-.663.247q-.429 0-.689-.247t-.26-.663q0-.429.26-.676t.69-.247M77.63 31v-6.851h1.482V31zm3.197 0v-6.851h1.418l.078.949q.376-.533.935-.793a2.8 2.8 0 0 1 1.21-.273q.727 0 1.222.247.506.247.819.676.324.429.455 1.014.143.585.143 1.274V31h-1.482v-3.536a5 5 0 0 0-.066-.819 1.8 1.8 0 0 0-.22-.663 1.2 1.2 0 0 0-.481-.468q-.3-.17-.78-.169a1.62 1.62 0 0 0-1.404.793q-.195.351-.287.78a4.6 4.6 0 0 0-.078.819V31zm14.346-1.209a25 25 0 0 0-.026 1.144q0 .572-.156 1.157-.312 1.105-1.13 1.651-.82.546-2.042.546-.572 0-1.092-.13a3 3 0 0 1-.923-.403 2.5 2.5 0 0 1-.689-.702 2.4 2.4 0 0 1-.377-1.014h1.547q.104.468.546.702.455.234 1.001.234.624 0 .988-.234.377-.22.572-.624a2.6 2.6 0 0 0 .247-.91q.052-.507.052-1.079a1.93 1.93 0 0 1-.845.741q-.507.234-1.274.247-.885-.013-1.469-.286a2.75 2.75 0 0 1-.949-.767 3.2 3.2 0 0 1-.559-1.105 4.7 4.7 0 0 1-.182-1.326q0-.78.195-1.43a3.3 3.3 0 0 1 .611-1.131q.403-.48 1.001-.754.599-.273 1.391-.273.676 0 1.196.234.534.22.923.689l.117-.819h1.326zm-3.406-4.407q-.494 0-.858.169a1.6 1.6 0 0 0-.585.468q-.22.3-.338.715a3.5 3.5 0 0 0-.104.871q0 .468.104.871.117.39.351.689.234.3.585.481.364.17.858.169.507 0 .858-.195.364-.195.598-.507.234-.326.351-.728a3 3 0 0 0 .117-.832q0-.442-.117-.845a1.8 1.8 0 0 0-.364-.689 1.6 1.6 0 0 0-.598-.468 2 2 0 0 0-.858-.169m10.576-1.235h1.729v1.287h-1.729v3.133q0 .585.208.871t.793.286h.676V31h-.806q-1.26 0-1.807-.52-.533-.52-.533-1.703v-3.341h-1.079v-1.287h1.079v-1.937h1.469zm3.692-2.847q.402 0 .663.247.273.247.273.676 0 .416-.273.663a.93.93 0 0 1-.663.247q-.43 0-.689-.247-.26-.247-.26-.663 0-.429.26-.676t.689-.247M105.28 31v-6.851h1.482V31zm4.614-6.851q.013.105.013.208l.039.403q.013.105.013.208.715-.962 1.872-.962.727 0 1.17.299.442.3.689.793.403-.533.91-.806.52-.286 1.209-.286.585 0 1.001.195.429.195.676.546a2.3 2.3 0 0 1 .377.819q.117.454.117.975V31h-1.482v-3.913q0-.312-.039-.624a1.6 1.6 0 0 0-.169-.559.97.97 0 0 0-.351-.416q-.234-.17-.624-.169-.416 0-.689.208-.26.195-.416.481a2.1 2.1 0 0 0-.195.65 5 5 0 0 0-.052.702V31h-1.469v-3.939q0-.3-.039-.598a1.6 1.6 0 0 0-.143-.559 1.1 1.1 0 0 0-.351-.416q-.22-.17-.624-.169-.415 0-.702.208a1.5 1.5 0 0 0-.429.52q-.156.3-.208.663a4.4 4.4 0 0 0-.052.65V31h-1.469v-6.851zm10.85 3.926q.026.377.156.702.129.325.351.572.234.234.559.377.338.143.78.143.468 0 .858-.169.39-.17.572-.585h1.521q-.13.52-.429.897-.287.377-.689.624-.39.234-.871.351-.468.105-1.001.104-.819 0-1.443-.247a2.7 2.7 0 0 1-1.027-.715 3.1 3.1 0 0 1-.624-1.105 5 5 0 0 1-.195-1.456q0-.78.221-1.417.22-.65.637-1.118a3 3 0 0 1 1.027-.728 3.25 3.25 0 0 1 1.365-.273q.806 0 1.391.273.585.26.975.715.403.455.598 1.066t.195 1.326q0 .337-.039.663zm3.484-1.118q-.026-.78-.494-1.209t-1.209-.429q-.417 0-.728.13a1.6 1.6 0 0 0-.533.351q-.209.22-.338.52t-.169.637z"/><path fill="#C4C4C4" d="M21 52h.598v150H21z"/><path fill="#DFDFDF" d="M114.467 52h.598v150h-.598zM207.936 52h.598v150h-.598zM301.402 52H302v150h-.598z"/><path fill="#ACACAC" d="M21 77h.598v119.608H21z"/><path fill="#707070" d="M48.037 222.143h-.957v-6.237h-1.584v-.649q.33-.022.605-.055.275-.044.506-.143a1.55 1.55 0 0 0 .76-.693h.67zm4.277-5.797h1.056l1.386 4.895 1.43-4.895h1.265l1.441 4.895 1.364-4.895h1.067l-1.804 5.797h-1.276l-1.43-4.697-1.43 4.697h-1.265zm10.602 3.245q.033.385.154.715.132.32.352.561t.539.385q.33.132.759.132.209 0 .429-.033.231-.043.429-.132.198-.099.352-.253a1 1 0 0 0 .23-.374h.958q-.1.418-.341.726a2 2 0 0 1-.561.506 2.5 2.5 0 0 1-.715.297 3.7 3.7 0 0 1-.803.088q-.694 0-1.21-.22a2.4 2.4 0 0 1-.847-.605 2.6 2.6 0 0 1-.506-.935 4.2 4.2 0 0 1-.165-1.199q0-.65.176-1.188.186-.55.528-.946.34-.396.836-.616t1.177-.22q.693 0 1.199.275.505.274.814.726.308.44.429.957.131.517.11.957 0 .099-.011.198 0 .099-.011.198zm3.377-.814q-.023-.737-.462-1.199-.44-.462-1.177-.462-.408 0-.715.132a1.5 1.5 0 0 0-.517.363q-.21.231-.33.539-.121.297-.154.627zm2.928.814q.034.385.154.715.132.32.352.561t.54.385q.33.132.758.132.21 0 .43-.033.23-.043.428-.132.198-.099.352-.253a1 1 0 0 0 .231-.374h.957q-.1.418-.34.726a2 2 0 0 1-.562.506 2.5 2.5 0 0 1-.715.297 3.7 3.7 0 0 1-.803.088q-.693 0-1.21-.22a2.4 2.4 0 0 1-.847-.605 2.6 2.6 0 0 1-.506-.935 4.2 4.2 0 0 1-.165-1.199q0-.65.176-1.188.188-.55.528-.946.341-.396.836-.616t1.177-.22q.693 0 1.2.275.505.274.813.726.309.44.43.957a3.2 3.2 0 0 1 .098 1.155 2 2 0 0 1-.01.198zm3.377-.814q-.021-.737-.462-1.199-.44-.462-1.177-.462-.407 0-.715.132a1.5 1.5 0 0 0-.517.363q-.209.231-.33.539-.12.297-.154.627zm2.203 3.366v-7.777h.935v4.477h1.012l1.738-2.497h1.056l-1.936 2.761 2.101 3.036h-1.1l-1.749-2.486h-1.122v2.486zM143.634 219.426l.649-.55q.363-.308.671-.66.319-.352.539-.737.22-.396.231-.858.022-.704-.407-1.078-.43-.385-1.133-.385-.56 0-.979.231a1.1 1.1 0 0 0-.55.671h-1.023q.077-.451.319-.781.253-.34.605-.561.363-.22.792-.33t.88-.11q.538 0 .99.154.451.142.781.429.33.286.506.715.187.418.187.957t-.165.968a3 3 0 0 1-.429.792 5 5 0 0 1-.605.682 30 30 0 0 1-.704.638l-1.969 1.661h3.96v.869h-5.346v-.792zm6.797-3.08h1.056l1.386 4.895 1.43-4.895h1.265l1.441 4.895 1.364-4.895h1.067l-1.804 5.797h-1.276l-1.43-4.697-1.43 4.697h-1.265zm10.602 3.245q.033.385.154.715.132.32.352.561t.539.385q.33.132.759.132.209 0 .429-.033.231-.043.429-.132.198-.099.352-.253a1 1 0 0 0 .231-.374h.957q-.1.418-.341.726a2 2 0 0 1-.561.506 2.5 2.5 0 0 1-.715.297 3.7 3.7 0 0 1-.803.088q-.694 0-1.21-.22a2.4 2.4 0 0 1-.847-.605 2.6 2.6 0 0 1-.506-.935 4.2 4.2 0 0 1-.165-1.199q0-.65.176-1.188.186-.55.528-.946.34-.396.836-.616t1.177-.22q.692 0 1.199.275.505.274.814.726.308.44.429.957a3.3 3.3 0 0 1 .099 1.155q0 .099-.011.198zm3.377-.814q-.022-.737-.462-1.199t-1.177-.462a1.8 1.8 0 0 0-.715.132 1.46 1.46 0 0 0-.517.363q-.21.231-.33.539a2.2 2.2 0 0 0-.154.627zm2.928.814q.034.385.154.715.132.32.352.561t.539.385q.33.132.759.132.21 0 .429-.033.231-.043.429-.132.199-.099.352-.253a1 1 0 0 0 .231-.374h.957a1.8 1.8 0 0 1-.341.726 2 2 0 0 1-.561.506 2.5 2.5 0 0 1-.715.297 3.7 3.7 0 0 1-.803.088q-.693 0-1.21-.22a2.4 2.4 0 0 1-.847-.605 2.6 2.6 0 0 1-.506-.935 4.2 4.2 0 0 1-.165-1.199q0-.65.176-1.188.188-.55.528-.946.341-.396.836-.616.496-.22 1.177-.22.693 0 1.199.275.507.274.814.726.309.44.429.957.132.517.11.957 0 .099-.011.198 0 .099-.011.198zm3.377-.814q-.021-.737-.462-1.199-.44-.462-1.177-.462-.406 0-.715.132a1.5 1.5 0 0 0-.517.363 1.8 1.8 0 0 0-.33.539q-.12.297-.154.627zm2.203 3.366v-7.777h.935v4.477h1.012l1.738-2.497h1.056l-1.936 2.761 2.101 3.036h-1.1l-1.749-2.486h-1.122v2.486zM239.628 222.231q-.462 0-.935-.088a3.2 3.2 0 0 1-.869-.297 2.3 2.3 0 0 1-.682-.572 1.8 1.8 0 0 1-.352-.869h.99q.099.286.297.473.209.176.462.286.264.11.55.154t.55.044q.241 0 .55-.044.308-.044.572-.187a1.2 1.2 0 0 0 .451-.418q.186-.286.187-.748 0-.44-.176-.704a1.1 1.1 0 0 0-.44-.407 1.7 1.7 0 0 0-.605-.187 5 5 0 0 0-.671-.044h-.748v-.858h.451q.297 0 .55-.011.252-.022.561-.154.351-.165.561-.462.208-.308.22-.704 0-.396-.132-.649a1.03 1.03 0 0 0-.352-.396 1.3 1.3 0 0 0-.495-.187 3 3 0 0 0-.561-.055q-.231 0-.484.055a1.7 1.7 0 0 0-.462.154q-.21.11-.374.297a1 1 0 0 0-.231.429h-.957q.066-.485.308-.825t.594-.561a2.7 2.7 0 0 1 .792-.319 4.04 4.04 0 0 1 1.815.011q.44.1.77.341.33.23.517.616.198.385.198.935 0 .209-.044.451-.045.231-.165.462a1.835 1.835 0 0 1-.957.847q.736.143 1.122.649.384.495.385 1.199v.044q0 .605-.22 1.045a2 2 0 0 1-.583.715q-.375.275-.88.407a4.3 4.3 0 0 1-1.078.132m6.481-5.885h1.056l1.386 4.895 1.43-4.895h1.265l1.441 4.895 1.364-4.895h1.067l-1.804 5.797h-1.276l-1.43-4.697-1.43 4.697h-1.265zm10.601 3.245q.033.385.154.715.132.32.352.561t.539.385q.33.132.759.132.208 0 .429-.033.231-.043.429-.132.198-.099.352-.253a1 1 0 0 0 .231-.374h.957q-.1.418-.341.726a2 2 0 0 1-.561.506 2.5 2.5 0 0 1-.715.297 3.7 3.7 0 0 1-.803.088q-.693 0-1.21-.22a2.4 2.4 0 0 1-.847-.605 2.6 2.6 0 0 1-.506-.935 4.2 4.2 0 0 1-.165-1.199q0-.65.176-1.188.187-.55.528-.946.34-.396.836-.616t1.177-.22q.693 0 1.199.275.506.274.814.726.308.44.429.957a3.2 3.2 0 0 1 .099 1.155q0 .099-.011.198zm3.377-.814q-.022-.737-.462-1.199t-1.177-.462q-.407 0-.715.132a1.5 1.5 0 0 0-.517.363 1.8 1.8 0 0 0-.33.539 2.2 2.2 0 0 0-.154.627zm2.929.814q.033.385.154.715.132.32.352.561t.539.385q.33.132.759.132.209 0 .429-.033.231-.043.429-.132.198-.099.352-.253a1 1 0 0 0 .231-.374h.957q-.1.418-.341.726a2 2 0 0 1-.561.506 2.5 2.5 0 0 1-.715.297 3.7 3.7 0 0 1-.803.088q-.693 0-1.21-.22a2.4 2.4 0 0 1-.847-.605 2.6 2.6 0 0 1-.506-.935 4.2 4.2 0 0 1-.165-1.199q0-.65.176-1.188.186-.55.528-.946.34-.396.836-.616t1.177-.22q.692 0 1.199.275.505.274.814.726.308.44.429.957a3.3 3.3 0 0 1 .099 1.155q0 .099-.011.198zm3.377-.814q-.022-.737-.462-1.199t-1.177-.462a1.8 1.8 0 0 0-.715.132 1.46 1.46 0 0 0-.517.363q-.21.231-.33.539a2.2 2.2 0 0 0-.154.627zm2.202 3.366v-7.777h.935v4.477h1.012l1.738-2.497h1.056l-1.936 2.761 2.101 3.036h-1.1l-1.749-2.486h-1.122v2.486z"/><path fill="#ACACAC" d="M21.598 202.608v-.598h280.48v.598z"/><path fill="#AFB4B7" d="M287 82c7.732 0 14 6.268 14 14s-6.268 14-14 14H21V82z"/><path fill="url(#a)" d="M141 153c7.732 0 14 6.268 14 14s-6.268 14-14 14H21v-28z"/><path fill="#000" d="M23.168 64.622h1.344l1.764 6.23 1.82-6.23h1.61l1.834 6.23 1.736-6.23h1.358L32.338 72h-1.624l-1.82-5.978L27.074 72h-1.61zm12.835-2.702q.336 0 .574.224a.71.71 0 0 1 .238.56q0 .35-.238.574a.8.8 0 0 1-.574.224.78.78 0 0 1-.574-.224.78.78 0 0 1-.224-.574q0-.35.224-.56.224-.224.574-.224M35.415 72v-7.378h1.19V72zm4.611-7.378H42v1.05h-1.974v3.822q0 .756.294 1.12.294.35 1.092.35h.546V72h-.798q-1.26 0-1.792-.574t-.532-1.806v-3.948h-1.204v-1.05h1.204v-2.198h1.19zm2.9 7.378v-9.898h1.19v3.654q.181-.28.462-.518.28-.239.588-.392t.672-.224q.378-.084.728-.084.798 0 1.33.266.546.252.868.714.336.448.462 1.078.14.616.14 1.344V72h-1.19v-3.696q0-.504-.056-.98a2.5 2.5 0 0 0-.252-.868 1.6 1.6 0 0 0-.56-.616q-.364-.252-.994-.252a1.86 1.86 0 0 0-.966.266q-.435.252-.7.644a2.45 2.45 0 0 0-.434.966 6 6 0 0 0-.098 1.092V72zm11.1-7.462q.881 0 1.525.28.645.28 1.078.784.45.504.659 1.204.224.686.224 1.512t-.224 1.526q-.21.686-.658 1.19-.435.49-1.093.77t-1.54.28q-.88 0-1.54-.28a3.2 3.2 0 0 1-1.092-.77 3.4 3.4 0 0 1-.657-1.19 5.3 5.3 0 0 1-.21-1.526q0-.826.21-1.512.223-.7.657-1.204a3 3 0 0 1 1.12-.784q.673-.28 1.54-.28m-.029 6.496q.603 0 1.036-.21.45-.21.728-.574.295-.378.42-.868.14-.49.14-1.064 0-.56-.14-1.05a2.2 2.2 0 0 0-.42-.868 1.9 1.9 0 0 0-.728-.588q-.434-.21-1.035-.21-.603 0-1.036.21a2 2 0 0 0-.729.588 2.5 2.5 0 0 0-.42.868 4.2 4.2 0 0 0-.126 1.05q0 .574.127 1.064.14.49.42.868.293.364.727.574t1.037.21m7.767 0q1.008 0 1.47-.602.476-.615.476-1.708v-4.102h1.19v4.158q0 1.68-.812 2.492-.798.812-2.324.812t-2.324-.812q-.784-.812-.784-2.492v-4.158h1.19v4.102q0 1.092.476 1.708.476.602 1.442.602m6.428-6.412h2.268v1.05h-2.268v3.836q0 .322.028.602.042.266.14.476.112.195.308.322.21.112.56.126.322 0 .56-.112.252-.112.42-.266l.518.868q-.364.308-.756.434-.391.126-.868.126-.602 0-1.008-.168-.406-.182-.686-.518a1.84 1.84 0 0 1-.322-.756 5 5 0 0 1-.084-.98v-3.99h-1.204v-1.05h1.204V62.41h1.19zm6.902-2.52h3.43q1.638 0 2.562.812.924.798.924 2.478 0 .855-.308 1.498-.294.645-.826 1.064a3.3 3.3 0 0 1-1.12.574q-.671.21-1.484.21h-1.96V72h-1.218zm3.122 5.53q.532 0 1.036-.126a2 2 0 0 0 1.33-1.12q.183-.405.182-1.05 0-2.128-2.296-2.128h-2.156v4.424zM83.213 72v-7.378h1.148l.056 1.148q.405-.645 1.036-.938.63-.294 1.428-.294h.378v1.12h-.434q-.658 0-1.12.224-.462.21-.756.588a2.5 2.5 0 0 0-.42.868q-.126.504-.126 1.064V72zm7.914-7.462q.881 0 1.526.28.643.28 1.078.784.448.504.658 1.204.224.686.224 1.512t-.224 1.526q-.21.686-.658 1.19-.435.49-1.092.77-.658.28-1.54.28t-1.54-.28a3.2 3.2 0 0 1-1.092-.77 3.4 3.4 0 0 1-.658-1.19 5.3 5.3 0 0 1-.21-1.526q0-.826.21-1.512.223-.7.658-1.204a3 3 0 0 1 1.12-.784q.672-.28 1.54-.28m-.028 6.496q.601 0 1.036-.21.447-.21.728-.574.294-.378.42-.868.14-.49.14-1.064 0-.56-.14-1.05a2.2 2.2 0 0 0-.42-.868 1.9 1.9 0 0 0-.728-.588q-.435-.21-1.036-.21-.603 0-1.036.21a2 2 0 0 0-.728.588 2.5 2.5 0 0 0-.42.868 4.2 4.2 0 0 0-.126 1.05q0 .574.126 1.064.14.49.42.868.293.364.728.574.433.21 1.036.21m4.686 3.626V64.622h1.134l.056 1.106a2.4 2.4 0 0 1 1.022-.868q.658-.308 1.414-.322.854 0 1.442.294.601.28.994.798.405.504.602 1.204.195.686.196 1.484 0 .811-.196 1.498a3.35 3.35 0 0 1-.602 1.19 2.9 2.9 0 0 1-1.022.798q-.616.28-1.47.28-.84 0-1.428-.266a2.44 2.44 0 0 1-.952-.742v3.584zm3.472-3.626q.602 0 1.008-.21.42-.224.672-.588.265-.378.378-.868.126-.49.14-1.05 0-.56-.126-1.05a2.3 2.3 0 0 0-.378-.868 1.85 1.85 0 0 0-.7-.574q-.42-.225-1.022-.224-.714 0-1.232.392a2.4 2.4 0 0 0-.784.966 2.4 2.4 0 0 0-.21.672 4 4 0 0 0-.056.7q0 .42.056.784.056.35.21.672.266.532.77.896.518.35 1.274.35m5.481-2.282q.042.49.196.91.168.406.448.714t.686.49q.42.168.966.168.265 0 .546-.042a2.5 2.5 0 0 0 .546-.168q.252-.126.448-.322.197-.196.294-.476h1.218a2.35 2.35 0 0 1-.434.924 2.5 2.5 0 0 1-.714.644 3.2 3.2 0 0 1-.91.378 4.7 4.7 0 0 1-1.022.112q-.882 0-1.54-.28a3 3 0 0 1-1.078-.77 3.3 3.3 0 0 1-.644-1.19 5.3 5.3 0 0 1-.21-1.526q0-.826.224-1.512.239-.7.672-1.204a3 3 0 0 1 1.064-.784q.63-.28 1.498-.28.882 0 1.526.35t1.036.924q.391.56.546 1.218.168.659.14 1.218 0 .126-.014.252 0 .126-.014.252zm4.298-1.036q-.029-.938-.588-1.526-.56-.588-1.498-.588-.518 0-.91.168a1.9 1.9 0 0 0-.658.462 2.2 2.2 0 0 0-.42.686 2.9 2.9 0 0 0-.196.798zM111.419 72v-7.378h1.148l.056 1.148q.406-.645 1.036-.938.63-.294 1.428-.294h.378v1.12h-.434q-.657 0-1.12.224-.462.21-.756.588a2.5 2.5 0 0 0-.42.868q-.126.504-.126 1.064V72zm7.089-7.378h1.974v1.05h-1.974v3.822q0 .756.294 1.12.294.35 1.092.35h.546V72h-.798q-1.26 0-1.792-.574t-.532-1.806v-3.948h-1.204v-1.05h1.204v-2.198h1.19zm3.586-2.702q.336 0 .574.224.237.21.238.56 0 .35-.238.574a.8.8 0 0 1-.574.224.78.78 0 0 1-.574-.224.78.78 0 0 1-.224-.574q0-.35.224-.56a.78.78 0 0 1 .574-.224M121.506 72v-7.378h1.19V72zm5.367-2.814L124.857 72h-1.344l2.632-3.766-2.506-3.612h1.428l1.876 2.8 1.82-2.8h1.386l-2.492 3.654L130.331 72h-1.414zM23.168 136.622h1.344l1.764 6.23 1.82-6.23h1.61l1.834 6.23 1.736-6.23h1.358L32.338 144h-1.624l-1.82-5.978-1.82 5.978h-1.61zm12.835-2.702q.336 0 .574.224a.71.71 0 0 1 .238.56q0 .35-.238.574a.8.8 0 0 1-.574.224.78.78 0 0 1-.574-.224.78.78 0 0 1-.224-.574q0-.35.224-.56a.78.78 0 0 1 .574-.224M35.415 144v-7.378h1.19V144zm4.611-7.378H42v1.05h-1.974v3.822q0 .756.294 1.12.294.35 1.092.35h.546V144h-.798q-1.26 0-1.792-.574-.532-.575-.532-1.806v-3.948h-1.204v-1.05h1.204v-2.198h1.19zm2.9 7.378v-9.898h1.19v3.654q.181-.28.462-.518.28-.238.588-.392t.672-.224q.378-.084.728-.084.798 0 1.33.266.546.252.868.714.336.448.462 1.078.14.617.14 1.344V144h-1.19v-3.696q0-.504-.056-.98a2.5 2.5 0 0 0-.252-.868 1.6 1.6 0 0 0-.56-.616q-.364-.252-.994-.252-.517 0-.966.266-.435.252-.7.644-.323.433-.434.966a6 6 0 0 0-.098 1.092V144zm11.485-9.898h3.43q1.638 0 2.562.812.924.798.924 2.478 0 .854-.308 1.498a2.8 2.8 0 0 1-.826 1.064 3.3 3.3 0 0 1-1.12.574q-.672.21-1.484.21h-1.96V144h-1.218zm3.122 5.53q.532 0 1.036-.126a1.99 1.99 0 0 0 1.33-1.12q.182-.406.182-1.05 0-2.128-2.296-2.128h-2.156v4.424zM62.529 144v-7.378h1.148l.056 1.148q.406-.644 1.036-.938t1.428-.294h.378v1.12h-.434q-.657 0-1.12.224-.462.21-.756.588a2.5 2.5 0 0 0-.42.868 4.4 4.4 0 0 0-.126 1.064V144zm7.914-7.462q.882 0 1.526.28.645.28 1.078.784.448.504.658 1.204.225.685.224 1.512 0 .826-.224 1.526a3.2 3.2 0 0 1-.658 1.19q-.434.49-1.092.77-.657.28-1.54.28-.882 0-1.54-.28a3.2 3.2 0 0 1-1.092-.77 3.4 3.4 0 0 1-.658-1.19 5.3 5.3 0 0 1-.21-1.526q0-.827.21-1.512a3.4 3.4 0 0 1 .658-1.204 3 3 0 0 1 1.12-.784q.672-.28 1.54-.28m-.028 6.496q.603 0 1.036-.21.449-.21.728-.574.294-.378.42-.868.14-.49.14-1.064 0-.56-.14-1.05a2.2 2.2 0 0 0-.42-.868 1.9 1.9 0 0 0-.728-.588q-.434-.21-1.036-.21-.601 0-1.036.21a2 2 0 0 0-.728.588 2.5 2.5 0 0 0-.42.868 4.2 4.2 0 0 0-.126 1.05q0 .574.126 1.064.141.49.42.868.294.364.728.574.435.21 1.036.21m4.686 3.626v-10.038h1.134l.056 1.106a2.4 2.4 0 0 1 1.022-.868q.659-.308 1.414-.322.855 0 1.442.294.603.28.994.798.407.504.602 1.204.196.686.196 1.484 0 .812-.196 1.498-.195.686-.602 1.19-.404.504-1.022.798-.615.28-1.47.28-.84 0-1.428-.266a2.44 2.44 0 0 1-.952-.742v3.584zm3.472-3.626q.603 0 1.008-.21.42-.224.672-.588.267-.378.378-.868a4.7 4.7 0 0 0 .14-1.05q0-.56-.126-1.05a2.3 2.3 0 0 0-.378-.868 1.84 1.84 0 0 0-.7-.574q-.42-.224-1.022-.224-.713 0-1.232.392a2.4 2.4 0 0 0-.784.966 2.5 2.5 0 0 0-.21.672 4 4 0 0 0-.056.7q.001.42.056.784.057.35.21.672.266.532.77.896.519.35 1.274.35m5.482-2.282q.042.49.196.91.168.406.448.714t.686.49q.42.168.966.168.266 0 .546-.042.294-.055.546-.168.252-.126.448-.322.195-.196.294-.476h1.218a2.35 2.35 0 0 1-.434.924 2.5 2.5 0 0 1-.714.644q-.406.252-.91.378a4.7 4.7 0 0 1-1.022.112q-.882 0-1.54-.28a3 3 0 0 1-1.078-.77 3.3 3.3 0 0 1-.644-1.19 5.3 5.3 0 0 1-.21-1.526q0-.827.224-1.512a3.6 3.6 0 0 1 .672-1.204q.434-.504 1.064-.784t1.498-.28q.882 0 1.526.35.643.35 1.036.924.391.56.546 1.218.168.658.14 1.218 0 .126-.014.252 0 .126-.014.252zm4.298-1.036q-.029-.938-.588-1.526-.56-.588-1.498-.588-.519 0-.91.168-.393.168-.658.462a2.2 2.2 0 0 0-.42.686 2.9 2.9 0 0 0-.196.798zM90.736 144v-7.378h1.148l.056 1.148q.405-.644 1.036-.938.63-.294 1.428-.294h.378v1.12h-.434q-.658 0-1.12.224-.462.21-.756.588a2.5 2.5 0 0 0-.42.868 4.4 4.4 0 0 0-.126 1.064V144zm7.088-7.378H99.8v1.05h-1.975v3.822q0 .756.294 1.12.295.35 1.093.35h.546V144h-.799q-1.26 0-1.791-.574-.532-.575-.532-1.806v-3.948H95.43v-1.05h1.204v-2.198h1.19zm3.586-2.702q.337 0 .574.224a.71.71 0 0 1 .238.56.75.75 0 0 1-.238.574.8.8 0 0 1-.574.224.78.78 0 0 1-.574-.224.78.78 0 0 1-.224-.574q0-.35.224-.56a.78.78 0 0 1 .574-.224m-.588 10.08v-7.378h1.19V144zm5.368-2.814L104.174 144h-1.344l2.632-3.766-2.506-3.612h1.428l1.876 2.8 1.82-2.8h1.386l-2.492 3.654 2.674 3.724h-1.414z"/><defs><linearGradient id="a" x1="21" x2="155" y1="161.105" y2="161.105" gradientUnits="userSpaceOnUse"><stop stop-color="#4DB6F1"/><stop offset="1" stop-color="#335CFF"/></linearGradient></defs></svg>