<svg width="323" height="241" viewBox="0 0 323 241" fill="none" xmlns="http://www.w3.org/2000/svg">
<rect y="0.5" width="323" height="240" rx="16" fill="white"/>
<g clip-path="url(#clip0_933_5156)">
<path d="M21.1186 32.5V22.3182H24.7479C25.54 22.3182 26.1963 22.4624 26.7166 22.7507C27.237 23.0391 27.6264 23.4335 27.8849 23.9339C28.1435 24.4311 28.2727 24.9912 28.2727 25.6143C28.2727 26.2408 28.1418 26.8042 27.88 27.3047C27.6214 27.8018 27.2304 28.1963 26.7067 28.4879C26.1863 28.7763 25.5317 28.9205 24.7429 28.9205H22.2472V27.6179H24.6037C25.1042 27.6179 25.5102 27.5317 25.8217 27.3594C26.1333 27.1837 26.362 26.9451 26.5078 26.6435C26.6536 26.3419 26.7266 25.9988 26.7266 25.6143C26.7266 25.2299 26.6536 24.8885 26.5078 24.5902C26.362 24.2919 26.1316 24.0582 25.8168 23.8892C25.5052 23.7202 25.0942 23.6357 24.5838 23.6357H22.6548V32.5H21.1186ZM29.9544 32.5V24.8636H31.3912V26.0767H31.4707C31.6099 25.6657 31.8552 25.3426 32.2065 25.1072C32.5611 24.8686 32.9622 24.7493 33.4096 24.7493C33.5024 24.7493 33.6118 24.7526 33.7377 24.7592C33.867 24.7659 33.9681 24.7741 34.041 24.7841V26.206C33.9814 26.1894 33.8753 26.1712 33.7228 26.1513C33.5704 26.1281 33.4179 26.1165 33.2654 26.1165C32.9141 26.1165 32.6009 26.1911 32.3258 26.3402C32.054 26.486 31.8386 26.6899 31.6795 26.9517C31.5204 27.2102 31.4409 27.5052 31.4409 27.8366V32.5H29.9544ZM35.3274 32.5V24.8636H36.8139V32.5H35.3274ZM36.0781 23.6854C35.8196 23.6854 35.5975 23.5992 35.4119 23.4268C35.2296 23.2512 35.1385 23.0424 35.1385 22.8004C35.1385 22.5552 35.2296 22.3464 35.4119 22.174C35.5975 21.9983 35.8196 21.9105 36.0781 21.9105C36.3366 21.9105 36.5571 21.9983 36.7393 22.174C36.925 22.3464 37.0178 22.5552 37.0178 22.8004C37.0178 23.0424 36.925 23.2512 36.7393 23.4268C36.5571 23.5992 36.3366 23.6854 36.0781 23.6854ZM42.0304 32.6541C41.2913 32.6541 40.6549 32.4867 40.1213 32.152C39.591 31.8139 39.1833 31.3482 38.8983 30.755C38.6132 30.1617 38.4707 29.4822 38.4707 28.7166C38.4707 27.9411 38.6165 27.2566 38.9082 26.6634C39.1999 26.0668 39.6109 25.6011 40.1412 25.2663C40.6715 24.9316 41.2962 24.7642 42.0154 24.7642C42.5955 24.7642 43.1125 24.8719 43.5666 25.0874C44.0207 25.2995 44.3869 25.5978 44.6653 25.9822C44.947 26.3667 45.1144 26.8158 45.1674 27.3295H43.7207C43.6412 26.9716 43.4589 26.6634 43.1738 26.4048C42.8921 26.1463 42.5143 26.017 42.0403 26.017C41.626 26.017 41.2631 26.1264 40.9515 26.3452C40.6433 26.5606 40.403 26.8688 40.2306 27.2699C40.0583 27.6676 39.9721 28.1383 39.9721 28.6818C39.9721 29.2386 40.0566 29.7192 40.2257 30.1236C40.3947 30.5279 40.6333 30.8411 40.9416 31.0632C41.2531 31.2853 41.6194 31.3963 42.0403 31.3963C42.322 31.3963 42.5772 31.3449 42.8059 31.2422C43.0379 31.1361 43.2318 30.9853 43.3876 30.7898C43.5467 30.5942 43.6577 30.3589 43.7207 30.0838H45.1674C45.1144 30.5777 44.9537 31.0185 44.6852 31.4062C44.4167 31.794 44.0571 32.099 43.6064 32.321C43.1589 32.5431 42.6336 32.6541 42.0304 32.6541ZM50.0483 32.6541C49.2959 32.6541 48.648 32.4934 48.1044 32.1719C47.5642 31.8471 47.1465 31.3913 46.8516 30.8047C46.5599 30.2147 46.4141 29.5237 46.4141 28.7315C46.4141 27.9493 46.5599 27.2599 46.8516 26.6634C47.1465 26.0668 47.5575 25.6011 48.0845 25.2663C48.6148 24.9316 49.2346 24.7642 49.9439 24.7642C50.3748 24.7642 50.7924 24.8355 51.1967 24.978C51.6011 25.1205 51.964 25.3442 52.2855 25.6491C52.607 25.9541 52.8606 26.3501 53.0462 26.8374C53.2318 27.3213 53.3246 27.9096 53.3246 28.6023V29.1293H47.2543V28.0156H51.8679C51.8679 27.6245 51.7884 27.2782 51.6293 26.9766C51.4702 26.6716 51.2464 26.4313 50.9581 26.2557C50.6731 26.08 50.3383 25.9922 49.9538 25.9922C49.5362 25.9922 49.1716 26.0949 48.8601 26.3004C48.5518 26.5026 48.3132 26.7678 48.1442 27.0959C47.9785 27.4207 47.8956 27.7737 47.8956 28.1548V29.0249C47.8956 29.5353 47.9851 29.9695 48.1641 30.3274C48.3464 30.6854 48.5999 30.9588 48.9247 31.1477C49.2495 31.3333 49.629 31.4261 50.0632 31.4261C50.3449 31.4261 50.6018 31.3864 50.8338 31.3068C51.0658 31.224 51.2663 31.1013 51.4354 30.9389C51.6044 30.7765 51.7337 30.576 51.8232 30.3374L53.2301 30.5909C53.1174 31.0052 52.9152 31.3681 52.6236 31.6797C52.3352 31.9879 51.9723 32.2282 51.5348 32.4006C51.1006 32.5696 50.6051 32.6541 50.0483 32.6541ZM58.679 32.5V24.8636H60.1655V32.5H58.679ZM59.4297 23.6854C59.1712 23.6854 58.9491 23.5992 58.7635 23.4268C58.5812 23.2512 58.4901 23.0424 58.4901 22.8004C58.4901 22.5552 58.5812 22.3464 58.7635 22.174C58.9491 21.9983 59.1712 21.9105 59.4297 21.9105C59.6882 21.9105 59.9086 21.9983 60.0909 22.174C60.2765 22.3464 60.3693 22.5552 60.3693 22.8004C60.3693 23.0424 60.2765 23.2512 60.0909 23.4268C59.9086 23.5992 59.6882 23.6854 59.4297 23.6854ZM63.6518 27.9659V32.5H62.1653V24.8636H63.5922V26.1065H63.6866C63.8623 25.7022 64.1374 25.3774 64.5119 25.1321C64.8897 24.8868 65.3654 24.7642 65.9387 24.7642C66.4591 24.7642 66.9148 24.8736 67.3059 25.0923C67.697 25.3078 68.0003 25.6293 68.2157 26.0568C68.4312 26.4844 68.5389 27.013 68.5389 27.6428V32.5H67.0524V27.8217C67.0524 27.2682 66.9082 26.8357 66.6199 26.5241C66.3315 26.2093 65.9354 26.0518 65.4316 26.0518C65.0869 26.0518 64.7804 26.1264 64.5119 26.2756C64.2467 26.4247 64.0363 26.6435 63.8805 26.9318C63.728 27.2169 63.6518 27.5616 63.6518 27.9659ZM73.3912 32.6491C72.7747 32.6491 72.2245 32.4917 71.7406 32.1768C71.26 31.8587 70.8822 31.4062 70.6071 30.8196C70.3353 30.2296 70.1994 29.522 70.1994 28.6967C70.1994 27.8714 70.3369 27.1655 70.612 26.5788C70.8904 25.9922 71.2716 25.5431 71.7555 25.2315C72.2394 24.92 72.7879 24.7642 73.4011 24.7642C73.8751 24.7642 74.2562 24.8438 74.5446 25.0028C74.8362 25.1586 75.0616 25.3409 75.2207 25.5497C75.3831 25.7585 75.5091 25.9425 75.5985 26.1016H75.688V22.3182H77.1745V32.5H75.7228V31.3118H75.5985C75.5091 31.4742 75.3798 31.6598 75.2108 31.8686C75.045 32.0774 74.8163 32.2597 74.5247 32.4155C74.233 32.5713 73.8552 32.6491 73.3912 32.6491ZM73.7193 31.3814C74.1468 31.3814 74.5081 31.2687 74.8031 31.0433C75.1014 30.8146 75.3268 30.4981 75.4792 30.0938C75.635 29.6894 75.7129 29.2187 75.7129 28.6818C75.7129 28.1515 75.6367 27.6875 75.4842 27.2898C75.3317 26.892 75.108 26.5821 74.813 26.3601C74.5181 26.138 74.1535 26.027 73.7193 26.027C73.2718 26.027 72.899 26.143 72.6007 26.375C72.3024 26.607 72.077 26.9235 71.9245 27.3246C71.7754 27.7256 71.7008 28.178 71.7008 28.6818C71.7008 29.1922 71.777 29.6513 71.9295 30.0589C72.082 30.4666 72.3074 30.7898 72.6056 31.0284C72.9073 31.2637 73.2785 31.3814 73.7193 31.3814ZM79.2962 32.5V24.8636H80.7827V32.5H79.2962ZM80.0469 23.6854C79.7884 23.6854 79.5663 23.5992 79.3807 23.4268C79.1984 23.2512 79.1072 23.0424 79.1072 22.8004C79.1072 22.5552 79.1984 22.3464 79.3807 22.174C79.5663 21.9983 79.7884 21.9105 80.0469 21.9105C80.3054 21.9105 80.5258 21.9983 80.7081 22.174C80.8937 22.3464 80.9865 22.5552 80.9865 22.8004C80.9865 23.0424 80.8937 23.2512 80.7081 23.4268C80.5258 23.5992 80.3054 23.6854 80.0469 23.6854ZM85.9991 32.6541C85.26 32.6541 84.6236 32.4867 84.09 32.152C83.5597 31.8139 83.152 31.3482 82.867 30.755C82.582 30.1617 82.4395 29.4822 82.4395 28.7166C82.4395 27.9411 82.5853 27.2566 82.877 26.6634C83.1686 26.0668 83.5796 25.6011 84.1099 25.2663C84.6402 24.9316 85.265 24.7642 85.9842 24.7642C86.5642 24.7642 87.0813 24.8719 87.5353 25.0874C87.9894 25.2995 88.3556 25.5978 88.6341 25.9822C88.9158 26.3667 89.0832 26.8158 89.1362 27.3295H87.6895C87.6099 26.9716 87.4276 26.6634 87.1426 26.4048C86.8609 26.1463 86.483 26.017 86.0091 26.017C85.5948 26.017 85.2318 26.1264 84.9203 26.3452C84.612 26.5606 84.3717 26.8688 84.1994 27.2699C84.027 27.6676 83.9409 28.1383 83.9409 28.6818C83.9409 29.2386 84.0254 29.7192 84.1944 30.1236C84.3635 30.5279 84.6021 30.8411 84.9103 31.0632C85.2219 31.2853 85.5881 31.3963 86.0091 31.3963C86.2908 31.3963 86.546 31.3449 86.7747 31.2422C87.0067 31.1361 87.2006 30.9853 87.3564 30.7898C87.5154 30.5942 87.6265 30.3589 87.6895 30.0838H89.1362C89.0832 30.5777 88.9224 31.0185 88.6539 31.4062C88.3855 31.794 88.0259 32.099 87.5751 32.321C87.1277 32.5431 86.6023 32.6541 85.9991 32.6541ZM92.9482 32.669C92.4643 32.669 92.0268 32.5795 91.6357 32.4006C91.2446 32.2183 90.9347 31.9548 90.706 31.6101C90.4806 31.2654 90.3679 30.8428 90.3679 30.3423C90.3679 29.9115 90.4508 29.5568 90.6165 29.2784C90.7822 29 91.0059 28.7796 91.2876 28.6172C91.5694 28.4548 91.8842 28.3321 92.2322 28.2493C92.5803 28.1664 92.9349 28.1035 93.2962 28.0604C93.7536 28.0073 94.1248 27.9643 94.4098 27.9311C94.6948 27.8946 94.902 27.8366 95.0312 27.7571C95.1605 27.6776 95.2251 27.5483 95.2251 27.3693V27.3345C95.2251 26.9003 95.1025 26.5639 94.8572 26.3253C94.6153 26.0866 94.254 25.9673 93.7734 25.9673C93.273 25.9673 92.8786 26.0784 92.5902 26.3004C92.3052 26.5192 92.108 26.7628 91.9986 27.0312L90.6016 26.7131C90.7673 26.2491 91.0092 25.8745 91.3274 25.5895C91.6489 25.3011 92.0185 25.0923 92.4361 24.9631C92.8537 24.8305 93.2929 24.7642 93.7536 24.7642C94.0585 24.7642 94.3816 24.8007 94.723 24.8736C95.0677 24.9432 95.3892 25.0724 95.6875 25.2614C95.9891 25.4503 96.236 25.7204 96.4283 26.0717C96.6205 26.4197 96.7166 26.8722 96.7166 27.429V32.5H95.2649V31.456H95.2053C95.1091 31.6482 94.965 31.8371 94.7727 32.0227C94.5805 32.2083 94.3336 32.3625 94.032 32.4851C93.7304 32.6077 93.3691 32.669 92.9482 32.669ZM93.2713 31.4759C93.6823 31.4759 94.0336 31.3946 94.3253 31.2322C94.6203 31.0698 94.844 30.8577 94.9964 30.5959C95.1522 30.3307 95.2301 30.0473 95.2301 29.7457V28.7614C95.1771 28.8144 95.0743 28.8641 94.9219 28.9105C94.7727 28.9536 94.602 28.9917 94.4098 29.0249C94.2176 29.0547 94.0303 29.0829 93.848 29.1094C93.6657 29.1326 93.5133 29.1525 93.3906 29.169C93.1023 29.2055 92.8388 29.2668 92.6001 29.353C92.3648 29.4392 92.1759 29.5634 92.0334 29.7259C91.8942 29.8849 91.8246 30.0971 91.8246 30.3622C91.8246 30.7301 91.9605 31.0085 92.2322 31.1974C92.504 31.383 92.8504 31.4759 93.2713 31.4759ZM102.261 24.8636V26.0568H98.09V24.8636H102.261ZM99.2086 23.0341H100.695V30.2578C100.695 30.5462 100.738 30.7633 100.824 30.9091C100.911 31.0516 101.022 31.1494 101.157 31.2024C101.297 31.2521 101.448 31.277 101.61 31.277C101.729 31.277 101.834 31.2687 101.923 31.2521C102.013 31.2356 102.082 31.2223 102.132 31.2124L102.4 32.4403C102.314 32.4735 102.192 32.5066 102.032 32.5398C101.873 32.5762 101.675 32.5961 101.436 32.5994C101.045 32.6061 100.68 32.5365 100.342 32.3906C100.004 32.2448 99.7306 32.0194 99.5218 31.7145C99.313 31.4096 99.2086 31.0268 99.2086 30.5661V23.0341ZM107.04 32.6541C106.324 32.6541 105.699 32.4901 105.166 32.1619C104.632 31.8338 104.218 31.3748 103.923 30.7848C103.628 30.1948 103.48 29.5054 103.48 28.7166C103.48 27.9245 103.628 27.2318 103.923 26.6385C104.218 26.0452 104.632 25.5845 105.166 25.2564C105.699 24.9283 106.324 24.7642 107.04 24.7642C107.756 24.7642 108.381 24.9283 108.914 25.2564C109.448 25.5845 109.862 26.0452 110.157 26.6385C110.452 27.2318 110.6 27.9245 110.6 28.7166C110.6 29.5054 110.452 30.1948 110.157 30.7848C109.862 31.3748 109.448 31.8338 108.914 32.1619C108.381 32.4901 107.756 32.6541 107.04 32.6541ZM107.045 31.4062C107.509 31.4062 107.894 31.2836 108.199 31.0384C108.503 30.7931 108.729 30.4666 108.875 30.0589C109.024 29.6513 109.098 29.2022 109.098 28.7116C109.098 28.2244 109.024 27.777 108.875 27.3693C108.729 26.9583 108.503 26.6286 108.199 26.38C107.894 26.1314 107.509 26.0071 107.045 26.0071C106.578 26.0071 106.19 26.1314 105.882 26.38C105.577 26.6286 105.35 26.9583 105.201 27.3693C105.055 27.777 104.982 28.2244 104.982 28.7116C104.982 29.2022 105.055 29.6513 105.201 30.0589C105.35 30.4666 105.577 30.7931 105.882 31.0384C106.19 31.2836 106.578 31.4062 107.045 31.4062ZM112.259 32.5V24.8636H113.696V26.0767H113.775C113.915 25.6657 114.16 25.3426 114.511 25.1072C114.866 24.8686 115.267 24.7493 115.714 24.7493C115.807 24.7493 115.916 24.7526 116.042 24.7592C116.172 24.7659 116.273 24.7741 116.346 24.7841V26.206C116.286 26.1894 116.18 26.1712 116.028 26.1513C115.875 26.1281 115.723 26.1165 115.57 26.1165C115.219 26.1165 114.906 26.1911 114.631 26.3402C114.359 26.486 114.143 26.6899 113.984 26.9517C113.825 27.2102 113.746 27.5052 113.746 27.8366V32.5H112.259ZM123.354 26.728L122.007 26.9666C121.951 26.7943 121.861 26.6302 121.739 26.4744C121.619 26.3187 121.457 26.1911 121.251 26.0916C121.046 25.9922 120.789 25.9425 120.481 25.9425C120.06 25.9425 119.709 26.0369 119.427 26.2259C119.145 26.4115 119.004 26.6518 119.004 26.9467C119.004 27.2019 119.099 27.4074 119.288 27.5632C119.477 27.719 119.781 27.8466 120.202 27.946L121.415 28.2244C122.118 28.3868 122.642 28.6371 122.987 28.9751C123.331 29.3132 123.504 29.7524 123.504 30.2926C123.504 30.75 123.371 31.1577 123.106 31.5156C122.844 31.8703 122.478 32.1487 122.007 32.3509C121.54 32.553 120.998 32.6541 120.381 32.6541C119.526 32.6541 118.829 32.4718 118.288 32.1072C117.748 31.7393 117.417 31.2173 117.294 30.5412L118.731 30.3224C118.82 30.697 119.004 30.9804 119.283 31.1726C119.561 31.3615 119.924 31.456 120.371 31.456C120.859 31.456 121.248 31.3549 121.54 31.1527C121.831 30.9472 121.977 30.697 121.977 30.402C121.977 30.1634 121.888 29.9628 121.709 29.8004C121.533 29.638 121.263 29.5154 120.898 29.4325L119.606 29.1491C118.893 28.9867 118.366 28.7282 118.025 28.3736C117.687 28.0189 117.518 27.5698 117.518 27.0263C117.518 26.5755 117.644 26.1811 117.896 25.843C118.147 25.505 118.496 25.2415 118.94 25.0526C119.384 24.8603 119.893 24.7642 120.466 24.7642C121.291 24.7642 121.941 24.9432 122.415 25.3011C122.889 25.6558 123.202 26.1314 123.354 26.728Z" fill="#484848"/>
<path d="M275.322 32.5L279.767 23.7102V23.6357H274.626V22.3182H281.358V23.6804L276.928 32.5H275.322ZM286.985 21.8409L283.703 34.0312H282.376L285.657 21.8409H286.985ZM292.09 22.3182V32.5H290.549V23.8594H290.49L288.053 25.4503V23.9787L290.594 22.3182H292.09ZM298.389 32.669C297.604 32.6657 296.933 32.4586 296.376 32.0476C295.819 31.6366 295.393 31.0384 295.098 30.2528C294.803 29.4673 294.656 28.5211 294.656 27.4141C294.656 26.3104 294.803 25.3674 295.098 24.5852C295.396 23.803 295.824 23.2064 296.381 22.7955C296.941 22.3845 297.61 22.179 298.389 22.179C299.168 22.179 299.836 22.3861 300.393 22.8004C300.95 23.2114 301.376 23.808 301.671 24.5902C301.969 25.3691 302.118 26.3104 302.118 27.4141C302.118 28.5244 301.971 29.4723 301.676 30.2578C301.381 31.04 300.955 31.6383 300.398 32.0526C299.841 32.4635 299.172 32.669 298.389 32.669ZM298.389 31.3416C299.079 31.3416 299.617 31.0052 300.005 30.3324C300.396 29.6596 300.592 28.6868 300.592 27.4141C300.592 26.5689 300.502 25.8546 300.323 25.2713C300.148 24.6847 299.894 24.2405 299.563 23.9389C299.235 23.634 298.843 23.4815 298.389 23.4815C297.703 23.4815 297.165 23.8196 296.774 24.4957C296.383 25.1719 296.185 26.1446 296.182 27.4141C296.182 28.2625 296.27 28.9801 296.445 29.5668C296.624 30.1501 296.878 30.5926 297.206 30.8942C297.534 31.1925 297.929 31.3416 298.389 31.3416Z" fill="#16AE6E"/>
<rect x="20" y="49.5" width="283" height="16" rx="8" fill="#DBF3F7"/>
<rect x="20" y="49.5" width="231" height="16" rx="8" fill="url(#paint0_linear_933_5156)"/>
<path d="M26.636 79.856V76.016H27.68V84.5H26.636V80.816H22.088V84.5H21.044V76.016H22.088V79.856H26.636ZM33.6868 83.696C33.5508 83.88 33.3948 84.028 33.2188 84.14C33.0428 84.252 32.8588 84.34 32.6668 84.404C32.4828 84.468 32.2948 84.512 32.1028 84.536C31.9188 84.56 31.7348 84.572 31.5508 84.572C31.2548 84.572 30.9748 84.536 30.7108 84.464C30.4468 84.392 30.2068 84.276 29.9908 84.116C29.7828 83.956 29.6148 83.756 29.4868 83.516C29.3668 83.276 29.3068 83.004 29.3068 82.7C29.3068 82.34 29.3708 82.04 29.4988 81.8C29.6348 81.552 29.8148 81.352 30.0388 81.2C30.2628 81.048 30.5188 80.944 30.8068 80.888C31.1028 80.824 31.4148 80.792 31.7428 80.792H33.6028C33.6028 80.256 33.4868 79.832 33.2548 79.52C33.0228 79.2 32.6308 79.032 32.0788 79.016C31.7428 79.016 31.4468 79.072 31.1908 79.184C30.9348 79.296 30.7588 79.48 30.6628 79.736H29.5708C29.6268 79.448 29.7388 79.204 29.9068 79.004C30.0748 78.796 30.2748 78.628 30.5068 78.5C30.7388 78.364 30.9908 78.264 31.2628 78.2C31.5348 78.136 31.8068 78.104 32.0788 78.104C32.5508 78.104 32.9468 78.184 33.2668 78.344C33.5948 78.496 33.8588 78.7 34.0588 78.956C34.2588 79.204 34.3988 79.508 34.4788 79.868C34.5588 80.228 34.5988 80.632 34.5988 81.08V84.5H33.7468L33.6868 83.696ZM32.4868 81.644C32.2948 81.644 32.0708 81.648 31.8148 81.656C31.5668 81.656 31.3268 81.68 31.0948 81.728C30.8628 81.776 30.6748 81.876 30.5308 82.028C30.3948 82.18 30.3268 82.38 30.3268 82.628C30.3268 82.812 30.3628 82.968 30.4348 83.096C30.5068 83.224 30.6028 83.332 30.7228 83.42C30.8508 83.508 30.9948 83.572 31.1548 83.612C31.3148 83.652 31.4788 83.672 31.6468 83.672C32.2468 83.672 32.7188 83.528 33.0628 83.24C33.4148 82.944 33.5948 82.516 33.6028 81.956V81.644H32.4868ZM36.179 84.5V78.176H37.163L37.211 79.16C37.443 78.792 37.739 78.524 38.099 78.356C38.459 78.188 38.867 78.104 39.323 78.104H39.647V79.064H39.275C38.899 79.064 38.579 79.128 38.315 79.256C38.051 79.376 37.835 79.544 37.667 79.76C37.507 79.968 37.387 80.216 37.307 80.504C37.235 80.792 37.199 81.096 37.199 81.416V84.5H36.179ZM46.1784 84.5H45.2064L45.1584 83.552C44.9424 83.912 44.6424 84.172 44.2584 84.332C43.8824 84.492 43.4864 84.572 43.0704 84.572C42.5904 84.564 42.1744 84.48 41.8224 84.32C41.4704 84.152 41.1824 83.924 40.9584 83.636C40.7344 83.348 40.5664 83.012 40.4544 82.628C40.3504 82.236 40.2984 81.812 40.2984 81.356C40.2984 80.9 40.3544 80.476 40.4664 80.084C40.5784 79.684 40.7504 79.34 40.9824 79.052C41.2144 78.756 41.5064 78.524 41.8584 78.356C42.2104 78.188 42.6304 78.104 43.1184 78.104C43.4864 78.104 43.8584 78.172 44.2344 78.308C44.6104 78.444 44.9184 78.664 45.1584 78.968V76.016H46.1784V84.5ZM43.2024 79.016C42.8584 79.016 42.5664 79.08 42.3264 79.208C42.0864 79.328 41.8904 79.492 41.7384 79.7C41.5944 79.908 41.4864 80.156 41.4144 80.444C41.3504 80.724 41.3184 81.032 41.3184 81.368C41.3184 81.704 41.3504 82.008 41.4144 82.28C41.4784 82.544 41.5864 82.78 41.7384 82.988C41.8904 83.196 42.0864 83.364 42.3264 83.492C42.5664 83.612 42.8624 83.672 43.2144 83.672C43.6224 83.672 43.9584 83.576 44.2224 83.384C44.4864 83.192 44.6984 82.952 44.8584 82.664C44.9704 82.464 45.0504 82.248 45.0984 82.016C45.1464 81.776 45.1704 81.54 45.1704 81.308C45.1704 81.02 45.1424 80.756 45.0864 80.516C45.0384 80.276 44.9464 80.052 44.8104 79.844C44.6504 79.612 44.4384 79.416 44.1744 79.256C43.9104 79.096 43.5864 79.016 43.2024 79.016ZM52.6109 78.176H54.5549V79.076H52.6109V82.364C52.6109 82.548 52.6189 82.72 52.6349 82.88C52.6589 83.032 52.6989 83.168 52.7549 83.288C52.8189 83.4 52.9069 83.492 53.0189 83.564C53.1389 83.628 53.2989 83.664 53.4989 83.672C53.6829 83.672 53.8429 83.64 53.9789 83.576C54.1229 83.512 54.2429 83.436 54.3389 83.348L54.7829 84.092C54.5749 84.268 54.3589 84.392 54.1349 84.464C53.9109 84.536 53.6629 84.572 53.3909 84.572C53.0469 84.572 52.7589 84.524 52.5269 84.428C52.2949 84.324 52.0989 84.176 51.9389 83.984C51.8029 83.8 51.7109 83.584 51.6629 83.336C51.6149 83.088 51.5909 82.808 51.5909 82.496V79.076H50.5589V78.176H51.5909V76.28H52.6109V78.176ZM58.5568 78.104C59.0608 78.104 59.4968 78.184 59.8648 78.344C60.2328 78.504 60.5408 78.728 60.7888 79.016C61.0448 79.304 61.2328 79.648 61.3528 80.048C61.4808 80.44 61.5448 80.872 61.5448 81.344C61.5448 81.816 61.4808 82.252 61.3528 82.652C61.2328 83.044 61.0448 83.384 60.7888 83.672C60.5408 83.952 60.2288 84.172 59.8528 84.332C59.4768 84.492 59.0368 84.572 58.5328 84.572C58.0288 84.572 57.5888 84.492 57.2128 84.332C56.8448 84.172 56.5328 83.952 56.2768 83.672C56.0288 83.384 55.8408 83.044 55.7128 82.652C55.5928 82.252 55.5328 81.816 55.5328 81.344C55.5328 80.872 55.5928 80.44 55.7128 80.048C55.8408 79.648 56.0288 79.304 56.2768 79.016C56.5328 78.728 56.8528 78.504 57.2368 78.344C57.6208 78.184 58.0608 78.104 58.5568 78.104ZM58.5328 83.672C58.8768 83.672 59.1728 83.612 59.4208 83.492C59.6768 83.372 59.8848 83.208 60.0448 83C60.2128 82.784 60.3328 82.536 60.4048 82.256C60.4848 81.976 60.5248 81.672 60.5248 81.344C60.5248 81.024 60.4848 80.724 60.4048 80.444C60.3328 80.156 60.2128 79.908 60.0448 79.7C59.8848 79.484 59.6768 79.316 59.4208 79.196C59.1728 79.076 58.8768 79.016 58.5328 79.016C58.1888 79.016 57.8928 79.076 57.6448 79.196C57.3968 79.316 57.1888 79.484 57.0208 79.7C56.8608 79.908 56.7408 80.156 56.6608 80.444C56.5888 80.724 56.5527 81.024 56.5527 81.344C56.5527 81.672 56.5888 81.976 56.6608 82.256C56.7408 82.536 56.8608 82.784 57.0208 83C57.1888 83.208 57.3968 83.372 57.6448 83.492C57.8928 83.612 58.1888 83.672 58.5328 83.672ZM69.3238 76.868C69.0998 76.868 68.8718 76.888 68.6398 76.928C68.4158 76.968 68.2118 77.04 68.0278 77.144C67.8438 77.24 67.6918 77.376 67.5718 77.552C67.4598 77.72 67.4038 77.936 67.4038 78.2C67.4038 78.52 67.4878 78.78 67.6558 78.98C67.8238 79.172 68.0278 79.32 68.2678 79.424C68.4598 79.504 68.6638 79.572 68.8798 79.628C69.0958 79.684 69.3158 79.736 69.5398 79.784C69.7718 79.832 69.9958 79.88 70.2118 79.928C70.4358 79.976 70.6518 80.036 70.8598 80.108C71.3478 80.276 71.7358 80.516 72.0238 80.828C72.3198 81.14 72.4678 81.552 72.4678 82.064C72.4678 82.544 72.3838 82.94 72.2158 83.252C72.0558 83.564 71.8358 83.82 71.5558 84.02C71.2838 84.22 70.9638 84.368 70.5958 84.464C70.2358 84.552 69.8518 84.596 69.4438 84.596C69.0358 84.596 68.6438 84.556 68.2678 84.476C67.8998 84.396 67.5638 84.264 67.2598 84.08C66.9558 83.896 66.6958 83.656 66.4798 83.36C66.2638 83.064 66.1118 82.704 66.0238 82.28H67.1158C67.1958 82.552 67.3198 82.776 67.4878 82.952C67.6558 83.128 67.8478 83.268 68.0638 83.372C68.2798 83.476 68.5118 83.548 68.7598 83.588C69.0158 83.628 69.2678 83.648 69.5158 83.648C69.7558 83.648 69.9878 83.624 70.2118 83.576C70.4438 83.52 70.6478 83.436 70.8238 83.324C70.9998 83.212 71.1398 83.068 71.2438 82.892C71.3478 82.716 71.3998 82.504 71.3998 82.256C71.3998 81.88 71.2998 81.6 71.0998 81.416C70.8998 81.232 70.6318 81.092 70.2958 80.996C70.0718 80.924 69.8358 80.864 69.5878 80.816C69.3398 80.768 69.0918 80.716 68.8438 80.66C68.5958 80.604 68.3518 80.54 68.1118 80.468C67.8718 80.388 67.6518 80.296 67.4518 80.192C67.1318 80.04 66.8638 79.808 66.6478 79.496C66.4318 79.176 66.3238 78.776 66.3238 78.296C66.3238 77.848 66.4118 77.472 66.5878 77.168C66.7638 76.864 66.9918 76.62 67.2718 76.436C67.5518 76.252 67.8638 76.12 68.2078 76.04C68.5598 75.96 68.9318 75.92 69.3238 75.92C69.6438 75.928 69.9318 75.956 70.1878 76.004C70.4518 76.044 70.6998 76.12 70.9318 76.232C71.2918 76.392 71.5918 76.632 71.8318 76.952C72.0718 77.272 72.2038 77.684 72.2278 78.188H71.2078C71.1758 77.94 71.0998 77.732 70.9798 77.564C70.8678 77.396 70.7278 77.26 70.5598 77.156C70.3918 77.052 70.1998 76.98 69.9838 76.94C69.7758 76.892 69.5558 76.868 69.3238 76.868ZM74.764 81.716C74.788 81.996 74.844 82.256 74.932 82.496C75.028 82.728 75.156 82.932 75.316 83.108C75.476 83.284 75.672 83.424 75.904 83.528C76.144 83.624 76.42 83.672 76.732 83.672C76.884 83.672 77.04 83.66 77.2 83.636C77.368 83.604 77.524 83.556 77.668 83.492C77.812 83.42 77.94 83.328 78.052 83.216C78.164 83.104 78.248 82.968 78.304 82.808H79.348C79.276 83.112 79.152 83.376 78.976 83.6C78.808 83.824 78.604 84.008 78.364 84.152C78.132 84.296 77.872 84.404 77.584 84.476C77.296 84.54 77.004 84.572 76.708 84.572C76.204 84.572 75.764 84.492 75.388 84.332C75.02 84.172 74.712 83.952 74.464 83.672C74.216 83.384 74.032 83.044 73.912 82.652C73.792 82.252 73.732 81.816 73.732 81.344C73.732 80.872 73.796 80.44 73.924 80.048C74.06 79.648 74.252 79.304 74.5 79.016C74.748 78.728 75.052 78.504 75.412 78.344C75.772 78.184 76.2 78.104 76.696 78.104C77.2 78.104 77.636 78.204 78.004 78.404C78.372 78.604 78.668 78.868 78.892 79.196C79.116 79.516 79.272 79.864 79.36 80.24C79.456 80.616 79.496 80.964 79.48 81.284C79.48 81.356 79.476 81.428 79.468 81.5C79.468 81.572 79.464 81.644 79.456 81.716H74.764ZM78.448 80.828C78.432 80.292 78.264 79.856 77.944 79.52C77.624 79.184 77.196 79.016 76.66 79.016C76.364 79.016 76.104 79.064 75.88 79.16C75.656 79.256 75.468 79.388 75.316 79.556C75.164 79.724 75.044 79.92 74.956 80.144C74.868 80.36 74.812 80.588 74.788 80.828H78.448ZM80.8509 84.5V76.016H81.8709V84.5H80.8509ZM83.4759 84.5V76.016H84.4959V84.5H83.4759Z" fill="#585858"/>
<path d="M238.478 76.016H244.178V76.964H239.522V79.82H243.71V80.78H239.522V83.552H244.178V84.5H238.478V76.016ZM249.726 83.696C249.59 83.88 249.434 84.028 249.258 84.14C249.082 84.252 248.898 84.34 248.706 84.404C248.522 84.468 248.334 84.512 248.142 84.536C247.958 84.56 247.774 84.572 247.59 84.572C247.294 84.572 247.014 84.536 246.75 84.464C246.486 84.392 246.246 84.276 246.03 84.116C245.822 83.956 245.654 83.756 245.526 83.516C245.406 83.276 245.346 83.004 245.346 82.7C245.346 82.34 245.41 82.04 245.538 81.8C245.674 81.552 245.854 81.352 246.078 81.2C246.302 81.048 246.558 80.944 246.846 80.888C247.142 80.824 247.454 80.792 247.782 80.792H249.642C249.642 80.256 249.526 79.832 249.294 79.52C249.062 79.2 248.67 79.032 248.118 79.016C247.782 79.016 247.486 79.072 247.23 79.184C246.974 79.296 246.798 79.48 246.702 79.736H245.61C245.666 79.448 245.778 79.204 245.946 79.004C246.114 78.796 246.314 78.628 246.546 78.5C246.778 78.364 247.03 78.264 247.302 78.2C247.574 78.136 247.846 78.104 248.118 78.104C248.59 78.104 248.986 78.184 249.306 78.344C249.634 78.496 249.898 78.7 250.098 78.956C250.298 79.204 250.438 79.508 250.518 79.868C250.598 80.228 250.638 80.632 250.638 81.08V84.5H249.786L249.726 83.696ZM248.526 81.644C248.334 81.644 248.11 81.648 247.854 81.656C247.606 81.656 247.366 81.68 247.134 81.728C246.902 81.776 246.714 81.876 246.57 82.028C246.434 82.18 246.366 82.38 246.366 82.628C246.366 82.812 246.402 82.968 246.474 83.096C246.546 83.224 246.642 83.332 246.762 83.42C246.89 83.508 247.034 83.572 247.194 83.612C247.354 83.652 247.518 83.672 247.686 83.672C248.286 83.672 248.758 83.528 249.102 83.24C249.454 82.944 249.634 82.516 249.642 81.956V81.644H248.526ZM254.474 79.016C254.33 79.016 254.182 79.028 254.03 79.052C253.886 79.068 253.742 79.108 253.598 79.172C253.462 79.228 253.342 79.316 253.238 79.436C253.142 79.548 253.09 79.7 253.082 79.892C253.082 80.164 253.182 80.368 253.382 80.504C253.59 80.64 253.858 80.74 254.186 80.804C254.322 80.836 254.47 80.868 254.63 80.9C254.79 80.924 254.946 80.952 255.098 80.984C255.258 81.008 255.406 81.036 255.542 81.068C255.686 81.1 255.806 81.132 255.902 81.164C256.67 81.404 257.054 81.92 257.054 82.712C257.046 83.096 256.962 83.408 256.802 83.648C256.65 83.88 256.454 84.064 256.214 84.2C255.982 84.336 255.714 84.432 255.41 84.488C255.114 84.544 254.818 84.572 254.522 84.572C254.234 84.572 253.942 84.544 253.646 84.488C253.35 84.432 253.078 84.336 252.83 84.2C252.59 84.056 252.382 83.872 252.206 83.648C252.038 83.416 251.93 83.128 251.882 82.784H252.914C252.978 82.976 253.078 83.128 253.214 83.24C253.35 83.352 253.494 83.44 253.646 83.504C253.806 83.568 253.954 83.612 254.09 83.636C254.234 83.66 254.394 83.672 254.57 83.672C254.698 83.672 254.846 83.664 255.014 83.648C255.182 83.632 255.342 83.596 255.494 83.54C255.646 83.476 255.774 83.384 255.878 83.264C255.982 83.144 256.034 82.976 256.034 82.76C256.034 82.52 255.954 82.34 255.794 82.22C255.642 82.1 255.43 82.012 255.158 81.956C254.966 81.916 254.766 81.88 254.558 81.848C254.358 81.808 254.154 81.768 253.946 81.728C253.746 81.68 253.55 81.628 253.358 81.572C253.166 81.508 252.986 81.424 252.818 81.32C252.594 81.184 252.414 81 252.278 80.768C252.142 80.536 252.074 80.252 252.074 79.916C252.09 79.564 252.17 79.276 252.314 79.052C252.458 78.82 252.642 78.632 252.866 78.488C253.106 78.344 253.362 78.244 253.634 78.188C253.906 78.132 254.194 78.104 254.498 78.104C255.146 78.104 255.662 78.244 256.046 78.524C256.278 78.684 256.458 78.876 256.586 79.1C256.714 79.324 256.794 79.56 256.826 79.808H255.878C255.822 79.576 255.67 79.388 255.422 79.244C255.174 79.1 254.858 79.024 254.474 79.016ZM263.88 78.176V84.5C263.88 85.42 263.64 86.12 263.16 86.6C262.68 87.088 261.996 87.332 261.108 87.332C260.572 87.324 260.088 87.252 259.656 87.116C259.232 86.988 258.84 86.756 258.48 86.42L258.924 85.616C259.236 85.864 259.568 86.06 259.92 86.204C260.28 86.348 260.656 86.42 261.048 86.42C261.376 86.42 261.656 86.368 261.888 86.264C262.12 86.168 262.308 86.028 262.452 85.844C262.604 85.668 262.712 85.456 262.776 85.208C262.848 84.96 262.884 84.692 262.884 84.404V83.648C262.78 83.808 262.648 83.952 262.488 84.08C262.336 84.2 262.168 84.3 261.984 84.38C261.808 84.452 261.616 84.504 261.408 84.536C261.208 84.576 261.004 84.596 260.796 84.596C260.316 84.588 259.916 84.512 259.596 84.368C259.284 84.224 259.032 84.024 258.84 83.768C258.656 83.512 258.524 83.208 258.444 82.856C258.364 82.496 258.324 82.1 258.324 81.668V78.176H259.344V81.38C259.344 81.668 259.36 81.952 259.392 82.232C259.432 82.512 259.508 82.76 259.62 82.976C259.732 83.192 259.896 83.368 260.112 83.504C260.328 83.632 260.616 83.696 260.976 83.696C261.336 83.696 261.64 83.62 261.888 83.468C262.144 83.316 262.34 83.124 262.476 82.892C262.628 82.652 262.728 82.388 262.776 82.1C262.832 81.812 262.86 81.516 262.86 81.212V78.176H263.88ZM270.314 78.176H272.258V79.076H270.314V82.364C270.314 82.548 270.322 82.72 270.338 82.88C270.362 83.032 270.402 83.168 270.458 83.288C270.522 83.4 270.61 83.492 270.722 83.564C270.842 83.628 271.002 83.664 271.202 83.672C271.386 83.672 271.546 83.64 271.682 83.576C271.826 83.512 271.946 83.436 272.042 83.348L272.486 84.092C272.278 84.268 272.062 84.392 271.838 84.464C271.614 84.536 271.366 84.572 271.094 84.572C270.75 84.572 270.462 84.524 270.23 84.428C269.998 84.324 269.802 84.176 269.642 83.984C269.506 83.8 269.414 83.584 269.366 83.336C269.318 83.088 269.294 82.808 269.294 82.496V79.076H268.262V78.176H269.294V76.28H270.314V78.176ZM276.26 78.104C276.764 78.104 277.2 78.184 277.568 78.344C277.936 78.504 278.244 78.728 278.492 79.016C278.748 79.304 278.936 79.648 279.056 80.048C279.184 80.44 279.248 80.872 279.248 81.344C279.248 81.816 279.184 82.252 279.056 82.652C278.936 83.044 278.748 83.384 278.492 83.672C278.244 83.952 277.932 84.172 277.556 84.332C277.18 84.492 276.74 84.572 276.236 84.572C275.732 84.572 275.292 84.492 274.916 84.332C274.548 84.172 274.236 83.952 273.98 83.672C273.732 83.384 273.544 83.044 273.416 82.652C273.296 82.252 273.236 81.816 273.236 81.344C273.236 80.872 273.296 80.44 273.416 80.048C273.544 79.648 273.732 79.304 273.98 79.016C274.236 78.728 274.556 78.504 274.94 78.344C275.324 78.184 275.764 78.104 276.26 78.104ZM276.236 83.672C276.58 83.672 276.876 83.612 277.124 83.492C277.38 83.372 277.588 83.208 277.748 83C277.916 82.784 278.036 82.536 278.108 82.256C278.188 81.976 278.228 81.672 278.228 81.344C278.228 81.024 278.188 80.724 278.108 80.444C278.036 80.156 277.916 79.908 277.748 79.7C277.588 79.484 277.38 79.316 277.124 79.196C276.876 79.076 276.58 79.016 276.236 79.016C275.892 79.016 275.596 79.076 275.348 79.196C275.1 79.316 274.892 79.484 274.724 79.7C274.564 79.908 274.444 80.156 274.364 80.444C274.292 80.724 274.256 81.024 274.256 81.344C274.256 81.672 274.292 81.976 274.364 82.256C274.444 82.536 274.564 82.784 274.724 83C274.892 83.208 275.1 83.372 275.348 83.492C275.596 83.612 275.892 83.672 276.236 83.672ZM287.027 76.868C286.803 76.868 286.575 76.888 286.343 76.928C286.119 76.968 285.915 77.04 285.731 77.144C285.547 77.24 285.395 77.376 285.275 77.552C285.163 77.72 285.107 77.936 285.107 78.2C285.107 78.52 285.191 78.78 285.359 78.98C285.527 79.172 285.731 79.32 285.971 79.424C286.163 79.504 286.367 79.572 286.583 79.628C286.799 79.684 287.019 79.736 287.243 79.784C287.475 79.832 287.699 79.88 287.915 79.928C288.139 79.976 288.355 80.036 288.563 80.108C289.051 80.276 289.439 80.516 289.727 80.828C290.023 81.14 290.171 81.552 290.171 82.064C290.171 82.544 290.087 82.94 289.919 83.252C289.759 83.564 289.539 83.82 289.259 84.02C288.987 84.22 288.667 84.368 288.299 84.464C287.939 84.552 287.555 84.596 287.147 84.596C286.739 84.596 286.347 84.556 285.971 84.476C285.603 84.396 285.267 84.264 284.963 84.08C284.659 83.896 284.399 83.656 284.183 83.36C283.967 83.064 283.815 82.704 283.727 82.28H284.819C284.899 82.552 285.023 82.776 285.191 82.952C285.359 83.128 285.551 83.268 285.767 83.372C285.983 83.476 286.215 83.548 286.463 83.588C286.719 83.628 286.971 83.648 287.219 83.648C287.459 83.648 287.691 83.624 287.915 83.576C288.147 83.52 288.351 83.436 288.527 83.324C288.703 83.212 288.843 83.068 288.947 82.892C289.051 82.716 289.103 82.504 289.103 82.256C289.103 81.88 289.003 81.6 288.803 81.416C288.603 81.232 288.335 81.092 287.999 80.996C287.775 80.924 287.539 80.864 287.291 80.816C287.043 80.768 286.795 80.716 286.547 80.66C286.299 80.604 286.055 80.54 285.815 80.468C285.575 80.388 285.355 80.296 285.155 80.192C284.835 80.04 284.567 79.808 284.351 79.496C284.135 79.176 284.027 78.776 284.027 78.296C284.027 77.848 284.115 77.472 284.291 77.168C284.467 76.864 284.695 76.62 284.975 76.436C285.255 76.252 285.567 76.12 285.911 76.04C286.263 75.96 286.635 75.92 287.027 75.92C287.347 75.928 287.635 75.956 287.891 76.004C288.155 76.044 288.403 76.12 288.635 76.232C288.995 76.392 289.295 76.632 289.535 76.952C289.775 77.272 289.907 77.684 289.931 78.188H288.911C288.879 77.94 288.803 77.732 288.683 77.564C288.571 77.396 288.431 77.26 288.263 77.156C288.095 77.052 287.903 76.98 287.687 76.94C287.479 76.892 287.259 76.868 287.027 76.868ZM292.467 81.716C292.491 81.996 292.547 82.256 292.635 82.496C292.731 82.728 292.859 82.932 293.019 83.108C293.179 83.284 293.375 83.424 293.607 83.528C293.847 83.624 294.123 83.672 294.435 83.672C294.587 83.672 294.743 83.66 294.903 83.636C295.071 83.604 295.227 83.556 295.371 83.492C295.515 83.42 295.643 83.328 295.755 83.216C295.867 83.104 295.951 82.968 296.007 82.808H297.051C296.979 83.112 296.855 83.376 296.679 83.6C296.511 83.824 296.307 84.008 296.067 84.152C295.835 84.296 295.575 84.404 295.287 84.476C294.999 84.54 294.707 84.572 294.411 84.572C293.907 84.572 293.467 84.492 293.091 84.332C292.723 84.172 292.415 83.952 292.167 83.672C291.919 83.384 291.735 83.044 291.615 82.652C291.495 82.252 291.435 81.816 291.435 81.344C291.435 80.872 291.499 80.44 291.627 80.048C291.763 79.648 291.955 79.304 292.203 79.016C292.451 78.728 292.755 78.504 293.115 78.344C293.475 78.184 293.903 78.104 294.399 78.104C294.903 78.104 295.339 78.204 295.707 78.404C296.075 78.604 296.371 78.868 296.595 79.196C296.819 79.516 296.975 79.864 297.063 80.24C297.159 80.616 297.199 80.964 297.183 81.284C297.183 81.356 297.179 81.428 297.171 81.5C297.171 81.572 297.167 81.644 297.159 81.716H292.467ZM296.151 80.828C296.135 80.292 295.967 79.856 295.647 79.52C295.327 79.184 294.899 79.016 294.363 79.016C294.067 79.016 293.807 79.064 293.583 79.16C293.359 79.256 293.171 79.388 293.019 79.556C292.867 79.724 292.747 79.92 292.659 80.144C292.571 80.36 292.515 80.588 292.491 80.828H296.151ZM298.554 84.5V76.016H299.574V84.5H298.554ZM301.179 84.5V76.016H302.199V84.5H301.179Z" fill="#585858"/>
<path d="M21.1186 118.5V108.318H22.6548V117.178H27.2685V118.5H21.1186ZM28.9016 118.5V110.864H30.3881V118.5H28.9016ZM29.6523 109.685C29.3938 109.685 29.1718 109.599 28.9862 109.427C28.8039 109.251 28.7127 109.042 28.7127 108.8C28.7127 108.555 28.8039 108.346 28.9862 108.174C29.1718 107.998 29.3938 107.911 29.6523 107.911C29.9109 107.911 30.1313 107.998 30.3136 108.174C30.4992 108.346 30.592 108.555 30.592 108.8C30.592 109.042 30.4992 109.251 30.3136 109.427C30.1313 109.599 29.9109 109.685 29.6523 109.685ZM37.5435 121.364V117.312H37.454C37.3645 117.474 37.2353 117.66 37.0662 117.869C36.9005 118.077 36.6718 118.26 36.3801 118.415C36.0885 118.571 35.7106 118.649 35.2466 118.649C34.6301 118.649 34.08 118.492 33.5961 118.177C33.1155 117.859 32.7376 117.406 32.4625 116.82C32.1908 116.23 32.0549 115.522 32.0549 114.697C32.0549 113.871 32.1924 113.165 32.4675 112.579C32.7459 111.992 33.1271 111.543 33.611 111.232C34.0949 110.92 34.6434 110.764 35.2566 110.764C35.7305 110.764 36.1117 110.844 36.4 111.003C36.6917 111.159 36.9171 111.341 37.0762 111.55C37.2386 111.759 37.3645 111.942 37.454 112.102H37.5783V110.864H39.03V121.364H37.5435ZM35.5748 117.381C36.0023 117.381 36.3636 117.269 36.6586 117.043C36.9569 116.815 37.1822 116.498 37.3347 116.094C37.4905 115.689 37.5684 115.219 37.5684 114.682C37.5684 114.152 37.4921 113.687 37.3397 113.29C37.1872 112.892 36.9635 112.582 36.6685 112.36C36.3735 112.138 36.0089 112.027 35.5748 112.027C35.1273 112.027 34.7544 112.143 34.4561 112.375C34.1578 112.607 33.9325 112.924 33.78 113.325C33.6309 113.726 33.5563 114.178 33.5563 114.682C33.5563 115.192 33.6325 115.651 33.785 116.059C33.9374 116.467 34.1628 116.79 34.4611 117.028C34.7627 117.264 35.1339 117.381 35.5748 117.381ZM45.8659 115.333V110.864H47.3574V118.5H45.8958V117.178H45.8162C45.6406 117.585 45.3588 117.925 44.9711 118.197C44.5866 118.465 44.1077 118.599 43.5343 118.599C43.0437 118.599 42.6096 118.492 42.2317 118.276C41.8572 118.058 41.5622 117.734 41.3468 117.307C41.1346 116.879 41.0286 116.351 41.0286 115.721V110.864H42.5151V115.542C42.5151 116.062 42.6593 116.477 42.9476 116.785C43.236 117.093 43.6105 117.247 44.0712 117.247C44.3496 117.247 44.6264 117.178 44.9015 117.038C45.1799 116.899 45.4102 116.689 45.5925 116.407C45.7781 116.125 45.8693 115.767 45.8659 115.333ZM49.3548 118.5V110.864H50.8413V118.5H49.3548ZM50.1055 109.685C49.8469 109.685 49.6249 109.599 49.4393 109.427C49.257 109.251 49.1658 109.042 49.1658 108.8C49.1658 108.555 49.257 108.346 49.4393 108.174C49.6249 107.998 49.8469 107.911 50.1055 107.911C50.364 107.911 50.5844 107.998 50.7667 108.174C50.9523 108.346 51.0451 108.555 51.0451 108.8C51.0451 109.042 50.9523 109.251 50.7667 109.427C50.5844 109.599 50.364 109.685 50.1055 109.685ZM55.6998 118.649C55.0833 118.649 54.5331 118.492 54.0492 118.177C53.5686 117.859 53.1908 117.406 52.9157 116.82C52.6439 116.23 52.508 115.522 52.508 114.697C52.508 113.871 52.6455 113.165 52.9206 112.579C53.199 111.992 53.5802 111.543 54.0641 111.232C54.548 110.92 55.0965 110.764 55.7097 110.764C56.1837 110.764 56.5648 110.844 56.8532 111.003C57.1448 111.159 57.3702 111.341 57.5293 111.55C57.6917 111.759 57.8176 111.942 57.9071 112.102H57.9966V108.318H59.4831V118.5H58.0314V117.312H57.9071C57.8176 117.474 57.6884 117.66 57.5194 117.869C57.3536 118.077 57.1249 118.26 56.8333 118.415C56.5416 118.571 56.1638 118.649 55.6998 118.649ZM56.0279 117.381C56.4554 117.381 56.8167 117.269 57.1117 117.043C57.41 116.815 57.6354 116.498 57.7878 116.094C57.9436 115.689 58.0215 115.219 58.0215 114.682C58.0215 114.152 57.9453 113.687 57.7928 113.29C57.6403 112.892 57.4166 112.582 57.1216 112.36C56.8266 112.138 56.4621 112.027 56.0279 112.027C55.5804 112.027 55.2076 112.143 54.9093 112.375C54.611 112.607 54.3856 112.924 54.2331 113.325C54.084 113.726 54.0094 114.178 54.0094 114.682C54.0094 115.192 54.0856 115.651 54.2381 116.059C54.3906 116.467 54.6159 116.79 54.9142 117.028C55.2158 117.264 55.5871 117.381 56.0279 117.381ZM61.6048 118.5V110.864H63.0913V118.5H61.6048ZM62.3555 109.685C62.0969 109.685 61.8749 109.599 61.6893 109.427C61.507 109.251 61.4158 109.042 61.4158 108.8C61.4158 108.555 61.507 108.346 61.6893 108.174C61.8749 107.998 62.0969 107.911 62.3555 107.911C62.614 107.911 62.8344 107.998 63.0167 108.174C63.2023 108.346 63.2951 108.555 63.2951 108.8C63.2951 109.042 63.2023 109.251 63.0167 109.427C62.8344 109.599 62.614 109.685 62.3555 109.685ZM68.6557 110.864V112.057H64.4846V110.864H68.6557ZM65.6032 109.034H67.0897V116.258C67.0897 116.546 67.1328 116.763 67.2189 116.909C67.3051 117.052 67.4161 117.149 67.552 117.202C67.6912 117.252 67.842 117.277 68.0044 117.277C68.1238 117.277 68.2282 117.269 68.3176 117.252C68.4071 117.236 68.4767 117.222 68.5265 117.212L68.7949 118.44C68.7087 118.473 68.5861 118.507 68.427 118.54C68.2679 118.576 68.0691 118.596 67.8304 118.599C67.4393 118.606 67.0748 118.536 66.7367 118.391C66.3986 118.245 66.1252 118.019 65.9164 117.714C65.7076 117.41 65.6032 117.027 65.6032 116.566V109.034ZM71.2397 121.364C71.0176 121.364 70.8155 121.345 70.6332 121.309C70.4509 121.276 70.315 121.239 70.2255 121.2L70.5835 119.982C70.8552 120.054 71.0972 120.086 71.3093 120.076C71.5214 120.066 71.7087 119.987 71.8711 119.837C72.0368 119.688 72.1826 119.445 72.3086 119.107L72.4925 118.599L69.6985 110.864H71.2894L73.2234 116.79H73.3029L75.2369 110.864H76.8327L73.6857 119.519C73.5399 119.917 73.3543 120.253 73.1289 120.528C72.9035 120.807 72.6351 121.016 72.3235 121.155C72.012 121.294 71.6507 121.364 71.2397 121.364Z" fill="#484848"/>
<path d="M273.766 116.511V115.268L278.165 108.318H279.145V110.148H278.523L275.376 115.129V115.209H281.407V116.511H273.766ZM278.593 118.5V116.134L278.603 115.567V108.318H280.06V118.5H278.593ZM287.037 107.841L283.756 120.031H282.429L285.71 107.841H287.037ZM292.143 108.318V118.5H290.602V109.859H290.542L288.106 111.45V109.979L290.647 108.318H292.143ZM298.442 118.669C297.657 118.666 296.985 118.459 296.429 118.048C295.872 117.637 295.446 117.038 295.151 116.253C294.856 115.467 294.708 114.521 294.708 113.414C294.708 112.31 294.856 111.367 295.151 110.585C295.449 109.803 295.877 109.206 296.434 108.795C296.994 108.384 297.663 108.179 298.442 108.179C299.221 108.179 299.889 108.386 300.446 108.8C301.002 109.211 301.428 109.808 301.723 110.59C302.022 111.369 302.171 112.31 302.171 113.414C302.171 114.524 302.023 115.472 301.728 116.258C301.433 117.04 301.007 117.638 300.451 118.053C299.894 118.464 299.224 118.669 298.442 118.669ZM298.442 117.342C299.132 117.342 299.67 117.005 300.058 116.332C300.449 115.66 300.645 114.687 300.645 113.414C300.645 112.569 300.555 111.855 300.376 111.271C300.2 110.685 299.947 110.241 299.615 109.939C299.287 109.634 298.896 109.482 298.442 109.482C297.756 109.482 297.217 109.82 296.826 110.496C296.435 111.172 296.238 112.145 296.235 113.414C296.235 114.263 296.323 114.98 296.498 115.567C296.677 116.15 296.931 116.593 297.259 116.894C297.587 117.192 297.981 117.342 298.442 117.342Z" fill="#16AE6E"/>
<rect x="20" y="135.5" width="283" height="16" rx="8" fill="#DBF3F7"/>
<rect x="20" y="135.5" width="113" height="16" rx="8" fill="#FF867B"/>
<path d="M21.044 162.016H22.088V169.552H26.744V170.5H21.044V162.016ZM30.5958 164.104C31.0998 164.104 31.5358 164.184 31.9038 164.344C32.2718 164.504 32.5798 164.728 32.8278 165.016C33.0838 165.304 33.2718 165.648 33.3918 166.048C33.5198 166.44 33.5838 166.872 33.5838 167.344C33.5838 167.816 33.5198 168.252 33.3918 168.652C33.2718 169.044 33.0838 169.384 32.8278 169.672C32.5798 169.952 32.2678 170.172 31.8918 170.332C31.5158 170.492 31.0758 170.572 30.5718 170.572C30.0678 170.572 29.6278 170.492 29.2518 170.332C28.8838 170.172 28.5718 169.952 28.3158 169.672C28.0678 169.384 27.8798 169.044 27.7518 168.652C27.6318 168.252 27.5718 167.816 27.5718 167.344C27.5718 166.872 27.6318 166.44 27.7518 166.048C27.8798 165.648 28.0678 165.304 28.3158 165.016C28.5718 164.728 28.8918 164.504 29.2758 164.344C29.6598 164.184 30.0998 164.104 30.5958 164.104ZM30.5718 169.672C30.9158 169.672 31.2118 169.612 31.4598 169.492C31.7158 169.372 31.9238 169.208 32.0838 169C32.2518 168.784 32.3718 168.536 32.4438 168.256C32.5238 167.976 32.5638 167.672 32.5638 167.344C32.5638 167.024 32.5238 166.724 32.4438 166.444C32.3718 166.156 32.2518 165.908 32.0838 165.7C31.9238 165.484 31.7158 165.316 31.4598 165.196C31.2118 165.076 30.9158 165.016 30.5718 165.016C30.2278 165.016 29.9318 165.076 29.6838 165.196C29.4358 165.316 29.2278 165.484 29.0598 165.7C28.8998 165.908 28.7798 166.156 28.6998 166.444C28.6278 166.724 28.5918 167.024 28.5918 167.344C28.5918 167.672 28.6278 167.976 28.6998 168.256C28.7798 168.536 28.8998 168.784 29.0598 169C29.2278 169.208 29.4358 169.372 29.6838 169.492C29.9318 169.612 30.2278 169.672 30.5718 169.672ZM34.2885 164.176H35.4405L36.9525 169.516L38.5125 164.176H39.8925L41.4645 169.516L42.9525 164.176H44.1165L42.1485 170.5H40.7565L39.1965 165.376L37.6365 170.5H36.2565L34.2885 164.176ZM48.2962 172.78V164.176H49.2682L49.3162 165.124C49.5322 164.796 49.8242 164.548 50.1922 164.38C50.5682 164.204 50.9722 164.112 51.4042 164.104C51.8922 164.104 52.3042 164.188 52.6402 164.356C52.9842 164.516 53.2682 164.744 53.4922 165.04C53.7242 165.328 53.8962 165.672 54.0082 166.072C54.1202 166.464 54.1762 166.888 54.1762 167.344C54.1762 167.808 54.1202 168.236 54.0082 168.628C53.8962 169.02 53.7242 169.36 53.4922 169.648C53.2602 169.936 52.9682 170.164 52.6162 170.332C52.2642 170.492 51.8442 170.572 51.3562 170.572C50.8762 170.572 50.4682 170.496 50.1322 170.344C49.7962 170.192 49.5242 169.98 49.3162 169.708V172.78H48.2962ZM51.2722 169.672C51.6162 169.672 51.9042 169.612 52.1362 169.492C52.3762 169.364 52.5682 169.196 52.7122 168.988C52.8642 168.772 52.9722 168.524 53.0362 168.244C53.1082 167.964 53.1482 167.664 53.1562 167.344C53.1562 167.024 53.1202 166.724 53.0482 166.444C52.9842 166.156 52.8762 165.908 52.7242 165.7C52.5722 165.492 52.3722 165.328 52.1242 165.208C51.8842 165.08 51.5922 165.016 51.2482 165.016C50.8402 165.016 50.4882 165.128 50.1922 165.352C49.8962 165.568 49.6722 165.844 49.5202 166.18C49.4322 166.364 49.3722 166.556 49.3402 166.756C49.3082 166.948 49.2922 167.148 49.2922 167.356C49.2922 167.596 49.3082 167.82 49.3402 168.028C49.3722 168.228 49.4322 168.42 49.5202 168.604C49.6722 168.908 49.8922 169.164 50.1802 169.372C50.4762 169.572 50.8402 169.672 51.2722 169.672ZM55.5384 170.5V164.176H56.5224L56.5704 165.16C56.8024 164.792 57.0984 164.524 57.4584 164.356C57.8184 164.188 58.2264 164.104 58.6824 164.104H59.0064V165.064H58.6344C58.2584 165.064 57.9384 165.128 57.6744 165.256C57.4104 165.376 57.1944 165.544 57.0264 165.76C56.8664 165.968 56.7464 166.216 56.6664 166.504C56.5944 166.792 56.5584 167.096 56.5584 167.416V170.5H55.5384ZM62.6818 164.104C63.1858 164.104 63.6218 164.184 63.9898 164.344C64.3578 164.504 64.6658 164.728 64.9138 165.016C65.1698 165.304 65.3578 165.648 65.4778 166.048C65.6058 166.44 65.6698 166.872 65.6698 167.344C65.6698 167.816 65.6058 168.252 65.4778 168.652C65.3578 169.044 65.1698 169.384 64.9138 169.672C64.6658 169.952 64.3538 170.172 63.9778 170.332C63.6018 170.492 63.1618 170.572 62.6578 170.572C62.1538 170.572 61.7138 170.492 61.3378 170.332C60.9698 170.172 60.6578 169.952 60.4018 169.672C60.1538 169.384 59.9658 169.044 59.8378 168.652C59.7178 168.252 59.6578 167.816 59.6578 167.344C59.6578 166.872 59.7178 166.44 59.8378 166.048C59.9658 165.648 60.1538 165.304 60.4018 165.016C60.6578 164.728 60.9778 164.504 61.3618 164.344C61.7458 164.184 62.1858 164.104 62.6818 164.104ZM62.6578 169.672C63.0018 169.672 63.2978 169.612 63.5458 169.492C63.8018 169.372 64.0098 169.208 64.1698 169C64.3378 168.784 64.4578 168.536 64.5298 168.256C64.6098 167.976 64.6498 167.672 64.6498 167.344C64.6498 167.024 64.6098 166.724 64.5298 166.444C64.4578 166.156 64.3378 165.908 64.1698 165.7C64.0098 165.484 63.8018 165.316 63.5458 165.196C63.2978 165.076 63.0018 165.016 62.6578 165.016C62.3138 165.016 62.0178 165.076 61.7698 165.196C61.5218 165.316 61.3138 165.484 61.1458 165.7C60.9858 165.908 60.8658 166.156 60.7858 166.444C60.7138 166.724 60.6777 167.024 60.6777 167.344C60.6777 167.672 60.7138 167.976 60.7858 168.256C60.8658 168.536 60.9858 168.784 61.1458 169C61.3138 169.208 61.5218 169.372 61.7698 169.492C62.0178 169.612 62.3138 169.672 62.6578 169.672ZM67.5293 170.5V165.076H66.4973V164.176H67.5293V163.504C67.5293 162.8 67.6813 162.284 67.9853 161.956C68.2893 161.628 68.8013 161.464 69.5213 161.464H70.2413V162.364H69.6293C69.1973 162.364 68.9093 162.472 68.7653 162.688C68.6213 162.904 68.5493 163.216 68.5493 163.624V164.176H70.2413V165.076H68.5493V170.5H67.5293ZM71.8998 161.86C72.0918 161.86 72.2558 161.924 72.3918 162.052C72.5278 162.172 72.5958 162.332 72.5958 162.532C72.5958 162.732 72.5278 162.896 72.3918 163.024C72.2558 163.152 72.0918 163.216 71.8998 163.216C71.6998 163.216 71.5358 163.152 71.4078 163.024C71.2798 162.896 71.2158 162.732 71.2158 162.532C71.2158 162.332 71.2798 162.172 71.4078 162.052C71.5358 161.924 71.6998 161.86 71.8998 161.86ZM71.3958 170.5V164.176H72.4158V170.5H71.3958ZM75.7086 164.176H77.6526V165.076H75.7086V168.364C75.7086 168.548 75.7166 168.72 75.7326 168.88C75.7566 169.032 75.7966 169.168 75.8526 169.288C75.9166 169.4 76.0046 169.492 76.1166 169.564C76.2366 169.628 76.3966 169.664 76.5966 169.672C76.7806 169.672 76.9406 169.64 77.0766 169.576C77.2206 169.512 77.3406 169.436 77.4366 169.348L77.8806 170.092C77.6726 170.268 77.4566 170.392 77.2326 170.464C77.0086 170.536 76.7606 170.572 76.4886 170.572C76.1446 170.572 75.8566 170.524 75.6246 170.428C75.3926 170.324 75.1966 170.176 75.0366 169.984C74.9006 169.8 74.8086 169.584 74.7606 169.336C74.7126 169.088 74.6886 168.808 74.6886 168.496V165.076H73.6566V164.176H74.6886V162.28H75.7086V164.176ZM83.0344 169.696C82.8984 169.88 82.7424 170.028 82.5664 170.14C82.3904 170.252 82.2064 170.34 82.0144 170.404C81.8304 170.468 81.6424 170.512 81.4504 170.536C81.2664 170.56 81.0824 170.572 80.8984 170.572C80.6024 170.572 80.3224 170.536 80.0584 170.464C79.7944 170.392 79.5544 170.276 79.3384 170.116C79.1304 169.956 78.9624 169.756 78.8344 169.516C78.7144 169.276 78.6544 169.004 78.6544 168.7C78.6544 168.34 78.7184 168.04 78.8464 167.8C78.9824 167.552 79.1624 167.352 79.3864 167.2C79.6104 167.048 79.8664 166.944 80.1544 166.888C80.4504 166.824 80.7624 166.792 81.0904 166.792H82.9504C82.9504 166.256 82.8344 165.832 82.6024 165.52C82.3704 165.2 81.9784 165.032 81.4264 165.016C81.0904 165.016 80.7944 165.072 80.5384 165.184C80.2824 165.296 80.1064 165.48 80.0104 165.736H78.9184C78.9744 165.448 79.0864 165.204 79.2544 165.004C79.4224 164.796 79.6224 164.628 79.8544 164.5C80.0864 164.364 80.3384 164.264 80.6104 164.2C80.8824 164.136 81.1544 164.104 81.4264 164.104C81.8984 164.104 82.2944 164.184 82.6144 164.344C82.9424 164.496 83.2064 164.7 83.4064 164.956C83.6064 165.204 83.7464 165.508 83.8264 165.868C83.9064 166.228 83.9464 166.632 83.9464 167.08V170.5H83.0944L83.0344 169.696ZM81.8344 167.644C81.6424 167.644 81.4184 167.648 81.1624 167.656C80.9144 167.656 80.6744 167.68 80.4424 167.728C80.2104 167.776 80.0224 167.876 79.8784 168.028C79.7424 168.18 79.6744 168.38 79.6744 168.628C79.6744 168.812 79.7104 168.968 79.7824 169.096C79.8544 169.224 79.9504 169.332 80.0704 169.42C80.1984 169.508 80.3424 169.572 80.5024 169.612C80.6624 169.652 80.8264 169.672 80.9944 169.672C81.5944 169.672 82.0664 169.528 82.4104 169.24C82.7624 168.944 82.9424 168.516 82.9504 167.956V167.644H81.8344ZM85.5267 170.5V162.016H86.5467V165.112C86.7547 164.792 87.0507 164.544 87.4347 164.368C87.8267 164.184 88.2267 164.096 88.6347 164.104C89.1147 164.104 89.5267 164.188 89.8707 164.356C90.2227 164.524 90.5107 164.752 90.7347 165.04C90.9667 165.328 91.1347 165.672 91.2387 166.072C91.3507 166.464 91.4067 166.888 91.4067 167.344C91.4067 167.8 91.3507 168.224 91.2387 168.616C91.1347 169 90.9667 169.336 90.7347 169.624C90.5027 169.912 90.2067 170.14 89.8467 170.308C89.4947 170.476 89.0747 170.564 88.5867 170.572H88.4547C88.0227 170.572 87.6467 170.496 87.3267 170.344C87.0147 170.192 86.7547 169.988 86.5467 169.732L86.4987 170.5H85.5267ZM88.5027 169.672C88.8467 169.672 89.1347 169.612 89.3667 169.492C89.6067 169.364 89.7987 169.196 89.9427 168.988C90.0947 168.772 90.2027 168.524 90.2667 168.244C90.3387 167.964 90.3787 167.664 90.3867 167.344C90.3867 167.024 90.3507 166.724 90.2787 166.444C90.2147 166.156 90.1067 165.908 89.9547 165.7C89.8027 165.492 89.6027 165.328 89.3547 165.208C89.1147 165.08 88.8227 165.016 88.4787 165.016C88.2867 165.016 88.0987 165.048 87.9147 165.112C87.7307 165.176 87.5667 165.264 87.4227 165.376C87.2787 165.48 87.1507 165.6 87.0387 165.736C86.9347 165.872 86.8467 166.016 86.7747 166.168C86.6867 166.352 86.6227 166.548 86.5827 166.756C86.5427 166.964 86.5227 167.164 86.5227 167.356C86.5227 167.564 86.5347 167.78 86.5587 168.004C86.5907 168.22 86.6547 168.42 86.7507 168.604C86.8947 168.908 87.1147 169.164 87.4107 169.372C87.7067 169.572 88.0707 169.672 88.5027 169.672ZM93.3568 161.86C93.5488 161.86 93.7128 161.924 93.8488 162.052C93.9848 162.172 94.0528 162.332 94.0528 162.532C94.0528 162.732 93.9848 162.896 93.8488 163.024C93.7128 163.152 93.5488 163.216 93.3568 163.216C93.1568 163.216 92.9928 163.152 92.8648 163.024C92.7368 162.896 92.6728 162.732 92.6728 162.532C92.6728 162.332 92.7368 162.172 92.8648 162.052C92.9928 161.924 93.1568 161.86 93.3568 161.86ZM92.8528 170.5V164.176H93.8728V170.5H92.8528ZM95.5696 170.5V162.016H96.5896V170.5H95.5696ZM98.7826 161.86C98.9746 161.86 99.1386 161.924 99.2746 162.052C99.4106 162.172 99.4786 162.332 99.4786 162.532C99.4786 162.732 99.4106 162.896 99.2746 163.024C99.1386 163.152 98.9746 163.216 98.7826 163.216C98.5826 163.216 98.4186 163.152 98.2906 163.024C98.1626 162.896 98.0986 162.732 98.0986 162.532C98.0986 162.332 98.1626 162.172 98.2906 162.052C98.4186 161.924 98.5826 161.86 98.7826 161.86ZM98.2786 170.5V164.176H99.2986V170.5H98.2786ZM102.591 164.176H104.535V165.076H102.591V168.364C102.591 168.548 102.599 168.72 102.615 168.88C102.639 169.032 102.679 169.168 102.735 169.288C102.799 169.4 102.887 169.492 102.999 169.564C103.119 169.628 103.279 169.664 103.479 169.672C103.663 169.672 103.823 169.64 103.959 169.576C104.103 169.512 104.223 169.436 104.319 169.348L104.763 170.092C104.555 170.268 104.339 170.392 104.115 170.464C103.891 170.536 103.643 170.572 103.371 170.572C103.027 170.572 102.739 170.524 102.507 170.428C102.275 170.324 102.079 170.176 101.919 169.984C101.783 169.8 101.691 169.584 101.643 169.336C101.595 169.088 101.571 168.808 101.571 168.496V165.076H100.539V164.176H101.571V162.28H102.591V164.176ZM111.309 164.176V170.5C111.309 171.42 111.069 172.12 110.589 172.6C110.109 173.088 109.425 173.332 108.537 173.332C108.001 173.324 107.517 173.252 107.085 173.116C106.661 172.988 106.269 172.756 105.909 172.42L106.353 171.616C106.665 171.864 106.997 172.06 107.349 172.204C107.709 172.348 108.085 172.42 108.477 172.42C108.805 172.42 109.085 172.368 109.317 172.264C109.549 172.168 109.737 172.028 109.881 171.844C110.033 171.668 110.141 171.456 110.205 171.208C110.277 170.96 110.313 170.692 110.313 170.404V169.648C110.209 169.808 110.077 169.952 109.917 170.08C109.765 170.2 109.597 170.3 109.413 170.38C109.237 170.452 109.045 170.504 108.837 170.536C108.637 170.576 108.433 170.596 108.225 170.596C107.745 170.588 107.345 170.512 107.025 170.368C106.713 170.224 106.461 170.024 106.269 169.768C106.085 169.512 105.953 169.208 105.873 168.856C105.793 168.496 105.753 168.1 105.753 167.668V164.176H106.773V167.38C106.773 167.668 106.789 167.952 106.821 168.232C106.861 168.512 106.937 168.76 107.049 168.976C107.161 169.192 107.325 169.368 107.541 169.504C107.757 169.632 108.045 169.696 108.405 169.696C108.765 169.696 109.069 169.62 109.317 169.468C109.573 169.316 109.769 169.124 109.905 168.892C110.057 168.652 110.157 168.388 110.205 168.1C110.261 167.812 110.289 167.516 110.289 167.212V164.176H111.309Z" fill="#585858"/>
<path d="M215.933 165.856V162.016H216.977V170.5H215.933V166.816H211.385V170.5H210.341V162.016H211.385V165.856H215.933ZM219.408 161.86C219.6 161.86 219.764 161.924 219.9 162.052C220.036 162.172 220.104 162.332 220.104 162.532C220.104 162.732 220.036 162.896 219.9 163.024C219.764 163.152 219.6 163.216 219.408 163.216C219.208 163.216 219.044 163.152 218.916 163.024C218.788 162.896 218.724 162.732 218.724 162.532C218.724 162.332 218.788 162.172 218.916 162.052C219.044 161.924 219.208 161.86 219.408 161.86ZM218.904 170.5V164.176H219.924V170.5H218.904ZM227.26 170.452C227.26 171.348 227.02 172.052 226.54 172.564C226.06 173.076 225.336 173.332 224.368 173.332C224.048 173.332 223.74 173.296 223.444 173.224C223.156 173.152 222.892 173.036 222.652 172.876C222.42 172.724 222.22 172.528 222.052 172.288C221.892 172.056 221.78 171.776 221.716 171.448H222.772C222.82 171.632 222.9 171.784 223.012 171.904C223.132 172.032 223.268 172.132 223.42 172.204C223.572 172.284 223.736 172.34 223.912 172.372C224.088 172.404 224.26 172.42 224.428 172.42C224.748 172.42 225.024 172.368 225.256 172.264C225.488 172.168 225.676 172.032 225.82 171.856C225.964 171.68 226.068 171.468 226.132 171.22C226.204 170.98 226.24 170.716 226.24 170.428V169.552C226.032 169.92 225.736 170.184 225.352 170.344C224.968 170.496 224.568 170.572 224.152 170.572C223.672 170.564 223.256 170.48 222.904 170.32C222.552 170.152 222.264 169.924 222.04 169.636C221.816 169.348 221.648 169.012 221.536 168.628C221.432 168.236 221.38 167.812 221.38 167.356C221.38 166.9 221.436 166.476 221.548 166.084C221.66 165.684 221.832 165.34 222.064 165.052C222.296 164.756 222.588 164.524 222.94 164.356C223.292 164.188 223.712 164.104 224.2 164.104C224.568 164.104 224.94 164.172 225.316 164.308C225.692 164.444 226 164.664 226.24 164.968L226.288 164.176H227.26V170.452ZM224.284 165.016C223.94 165.016 223.648 165.08 223.408 165.208C223.168 165.328 222.972 165.492 222.82 165.7C222.676 165.908 222.568 166.156 222.496 166.444C222.432 166.724 222.4 167.024 222.4 167.344C222.4 167.696 222.432 168.008 222.496 168.28C222.56 168.544 222.668 168.78 222.82 168.988C222.972 169.196 223.168 169.364 223.408 169.492C223.648 169.612 223.944 169.672 224.296 169.672C224.704 169.672 225.04 169.576 225.304 169.384C225.568 169.192 225.78 168.952 225.94 168.664C226.052 168.464 226.132 168.248 226.18 168.016C226.228 167.776 226.252 167.54 226.252 167.308C226.252 167.02 226.224 166.756 226.168 166.516C226.12 166.276 226.028 166.052 225.892 165.844C225.732 165.612 225.52 165.416 225.256 165.256C224.992 165.096 224.668 165.016 224.284 165.016ZM228.863 170.5V162.016H229.883V165.148C229.987 164.988 230.119 164.84 230.279 164.704C230.439 164.568 230.607 164.456 230.783 164.368C230.959 164.28 231.151 164.216 231.359 164.176C231.575 164.128 231.783 164.104 231.983 164.104C232.439 164.104 232.819 164.18 233.123 164.332C233.435 164.476 233.683 164.68 233.867 164.944C234.059 165.2 234.191 165.508 234.263 165.868C234.343 166.22 234.383 166.604 234.383 167.02V170.5H233.363V167.332C233.363 167.044 233.347 166.764 233.315 166.492C233.283 166.212 233.211 165.964 233.099 165.748C232.987 165.532 232.827 165.356 232.619 165.22C232.411 165.076 232.127 165.004 231.767 165.004C231.471 165.004 231.195 165.08 230.939 165.232C230.691 165.376 230.491 165.56 230.339 165.784C230.155 166.032 230.031 166.308 229.967 166.612C229.911 166.916 229.883 167.228 229.883 167.548V170.5H228.863ZM239.187 172.78V164.176H240.159L240.207 165.124C240.423 164.796 240.715 164.548 241.083 164.38C241.459 164.204 241.863 164.112 242.295 164.104C242.783 164.104 243.195 164.188 243.531 164.356C243.875 164.516 244.159 164.744 244.383 165.04C244.615 165.328 244.787 165.672 244.899 166.072C245.011 166.464 245.067 166.888 245.067 167.344C245.067 167.808 245.011 168.236 244.899 168.628C244.787 169.02 244.615 169.36 244.383 169.648C244.151 169.936 243.859 170.164 243.507 170.332C243.155 170.492 242.735 170.572 242.247 170.572C241.767 170.572 241.359 170.496 241.023 170.344C240.687 170.192 240.415 169.98 240.207 169.708V172.78H239.187ZM242.163 169.672C242.507 169.672 242.795 169.612 243.027 169.492C243.267 169.364 243.459 169.196 243.603 168.988C243.755 168.772 243.863 168.524 243.927 168.244C243.999 167.964 244.039 167.664 244.047 167.344C244.047 167.024 244.011 166.724 243.939 166.444C243.875 166.156 243.767 165.908 243.615 165.7C243.463 165.492 243.263 165.328 243.015 165.208C242.775 165.08 242.483 165.016 242.139 165.016C241.731 165.016 241.379 165.128 241.083 165.352C240.787 165.568 240.563 165.844 240.411 166.18C240.323 166.364 240.263 166.556 240.231 166.756C240.199 166.948 240.183 167.148 240.183 167.356C240.183 167.596 240.199 167.82 240.231 168.028C240.263 168.228 240.323 168.42 240.411 168.604C240.563 168.908 240.783 169.164 241.071 169.372C241.367 169.572 241.731 169.672 242.163 169.672ZM246.429 170.5V164.176H247.413L247.461 165.16C247.693 164.792 247.989 164.524 248.349 164.356C248.709 164.188 249.117 164.104 249.573 164.104H249.897V165.064H249.525C249.149 165.064 248.829 165.128 248.565 165.256C248.301 165.376 248.085 165.544 247.917 165.76C247.757 165.968 247.637 166.216 247.557 166.504C247.485 166.792 247.449 167.096 247.449 167.416V170.5H246.429ZM253.572 164.104C254.076 164.104 254.512 164.184 254.88 164.344C255.248 164.504 255.556 164.728 255.804 165.016C256.06 165.304 256.248 165.648 256.368 166.048C256.496 166.44 256.56 166.872 256.56 167.344C256.56 167.816 256.496 168.252 256.368 168.652C256.248 169.044 256.06 169.384 255.804 169.672C255.556 169.952 255.244 170.172 254.868 170.332C254.492 170.492 254.052 170.572 253.548 170.572C253.044 170.572 252.604 170.492 252.228 170.332C251.86 170.172 251.548 169.952 251.292 169.672C251.044 169.384 250.856 169.044 250.728 168.652C250.608 168.252 250.548 167.816 250.548 167.344C250.548 166.872 250.608 166.44 250.728 166.048C250.856 165.648 251.044 165.304 251.292 165.016C251.548 164.728 251.868 164.504 252.252 164.344C252.636 164.184 253.076 164.104 253.572 164.104ZM253.548 169.672C253.892 169.672 254.188 169.612 254.436 169.492C254.692 169.372 254.9 169.208 255.06 169C255.228 168.784 255.348 168.536 255.42 168.256C255.5 167.976 255.54 167.672 255.54 167.344C255.54 167.024 255.5 166.724 255.42 166.444C255.348 166.156 255.228 165.908 255.06 165.7C254.9 165.484 254.692 165.316 254.436 165.196C254.188 165.076 253.892 165.016 253.548 165.016C253.204 165.016 252.908 165.076 252.66 165.196C252.412 165.316 252.204 165.484 252.036 165.7C251.876 165.908 251.756 166.156 251.676 166.444C251.604 166.724 251.568 167.024 251.568 167.344C251.568 167.672 251.604 167.976 251.676 168.256C251.756 168.536 251.876 168.784 252.036 169C252.204 169.208 252.412 169.372 252.66 169.492C252.908 169.612 253.204 169.672 253.548 169.672ZM258.42 170.5V165.076H257.388V164.176H258.42V163.504C258.42 162.8 258.572 162.284 258.876 161.956C259.18 161.628 259.692 161.464 260.412 161.464H261.132V162.364H260.52C260.088 162.364 259.8 162.472 259.656 162.688C259.512 162.904 259.44 163.216 259.44 163.624V164.176H261.132V165.076H259.44V170.5H258.42ZM262.79 161.86C262.982 161.86 263.146 161.924 263.282 162.052C263.418 162.172 263.486 162.332 263.486 162.532C263.486 162.732 263.418 162.896 263.282 163.024C263.146 163.152 262.982 163.216 262.79 163.216C262.59 163.216 262.426 163.152 262.298 163.024C262.17 162.896 262.106 162.732 262.106 162.532C262.106 162.332 262.17 162.172 262.298 162.052C262.426 161.924 262.59 161.86 262.79 161.86ZM262.286 170.5V164.176H263.306V170.5H262.286ZM266.599 164.176H268.543V165.076H266.599V168.364C266.599 168.548 266.607 168.72 266.623 168.88C266.647 169.032 266.687 169.168 266.743 169.288C266.807 169.4 266.895 169.492 267.007 169.564C267.127 169.628 267.287 169.664 267.487 169.672C267.671 169.672 267.831 169.64 267.967 169.576C268.111 169.512 268.231 169.436 268.327 169.348L268.771 170.092C268.563 170.268 268.347 170.392 268.123 170.464C267.899 170.536 267.651 170.572 267.379 170.572C267.035 170.572 266.747 170.524 266.515 170.428C266.283 170.324 266.087 170.176 265.927 169.984C265.791 169.8 265.699 169.584 265.651 169.336C265.603 169.088 265.579 168.808 265.579 168.496V165.076H264.547V164.176H265.579V162.28H266.599V164.176ZM273.925 169.696C273.789 169.88 273.633 170.028 273.457 170.14C273.281 170.252 273.097 170.34 272.905 170.404C272.721 170.468 272.533 170.512 272.341 170.536C272.157 170.56 271.973 170.572 271.789 170.572C271.493 170.572 271.213 170.536 270.949 170.464C270.685 170.392 270.445 170.276 270.229 170.116C270.021 169.956 269.853 169.756 269.725 169.516C269.605 169.276 269.545 169.004 269.545 168.7C269.545 168.34 269.609 168.04 269.737 167.8C269.873 167.552 270.053 167.352 270.277 167.2C270.501 167.048 270.757 166.944 271.045 166.888C271.341 166.824 271.653 166.792 271.981 166.792H273.841C273.841 166.256 273.725 165.832 273.493 165.52C273.261 165.2 272.869 165.032 272.317 165.016C271.981 165.016 271.685 165.072 271.429 165.184C271.173 165.296 270.997 165.48 270.901 165.736H269.809C269.865 165.448 269.977 165.204 270.145 165.004C270.313 164.796 270.513 164.628 270.745 164.5C270.977 164.364 271.229 164.264 271.501 164.2C271.773 164.136 272.045 164.104 272.317 164.104C272.789 164.104 273.185 164.184 273.505 164.344C273.833 164.496 274.097 164.7 274.297 164.956C274.497 165.204 274.637 165.508 274.717 165.868C274.797 166.228 274.837 166.632 274.837 167.08V170.5H273.985L273.925 169.696ZM272.725 167.644C272.533 167.644 272.309 167.648 272.053 167.656C271.805 167.656 271.565 167.68 271.333 167.728C271.101 167.776 270.913 167.876 270.769 168.028C270.633 168.18 270.565 168.38 270.565 168.628C270.565 168.812 270.601 168.968 270.673 169.096C270.745 169.224 270.841 169.332 270.961 169.42C271.089 169.508 271.233 169.572 271.393 169.612C271.553 169.652 271.717 169.672 271.885 169.672C272.485 169.672 272.957 169.528 273.301 169.24C273.653 168.944 273.833 168.516 273.841 167.956V167.644H272.725ZM276.417 170.5V162.016H277.437V165.112C277.645 164.792 277.941 164.544 278.325 164.368C278.717 164.184 279.117 164.096 279.525 164.104C280.005 164.104 280.417 164.188 280.761 164.356C281.113 164.524 281.401 164.752 281.625 165.04C281.857 165.328 282.025 165.672 282.129 166.072C282.241 166.464 282.297 166.888 282.297 167.344C282.297 167.8 282.241 168.224 282.129 168.616C282.025 169 281.857 169.336 281.625 169.624C281.393 169.912 281.097 170.14 280.737 170.308C280.385 170.476 279.965 170.564 279.477 170.572H279.345C278.913 170.572 278.537 170.496 278.217 170.344C277.905 170.192 277.645 169.988 277.437 169.732L277.389 170.5H276.417ZM279.393 169.672C279.737 169.672 280.025 169.612 280.257 169.492C280.497 169.364 280.689 169.196 280.833 168.988C280.985 168.772 281.093 168.524 281.157 168.244C281.229 167.964 281.269 167.664 281.277 167.344C281.277 167.024 281.241 166.724 281.169 166.444C281.105 166.156 280.997 165.908 280.845 165.7C280.693 165.492 280.493 165.328 280.245 165.208C280.005 165.08 279.713 165.016 279.369 165.016C279.177 165.016 278.989 165.048 278.805 165.112C278.621 165.176 278.457 165.264 278.313 165.376C278.169 165.48 278.041 165.6 277.929 165.736C277.825 165.872 277.737 166.016 277.665 166.168C277.577 166.352 277.513 166.548 277.473 166.756C277.433 166.964 277.413 167.164 277.413 167.356C277.413 167.564 277.425 167.78 277.449 168.004C277.481 168.22 277.545 168.42 277.641 168.604C277.785 168.908 278.005 169.164 278.301 169.372C278.597 169.572 278.961 169.672 279.393 169.672ZM284.247 161.86C284.439 161.86 284.603 161.924 284.739 162.052C284.875 162.172 284.943 162.332 284.943 162.532C284.943 162.732 284.875 162.896 284.739 163.024C284.603 163.152 284.439 163.216 284.247 163.216C284.047 163.216 283.883 163.152 283.755 163.024C283.627 162.896 283.563 162.732 283.563 162.532C283.563 162.332 283.627 162.172 283.755 162.052C283.883 161.924 284.047 161.86 284.247 161.86ZM283.743 170.5V164.176H284.763V170.5H283.743ZM286.46 170.5V162.016H287.48V170.5H286.46ZM289.673 161.86C289.865 161.86 290.029 161.924 290.165 162.052C290.301 162.172 290.369 162.332 290.369 162.532C290.369 162.732 290.301 162.896 290.165 163.024C290.029 163.152 289.865 163.216 289.673 163.216C289.473 163.216 289.309 163.152 289.181 163.024C289.053 162.896 288.989 162.732 288.989 162.532C288.989 162.332 289.053 162.172 289.181 162.052C289.309 161.924 289.473 161.86 289.673 161.86ZM289.169 170.5V164.176H290.189V170.5H289.169ZM293.482 164.176H295.426V165.076H293.482V168.364C293.482 168.548 293.49 168.72 293.506 168.88C293.53 169.032 293.57 169.168 293.626 169.288C293.69 169.4 293.778 169.492 293.89 169.564C294.01 169.628 294.17 169.664 294.37 169.672C294.554 169.672 294.714 169.64 294.85 169.576C294.994 169.512 295.114 169.436 295.21 169.348L295.654 170.092C295.446 170.268 295.23 170.392 295.006 170.464C294.782 170.536 294.534 170.572 294.262 170.572C293.918 170.572 293.63 170.524 293.398 170.428C293.166 170.324 292.97 170.176 292.81 169.984C292.674 169.8 292.582 169.584 292.534 169.336C292.486 169.088 292.462 168.808 292.462 168.496V165.076H291.43V164.176H292.462V162.28H293.482V164.176ZM302.2 164.176V170.5C302.2 171.42 301.96 172.12 301.48 172.6C301 173.088 300.316 173.332 299.428 173.332C298.892 173.324 298.408 173.252 297.976 173.116C297.552 172.988 297.16 172.756 296.8 172.42L297.244 171.616C297.556 171.864 297.888 172.06 298.24 172.204C298.6 172.348 298.976 172.42 299.368 172.42C299.696 172.42 299.976 172.368 300.208 172.264C300.44 172.168 300.628 172.028 300.772 171.844C300.924 171.668 301.032 171.456 301.096 171.208C301.168 170.96 301.204 170.692 301.204 170.404V169.648C301.1 169.808 300.968 169.952 300.808 170.08C300.656 170.2 300.488 170.3 300.304 170.38C300.128 170.452 299.936 170.504 299.728 170.536C299.528 170.576 299.324 170.596 299.116 170.596C298.636 170.588 298.236 170.512 297.916 170.368C297.604 170.224 297.352 170.024 297.16 169.768C296.976 169.512 296.844 169.208 296.764 168.856C296.684 168.496 296.644 168.1 296.644 167.668V164.176H297.664V167.38C297.664 167.668 297.68 167.952 297.712 168.232C297.752 168.512 297.828 168.76 297.94 168.976C298.052 169.192 298.216 169.368 298.432 169.504C298.648 169.632 298.936 169.696 299.296 169.696C299.656 169.696 299.96 169.62 300.208 169.468C300.464 169.316 300.66 169.124 300.796 168.892C300.948 168.652 301.048 168.388 301.096 168.1C301.152 167.812 301.18 167.516 301.18 167.212V164.176H302.2Z" fill="#585858"/>
<path d="M21.1186 204.5V194.318H24.7479C25.5367 194.318 26.1913 194.454 26.7116 194.726C27.2353 194.998 27.6264 195.374 27.8849 195.854C28.1435 196.332 28.2727 196.884 28.2727 197.51C28.2727 198.133 28.1418 198.682 27.88 199.156C27.6214 199.626 27.2304 199.992 26.7067 200.254C26.1863 200.516 25.5317 200.647 24.7429 200.647H21.9936V199.325H24.6037C25.1009 199.325 25.5052 199.253 25.8168 199.111C26.1316 198.968 26.362 198.761 26.5078 198.489C26.6536 198.218 26.7266 197.891 26.7266 197.51C26.7266 197.125 26.652 196.792 26.5028 196.511C26.357 196.229 26.1267 196.013 25.8118 195.864C25.5002 195.712 25.0909 195.636 24.5838 195.636H22.6548V204.5H21.1186ZM26.1449 199.906L28.6605 204.5H26.9105L24.4446 199.906H26.1449ZM33.2182 204.654C32.4658 204.654 31.8179 204.493 31.2743 204.172C30.7341 203.847 30.3165 203.391 30.0215 202.805C29.7298 202.215 29.584 201.524 29.584 200.732C29.584 199.949 29.7298 199.26 30.0215 198.663C30.3165 198.067 30.7275 197.601 31.2544 197.266C31.7847 196.932 32.4045 196.764 33.1138 196.764C33.5447 196.764 33.9623 196.835 34.3667 196.978C34.771 197.121 35.1339 197.344 35.4554 197.649C35.7769 197.954 36.0305 198.35 36.2161 198.837C36.4017 199.321 36.4945 199.91 36.4945 200.602V201.129H30.4242V200.016H35.0378C35.0378 199.625 34.9583 199.278 34.7992 198.977C34.6401 198.672 34.4164 198.431 34.128 198.256C33.843 198.08 33.5082 197.992 33.1238 197.992C32.7061 197.992 32.3416 198.095 32.03 198.3C31.7218 198.503 31.4831 198.768 31.3141 199.096C31.1484 199.421 31.0655 199.774 31.0655 200.155V201.025C31.0655 201.535 31.155 201.969 31.334 202.327C31.5163 202.685 31.7698 202.959 32.0946 203.148C32.4194 203.333 32.7989 203.426 33.2331 203.426C33.5149 203.426 33.7717 203.386 34.0037 203.307C34.2357 203.224 34.4363 203.101 34.6053 202.939C34.7743 202.777 34.9036 202.576 34.9931 202.337L36.4 202.591C36.2873 203.005 36.0852 203.368 35.7935 203.68C35.5051 203.988 35.1422 204.228 34.7047 204.401C34.2705 204.57 33.775 204.654 33.2182 204.654ZM39.6303 199.966V204.5H38.1438V196.864H39.5707V198.107H39.6651C39.8408 197.702 40.1159 197.377 40.4904 197.132C40.8683 196.887 41.3439 196.764 41.9173 196.764C42.4376 196.764 42.8933 196.874 43.2844 197.092C43.6755 197.308 43.9788 197.629 44.1942 198.057C44.4097 198.484 44.5174 199.013 44.5174 199.643V204.5H43.0309V199.822C43.0309 199.268 42.8867 198.836 42.5984 198.524C42.31 198.209 41.9139 198.052 41.4102 198.052C41.0655 198.052 40.7589 198.126 40.4904 198.276C40.2253 198.425 40.0148 198.643 39.859 198.932C39.7066 199.217 39.6303 199.562 39.6303 199.966ZM50.0756 196.864V198.057H45.9045V196.864H50.0756ZM47.0231 195.034H48.5096V202.258C48.5096 202.546 48.5527 202.763 48.6388 202.909C48.725 203.052 48.8361 203.149 48.9719 203.202C49.1112 203.252 49.262 203.277 49.4244 203.277C49.5437 203.277 49.6481 203.269 49.7376 203.252C49.8271 203.236 49.8967 203.222 49.9464 203.212L50.2148 204.44C50.1287 204.473 50.006 204.507 49.8469 204.54C49.6879 204.576 49.489 204.596 49.2504 204.599C48.8593 204.606 48.4947 204.536 48.1566 204.391C47.8185 204.245 47.5451 204.019 47.3363 203.714C47.1275 203.41 47.0231 203.027 47.0231 202.566V195.034ZM53.9423 204.669C53.4584 204.669 53.0209 204.58 52.6298 204.401C52.2387 204.218 51.9288 203.955 51.7001 203.61C51.4747 203.265 51.362 202.843 51.362 202.342C51.362 201.911 51.4449 201.557 51.6106 201.278C51.7763 201 52.0001 200.78 52.2818 200.617C52.5635 200.455 52.8784 200.332 53.2264 200.249C53.5744 200.166 53.929 200.103 54.2903 200.06C54.7477 200.007 55.1189 199.964 55.4039 199.931C55.689 199.895 55.8961 199.837 56.0254 199.757C56.1547 199.678 56.2193 199.548 56.2193 199.369V199.335C56.2193 198.9 56.0967 198.564 55.8514 198.325C55.6094 198.087 55.2482 197.967 54.7676 197.967C54.2671 197.967 53.8727 198.078 53.5843 198.3C53.2993 198.519 53.1021 198.763 52.9927 199.031L51.5957 198.713C51.7614 198.249 52.0034 197.875 52.3216 197.589C52.6431 197.301 53.0126 197.092 53.4302 196.963C53.8478 196.83 54.287 196.764 54.7477 196.764C55.0526 196.764 55.3758 196.801 55.7172 196.874C56.0618 196.943 56.3833 197.072 56.6816 197.261C56.9833 197.45 57.2302 197.72 57.4224 198.072C57.6146 198.42 57.7108 198.872 57.7108 199.429V204.5H56.2591V203.456H56.1994C56.1033 203.648 55.9591 203.837 55.7669 204.023C55.5746 204.208 55.3277 204.362 55.0261 204.485C54.7245 204.608 54.3632 204.669 53.9423 204.669ZM54.2654 203.476C54.6764 203.476 55.0278 203.395 55.3194 203.232C55.6144 203.07 55.8381 202.858 55.9906 202.596C56.1464 202.331 56.2243 202.047 56.2243 201.746V200.761C56.1712 200.814 56.0685 200.864 55.916 200.911C55.7669 200.954 55.5962 200.992 55.4039 201.025C55.2117 201.055 55.0244 201.083 54.8422 201.109C54.6599 201.133 54.5074 201.152 54.3848 201.169C54.0964 201.205 53.8329 201.267 53.5943 201.353C53.359 201.439 53.17 201.563 53.0275 201.726C52.8883 201.885 52.8187 202.097 52.8187 202.362C52.8187 202.73 52.9546 203.009 53.2264 203.197C53.4982 203.383 53.8445 203.476 54.2654 203.476ZM59.81 204.5V194.318H61.2965V198.102H61.386C61.4722 197.942 61.5965 197.759 61.7589 197.55C61.9213 197.341 62.1467 197.159 62.435 197.003C62.7234 196.844 63.1045 196.764 63.5785 196.764C64.195 196.764 64.7451 196.92 65.229 197.232C65.713 197.543 66.0924 197.992 66.3675 198.579C66.646 199.165 66.7852 199.871 66.7852 200.697C66.7852 201.522 66.6476 202.23 66.3725 202.82C66.0974 203.406 65.7196 203.859 65.239 204.177C64.7584 204.492 64.2099 204.649 63.5934 204.649C63.1294 204.649 62.7499 204.571 62.4549 204.415C62.1632 204.26 61.9345 204.077 61.7688 203.869C61.6031 203.66 61.4755 203.474 61.386 203.312H61.2617V204.5H59.81ZM61.2667 200.682C61.2667 201.219 61.3446 201.689 61.5004 202.094C61.6561 202.498 61.8815 202.815 62.1765 203.043C62.4715 203.269 62.8327 203.381 63.2603 203.381C63.7044 203.381 64.0756 203.264 64.3739 203.028C64.6722 202.79 64.8976 202.467 65.0501 202.059C65.2058 201.651 65.2837 201.192 65.2837 200.682C65.2837 200.178 65.2075 199.726 65.055 199.325C64.9059 198.924 64.6805 198.607 64.3789 198.375C64.0806 198.143 63.7077 198.027 63.2603 198.027C62.8294 198.027 62.4648 198.138 62.1665 198.36C61.8716 198.582 61.6478 198.892 61.4954 199.29C61.3429 199.687 61.2667 200.152 61.2667 200.682ZM68.4544 204.5V196.864H69.9409V204.5H68.4544ZM69.2051 195.685C68.9466 195.685 68.7245 195.599 68.5389 195.427C68.3566 195.251 68.2654 195.042 68.2654 194.8C68.2654 194.555 68.3566 194.346 68.5389 194.174C68.7245 193.998 68.9466 193.911 69.2051 193.911C69.4636 193.911 69.684 193.998 69.8663 194.174C70.0519 194.346 70.1447 194.555 70.1447 194.8C70.1447 195.042 70.0519 195.251 69.8663 195.427C69.684 195.599 69.4636 195.685 69.2051 195.685ZM73.4272 194.318V204.5H71.9407V194.318H73.4272ZM75.427 204.5V196.864H76.9135V204.5H75.427ZM76.1777 195.685C75.9192 195.685 75.6971 195.599 75.5115 195.427C75.3292 195.251 75.2381 195.042 75.2381 194.8C75.2381 194.555 75.3292 194.346 75.5115 194.174C75.6971 193.998 75.9192 193.911 76.1777 193.911C76.4363 193.911 76.6567 193.998 76.839 194.174C77.0246 194.346 77.1174 194.555 77.1174 194.8C77.1174 195.042 77.0246 195.251 76.839 195.427C76.6567 195.599 76.4363 195.685 76.1777 195.685ZM82.478 196.864V198.057H78.3068V196.864H82.478ZM79.4254 195.034H80.9119V202.258C80.9119 202.546 80.955 202.763 81.0412 202.909C81.1274 203.052 81.2384 203.149 81.3743 203.202C81.5135 203.252 81.6643 203.277 81.8267 203.277C81.946 203.277 82.0504 203.269 82.1399 203.252C82.2294 203.236 82.299 203.222 82.3487 203.212L82.6172 204.44C82.531 204.473 82.4084 204.507 82.2493 204.54C82.0902 204.576 81.8913 204.596 81.6527 204.599C81.2616 204.606 80.897 204.536 80.5589 204.391C80.2209 204.245 79.9474 204.019 79.7386 203.714C79.5298 203.41 79.4254 203.027 79.4254 202.566V195.034ZM85.062 207.364C84.8399 207.364 84.6377 207.345 84.4554 207.309C84.2731 207.276 84.1373 207.239 84.0478 207.2L84.4057 205.982C84.6775 206.054 84.9194 206.086 85.1316 206.076C85.3437 206.066 85.531 205.987 85.6934 205.837C85.8591 205.688 86.0049 205.445 86.1309 205.107L86.3148 204.599L83.5208 196.864H85.1117L87.0456 202.79H87.1252L89.0591 196.864H90.655L87.508 205.519C87.3622 205.917 87.1766 206.253 86.9512 206.528C86.7258 206.807 86.4573 207.016 86.1458 207.155C85.8342 207.294 85.473 207.364 85.062 207.364Z" fill="#484848"/>
<path d="M277.34 204.639C276.717 204.639 276.157 204.52 275.66 204.281C275.166 204.039 274.772 203.708 274.477 203.287C274.182 202.866 274.024 202.385 274.004 201.845H275.496C275.532 202.283 275.726 202.642 276.077 202.924C276.429 203.206 276.85 203.347 277.34 203.347C277.731 203.347 278.078 203.257 278.379 203.078C278.684 202.896 278.923 202.646 279.095 202.327C279.271 202.009 279.359 201.646 279.359 201.239C279.359 200.824 279.269 200.455 279.09 200.13C278.911 199.805 278.664 199.55 278.349 199.364C278.038 199.179 277.68 199.084 277.276 199.081C276.967 199.081 276.657 199.134 276.346 199.24C276.034 199.346 275.782 199.485 275.59 199.658L274.183 199.449L274.755 194.318H280.353V195.636H276.033L275.71 198.484H275.769C275.968 198.292 276.232 198.131 276.56 198.002C276.891 197.873 277.246 197.808 277.624 197.808C278.243 197.808 278.795 197.956 279.279 198.251C279.766 198.546 280.149 198.948 280.428 199.459C280.709 199.966 280.848 200.549 280.845 201.209C280.848 201.868 280.699 202.457 280.398 202.974C280.099 203.491 279.685 203.898 279.155 204.197C278.628 204.492 278.023 204.639 277.34 204.639ZM286.559 193.841L283.278 206.031H281.95L285.231 193.841H286.559ZM291.665 194.318V204.5H290.123V195.859H290.064L287.628 197.45V195.979L290.168 194.318H291.665ZM297.964 204.669C297.178 204.666 296.507 204.459 295.95 204.048C295.393 203.637 294.967 203.038 294.672 202.253C294.377 201.467 294.23 200.521 294.23 199.414C294.23 198.31 294.377 197.367 294.672 196.585C294.971 195.803 295.398 195.206 295.955 194.795C296.515 194.384 297.185 194.179 297.964 194.179C298.742 194.179 299.41 194.386 299.967 194.8C300.524 195.211 300.95 195.808 301.245 196.59C301.543 197.369 301.692 198.31 301.692 199.414C301.692 200.524 301.545 201.472 301.25 202.258C300.955 203.04 300.529 203.638 299.972 204.053C299.415 204.464 298.746 204.669 297.964 204.669ZM297.964 203.342C298.653 203.342 299.192 203.005 299.579 202.332C299.97 201.66 300.166 200.687 300.166 199.414C300.166 198.569 300.077 197.855 299.898 197.271C299.722 196.685 299.468 196.241 299.137 195.939C298.809 195.634 298.418 195.482 297.964 195.482C297.278 195.482 296.739 195.82 296.348 196.496C295.957 197.172 295.76 198.145 295.756 199.414C295.756 200.263 295.844 200.98 296.02 201.567C296.199 202.15 296.452 202.593 296.78 202.894C297.108 203.192 297.503 203.342 297.964 203.342Z" fill="#16AE6E"/>
<rect x="20" y="221.5" width="283" height="16" rx="8" fill="#E5F8DD"/>
<path d="M20 229.5C20 225.082 23.5817 221.5 28 221.5H158C162.418 221.5 166 225.082 166 229.5C166 233.918 162.418 237.5 158 237.5H28C23.5817 237.5 20 233.918 20 229.5Z" fill="url(#paint1_linear_933_5156)"/>
</g>
<path d="M0 171.211H323V225.5C323 233.784 316.284 240.5 308 240.5H15C6.71574 240.5 0 233.784 0 225.5V171.211Z" fill="url(#paint2_linear_933_5156)"/>
<defs>
<linearGradient id="paint0_linear_933_5156" x1="20" y1="57.5" x2="251" y2="57.5" gradientUnits="userSpaceOnUse">
<stop stop-color="#2BD4FE"/>
<stop offset="0.0625" stop-color="#2AC9FE"/>
<stop offset="1" stop-color="#1C2BFF"/>
</linearGradient>
<linearGradient id="paint1_linear_933_5156" x1="20" y1="229.5" x2="166" y2="229.5" gradientUnits="userSpaceOnUse">
<stop stop-color="#97F59E"/>
<stop offset="1" stop-color="#00EEA3"/>
</linearGradient>
<linearGradient id="paint2_linear_933_5156" x1="161.5" y1="240.5" x2="161.5" y2="171.211" gradientUnits="userSpaceOnUse">
<stop stop-color="white"/>
<stop offset="1" stop-color="white" stop-opacity="0"/>
</linearGradient>
<clipPath id="clip0_933_5156">
<rect width="283" height="219" fill="white" transform="translate(20 20.5)"/>
</clipPath>
</defs>
</svg>
