<svg xmlns="http://www.w3.org/2000/svg" width="323" height="241" fill="none"><rect width="323" height="240" y=".5" fill="#fff" rx="16"/><g clip-path="url(#a)"><path fill="#484848" d="M21.119 32.5V22.318h3.629q1.188 0 1.969.433.78.432 1.168 1.183.387.745.388 1.68 0 .94-.393 1.69-.388.747-1.173 1.184-.78.432-1.964.433h-2.496v-1.303h2.357q.75 0 1.218-.259.467-.263.686-.716.219-.451.219-1.029 0-.576-.22-1.024a1.57 1.57 0 0 0-.69-.7q-.468-.255-1.233-.254h-1.93V32.5zm8.835 0v-7.636h1.437v1.213h.08q.208-.616.735-.97a2.1 2.1 0 0 1 1.204-.358 6 6 0 0 1 .631.035v1.422a3 3 0 0 0-.318-.055 3 3 0 0 0-.458-.035 1.94 1.94 0 0 0-.94.224 1.66 1.66 0 0 0-.884 1.497V32.5zm5.373 0v-7.636h1.487V32.5zm.751-8.815a.95.95 0 0 1-.666-.258.84.84 0 0 1-.273-.627.83.83 0 0 1 .273-.626.94.94 0 0 1 .666-.264q.389 0 .661.264a.82.82 0 0 1 .279.626q0 .363-.279.627a.93.93 0 0 1-.66.258m5.952 8.97q-1.108 0-1.909-.503a3.33 3.33 0 0 1-1.223-1.397q-.427-.89-.427-2.038 0-1.163.437-2.054a3.35 3.35 0 0 1 1.233-1.397q.795-.502 1.874-.502.87 0 1.552.323.681.318 1.098.895.424.577.502 1.348h-1.446a1.73 1.73 0 0 0-.547-.925q-.423-.388-1.134-.388-.621 0-1.088.328-.463.324-.721.925-.26.596-.259 1.412 0 .835.254 1.442.253.606.716.94.467.332 1.098.332.423 0 .766-.154.348-.16.582-.452.239-.294.333-.706h1.446a2.8 2.8 0 0 1-.482 1.322 2.8 2.8 0 0 1-1.079.915q-.67.333-1.576.333m8.018 0q-1.128 0-1.944-.483a3.27 3.27 0 0 1-1.252-1.367q-.438-.885-.438-2.073 0-1.174.438-2.069a3.4 3.4 0 0 1 1.233-1.397q.795-.502 1.859-.502.645 0 1.253.214.606.213 1.088.671.483.457.761 1.188.279.726.279 1.765v.527h-6.07v-1.113h4.613q0-.587-.239-1.04a1.8 1.8 0 0 0-.67-.72 1.88 1.88 0 0 0-1.005-.264 1.94 1.94 0 0 0-1.094.308 2.07 2.07 0 0 0-.716.796 2.3 2.3 0 0 0-.248 1.059v.87q0 .766.268 1.302.274.538.76.82.487.28 1.14.28.421 0 .77-.12.348-.125.601-.368.255-.244.388-.602l1.407.254a2.55 2.55 0 0 1-.606 1.089 2.94 2.94 0 0 1-1.09.72q-.65.255-1.486.254m8.631-.155v-7.636h1.486V32.5zm.75-8.815a.95.95 0 0 1-.666-.258.84.84 0 0 1-.273-.627.83.83 0 0 1 .273-.626.94.94 0 0 1 .667-.264q.388 0 .66.264a.82.82 0 0 1 .28.626q0 .363-.28.627a.93.93 0 0 1-.66.258m4.223 4.28V32.5h-1.487v-7.636h1.427v1.242h.095q.263-.606.825-.974.566-.368 1.427-.368.78 0 1.367.328.586.324.91.965.323.64.323 1.586V32.5h-1.487v-4.678q0-.83-.432-1.298-.433-.472-1.188-.472-.518 0-.92.224-.398.223-.632.656-.228.428-.228 1.034m9.74 4.684a2.96 2.96 0 0 1-1.651-.472q-.721-.477-1.134-1.357-.408-.885-.408-2.123t.413-2.118q.418-.88 1.144-1.348a2.97 2.97 0 0 1 1.645-.467q.71 0 1.144.239.437.234.676.547.243.313.377.552h.09v-3.784h1.486V32.5h-1.451v-1.188h-.124q-.136.243-.388.557a2.2 2.2 0 0 1-.686.547q-.438.233-1.134.233m.327-1.268q.643 0 1.084-.338.448-.342.676-.95.234-.606.234-1.411 0-.795-.229-1.392-.228-.597-.671-.93t-1.094-.333q-.67 0-1.118.348a2.13 2.13 0 0 0-.677.95q-.223.6-.223 1.357 0 .766.229 1.377.228.611.676.97.451.352 1.113.352m5.577 1.119v-7.636h1.487V32.5zm.75-8.815a.95.95 0 0 1-.665-.258.84.84 0 0 1-.274-.627.83.83 0 0 1 .274-.626.94.94 0 0 1 .666-.264q.388 0 .661.264a.82.82 0 0 1 .279.626q0 .363-.279.627a.93.93 0 0 1-.661.258M86 32.655q-1.108 0-1.909-.503a3.33 3.33 0 0 1-1.223-1.397q-.428-.89-.428-2.038 0-1.163.438-2.054a3.35 3.35 0 0 1 1.233-1.397q.795-.502 1.874-.502.87 0 1.551.323.68.318 1.1.895t.501 1.348H87.69a1.74 1.74 0 0 0-.546-.925q-.423-.388-1.134-.388-.621 0-1.089.328-.462.324-.72.925-.26.596-.26 1.412 0 .835.254 1.442.255.606.716.94.468.332 1.1.332.42 0 .765-.154.348-.16.581-.452.239-.294.334-.706h1.446a2.8 2.8 0 0 1-.482 1.322 2.8 2.8 0 0 1-1.079.915q-.671.333-1.576.333m6.95.014a3.1 3.1 0 0 1-1.313-.268 2.2 2.2 0 0 1-.93-.79q-.338-.518-.338-1.269 0-.645.249-1.064.248-.417.67-.66t.945-.369a9 9 0 0 1 1.064-.189l1.114-.129q.428-.054.621-.174.194-.12.194-.388v-.035q0-.65-.368-1.009-.363-.357-1.084-.358-.75 0-1.183.333-.427.33-.591.731l-1.397-.318q.248-.696.725-1.123a2.94 2.94 0 0 1 1.11-.627 4.3 4.3 0 0 1 1.317-.199q.457 0 .969.11.517.104.965.387.452.285.74.81.29.523.289 1.358V32.5h-1.452v-1.044h-.06q-.144.288-.432.567t-.741.462-1.084.184m.322-1.193q.617 0 1.054-.244.443-.243.671-.636a1.65 1.65 0 0 0 .234-.85v-.985q-.08.08-.308.15a5 5 0 0 1-.512.114q-.288.045-.562.084l-.457.06a3.7 3.7 0 0 0-.79.184q-.354.129-.568.373-.208.238-.208.636 0 .553.407.835.407.279 1.04.279m8.99-6.612v1.193H98.09v-1.193zm-3.052-1.83h1.486v7.224q0 .432.129.651.13.214.333.293.21.075.453.075.179 0 .313-.025.135-.024.209-.04l.268 1.228a2.5 2.5 0 0 1-.368.1 3 3 0 0 1-.596.06 2.6 2.6 0 0 1-1.094-.21 1.88 1.88 0 0 1-.82-.675q-.313-.457-.313-1.149zm7.831 9.62q-1.074 0-1.874-.492a3.3 3.3 0 0 1-1.243-1.377q-.443-.886-.443-2.068 0-1.189.443-2.078a3.3 3.3 0 0 1 1.243-1.383q.8-.492 1.874-.492t1.874.492a3.3 3.3 0 0 1 1.243 1.383q.443.889.443 2.078 0 1.183-.443 2.068a3.3 3.3 0 0 1-1.243 1.377q-.8.492-1.874.492m.005-1.248q.696 0 1.154-.368.457-.367.676-.98.223-.61.223-1.346 0-.732-.223-1.343a2.2 2.2 0 0 0-.676-.989q-.458-.373-1.154-.373-.7 0-1.163.373a2.2 2.2 0 0 0-.681.99 4 4 0 0 0-.219 1.342q0 .736.219 1.347.224.611.681.98.462.367 1.163.367m5.214 1.094v-7.636h1.437v1.213h.079q.21-.616.736-.97a2.1 2.1 0 0 1 1.203-.358 6 6 0 0 1 .632.035v1.422a3 3 0 0 0-.318-.055 3 3 0 0 0-.458-.035q-.526 0-.939.224a1.66 1.66 0 0 0-.885 1.497V32.5zm11.095-5.772-1.347.239a1.6 1.6 0 0 0-.268-.493 1.3 1.3 0 0 0-.488-.382q-.308-.15-.77-.15-.631 0-1.054.284-.423.279-.423.72 0 .383.284.617.283.234.914.383l1.213.278q1.055.244 1.572.751.516.507.517 1.318 0 .686-.398 1.223-.393.532-1.099.835-.7.303-1.626.303-1.282 0-2.093-.547-.81-.552-.994-1.566l1.437-.219q.133.562.552.85.417.285 1.088.284.731 0 1.169-.303.437-.309.437-.751a.78.78 0 0 0-.268-.602q-.264-.244-.811-.367l-1.292-.284q-1.07-.243-1.581-.775-.507-.532-.507-1.348 0-.675.378-1.183.377-.508 1.044-.79.666-.29 1.526-.289 1.238 0 1.949.537.711.532.939 1.427"/><path fill="#16AE6E" d="m275.322 32.5 4.445-8.79v-.074h-5.141v-1.318h6.732v1.362l-4.43 8.82zm11.663-10.66-3.282 12.191h-1.327l3.281-12.19zm5.105.478V32.5h-1.541v-8.64h-.059l-2.437 1.59V23.98l2.541-1.66zm6.299 10.351q-1.178-.005-2.013-.621-.836-.617-1.278-1.795-.442-1.179-.442-2.839 0-1.656.442-2.829.447-1.173 1.283-1.79.84-.616 2.008-.616t2.004.621q.835.617 1.278 1.79.447 1.169.447 2.824 0 1.665-.442 2.844-.442 1.173-1.278 1.795-.835.615-2.009.616m0-1.327q1.035 0 1.616-1.01.587-1.008.587-2.918 0-1.268-.269-2.143-.263-.879-.76-1.332a1.67 1.67 0 0 0-1.174-.457q-1.029 0-1.615 1.014t-.592 2.918q0 1.272.263 2.153.269.875.761 1.327.492.448 1.183.448"/><rect width="283" height="16" x="20" y="49.5" fill="#DBF3F7" rx="8"/><rect width="231" height="16" x="20" y="49.5" fill="url(#b)" rx="8"/><path fill="#585858" d="M26.636 79.856v-3.84h1.044V84.5h-1.044v-3.684h-4.548V84.5h-1.044v-8.484h1.044v3.84zm7.05 3.84a1.8 1.8 0 0 1-.467.444q-.264.168-.552.264a2.8 2.8 0 0 1-.564.132 4 4 0 0 1-.552.036 3.2 3.2 0 0 1-.84-.108 2.2 2.2 0 0 1-.72-.348 1.8 1.8 0 0 1-.504-.6 1.8 1.8 0 0 1-.18-.816q0-.54.192-.9a1.7 1.7 0 0 1 .54-.6q.336-.228.768-.312a4.4 4.4 0 0 1 .936-.096h1.86q0-.804-.348-1.272-.348-.48-1.176-.504-.504 0-.888.168a.94.94 0 0 0-.528.552H29.57q.084-.432.336-.732.252-.312.6-.504.348-.204.756-.3t.816-.096q.708 0 1.188.24.492.228.792.612.3.372.42.912t.12 1.212v3.42h-.852zm-1.2-2.052q-.287 0-.671.012-.372 0-.72.072t-.564.3q-.204.228-.204.6 0 .276.108.468t.288.324q.192.132.432.192t.492.06q.9 0 1.416-.432.528-.444.54-1.284v-.312zM36.18 84.5v-6.324h.984l.048.984q.348-.552.888-.804t1.224-.252h.324v.96h-.372q-.564 0-.96.192-.396.18-.648.504-.24.312-.36.744a3.8 3.8 0 0 0-.108.912V84.5zm10 0h-.973l-.048-.948a1.86 1.86 0 0 1-.9.78q-.564.24-1.188.24-.72-.012-1.248-.252a2.36 2.36 0 0 1-.864-.684 3 3 0 0 1-.504-1.008 5 5 0 0 1-.156-1.272q0-.684.168-1.272.168-.6.516-1.032.348-.444.876-.696t1.26-.252q.552 0 1.116.204t.924.66v-2.952h1.02zm-2.977-5.484q-.516 0-.876.192-.36.18-.588.492a2.3 2.3 0 0 0-.324.744q-.096.42-.096.924t.096.912q.096.396.324.708t.588.504q.36.18.888.18.612 0 1.008-.288a2.25 2.25 0 0 0 .876-1.368q.072-.36.072-.708 0-.432-.084-.792a1.9 1.9 0 0 0-.276-.672 2.05 2.05 0 0 0-.636-.588q-.396-.24-.972-.24m9.409-.84h1.944v.9H52.61v3.288q0 .276.024.516.036.228.12.408a.8.8 0 0 0 .264.276q.18.096.48.108.276 0 .48-.096.216-.096.36-.228l.444.744q-.312.264-.648.372a2.4 2.4 0 0 1-.744.108q-.516 0-.864-.144a1.6 1.6 0 0 1-.588-.444 1.6 1.6 0 0 1-.276-.648 4.4 4.4 0 0 1-.072-.84v-3.42h-1.032v-.9h1.032V76.28h1.02zm5.946-.072q.756 0 1.308.24t.924.672q.384.432.564 1.032.192.588.192 1.296t-.192 1.308q-.18.588-.564 1.02-.372.42-.936.66t-1.32.24-1.32-.24q-.552-.24-.936-.66a2.9 2.9 0 0 1-.564-1.02q-.18-.6-.18-1.308t.18-1.296q.192-.6.564-1.032a2.6 2.6 0 0 1 .96-.672q.576-.24 1.32-.24m-.024 5.568q.516 0 .888-.18a1.66 1.66 0 0 0 .624-.492q.252-.324.36-.744.12-.42.12-.912 0-.48-.12-.9a1.9 1.9 0 0 0-.36-.744 1.6 1.6 0 0 0-.624-.504 2 2 0 0 0-.888-.18q-.516 0-.888.18a1.74 1.74 0 0 0-.624.504q-.24.312-.36.744-.108.42-.108.9 0 .492.108.912.12.42.36.744.252.312.624.492t.888.18m10.79-6.804q-.335 0-.683.06a1.9 1.9 0 0 0-.612.216 1.24 1.24 0 0 0-.456.408q-.168.252-.168.648 0 .48.252.78a1.7 1.7 0 0 0 .612.444q.288.12.612.204t.66.156q.348.072.672.144.336.072.648.18.732.252 1.164.72.444.468.444 1.236 0 .72-.252 1.188-.24.468-.66.768-.408.3-.96.444a4.8 4.8 0 0 1-1.152.132q-.612 0-1.176-.12a3.3 3.3 0 0 1-1.008-.396 2.7 2.7 0 0 1-.78-.72 2.8 2.8 0 0 1-.456-1.08h1.092q.12.408.372.672t.576.42.696.216q.384.06.756.06.36 0 .696-.072.348-.084.612-.252t.42-.432.156-.636q0-.564-.3-.84t-.804-.42a6 6 0 0 0-.708-.18q-.372-.072-.744-.156t-.732-.192q-.36-.12-.66-.276a2.03 2.03 0 0 1-.804-.696q-.324-.48-.324-1.2 0-.672.264-1.128t.684-.732.936-.396q.528-.12 1.116-.12.48.012.864.084.396.06.744.228.54.24.9.72t.396 1.236h-1.02a1.35 1.35 0 0 0-.228-.624 1.4 1.4 0 0 0-.42-.408 1.7 1.7 0 0 0-.576-.216 3 3 0 0 0-.66-.072m5.441 4.848q.036.42.168.78.144.348.384.612t.588.42q.36.144.828.144.228 0 .468-.036a2 2 0 0 0 .468-.144q.216-.108.384-.276t.252-.408h1.044a2 2 0 0 1-.372.792 2.1 2.1 0 0 1-.612.552 2.7 2.7 0 0 1-.78.324q-.432.096-.876.096-.756 0-1.32-.24a2.6 2.6 0 0 1-.924-.66 2.8 2.8 0 0 1-.552-1.02q-.18-.6-.18-1.308t.192-1.296q.204-.6.576-1.032t.912-.672 1.284-.24q.756 0 1.308.3t.888.792q.336.48.468 1.044.144.564.12 1.044 0 .108-.012.216 0 .108-.012.216zm3.684-.888q-.024-.804-.504-1.308t-1.284-.504q-.444 0-.78.144a1.6 1.6 0 0 0-.564.396 1.9 1.9 0 0 0-.36.588 2.5 2.5 0 0 0-.168.684zm2.403 3.672v-8.484h1.02V84.5zm2.625 0v-8.484h1.02V84.5zM238.478 76.016h5.7v.948h-4.656v2.856h4.188v.96h-4.188v2.772h4.656v.948h-5.7zm11.248 7.68a1.8 1.8 0 0 1-.468.444q-.264.168-.552.264a2.8 2.8 0 0 1-.564.132 4 4 0 0 1-.552.036 3.2 3.2 0 0 1-.84-.108 2.2 2.2 0 0 1-.72-.348 1.8 1.8 0 0 1-.504-.6 1.8 1.8 0 0 1-.18-.816q0-.54.192-.9a1.7 1.7 0 0 1 .54-.6q.336-.228.768-.312a4.4 4.4 0 0 1 .936-.096h1.86q0-.804-.348-1.272-.348-.48-1.176-.504-.504 0-.888.168a.94.94 0 0 0-.528.552h-1.092q.084-.432.336-.732.252-.312.6-.504.348-.204.756-.3t.816-.096q.708 0 1.188.24.492.228.792.612.3.372.42.912t.12 1.212v3.42h-.852zm-1.2-2.052q-.288 0-.672.012-.372 0-.72.072t-.564.3q-.204.228-.204.6 0 .276.108.468t.288.324q.192.132.432.192t.492.06q.9 0 1.416-.432.528-.444.54-1.284v-.312zm5.948-2.628q-.216 0-.444.036a1.5 1.5 0 0 0-.432.12.96.96 0 0 0-.36.264.73.73 0 0 0-.156.456q0 .408.3.612.312.204.804.3.204.048.444.096.24.036.468.084a5.5 5.5 0 0 1 .804.18q1.152.36 1.152 1.548-.012.576-.252.936a1.7 1.7 0 0 1-.588.552q-.348.204-.804.288a4.705 4.705 0 0 1-1.764 0 2.8 2.8 0 0 1-.816-.288 2.3 2.3 0 0 1-.624-.552 1.9 1.9 0 0 1-.324-.864h1.032a.97.97 0 0 0 .3.456q.204.168.432.264.24.096.444.132.216.036.48.036.192 0 .444-.024t.48-.108q.228-.096.384-.276t.156-.504q0-.36-.24-.54-.228-.18-.636-.264-.288-.06-.6-.108l-.612-.12q-.3-.072-.588-.156a2.6 2.6 0 0 1-.54-.252 1.55 1.55 0 0 1-.54-.552q-.204-.348-.204-.852.024-.528.24-.864a1.8 1.8 0 0 1 .552-.564q.36-.216.768-.3t.864-.084q.972 0 1.548.42.348.24.54.576t.24.708h-.948q-.084-.348-.456-.564t-.948-.228m9.406-.84V84.5q0 1.38-.72 2.1-.72.732-2.052.732a5 5 0 0 1-1.452-.216 3 3 0 0 1-1.176-.696l.444-.804q.468.372.996.588.54.216 1.128.216.492 0 .84-.156.348-.144.564-.42.228-.264.324-.636.108-.372.108-.804v-.756q-.156.24-.396.432-.228.18-.504.3a2.5 2.5 0 0 1-.576.156q-.3.06-.612.06-.72-.012-1.2-.228a1.94 1.94 0 0 1-.756-.6 2.5 2.5 0 0 1-.396-.912 5.5 5.5 0 0 1-.12-1.188v-3.492h1.02v3.204q0 .432.048.852.06.42.228.744t.492.528q.324.192.864.192t.912-.228q.384-.228.588-.576.228-.36.3-.792.084-.432.084-.888v-3.036zm6.434 0h1.944v.9h-1.944v3.288q0 .276.024.516.036.228.12.408a.8.8 0 0 0 .264.276q.18.096.48.108.276 0 .48-.096.216-.096.36-.228l.444.744q-.312.264-.648.372a2.4 2.4 0 0 1-.744.108q-.516 0-.864-.144a1.6 1.6 0 0 1-.588-.444 1.6 1.6 0 0 1-.276-.648 4.4 4.4 0 0 1-.072-.84v-3.42h-1.032v-.9h1.032V76.28h1.02zm5.946-.072q.756 0 1.308.24t.924.672q.384.432.564 1.032.192.588.192 1.296t-.192 1.308q-.18.588-.564 1.02-.372.42-.936.66t-1.32.24-1.32-.24q-.552-.24-.936-.66a2.9 2.9 0 0 1-.564-1.02q-.18-.6-.18-1.308t.18-1.296q.192-.6.564-1.032a2.6 2.6 0 0 1 .96-.672q.576-.24 1.32-.24m-.024 5.568q.516 0 .888-.18a1.66 1.66 0 0 0 .624-.492q.252-.324.36-.744.12-.42.12-.912 0-.48-.12-.9a1.9 1.9 0 0 0-.36-.744 1.6 1.6 0 0 0-.624-.504 2 2 0 0 0-.888-.18q-.516 0-.888.18a1.74 1.74 0 0 0-.624.504q-.24.312-.36.744-.108.42-.108.9 0 .492.108.912.12.42.36.744.252.312.624.492t.888.18m10.791-6.804q-.336 0-.684.06a1.9 1.9 0 0 0-.612.216 1.24 1.24 0 0 0-.456.408q-.168.252-.168.648 0 .48.252.78a1.7 1.7 0 0 0 .612.444q.288.12.612.204t.66.156q.348.072.672.144.336.072.648.18.732.252 1.164.72.444.468.444 1.236 0 .72-.252 1.188-.24.468-.66.768-.408.3-.96.444a4.8 4.8 0 0 1-1.152.132q-.612 0-1.176-.12a3.3 3.3 0 0 1-1.008-.396 2.7 2.7 0 0 1-.78-.72 2.8 2.8 0 0 1-.456-1.08h1.092q.12.408.372.672t.576.42.696.216q.384.06.756.06.36 0 .696-.072.348-.084.612-.252t.42-.432.156-.636q0-.564-.3-.84t-.804-.42a6 6 0 0 0-.708-.18q-.372-.072-.744-.156t-.732-.192q-.36-.12-.66-.276a2.03 2.03 0 0 1-.804-.696q-.324-.48-.324-1.2 0-.672.264-1.128t.684-.732.936-.396q.528-.12 1.116-.12.48.012.864.084.396.06.744.228.54.24.9.72t.396 1.236h-1.02a1.35 1.35 0 0 0-.228-.624 1.4 1.4 0 0 0-.42-.408 1.7 1.7 0 0 0-.576-.216 3 3 0 0 0-.66-.072m5.44 4.848q.036.42.168.78.144.348.384.612t.588.42q.36.144.828.144.228 0 .468-.036a2 2 0 0 0 .468-.144q.216-.108.384-.276t.252-.408h1.044a2 2 0 0 1-.372.792 2.1 2.1 0 0 1-.612.552 2.7 2.7 0 0 1-.78.324q-.432.096-.876.096-.756 0-1.32-.24a2.6 2.6 0 0 1-.924-.66 2.8 2.8 0 0 1-.552-1.02q-.18-.6-.18-1.308t.192-1.296q.204-.6.576-1.032t.912-.672 1.284-.24q.756 0 1.308.3t.888.792q.336.48.468 1.044.144.564.12 1.044 0 .108-.012.216 0 .108-.012.216zm3.684-.888q-.024-.804-.504-1.308t-1.284-.504q-.444 0-.78.144a1.6 1.6 0 0 0-.564.396 1.9 1.9 0 0 0-.36.588 2.5 2.5 0 0 0-.168.684zm2.403 3.672v-8.484h1.02V84.5zm2.625 0v-8.484h1.02V84.5z"/><path fill="#484848" d="M21.119 118.5v-10.182h1.536v8.86h4.613v1.322zm7.783 0v-7.636h1.486v7.636zm.75-8.815a.95.95 0 0 1-.666-.258.84.84 0 0 1-.273-.627.83.83 0 0 1 .273-.626.93.93 0 0 1 .666-.263q.389 0 .662.263a.82.82 0 0 1 .278.626.84.84 0 0 1-.278.627.93.93 0 0 1-.662.258m7.892 11.679v-4.052h-.09q-.135.243-.388.557a2.2 2.2 0 0 1-.686.546q-.437.234-1.133.234a2.96 2.96 0 0 1-1.65-.472q-.723-.478-1.135-1.357-.407-.885-.407-2.123t.413-2.118q.418-.88 1.143-1.347a2.97 2.97 0 0 1 1.646-.468q.711 0 1.143.239.438.234.676.547.244.313.378.552h.124v-1.238h1.452v10.5zm-1.97-3.983q.642 0 1.085-.338.447-.342.676-.949.233-.607.233-1.412 0-.796-.228-1.392-.23-.597-.672-.93t-1.093-.333q-.671 0-1.119.348a2.13 2.13 0 0 0-.676.95q-.224.601-.224 1.357 0 .765.229 1.377.228.612.676.969.453.354 1.114.353m10.292-2.048v-4.469h1.491v7.636h-1.461v-1.322h-.08a2.4 2.4 0 0 1-.845 1.019q-.576.402-1.437.402-.735 0-1.302-.323a2.27 2.27 0 0 1-.885-.969q-.318-.642-.318-1.586v-4.857h1.486v4.678q0 .78.433 1.243.432.462 1.123.462.418 0 .83-.209.419-.208.691-.631.279-.423.274-1.074m3.489 3.167v-7.636h1.486v7.636zm.75-8.815a.95.95 0 0 1-.666-.258.84.84 0 0 1-.273-.627.83.83 0 0 1 .273-.626.93.93 0 0 1 .666-.263q.389 0 .662.263a.82.82 0 0 1 .278.626.84.84 0 0 1-.278.627.93.93 0 0 1-.662.258m5.595 8.964a2.96 2.96 0 0 1-1.65-.472q-.722-.478-1.134-1.357-.408-.885-.408-2.123t.413-2.118q.418-.88 1.143-1.347a2.97 2.97 0 0 1 1.646-.468q.711 0 1.143.239.438.234.676.547.245.313.378.552h.09v-3.784h1.486V118.5h-1.452v-1.188h-.124a4 4 0 0 1-.388.557 2.2 2.2 0 0 1-.686.546q-.437.234-1.133.234m.328-1.268q.641 0 1.084-.338.447-.342.676-.949.234-.607.234-1.412 0-.796-.23-1.392-.228-.597-.67-.93t-1.094-.333q-.671 0-1.119.348a2.13 2.13 0 0 0-.676.95q-.224.601-.224 1.357 0 .765.23 1.377.228.612.675.969.453.354 1.114.353m5.577 1.119v-7.636h1.486v7.636zm.75-8.815a.95.95 0 0 1-.666-.258.84.84 0 0 1-.273-.627.83.83 0 0 1 .273-.626.93.93 0 0 1 .666-.263q.389 0 .662.263a.82.82 0 0 1 .278.626.84.84 0 0 1-.278.627.93.93 0 0 1-.662.258m6.3 1.179v1.193h-4.17v-1.193zm-3.052-1.83h1.487v7.224q0 .432.129.651.129.214.333.293.21.075.452.075.18 0 .314-.025.135-.025.209-.04l.268 1.228a2.927 2.927 0 0 1-.965.159 2.6 2.6 0 0 1-1.093-.208 1.9 1.9 0 0 1-.82-.677q-.314-.456-.314-1.148zm5.637 12.33q-.333 0-.607-.055a2 2 0 0 1-.407-.109l.358-1.218q.407.109.725.094.319-.014.562-.239.249-.223.438-.73l.184-.508-2.794-7.735h1.59l1.934 5.926h.08l1.934-5.926h1.596l-3.147 8.655a3.5 3.5 0 0 1-.557 1.009 2.15 2.15 0 0 1-.806.627 2.6 2.6 0 0 1-1.083.209"/><path fill="#16AE6E" d="M273.766 116.511v-1.243l4.399-6.95h.98v1.83h-.622l-3.147 4.981v.08h6.031v1.302zm4.827 1.989v-2.366l.01-.567v-7.249h1.457V118.5zm8.444-10.659-3.281 12.19h-1.327l3.281-12.19zm5.106.477V118.5h-1.541v-8.641h-.06l-2.436 1.591v-1.471l2.541-1.661zm6.299 10.351q-1.178-.004-2.013-.621-.836-.617-1.278-1.795-.443-1.179-.443-2.839 0-1.656.443-2.829.447-1.173 1.283-1.79.84-.616 2.008-.616t2.004.621q.834.617 1.277 1.79.448 1.168.448 2.824 0 1.665-.443 2.844-.443 1.173-1.277 1.795-.836.616-2.009.616m0-1.327q1.034 0 1.616-1.01.587-1.008.587-2.918 0-1.267-.269-2.143-.263-.879-.761-1.332a1.66 1.66 0 0 0-1.173-.457q-1.03 0-1.616 1.014t-.591 2.918q0 1.273.263 2.153.269.875.761 1.327.492.448 1.183.448"/><rect width="283" height="16" x="20" y="135.5" fill="#DBF3F7" rx="8"/><rect width="113" height="16" x="20" y="135.5" fill="#FF867B" rx="8"/><path fill="#585858" d="M21.044 162.016h1.044v7.536h4.656v.948h-5.7zm9.552 2.088q.756 0 1.308.24t.924.672q.384.432.564 1.032.192.588.192 1.296t-.192 1.308q-.18.588-.564 1.02-.372.42-.936.66t-1.32.24-1.32-.24q-.552-.24-.936-.66a2.9 2.9 0 0 1-.564-1.02q-.18-.6-.18-1.308t.18-1.296q.192-.6.564-1.032a2.6 2.6 0 0 1 .96-.672q.576-.24 1.32-.24m-.024 5.568q.516 0 .888-.18a1.66 1.66 0 0 0 .624-.492q.252-.324.36-.744.12-.42.12-.912 0-.48-.12-.9a1.9 1.9 0 0 0-.36-.744 1.6 1.6 0 0 0-.624-.504 2 2 0 0 0-.888-.18q-.516 0-.888.18a1.74 1.74 0 0 0-.624.504q-.24.312-.36.744-.108.42-.108.9 0 .492.108.912.12.42.36.744.252.312.624.492t.888.18m3.717-5.496h1.151l1.513 5.34 1.56-5.34h1.38l1.572 5.34 1.487-5.34h1.165l-1.968 6.324h-1.392l-1.56-5.124-1.56 5.124h-1.38zm14.007 8.604v-8.604h.972l.048.948a2.04 2.04 0 0 1 .876-.744q.564-.264 1.212-.276.732 0 1.236.252.516.24.852.684.348.432.516 1.032.168.588.168 1.272 0 .696-.168 1.284a2.9 2.9 0 0 1-.516 1.02 2.5 2.5 0 0 1-.876.684q-.528.24-1.26.24-.72 0-1.224-.228a2.1 2.1 0 0 1-.816-.636v3.072zm2.976-3.108q.516 0 .864-.18.36-.192.576-.504.228-.324.324-.744.108-.42.12-.9 0-.48-.108-.9a2 2 0 0 0-.324-.744 1.6 1.6 0 0 0-.6-.492q-.36-.192-.876-.192a1.7 1.7 0 0 0-1.056.336q-.444.324-.672.828a2.1 2.1 0 0 0-.18.576 3.7 3.7 0 0 0-.048.6q0 .36.048.672.048.3.18.576.228.456.66.768.444.3 1.092.3m4.266.828v-6.324h.984l.048.984q.348-.552.888-.804t1.224-.252h.324v.96h-.372q-.564 0-.96.192-.396.18-.648.504-.24.312-.36.744a3.8 3.8 0 0 0-.108.912v3.084zm7.144-6.396q.756 0 1.308.24t.924.672q.384.432.564 1.032.192.588.192 1.296t-.192 1.308q-.18.588-.564 1.02-.372.42-.936.66t-1.32.24-1.32-.24q-.552-.24-.936-.66a2.9 2.9 0 0 1-.564-1.02q-.18-.6-.18-1.308t.18-1.296q.192-.6.564-1.032a2.6 2.6 0 0 1 .96-.672q.576-.24 1.32-.24m-.024 5.568q.516 0 .888-.18a1.66 1.66 0 0 0 .624-.492q.252-.324.36-.744.12-.42.12-.912 0-.48-.12-.9a1.9 1.9 0 0 0-.36-.744 1.6 1.6 0 0 0-.624-.504 2 2 0 0 0-.888-.18q-.516 0-.888.18a1.74 1.74 0 0 0-.624.504q-.24.312-.36.744-.108.42-.108.9 0 .492.108.912.12.42.36.744.252.312.624.492t.888.18m4.871.828v-5.424h-1.032v-.9h1.032v-.672q0-1.056.456-1.548t1.536-.492h.72v.9h-.612q-.648 0-.864.324t-.216.936v.552h1.692v.9H68.55v5.424zm4.37-8.64q.29 0 .493.192.204.18.204.48t-.204.492a.7.7 0 0 1-.492.192.67.67 0 0 1-.492-.192.67.67 0 0 1-.192-.492q0-.3.192-.48a.67.67 0 0 1 .492-.192m-.503 8.64v-6.324h1.02v6.324zm4.313-6.324h1.944v.9h-1.944v3.288q0 .276.024.516.036.228.12.408a.8.8 0 0 0 .264.276q.18.096.48.108.276 0 .48-.096.216-.096.36-.228l.444.744q-.312.264-.648.372a2.4 2.4 0 0 1-.744.108q-.516 0-.864-.144a1.6 1.6 0 0 1-.588-.444 1.6 1.6 0 0 1-.276-.648 4.4 4.4 0 0 1-.072-.84v-3.42h-1.032v-.9h1.032v-1.896h1.02zm7.325 5.52a1.8 1.8 0 0 1-.468.444q-.264.168-.552.264a2.8 2.8 0 0 1-.564.132 4 4 0 0 1-.552.036 3.2 3.2 0 0 1-.84-.108 2.2 2.2 0 0 1-.72-.348 1.8 1.8 0 0 1-.504-.6 1.8 1.8 0 0 1-.18-.816q0-.54.192-.9a1.7 1.7 0 0 1 .54-.6q.336-.228.768-.312a4.4 4.4 0 0 1 .936-.096h1.86q0-.804-.348-1.272-.348-.48-1.176-.504-.504 0-.888.168a.94.94 0 0 0-.528.552h-1.092q.084-.432.336-.732.252-.312.6-.504.348-.204.756-.3t.816-.096q.708 0 1.188.24.492.228.792.612.3.372.42.912t.12 1.212v3.42h-.852zm-1.2-2.052q-.288 0-.672.012-.372 0-.72.072t-.564.3q-.204.228-.204.6 0 .276.108.468t.288.324q.192.132.432.192t.492.06q.9 0 1.416-.432.528-.444.54-1.284v-.312zm3.693 2.856v-8.484h1.02v3.096q.312-.48.888-.744a2.7 2.7 0 0 1 1.2-.264q.72 0 1.236.252.528.252.864.684.348.432.504 1.032.168.588.168 1.272t-.168 1.272q-.156.576-.504 1.008a2.45 2.45 0 0 1-.888.684q-.528.252-1.26.264h-.132q-.648 0-1.128-.228a2.3 2.3 0 0 1-.78-.612l-.048.768zm2.976-.828q.516 0 .864-.18.36-.192.576-.504.228-.324.324-.744.108-.42.12-.9 0-.48-.108-.9a2 2 0 0 0-.324-.744 1.6 1.6 0 0 0-.6-.492q-.36-.192-.876-.192-.288 0-.564.096a1.7 1.7 0 0 0-.492.264 2 2 0 0 0-.384.36 2.4 2.4 0 0 0-.456 1.02q-.06.312-.06.6 0 .312.036.648.048.324.192.6.216.456.66.768.444.3 1.092.3m4.854-7.812q.288 0 .492.192.204.18.204.48t-.204.492a.7.7 0 0 1-.492.192.67.67 0 0 1-.492-.192.67.67 0 0 1-.192-.492q0-.3.192-.48a.67.67 0 0 1 .492-.192m-.504 8.64v-6.324h1.02v6.324zm2.717 0v-8.484h1.02v8.484zm3.213-8.64q.288 0 .492.192.204.18.204.48t-.204.492a.7.7 0 0 1-.492.192.67.67 0 0 1-.492-.192.67.67 0 0 1-.192-.492q0-.3.192-.48a.67.67 0 0 1 .492-.192m-.504 8.64v-6.324h1.02v6.324zm4.312-6.324h1.944v.9h-1.944v3.288q0 .276.024.516.036.228.12.408a.8.8 0 0 0 .264.276q.18.096.48.108.276 0 .48-.096.216-.096.36-.228l.444.744q-.312.264-.648.372a2.4 2.4 0 0 1-.744.108q-.516 0-.864-.144a1.6 1.6 0 0 1-.588-.444 1.6 1.6 0 0 1-.276-.648 4.4 4.4 0 0 1-.072-.84v-3.42h-1.032v-.9h1.032v-1.896h1.02zm8.718 0v6.324q0 1.38-.72 2.1-.72.732-2.052.732a5 5 0 0 1-1.452-.216 3 3 0 0 1-1.176-.696l.444-.804q.468.372.996.588.54.216 1.128.216.492 0 .84-.156.348-.144.564-.42.228-.264.324-.636.108-.372.108-.804v-.756q-.156.24-.396.432-.228.18-.504.3a2.5 2.5 0 0 1-.576.156q-.3.06-.612.06-.72-.012-1.2-.228a1.94 1.94 0 0 1-.756-.6 2.5 2.5 0 0 1-.396-.912 5.5 5.5 0 0 1-.12-1.188v-3.492h1.02v3.204q0 .432.048.852.06.42.228.744t.492.528q.324.192.864.192t.912-.228q.384-.228.588-.576.228-.36.3-.792.084-.432.084-.888v-3.036zM215.933 165.856v-3.84h1.044v8.484h-1.044v-3.684h-4.548v3.684h-1.044v-8.484h1.044v3.84zm3.475-3.996q.288 0 .492.192.204.18.204.48t-.204.492a.7.7 0 0 1-.492.192.67.67 0 0 1-.492-.192.67.67 0 0 1-.192-.492q0-.3.192-.48a.67.67 0 0 1 .492-.192m-.504 8.64v-6.324h1.02v6.324zm8.356-.048q0 1.344-.72 2.112t-2.172.768q-.48 0-.924-.108a2.5 2.5 0 0 1-.792-.348 2.2 2.2 0 0 1-.6-.588 2.2 2.2 0 0 1-.336-.84h1.056q.072.276.24.456.18.192.408.3.228.12.492.168t.516.048q.48 0 .828-.156.348-.144.564-.408t.312-.636q.108-.36.108-.792v-.876a1.8 1.8 0 0 1-.888.792 3.2 3.2 0 0 1-1.2.228q-.72-.012-1.248-.252a2.36 2.36 0 0 1-.864-.684 3 3 0 0 1-.504-1.008 5 5 0 0 1-.156-1.272q0-.684.168-1.272.168-.6.516-1.032.348-.444.876-.696t1.26-.252q.552 0 1.116.204t.924.66l.048-.792h.972zm-2.976-5.436q-.516 0-.876.192-.36.18-.588.492a2.3 2.3 0 0 0-.324.744q-.096.42-.096.9 0 .528.096.936.096.396.324.708t.588.504q.36.18.888.18.612 0 1.008-.288a2.25 2.25 0 0 0 .876-1.368q.072-.36.072-.708 0-.432-.084-.792a1.9 1.9 0 0 0-.276-.672 2.05 2.05 0 0 0-.636-.588q-.396-.24-.972-.24m4.579 5.484v-8.484h1.02v3.132q.156-.24.396-.444t.504-.336.576-.192q.324-.072.624-.072.684 0 1.14.228.468.216.744.612.288.384.396.924.12.528.12 1.152v3.48h-1.02v-3.168q0-.432-.048-.84a2.1 2.1 0 0 0-.216-.744 1.4 1.4 0 0 0-.48-.528q-.312-.216-.852-.216-.444 0-.828.228a1.8 1.8 0 0 0-.6.552 2.1 2.1 0 0 0-.372.828 5 5 0 0 0-.084.936v2.952zm10.324 2.28v-8.604h.972l.048.948a2.04 2.04 0 0 1 .876-.744q.564-.264 1.212-.276.732 0 1.236.252.516.24.852.684.348.432.516 1.032.168.588.168 1.272 0 .696-.168 1.284a2.9 2.9 0 0 1-.516 1.02 2.5 2.5 0 0 1-.876.684q-.528.24-1.26.24-.72 0-1.224-.228a2.1 2.1 0 0 1-.816-.636v3.072zm2.976-3.108q.516 0 .864-.18.36-.192.576-.504.228-.324.324-.744.108-.42.12-.9 0-.48-.108-.9a2 2 0 0 0-.324-.744 1.6 1.6 0 0 0-.6-.492q-.36-.192-.876-.192a1.7 1.7 0 0 0-1.056.336q-.444.324-.672.828a2.1 2.1 0 0 0-.18.576 3.7 3.7 0 0 0-.048.6q0 .36.048.672.048.3.18.576.228.456.66.768.444.3 1.092.3m4.266.828v-6.324h.984l.048.984q.348-.552.888-.804t1.224-.252h.324v.96h-.372q-.564 0-.96.192-.396.18-.648.504-.24.312-.36.744a3.8 3.8 0 0 0-.108.912v3.084zm7.143-6.396q.756 0 1.308.24t.924.672q.384.432.564 1.032.192.588.192 1.296t-.192 1.308q-.18.588-.564 1.02-.372.42-.936.66t-1.32.24-1.32-.24q-.552-.24-.936-.66a2.9 2.9 0 0 1-.564-1.02q-.18-.6-.18-1.308t.18-1.296q.192-.6.564-1.032a2.6 2.6 0 0 1 .96-.672q.576-.24 1.32-.24m-.024 5.568q.516 0 .888-.18a1.66 1.66 0 0 0 .624-.492q.252-.324.36-.744.12-.42.12-.912 0-.48-.12-.9a1.9 1.9 0 0 0-.36-.744 1.6 1.6 0 0 0-.624-.504 2 2 0 0 0-.888-.18q-.516 0-.888.18a1.74 1.74 0 0 0-.624.504q-.24.312-.36.744-.108.42-.108.9 0 .492.108.912.12.42.36.744.252.312.624.492t.888.18m4.872.828v-5.424h-1.032v-.9h1.032v-.672q0-1.056.456-1.548t1.536-.492h.72v.9h-.612q-.648 0-.864.324t-.216.936v.552h1.692v.9h-1.692v5.424zm4.37-8.64q.288 0 .492.192.204.18.204.48t-.204.492a.7.7 0 0 1-.492.192.67.67 0 0 1-.492-.192.67.67 0 0 1-.192-.492q0-.3.192-.48a.67.67 0 0 1 .492-.192m-.504 8.64v-6.324h1.02v6.324zm4.313-6.324h1.944v.9h-1.944v3.288q0 .276.024.516.036.228.12.408a.8.8 0 0 0 .264.276q.18.096.48.108.276 0 .48-.096.216-.096.36-.228l.444.744q-.312.264-.648.372a2.4 2.4 0 0 1-.744.108q-.516 0-.864-.144a1.6 1.6 0 0 1-.588-.444 1.6 1.6 0 0 1-.276-.648 4.4 4.4 0 0 1-.072-.84v-3.42h-1.032v-.9h1.032v-1.896h1.02zm7.326 5.52a1.8 1.8 0 0 1-.468.444q-.264.168-.552.264a2.8 2.8 0 0 1-.564.132 4 4 0 0 1-.552.036 3.2 3.2 0 0 1-.84-.108 2.2 2.2 0 0 1-.72-.348 1.8 1.8 0 0 1-.504-.6 1.8 1.8 0 0 1-.18-.816q0-.54.192-.9a1.7 1.7 0 0 1 .54-.6q.336-.228.768-.312a4.4 4.4 0 0 1 .936-.096h1.86q0-.804-.348-1.272-.348-.48-1.176-.504-.504 0-.888.168a.94.94 0 0 0-.528.552h-1.092q.084-.432.336-.732.252-.312.6-.504.348-.204.756-.3t.816-.096q.708 0 1.188.24.492.228.792.612.3.372.42.912t.12 1.212v3.42h-.852zm-1.2-2.052q-.288 0-.672.012-.372 0-.72.072t-.564.3q-.204.228-.204.6 0 .276.108.468t.288.324q.192.132.432.192t.492.06q.9 0 1.416-.432.528-.444.54-1.284v-.312zm3.692 2.856v-8.484h1.02v3.096q.312-.48.888-.744a2.7 2.7 0 0 1 1.2-.264q.72 0 1.236.252.528.252.864.684.348.432.504 1.032.168.588.168 1.272t-.168 1.272q-.156.576-.504 1.008a2.45 2.45 0 0 1-.888.684q-.528.252-1.26.264h-.132q-.648 0-1.128-.228a2.3 2.3 0 0 1-.78-.612l-.048.768zm2.976-.828q.516 0 .864-.18.36-.192.576-.504.228-.324.324-.744.108-.42.12-.9 0-.48-.108-.9a2 2 0 0 0-.324-.744 1.6 1.6 0 0 0-.6-.492q-.36-.192-.876-.192-.288 0-.564.096a1.7 1.7 0 0 0-.492.264 2 2 0 0 0-.384.36 2.4 2.4 0 0 0-.456 1.02q-.06.312-.06.6 0 .312.036.648.048.324.192.6.216.456.66.768.444.3 1.092.3m4.854-7.812q.288 0 .492.192.204.18.204.48t-.204.492a.7.7 0 0 1-.492.192.67.67 0 0 1-.492-.192.67.67 0 0 1-.192-.492q0-.3.192-.48a.67.67 0 0 1 .492-.192m-.504 8.64v-6.324h1.02v6.324zm2.717 0v-8.484h1.02v8.484zm3.213-8.64q.288 0 .492.192.204.18.204.48t-.204.492a.7.7 0 0 1-.492.192.67.67 0 0 1-.492-.192.67.67 0 0 1-.192-.492q0-.3.192-.48a.67.67 0 0 1 .492-.192m-.504 8.64v-6.324h1.02v6.324zm4.313-6.324h1.944v.9h-1.944v3.288q0 .276.024.516.036.228.12.408a.8.8 0 0 0 .264.276q.18.096.48.108.276 0 .48-.096.216-.096.36-.228l.444.744q-.312.264-.648.372a2.4 2.4 0 0 1-.744.108q-.516 0-.864-.144a1.6 1.6 0 0 1-.588-.444 1.6 1.6 0 0 1-.276-.648 4.4 4.4 0 0 1-.072-.84v-3.42h-1.032v-.9h1.032v-1.896h1.02zm8.718 0v6.324q0 1.38-.72 2.1-.72.732-2.052.732a5 5 0 0 1-1.452-.216 3 3 0 0 1-1.176-.696l.444-.804q.468.372.996.588.54.216 1.128.216.492 0 .84-.156.348-.144.564-.42.228-.264.324-.636.108-.372.108-.804v-.756q-.156.24-.396.432-.228.18-.504.3a2.5 2.5 0 0 1-.576.156q-.3.06-.612.06-.72-.012-1.2-.228a1.94 1.94 0 0 1-.756-.6 2.5 2.5 0 0 1-.396-.912 5.5 5.5 0 0 1-.12-1.188v-3.492h1.02v3.204q0 .432.048.852.06.42.228.744t.492.528q.324.192.864.192t.912-.228q.384-.228.588-.576.228-.36.3-.792.084-.432.084-.888v-3.036z"/><path fill="#484848" d="M21.119 204.5v-10.182h3.629q1.183 0 1.964.408.784.408 1.173 1.128.387.717.388 1.656 0 .935-.393 1.646-.388.705-1.173 1.098-.78.393-1.964.393h-2.75v-1.322h2.61q.747 0 1.214-.214.473-.214.69-.622.22-.407.22-.979 0-.577-.224-.999a1.44 1.44 0 0 0-.691-.647q-.468-.228-1.228-.228h-1.93v8.864zm5.026-4.594 2.515 4.594h-1.75l-2.465-4.594zm7.073 4.748q-1.128 0-1.944-.482a3.28 3.28 0 0 1-1.253-1.367q-.437-.885-.437-2.073 0-1.174.438-2.069a3.4 3.4 0 0 1 1.232-1.397q.795-.502 1.86-.502.645 0 1.253.214a3 3 0 0 1 1.088.671q.483.458.761 1.188.279.727.279 1.765v.527h-6.07v-1.113h4.613q0-.587-.239-1.039a1.8 1.8 0 0 0-.671-.721 1.87 1.87 0 0 0-1.004-.264q-.626 0-1.094.308a2.1 2.1 0 0 0-.716.796 2.3 2.3 0 0 0-.248 1.059v.87q0 .765.268 1.302.274.537.76.821.487.278 1.14.278.421 0 .77-.119.348-.125.601-.368.255-.243.388-.602l1.407.254a2.55 2.55 0 0 1-.606 1.089 2.95 2.95 0 0 1-1.09.721q-.65.253-1.486.253m6.412-4.688v4.534h-1.486v-7.636h1.427v1.243h.094q.263-.607.825-.975.567-.368 1.427-.368.78 0 1.367.328.588.324.91.965.324.64.323 1.586v4.857h-1.486v-4.678q0-.83-.433-1.298-.432-.472-1.188-.472-.516 0-.92.224a1.6 1.6 0 0 0-.631.656q-.228.428-.229 1.034m10.446-3.102v1.193h-4.172v-1.193zm-3.053-1.83h1.487v7.224q0 .432.129.651.129.214.333.293.21.075.452.075a1.7 1.7 0 0 0 .314-.025q.135-.024.208-.04l.269 1.228a2.926 2.926 0 0 1-.964.159 2.6 2.6 0 0 1-1.094-.208 1.9 1.9 0 0 1-.82-.677q-.315-.456-.314-1.148zm6.92 9.635q-.727 0-1.313-.268a2.2 2.2 0 0 1-.93-.791q-.338-.517-.338-1.268 0-.646.249-1.064.249-.417.67-.661.423-.243.945-.368a9 9 0 0 1 1.064-.189l1.114-.129q.428-.054.621-.174.195-.119.194-.388v-.034q0-.652-.368-1.01-.363-.358-1.083-.358-.75 0-1.184.333-.428.329-.591.731l-1.397-.318q.248-.696.726-1.124a2.94 2.94 0 0 1 1.108-.626 4.3 4.3 0 0 1 1.318-.199q.457 0 .97.11.516.103.964.387.452.283.74.811.29.522.289 1.357v5.071h-1.452v-1.044h-.06q-.144.288-.432.567t-.74.462q-.454.184-1.085.184m.322-1.193q.617 0 1.054-.244.443-.243.672-.636.233-.398.233-.85v-.985q-.079.08-.308.15a5 5 0 0 1-.512.114l-.562.084-.457.06a3.7 3.7 0 0 0-.79.184 1.35 1.35 0 0 0-.567.373q-.21.239-.21.636 0 .552.408.835.407.279 1.04.279m5.545 1.024v-10.182h1.486v3.784h.09q.129-.24.373-.552a2.1 2.1 0 0 1 .676-.547q.433-.239 1.143-.239.925 0 1.651.468.725.467 1.139 1.347.417.879.417 2.118t-.412 2.123q-.413.88-1.134 1.357-.721.472-1.646.472-.696 0-1.138-.234a2.2 2.2 0 0 1-.686-.546 4 4 0 0 1-.383-.557h-.124v1.188zm1.457-3.818q0 .805.233 1.412.234.606.676.949.443.339 1.084.338.667 0 1.114-.353.448-.357.676-.969.234-.612.234-1.377 0-.756-.229-1.357a2.1 2.1 0 0 0-.676-.95q-.447-.348-1.119-.348-.645 0-1.093.333-.443.333-.672.93-.228.596-.228 1.392m7.187 3.818v-7.636h1.487v7.636zm.751-8.815a.95.95 0 0 1-.666-.258.84.84 0 0 1-.274-.627.83.83 0 0 1 .274-.626.93.93 0 0 1 .666-.263q.388 0 .661.263a.82.82 0 0 1 .279.626.84.84 0 0 1-.279.627.93.93 0 0 1-.66.258m4.222-1.367V204.5h-1.486v-10.182zm2 10.182v-7.636h1.486v7.636zm.75-8.815a.95.95 0 0 1-.666-.258.84.84 0 0 1-.273-.627.83.83 0 0 1 .273-.626.93.93 0 0 1 .667-.263q.387 0 .661.263a.82.82 0 0 1 .278.626.84.84 0 0 1-.278.627.93.93 0 0 1-.661.258m6.301 1.179v1.193h-4.171v-1.193zm-3.053-1.83h1.487v7.224q0 .432.13.651.128.214.332.293.21.075.453.075a1.7 1.7 0 0 0 .313-.025q.135-.024.209-.04l.268 1.228a2.927 2.927 0 0 1-.965.159 2.6 2.6 0 0 1-1.093-.208 1.9 1.9 0 0 1-.82-.677q-.314-.456-.314-1.148zm5.637 12.33q-.333 0-.607-.055a2 2 0 0 1-.407-.109l.358-1.218q.407.109.726.094.318-.014.561-.239.249-.223.438-.73l.184-.508-2.794-7.735h1.59l1.935 5.926h.08l1.933-5.926h1.596l-3.147 8.655a3.5 3.5 0 0 1-.557 1.009 2.16 2.16 0 0 1-.805.627 2.6 2.6 0 0 1-1.084.209"/><path fill="#16AE6E" d="M277.34 204.639q-.935 0-1.68-.358a3.05 3.05 0 0 1-1.183-.994 2.63 2.63 0 0 1-.473-1.442h1.492q.054.656.581 1.079.528.423 1.263.423.587 0 1.039-.269.458-.273.716-.751a2.2 2.2 0 0 0 .264-1.088q0-.622-.269-1.109a2 2 0 0 0-.741-.766 2.1 2.1 0 0 0-1.073-.283q-.464 0-.93.159a2.15 2.15 0 0 0-.756.418l-1.407-.209.572-5.131h5.598v1.318h-4.32l-.323 2.848h.059q.299-.288.791-.482a2.9 2.9 0 0 1 1.064-.194 3.12 3.12 0 0 1 2.804 1.651q.422.76.417 1.75.005.989-.447 1.765a3.25 3.25 0 0 1-1.243 1.223q-.79.442-1.815.442m9.219-10.798-3.281 12.19h-1.328l3.281-12.19zm5.106.477V204.5h-1.542v-8.641h-.059l-2.436 1.591v-1.471l2.54-1.661zm6.299 10.351q-1.179-.005-2.014-.621-.836-.617-1.278-1.795-.442-1.179-.442-2.839 0-1.656.442-2.829.448-1.173 1.283-1.79.84-.616 2.009-.616 1.167 0 2.003.621.836.617 1.278 1.79.447 1.168.447 2.824 0 1.665-.442 2.844-.442 1.173-1.278 1.795-.835.616-2.008.616m0-1.327q1.034 0 1.615-1.01.587-1.008.587-2.918 0-1.267-.268-2.143-.264-.879-.761-1.332a1.66 1.66 0 0 0-1.173-.457q-1.03 0-1.616 1.014t-.592 2.918q0 1.273.264 2.153.268.875.76 1.327a1.7 1.7 0 0 0 1.184.448"/><rect width="283" height="16" x="20" y="221.5" fill="#E5F8DD" rx="8"/><path fill="url(#c)" d="M20 229.5a8 8 0 0 1 8-8h130a8 8 0 0 1 0 16H28a8 8 0 0 1-8-8"/></g><path fill="url(#d)" d="M0 171.211h323V225.5c0 8.284-6.716 15-15 15H15c-8.284 0-15-6.716-15-15z"/><defs><linearGradient id="b" x1="20" x2="251" y1="57.5" y2="57.5" gradientUnits="userSpaceOnUse"><stop stop-color="#2BD4FE"/><stop offset=".063" stop-color="#2AC9FE"/><stop offset="1" stop-color="#1C2BFF"/></linearGradient><linearGradient id="c" x1="20" x2="166" y1="229.5" y2="229.5" gradientUnits="userSpaceOnUse"><stop stop-color="#97F59E"/><stop offset="1" stop-color="#00EEA3"/></linearGradient><linearGradient id="d" x1="161.5" x2="161.5" y1="240.5" y2="171.211" gradientUnits="userSpaceOnUse"><stop stop-color="#fff"/><stop offset="1" stop-color="#fff" stop-opacity="0"/></linearGradient><clipPath id="a"><path fill="#fff" d="M20 20.5h283v219H20z"/></clipPath></defs></svg>