<svg xmlns="http://www.w3.org/2000/svg" width="324" height="242" fill="none"><rect width="323" height="240" y=".5" fill="#fff" rx="16"/><path fill="#5D5D5D" d="m20.226 26.5-.616-1.672h-3.85l-.616 1.672H14.11l2.893-7.777h1.375L21.26 26.5zm-2.541-6.941-1.606 4.4h3.212zm3.428 1.144h1.056l1.826 4.895 1.793-4.895h1.067L24.622 26.5h-1.276zm7.284 3.245q.033.385.154.715.132.32.352.561t.539.385q.33.132.759.132.209 0 .429-.033.231-.044.429-.132.198-.099.352-.253a1 1 0 0 0 .23-.374h.958q-.1.418-.341.726a2 2 0 0 1-.561.506 2.5 2.5 0 0 1-.715.297 3.7 3.7 0 0 1-.803.088q-.694 0-1.21-.22a2.4 2.4 0 0 1-.847-.605 2.6 2.6 0 0 1-.506-.935 4.2 4.2 0 0 1-.165-1.199q0-.65.176-1.188.186-.55.528-.946.34-.396.836-.616t1.177-.22q.693 0 1.199.275.505.274.814.726.307.44.429.957a3.2 3.2 0 0 1 .099 1.155 2 2 0 0 1-.011.198zm3.377-.814q-.023-.737-.462-1.199-.44-.462-1.177-.462-.408 0-.715.132a1.5 1.5 0 0 0-.517.363q-.21.231-.33.539-.121.297-.154.627zm2.202 3.366v-5.797h.902l.044.902q.32-.506.814-.737.495-.231 1.122-.231h.297v.88h-.34q-.518 0-.88.176-.364.165-.595.462-.219.285-.33.682a3.4 3.4 0 0 0-.099.836V26.5zm7.92-.737a1.6 1.6 0 0 1-.428.407q-.242.154-.506.242a2.5 2.5 0 0 1-.517.121 4 4 0 0 1-.506.033q-.407 0-.77-.099a2 2 0 0 1-.66-.319 1.7 1.7 0 0 1-.462-.55 1.65 1.65 0 0 1-.165-.748q0-.495.176-.825.187-.34.495-.55t.704-.286q.407-.088.858-.088h1.705q0-.737-.32-1.166-.318-.44-1.077-.462-.462 0-.814.154a.87.87 0 0 0-.484.506h-1.001q.077-.396.308-.671.23-.286.55-.462.318-.187.693-.275t.748-.088q.648 0 1.089.22.45.21.726.561.274.34.385.836t.11 1.111V26.5h-.781zm-1.1-1.881q-.262 0-.615.011-.342 0-.66.066a.96.96 0 0 0-.517.275q-.187.21-.187.55 0 .254.099.429a.9.9 0 0 0 .264.297q.176.121.396.176t.45.055q.825 0 1.299-.396.483-.407.495-1.177v-.286zm8.555 2.574q0 1.232-.66 1.936t-1.99.704q-.44 0-.848-.099a2.3 2.3 0 0 1-.726-.319 2 2 0 0 1-.55-.539 2 2 0 0 1-.308-.77h.968a.95.95 0 0 0 .22.418q.165.176.374.275.21.11.451.154.243.044.473.044.44 0 .76-.143.318-.132.516-.374.199-.242.286-.583.1-.33.1-.726v-.803q-.287.506-.815.726-.528.21-1.1.209-.66-.01-1.144-.231a2.2 2.2 0 0 1-.792-.627 2.7 2.7 0 0 1-.462-.924 4.5 4.5 0 0 1-.143-1.166q0-.627.154-1.166a2.6 2.6 0 0 1 .473-.946q.319-.407.803-.638t1.155-.231q.507 0 1.023.187.517.187.847.605l.044-.726h.891zm-2.728-4.983q-.473 0-.803.176-.33.165-.539.451-.197.285-.297.682a3.7 3.7 0 0 0-.088.825q0 .484.088.858.089.363.297.649.21.286.54.462.33.165.813.165.561 0 .924-.264.364-.264.583-.66.154-.275.22-.594.066-.33.066-.649 0-.396-.077-.726a1.7 1.7 0 0 0-.253-.616 1.9 1.9 0 0 0-.583-.539q-.363-.22-.89-.22m4.923 2.475q.033.385.154.715.132.32.352.561t.539.385q.33.132.759.132.21 0 .429-.033.231-.044.429-.132.198-.099.352-.253a1 1 0 0 0 .231-.374h.957q-.1.418-.341.726a2 2 0 0 1-.561.506 2.5 2.5 0 0 1-.715.297 3.7 3.7 0 0 1-.803.088q-.693 0-1.21-.22a2.4 2.4 0 0 1-.847-.605 2.6 2.6 0 0 1-.506-.935 4.2 4.2 0 0 1-.165-1.199q0-.65.176-1.188.187-.55.528-.946.34-.396.836-.616t1.177-.22q.693 0 1.199.275.506.274.814.726.307.44.429.957a3.2 3.2 0 0 1 .099 1.155 2 2 0 0 1-.011.198zm3.377-.814q-.023-.737-.462-1.199-.44-.462-1.177-.462-.407 0-.715.132a1.5 1.5 0 0 0-.517.363q-.21.231-.33.539-.12.297-.154.627zM60.09 26.5v-5.797h.902l.044.902q.32-.506.814-.737.495-.231 1.122-.231h.297v.88h-.34q-.518 0-.88.176-.363.165-.594.462-.22.285-.33.682a3.4 3.4 0 0 0-.1.836V26.5zm4.723-2.552q.033.385.154.715.132.32.352.561t.539.385q.33.132.759.132.208 0 .429-.033.231-.044.429-.132.198-.099.352-.253a1 1 0 0 0 .23-.374h.958q-.1.418-.341.726a2 2 0 0 1-.561.506 2.5 2.5 0 0 1-.715.297 3.7 3.7 0 0 1-.803.088q-.694 0-1.21-.22a2.4 2.4 0 0 1-.847-.605 2.6 2.6 0 0 1-.506-.935 4.2 4.2 0 0 1-.165-1.199q0-.65.176-1.188.186-.55.528-.946.34-.396.836-.616t1.177-.22q.693 0 1.199.275.505.274.814.726.308.44.429.957a3.2 3.2 0 0 1 .099 1.155 2 2 0 0 1-.011.198zm3.377-.814q-.023-.737-.462-1.199-.44-.462-1.177-.462-.408 0-.715.132a1.5 1.5 0 0 0-.517.363q-.21.231-.33.539-.121.297-.154.627zm2.202 3.366v-5.797h.902l.044.88q.144-.241.352-.418a2.4 2.4 0 0 1 .473-.297q.253-.121.528-.176a3 3 0 0 1 .55-.055q.627 0 1.056.209.43.198.682.561.254.352.363.847.11.484.11 1.045V26.5h-.935v-2.948q0-.407-.055-.781-.044-.375-.198-.66a1.14 1.14 0 0 0-.418-.473q-.275-.176-.737-.176-.45.01-.803.22-.34.21-.55.495-.253.363-.34.803a4.3 4.3 0 0 0-.089.869V26.5zm7.962-5.797h1.551v.825h-1.55v3.003q0 .595.23.88.231.275.858.275h.43v.814h-.628q-.99 0-1.408-.451-.418-.45-.418-1.419v-3.102h-.946v-.825h.946v-1.727h.935zm3.258.649q.296 0 .473.187a.64.64 0 0 1 .187.473.636.636 0 0 1-.66.66.64.64 0 0 1-.473-.187.66.66 0 0 1-.176-.473q0-.285.176-.473a.64.64 0 0 1 .473-.187m0 3.916q.296 0 .473.187a.64.64 0 0 1 .187.473q0 .285-.198.473a.63.63 0 0 1-.462.187.64.64 0 0 1-.473-.187.66.66 0 0 1-.176-.473q0-.285.176-.473a.64.64 0 0 1 .473-.187"/><path fill="#191919" d="m144.855 22.146.532-5.544h5.964v1.442h-4.606l-.28 2.576q.406-.266.868-.406a3.7 3.7 0 0 1 1.134-.154q.743 0 1.344.224.602.21 1.036.616t.658.994q.238.588.238 1.33 0 .798-.28 1.428a3.1 3.1 0 0 1-.77 1.064q-.49.434-1.148.672-.658.225-1.428.224-.658 0-1.246-.154a3.5 3.5 0 0 1-1.05-.476 2.9 2.9 0 0 1-.784-.826 3.2 3.2 0 0 1-.406-1.218h1.61q.084.294.266.518.196.224.448.378a2.2 2.2 0 0 0 .546.238q.294.07.588.07.42 0 .784-.098.364-.112.63-.336.28-.224.434-.56.154-.35.154-.84 0-.896-.532-1.372-.518-.476-1.372-.476-.532 0-.966.182a2.7 2.7 0 0 0-.784.504zm8.6 0 .532-5.544h5.964v1.442h-4.606l-.28 2.576q.406-.266.868-.406a3.7 3.7 0 0 1 1.134-.154q.741 0 1.344.224.601.21 1.036.616.433.406.658.994.238.588.238 1.33 0 .798-.28 1.428t-.77 1.064-1.148.672q-.658.225-1.428.224-.658 0-1.246-.154a3.5 3.5 0 0 1-1.05-.476 2.9 2.9 0 0 1-.784-.826 3.2 3.2 0 0 1-.406-1.218h1.61q.084.294.266.518.196.224.448.378a2.2 2.2 0 0 0 .546.238q.294.07.588.07.42 0 .784-.098.363-.112.63-.336.28-.224.434-.56.153-.35.154-.84 0-.896-.532-1.372-.519-.476-1.372-.476-.532 0-.966.182-.435.182-.784.504zm9.467 2.408q.449 0 .728.28.294.28.294.756 0 .49-.294.756-.28.266-.728.266t-.742-.266q-.28-.266-.28-.756 0-.476.28-.756.294-.28.742-.28m10.368-3.01q0 1.134-.238 2.072-.225.924-.714 1.582-.477.659-1.204 1.022-.729.364-1.722.364-.995 0-1.722-.35a3.3 3.3 0 0 1-1.204-1.008q-.477-.644-.714-1.554a8 8 0 0 1-.238-2.03q0-1.147.224-2.1.223-.952.7-1.638a3.2 3.2 0 0 1 1.204-1.05q.742-.378 1.75-.378.98 0 1.708.364.727.364 1.204 1.036.49.672.728 1.61.237.924.238 2.058m-6.146 0q0 .77.112 1.428.111.658.378 1.148.265.476.7.756.433.266 1.078.266.63 0 1.064-.266a2.1 2.1 0 0 0 .7-.756q.265-.49.378-1.148t.112-1.428q0-.756-.112-1.414a3.6 3.6 0 0 0-.378-1.148 2.1 2.1 0 0 0-.7-.77q-.435-.28-1.064-.28-.645 0-1.078.28-.435.28-.7.77-.267.476-.378 1.148-.112.658-.112 1.414m15.347 0q0 1.134-.238 2.072-.224.924-.714 1.582-.476.659-1.204 1.022-.728.364-1.722.364-.995 0-1.722-.35a3.3 3.3 0 0 1-1.204-1.008q-.476-.644-.714-1.554a8 8 0 0 1-.238-2.03q0-1.147.224-2.1.224-.952.7-1.638a3.2 3.2 0 0 1 1.204-1.05q.742-.378 1.75-.378.98 0 1.708.364a3.2 3.2 0 0 1 1.204 1.036q.49.672.728 1.61.238.924.238 2.058m-6.146 0q0 .77.112 1.428.113.658.378 1.148.266.476.7.756.434.266 1.078.266.63 0 1.064-.266.434-.28.7-.756.265-.49.378-1.148a8.5 8.5 0 0 0 .112-1.428q0-.756-.112-1.414a3.6 3.6 0 0 0-.378-1.148 2.1 2.1 0 0 0-.7-.77q-.434-.28-1.064-.28-.644 0-1.078.28a2.1 2.1 0 0 0-.7.77q-.266.476-.378 1.148-.112.658-.112 1.414m15.347 0q0 1.134-.238 2.072-.224.924-.714 1.582-.476.659-1.204 1.022-.727.364-1.722.364-.994 0-1.722-.35a3.3 3.3 0 0 1-1.204-1.008q-.476-.644-.714-1.554a8 8 0 0 1-.238-2.03q0-1.147.224-2.1.224-.952.7-1.638a3.2 3.2 0 0 1 1.204-1.05q.742-.378 1.75-.378.98 0 1.708.364a3.2 3.2 0 0 1 1.204 1.036q.49.672.728 1.61.238.924.238 2.058m-6.146 0q0 .77.112 1.428.113.658.378 1.148.266.476.7.756.434.266 1.078.266.63 0 1.064-.266.434-.28.7-.756.266-.49.378-1.148a8.5 8.5 0 0 0 .112-1.428q0-.756-.112-1.414a3.6 3.6 0 0 0-.378-1.148 2.1 2.1 0 0 0-.7-.77q-.434-.28-1.064-.28-.644 0-1.078.28a2.1 2.1 0 0 0-.7.77q-.265.476-.378 1.148-.112.658-.112 1.414m7.829-.616h6.496V22.3h-6.496zm8.646 5.572 3.822-8.442h-4.914v-1.456h6.748v1.26l-3.85 8.638zm14.39-4.956q0 1.134-.238 2.072-.225.924-.714 1.582-.477.659-1.204 1.022-.729.364-1.722.364-.995 0-1.722-.35a3.3 3.3 0 0 1-1.204-1.008q-.477-.644-.714-1.554a8 8 0 0 1-.238-2.03q0-1.147.224-2.1.223-.952.7-1.638a3.2 3.2 0 0 1 1.204-1.05q.741-.378 1.75-.378.98 0 1.708.364.727.364 1.204 1.036.49.672.728 1.61.237.924.238 2.058m-6.146 0q0 .77.112 1.428.111.658.378 1.148.265.476.7.756.433.266 1.078.266.63 0 1.064-.266a2.1 2.1 0 0 0 .7-.756q.266-.49.378-1.148t.112-1.428q0-.756-.112-1.414a3.6 3.6 0 0 0-.378-1.148 2.1 2.1 0 0 0-.7-.77q-.434-.28-1.064-.28-.645 0-1.078.28-.435.28-.7.77-.267.476-.378 1.148-.112.658-.112 1.414m8.753 3.01q.448 0 .728.28.294.28.294.756 0 .49-.294.756-.28.266-.728.266t-.742-.266q-.28-.266-.28-.756 0-.476.28-.756.294-.28.742-.28m10.367-3.01q0 1.134-.238 2.072-.224.924-.714 1.582-.475.659-1.204 1.022-.728.364-1.722.364-.993 0-1.722-.35a3.3 3.3 0 0 1-1.204-1.008q-.476-.644-.714-1.554a8 8 0 0 1-.238-2.03q0-1.147.224-2.1.225-.952.7-1.638a3.2 3.2 0 0 1 1.204-1.05q.742-.378 1.75-.378.98 0 1.708.364.729.364 1.204 1.036.49.672.728 1.61.238.924.238 2.058m-6.146 0q0 .77.112 1.428.113.658.378 1.148.267.476.7.756.435.266 1.078.266.63 0 1.064-.266.435-.28.7-.756.267-.49.378-1.148a8.5 8.5 0 0 0 .112-1.428q0-.756-.112-1.414-.111-.671-.378-1.148a2.06 2.06 0 0 0-.7-.77q-.434-.28-1.064-.28-.643 0-1.078.28a2.1 2.1 0 0 0-.7.77q-.266.476-.378 1.148-.112.658-.112 1.414m15.348 0q0 1.134-.238 2.072-.225.924-.714 1.582-.477.659-1.204 1.022-.729.364-1.722.364-.995 0-1.722-.35a3.3 3.3 0 0 1-1.204-1.008q-.477-.644-.714-1.554a8 8 0 0 1-.238-2.03q0-1.147.224-2.1.223-.952.7-1.638a3.2 3.2 0 0 1 1.204-1.05q.742-.378 1.75-.378.98 0 1.708.364.727.364 1.204 1.036.49.672.728 1.61.238.924.238 2.058m-6.146 0q0 .77.112 1.428.111.658.378 1.148.265.476.7.756.433.266 1.078.266.63 0 1.064-.266a2.1 2.1 0 0 0 .7-.756q.265-.49.378-1.148t.112-1.428q0-.756-.112-1.414a3.6 3.6 0 0 0-.378-1.148 2.1 2.1 0 0 0-.7-.77q-.434-.28-1.064-.28-.645 0-1.078.28-.435.28-.7.77-.267.476-.378 1.148-.112.658-.112 1.414m15.347 0q0 1.134-.238 2.072-.225.924-.714 1.582-.477.659-1.204 1.022-.729.364-1.722.364-.994 0-1.722-.35a3.3 3.3 0 0 1-1.204-1.008q-.477-.644-.714-1.554a8 8 0 0 1-.238-2.03q0-1.147.224-2.1.223-.952.7-1.638a3.2 3.2 0 0 1 1.204-1.05q.742-.378 1.75-.378.98 0 1.708.364.727.364 1.204 1.036.49.672.728 1.61.238.924.238 2.058m-6.146 0q0 .77.112 1.428.111.658.378 1.148.265.476.7.756.433.266 1.078.266.63 0 1.064-.266a2.1 2.1 0 0 0 .7-.756q.266-.49.378-1.148t.112-1.428q0-.756-.112-1.414a3.6 3.6 0 0 0-.378-1.148 2.1 2.1 0 0 0-.7-.77q-.434-.28-1.064-.28-.645 0-1.078.28-.435.28-.7.77-.267.476-.378 1.148-.112.658-.112 1.414m18.434 4.956-.728-2.002h-4.494l-.742 2.002h-1.764l3.752-9.898h2.016l3.738 9.898zm-1.232-3.458-1.736-4.844-1.75 4.844zm4.235-6.44h6.874v1.456h-5.25v2.814h4.648v1.47h-4.648v2.716h5.25V26.5h-6.874zm8.627 0h3.584q1.175 0 2.072.35.909.335 1.512.98.615.63.924 1.554.308.924.308 2.072 0 1.162-.308 2.072a4.2 4.2 0 0 1-.91 1.554 3.76 3.76 0 0 1-1.484.98q-.882.336-2.058.336h-3.64zm1.624 1.456v7h1.974q.812 0 1.4-.252t.966-.7a2.9 2.9 0 0 0 .574-1.106q.196-.645.196-1.442 0-1.652-.812-2.576-.798-.924-2.338-.924zm12.132-2.646h1.582l-4.284 13.454h-1.568zm6.759 6.58v3.79q0 .384-.017.786-.008.402-.137.788-.196.615-.71.966-.513.351-1.377.351-.513 0-.993-.137a2.7 2.7 0 0 1-.889-.453q.093-.197.179-.41l.189-.412q.282.223.641.377.368.154.839.154.453 0 .71-.154a1 1 0 0 0 .385-.42q.137-.256.171-.598.043-.333.043-.685-.24.343-.599.488a2.1 2.1 0 0 1-.796.145 2.2 2.2 0 0 1-.864-.154 1.35 1.35 0 0 1-.565-.427 1.7 1.7 0 0 1-.291-.65 3.7 3.7 0 0 1-.085-.822v-2.524h.967v2.336q0 .274.034.53.042.249.154.445.12.188.325.308.206.111.539.111.342 0 .565-.136.23-.138.359-.351.137-.223.188-.505.06-.282.06-.582v-2.156zm1.868 2.583q.018.248.103.462.086.214.231.376.154.155.368.249.222.093.513.094.309 0 .565-.112a.7.7 0 0 0 .376-.385h1.001a1.642 1.642 0 0 1-.735 1.001q-.258.155-.574.231a3 3 0 0 1-.658.069q-.54 0-.95-.163a1.8 1.8 0 0 1-.676-.47 2 2 0 0 1-.411-.727 3.4 3.4 0 0 1-.128-.959q0-.513.145-.932.145-.427.42-.736.282-.307.676-.48.393-.179.898-.179.531 0 .915.18.385.17.642.47.265.3.394.702.128.402.128.873 0 .222-.026.436zm2.293-.736q-.017-.513-.325-.795-.307-.283-.796-.283a1.2 1.2 0 0 0-.479.086 1.1 1.1 0 0 0-.35.23 1.2 1.2 0 0 0-.223.343q-.086.196-.111.42zm4.741 2.105a1.33 1.33 0 0 1-.59.47 2.2 2.2 0 0 1-.821.146q-.36 0-.659-.086a1.6 1.6 0 0 1-.513-.256 1.3 1.3 0 0 1-.351-.437 1.35 1.35 0 0 1-.128-.599q0-.367.145-.624a1.2 1.2 0 0 1 .394-.428q.256-.162.598-.24.343-.084.719-.085h1.155q0-.495-.222-.77-.223-.274-.779-.282a1.3 1.3 0 0 0-.565.11.57.57 0 0 0-.308.369h-1.001a1.36 1.36 0 0 1 .231-.608 1.7 1.7 0 0 1 .445-.41q.266-.163.582-.231.326-.069.65-.069.42 0 .779.111.36.112.624.377.3.307.403.736.102.428.102.932v2.43h-.847zm-.051-1.446h-.941q-.248 0-.496.043a.85.85 0 0 0-.428.18q-.171.136-.171.402 0 .325.231.496.24.162.582.162.265 0 .487-.068a.96.96 0 0 0 .394-.223 1.1 1.1 0 0 0 .248-.402q.094-.248.094-.59m1.989 2.002v-4.509h.915l.051.642q.522-.72 1.421-.719.086 0 .162.009.085 0 .154.008v.907q-.102 0-.205.009h-.188a1.5 1.5 0 0 0-.634.137q-.248.12-.41.325-.154.206-.223.487-.068.275-.068.59V26.5z"/><path stroke="#D3D3D3" d="M16 42h289.5"/><path fill="#414141" d="M16.914 62.085V65h-.957v-7.777h2.915q.637 0 1.155.132.517.132.88.418t.55.759q.198.462.198 1.122 0 .484-.143.869-.143.375-.385.66a2.1 2.1 0 0 1-.55.462 3.2 3.2 0 0 1-.66.275L21.545 65H20.5l-1.551-2.915zm1.65-.869q.43 0 .803-.066.385-.066.671-.242a1.27 1.27 0 0 0 .451-.473q.176-.308.187-.814 0-.836-.495-1.177-.484-.352-1.408-.352h-1.859v3.124zm7.867 3.872q-.912 0-1.595-.297a3.3 3.3 0 0 1-1.144-.836A3.5 3.5 0 0 1 23 62.701a5.2 5.2 0 0 1-.23-1.584q0-.858.23-1.584a3.5 3.5 0 0 1 .693-1.265q.462-.528 1.144-.825.683-.308 1.595-.308.903 0 1.584.308.682.297 1.144.825.463.528.693 1.265a5.2 5.2 0 0 1 .231 1.584 5.2 5.2 0 0 1-.23 1.584 3.5 3.5 0 0 1-.694 1.254q-.463.528-1.144.836-.681.297-1.584.297m0-7.084q-.692 0-1.199.253a2.3 2.3 0 0 0-.836.671q-.33.43-.495 1.001a4.2 4.2 0 0 0-.165 1.188q0 .627.154 1.188.165.561.495.99t.836.682q.517.242 1.21.242t1.2-.242q.506-.253.824-.671.33-.429.484-.99a4.2 4.2 0 0 0 .165-1.199 4.2 4.2 0 0 0-.165-1.199 2.7 2.7 0 0 0-.484-.99 2.3 2.3 0 0 0-.836-.671q-.506-.253-1.188-.253M32.522 65h-.957v-7.777h.957zm7.637-8.998q-.583.759-.979 1.474-.396.705-.638 1.408a8 8 0 0 0-.352 1.386 10 10 0 0 0-.099 1.408q0 .726.11 1.419.11.682.352 1.375.255.693.638 1.397.397.704.946 1.463h-1.012a7.2 7.2 0 0 1-.869-1.287 10 10 0 0 1-.616-1.43 10 10 0 0 1-.363-1.496 9 9 0 0 1-.12-1.441q0-.693.12-1.441.132-.76.374-1.496.254-.748.627-1.452.375-.704.87-1.287zM40.782 65v-7.777h1.452l2.332 4.279 2.3-4.279h1.418V65h-.957v-6.765l-2.563 4.73h-.44l-2.585-4.73V65zm13.018-.737a1.6 1.6 0 0 1-.429.407q-.242.154-.506.242a2.5 2.5 0 0 1-.517.121 4 4 0 0 1-.506.033q-.407 0-.77-.099a2 2 0 0 1-.66-.319 1.7 1.7 0 0 1-.462-.55 1.65 1.65 0 0 1-.165-.748q0-.495.176-.825.188-.34.495-.55.308-.21.704-.286.406-.088.858-.088h1.705q0-.737-.319-1.166-.32-.44-1.078-.462-.463 0-.814.154a.87.87 0 0 0-.484.506h-1q.075-.396.307-.671.23-.286.55-.462a2.5 2.5 0 0 1 .693-.275q.375-.088.748-.088.65 0 1.09.22.45.21.725.561a2 2 0 0 1 .385.836q.11.495.11 1.111V65h-.78zm-1.1-1.881q-.264 0-.616.011a3.3 3.3 0 0 0-.66.066.96.96 0 0 0-.517.275q-.187.21-.187.55 0 .253.1.429a.9.9 0 0 0 .263.297q.176.121.396.176t.451.055q.825 0 1.298-.396.485-.407.495-1.177v-.286zM56.085 65v-5.797h.902l.044.902q.319-.506.814-.737t1.122-.231h.297v.88h-.341q-.517 0-.88.176-.363.165-.594.462-.22.285-.33.682a3.4 3.4 0 0 0-.1.836V65zm4.642-7.92q.264 0 .451.176.187.165.187.44a.6.6 0 0 1-.187.451.64.64 0 0 1-.45.176.6.6 0 0 1-.452-.176.6.6 0 0 1-.176-.451q0-.275.176-.44a.6.6 0 0 1 .451-.176M60.265 65v-5.797h.935V65zm2.49 0v-5.797h.903l.044.88q.142-.241.352-.418a2.4 2.4 0 0 1 .473-.297q.252-.121.528-.176a3 3 0 0 1 .55-.055q.627 0 1.056.209.429.198.682.561.253.352.363.847.11.484.11 1.045V65h-.935v-2.948q0-.407-.055-.781-.045-.375-.198-.66a1.14 1.14 0 0 0-.418-.473q-.276-.176-.737-.176-.452.01-.803.22-.342.21-.55.495-.255.363-.341.803a4.3 4.3 0 0 0-.088.869V65zm10.317-.737a1.6 1.6 0 0 1-.43.407q-.241.154-.505.242a2.5 2.5 0 0 1-.517.121 4 4 0 0 1-.506.033q-.408 0-.77-.099a2 2 0 0 1-.66-.319 1.7 1.7 0 0 1-.462-.55 1.65 1.65 0 0 1-.165-.748q0-.495.176-.825.187-.34.495-.55t.704-.286q.406-.088.858-.088h1.705q0-.737-.32-1.166-.318-.44-1.077-.462-.463 0-.814.154a.87.87 0 0 0-.484.506h-1.001q.076-.396.308-.671.23-.286.55-.462.318-.187.693-.275.373-.088.748-.088.648 0 1.089.22.45.21.726.561.274.34.385.836t.11 1.111V65h-.781zm-1.1-1.881q-.264 0-.616.011-.342 0-.66.066a.96.96 0 0 0-.517.275q-.187.21-.187.55 0 .253.099.429a.9.9 0 0 0 .264.297q.175.121.396.176.22.055.45.055.825 0 1.299-.396.483-.407.495-1.177v-.286zm6.569-5.159h2.761q.902 0 1.584.286a3 3 0 0 1 1.155.792q.462.506.693 1.232.231.715.231 1.584a5.4 5.4 0 0 1-.242 1.584 3.4 3.4 0 0 1-.693 1.232q-.45.506-1.133.792-.682.275-1.595.275h-2.761zm.957.869v6.039h1.738q.594 0 1.133-.176.55-.187.935-.649.352-.407.517-.957.165-.561.165-1.232a4.2 4.2 0 0 0-.165-1.232 2.7 2.7 0 0 0-.495-.935 2.3 2.3 0 0 0-.836-.627q-.506-.231-1.199-.231zm9.16 6.149q.792 0 1.155-.473.374-.484.374-1.342v-3.223h.935v3.267q0 1.32-.638 1.958-.627.638-1.826.638t-1.826-.638q-.616-.638-.616-1.958v-3.267h.935v3.223q0 .859.374 1.342.375.473 1.133.473m3.918.759v-7.777h.935v2.838q.286-.44.814-.682.54-.254 1.1-.242.66 0 1.133.231.483.231.792.627.32.396.462.946.154.54.154 1.166 0 .627-.154 1.166-.144.528-.462.924a2.25 2.25 0 0 1-.814.627q-.484.231-1.155.242h-.121q-.593 0-1.034-.209a2.1 2.1 0 0 1-.715-.561l-.044.704zm2.728-.759q.473 0 .792-.165a1.5 1.5 0 0 0 .528-.462q.21-.297.297-.682a3.7 3.7 0 0 0 .11-.825q0-.44-.1-.825a1.8 1.8 0 0 0-.296-.682 1.45 1.45 0 0 0-.55-.451q-.33-.176-.803-.176-.265 0-.517.088-.254.089-.451.242-.198.142-.352.33a2.2 2.2 0 0 0-.418.935 3 3 0 0 0-.055.55q0 .286.033.594.044.297.176.55.198.418.605.704.407.275 1 .275m7.728.022a1.6 1.6 0 0 1-.429.407q-.243.154-.506.242a2.5 2.5 0 0 1-.517.121 4 4 0 0 1-.506.033q-.408 0-.77-.099a2 2 0 0 1-.66-.319 1.7 1.7 0 0 1-.463-.55 1.65 1.65 0 0 1-.165-.748q.001-.495.176-.825.187-.34.496-.55.308-.21.704-.286.406-.088.858-.088h1.705q0-.737-.319-1.166-.32-.44-1.078-.462-.463 0-.814.154a.87.87 0 0 0-.484.506h-1.002q.077-.396.309-.671.23-.286.55-.462.318-.187.693-.275.373-.088.748-.088.648 0 1.089.22.45.21.726.561.274.34.385.836t.11 1.111V65h-.781zm-1.1-1.881q-.265 0-.616.011a3.2 3.2 0 0 0-.66.066.96.96 0 0 0-.517.275q-.187.21-.187.55 0 .253.099.429a.9.9 0 0 0 .264.297q.175.121.396.176.22.055.451.055.825 0 1.298-.396.483-.407.495-1.177v-.286zm3.923-5.302q.264 0 .451.176.187.165.187.44a.6.6 0 0 1-.187.451.64.64 0 0 1-.451.176.6.6 0 0 1-.451-.176.61.61 0 0 1-.176-.451q0-.275.176-.44a.6.6 0 0 1 .451-.176m-.462 7.92v-5.797h.935V65zm1.423 2.332q.573-.759.968-1.474.396-.715.638-1.408.243-.693.352-1.386.11-.693.11-1.408 0-.726-.11-1.408a7.4 7.4 0 0 0-.363-1.386 8.7 8.7 0 0 0-.638-1.397q-.384-.705-.935-1.463h1.012q.495.583.858 1.287.375.693.616 1.441.254.736.374 1.485.121.748.121 1.441t-.132 1.452q-.12.748-.374 1.496a9 9 0 0 1-.616 1.441q-.374.704-.869 1.287z"/><rect width="305" height="165.026" x="15" y="76" fill="#fff" rx="4.327"/><path stroke="#E3E6E8" stroke-width=".309" d="M36.015 203.169h263.918M36.015 172.265h263.918M36.015 141.361h263.918M36.015 110.458h263.918"/><path fill="#626C70" d="m60.473 215.908.437-.371q.244-.207.453-.445.215-.236.363-.497.148-.267.156-.578.015-.475-.275-.727-.289-.26-.764-.26-.378 0-.66.156a.75.75 0 0 0-.37.453h-.69q.051-.305.215-.527.17-.23.408-.378.244-.148.534-.223a2.4 2.4 0 0 1 .593-.074q.363 0 .668.104.303.096.526.289.222.193.341.482.126.282.126.646 0 .363-.11.652a2 2 0 0 1-.29.534 3.2 3.2 0 0 1-.408.46 19 19 0 0 1-.475.43l-1.327 1.12h2.67v.586h-3.605v-.534zm7.011-.786q0 .504-.103.987a2.5 2.5 0 0 1-.334.86 1.85 1.85 0 0 1-.63.601q-.394.23-.98.23-.593 0-.986-.23a1.85 1.85 0 0 1-.63-.601 2.5 2.5 0 0 1-.334-.846 5 5 0 0 1-.097-1.001q0-.534.097-1.001.096-.475.334-.846.237-.37.63-.601.392-.237.986-.237.586 0 .98.23.392.23.63.608.237.378.334.861.103.482.103.986m-3.433 0q0 .356.051.727.053.37.2.675.15.304.416.497.275.193.72.193.437 0 .704-.193.275-.193.423-.497a2.2 2.2 0 0 0 .2-.675 5.171 5.171 0 0 0 0-1.446 2.2 2.2 0 0 0-.2-.675 1.3 1.3 0 0 0-.423-.505q-.267-.2-.705-.2-.444 0-.719.2a1.3 1.3 0 0 0-.415.505 2.2 2.2 0 0 0-.2.675 5 5 0 0 0-.052.719m5.446.786.438-.371q.245-.207.452-.445.216-.236.364-.497.148-.267.156-.578.015-.475-.275-.727-.289-.26-.764-.26-.378 0-.66.156a.75.75 0 0 0-.37.453h-.69q.051-.305.215-.527.17-.23.407-.378.246-.148.535-.223.288-.074.593-.074.364 0 .667.104.305.096.527.289t.341.482q.126.282.126.646 0 .363-.111.652a2 2 0 0 1-.29.534 3.2 3.2 0 0 1-.407.46 19 19 0 0 1-.475.43l-1.328 1.12h2.67v.586h-3.604v-.534zm7.012-.786q0 .504-.103.987a2.5 2.5 0 0 1-.334.86 1.85 1.85 0 0 1-.63.601q-.395.23-.98.23-.593 0-.986-.23a1.85 1.85 0 0 1-.63-.601 2.5 2.5 0 0 1-.334-.846 5 5 0 0 1-.097-1.001q0-.534.097-1.001.096-.475.333-.846.239-.37.63-.601.395-.237.987-.237.585 0 .98.23.392.23.63.608.237.378.334.861.103.482.103.986m-3.434 0q0 .356.052.727.053.37.2.675.15.304.416.497.275.193.72.193.437 0 .704-.193.275-.193.423-.497a2.2 2.2 0 0 0 .2-.675q.052-.371.052-.727 0-.348-.052-.719a2.2 2.2 0 0 0-.2-.675 1.3 1.3 0 0 0-.423-.505q-.267-.2-.705-.2-.444 0-.72.2a1.3 1.3 0 0 0-.415.505 2.2 2.2 0 0 0-.2.675 5 5 0 0 0-.052.719M116.291 215.908l.438-.371q.245-.207.452-.445.216-.236.364-.497.148-.267.155-.578.015-.475-.274-.727-.289-.26-.764-.26-.378 0-.66.156a.75.75 0 0 0-.371.453h-.69q.053-.305.215-.527.171-.23.408-.378.246-.148.534-.223.29-.074.594-.074.364 0 .667.104.305.096.527.289t.341.482q.126.282.126.646 0 .363-.111.652a2 2 0 0 1-.289.534 3.3 3.3 0 0 1-.408.46 20 20 0 0 1-.475.43l-1.328 1.12h2.67v.586h-3.604v-.534zm7.012-.786q0 .504-.104.987a2.5 2.5 0 0 1-.333.86 1.86 1.86 0 0 1-.631.601q-.393.23-.979.23-.593 0-.986-.23a1.85 1.85 0 0 1-.631-.601 2.6 2.6 0 0 1-.334-.846 5 5 0 0 1-.096-1.001q0-.534.096-1.001.097-.475.334-.846.237-.37.631-.601.393-.237.986-.237.586 0 .979.23t.631.608q.237.378.333.861.104.482.104.986m-3.434 0q0 .356.052.727.052.37.2.675.149.304.416.497.274.193.719.193.438 0 .705-.193a1.3 1.3 0 0 0 .423-.497q.147-.305.2-.675.052-.371.052-.727a5 5 0 0 0-.052-.719 2.3 2.3 0 0 0-.2-.675 1.3 1.3 0 0 0-.423-.505q-.267-.2-.705-.2-.445 0-.719.2a1.3 1.3 0 0 0-.416.505 2.2 2.2 0 0 0-.2.675 5 5 0 0 0-.052.719m5.447.786.438-.371q.245-.207.452-.445.216-.236.364-.497.147-.267.155-.578.015-.475-.274-.727-.29-.26-.764-.26-.378 0-.66.156a.75.75 0 0 0-.371.453h-.69q.053-.305.215-.527.171-.23.408-.378.244-.148.534-.223.29-.074.594-.074.363 0 .667.104.304.096.527.289.222.193.341.482.126.282.126.646 0 .363-.111.652a2 2 0 0 1-.29.534 3 3 0 0 1-.407.46 20 20 0 0 1-.475.43l-1.328 1.12h2.67v.586h-3.604v-.534zm4.394 1.832h-.645v-4.205h-1.068v-.438q.222-.015.408-.037.185-.03.341-.096.155-.067.282-.178t.229-.29h.453zM168.947 217.145q.2-.171.438-.371a4 4 0 0 0 .452-.445q.215-.238.363-.497.149-.267.156-.579.015-.474-.274-.727-.29-.26-.764-.259-.378 0-.66.156a.74.74 0 0 0-.371.452h-.69a1.2 1.2 0 0 1 .215-.527q.171-.23.408-.378.244-.148.534-.222t.594-.075q.363 0 .667.104.304.097.527.29.222.192.341.482.126.282.126.645t-.111.653q-.105.288-.29.534a3 3 0 0 1-.408.459q-.23.215-.474.431l-1.328 1.12h2.67v.586h-3.604v-.534zm7.012-.787q0 .505-.104.987a2.5 2.5 0 0 1-.334.86 1.83 1.83 0 0 1-.63.601q-.393.23-.979.23-.594 0-.986-.23a1.8 1.8 0 0 1-.631-.601 2.6 2.6 0 0 1-.334-.845 5 5 0 0 1-.096-1.002q0-.533.096-1.001a2.5 2.5 0 0 1 .334-.845q.237-.372.631-.601.393-.238.986-.238.586 0 .979.23t.63.609q.238.378.334.86.104.482.104.986m-3.434 0q0 .357.052.727t.2.675q.149.305.416.497.273.193.719.193.438 0 .705-.193a1.3 1.3 0 0 0 .422-.497 2.3 2.3 0 0 0 .201-.675q.051-.37.052-.727a5 5 0 0 0-.052-.719 2.3 2.3 0 0 0-.201-.675 1.27 1.27 0 0 0-.422-.504q-.267-.201-.705-.201-.446 0-.719.201a1.3 1.3 0 0 0-.416.504 2.3 2.3 0 0 0-.2.675 5 5 0 0 0-.052.719m5.447.787q.2-.171.438-.371a4.4 4.4 0 0 0 .452-.445 3 3 0 0 0 .363-.497q.149-.267.156-.579.015-.474-.274-.727-.29-.26-.764-.259-.378 0-.66.156a.74.74 0 0 0-.371.452h-.69a1.2 1.2 0 0 1 .215-.527q.171-.23.408-.378.245-.148.534-.222t.593-.075q.364 0 .668.104.304.097.527.29.222.192.341.482.126.282.126.645t-.111.653q-.105.288-.29.534a3 3 0 0 1-.408.459q-.23.215-.474.431l-1.328 1.12h2.67v.586h-3.604v-.534zm4.31 0 .437-.371q.244-.208.453-.445a3 3 0 0 0 .363-.497q.148-.267.156-.579.015-.474-.275-.727-.289-.26-.764-.259-.378 0-.66.156a.75.75 0 0 0-.371.452h-.689q.051-.304.215-.527.17-.23.408-.378.245-.148.534-.222t.593-.075q.363 0 .668.104.303.097.526.29t.341.482q.126.282.126.645t-.111.653q-.103.288-.289.534a3.3 3.3 0 0 1-.408.459q-.23.215-.475.431l-1.327 1.12h2.67v.586h-3.605v-.534zM223.272 217.145l.438-.371a4 4 0 0 0 .452-.445q.216-.238.364-.497.149-.267.156-.579.015-.474-.275-.727-.289-.26-.764-.259-.378 0-.66.156a.75.75 0 0 0-.371.452h-.689q.051-.304.215-.527.17-.23.408-.378.245-.148.534-.222.288-.075.593-.075.363 0 .668.104.303.097.526.29.222.192.341.482.126.282.126.645t-.111.653q-.104.288-.289.534a3.3 3.3 0 0 1-.408.459q-.23.215-.475.431l-1.327 1.12h2.67v.586h-3.605v-.534zm7.012-.787q0 .505-.103.987a2.6 2.6 0 0 1-.334.86 1.84 1.84 0 0 1-.631.601q-.393.23-.979.23-.593 0-.986-.23a1.83 1.83 0 0 1-.63-.601 2.5 2.5 0 0 1-.334-.845 5 5 0 0 1-.097-1.002 5 5 0 0 1 .097-1.001 2.4 2.4 0 0 1 .334-.845q.237-.372.63-.601.393-.238.986-.238.586 0 .979.23t.631.609q.237.378.334.86.103.482.103.986m-3.434 0q0 .357.052.727.053.37.201.675t.415.497q.275.193.719.193.438 0 .705-.193.274-.192.423-.497a2.3 2.3 0 0 0 .2-.675 5.2 5.2 0 0 0 0-1.446 2.3 2.3 0 0 0-.2-.675 1.27 1.27 0 0 0-.423-.504q-.267-.201-.705-.201-.444 0-.719.201a1.3 1.3 0 0 0-.415.504 2.3 2.3 0 0 0-.201.675 5 5 0 0 0-.052.719m5.447.787.438-.371a4 4 0 0 0 .452-.445q.216-.238.364-.497.149-.267.156-.579.014-.474-.275-.727-.289-.26-.764-.259-.378 0-.66.156a.75.75 0 0 0-.371.452h-.69q.053-.304.216-.527.17-.23.407-.378.246-.148.535-.222.288-.075.593-.075.363 0 .667.104.305.097.527.29t.341.482q.126.282.126.645t-.111.653q-.104.288-.289.534a3.3 3.3 0 0 1-.408.459q-.23.215-.475.431l-1.328 1.12h2.671v.586h-3.605v-.534zm4.654 1.891q-.312 0-.631-.059a2.2 2.2 0 0 1-.586-.201 1.6 1.6 0 0 1-.459-.385 1.23 1.23 0 0 1-.238-.586h.668a.8.8 0 0 0 .2.319q.141.118.311.192.179.075.371.104.194.03.371.03.164 0 .371-.03t.386-.126a.8.8 0 0 0 .304-.282q.126-.192.126-.504a.85.85 0 0 0-.119-.475.76.76 0 0 0-.296-.274 1.2 1.2 0 0 0-.408-.126q-.224-.03-.453-.03h-.504v-.578h.304q.2 0 .371-.008.17-.014.378-.104a.94.94 0 0 0 .378-.311.87.87 0 0 0 .149-.475.94.94 0 0 0-.089-.437.7.7 0 0 0-.238-.267.85.85 0 0 0-.333-.127 2 2 0 0 0-.379-.037q-.156 0-.326.037-.163.03-.312.104a.9.9 0 0 0-.252.201.66.66 0 0 0-.156.289h-.645a1.2 1.2 0 0 1 .208-.556q.163-.23.4-.379.246-.148.534-.215.297-.067.601-.067.334 0 .623.075.297.066.519.23.223.155.349.415.133.26.133.63 0 .141-.029.304a1.15 1.15 0 0 1-.349.623 1.2 1.2 0 0 1-.408.26q.498.096.757.438.26.333.259.808v.03q0 .408-.148.704a1.3 1.3 0 0 1-.393.482 1.7 1.7 0 0 1-.593.275 3 3 0 0 1-.727.089M277.3 217.145l.437-.371q.245-.208.453-.445a3 3 0 0 0 .363-.497q.149-.267.156-.579.015-.474-.275-.727-.288-.26-.764-.259-.378 0-.66.156a.74.74 0 0 0-.37.452h-.69q.051-.304.215-.527.171-.23.408-.378.245-.148.534-.222t.593-.075q.363 0 .668.104.304.097.526.29t.341.482q.127.282.127.645t-.112.653q-.103.288-.289.534a3.3 3.3 0 0 1-.408.459q-.23.215-.475.431l-1.327 1.12h2.67v.586h-3.605v-.534zm7.012-.787q0 .505-.104.987a2.5 2.5 0 0 1-.334.86 1.83 1.83 0 0 1-.63.601q-.394.23-.979.23-.594 0-.987-.23a1.83 1.83 0 0 1-.63-.601 2.5 2.5 0 0 1-.334-.845 5 5 0 0 1-.096-1.002q0-.533.096-1.001a2.4 2.4 0 0 1 .334-.845q.237-.372.63-.601.393-.238.987-.238.586 0 .979.23t.63.609q.237.378.334.86.104.482.104.986m-3.434 0q0 .357.052.727.051.37.2.675.148.305.415.497.274.193.72.193.437 0 .704-.193.274-.192.423-.497a2.2 2.2 0 0 0 .2-.675 5.2 5.2 0 0 0 0-1.446 2.2 2.2 0 0 0-.2-.675 1.27 1.27 0 0 0-.423-.504q-.267-.201-.704-.201-.446 0-.72.201a1.3 1.3 0 0 0-.415.504 2.2 2.2 0 0 0-.2.675 5 5 0 0 0-.052.719m5.447.787.437-.371q.245-.208.453-.445a3 3 0 0 0 .363-.497q.149-.267.156-.579.015-.474-.275-.727-.289-.26-.764-.259-.378 0-.66.156a.75.75 0 0 0-.371.452h-.689q.051-.304.215-.527.17-.23.408-.378.245-.148.534-.222t.593-.075q.363 0 .668.104.303.097.526.29.222.192.341.482.126.282.126.645t-.111.653q-.103.288-.289.534a3.3 3.3 0 0 1-.408.459q-.23.215-.475.431l-1.327 1.12h2.67v.586h-3.605v-.534zm6.155-3.412v3.612h.615v.586h-.615v1.046h-.646v-1.046h-2.848v-.482l2.567-3.716zm-2.715 3.612h2.069v-3.026zM17.596 112.667l2.121-4.65h-2.773v-.593h3.485v.534l-2.12 4.709zm3.611-2.358.238-2.885h3.137v.593h-2.559l-.148 1.647q.2-.164.49-.26.289-.104.711-.104.379 0 .69.119.312.119.534.341.222.215.341.527.126.31.127.689 0 .416-.149.742a1.6 1.6 0 0 1-.393.549 1.7 1.7 0 0 1-.6.349 2.3 2.3 0 0 1-.742.118q-.327 0-.63-.074a2 2 0 0 1-.542-.222 1.449 1.449 0 0 1-.653-.957h.653a.9.9 0 0 0 .178.282q.119.118.267.207a1.5 1.5 0 0 0 .667.171q.267 0 .497-.067.237-.066.408-.2a.94.94 0 0 0 .274-.349 1.2 1.2 0 0 0 .097-.511q0-.542-.326-.831-.327-.29-.846-.289-.311 0-.578.111a1.7 1.7 0 0 0-.475.304zM17.908 171.872q.252-.385.637-.564a1.9 1.9 0 0 1 .816-.178q.4 0 .705.126.312.126.534.341t.349.52q.126.303.126.674 0 .394-.134.712a1.6 1.6 0 0 1-.37.549 1.6 1.6 0 0 1-.572.356 2 2 0 0 1-.712.126q-.549 0-.927-.192a1.8 1.8 0 0 1-.616-.527 2.3 2.3 0 0 1-.348-.771 4.3 4.3 0 0 1-.111-.92q0-.601.089-1.09.088-.498.319-.905.237-.416.645-.683.408-.274 1.038-.274.282 0 .542.074.26.075.474.223.216.14.379.356.162.215.252.489h-.675a.9.9 0 0 0-.408-.415 1.23 1.23 0 0 0-.571-.141q-.423 0-.705.2a1.5 1.5 0 0 0-.452.512 2.5 2.5 0 0 0-.238.69 4 4 0 0 0-.066.712m2.507.986q0-.244-.082-.445a1 1 0 0 0-.23-.356.9.9 0 0 0-.349-.237 1.1 1.1 0 0 0-.452-.089q-.237 0-.452.081a1.1 1.1 0 0 0-.371.223q-.163.14-.267.349a1.1 1.1 0 0 0-.097.459 1.07 1.07 0 0 0 .334.787q.156.148.364.237.214.081.46.081.244 0 .452-.081.214-.089.363-.23a1 1 0 0 0 .238-.349q.089-.2.089-.43m1.669-.741.237-2.886h3.137v.594H22.9l-.149 1.646q.2-.163.49-.259.29-.105.712-.104.378 0 .69.118a1.5 1.5 0 0 1 .875.868q.126.312.126.69 0 .415-.148.742a1.63 1.63 0 0 1-.994.897 2.3 2.3 0 0 1-.742.119q-.327 0-.63-.074a2 2 0 0 1-.542-.223 1.447 1.447 0 0 1-.653-.957h.653a.9.9 0 0 0 .178.282q.12.119.267.208.156.081.326.126.171.045.342.044.267 0 .497-.066.237-.067.407-.201a.94.94 0 0 0 .275-.348q.096-.215.096-.512 0-.542-.326-.831-.327-.288-.845-.289-.312 0-.579.111a1.7 1.7 0 0 0-.475.305zM17.596 142.953l2.121-4.65h-2.773v-.594h3.485v.534l-2.12 4.71zm7.52-2.618q0 .504-.104.986a2.5 2.5 0 0 1-.334.861 1.85 1.85 0 0 1-.63.601q-.393.23-.979.229-.594 0-.986-.229a1.85 1.85 0 0 1-.63-.601 2.5 2.5 0 0 1-.335-.846 5 5 0 0 1-.096-1.001q0-.534.096-1.001.097-.476.334-.846t.63-.601q.394-.237.987-.237.585 0 .979.23.393.23.63.608.238.378.334.861.105.482.104.986m-3.434 0q0 .356.052.727.052.37.2.675.15.303.416.497.273.192.719.193.438 0 .705-.193.273-.194.422-.497a2.2 2.2 0 0 0 .2-.675q.052-.371.052-.727 0-.348-.051-.719a2.2 2.2 0 0 0-.2-.675 1.3 1.3 0 0 0-.423-.505q-.267-.2-.705-.2-.445 0-.72.2a1.3 1.3 0 0 0-.415.505 2.2 2.2 0 0 0-.2.675 5 5 0 0 0-.052.719M17.908 202.157q.252-.386.637-.563a1.9 1.9 0 0 1 .816-.178q.4 0 .705.126.312.126.534.341.222.214.349.519t.126.675q0 .394-.134.712a1.6 1.6 0 0 1-.37.549 1.65 1.65 0 0 1-.572.356 2 2 0 0 1-.712.126q-.549 0-.927-.193a1.8 1.8 0 0 1-.616-.526 2.3 2.3 0 0 1-.348-.772 4.3 4.3 0 0 1-.111-.919q0-.601.089-1.091.088-.497.319-.905.237-.414.645-.682.408-.274 1.038-.274.282 0 .542.074.26.073.474.222.216.141.379.356.162.216.252.49h-.675a.9.9 0 0 0-.408-.415 1.23 1.23 0 0 0-.571-.141q-.423 0-.705.2a1.5 1.5 0 0 0-.452.512 2.5 2.5 0 0 0-.238.689 4 4 0 0 0-.066.712m2.507.987q0-.245-.082-.445a1 1 0 0 0-.23-.356.9.9 0 0 0-.349-.238 1.1 1.1 0 0 0-.452-.089q-.237 0-.452.082a1.1 1.1 0 0 0-.371.223q-.163.141-.267.348a1.1 1.1 0 0 0-.097.46 1.07 1.07 0 0 0 .334.786q.156.148.364.238.214.081.46.081.244 0 .452-.081.214-.09.363-.23a1 1 0 0 0 .238-.349q.089-.2.089-.43m5.578-1.001q0 .504-.104.986a2.5 2.5 0 0 1-.334.86 1.8 1.8 0 0 1-.63.601q-.394.23-.98.23-.593 0-.986-.23a1.8 1.8 0 0 1-.63-.601 2.5 2.5 0 0 1-.334-.845 5 5 0 0 1-.097-1.001q0-.534.097-1.002a2.5 2.5 0 0 1 .333-.845q.238-.371.631-.601.392-.237.986-.237.586 0 .98.23.392.23.63.608t.334.86q.104.482.104.987m-3.435 0q0 .355.052.726.053.372.2.675.15.305.416.497.274.193.72.193.437 0 .704-.193a1.3 1.3 0 0 0 .423-.497q.148-.303.2-.675a5 5 0 0 0 .052-.726 5 5 0 0 0-.052-.72 2.2 2.2 0 0 0-.2-.675 1.3 1.3 0 0 0-.423-.504q-.267-.2-.705-.2-.444 0-.719.2a1.3 1.3 0 0 0-.415.504 2.2 2.2 0 0 0-.2.675 5 5 0 0 0-.053.72"/><path fill="#5A5866" d="M18.145 85.979v1.965H17.5v-5.243h1.965q.43 0 .779.089.348.089.593.281.245.194.371.512.134.312.134.757 0 .326-.097.586-.096.252-.26.445a1.4 1.4 0 0 1-.37.311q-.215.12-.445.186l1.098 2.076h-.705l-1.046-1.965zm1.113-.586q.289 0 .541-.045a1.3 1.3 0 0 0 .452-.163.86.86 0 0 0 .304-.319q.12-.207.127-.549 0-.563-.334-.793-.326-.237-.95-.237h-1.253v2.106zm3.392.83q.023.26.104.483.09.215.237.378.149.163.364.26.222.089.512.089.14 0 .289-.023.156-.03.29-.089a.9.9 0 0 0 .237-.17.66.66 0 0 0 .155-.252h.646a1.25 1.25 0 0 1-.23.49q-.156.207-.379.34a1.7 1.7 0 0 1-.482.2q-.267.06-.541.06-.468 0-.816-.148a1.6 1.6 0 0 1-.571-.408 1.7 1.7 0 0 1-.341-.63 2.8 2.8 0 0 1-.111-.81q0-.437.118-.8.126-.371.356-.638t.564-.416q.333-.147.794-.148.466 0 .808.186.34.184.549.49.207.296.289.644a2.2 2.2 0 0 1 .067.78q0 .066-.008.133zm2.277-.548q-.015-.497-.311-.809-.297-.31-.794-.311-.274 0-.482.089a1 1 0 0 0-.349.245 1.2 1.2 0 0 0-.222.363 1.5 1.5 0 0 0-.104.423zm1.486 2.27v-3.91h.608l.03.594a1.1 1.1 0 0 1 .237-.282q.148-.119.319-.2.17-.082.356-.119.193-.037.37-.037.423 0 .713.141.288.133.46.378.17.238.244.571.075.327.074.705v2.158h-.63v-1.987q0-.275-.037-.527a1.2 1.2 0 0 0-.134-.445.77.77 0 0 0-.282-.319q-.185-.12-.497-.119a1.1 1.1 0 0 0-.54.149 1.3 1.3 0 0 0-.372.334q-.17.245-.23.54-.06.291-.06.587v1.787zm5.368-3.91h1.202v.557H31.78v2.032q0 .17.015.32a1 1 0 0 0 .074.251.5.5 0 0 0 .163.17q.111.06.297.068a.7.7 0 0 0 .297-.06.8.8 0 0 0 .222-.14l.275.46a1.2 1.2 0 0 1-.401.23 1.5 1.5 0 0 1-.46.066 1.4 1.4 0 0 1-.534-.09 1 1 0 0 1-.363-.274 1 1 0 0 1-.17-.4 2.7 2.7 0 0 1-.045-.52v-2.113h-.638v-.556h.638v-1.172h.63zm4.528 3.412q-.125.171-.29.275a1.694 1.694 0 0 1-.69.245 3 3 0 0 1-.34.022q-.274 0-.52-.067a1.3 1.3 0 0 1-.444-.215 1.1 1.1 0 0 1-.312-.37 1.1 1.1 0 0 1-.111-.505q0-.334.118-.556a1.05 1.05 0 0 1 .334-.371q.208-.141.475-.193.275-.06.578-.06h1.15q0-.496-.215-.786-.216-.296-.727-.311-.311 0-.549.104a.58.58 0 0 0-.326.34h-.675a1 1 0 0 1 .208-.452q.155-.192.37-.311.216-.126.468-.186t.504-.059q.438 0 .734.148.304.14.49.379.185.229.26.563.074.335.074.75v2.113h-.527zm-.742-1.268q-.177 0-.415.007-.23 0-.445.045a.65.65 0 0 0-.349.186.54.54 0 0 0-.126.37q0 .17.067.29.066.118.178.2.12.082.267.118.148.038.304.038.556 0 .875-.267.328-.275.334-.794v-.193zm2.282 1.765v-5.243h.63v5.243zm-19.704 9H17.5v-5.243h.645zm1.14 0v-3.908h.608l.03.593q.097-.163.238-.282.148-.119.318-.2.171-.082.357-.119.192-.037.37-.037.424 0 .712.141.29.134.46.378.17.238.245.571.075.327.074.705v2.158h-.63v-1.987q0-.275-.037-.527a1.2 1.2 0 0 0-.134-.445.77.77 0 0 0-.282-.319q-.185-.12-.497-.119a1.1 1.1 0 0 0-.541.149 1.3 1.3 0 0 0-.371.334q-.17.245-.23.54-.06.291-.06.587v1.787zm6.051.045q-.466 0-.808-.148a1.5 1.5 0 0 1-.564-.416 1.8 1.8 0 0 1-.334-.63A2.7 2.7 0 0 1 23.52 95q0-.415.119-.779.119-.371.348-.637.23-.275.579-.43.348-.165.845-.164.297 0 .527.067.23.06.43.2.208.135.356.356.148.222.215.542h-.645q-.111-.327-.356-.468a1.04 1.04 0 0 0-.564-.133q-.318 0-.563.126-.238.118-.386.319a1.4 1.4 0 0 0-.208.467 2.197 2.197 0 0 0 0 1.083q.075.26.215.46.149.192.379.311.23.112.548.112.156 0 .305-.03a1 1 0 0 0 .281-.097.752.752 0 0 0 .37-.482h.654a1.36 1.36 0 0 1-.586.89 1.7 1.7 0 0 1-.49.208 2.3 2.3 0 0 1-.556.067m4.152-3.998q.466 0 .808.148.342.15.571.416.238.267.349.638.118.363.118.8t-.118.81a1.592 1.592 0 0 1-.927 1.038 2.1 2.1 0 0 1-.816.148q-.468 0-.816-.148a1.7 1.7 0 0 1-.579-.408 1.8 1.8 0 0 1-.348-.63 2.8 2.8 0 0 1-.111-.81q0-.437.11-.8.12-.371.35-.638.236-.267.593-.416.356-.147.816-.148m-.015 3.442q.319 0 .549-.112.238-.11.385-.304.156-.2.223-.46.075-.259.074-.563 0-.296-.074-.557a1.2 1.2 0 0 0-.223-.46 1 1 0 0 0-.385-.31 1.25 1.25 0 0 0-.55-.112q-.318 0-.548.111a1.1 1.1 0 0 0-.386.312 1.3 1.3 0 0 0-.222.46 2.2 2.2 0 0 0-.067.556q0 .303.067.563.074.26.222.46.156.193.386.304.23.112.549.112m3.343-2.93q.185-.26.452-.386a1.4 1.4 0 0 1 .608-.126q.408.007.66.178t.379.453q.2-.297.49-.46.296-.17.697-.17.318 0 .548.11.23.104.371.297.14.186.208.438.066.251.067.548v2.56h-.63v-2.24q0-.194-.023-.394a1.1 1.1 0 0 0-.089-.37.64.64 0 0 0-.223-.275.65.65 0 0 0-.4-.111.7.7 0 0 0-.415.118.83.83 0 0 0-.275.297q-.096.186-.14.408t-.045.438v2.128h-.63v-2.247a5 5 0 0 0-.016-.386 1.1 1.1 0 0 0-.088-.37.6.6 0 0 0-.208-.275q-.141-.111-.393-.111a.8.8 0 0 0-.445.118 1 1 0 0 0-.282.305 1.4 1.4 0 0 0-.148.415 2.6 2.6 0 0 0-.038.43v2.121h-.63v-3.908h.608zm5.929 1.72q.022.26.103.483.09.215.238.378t.363.26q.222.089.512.089.14 0 .29-.023.155-.03.288-.089a.9.9 0 0 0 .238-.17.66.66 0 0 0 .155-.252h.646a1.25 1.25 0 0 1-.23.49q-.156.207-.379.34a1.7 1.7 0 0 1-.482.2q-.267.06-.541.06-.467 0-.816-.148a1.6 1.6 0 0 1-.571-.408 1.7 1.7 0 0 1-.341-.63 2.8 2.8 0 0 1-.111-.81q0-.437.118-.8.126-.371.356-.638a1.6 1.6 0 0 1 .564-.416q.333-.147.794-.148.466 0 .808.186.34.184.549.49.207.296.29.644a2.2 2.2 0 0 1 .066.78q0 .066-.008.133zm2.276-.548q-.014-.497-.311-.809-.297-.31-.794-.311-.274 0-.482.089a1 1 0 0 0-.348.245 1.2 1.2 0 0 0-.223.363 1.5 1.5 0 0 0-.104.423z"/><path stroke="#E3E6E8" stroke-width=".309" d="M68.618 203.323V92.07M122.39 203.323V92.07M176.781 203.323V92.07M229.936 203.323V92.07"/><path fill="url(#a)" d="M56.411 156.968a2.473 2.473 0 0 1 2.472-2.473h19.779a2.473 2.473 0 0 1 2.472 2.473v46.355H56.411z"/><path fill="url(#b)" d="M110.184 132.863a2.47 2.47 0 0 1 2.472-2.473h19.778a2.473 2.473 0 0 1 2.473 2.473v70.46h-24.723z"/><path fill="url(#c)" d="M163.956 132.863a2.473 2.473 0 0 1 2.472-2.473h19.779a2.473 2.473 0 0 1 2.472 2.473v70.46h-24.723z"/><path fill="url(#d)" d="M217.729 123.592a2.47 2.47 0 0 1 2.472-2.473h19.778a2.473 2.473 0 0 1 2.473 2.473v79.731h-24.723z"/><path stroke="#E3E6E8" stroke-width=".309" d="M284.327 203.323V92.07"/><path fill="url(#e)" d="M272.119 120.501a2.47 2.47 0 0 1 2.472-2.472h19.779a2.47 2.47 0 0 1 2.472 2.472v83.441h-24.723z"/><path stroke="#0D9F00" stroke-width="1.236" d="M46.831 150.478h36.027a19.78 19.78 0 0 0 16.76-9.276l2.899-4.626a19.78 19.78 0 0 1 16.759-9.276h76.328a19.8 19.8 0 0 0 10.598-3.079l6.366-4.04a19.8 19.8 0 0 1 10.598-3.079h16.997c1.112 0 2.222-.094 3.319-.28l11.229-1.912a20 20 0 0 1 3.319-.28h42.83"/><circle cx="68.773" cy="150.169" r="2.472" fill="#0D9F00" stroke="#fff" stroke-width="1.236"/><circle cx="122.545" cy="127.3" r="2.472" fill="#0D9F00" stroke="#fff" stroke-width="1.236"/><circle cx="176.318" cy="127.3" r="2.472" fill="#0D9F00" stroke="#fff" stroke-width="1.236"/><circle cx="229.472" cy="117.411" r="2.472" fill="#0D9F00" stroke="#fff" stroke-width="1.236"/><circle cx="284.481" cy="114.321" r="2.472" fill="#0D9F00" stroke="#fff" stroke-width="1.236"/><path fill="#59596C" d="M61.417 142.627v-5.291h-1.385v-.9q.405-.02.722-.089t.564-.237q.257-.168.455-.475h.88v6.992zm2.45 0v-1.019l1.949-1.641.524-.436q.287-.237.544-.514.267-.287.445-.593.178-.307.178-.643 0-.504-.307-.791-.295-.287-.85-.287-.485 0-.791.208a.9.9 0 0 0-.386.563h-1.216q.07-.662.425-1.077.366-.426.9-.633a2.9 2.9 0 0 1 1.117-.218q.663 0 1.187.247.525.237.83.712.317.465.317 1.138 0 .603-.237 1.087a3.2 3.2 0 0 1-.623.89q-.385.396-.85.782l-1.336 1.097h3.066v1.128zm6.691 0 4.48-6.992h1.236l-4.45 6.992zm5.024.069q-.495 0-.86-.208a1.6 1.6 0 0 1-.564-.593 1.8 1.8 0 0 1-.198-.86q0-.505.198-.881.208-.375.573-.583t.86-.208q.485 0 .831.208.356.198.554.574.198.365.198.87 0 .504-.208.88-.198.375-.554.593a1.6 1.6 0 0 1-.83.208m-.01-.93a.64.64 0 0 0 .376-.099.57.57 0 0 0 .207-.276q.06-.169.06-.356a.9.9 0 0 0-.07-.356.53.53 0 0 0-.197-.267.6.6 0 0 0-.376-.109q-.357 0-.514.227a.83.83 0 0 0-.149.514q0 .288.158.505.159.217.505.217m-4.282-2.887q-.495 0-.86-.208a1.5 1.5 0 0 1-.554-.593 1.9 1.9 0 0 1-.188-.861q0-.504.197-.88.198-.375.564-.583t.86-.208q.486 0 .841.208.356.198.544.573.198.366.198.871 0 .494-.198.88-.198.375-.554.593-.355.207-.85.208m0-.93a.64.64 0 0 0 .376-.099.67.67 0 0 0 .207-.277 1 1 0 0 0 .07-.356.9.9 0 0 0-.07-.356.6.6 0 0 0-.207-.267.6.6 0 0 0-.376-.108q-.357 0-.515.227a.86.86 0 0 0-.158.504q.01.288.158.515.158.217.515.217M115.503 119.14v-5.291h-1.385v-.9q.406-.02.722-.089a1.6 1.6 0 0 0 .564-.237q.257-.168.455-.475h.88v6.992zm5.448.079q-.732 0-1.256-.277a2.34 2.34 0 0 1-.851-.752 3.4 3.4 0 0 1-.484-1.088 5.4 5.4 0 0 1-.149-1.285q0-.762.158-1.434.169-.682.515-1.197.345-.524.89-.82.553-.307 1.305-.307.564 0 1.038.198.485.197.811.593t.445.989h-1.186a1 1 0 0 0-.455-.485 1.34 1.34 0 0 0-.683-.178 1.44 1.44 0 0 0-1.147.525 1.8 1.8 0 0 0-.316.534 3.536 3.536 0 0 0-.238 1.275q.238-.345.544-.534.307-.198.643-.277.336-.089.633-.089.702 0 1.197.277.504.277.781.782.277.494.277 1.166 0 .722-.317 1.256a2.2 2.2 0 0 1-.88.831 2.66 2.66 0 0 1-1.275.297m-.01-1.118q.386-.009.662-.168.278-.158.425-.425.159-.277.159-.603 0-.346-.149-.613a1.1 1.1 0 0 0-.425-.436 1.2 1.2 0 0 0-.643-.168q-.356 0-.652.159-.297.147-.475.425a1.1 1.1 0 0 0-.178.623q0 .326.158.603.168.267.455.435t.663.168m4.312 1.039 4.48-6.992h1.236l-4.45 6.992zm5.024.069a1.7 1.7 0 0 1-.861-.208 1.6 1.6 0 0 1-.564-.593 1.8 1.8 0 0 1-.197-.861q0-.504.197-.88.208-.375.574-.583t.86-.208q.485 0 .831.208.356.198.554.573.198.366.198.871 0 .504-.208.88a1.5 1.5 0 0 1-.554.593 1.6 1.6 0 0 1-.83.208m-.01-.93a.63.63 0 0 0 .375-.099.56.56 0 0 0 .208-.277q.06-.168.059-.356a.9.9 0 0 0-.069-.356.53.53 0 0 0-.198-.267.6.6 0 0 0-.375-.108q-.356 0-.515.227a.83.83 0 0 0-.148.514q0 .288.158.505.159.217.505.217m-4.282-2.887q-.495 0-.861-.208a1.5 1.5 0 0 1-.554-.593 1.9 1.9 0 0 1-.187-.861q0-.504.197-.88.198-.375.564-.583t.86-.208q.485 0 .841.208.356.198.544.573.198.366.198.87 0 .495-.198.881-.198.375-.554.593a1.66 1.66 0 0 1-.85.208m0-.93a.63.63 0 0 0 .375-.099.66.66 0 0 0 .208-.277 1 1 0 0 0 .069-.356.9.9 0 0 0-.069-.356.593.593 0 0 0-.583-.376q-.357 0-.515.228a.87.87 0 0 0-.158.504 1 1 0 0 0 .158.514q.158.219.515.218M171.747 117.904v-5.291h-1.384v-.9q.405-.02.722-.089.315-.069.563-.237.258-.17.455-.475h.88v6.992zm5.448.079q-.732 0-1.256-.277a2.34 2.34 0 0 1-.851-.752 3.4 3.4 0 0 1-.484-1.088 5.4 5.4 0 0 1-.149-1.285q0-.762.159-1.434a3.7 3.7 0 0 1 .514-1.197q.346-.524.89-.821.554-.306 1.305-.306.564 0 1.039.198.484.197.811.593.325.395.445.989h-1.187a.98.98 0 0 0-.455-.485 1.34 1.34 0 0 0-.682-.178 1.44 1.44 0 0 0-1.148.524q-.197.228-.316.535a3.5 3.5 0 0 0-.237 1.275q.237-.347.544-.534a2 2 0 0 1 .642-.277q.336-.089.633-.089.702 0 1.197.277.504.277.781.781.277.495.277 1.167 0 .722-.316 1.256a2.2 2.2 0 0 1-.881.831 2.66 2.66 0 0 1-1.275.297m-.01-1.118q.386-.009.662-.168.278-.158.426-.425.158-.277.158-.603 0-.347-.149-.614a1.1 1.1 0 0 0-.425-.435 1.2 1.2 0 0 0-.643-.168 1.4 1.4 0 0 0-.652.158 1.2 1.2 0 0 0-.475.426 1.1 1.1 0 0 0-.178.623q0 .326.158.603.168.267.455.435t.663.168m4.312 1.039 4.48-6.992h1.236l-4.45 6.992zm5.024.069a1.7 1.7 0 0 1-.861-.208 1.6 1.6 0 0 1-.563-.593 1.8 1.8 0 0 1-.198-.861q0-.504.198-.88.207-.375.573-.583a1.7 1.7 0 0 1 .861-.208q.484 0 .83.208.357.198.554.573.198.366.198.871 0 .504-.208.88a1.5 1.5 0 0 1-.554.593 1.6 1.6 0 0 1-.83.208m-.01-.93a.64.64 0 0 0 .376-.099.57.57 0 0 0 .207-.277q.06-.168.06-.356a.9.9 0 0 0-.07-.356.54.54 0 0 0-.197-.267.6.6 0 0 0-.376-.108q-.357 0-.514.227a.83.83 0 0 0-.149.514q0 .287.158.505.159.217.505.217m-4.282-2.887q-.495 0-.861-.208a1.5 1.5 0 0 1-.553-.593 1.9 1.9 0 0 1-.188-.861q0-.504.197-.88.198-.376.564-.583a1.7 1.7 0 0 1 .861-.208q.484 0 .84.208.356.197.544.573.198.366.198.87 0 .495-.198.881a1.5 1.5 0 0 1-.554.593 1.66 1.66 0 0 1-.85.208m0-.93a.64.64 0 0 0 .376-.099.67.67 0 0 0 .207-.277 1 1 0 0 0 .069-.356.9.9 0 0 0-.069-.356.6.6 0 0 0-.207-.267.6.6 0 0 0-.376-.109q-.357 0-.515.228a.87.87 0 0 0-.158.504q.01.287.158.514.159.218.515.218M223.048 108.014v-5.29h-1.385v-.9q.406-.02.722-.089.317-.07.564-.238a1.6 1.6 0 0 0 .455-.474h.88v6.991zm5.447.08q-.731 0-1.255-.277a2.35 2.35 0 0 1-.851-.752 3.4 3.4 0 0 1-.485-1.088 5.5 5.5 0 0 1-.148-1.285q0-.762.158-1.434a3.7 3.7 0 0 1 .515-1.197q.345-.524.89-.821.553-.306 1.305-.306.564 0 1.038.198.485.197.811.593t.445.989h-1.186a1 1 0 0 0-.455-.485 1.34 1.34 0 0 0-.683-.178 1.44 1.44 0 0 0-1.147.524q-.198.228-.316.534a3.555 3.555 0 0 0-.238 1.276q.238-.346.544-.534.307-.198.643-.277.336-.089.633-.089.702 0 1.197.277.504.277.781.781.276.495.277 1.167 0 .722-.317 1.256a2.2 2.2 0 0 1-.88.831q-.553.297-1.276.297m-.009-1.118q.386-.01.662-.168.277-.158.425-.425.159-.277.159-.604 0-.346-.149-.613a1.1 1.1 0 0 0-.425-.435 1.2 1.2 0 0 0-.643-.168q-.356 0-.652.158a1.2 1.2 0 0 0-.475.426 1.1 1.1 0 0 0-.178.623q0 .326.158.603.168.267.455.435t.663.168m4.312 1.038 4.48-6.991h1.236l-4.45 6.991zm5.023.07a1.7 1.7 0 0 1-.86-.208 1.6 1.6 0 0 1-.564-.593 1.83 1.83 0 0 1-.197-.861q0-.504.197-.88.208-.375.574-.583t.86-.208q.484 0 .831.208.356.197.554.573.198.366.198.87 0 .505-.208.881-.198.375-.554.593a1.6 1.6 0 0 1-.831.208m-.009-.93a.63.63 0 0 0 .375-.099.57.57 0 0 0 .208-.277q.06-.168.059-.356a.9.9 0 0 0-.069-.356.53.53 0 0 0-.198-.267.6.6 0 0 0-.375-.109q-.357 0-.515.228a.83.83 0 0 0-.148.514q0 .287.158.504.159.219.505.218m-4.282-2.888a1.7 1.7 0 0 1-.861-.207 1.5 1.5 0 0 1-.554-.594 1.9 1.9 0 0 1-.188-.86q0-.505.198-.88.198-.376.564-.584t.86-.207q.485 0 .841.207.356.198.544.574.198.366.198.87 0 .495-.198.88a1.5 1.5 0 0 1-.554.594 1.66 1.66 0 0 1-.85.207m0-.929a.63.63 0 0 0 .375-.099.67.67 0 0 0 .208-.277 1 1 0 0 0 .069-.356.9.9 0 0 0-.069-.356.587.587 0 0 0-.583-.376q-.356 0-.515.228a.86.86 0 0 0-.158.504 1 1 0 0 0 .158.514q.159.218.515.218M274.039 106.778v-5.29h-1.384v-.9q.405-.02.722-.089.315-.07.563-.238.257-.168.455-.474h.88v6.991zm2.985 0 2.73-5.854h-3.462v-1.137h4.846v.929l-2.739 6.062zm4.678.119a.78.78 0 0 1-.544-.208q-.217-.207-.217-.563 0-.357.227-.564a.76.76 0 0 1 .544-.218q.317 0 .534.218.218.207.218.564 0 .356-.218.563a.75.75 0 0 1-.544.208m4.583-.04q-.731 0-1.255-.276a2.35 2.35 0 0 1-.851-.752 3.4 3.4 0 0 1-.484-1.088 5.4 5.4 0 0 1-.149-1.285q0-.762.158-1.434a3.7 3.7 0 0 1 .515-1.197q.345-.524.89-.821.553-.306 1.305-.306.564 0 1.038.197.485.198.811.594t.445.989h-1.186a1 1 0 0 0-.455-.485 1.33 1.33 0 0 0-.683-.178 1.45 1.45 0 0 0-1.147.524q-.198.228-.316.534a3.555 3.555 0 0 0-.238 1.276q.238-.347.544-.534.307-.198.643-.277.336-.089.633-.089.702 0 1.197.277.504.277.781.781.276.495.277 1.167 0 .722-.317 1.256a2.2 2.2 0 0 1-.88.831q-.553.296-1.276.296m-.009-1.117q.386-.01.662-.168.278-.158.425-.425.159-.277.159-.604 0-.346-.149-.613a1.1 1.1 0 0 0-.425-.435 1.2 1.2 0 0 0-.643-.168q-.356 0-.652.158a1.2 1.2 0 0 0-.475.425 1.1 1.1 0 0 0-.178.623q0 .327.158.604.168.267.455.435.286.168.663.168m4.312 1.038 4.48-6.991h1.236l-4.45 6.991zm5.023.07a1.7 1.7 0 0 1-.86-.208 1.6 1.6 0 0 1-.564-.593 1.83 1.83 0 0 1-.197-.861q0-.504.197-.88.208-.376.574-.583.366-.208.86-.208.485 0 .831.208.356.197.554.573.198.366.198.87 0 .505-.208.881a1.5 1.5 0 0 1-.554.593 1.6 1.6 0 0 1-.831.208m-.009-.93a.63.63 0 0 0 .375-.099.57.57 0 0 0 .208-.277q.06-.168.059-.356a.9.9 0 0 0-.069-.356.53.53 0 0 0-.198-.267.6.6 0 0 0-.375-.109q-.356 0-.515.228a.83.83 0 0 0-.148.514q0 .286.158.504.159.218.505.218m-4.282-2.888a1.7 1.7 0 0 1-.861-.207 1.5 1.5 0 0 1-.554-.594 1.9 1.9 0 0 1-.187-.86q0-.505.197-.88.198-.376.564-.584t.86-.207q.485 0 .841.207.356.198.544.574.198.366.198.87 0 .495-.198.88a1.5 1.5 0 0 1-.554.594 1.66 1.66 0 0 1-.85.207m0-.929a.63.63 0 0 0 .375-.099.67.67 0 0 0 .208-.277 1 1 0 0 0 .069-.356.9.9 0 0 0-.069-.356.587.587 0 0 0-.583-.376q-.357 0-.515.228a.86.86 0 0 0-.158.504 1 1 0 0 0 .158.514q.158.218.515.218"/><defs><linearGradient id="a" x1="68.773" x2="68.216" y1="154.495" y2="225.599" gradientUnits="userSpaceOnUse"><stop stop-color="#60BD58"/><stop offset="1" stop-color="#60BD58" stop-opacity="0"/></linearGradient><linearGradient id="b" x1="122.545" x2="121.304" y1="130.39" y2="236.588" gradientUnits="userSpaceOnUse"><stop stop-color="#60BD58"/><stop offset="1" stop-color="#60BD58" stop-opacity="0"/></linearGradient><linearGradient id="c" x1="176.318" x2="175.077" y1="130.39" y2="236.588" gradientUnits="userSpaceOnUse"><stop stop-color="#60BD58"/><stop offset="1" stop-color="#60BD58" stop-opacity="0"/></linearGradient><linearGradient id="d" x1="230.09" x2="228.514" y1="121.119" y2="240.812" gradientUnits="userSpaceOnUse"><stop stop-color="#60BD58"/><stop offset="1" stop-color="#60BD58" stop-opacity="0"/></linearGradient><linearGradient id="e" x1="284.481" x2="282.759" y1="118.029" y2="243.119" gradientUnits="userSpaceOnUse"><stop stop-color="#60BD58"/><stop offset="1" stop-color="#60BD58" stop-opacity="0"/></linearGradient></defs></svg>