<svg xmlns="http://www.w3.org/2000/svg" width="324" height="241" fill="none"><rect width="324" height="239" fill="#fff" rx="16"/><path fill="#191919" d="M32.382 42.176q-1.825 0-3.19-.594a6.6 6.6 0 0 1-2.288-1.672q-.924-1.056-1.386-2.508t-.462-3.168.462-3.168q.462-1.474 1.386-2.53a6.4 6.4 0 0 1 2.288-1.65q1.365-.615 3.19-.616 1.804 0 3.168.616 1.364.594 2.288 1.65t1.386 2.53q.462 1.452.462 3.168t-.462 3.168-1.386 2.508a6.6 6.6 0 0 1-2.288 1.672q-1.364.594-3.168.594m0-14.168q-1.386 0-2.398.506a4.55 4.55 0 0 0-1.672 1.342 6 6 0 0 0-.99 2.002 8.4 8.4 0 0 0-.33 2.376q0 1.254.308 2.376.33 1.122.99 1.98t1.672 1.364q1.034.484 2.42.484t2.398-.484a4.66 4.66 0 0 0 1.65-1.342q.66-.858.968-1.98a8.5 8.5 0 0 0 .33-2.398q0-1.276-.33-2.398-.308-1.145-.968-1.98a4.55 4.55 0 0 0-1.672-1.342q-1.012-.506-2.376-.506m8.508 2.398h2.112l3.652 9.79 3.586-9.79h2.134L47.908 42h-2.552zm14.567 6.49q.066.77.308 1.43.264.638.704 1.122t1.078.77q.66.264 1.518.264.419 0 .858-.066.462-.088.858-.264.396-.197.704-.506.309-.308.462-.748h1.914a3.7 3.7 0 0 1-.682 1.452q-.462.615-1.122 1.012a5 5 0 0 1-1.43.594 7.4 7.4 0 0 1-1.606.176q-1.385 0-2.42-.44a4.8 4.8 0 0 1-1.694-1.21 5.1 5.1 0 0 1-1.012-1.87 8.3 8.3 0 0 1-.33-2.398q0-1.297.352-2.376a5.7 5.7 0 0 1 1.056-1.892 4.7 4.7 0 0 1 1.672-1.232q.99-.44 2.354-.44 1.386 0 2.398.55t1.628 1.452q.616.88.858 1.914.264 1.034.22 1.914a4 4 0 0 1-.022.396 4 4 0 0 1-.022.396zm6.754-1.628q-.044-1.474-.924-2.398t-2.354-.924q-.814 0-1.43.264-.615.264-1.034.726a3.5 3.5 0 0 0-.66 1.078 4.5 4.5 0 0 0-.308 1.254zM66.617 42V30.406h1.804l.088 1.804q.638-1.012 1.628-1.474t2.244-.462h.594v1.76h-.682q-1.034 0-1.76.352-.726.33-1.188.924a3.9 3.9 0 0 0-.66 1.364 7 7 0 0 0-.198 1.672V42zm15.84-1.474q-.374.506-.857.814-.484.308-1.012.484a5 5 0 0 1-1.034.242 8 8 0 0 1-1.012.066 5.8 5.8 0 0 1-1.54-.198 3.9 3.9 0 0 1-1.32-.638 3.4 3.4 0 0 1-.924-1.1 3.3 3.3 0 0 1-.33-1.496q0-.99.352-1.65.373-.682.99-1.1.615-.419 1.408-.572a8 8 0 0 1 1.716-.176h3.41q0-1.474-.638-2.332-.638-.88-2.156-.924-.925 0-1.628.308-.705.308-.968 1.012h-2.002q.154-.792.616-1.342a3.7 3.7 0 0 1 1.1-.924q.638-.375 1.386-.55a6.5 6.5 0 0 1 1.496-.176q1.297 0 2.178.44.9.419 1.452 1.122.55.682.77 1.672t.22 2.222V42h-1.562zm-2.2-3.762q-.527 0-1.231.022-.683 0-1.32.132-.639.132-1.034.55-.374.418-.374 1.1 0 .505.198.858.198.352.528.594.351.242.792.352.44.11.902.11 1.65 0 2.596-.792.967-.814.99-2.354v-.572zM87.028 42V26.446h1.87V42zm10.742 0V30.406h1.804l.088 1.804q.638-1.012 1.628-1.474t2.244-.462h.594v1.76h-.682q-1.034 0-1.76.352-.726.33-1.188.924a3.95 3.95 0 0 0-.66 1.364 7 7 0 0 0-.198 1.672V42zm15.841-1.474a3.2 3.2 0 0 1-.858.814q-.484.308-1.012.484a5 5 0 0 1-1.034.242 8 8 0 0 1-1.012.066 5.8 5.8 0 0 1-1.54-.198 3.9 3.9 0 0 1-1.32-.638 3.4 3.4 0 0 1-.924-1.1 3.3 3.3 0 0 1-.33-1.496q0-.99.352-1.65a3.1 3.1 0 0 1 .99-1.1q.616-.419 1.408-.572a8 8 0 0 1 1.716-.176h3.41q0-1.474-.638-2.332-.638-.88-2.156-.924-.924 0-1.628.308a1.73 1.73 0 0 0-.968 1.012h-2.002q.154-.792.616-1.342.462-.572 1.1-.924a5 5 0 0 1 1.386-.55 6.5 6.5 0 0 1 1.496-.176q1.297 0 2.178.44.901.419 1.452 1.122.55.682.77 1.672t.22 2.222V42h-1.562zm-2.2-3.762q-.528 0-1.232.022-.683 0-1.32.132-.638.132-1.034.55-.374.418-.374 1.1 0 .505.198.858.198.352.528.594.352.242.792.352t.902.11q1.65 0 2.596-.792.967-.814.99-2.354v-.572zm9.695-6.358h3.102v1.65h-3.102v6.006q0 1.188.462 1.76.462.55 1.716.55h.858V42h-1.254q-1.98 0-2.816-.902-.836-.901-.836-2.838v-6.204h-1.892v-1.65h1.892v-3.454h1.87zm6.295-4.246q.527 0 .902.352.374.33.374.88t-.374.902a1.27 1.27 0 0 1-.902.352q-.55 0-.902-.352t-.352-.902.352-.88q.351-.352.902-.352M126.476 42V30.406h1.87V42zm4.98 0V30.406h1.804l.088 1.76q.287-.484.704-.836.44-.352.946-.594a4.5 4.5 0 0 1 1.056-.352q.572-.11 1.1-.11 1.254 0 2.112.418a3.3 3.3 0 0 1 1.364 1.122q.507.705.726 1.694a9.4 9.4 0 0 1 .22 2.09V42h-1.87v-5.896q0-.814-.11-1.562a3.6 3.6 0 0 0-.396-1.32 2.26 2.26 0 0 0-.836-.946q-.55-.352-1.474-.352a3.25 3.25 0 0 0-1.606.44 3.8 3.8 0 0 0-1.1.99 4.2 4.2 0 0 0-.682 1.606 8.7 8.7 0 0 0-.176 1.738V42zm23.338-.088q0 2.464-1.32 3.872t-3.982 1.408a7.2 7.2 0 0 1-1.694-.198 4.6 4.6 0 0 1-1.452-.638 4 4 0 0 1-1.1-1.078q-.44-.638-.616-1.54h1.936q.132.506.44.836.33.352.748.55.419.22.902.308t.946.088q.88 0 1.518-.286.639-.264 1.034-.748a3 3 0 0 0 .572-1.166q.198-.66.198-1.452v-1.606a3.27 3.27 0 0 1-1.628 1.452 5.9 5.9 0 0 1-2.2.418q-1.32-.022-2.288-.462a4.34 4.34 0 0 1-1.584-1.254 5.5 5.5 0 0 1-.924-1.848 9 9 0 0 1-.286-2.332q0-1.254.308-2.332.309-1.1.946-1.892a4.44 4.44 0 0 1 1.606-1.276q.969-.462 2.31-.462 1.013 0 2.046.374 1.035.375 1.694 1.21l.088-1.452h1.782zm-5.456-9.966q-.945 0-1.606.352-.66.33-1.078.902a4.1 4.1 0 0 0-.594 1.364 7.4 7.4 0 0 0-.176 1.65q0 .968.176 1.716.177.726.594 1.298.418.572 1.078.924.66.33 1.628.33 1.122 0 1.848-.528a4 4 0 0 0 1.166-1.32q.309-.55.44-1.188.132-.66.132-1.298 0-.792-.154-1.452a3.5 3.5 0 0 0-.506-1.232 3.75 3.75 0 0 0-1.166-1.078q-.726-.44-1.782-.44"/><rect width="61.857" height="38.571" x="24" y="55.429" fill="#F0FFF9" rx="6.286"/><path fill="#16AE6E" d="m35.88 84.715 8.674-18.606h-11v-3.614h15.4v2.954L40.25 84.715zm14.867.377q-1.006 0-1.728-.66-.692-.66-.692-1.792 0-1.131.723-1.791a2.41 2.41 0 0 1 1.729-.692q1.005 0 1.697.692.69.66.691 1.791 0 1.132-.691 1.792-.692.66-1.729.66m14.323-.126q-2.42 0-4.117-.848a7.2 7.2 0 0 1-2.734-2.452q-1.037-1.571-1.54-3.614-.471-2.043-.471-4.4 0-2.389.471-4.463.503-2.075 1.54-3.614a7.4 7.4 0 0 1 2.766-2.452q1.697-.91 4.117-.911 2.482 0 4.18.943 1.728.943 2.734 2.545 1.037 1.603 1.477 3.646a19 19 0 0 1 .472 4.274q0 2.2-.472 4.243-.44 2.043-1.477 3.646a7.5 7.5 0 0 1-2.766 2.546q-1.696.91-4.18.911m0-3.583q1.603 0 2.578-.754a4.7 4.7 0 0 0 1.508-1.917 9.3 9.3 0 0 0 .66-2.546q.189-1.351.189-2.546t-.157-2.514a9.3 9.3 0 0 0-.66-2.546 4.74 4.74 0 0 0-1.478-1.948q-.975-.754-2.608-.754-1.635-.001-2.64.754a4.74 4.74 0 0 0-1.477 1.948 9.7 9.7 0 0 0-.692 2.515 22 22 0 0 0-.157 2.545q0 1.194.157 2.546.158 1.32.629 2.514a4.74 4.74 0 0 0 1.477 1.949q1.005.754 2.671.754"/><path fill="#626C70" d="m25.5 150 4.29-9.405h-5.61v-1.2h7.05v1.08L26.94 150zm11.121 2.85v-10.755h1.215l.06 1.185q.405-.615 1.095-.93.705-.33 1.515-.345.915 0 1.545.315.645.3 1.065.855.435.54.645 1.29.21.735.21 1.59 0 .87-.21 1.605t-.645 1.275-1.095.855q-.66.3-1.575.3-.9 0-1.53-.285t-1.02-.795v3.84zm3.72-3.885q.645 0 1.08-.225.45-.24.72-.63.285-.405.405-.93.135-.525.15-1.125 0-.6-.135-1.125a2.5 2.5 0 0 0-.405-.93q-.285-.39-.75-.615-.45-.24-1.095-.24-.765 0-1.32.42-.555.405-.84 1.035-.165.345-.225.72-.06.36-.06.75 0 .45.06.84.06.375.225.72.285.57.825.96.555.375 1.365.375m8.813-6.96q.945 0 1.635.3t1.155.84q.48.54.705 1.29.24.735.24 1.62t-.24 1.635q-.225.735-.705 1.275-.465.525-1.17.825t-1.65.3-1.65-.3q-.69-.3-1.17-.825a3.7 3.7 0 0 1-.705-1.275 5.7 5.7 0 0 1-.225-1.635q0-.885.225-1.62.24-.75.705-1.29.48-.54 1.2-.84t1.65-.3m-.03 6.96q.645 0 1.11-.225.48-.225.78-.615.315-.405.45-.93.15-.525.15-1.14 0-.6-.15-1.125-.135-.54-.45-.93-.3-.405-.78-.63-.465-.225-1.11-.225t-1.11.225-.78.63q-.3.39-.45.93-.135.525-.135 1.125 0 .615.135 1.14.15.525.45.93.315.39.78.615t1.11.225m6.206-9.765q.36 0 .615.24.255.225.255.6t-.255.615a.87.87 0 0 1-.615.24.83.83 0 0 1-.615-.24.83.83 0 0 1-.24-.615q0-.375.24-.6.24-.24.615-.24M54.7 150v-7.905h1.275V150zm3.396 0v-7.905h1.23l.06 1.2q.195-.33.48-.57.3-.24.645-.405t.72-.24q.39-.075.75-.075.855 0 1.44.285.585.27.93.765.345.48.495 1.155.15.66.15 1.425V150H63.72v-4.02q0-.555-.075-1.065-.06-.51-.27-.9-.195-.405-.57-.645t-1.005-.24q-.615.015-1.095.3-.465.285-.75.675-.345.495-.465 1.095-.12.585-.12 1.185V150zm10.857-7.905h2.43v1.125h-2.43v4.11q0 .345.03.645.045.285.15.51.12.21.33.345.225.12.6.135.345 0 .6-.12.27-.12.45-.285l.555.93q-.39.33-.81.465t-.93.135q-.645 0-1.08-.18a2 2 0 0 1-.735-.555q-.255-.345-.345-.81t-.09-1.05v-4.275h-1.29v-1.125h1.29v-2.37h1.275zm6.772 1.05q-.27 0-.555.045-.27.03-.54.15-.255.105-.45.33-.18.21-.195.57 0 .51.375.765.39.255 1.005.375.255.06.555.12.3.045.585.105a7 7 0 0 1 1.005.225q1.44.45 1.44 1.935-.015.72-.315 1.17-.285.435-.735.69-.435.255-1.005.36-.555.105-1.11.105-.54 0-1.095-.105t-1.02-.36q-.45-.27-.78-.69-.315-.435-.405-1.08h1.29q.12.36.375.57t.54.33q.3.12.555.165.27.045.6.045.24 0 .555-.03t.6-.135q.285-.12.48-.345t.195-.63q0-.45-.3-.675-.285-.225-.795-.33-.36-.075-.75-.135l-.765-.15q-.375-.09-.735-.195a3.2 3.2 0 0 1-.675-.315q-.42-.255-.675-.69t-.255-1.065q.03-.66.3-1.08.27-.435.69-.705.45-.27.96-.375t1.08-.105q1.215 0 1.935.525.435.3.675.72t.3.885H77.48q-.105-.435-.57-.705t-1.185-.285m10.145-.105q.375-.525.915-.78.555-.255 1.23-.255.825.015 1.335.36t.765.915q.405-.6.99-.93.6-.345 1.41-.345.645 0 1.11.225.465.21.75.6.285.375.42.885t.135 1.11V150h-1.275v-4.53q0-.39-.045-.795-.03-.42-.18-.75-.15-.345-.45-.555-.3-.225-.81-.225-.495 0-.84.24-.345.225-.555.6-.195.375-.285.825t-.09.885V150h-1.275v-4.545q0-.375-.03-.78-.03-.42-.18-.75a1.23 1.23 0 0 0-.42-.555q-.285-.225-.795-.225-.54 0-.9.24-.345.24-.57.615-.21.375-.3.84-.075.45-.075.87V150H84.58v-7.905h1.23zm11.99 3.48q.045.525.21.975.18.435.48.765t.735.525q.45.18 1.035.18.285 0 .585-.045.315-.06.585-.18.27-.135.48-.345t.315-.51h1.305q-.135.57-.465.99-.315.42-.765.69-.435.27-.975.405-.54.12-1.095.12-.945 0-1.65-.3-.69-.3-1.155-.825-.465-.54-.69-1.275a5.7 5.7 0 0 1-.225-1.635q0-.885.24-1.62.255-.75.72-1.29t1.14-.84 1.605-.3q.945 0 1.635.375t1.11.99q.42.6.585 1.305.18.705.15 1.305 0 .135-.015.27 0 .135-.015.27zm4.605-1.11q-.03-1.005-.63-1.635t-1.605-.63q-.555 0-.975.18t-.705.495-.45.735q-.165.405-.21.855zm8.209 3.585q-.255.345-.585.555t-.69.33q-.345.12-.705.165-.345.045-.69.045-.555 0-1.05-.135t-.9-.435q-.39-.3-.63-.75a2.25 2.25 0 0 1-.225-1.02q0-.675.24-1.125.255-.465.675-.75t.96-.39q.555-.12 1.17-.12h2.325q0-1.005-.435-1.59-.435-.6-1.47-.63-.63 0-1.11.21t-.66.69h-1.365q.105-.54.42-.915.315-.39.75-.63.435-.255.945-.375t1.02-.12q.885 0 1.485.3.615.285.99.765.375.465.525 1.14t.15 1.515V150h-1.065zm-1.5-2.565q-.36 0-.84.015-.465 0-.9.09t-.705.375q-.255.285-.255.75 0 .345.135.585t.36.405q.24.165.54.24t.615.075q1.125 0 1.77-.54.66-.555.675-1.605v-.39zm4.615 3.57v-7.905h1.23l.06 1.2q.195-.33.48-.57.3-.24.645-.405t.72-.24q.39-.075.75-.075.855 0 1.44.285.585.27.93.765.345.48.495 1.155.15.66.15 1.425V150h-1.275v-4.02q0-.555-.075-1.065-.06-.51-.27-.9-.195-.405-.57-.645t-1.005-.24q-.615.015-1.095.3-.465.285-.75.675-.345.495-.465 1.095-.12.585-.12 1.185V150zm11.682-6.855q-.27 0-.555.045-.27.03-.54.15-.255.105-.45.33-.18.21-.195.57 0 .51.375.765.39.255 1.005.375.255.06.555.12.3.045.585.105a7 7 0 0 1 1.005.225q1.44.45 1.44 1.935-.015.72-.315 1.17-.285.435-.735.69-.435.255-1.005.36-.555.105-1.11.105-.54 0-1.095-.105t-1.02-.36q-.45-.27-.78-.69-.315-.435-.405-1.08h1.29q.12.36.375.57t.54.33q.3.12.555.165.27.045.6.045.24 0 .555-.03t.6-.135q.285-.12.48-.345t.195-.63q0-.45-.3-.675-.285-.225-.795-.33-.36-.075-.75-.135l-.765-.15q-.375-.09-.735-.195a3.2 3.2 0 0 1-.675-.315q-.42-.255-.675-.69t-.255-1.065q.03-.66.3-1.08.27-.435.69-.705.45-.27.96-.375t1.08-.105q1.215 0 1.935.525.435.3.675.72t.3.885h-1.185q-.105-.435-.57-.705t-1.185-.285m10.85-1.05h2.115v1.125h-2.115v4.095q0 .81.315 1.2.315.375 1.17.375h.585V150h-.855q-1.35 0-1.92-.615t-.57-1.935v-4.23h-1.29v-1.125h1.29v-2.355h1.275zm3.557 7.905v-10.605h1.275v3.915q.195-.3.495-.555t.63-.42.72-.24q.405-.09.78-.09.855 0 1.425.285.585.27.93.765.36.48.495 1.155.15.66.15 1.44V150h-1.275v-3.96q0-.54-.06-1.05a2.7 2.7 0 0 0-.27-.93q-.21-.405-.6-.66-.39-.27-1.065-.27-.555 0-1.035.285-.465.27-.75.69-.345.465-.465 1.035-.105.57-.105 1.17V150zm14.067-1.005q-.255.345-.585.555t-.69.33q-.345.12-.705.165-.345.045-.69.045-.555 0-1.05-.135t-.9-.435q-.39-.3-.63-.75a2.25 2.25 0 0 1-.225-1.02q0-.675.24-1.125.255-.465.675-.75t.96-.39q.555-.12 1.17-.12h2.325q0-1.005-.435-1.59-.435-.6-1.47-.63-.63 0-1.11.21t-.66.69H148.8q.105-.54.42-.915.315-.39.75-.63.435-.255.945-.375t1.02-.12q.885 0 1.485.3.615.285.99.765.375.465.525 1.14t.15 1.515V150h-1.065zm-1.5-2.565q-.36 0-.84.015-.465 0-.9.09t-.705.375q-.255.285-.255.75 0 .345.135.585t.36.405q.24.165.54.24t.615.075q1.125 0 1.77-.54.66-.555.675-1.605v-.39zm6.611-4.335h2.43v1.125h-2.43v4.11q0 .345.03.645.045.285.15.51.12.21.33.345.225.12.6.135.345 0 .6-.12.27-.12.45-.285l.555.93q-.39.33-.81.465t-.93.135q-.645 0-1.08-.18a2 2 0 0 1-.735-.555q-.255-.345-.345-.81t-.09-1.05v-4.275h-1.29v-1.125h1.29v-2.37h1.275zm9.99 0h2.115v1.125h-2.115v4.095q0 .81.315 1.2.315.375 1.17.375h.585V150h-.855q-1.35 0-1.92-.615t-.57-1.935v-4.23h-1.29v-1.125h1.29v-2.355h1.275zm3.557 7.905v-10.605h1.275v3.915q.195-.3.495-.555t.63-.42.72-.24q.405-.09.78-.09.855 0 1.425.285.585.27.93.765.36.48.495 1.155.15.66.15 1.44V150h-1.275v-3.96q0-.54-.06-1.05a2.7 2.7 0 0 0-.27-.93q-.21-.405-.6-.66-.39-.27-1.065-.27-.555 0-1.035.285-.465.27-.75.69-.345.465-.465 1.035-.105.57-.105 1.17V150zm9.852-3.48q.045.525.21.975.18.435.48.765t.735.525q.45.18 1.035.18.285 0 .585-.045.315-.06.585-.18.27-.135.48-.345t.315-.51h1.305q-.135.57-.465.99-.315.42-.765.69-.435.27-.975.405-.54.12-1.095.12-.945 0-1.65-.3-.69-.3-1.155-.825-.465-.54-.69-1.275a5.7 5.7 0 0 1-.225-1.635q0-.885.24-1.62.255-.75.72-1.29t1.14-.84 1.605-.3q.945 0 1.635.375t1.11.99q.42.6.585 1.305.18.705.15 1.305 0 .135-.015.27 0 .135-.015.27zm4.605-1.11q-.03-1.005-.63-1.635t-1.605-.63q-.555 0-.975.18t-.705.495-.45.735q-.165.405-.21.855zm7.047 7.44v-10.755h1.215l.06 1.185q.405-.615 1.095-.93.705-.33 1.515-.345.915 0 1.545.315.645.3 1.065.855.435.54.645 1.29.21.735.21 1.59 0 .87-.21 1.605t-.645 1.275-1.095.855q-.66.3-1.575.3-.9 0-1.53-.285t-1.02-.795v3.84zm3.72-3.885q.645 0 1.08-.225.45-.24.72-.63.285-.405.405-.93.135-.525.15-1.125 0-.6-.135-1.125a2.5 2.5 0 0 0-.405-.93q-.285-.39-.75-.615-.45-.24-1.095-.24-.765 0-1.32.42-.555.405-.84 1.035-.165.345-.225.72-.06.36-.06.75 0 .45.06.84.06.375.225.72.285.57.825.96.555.375 1.365.375m5.332 1.035v-7.905h1.23l.06 1.23q.435-.69 1.11-1.005t1.53-.315h.405v1.2h-.465q-.705 0-1.2.24-.495.225-.81.63-.3.39-.45.93-.135.54-.135 1.14V150zm8.93-7.995q.945 0 1.635.3t1.155.84q.48.54.705 1.29.24.735.24 1.62t-.24 1.635q-.225.735-.705 1.275-.465.525-1.17.825t-1.65.3-1.65-.3q-.69-.3-1.17-.825a3.7 3.7 0 0 1-.705-1.275 5.7 5.7 0 0 1-.225-1.635q0-.885.225-1.62.24-.75.705-1.29.48-.54 1.2-.84t1.65-.3m-.03 6.96q.645 0 1.11-.225.48-.225.78-.615.315-.405.45-.93.15-.525.15-1.14 0-.6-.15-1.125-.135-.54-.45-.93-.3-.405-.78-.63-.465-.225-1.11-.225t-1.11.225-.78.63q-.3.39-.45.93-.135.525-.135 1.125 0 .615.135 1.14.15.525.45.93.315.39.78.615t1.11.225m5.47 3.885v-10.755h1.215l.06 1.185q.405-.615 1.095-.93.705-.33 1.515-.345.915 0 1.545.315.645.3 1.065.855.435.54.645 1.29.21.735.21 1.59 0 .87-.21 1.605t-.645 1.275-1.095.855q-.66.3-1.575.3-.9 0-1.53-.285t-1.02-.795v3.84zm3.72-3.885q.645 0 1.08-.225.45-.24.72-.63.285-.405.405-.93.135-.525.15-1.125 0-.6-.135-1.125a2.5 2.5 0 0 0-.405-.93q-.285-.39-.75-.615-.45-.24-1.095-.24-.765 0-1.32.42-.555.405-.84 1.035-.165.345-.225.72-.06.36-.06.75 0 .45.06.84.06.375.225.72.285.57.825.96.555.375 1.365.375m6.323-2.445q.045.525.21.975.18.435.48.765t.735.525q.45.18 1.035.18.285 0 .585-.045.315-.06.585-.18.27-.135.48-.345t.315-.51h1.305q-.135.57-.465.99-.315.42-.765.69-.435.27-.975.405-.54.12-1.095.12-.945 0-1.65-.3-.69-.3-1.155-.825-.465-.54-.69-1.275a5.7 5.7 0 0 1-.225-1.635q0-.885.24-1.62.255-.75.72-1.29t1.14-.84 1.605-.3q.945 0 1.635.375t1.11.99q.42.6.585 1.305.18.705.15 1.305 0 .135-.015.27 0 .135-.015.27zm4.605-1.11q-.03-1.005-.63-1.635t-1.605-.63q-.555 0-.975.18t-.705.495-.45.735q-.165.405-.21.855zm3.004 4.59v-7.905h1.23l.06 1.23q.435-.69 1.11-1.005t1.53-.315h.405v1.2h-.465q-.705 0-1.2.24-.495.225-.81.63-.3.39-.45.93-.135.54-.135 1.14V150zm7.59-7.905h2.43v1.125h-2.43v4.11q0 .345.03.645.045.285.15.51.12.21.33.345.225.12.6.135.345 0 .6-.12.27-.12.45-.285l.555.93q-.39.33-.81.465t-.93.135q-.645 0-1.08-.18a2 2 0 0 1-.735-.555q-.255-.345-.345-.81t-.09-1.05v-4.275h-1.29v-1.125h1.29v-2.37h1.275zm10.898 0V150q0 1.725-.9 2.625-.9.915-2.565.915-1.005-.015-1.815-.27-.795-.24-1.47-.87l.555-1.005q.585.465 1.245.735.675.27 1.41.27.615 0 1.05-.195.435-.18.705-.525.285-.33.405-.795.135-.465.135-1.005v-.945q-.195.3-.495.54-.285.225-.63.375-.33.135-.72.195-.375.075-.765.075-.9-.015-1.5-.285-.585-.27-.945-.75a3.1 3.1 0 0 1-.495-1.14q-.15-.675-.15-1.485v-4.365h1.275v4.005q0 .54.06 1.065.075.525.285.93t.615.66q.405.24 1.08.24t1.14-.285q.48-.285.735-.72.285-.45.375-.99.105-.54.105-1.11v-3.795zm6.783-2.895q.36 0 .615.24.255.225.255.6t-.255.615a.87.87 0 0 1-.615.24.83.83 0 0 1-.615-.24.83.83 0 0 1-.24-.615q0-.375.24-.6.24-.24.615-.24m-.63 10.8v-7.905h1.275V150zm6.216-6.855q-.27 0-.555.045-.27.03-.54.15-.255.105-.45.33-.18.21-.195.57 0 .51.375.765.39.255 1.005.375.255.06.555.12.3.045.585.105a7 7 0 0 1 1.005.225q1.44.45 1.44 1.935-.015.72-.315 1.17-.285.435-.735.69-.435.255-1.005.36-.555.105-1.11.105-.54 0-1.095-.105t-1.02-.36q-.45-.27-.78-.69-.315-.435-.405-1.08h1.29q.12.36.375.57t.54.33q.3.12.555.165.27.045.6.045.24 0 .555-.03t.6-.135q.285-.12.48-.345t.195-.63q0-.45-.3-.675-.285-.225-.795-.33-.36-.075-.75-.135l-.765-.15q-.375-.09-.735-.195a3.2 3.2 0 0 1-.675-.315q-.42-.255-.675-.69t-.255-1.065q.03-.66.3-1.08.27-.435.69-.705.45-.27.96-.375t1.08-.105q1.215 0 1.935.525.435.3.675.72t.3.885h-1.185q-.105-.435-.57-.705t-1.185-.285m9.59-3.945q.36 0 .615.24.255.225.255.6t-.255.615a.87.87 0 0 1-.615.24.83.83 0 0 1-.615-.24.83.83 0 0 1-.24-.615q0-.375.24-.6.24-.24.615-.24m-.63 10.8v-7.905h1.275V150zm3.396 0v-7.905h1.23l.06 1.2q.195-.33.48-.57.3-.24.645-.405t.72-.24q.39-.075.75-.075.855 0 1.44.285.585.27.93.765.345.48.495 1.155.15.66.15 1.425V150h-1.275v-4.02q0-.555-.075-1.065-.06-.51-.27-.9-.195-.405-.57-.645t-1.005-.24q-.615.015-1.095.3-.465.285-.75.675-.345.495-.465 1.095-.12.585-.12 1.185V150zM27 162.095h2.115v1.125H27v4.095q0 .81.315 1.2.315.375 1.17.375h.585V170h-.855q-1.35 0-1.92-.615t-.57-1.935v-4.23h-1.29v-1.125h1.29v-2.355H27zM30.557 170v-10.605h1.275v3.915q.195-.3.495-.555t.63-.42.72-.24q.405-.09.78-.09.855 0 1.425.285.585.27.93.765.36.48.495 1.155.15.66.15 1.44V170h-1.275v-3.96q0-.54-.06-1.05a2.7 2.7 0 0 0-.27-.93q-.21-.405-.6-.66-.39-.27-1.065-.27-.555 0-1.035.285-.465.27-.75.69-.345.465-.465 1.035-.105.57-.105 1.17V170zm9.852-3.48q.045.525.21.975.18.435.48.765t.735.525q.45.18 1.035.18.285 0 .585-.045.315-.06.585-.18.27-.135.48-.345t.315-.51h1.305q-.135.57-.465.99-.315.42-.765.69-.435.27-.975.405-.54.12-1.095.12-.945 0-1.65-.3-.69-.3-1.155-.825-.465-.54-.69-1.275a5.7 5.7 0 0 1-.225-1.635q0-.885.24-1.62.255-.75.72-1.29t1.14-.84 1.605-.3q.945 0 1.635.375t1.11.99q.42.6.585 1.305.18.705.15 1.305 0 .135-.015.27 0 .135-.015.27zm4.605-1.11q-.03-1.005-.63-1.635t-1.605-.63q-.555 0-.975.18t-.705.495-.45.735q-.165.405-.21.855zm9.507 4.59v-8.895h-3.315v-1.71h8.49v1.71H56.38V170zm11.069.12q-1.635 0-2.79-.69a4.6 4.6 0 0 1-1.755-1.92q-.6-1.23-.6-2.805 0-1.605.615-2.82.615-1.23 1.77-1.92 1.155-.705 2.79-.705t2.775.69q1.155.69 1.77 1.92.615 1.215.615 2.805 0 1.575-.615 2.805-.6 1.23-1.77 1.935-1.155.705-2.805.705m.03-1.74q1.14 0 1.86-.525t1.05-1.365q.345-.84.345-1.785 0-.72-.195-1.38a3.4 3.4 0 0 0-.585-1.185 2.7 2.7 0 0 0-1.005-.825q-.615-.315-1.47-.315-1.125 0-1.86.525-.72.525-1.065 1.365a4.7 4.7 0 0 0-.345 1.815q0 .96.345 1.8t1.065 1.365q.735.51 1.86.51m6.938 1.62v-10.605h3.99q1.2 0 2.07.375.885.36 1.365 1.155.495.795.495 2.085 0 1.23-.54 2.055t-1.47 1.245q-.93.405-2.13.405h-1.905V170zm1.875-4.965h1.875q1.035 0 1.665-.495t.63-1.56q0-.93-.525-1.395-.525-.48-1.62-.48h-2.025zM86.415 170l4.14-8.88h-5.25v-1.725h7.35v1.41L88.5 170zm11.427.12q-1.155 0-1.965-.405-.81-.42-1.305-1.17a5.5 5.5 0 0 1-.735-1.725 9.3 9.3 0 0 1-.225-2.1q0-1.14.225-2.13a5.3 5.3 0 0 1 .735-1.725q.51-.75 1.32-1.17.81-.435 1.965-.435 1.185 0 1.995.45.825.45 1.305 1.215.495.765.705 1.74.225.975.225 2.04 0 1.05-.225 2.025-.21.975-.705 1.74t-1.32 1.215q-.81.435-1.995.435m0-1.71q.765 0 1.23-.36.48-.36.72-.915.24-.57.315-1.215a8.8 8.8 0 0 0 .015-2.415 4.4 4.4 0 0 0-.315-1.215q-.24-.57-.705-.93t-1.245-.36-1.26.36q-.465.36-.705.93-.24.555-.33 1.2-.075.645-.075 1.215t.075 1.215q.075.63.3 1.2.24.57.705.93.48.36 1.275.36m7.052 1.59 6.795-10.605h1.875L106.814 170zm7.62.105q-.75 0-1.305-.315-.54-.33-.855-.9-.3-.57-.3-1.305 0-.765.3-1.335.315-.57.87-.885t1.305-.315q.735 0 1.26.315.54.3.84.87.3.555.3 1.32t-.315 1.335q-.3.57-.84.9-.54.315-1.26.315m-.015-1.41q.36 0 .57-.15a.87.87 0 0 0 .315-.42q.09-.255.09-.54t-.105-.54a.8.8 0 0 0-.3-.405q-.21-.165-.57-.165-.54 0-.78.345t-.225.78q0 .435.24.765t.765.33m-6.495-4.38q-.75 0-1.305-.315-.54-.33-.84-.9a2.9 2.9 0 0 1-.285-1.305q0-.765.3-1.335t.855-.885 1.305-.315q.735 0 1.275.315.54.3.825.87.3.555.3 1.32 0 .75-.3 1.335-.3.57-.84.9-.54.315-1.29.315m0-1.41q.36 0 .57-.15.21-.165.315-.42.105-.27.105-.54 0-.285-.105-.54a.9.9 0 0 0-.315-.405q-.21-.165-.57-.165-.54 0-.78.345t-.24.765q.015.435.24.78.24.33.78.33m18.37 7.2q-1.215 0-2.1-.495-.87-.495-1.35-1.41-.465-.915-.465-2.145 0-1.245.48-2.145a3.5 3.5 0 0 1 1.35-1.425q.87-.51 2.085-.51 1.2 0 2.07.51t1.335 1.44q.465.915.465 2.16 0 1.215-.465 2.13-.45.9-1.32 1.395t-2.085.495m-.015-1.665q.75 0 1.2-.33.465-.33.675-.87t.21-1.17-.21-1.185a1.87 1.87 0 0 0-.675-.885q-.45-.345-1.2-.345t-1.215.345q-.465.33-.675.885-.21.54-.21 1.185 0 .63.21 1.185.225.54.675.87.465.315 1.215.315m5.909 1.56v-6.285h-1.23v-1.62h1.23v-.75q0-.9.27-1.47.27-.585.855-.855.6-.27 1.53-.27h1.17v1.62h-.96q-.405 0-.63.135a.8.8 0 0 0-.33.405q-.09.255-.09.63v.555h2.01v1.62h-2.01V170zm12.588 0q-.96 0-1.59-.255-.615-.255-.93-.825-.3-.57-.3-1.53v-3.675h-1.215v-1.62h1.215v-2.205h1.83v2.205h1.845v1.62h-1.845v3.435q0 .6.21.915t.945.315h.63V170zm2.073 0v-10.605h1.83v3.72q.315-.405.735-.66t.885-.36q.465-.12.885-.12 1.125 0 1.77.495t.9 1.32q.27.825.27 1.86V170h-1.83v-4.035q0-.405-.06-.825t-.24-.75q-.165-.345-.51-.555-.33-.21-.885-.21-.525 0-.9.225-.375.21-.6.585-.21.375-.315.825t-.105.9V170zm12.534.105q-1.23 0-2.1-.51a3.35 3.35 0 0 1-1.305-1.41q-.435-.915-.435-2.115t.45-2.115a3.5 3.5 0 0 1 1.32-1.455q.87-.525 2.085-.525.9 0 1.575.33.675.315 1.125.87.465.555.69 1.26t.21 1.485l-.03.36q-.015.165-.045.36h-5.55q.045.525.27.96.24.435.66.69.435.255 1.08.255.375 0 .72-.09.345-.105.6-.3a.93.93 0 0 0 .36-.495h1.83q-.195.855-.72 1.395t-1.26.795q-.72.255-1.53.255m-1.98-4.83h3.81q0-.495-.225-.9t-.645-.63q-.405-.24-.99-.24-.63 0-1.05.255t-.645.66-.255.855m15.473 4.83q-.435 0-.87-.09t-.84-.315q-.39-.225-.72-.6l-.045.9h-1.77v-10.605h1.83v3.69q.435-.555 1.11-.825.69-.285 1.425-.285 1.17 0 1.92.54.765.525 1.125 1.44.375.915.375 2.07t-.39 2.085a3.2 3.2 0 0 1-1.155 1.455q-.78.54-1.995.54m-.3-1.62q.765 0 1.2-.345.45-.36.645-.93t.195-1.2q0-.645-.21-1.185-.195-.54-.645-.87t-1.2-.33q-.69 0-1.17.36-.465.345-.705.915-.24.555-.24 1.155 0 .63.21 1.185.225.555.69.9.48.345 1.23.345m8.853 1.62q-1.23 0-2.1-.51a3.35 3.35 0 0 1-1.305-1.41q-.435-.915-.435-2.115t.45-2.115a3.5 3.5 0 0 1 1.32-1.455q.87-.525 2.085-.525.9 0 1.575.33.675.315 1.125.87.465.555.69 1.26t.21 1.485l-.03.36q-.015.165-.045.36h-5.55q.045.525.27.96.24.435.66.69.435.255 1.08.255.375 0 .72-.09.345-.105.6-.3a.93.93 0 0 0 .36-.495h1.83q-.195.855-.72 1.395t-1.26.795q-.72.255-1.53.255m-1.98-4.83h3.81q0-.495-.225-.9t-.645-.63q-.405-.24-.99-.24-.63 0-1.05.255t-.645.66-.255.855m10.083 4.83q-.57 0-1.14-.12-.555-.12-1.05-.39a2.5 2.5 0 0 1-.825-.765q-.33-.48-.435-1.2h1.845q.12.33.375.54.27.195.615.3.36.09.705.09.21 0 .45-.03.255-.03.465-.12.225-.09.36-.255a.76.76 0 0 0 .135-.465q0-.27-.15-.42a1 1 0 0 0-.405-.255 3 3 0 0 0-.615-.165q-.645-.135-1.38-.285a4 4 0 0 1-1.275-.51q-.225-.135-.39-.315t-.285-.39q-.105-.225-.165-.48a3 3 0 0 1-.045-.555q0-.63.255-1.065.27-.45.705-.72.45-.285 1.02-.42t1.17-.135q.81 0 1.47.255t1.095.78q.45.525.54 1.335h-1.74q-.075-.375-.465-.6-.375-.225-.96-.225-.21 0-.435.045-.225.03-.435.12-.195.075-.33.24a.67.67 0 0 0-.12.405q0 .225.105.39.12.165.345.285.24.105.555.18.51.105 1.065.21t.96.21q.48.135.87.39.39.24.6.645.225.39.225 1.005 0 .72-.3 1.2-.285.48-.765.75t-1.065.39-1.155.12m7.781-.015q-1.305 0-1.905-.72t-.6-1.995v-3.66h-1.215v-1.62h1.215v-2.22h1.83v2.22h2.4v1.62h-2.4v3.315q0 .39.09.705t.33.495.66.195q.36 0 .615-.12t.42-.27l.615 1.395q-.285.24-.645.39a3 3 0 0 1-.705.21q-.36.06-.705.06m7.221 2.82v-10.815h1.71l.09 1.065q.465-.615 1.11-.9t1.425-.285q1.17 0 1.935.54t1.14 1.455.375 2.07-.39 2.085a3.27 3.27 0 0 1-1.185 1.455q-.78.525-1.965.525-.555 0-1.02-.12-.45-.12-.81-.345a2.7 2.7 0 0 1-.585-.51v3.78zm3.96-4.455q.765 0 1.2-.33.435-.345.63-.885.195-.555.195-1.17 0-.645-.21-1.2a1.9 1.9 0 0 0-.645-.9q-.45-.345-1.2-.345-.69 0-1.17.345-.465.33-.705.885t-.24 1.2q0 .66.225 1.215.225.54.705.87.48.315 1.215.315m5.298 1.545v-7.905h1.665l.105 1.035q.3-.45.675-.69.39-.255.825-.36.45-.105.9-.105h.3q.15 0 .24.015v1.74h-.48q-.78 0-1.32.3t-.81.855-.27 1.365V170zm9.255.105q-1.215 0-2.1-.495-.87-.495-1.35-1.41-.465-.915-.465-2.145 0-1.245.48-2.145a3.5 3.5 0 0 1 1.35-1.425q.87-.51 2.085-.51 1.2 0 2.07.51t1.335 1.44q.465.915.465 2.16 0 1.215-.465 2.13-.45.9-1.32 1.395t-2.085.495m-.015-1.665q.75 0 1.2-.33.465-.33.675-.87t.21-1.17-.21-1.185a1.87 1.87 0 0 0-.675-.885q-.45-.345-1.2-.345t-1.215.345q-.465.33-.675.885-.21.54-.21 1.185 0 .63.21 1.185.225.54.675.87.465.315 1.215.315m5.35 4.47v-10.815h1.71l.09 1.065q.465-.615 1.11-.9t1.425-.285q1.17 0 1.935.54t1.14 1.455.375 2.07-.39 2.085a3.27 3.27 0 0 1-1.185 1.455q-.78.525-1.965.525-.555 0-1.02-.12-.45-.12-.81-.345a2.7 2.7 0 0 1-.585-.51v3.78zm3.96-4.455q.765 0 1.2-.33.435-.345.63-.885.195-.555.195-1.17 0-.645-.21-1.2a1.9 1.9 0 0 0-.645-.9q-.45-.345-1.2-.345-.69 0-1.17.345-.465.33-.705.885t-.24 1.2q0 .66.225 1.215.225.54.705.87.48.315 1.215.315m8.838 1.65q-1.23 0-2.1-.51a3.35 3.35 0 0 1-1.305-1.41q-.435-.915-.435-2.115t.45-2.115a3.5 3.5 0 0 1 1.32-1.455q.87-.525 2.085-.525.9 0 1.575.33.675.315 1.125.87.465.555.69 1.26t.21 1.485l-.03.36q-.015.165-.045.36h-5.55q.045.525.27.96.24.435.66.69.435.255 1.08.255.375 0 .72-.09.345-.105.6-.3a.93.93 0 0 0 .36-.495h1.83q-.195.855-.72 1.395t-1.26.795q-.72.255-1.53.255m-1.98-4.83h3.81q0-.495-.225-.9t-.645-.63q-.405-.24-.99-.24-.63 0-1.05.255t-.645.66-.255.855m7.053 4.725v-7.905h1.665l.105 1.035q.3-.45.675-.69.39-.255.825-.36.45-.105.9-.105h.3q.15 0 .24.015v1.74h-.48q-.78 0-1.32.3t-.81.855-.27 1.365V170zm9.69 0q-.96 0-1.59-.255-.615-.255-.93-.825-.3-.57-.3-1.53v-3.675h-1.215v-1.62h1.215v-2.205h1.83v2.205h1.845v1.62h-1.845v3.435q0 .6.21.915t.945.315h.63V170zm2.073 0v-7.905h1.83V170zm.915-8.82q-.525 0-.84-.315t-.315-.825q0-.495.33-.81.33-.33.825-.33.48 0 .825.315t.345.825-.33.825-.84.315m6.228 8.925q-1.23 0-2.1-.51a3.35 3.35 0 0 1-1.305-1.41q-.435-.915-.435-2.115t.45-2.115a3.5 3.5 0 0 1 1.32-1.455q.87-.525 2.085-.525.9 0 1.575.33.675.315 1.125.87.465.555.69 1.26t.21 1.485l-.03.36q-.015.165-.045.36h-5.55q.045.525.27.96.24.435.66.69.435.255 1.08.255.375 0 .72-.09.345-.105.6-.3a.93.93 0 0 0 .36-.495h1.83q-.195.855-.72 1.395t-1.26.795q-.72.255-1.53.255m-1.98-4.83h3.81q0-.495-.225-.9t-.645-.63q-.405-.24-.99-.24-.63 0-1.05.255t-.645.66-.255.855m10.084 4.83q-.57 0-1.14-.12-.555-.12-1.05-.39a2.5 2.5 0 0 1-.825-.765q-.33-.48-.435-1.2h1.845q.12.33.375.54.27.195.615.3.36.09.705.09.21 0 .45-.03.255-.03.465-.12.225-.09.36-.255a.76.76 0 0 0 .135-.465q0-.27-.15-.42a1 1 0 0 0-.405-.255 3 3 0 0 0-.615-.165q-.645-.135-1.38-.285a4 4 0 0 1-1.275-.51q-.225-.135-.39-.315t-.285-.39q-.105-.225-.165-.48a3 3 0 0 1-.045-.555q0-.63.255-1.065.27-.45.705-.72.45-.285 1.02-.42t1.17-.135q.81 0 1.47.255t1.095.78q.45.525.54 1.335h-1.74q-.075-.375-.465-.6-.375-.225-.96-.225-.21 0-.435.045-.225.03-.435.12-.195.075-.33.24a.67.67 0 0 0-.12.405q0 .225.105.39.12.165.345.285.24.105.555.18.51.105 1.065.21t.96.21q.48.135.87.39.39.24.6.645.225.39.225 1.005 0 .72-.3 1.2-.285.48-.765.75t-1.065.39-1.155.12M25.74 179.2q.36 0 .615.24.255.225.255.6t-.255.615a.87.87 0 0 1-.615.24.83.83 0 0 1-.615-.24.83.83 0 0 1-.24-.615q0-.375.24-.6.24-.24.615-.24m-.63 10.8v-7.905h1.275V190zm3.396 0v-7.905h1.23l.06 1.2q.195-.33.48-.57.3-.24.645-.405t.72-.24q.39-.075.75-.075.855 0 1.44.285.585.27.93.765.345.48.495 1.155.15.66.15 1.425V190h-1.275v-4.02q0-.555-.075-1.065-.06-.51-.27-.9-.195-.405-.57-.645t-1.005-.24q-.615.015-1.095.3-.465.285-.75.675-.345.495-.465 1.095-.12.585-.12 1.185V190zm14.9-7.905h2.115v1.125h-2.115v4.095q0 .81.315 1.2.315.375 1.17.375h.585V190h-.855q-1.35 0-1.92-.615t-.57-1.935v-4.23h-1.29v-1.125h1.29v-2.355h1.275zM46.963 190v-10.605h1.275v3.915q.195-.3.495-.555t.63-.42.72-.24q.405-.09.78-.09.855 0 1.425.285.585.27.93.765.36.48.495 1.155.15.66.15 1.44V190h-1.275v-3.96q0-.54-.06-1.05a2.7 2.7 0 0 0-.27-.93q-.21-.405-.6-.66-.39-.27-1.065-.27-.555 0-1.035.285-.465.27-.75.69-.345.465-.465 1.035-.105.57-.105 1.17V190zm9.597-10.8q.36 0 .615.24.255.225.255.6t-.255.615a.87.87 0 0 1-.615.24.83.83 0 0 1-.615-.24.83.83 0 0 1-.24-.615q0-.375.24-.6.24-.24.615-.24m-.63 10.8v-7.905h1.275V190zm6.216-6.855q-.27 0-.555.045-.27.03-.54.15-.255.105-.45.33-.18.21-.195.57 0 .51.375.765.39.255 1.005.375.255.06.555.12.3.045.585.105a7 7 0 0 1 1.005.225q1.44.45 1.44 1.935-.015.72-.315 1.17-.285.435-.735.69-.435.255-1.005.36-.555.105-1.11.105-.54 0-1.095-.105t-1.02-.36q-.45-.27-.78-.69-.315-.435-.405-1.08h1.29q.12.36.375.57t.54.33q.3.12.555.165.27.045.6.045.24 0 .555-.03t.6-.135q.285-.12.48-.345t.195-.63q0-.45-.3-.675-.285-.225-.795-.33-.36-.075-.75-.135l-.765-.15q-.375-.09-.735-.195a3.2 3.2 0 0 1-.675-.315q-.42-.255-.675-.69t-.255-1.065q.03-.66.3-1.08.27-.435.69-.705.45-.27.96-.375t1.08-.105q1.215 0 1.935.525.435.3.675.72t.3.885h-1.185q-.105-.435-.57-.705t-1.185-.285m12.23 6.945q-.945 0-1.635-.3t-1.14-.84-.675-1.275a5.5 5.5 0 0 1-.225-1.605q0-.84.24-1.575.24-.75.705-1.29.465-.555 1.17-.87.705-.33 1.71-.33.6 0 1.065.135.465.12.87.405.42.27.72.72t.435 1.095h-1.305q-.225-.66-.72-.945-.48-.285-1.14-.27-.645 0-1.14.255-.48.24-.78.645-.285.405-.42.945-.135.525-.135 1.08 0 .585.135 1.11.15.525.435.93.3.39.765.63.465.225 1.11.225.315 0 .615-.06.315-.06.57-.195.27-.15.465-.39t.285-.585h1.32q-.12.615-.435 1.065-.3.435-.75.735-.45.285-.99.42t-1.125.135m10.121-1.095q-.255.345-.585.555t-.69.33q-.345.12-.705.165-.345.045-.69.045-.555 0-1.05-.135t-.9-.435q-.39-.3-.63-.75a2.25 2.25 0 0 1-.225-1.02q0-.675.24-1.125.255-.465.675-.75t.96-.39q.555-.12 1.17-.12h2.325q0-1.005-.435-1.59-.435-.6-1.47-.63-.63 0-1.11.21t-.66.69h-1.365q.105-.54.42-.915.315-.39.75-.63.435-.255.945-.375t1.02-.12q.885 0 1.485.3.615.285.99.765.375.465.525 1.14t.15 1.515V190h-1.065zm-1.5-2.565q-.36 0-.84.015-.465 0-.9.09t-.705.375q-.255.285-.255.75 0 .345.135.585t.36.405q.24.165.54.24t.615.075q1.125 0 1.77-.54.66-.555.675-1.605v-.39zm6.61-4.335h2.43v1.125h-2.43v4.11q0 .345.03.645.045.285.15.51.12.21.33.345.225.12.6.135.345 0 .6-.12.27-.12.45-.285l.555.93q-.39.33-.81.465t-.93.135q-.645 0-1.08-.18a2 2 0 0 1-.735-.555q-.255-.345-.345-.81t-.09-1.05v-4.275h-1.29v-1.125h1.29v-2.37h1.275zm4.943 4.425q.045.525.21.975.18.435.48.765t.735.525q.45.18 1.035.18.285 0 .585-.045.315-.06.585-.18.27-.135.48-.345t.315-.51h1.305q-.135.57-.465.99-.315.42-.765.69-.435.27-.975.405-.54.12-1.095.12-.945 0-1.65-.3-.69-.3-1.155-.825-.465-.54-.69-1.275a5.7 5.7 0 0 1-.225-1.635q0-.885.24-1.62.255-.75.72-1.29t1.14-.84 1.605-.3q.945 0 1.635.375t1.11.99q.42.6.585 1.305.18.705.15 1.305 0 .135-.015.27 0 .135-.015.27zm4.605-1.11q-.03-1.005-.63-1.635t-1.605-.63q-.555 0-.975.18t-.705.495-.45.735q-.165.405-.21.855zm10.053 4.53q0 1.68-.9 2.64t-2.715.96q-.6 0-1.155-.135-.54-.135-.99-.435-.435-.285-.75-.735-.3-.435-.42-1.05h1.32q.09.345.3.57.225.24.51.375.285.15.615.21t.645.06q.6 0 1.035-.195.435-.18.705-.51t.39-.795q.135-.45.135-.99v-1.095q-.39.69-1.11.99-.72.285-1.5.285-.9-.015-1.56-.315-.66-.315-1.08-.855a3.7 3.7 0 0 1-.63-1.26 6.2 6.2 0 0 1-.195-1.59q0-.855.21-1.59.21-.75.645-1.29.435-.555 1.095-.87t1.575-.315q.69 0 1.395.255t1.155.825l.06-.99h1.215zm-3.72-6.795q-.645 0-1.095.24-.45.225-.735.615-.27.39-.405.93-.12.525-.12 1.125 0 .66.12 1.17.12.495.405.885t.735.63q.45.225 1.11.225.765 0 1.26-.36t.795-.9q.21-.375.3-.81.09-.45.09-.885 0-.54-.105-.99-.09-.45-.345-.84a2.6 2.6 0 0 0-.795-.735q-.495-.3-1.215-.3m9.203-1.14q.945 0 1.635.3t1.155.84q.48.54.705 1.29.24.735.24 1.62t-.24 1.635q-.225.735-.705 1.275-.465.525-1.17.825t-1.65.3-1.65-.3q-.69-.3-1.17-.825a3.7 3.7 0 0 1-.705-1.275 5.7 5.7 0 0 1-.225-1.635q0-.885.225-1.62.24-.75.705-1.29.48-.54 1.2-.84t1.65-.3m-.03 6.96q.645 0 1.11-.225.48-.225.78-.615.315-.405.45-.93.15-.525.15-1.14 0-.6-.15-1.125-.135-.54-.45-.93-.3-.405-.78-.63-.465-.225-1.11-.225t-1.11.225-.78.63q-.3.39-.45.93-.135.525-.135 1.125 0 .615.135 1.14.15.525.45.93.315.39.78.615t1.11.225m5.471 1.035v-7.905h1.23l.06 1.23q.435-.69 1.11-1.005t1.53-.315h.405v1.2h-.465q-.705 0-1.2.24-.495.225-.81.63-.3.39-.45.93-.135.54-.135 1.14V190zm12.541-7.905V190q0 1.725-.9 2.625-.9.915-2.565.915-1.005-.015-1.815-.27-.795-.24-1.47-.87l.555-1.005q.585.465 1.245.735.675.27 1.41.27.615 0 1.05-.195.435-.18.705-.525.285-.33.405-.795.135-.465.135-1.005v-.945q-.195.3-.495.54-.285.225-.63.375-.33.135-.72.195-.375.075-.765.075-.9-.015-1.5-.285-.585-.27-.945-.75a3.1 3.1 0 0 1-.495-1.14q-.15-.675-.15-1.485v-4.365h1.275v4.005q0 .54.06 1.065.075.525.285.93t.615.66q.405.24 1.08.24t1.14-.285q.48-.285.735-.72.285-.45.375-.99.105-.54.105-1.11v-3.795zm6.783-2.895q.36 0 .615.24.255.225.255.6t-.255.615a.87.87 0 0 1-.615.24.83.83 0 0 1-.615-.24.83.83 0 0 1-.24-.615q0-.375.24-.6.24-.24.615-.24m-.63 10.8v-7.905h1.275V190zm3.396 0v-7.905h1.23l.06 1.2q.195-.33.48-.57.3-.24.645-.405t.72-.24q.39-.075.75-.075.855 0 1.44.285.585.27.93.765.345.48.495 1.155.15.66.15 1.425V190h-1.275v-4.02q0-.555-.075-1.065-.06-.51-.27-.9-.195-.405-.57-.645t-1.005-.24q-.615.015-1.095.3-.465.285-.75.675-.345.495-.465 1.095-.12.585-.12 1.185V190zm14.9-7.905h2.43v1.125h-2.43v4.11q0 .345.03.645.045.285.15.51.12.21.33.345.225.12.6.135.345 0 .6-.12.27-.12.45-.285l.555.93q-.39.33-.81.465t-.93.135q-.645 0-1.08-.18a2 2 0 0 1-.735-.555q-.255-.345-.345-.81t-.09-1.05v-4.275h-1.29v-1.125h1.29v-2.37h1.275zm4.942 4.425q.045.525.21.975.18.435.48.765t.735.525q.45.18 1.035.18.285 0 .585-.045.315-.06.585-.18.27-.135.48-.345t.315-.51h1.305q-.135.57-.465.99-.315.42-.765.69-.435.27-.975.405-.54.12-1.095.12-.945 0-1.65-.3-.69-.3-1.155-.825-.465-.54-.69-1.275a5.7 5.7 0 0 1-.225-1.635q0-.885.24-1.62.255-.75.72-1.29t1.14-.84 1.605-.3q.945 0 1.635.375t1.11.99q.42.6.585 1.305.18.705.15 1.305 0 .135-.015.27 0 .135-.015.27zm4.605-1.11q-.03-1.005-.63-1.635t-1.605-.63q-.555 0-.975.18t-.705.495-.45.735q-.165.405-.21.855zm3.004 4.59v-7.905h1.23l.06 1.23q.435-.69 1.11-1.005t1.53-.315h.405v1.2h-.465q-.705 0-1.2.24-.495.225-.81.63-.3.39-.45.93-.135.54-.135 1.14V190zm6.886-6.96q.375-.525.915-.78.555-.255 1.23-.255.825.015 1.335.36t.765.915q.405-.6.99-.93.6-.345 1.41-.345.645 0 1.11.225.465.21.75.6.285.375.42.885t.135 1.11V190h-1.275v-4.53q0-.39-.045-.795-.03-.42-.18-.75-.15-.345-.45-.555-.3-.225-.81-.225-.495 0-.84.24-.345.225-.555.6-.195.375-.285.825t-.09.885V190h-1.275v-4.545q0-.375-.03-.78-.03-.42-.18-.75a1.23 1.23 0 0 0-.42-.555q-.285-.225-.795-.225-.54 0-.9.24-.345.24-.57.615-.21.375-.3.84-.075.45-.075.87V190h-1.275v-7.905h1.23zm13.82.105q-.27 0-.555.045-.27.03-.54.15-.255.105-.45.33-.18.21-.195.57 0 .51.375.765.39.255 1.005.375.255.06.555.12.3.045.585.105a7 7 0 0 1 1.005.225q1.44.45 1.44 1.935-.015.72-.315 1.17-.285.435-.735.69-.435.255-1.005.36-.555.105-1.11.105-.54 0-1.095-.105t-1.02-.36q-.45-.27-.78-.69-.315-.435-.405-1.08h1.29q.12.36.375.57t.54.33q.3.12.555.165.27.045.6.045.24 0 .555-.03t.6-.135q.285-.12.48-.345t.195-.63q0-.45-.3-.675-.285-.225-.795-.33-.36-.075-.75-.135l-.765-.15q-.375-.09-.735-.195a3.2 3.2 0 0 1-.675-.315q-.42-.255-.675-.69t-.255-1.065q.03-.66.3-1.08.27-.435.69-.705.45-.27.96-.375t1.08-.105q1.215 0 1.935.525.435.3.675.72t.3.885h-1.185q-.105-.435-.57-.705t-1.185-.285m12.335-1.14q.945 0 1.635.3t1.155.84q.48.54.705 1.29.24.735.24 1.62t-.24 1.635q-.225.735-.705 1.275-.465.525-1.17.825t-1.65.3-1.65-.3q-.69-.3-1.17-.825a3.7 3.7 0 0 1-.705-1.275 5.7 5.7 0 0 1-.225-1.635q0-.885.225-1.62.24-.75.705-1.29.48-.54 1.2-.84t1.65-.3m-.03 6.96q.645 0 1.11-.225.48-.225.78-.615.315-.405.45-.93.15-.525.15-1.14 0-.6-.15-1.125-.135-.54-.45-.93-.3-.405-.78-.63-.465-.225-1.11-.225t-1.11.225-.78.63q-.3.39-.45.93-.135.525-.135 1.125 0 .615.135 1.14.15.525.45.93.315.39.78.615t1.11.225m6.089 1.035v-6.78h-1.29v-1.125h1.29v-.84q0-1.32.57-1.935t1.92-.615h.9v1.125h-.765q-.81 0-1.08.405t-.27 1.17v.69h2.115v1.125h-2.115V190zm8.771 2.85v-10.755h1.215l.06 1.185q.405-.615 1.095-.93.705-.33 1.515-.345.915 0 1.545.315.645.3 1.065.855.435.54.645 1.29.21.735.21 1.59 0 .87-.21 1.605t-.645 1.275-1.095.855q-.66.3-1.575.3-.9 0-1.53-.285t-1.02-.795v3.84zm3.72-3.885q.645 0 1.08-.225.45-.24.72-.63.285-.405.405-.93.135-.525.15-1.125 0-.6-.135-1.125a2.5 2.5 0 0 0-.405-.93q-.285-.39-.75-.615-.45-.24-1.095-.24-.765 0-1.32.42-.555.405-.84 1.035-.165.345-.225.72-.06.36-.06.75 0 .45.06.84.06.375.225.72.285.57.825.96.555.375 1.365.375m5.333 1.035v-7.905h1.23l.06 1.23q.435-.69 1.11-1.005t1.53-.315h.405v1.2h-.465q-.705 0-1.2.24-.495.225-.81.63-.3.39-.45.93-.135.54-.135 1.14V190zm6.331-10.8q.36 0 .615.24.255.225.255.6t-.255.615a.87.87 0 0 1-.615.24.83.83 0 0 1-.615-.24.83.83 0 0 1-.24-.615q0-.375.24-.6.24-.24.615-.24m-.63 10.8v-7.905h1.275V190zm6.77.09q-.945 0-1.635-.3t-1.14-.84-.675-1.275a5.5 5.5 0 0 1-.225-1.605q0-.84.24-1.575.24-.75.705-1.29.465-.555 1.17-.87.705-.33 1.71-.33.6 0 1.065.135.465.12.87.405.42.27.72.72t.435 1.095h-1.305q-.225-.66-.72-.945-.48-.285-1.14-.27-.645 0-1.14.255-.48.24-.78.645-.285.405-.42.945-.135.525-.135 1.08 0 .585.135 1.11.15.525.435.93.3.39.765.63.465.225 1.11.225.315 0 .615-.06.315-.06.57-.195.27-.15.465-.39t.285-.585h1.32q-.12.615-.435 1.065-.3.435-.75.735-.45.285-.99.42t-1.125.135m5.906-3.57q.045.525.21.975.18.435.48.765t.735.525q.45.18 1.035.18.285 0 .585-.045.315-.06.585-.18.27-.135.48-.345t.315-.51h1.305q-.135.57-.465.99-.315.42-.765.69-.435.27-.975.405-.54.12-1.095.12-.945 0-1.65-.3-.69-.3-1.155-.825-.465-.54-.69-1.275a5.7 5.7 0 0 1-.225-1.635q0-.885.24-1.62.255-.75.72-1.29t1.14-.84 1.605-.3q.945 0 1.635.375t1.11.99q.42.6.585 1.305.18.705.15 1.305 0 .135-.015.27 0 .135-.015.27zm4.605-1.11q-.03-1.005-.63-1.635t-1.605-.63q-.555 0-.975.18t-.705.495-.45.735q-.165.405-.21.855zm12.252 3.585q-.255.345-.585.555t-.69.33q-.345.12-.705.165-.345.045-.69.045-.555 0-1.05-.135t-.9-.435q-.39-.3-.63-.75a2.25 2.25 0 0 1-.225-1.02q0-.675.24-1.125.255-.465.675-.75t.96-.39q.555-.12 1.17-.12h2.325q0-1.005-.435-1.59-.435-.6-1.47-.63-.63 0-1.11.21t-.66.69h-1.365q.105-.54.42-.915.315-.39.75-.63.435-.255.945-.375t1.02-.12q.885 0 1.485.3.615.285.99.765.375.465.525 1.14t.15 1.515V190h-1.065zm-1.5-2.565q-.36 0-.84.015-.465 0-.9.09t-.705.375q-.255.285-.255.75 0 .345.135.585t.36.405q.24.165.54.24t.615.075q1.125 0 1.77-.54.66-.555.675-1.605v-.39zm4.615 3.57v-7.905h1.23l.06 1.2q.195-.33.48-.57.3-.24.645-.405t.72-.24q.39-.075.75-.075.855 0 1.44.285.585.27.93.765.345.48.495 1.155.15.66.15 1.425V190h-1.275v-4.02q0-.555-.075-1.065-.06-.51-.27-.9-.195-.405-.57-.645t-1.005-.24q-.615.015-1.095.3-.465.285-.75.675-.345.495-.465 1.095-.12.585-.12 1.185V190zm15.913 0h-1.215l-.06-1.185q-.405.675-1.125.975-.705.3-1.485.3-.9-.015-1.56-.315-.66-.315-1.08-.855a3.7 3.7 0 0 1-.63-1.26 6.2 6.2 0 0 1-.195-1.59q0-.855.21-1.59.21-.75.645-1.29.435-.555 1.095-.87t1.575-.315q.69 0 1.395.255t1.155.825v-3.69h1.275zm-3.72-6.855q-.645 0-1.095.24-.45.225-.735.615-.27.39-.405.93-.12.525-.12 1.155t.12 1.14q.12.495.405.885t.735.63q.45.225 1.11.225.765 0 1.26-.36t.795-.9q.21-.375.3-.81.09-.45.09-.885 0-.54-.105-.99-.09-.45-.345-.84a2.6 2.6 0 0 0-.795-.735q-.495-.3-1.215-.3M25.005 210v-10.605h1.275V210zm4.016-10.8q.36 0 .615.24.255.225.255.6t-.255.615a.87.87 0 0 1-.615.24.83.83 0 0 1-.615-.24.83.83 0 0 1-.24-.615q0-.375.24-.6.24-.24.615-.24m-.63 10.8v-7.905h1.275V210zm10.446 2.85h-1.275v-4.035q-.39.69-1.11.99-.72.285-1.5.285-.9-.015-1.56-.315-.66-.315-1.08-.855a3.7 3.7 0 0 1-.63-1.26 6.2 6.2 0 0 1-.195-1.59q0-.855.21-1.59.21-.75.645-1.29.435-.555 1.095-.87t1.575-.315q.69 0 1.395.255t1.155.825l.06-.99h1.215zm-3.72-9.705q-.645 0-1.095.24-.45.225-.735.615-.27.39-.405.93-.12.525-.12 1.125 0 .66.12 1.17.12.495.405.885t.735.63q.45.225 1.11.225.765 0 1.26-.36t.795-.9q.21-.375.3-.81t.09-.885q0-.54-.105-.99-.09-.45-.345-.84a2.6 2.6 0 0 0-.795-.735q-.495-.3-1.215-.3m9.023 5.82q1.08 0 1.575-.645.51-.66.51-1.83v-4.395H47.5v4.455q0 1.8-.87 2.67-.855.87-2.49.87t-2.49-.87q-.84-.87-.84-2.67v-4.455h1.275v4.395q0 1.17.51 1.83.51.645 1.545.645m6.078-9.765q.36 0 .614.24.255.225.255.6t-.255.615a.87.87 0 0 1-.614.24.83.83 0 0 1-.616-.24.83.83 0 0 1-.24-.615q0-.375.24-.6.24-.24.616-.24m-.63 10.8v-7.905h1.274V210zm10.445 0h-1.215l-.06-1.185q-.405.675-1.125.975-.705.3-1.485.3-.9-.015-1.56-.315-.66-.315-1.08-.855a3.7 3.7 0 0 1-.63-1.26 6.2 6.2 0 0 1-.194-1.59q0-.855.21-1.59.21-.75.645-1.29.435-.555 1.094-.87.66-.315 1.575-.315.69 0 1.395.255t1.155.825v-3.69h1.275zm-3.72-6.855q-.644 0-1.095.24-.45.225-.735.615-.27.39-.404.93-.12.525-.12 1.155t.12 1.14q.12.495.404.885.286.39.736.63.45.225 1.11.225.765 0 1.26-.36t.794-.9q.21-.375.3-.81.09-.45.09-.885 0-.54-.105-.99-.09-.45-.344-.84a2.6 2.6 0 0 0-.795-.735q-.495-.3-1.216-.3m6.458-3.945q.36 0 .615.24.255.225.255.6t-.255.615a.87.87 0 0 1-.615.24.83.83 0 0 1-.615-.24.83.83 0 0 1-.24-.615q0-.375.24-.6.24-.24.615-.24m-.63 10.8v-7.905h1.275V210zm5.391-7.905h2.43v1.125h-2.43v4.11q0 .345.03.645.045.285.15.51.12.21.33.345.225.12.6.135.345 0 .6-.12.27-.12.45-.285l.555.93q-.39.33-.81.465t-.93.135q-.645 0-1.08-.18a2 2 0 0 1-.735-.555q-.255-.345-.345-.81t-.09-1.05v-4.275h-1.29v-1.125h1.29v-2.37h1.275zm10.898 0V210q0 1.725-.9 2.625-.9.915-2.565.915-1.006-.015-1.815-.27-.795-.24-1.47-.87l.554-1.005q.585.465 1.246.735.675.27 1.41.27.615 0 1.05-.195.435-.18.704-.525.285-.33.405-.795.135-.465.135-1.005v-.945q-.194.3-.495.54-.285.225-.63.375-.33.135-.72.195-.374.075-.764.075-.9-.015-1.5-.285-.585-.27-.946-.75a3.1 3.1 0 0 1-.495-1.14q-.15-.675-.15-1.485v-4.365h1.276v4.005q0 .54.06 1.065.075.525.285.93t.614.66q.405.24 1.08.24t1.14-.285q.48-.285.736-.72.285-.45.374-.99.105-.54.105-1.11v-3.795zm6.783-2.895q.36 0 .615.24.255.225.255.6t-.255.615a.87.87 0 0 1-.615.24.83.83 0 0 1-.615-.24.83.83 0 0 1-.24-.615q0-.375.24-.6.24-.24.615-.24m-.63 10.8v-7.905h1.275V210zm3.396 0v-7.905h1.23l.06 1.2q.195-.33.48-.57.3-.24.645-.405t.72-.24q.39-.075.75-.075.855 0 1.44.285.585.27.93.765.345.48.495 1.155.15.66.15 1.425V210h-1.275v-4.02q0-.555-.075-1.065-.06-.51-.27-.9-.195-.405-.57-.645t-1.005-.24q-.615.015-1.095.3-.465.285-.75.675-.345.495-.465 1.095-.12.585-.12 1.185V210zm15.912 0h-1.215l-.06-1.185q-.405.675-1.125.975-.705.3-1.485.3-.9-.015-1.56-.315-.66-.315-1.08-.855a3.7 3.7 0 0 1-.63-1.26 6.2 6.2 0 0 1-.195-1.59q0-.855.21-1.59.21-.75.645-1.29.435-.555 1.095-.87t1.575-.315q.69 0 1.395.255t1.155.825v-3.69h1.275zm-3.72-6.855q-.645 0-1.095.24-.45.225-.735.615-.27.39-.405.93-.12.525-.12 1.155t.12 1.14q.12.495.405.885t.735.63q.45.225 1.11.225.765 0 1.26-.36t.795-.9q.21-.375.3-.81.09-.45.09-.885 0-.54-.105-.99-.09-.45-.345-.84a2.6 2.6 0 0 0-.795-.735q-.495-.3-1.215-.3m6.458-3.945q.36 0 .615.24.255.225.255.6t-.255.615a.87.87 0 0 1-.615.24.83.83 0 0 1-.615-.24.83.83 0 0 1-.24-.615q0-.375.24-.6.24-.24.615-.24m-.63 10.8v-7.905h1.275V210zm6.771.09q-.945 0-1.635-.3t-1.14-.84-.675-1.275a5.5 5.5 0 0 1-.225-1.605q0-.84.24-1.575.24-.75.705-1.29.465-.555 1.17-.87.705-.33 1.71-.33.6 0 1.065.135.465.12.87.405.42.27.72.72t.435 1.095h-1.305q-.225-.66-.72-.945-.48-.285-1.14-.27-.645 0-1.14.255-.48.24-.78.645-.285.405-.42.945-.135.525-.135 1.08 0 .585.135 1.11.15.525.435.93.3.39.765.63.465.225 1.11.225.315 0 .615-.06.315-.06.57-.195.27-.15.465-.39t.285-.585h1.32q-.12.615-.435 1.065-.3.435-.75.735-.45.285-.99.42t-1.125.135m10.121-1.095q-.255.345-.585.555t-.69.33q-.345.12-.705.165-.345.045-.69.045-.555 0-1.05-.135t-.9-.435q-.39-.3-.63-.75a2.25 2.25 0 0 1-.225-1.02q0-.675.24-1.125.255-.465.675-.75t.96-.39q.555-.12 1.17-.12h2.325q0-1.005-.435-1.59-.435-.6-1.47-.63-.63 0-1.11.21t-.66.69h-1.365q.105-.54.42-.915.315-.39.75-.63.435-.255.945-.375t1.02-.12q.885 0 1.485.3.615.285.99.765.375.465.525 1.14t.15 1.515V210h-1.065zm-1.5-2.565q-.36 0-.84.015-.465 0-.9.09t-.705.375q-.255.285-.255.75 0 .345.135.585t.36.405q.24.165.54.24t.615.075q1.125 0 1.77-.54.66-.555.675-1.605v-.39zm6.61-4.335h2.43v1.125h-2.43v4.11q0 .345.03.645.045.285.15.51.12.21.33.345.225.12.6.135.345 0 .6-.12.27-.12.45-.285l.555.93q-.39.33-.81.465t-.93.135q-.645 0-1.08-.18a2 2 0 0 1-.735-.555q-.255-.345-.345-.81t-.09-1.05v-4.275h-1.29v-1.125h1.29v-2.37h1.275zm7.432-.09q.945 0 1.635.3t1.155.84q.48.54.705 1.29.24.735.24 1.62t-.24 1.635q-.225.735-.705 1.275-.465.525-1.17.825t-1.65.3-1.65-.3q-.69-.3-1.17-.825a3.7 3.7 0 0 1-.705-1.275 5.7 5.7 0 0 1-.225-1.635q0-.885.225-1.62.24-.75.705-1.29.48-.54 1.2-.84t1.65-.3m-.03 6.96q.645 0 1.11-.225.48-.225.78-.615.315-.405.45-.93.15-.525.15-1.14 0-.6-.15-1.125-.135-.54-.45-.93-.3-.405-.78-.63-.465-.225-1.11-.225t-1.11.225-.78.63q-.3.39-.45.93-.135.525-.135 1.125 0 .615.135 1.14.15.525.45.93.315.39.78.615t1.11.225m5.471 1.035v-7.905h1.23l.06 1.23q.435-.69 1.11-1.005t1.53-.315h.405v1.2h-.465q-.705 0-1.2.24-.495.225-.81.63-.3.39-.45.93-.135.54-.135 1.14V210zm8.269-6.855q-.27 0-.555.045-.27.03-.54.15-.255.105-.45.33-.18.21-.195.57 0 .51.375.765.39.255 1.005.375.255.06.555.12.3.045.585.105a7 7 0 0 1 1.005.225q1.44.45 1.44 1.935-.015.72-.315 1.17-.285.435-.735.69-.435.255-1.005.36-.555.105-1.11.105-.54 0-1.095-.105t-1.02-.36q-.45-.27-.78-.69-.315-.435-.405-1.08h1.29q.12.36.375.57t.54.33q.3.12.555.165.27.045.6.045.24 0 .555-.03t.6-.135q.285-.12.48-.345t.195-.63q0-.45-.3-.675-.285-.225-.795-.33-.36-.075-.75-.135l-.765-.15q-.375-.09-.735-.195a3.2 3.2 0 0 1-.675-.315q-.42-.255-.675-.69t-.255-1.065q.03-.66.3-1.08.27-.435.69-.705.45-.27.96-.375t1.08-.105q1.215 0 1.935.525.435.3.675.72t.3.885h-1.185q-.105-.435-.57-.705t-1.185-.285m5.712 5.175q.39 0 .645.255t.255.645-.255.645a.87.87 0 0 1-.645.255.87.87 0 0 1-.645-.255.87.87 0 0 1-.255-.645q0-.39.255-.645a.87.87 0 0 1 .645-.255"/></svg>