<svg width="128" height="29" viewBox="0 0 128 29" fill="none" xmlns="http://www.w3.org/2000/svg">
<path d="M124.04 22.5481L120.172 16.8658L116.424 22.5481H112.615L118.086 14.4478L112.887 6.61939H116.877L120.353 12.2413L123.738 6.61939H127.667L122.408 14.5384L128 22.5481H124.04Z" fill="#191919"/>
<path d="M108.839 0C109.464 0 109.978 0.191427 110.381 0.574281C110.804 0.957137 111.015 1.48104 111.015 2.146C111.015 2.79081 110.804 3.30464 110.381 3.68749C109.978 4.07035 109.464 4.26177 108.839 4.26177C108.174 4.26177 107.64 4.07035 107.237 3.68749C106.834 3.30464 106.633 2.79081 106.633 2.146C106.633 1.48104 106.834 0.957137 107.237 0.574281C107.64 0.191427 108.174 0 108.839 0ZM107.086 22.5481V6.61935H110.532V22.5481H107.086Z" fill="#191919"/>
<path d="M100.559 6.61935H104.579V9.61166H100.559V16.896C100.559 17.8027 100.72 18.4778 101.043 18.9211C101.365 19.3644 101.979 19.586 102.886 19.586H104.458V22.5481H102.584C100.629 22.5481 99.229 22.1451 98.3827 21.3391C97.5565 20.5331 97.1435 19.2132 97.1435 17.3796V9.61166H94.6348V6.61935H97.1435V2.11577H100.559V6.61935Z" fill="#191919"/>
<path d="M83.3936 22.5481V6.61936H86.6277L86.809 8.88626C88.0382 7.19364 89.7106 6.34733 91.8264 6.34733C92.0279 6.34733 92.2193 6.35741 92.4007 6.37756C92.6022 6.37756 92.7835 6.38763 92.9447 6.40778V9.61167C92.7029 9.61167 92.4611 9.62174 92.2193 9.64189C91.9977 9.64189 91.776 9.64189 91.5544 9.64189C90.6678 9.66204 89.9222 9.82325 89.3177 10.1255C88.7333 10.4076 88.2497 10.7905 87.8669 11.2741C87.5042 11.7577 87.2422 12.332 87.081 12.9969C86.9198 13.6417 86.8392 14.3369 86.8392 15.0825V22.5481H83.3936Z" fill="#191919"/>
<path d="M69.1205 15.7474C69.1608 16.3318 69.2817 16.8758 69.4832 17.3796C69.6847 17.8833 69.9567 18.3266 70.2993 18.7095C70.662 19.0722 71.0952 19.3644 71.599 19.586C72.1229 19.8077 72.7274 19.9185 73.4125 19.9185C74.1379 19.9185 74.8028 19.7875 75.4073 19.5256C76.0118 19.2636 76.4551 18.8103 76.7372 18.1654H80.2736C80.0721 18.9715 79.7396 19.6666 79.2762 20.251C78.8329 20.8354 78.2989 21.319 77.6742 21.7018C77.0697 22.0645 76.3947 22.3365 75.6491 22.5179C74.9237 22.6791 74.1479 22.7597 73.3218 22.7597C72.0523 22.7597 70.934 22.5683 69.9668 22.1854C69.0197 21.8026 68.2238 21.2484 67.579 20.523C66.9342 19.7976 66.4506 18.9412 66.1282 17.9539C65.8259 16.9464 65.6748 15.8179 65.6748 14.5686C65.6748 13.3596 65.8461 12.2614 66.1886 11.2741C66.5312 10.2666 67.0249 9.40009 67.6697 8.67468C68.3346 7.94927 69.1306 7.38507 70.0575 6.98206C70.9844 6.55891 72.0423 6.34733 73.2311 6.34733C74.4804 6.34733 75.5585 6.55891 76.4652 6.98206C77.372 7.38507 78.1276 7.9392 78.7321 8.64446C79.3568 9.34972 79.8202 10.1759 80.1225 11.1229C80.4247 12.07 80.5758 13.0977 80.5758 14.2059C80.5758 14.7298 80.5456 15.2437 80.4852 15.7474H69.1205ZM77.2208 13.148C77.1805 11.939 76.7977 11.002 76.0723 10.3371C75.3469 9.67212 74.4099 9.33964 73.2613 9.33964C72.6165 9.33964 72.0523 9.44039 71.5687 9.64189C71.0851 9.8434 70.672 10.1154 70.3295 10.458C70.0071 10.8005 69.7451 11.2035 69.5436 11.667C69.3421 12.1304 69.2112 12.6241 69.1507 13.148H77.2208Z" fill="#191919"/>
<path d="M47.751 28.7443V6.61936H51.0153L51.1967 8.88626C51.8213 8.03995 52.587 7.40522 53.4938 6.98206C54.4005 6.55891 55.3778 6.34733 56.4256 6.34733C57.5137 6.34733 58.491 6.54883 59.3575 6.95184C60.2239 7.33469 60.9594 7.87875 61.5639 8.58401C62.1886 9.28927 62.652 10.1457 62.9543 11.1532C63.2767 12.1405 63.4379 13.2689 63.4379 14.5384C63.4379 15.7273 63.2867 16.8255 62.9845 17.833C62.6822 18.8405 62.2289 19.717 61.6244 20.4626C61.04 21.188 60.3045 21.7522 59.4179 22.1552C58.5515 22.5582 57.5339 22.7597 56.3652 22.7597C55.3577 22.7597 54.4005 22.6086 53.4938 22.3063C52.6072 21.9839 51.8415 21.4902 51.1967 20.8253V28.7443H47.751ZM55.7002 19.7674C56.4458 19.7674 57.0906 19.6364 57.6346 19.3745C58.1787 19.0924 58.622 18.7196 58.9645 18.2561C59.3272 17.7927 59.5892 17.2486 59.7504 16.624C59.9317 15.9993 60.0224 15.3243 60.0224 14.5989C60.0224 13.8734 59.9317 13.1984 59.7504 12.5738C59.5892 11.9289 59.3272 11.3748 58.9645 10.9114C58.622 10.4479 58.1686 10.0852 57.6044 9.82325C57.0604 9.56129 56.4055 9.43032 55.6398 9.43032C54.8942 9.43032 54.2494 9.57137 53.7053 9.85347C53.1613 10.1356 52.6978 10.5084 52.315 10.9718C51.9321 11.4353 51.64 11.9894 51.4385 12.6342C51.2571 13.2589 51.1664 13.9037 51.1664 14.5686C51.1664 16.0396 51.5493 17.2688 52.315 18.2561C53.0807 19.2435 54.2091 19.7472 55.7002 19.7674Z" fill="#191919"/>
<path d="M37.0638 6.34733C38.3332 6.34733 39.4516 6.54883 40.4188 6.95184C41.386 7.35484 42.2021 7.91905 42.867 8.64446C43.5521 9.34972 44.066 10.2061 44.4085 11.2136C44.7511 12.2211 44.9223 13.3395 44.9223 14.5686C44.9223 15.8179 44.7511 16.9464 44.4085 17.9539C44.0861 18.9412 43.5924 19.7976 42.9275 20.523C42.2625 21.2484 41.4364 21.8026 40.449 22.1854C39.4818 22.5683 38.3534 22.7597 37.0638 22.7597C35.7943 22.7597 34.676 22.5683 33.7088 22.1854C32.7416 21.7824 31.9255 21.2283 31.2605 20.523C30.6157 19.7976 30.1221 18.9312 29.7795 17.9236C29.4571 16.9161 29.2959 15.7978 29.2959 14.5686C29.2959 13.3395 29.4571 12.2211 29.7795 11.2136C30.1221 10.2061 30.6258 9.34972 31.2908 8.64446C31.9557 7.91905 32.7718 7.35484 33.739 6.95184C34.7062 6.54883 35.8145 6.34733 37.0638 6.34733ZM37.0638 19.7674C37.8496 19.7674 38.5146 19.6364 39.0586 19.3745C39.6229 19.0924 40.0762 18.7196 40.4188 18.2561C40.7815 17.7927 41.0434 17.2486 41.2046 16.624C41.386 15.9993 41.4767 15.3243 41.4767 14.5989C41.4767 13.8734 41.386 13.1984 41.2046 12.5738C41.0434 11.9289 40.7815 11.3748 40.4188 10.9114C40.0762 10.4479 39.6229 10.0852 39.0586 9.82325C38.5146 9.56129 37.8496 9.43032 37.0638 9.43032C36.2981 9.43032 35.6432 9.56129 35.0991 9.82325C34.5551 10.0852 34.1017 10.4479 33.739 10.9114C33.3763 11.3748 33.1043 11.9289 32.9229 12.5738C32.7617 13.1984 32.6811 13.8734 32.6811 14.5989C32.6811 15.3243 32.7617 15.9993 32.9229 16.624C33.1043 17.2486 33.3662 17.7927 33.7088 18.2561C34.0715 18.7196 34.5249 19.0924 35.0689 19.3745C35.6331 19.6364 36.2981 19.7674 37.0638 19.7674Z" fill="#191919"/>
<path d="M18.7207 22.5481V6.61936H21.9548L22.1362 8.88626C23.3653 7.19364 25.0378 6.34733 27.1535 6.34733C27.355 6.34733 27.5465 6.35741 27.7278 6.37756C27.9293 6.37756 28.1107 6.38763 28.2719 6.40778V9.61167C28.0301 9.61167 27.7883 9.62174 27.5465 9.64189C27.3248 9.64189 27.1032 9.64189 26.8815 9.64189C25.9949 9.66204 25.2494 9.82325 24.6448 10.1255C24.0605 10.4076 23.5769 10.7905 23.194 11.2741C22.8313 11.7577 22.5694 12.332 22.4082 12.9969C22.247 13.6417 22.1664 14.3369 22.1664 15.0825V22.5481H18.7207Z" fill="#191919"/>
<path d="M0 1.17884H7.82833C9.05749 1.17884 10.1557 1.31989 11.1229 1.602C12.1102 1.86395 12.9465 2.2871 13.6316 2.87146C14.3368 3.45582 14.8708 4.21145 15.2335 5.13836C15.6164 6.04512 15.8078 7.14331 15.8078 8.43292C15.8078 9.62179 15.6063 10.6797 15.2033 11.6066C14.8204 12.5335 14.2663 13.3093 13.5409 13.9339C12.8356 14.5586 11.9893 15.0321 11.002 15.3545C10.0146 15.6769 8.91644 15.8381 7.70743 15.8381H3.50613V22.5482H0V1.17884ZM7.52608 12.7551C8.87614 12.7551 9.99448 12.4227 10.8811 11.7577C11.7878 11.0726 12.2614 10.0147 12.3017 8.58405C12.3017 7.07278 11.9087 5.98467 11.1229 5.31971C10.3572 4.65475 9.22877 4.32228 7.73766 4.32228H3.50613V12.7551H7.52608Z" fill="#191919"/>
</svg>
